M48
; DRILL file {KiCad (5.99.0-7307-g71ab42e60a)} date Thu Dec  3 10:10:12 2020
; FORMAT={-:-/ absolute / inch / decimal}
; #@! TF.CreationDate,2020-12-03T10:10:12+02:00
; #@! TF.GenerationSoftware,Kicad,Pcbnew,(5.99.0-7307-g71ab42e60a)
; #@! TF.FileFunction,Plated,1,2,PTH
FMAT,2
INCH
T1C0.0157
T2C0.0315
T3C0.0354
T4C0.0394
T5C0.0433
T6C0.0472
T7C0.0551
%
G90
G05
T1
X2.5689Y-4.6654
X2.5689Y-4.9114
X2.5787Y-4.5374
X2.628Y-4.8228
X2.7165Y-5.0591
X2.7461Y-4.626
X2.7756Y-4.2815
X2.7756Y-4.3406
X2.7756Y-4.4587
X2.7953Y-5.0
X2.8255Y-4.1732
X2.9232Y-4.498
X2.9626Y-4.4291
X2.9921Y-4.5571
X3.0315Y-4.5866
X3.0709Y-4.6654
X3.0807Y-4.9016
X3.1004Y-4.3406
X3.1004Y-4.8031
X3.1102Y-5.1772
X3.1299Y-4.2913
X3.2382Y-4.3898
X3.2382Y-4.6949
X3.2382Y-5.0689
X3.2677Y-4.8622
X3.3563Y-4.498
T2
X2.3917Y-4.2028
X2.3917Y-4.5571
X2.4902Y-4.2028
X2.4902Y-4.5571
T3
X2.815Y-3.9075
X2.915Y-3.9075
T4
X2.3917Y-4.722
X2.3917Y-5.022
X2.5Y-4.722
X2.5Y-5.022
X3.1874Y-4.252
X3.2874Y-4.352
X3.3874Y-4.252
T5
X2.724Y-5.1772
X2.824Y-5.1772
X2.924Y-5.1772
X3.024Y-5.1772
T6
X3.376Y-4.6705
X3.376Y-4.7705
X3.376Y-4.8705
X3.376Y-4.9705
X3.376Y-5.0705
X3.376Y-5.1705
T7
X2.6642Y-4.065
X2.8642Y-4.065
X3.0642Y-4.065
T0
M30
