G04 #@! TF.GenerationSoftware,KiCad,Pcbnew,(5.99.0-1452-gb67f18b39)*
G04 #@! TF.CreationDate,2020-04-28T12:03:23+03:00*
G04 #@! TF.ProjectId,agudo,61677564-6f2e-46b6-9963-61645f706362,rev?*
G04 #@! TF.SameCoordinates,Original*
G04 #@! TF.FileFunction,Legend,Bot*
G04 #@! TF.FilePolarity,Positive*
%FSLAX46Y46*%
G04 Gerber Fmt 4.6, Leading zero omitted, Abs format (unit mm)*
G04 Created by KiCad (PCBNEW (5.99.0-1452-gb67f18b39)) date 2020-04-28 12:03:23*
%MOMM*%
%LPD*%
G01*
G04 APERTURE LIST*
%ADD10C,0.100000*%
%ADD11C,0.300000*%
%ADD12C,0.127000*%
%ADD13C,0.120000*%
G04 APERTURE END LIST*
D10*
X115631142Y-104077571D02*
X116359714Y-104077571D01*
X116445428Y-104034714D01*
X116488285Y-103991857D01*
X116531142Y-103906142D01*
X116531142Y-103777571D01*
X116488285Y-103691857D01*
X116188285Y-104077571D02*
X116231142Y-103991857D01*
X116231142Y-103820428D01*
X116188285Y-103734714D01*
X116145428Y-103691857D01*
X116059714Y-103649000D01*
X115802571Y-103649000D01*
X115716857Y-103691857D01*
X115674000Y-103734714D01*
X115631142Y-103820428D01*
X115631142Y-103991857D01*
X115674000Y-104077571D01*
X116231142Y-104506142D02*
X115631142Y-104506142D01*
X115331142Y-104506142D02*
X115374000Y-104463285D01*
X115416857Y-104506142D01*
X115374000Y-104549000D01*
X115331142Y-104506142D01*
X115416857Y-104506142D01*
X115631142Y-104806142D02*
X115631142Y-105149000D01*
X115331142Y-104934714D02*
X116102571Y-104934714D01*
X116188285Y-104977571D01*
X116231142Y-105063285D01*
X116231142Y-105149000D01*
X116231142Y-105449000D02*
X115331142Y-105449000D01*
X116231142Y-105834714D02*
X115759714Y-105834714D01*
X115674000Y-105791857D01*
X115631142Y-105706142D01*
X115631142Y-105577571D01*
X115674000Y-105491857D01*
X115716857Y-105449000D01*
X115631142Y-106649000D02*
X116231142Y-106649000D01*
X115631142Y-106263285D02*
X116102571Y-106263285D01*
X116188285Y-106306142D01*
X116231142Y-106391857D01*
X116231142Y-106520428D01*
X116188285Y-106606142D01*
X116145428Y-106649000D01*
X116231142Y-107077571D02*
X115331142Y-107077571D01*
X115674000Y-107077571D02*
X115631142Y-107163285D01*
X115631142Y-107334714D01*
X115674000Y-107420428D01*
X115716857Y-107463285D01*
X115802571Y-107506142D01*
X116059714Y-107506142D01*
X116145428Y-107463285D01*
X116188285Y-107420428D01*
X116231142Y-107334714D01*
X116231142Y-107163285D01*
X116188285Y-107077571D01*
X116145428Y-107891857D02*
X116188285Y-107934714D01*
X116231142Y-107891857D01*
X116188285Y-107849000D01*
X116145428Y-107891857D01*
X116231142Y-107891857D01*
X116188285Y-108706142D02*
X116231142Y-108620428D01*
X116231142Y-108449000D01*
X116188285Y-108363285D01*
X116145428Y-108320428D01*
X116059714Y-108277571D01*
X115802571Y-108277571D01*
X115716857Y-108320428D01*
X115674000Y-108363285D01*
X115631142Y-108449000D01*
X115631142Y-108620428D01*
X115674000Y-108706142D01*
X116231142Y-109220428D02*
X116188285Y-109134714D01*
X116145428Y-109091857D01*
X116059714Y-109049000D01*
X115802571Y-109049000D01*
X115716857Y-109091857D01*
X115674000Y-109134714D01*
X115631142Y-109220428D01*
X115631142Y-109349000D01*
X115674000Y-109434714D01*
X115716857Y-109477571D01*
X115802571Y-109520428D01*
X116059714Y-109520428D01*
X116145428Y-109477571D01*
X116188285Y-109434714D01*
X116231142Y-109349000D01*
X116231142Y-109220428D01*
X116231142Y-109906142D02*
X115631142Y-109906142D01*
X115716857Y-109906142D02*
X115674000Y-109949000D01*
X115631142Y-110034714D01*
X115631142Y-110163285D01*
X115674000Y-110249000D01*
X115759714Y-110291857D01*
X116231142Y-110291857D01*
X115759714Y-110291857D02*
X115674000Y-110334714D01*
X115631142Y-110420428D01*
X115631142Y-110549000D01*
X115674000Y-110634714D01*
X115759714Y-110677571D01*
X116231142Y-110677571D01*
X115288285Y-111749000D02*
X116445428Y-110977571D01*
X116231142Y-112049000D02*
X115631142Y-112049000D01*
X115802571Y-112049000D02*
X115716857Y-112091857D01*
X115674000Y-112134714D01*
X115631142Y-112220428D01*
X115631142Y-112306142D01*
X116231142Y-112734714D02*
X116188285Y-112649000D01*
X116145428Y-112606142D01*
X116059714Y-112563285D01*
X115802571Y-112563285D01*
X115716857Y-112606142D01*
X115674000Y-112649000D01*
X115631142Y-112734714D01*
X115631142Y-112863285D01*
X115674000Y-112949000D01*
X115716857Y-112991857D01*
X115802571Y-113034714D01*
X116059714Y-113034714D01*
X116145428Y-112991857D01*
X116188285Y-112949000D01*
X116231142Y-112863285D01*
X116231142Y-112734714D01*
X116188285Y-113806142D02*
X116231142Y-113720428D01*
X116231142Y-113549000D01*
X116188285Y-113463285D01*
X116145428Y-113420428D01*
X116059714Y-113377571D01*
X115802571Y-113377571D01*
X115716857Y-113420428D01*
X115674000Y-113463285D01*
X115631142Y-113549000D01*
X115631142Y-113720428D01*
X115674000Y-113806142D01*
X116231142Y-114191857D02*
X115331142Y-114191857D01*
X115888285Y-114277571D02*
X116231142Y-114534714D01*
X115631142Y-114534714D02*
X115974000Y-114191857D01*
X116231142Y-115049000D02*
X116188285Y-114963285D01*
X116145428Y-114920428D01*
X116059714Y-114877571D01*
X115802571Y-114877571D01*
X115716857Y-114920428D01*
X115674000Y-114963285D01*
X115631142Y-115049000D01*
X115631142Y-115177571D01*
X115674000Y-115263285D01*
X115716857Y-115306142D01*
X115802571Y-115349000D01*
X116059714Y-115349000D01*
X116145428Y-115306142D01*
X116188285Y-115263285D01*
X116231142Y-115177571D01*
X116231142Y-115049000D01*
X116231142Y-115863285D02*
X116188285Y-115777571D01*
X116102571Y-115734714D01*
X115331142Y-115734714D01*
X116231142Y-116591857D02*
X115759714Y-116591857D01*
X115674000Y-116549000D01*
X115631142Y-116463285D01*
X115631142Y-116291857D01*
X115674000Y-116206142D01*
X116188285Y-116591857D02*
X116231142Y-116506142D01*
X116231142Y-116291857D01*
X116188285Y-116206142D01*
X116102571Y-116163285D01*
X116016857Y-116163285D01*
X115931142Y-116206142D01*
X115888285Y-116291857D01*
X115888285Y-116506142D01*
X115845428Y-116591857D01*
X115288285Y-117663285D02*
X116445428Y-116891857D01*
X116231142Y-118349000D02*
X115759714Y-118349000D01*
X115674000Y-118306142D01*
X115631142Y-118220428D01*
X115631142Y-118049000D01*
X115674000Y-117963285D01*
X116188285Y-118349000D02*
X116231142Y-118263285D01*
X116231142Y-118049000D01*
X116188285Y-117963285D01*
X116102571Y-117920428D01*
X116016857Y-117920428D01*
X115931142Y-117963285D01*
X115888285Y-118049000D01*
X115888285Y-118263285D01*
X115845428Y-118349000D01*
X115631142Y-119163285D02*
X116359714Y-119163285D01*
X116445428Y-119120428D01*
X116488285Y-119077571D01*
X116531142Y-118991857D01*
X116531142Y-118863285D01*
X116488285Y-118777571D01*
X116188285Y-119163285D02*
X116231142Y-119077571D01*
X116231142Y-118906142D01*
X116188285Y-118820428D01*
X116145428Y-118777571D01*
X116059714Y-118734714D01*
X115802571Y-118734714D01*
X115716857Y-118777571D01*
X115674000Y-118820428D01*
X115631142Y-118906142D01*
X115631142Y-119077571D01*
X115674000Y-119163285D01*
X115631142Y-119977571D02*
X116231142Y-119977571D01*
X115631142Y-119591857D02*
X116102571Y-119591857D01*
X116188285Y-119634714D01*
X116231142Y-119720428D01*
X116231142Y-119849000D01*
X116188285Y-119934714D01*
X116145428Y-119977571D01*
X116231142Y-120791857D02*
X115331142Y-120791857D01*
X116188285Y-120791857D02*
X116231142Y-120706142D01*
X116231142Y-120534714D01*
X116188285Y-120449000D01*
X116145428Y-120406142D01*
X116059714Y-120363285D01*
X115802571Y-120363285D01*
X115716857Y-120406142D01*
X115674000Y-120449000D01*
X115631142Y-120534714D01*
X115631142Y-120706142D01*
X115674000Y-120791857D01*
X116231142Y-121349000D02*
X116188285Y-121263285D01*
X116145428Y-121220428D01*
X116059714Y-121177571D01*
X115802571Y-121177571D01*
X115716857Y-121220428D01*
X115674000Y-121263285D01*
X115631142Y-121349000D01*
X115631142Y-121477571D01*
X115674000Y-121563285D01*
X115716857Y-121606142D01*
X115802571Y-121649000D01*
X116059714Y-121649000D01*
X116145428Y-121606142D01*
X116188285Y-121563285D01*
X116231142Y-121477571D01*
X116231142Y-121349000D01*
X90071357Y-123475571D02*
X89471357Y-123237476D01*
X90071357Y-122999380D01*
X90371357Y-122427952D02*
X90371357Y-122332714D01*
X90328500Y-122237476D01*
X90285642Y-122189857D01*
X90199928Y-122142238D01*
X90028500Y-122094619D01*
X89814214Y-122094619D01*
X89642785Y-122142238D01*
X89557071Y-122189857D01*
X89514214Y-122237476D01*
X89471357Y-122332714D01*
X89471357Y-122427952D01*
X89514214Y-122523190D01*
X89557071Y-122570809D01*
X89642785Y-122618428D01*
X89814214Y-122666047D01*
X90028500Y-122666047D01*
X90199928Y-122618428D01*
X90285642Y-122570809D01*
X90328500Y-122523190D01*
X90371357Y-122427952D01*
X89557071Y-121666047D02*
X89514214Y-121618428D01*
X89471357Y-121666047D01*
X89514214Y-121713666D01*
X89557071Y-121666047D01*
X89471357Y-121666047D01*
X89471357Y-120666047D02*
X89471357Y-121237476D01*
X89471357Y-120951761D02*
X90371357Y-120951761D01*
X90242785Y-121047000D01*
X90157071Y-121142238D01*
X90114214Y-121237476D01*
X88836642Y-126904142D02*
X88879500Y-126856523D01*
X88922357Y-126761285D01*
X88922357Y-126523190D01*
X88879500Y-126427952D01*
X88836642Y-126380333D01*
X88750928Y-126332714D01*
X88665214Y-126332714D01*
X88536642Y-126380333D01*
X88022357Y-126951761D01*
X88022357Y-126332714D01*
X88922357Y-125713666D02*
X88922357Y-125618428D01*
X88879500Y-125523190D01*
X88836642Y-125475571D01*
X88750928Y-125427952D01*
X88579500Y-125380333D01*
X88365214Y-125380333D01*
X88193785Y-125427952D01*
X88108071Y-125475571D01*
X88065214Y-125523190D01*
X88022357Y-125618428D01*
X88022357Y-125713666D01*
X88065214Y-125808904D01*
X88108071Y-125856523D01*
X88193785Y-125904142D01*
X88365214Y-125951761D01*
X88579500Y-125951761D01*
X88750928Y-125904142D01*
X88836642Y-125856523D01*
X88879500Y-125808904D01*
X88922357Y-125713666D01*
X88836642Y-124999380D02*
X88879500Y-124951761D01*
X88922357Y-124856523D01*
X88922357Y-124618428D01*
X88879500Y-124523190D01*
X88836642Y-124475571D01*
X88750928Y-124427952D01*
X88665214Y-124427952D01*
X88536642Y-124475571D01*
X88022357Y-125047000D01*
X88022357Y-124427952D01*
X88922357Y-123808904D02*
X88922357Y-123713666D01*
X88879500Y-123618428D01*
X88836642Y-123570809D01*
X88750928Y-123523190D01*
X88579500Y-123475571D01*
X88365214Y-123475571D01*
X88193785Y-123523190D01*
X88108071Y-123570809D01*
X88065214Y-123618428D01*
X88022357Y-123713666D01*
X88022357Y-123808904D01*
X88065214Y-123904142D01*
X88108071Y-123951761D01*
X88193785Y-123999380D01*
X88365214Y-124047000D01*
X88579500Y-124047000D01*
X88750928Y-123999380D01*
X88836642Y-123951761D01*
X88879500Y-123904142D01*
X88922357Y-123808904D01*
X88365214Y-123047000D02*
X88365214Y-122285095D01*
X88922357Y-121618428D02*
X88922357Y-121523190D01*
X88879500Y-121427952D01*
X88836642Y-121380333D01*
X88750928Y-121332714D01*
X88579500Y-121285095D01*
X88365214Y-121285095D01*
X88193785Y-121332714D01*
X88108071Y-121380333D01*
X88065214Y-121427952D01*
X88022357Y-121523190D01*
X88022357Y-121618428D01*
X88065214Y-121713666D01*
X88108071Y-121761285D01*
X88193785Y-121808904D01*
X88365214Y-121856523D01*
X88579500Y-121856523D01*
X88750928Y-121808904D01*
X88836642Y-121761285D01*
X88879500Y-121713666D01*
X88922357Y-121618428D01*
X88622357Y-120427952D02*
X88022357Y-120427952D01*
X88965214Y-120666047D02*
X88322357Y-120904142D01*
X88322357Y-120285095D01*
X88365214Y-119904142D02*
X88365214Y-119142238D01*
X88836642Y-118713666D02*
X88879500Y-118666047D01*
X88922357Y-118570809D01*
X88922357Y-118332714D01*
X88879500Y-118237476D01*
X88836642Y-118189857D01*
X88750928Y-118142238D01*
X88665214Y-118142238D01*
X88536642Y-118189857D01*
X88022357Y-118761285D01*
X88022357Y-118142238D01*
X88922357Y-117808904D02*
X88922357Y-117142238D01*
X88022357Y-117570809D01*
D11*
X92714000Y-120038428D02*
X92714000Y-119324142D01*
X92285428Y-120181285D02*
X93785428Y-119681285D01*
X92285428Y-119181285D01*
X93285428Y-118038428D02*
X92071142Y-118038428D01*
X91928285Y-118109857D01*
X91856857Y-118181285D01*
X91785428Y-118324142D01*
X91785428Y-118538428D01*
X91856857Y-118681285D01*
X92356857Y-118038428D02*
X92285428Y-118181285D01*
X92285428Y-118467000D01*
X92356857Y-118609857D01*
X92428285Y-118681285D01*
X92571142Y-118752714D01*
X92999714Y-118752714D01*
X93142571Y-118681285D01*
X93214000Y-118609857D01*
X93285428Y-118467000D01*
X93285428Y-118181285D01*
X93214000Y-118038428D01*
X93285428Y-116681285D02*
X92285428Y-116681285D01*
X93285428Y-117324142D02*
X92499714Y-117324142D01*
X92356857Y-117252714D01*
X92285428Y-117109857D01*
X92285428Y-116895571D01*
X92356857Y-116752714D01*
X92428285Y-116681285D01*
X92285428Y-115324142D02*
X93785428Y-115324142D01*
X92356857Y-115324142D02*
X92285428Y-115467000D01*
X92285428Y-115752714D01*
X92356857Y-115895571D01*
X92428285Y-115967000D01*
X92571142Y-116038428D01*
X92999714Y-116038428D01*
X93142571Y-115967000D01*
X93214000Y-115895571D01*
X93285428Y-115752714D01*
X93285428Y-115467000D01*
X93214000Y-115324142D01*
X92285428Y-114395571D02*
X92356857Y-114538428D01*
X92428285Y-114609857D01*
X92571142Y-114681285D01*
X92999714Y-114681285D01*
X93142571Y-114609857D01*
X93214000Y-114538428D01*
X93285428Y-114395571D01*
X93285428Y-114181285D01*
X93214000Y-114038428D01*
X93142571Y-113967000D01*
X92999714Y-113895571D01*
X92571142Y-113895571D01*
X92428285Y-113967000D01*
X92356857Y-114038428D01*
X92285428Y-114181285D01*
X92285428Y-114395571D01*
D10*
X106508571Y-97426428D02*
X106851428Y-97426428D01*
X106680000Y-97426428D02*
X106680000Y-96826428D01*
X106737142Y-96912142D01*
X106794285Y-96969285D01*
X106851428Y-96997857D01*
D12*
G04 #@! TO.C,RV2*
X101228000Y-95250000D02*
G75*
G03*
X101228000Y-95250000I-898000J0D01*
G01*
X100329998Y-104140000D02*
G75*
G03*
X109220000Y-95250000I101J8889901D01*
G01*
X91440000Y-95249998D02*
G75*
G03*
X100330000Y-104140000I8889901J-101D01*
G01*
X100330000Y-86360000D02*
G75*
G03*
X91440000Y-95250000I0J-8890000D01*
G01*
X109220000Y-95250000D02*
G75*
G03*
X100330000Y-86360000I-8890000J0D01*
G01*
X107950000Y-90805000D02*
X107950000Y-82296000D01*
X92710000Y-82296000D02*
X92710000Y-90805000D01*
X100330000Y-86360000D02*
X100330000Y-104140000D01*
X109220000Y-95250000D02*
X91440000Y-95250000D01*
X107950000Y-82296000D02*
X92710000Y-82296000D01*
X106934000Y-82169000D02*
X103886000Y-82169000D01*
X101854000Y-82169000D02*
X98806000Y-82169000D01*
X96774000Y-82169000D02*
X93726000Y-82169000D01*
X106934000Y-82169000D02*
X106934000Y-79121000D01*
X106934000Y-79121000D02*
X103886000Y-79121000D01*
X103886000Y-79121000D02*
X103886000Y-82169000D01*
X101854000Y-82169000D02*
X101854000Y-79121000D01*
X101854000Y-79121000D02*
X98806000Y-79121000D01*
X98806000Y-79121000D02*
X98806000Y-82169000D01*
X96774000Y-82169000D02*
X96774000Y-79121000D01*
X96774000Y-79121000D02*
X93726000Y-79121000D01*
X93726000Y-79121000D02*
X93726000Y-82169000D01*
G04 #@! TO.C,J3*
X111379000Y-82804000D02*
X111379000Y-81534000D01*
X116459000Y-82804000D02*
X116459000Y-81534000D01*
X111379000Y-82804000D02*
X116459000Y-82804000D01*
X111379000Y-81534000D02*
X111379000Y-78994000D01*
X116459000Y-81534000D02*
X116459000Y-78994000D01*
X111379000Y-81534000D02*
X116459000Y-81534000D01*
X116459000Y-78994000D02*
X111379000Y-78994000D01*
G04 #@! TO.C,J2*
X110934500Y-129286000D02*
X105854500Y-129286000D01*
X105854500Y-131826000D02*
X110934500Y-131826000D01*
X110934500Y-131826000D02*
X110934500Y-129286000D01*
X105854500Y-131826000D02*
X105854500Y-129286000D01*
X105854500Y-128016000D02*
X110934500Y-128016000D01*
X110934500Y-129286000D02*
X110934500Y-128016000D01*
X105854500Y-129286000D02*
X105854500Y-128016000D01*
G04 #@! TO.C,J1*
X105397300Y-129514600D02*
X95237300Y-129514600D01*
X95237300Y-132054600D02*
X105397300Y-132054600D01*
X105397300Y-132054600D02*
X105397300Y-129514600D01*
X95237300Y-132054600D02*
X95237300Y-129514600D01*
X95237300Y-128244600D02*
X105397300Y-128244600D01*
X105397300Y-129514600D02*
X105397300Y-128244600D01*
X95237300Y-129514600D02*
X95237300Y-128244600D01*
D13*
G04 #@! TO.C,D3*
X101989635Y-127380108D02*
G75*
G02*
X98757300Y-127537016I-1672335J1078608D01*
G01*
X101989635Y-125222892D02*
G75*
G03*
X98757300Y-125065984I-1672335J-1078608D01*
G01*
X101358430Y-127381337D02*
G75*
G02*
X99276339Y-127381500I-1041130J1079837D01*
G01*
X101358430Y-125221663D02*
G75*
G03*
X99276339Y-125221500I-1041130J-1079837D01*
G01*
X98757300Y-127537500D02*
X98757300Y-127381500D01*
X98757300Y-125221500D02*
X98757300Y-125065500D01*
G04 #@! TO.C,RV2*
X104901404Y-90193761D02*
X104758547Y-90241380D01*
X104520452Y-90241380D01*
X104425214Y-90193761D01*
X104377595Y-90146142D01*
X104329976Y-90050904D01*
X104329976Y-89955666D01*
X104377595Y-89860428D01*
X104425214Y-89812809D01*
X104520452Y-89765190D01*
X104710928Y-89717571D01*
X104806166Y-89669952D01*
X104853785Y-89622333D01*
X104901404Y-89527095D01*
X104901404Y-89431857D01*
X104853785Y-89336619D01*
X104806166Y-89289000D01*
X104710928Y-89241380D01*
X104472833Y-89241380D01*
X104329976Y-89289000D01*
X103901404Y-89574714D02*
X103901404Y-90574714D01*
X103901404Y-89622333D02*
X103806166Y-89574714D01*
X103615690Y-89574714D01*
X103520452Y-89622333D01*
X103472833Y-89669952D01*
X103425214Y-89765190D01*
X103425214Y-90050904D01*
X103472833Y-90146142D01*
X103520452Y-90193761D01*
X103615690Y-90241380D01*
X103806166Y-90241380D01*
X103901404Y-90193761D01*
X102615690Y-90193761D02*
X102710928Y-90241380D01*
X102901404Y-90241380D01*
X102996642Y-90193761D01*
X103044261Y-90098523D01*
X103044261Y-89717571D01*
X102996642Y-89622333D01*
X102901404Y-89574714D01*
X102710928Y-89574714D01*
X102615690Y-89622333D01*
X102568071Y-89717571D01*
X102568071Y-89812809D01*
X103044261Y-89908047D01*
X101758547Y-90193761D02*
X101853785Y-90241380D01*
X102044261Y-90241380D01*
X102139500Y-90193761D01*
X102187119Y-90098523D01*
X102187119Y-89717571D01*
X102139500Y-89622333D01*
X102044261Y-89574714D01*
X101853785Y-89574714D01*
X101758547Y-89622333D01*
X101710928Y-89717571D01*
X101710928Y-89812809D01*
X102187119Y-89908047D01*
X100853785Y-90241380D02*
X100853785Y-89241380D01*
X100853785Y-90193761D02*
X100949023Y-90241380D01*
X101139500Y-90241380D01*
X101234738Y-90193761D01*
X101282357Y-90146142D01*
X101329976Y-90050904D01*
X101329976Y-89765190D01*
X101282357Y-89669952D01*
X101234738Y-89622333D01*
X101139500Y-89574714D01*
X100949023Y-89574714D01*
X100853785Y-89622333D01*
X99044261Y-90146142D02*
X99091880Y-90193761D01*
X99234738Y-90241380D01*
X99329976Y-90241380D01*
X99472833Y-90193761D01*
X99568071Y-90098523D01*
X99615690Y-90003285D01*
X99663309Y-89812809D01*
X99663309Y-89669952D01*
X99615690Y-89479476D01*
X99568071Y-89384238D01*
X99472833Y-89289000D01*
X99329976Y-89241380D01*
X99234738Y-89241380D01*
X99091880Y-89289000D01*
X99044261Y-89336619D01*
X98139500Y-89241380D02*
X98615690Y-89241380D01*
X98663309Y-89717571D01*
X98615690Y-89669952D01*
X98520452Y-89622333D01*
X98282357Y-89622333D01*
X98187119Y-89669952D01*
X98139500Y-89717571D01*
X98091880Y-89812809D01*
X98091880Y-90050904D01*
X98139500Y-90146142D01*
X98187119Y-90193761D01*
X98282357Y-90241380D01*
X98520452Y-90241380D01*
X98615690Y-90193761D01*
X98663309Y-90146142D01*
X97472833Y-89241380D02*
X97377595Y-89241380D01*
X97282357Y-89289000D01*
X97234738Y-89336619D01*
X97187119Y-89431857D01*
X97139500Y-89622333D01*
X97139500Y-89860428D01*
X97187119Y-90050904D01*
X97234738Y-90146142D01*
X97282357Y-90193761D01*
X97377595Y-90241380D01*
X97472833Y-90241380D01*
X97568071Y-90193761D01*
X97615690Y-90146142D01*
X97663309Y-90050904D01*
X97710928Y-89860428D01*
X97710928Y-89622333D01*
X97663309Y-89431857D01*
X97615690Y-89336619D01*
X97568071Y-89289000D01*
X97472833Y-89241380D01*
X96520452Y-89241380D02*
X96425214Y-89241380D01*
X96329976Y-89289000D01*
X96282357Y-89336619D01*
X96234738Y-89431857D01*
X96187119Y-89622333D01*
X96187119Y-89860428D01*
X96234738Y-90050904D01*
X96282357Y-90146142D01*
X96329976Y-90193761D01*
X96425214Y-90241380D01*
X96520452Y-90241380D01*
X96615690Y-90193761D01*
X96663309Y-90146142D01*
X96710928Y-90050904D01*
X96758547Y-89860428D01*
X96758547Y-89622333D01*
X96710928Y-89431857D01*
X96663309Y-89336619D01*
X96615690Y-89289000D01*
X96520452Y-89241380D01*
X95758547Y-90241380D02*
X95758547Y-89241380D01*
X95663309Y-89860428D02*
X95377595Y-90241380D01*
X95377595Y-89574714D02*
X95758547Y-89955666D01*
X100044285Y-81097380D02*
X100615714Y-81097380D01*
X100330000Y-81097380D02*
X100330000Y-80097380D01*
X100425238Y-80240238D01*
X100520476Y-80335476D01*
X100615714Y-80383095D01*
G04 #@! TO.C,J3*
X115671523Y-81769000D02*
X115747714Y-81730904D01*
X115862000Y-81730904D01*
X115976285Y-81769000D01*
X116052476Y-81845190D01*
X116090571Y-81921380D01*
X116128666Y-82073761D01*
X116128666Y-82188047D01*
X116090571Y-82340428D01*
X116052476Y-82416619D01*
X115976285Y-82492809D01*
X115862000Y-82530904D01*
X115785809Y-82530904D01*
X115671523Y-82492809D01*
X115633428Y-82454714D01*
X115633428Y-82188047D01*
X115785809Y-82188047D01*
X115290571Y-82530904D02*
X115290571Y-81730904D01*
X114833428Y-82530904D01*
X114833428Y-81730904D01*
X114452476Y-82530904D02*
X114452476Y-81730904D01*
X114262000Y-81730904D01*
X114147714Y-81769000D01*
X114071523Y-81845190D01*
X114033428Y-81921380D01*
X113995333Y-82073761D01*
X113995333Y-82188047D01*
X114033428Y-82340428D01*
X114071523Y-82416619D01*
X114147714Y-82492809D01*
X114262000Y-82530904D01*
X114452476Y-82530904D01*
X113283904Y-81730904D02*
X113017238Y-82530904D01*
X112750571Y-81730904D01*
X112483904Y-82226142D02*
X111874380Y-82226142D01*
X112179142Y-82530904D02*
X112179142Y-81921380D01*
G04 #@! TO.C,J2*
X107759404Y-128212904D02*
X107492738Y-129012904D01*
X107226071Y-128212904D01*
X106959404Y-128708142D02*
X106349880Y-128708142D01*
X106654642Y-129012904D02*
X106654642Y-128403380D01*
X110147023Y-128251000D02*
X110223214Y-128212904D01*
X110337500Y-128212904D01*
X110451785Y-128251000D01*
X110527976Y-128327190D01*
X110566071Y-128403380D01*
X110604166Y-128555761D01*
X110604166Y-128670047D01*
X110566071Y-128822428D01*
X110527976Y-128898619D01*
X110451785Y-128974809D01*
X110337500Y-129012904D01*
X110261309Y-129012904D01*
X110147023Y-128974809D01*
X110108928Y-128936714D01*
X110108928Y-128670047D01*
X110261309Y-128670047D01*
X109766071Y-129012904D02*
X109766071Y-128212904D01*
X109308928Y-129012904D01*
X109308928Y-128212904D01*
X108927976Y-129012904D02*
X108927976Y-128212904D01*
X108737500Y-128212904D01*
X108623214Y-128251000D01*
X108547023Y-128327190D01*
X108508928Y-128403380D01*
X108470833Y-128555761D01*
X108470833Y-128670047D01*
X108508928Y-128822428D01*
X108547023Y-128898619D01*
X108623214Y-128974809D01*
X108737500Y-129012904D01*
X108927976Y-129012904D01*
G04 #@! TO.C,J1*
X96926347Y-129241504D02*
X96926347Y-128441504D01*
X96545395Y-129241504D02*
X96545395Y-128441504D01*
X96088252Y-129241504D01*
X96088252Y-128441504D01*
X99656823Y-128479600D02*
X99733014Y-128441504D01*
X99847300Y-128441504D01*
X99961585Y-128479600D01*
X100037776Y-128555790D01*
X100075871Y-128631980D01*
X100113966Y-128784361D01*
X100113966Y-128898647D01*
X100075871Y-129051028D01*
X100037776Y-129127219D01*
X99961585Y-129203409D01*
X99847300Y-129241504D01*
X99771109Y-129241504D01*
X99656823Y-129203409D01*
X99618728Y-129165314D01*
X99618728Y-128898647D01*
X99771109Y-128898647D01*
X99275871Y-129241504D02*
X99275871Y-128441504D01*
X98818728Y-129241504D01*
X98818728Y-128441504D01*
X98437776Y-129241504D02*
X98437776Y-128441504D01*
X98247300Y-128441504D01*
X98133014Y-128479600D01*
X98056823Y-128555790D01*
X98018728Y-128631980D01*
X97980633Y-128784361D01*
X97980633Y-128898647D01*
X98018728Y-129051028D01*
X98056823Y-129127219D01*
X98133014Y-129203409D01*
X98247300Y-129241504D01*
X98437776Y-129241504D01*
X102273014Y-129203409D02*
X102158728Y-129241504D01*
X101968252Y-129241504D01*
X101892061Y-129203409D01*
X101853966Y-129165314D01*
X101815871Y-129089123D01*
X101815871Y-129012933D01*
X101853966Y-128936742D01*
X101892061Y-128898647D01*
X101968252Y-128860552D01*
X102120633Y-128822457D01*
X102196823Y-128784361D01*
X102234919Y-128746266D01*
X102273014Y-128670076D01*
X102273014Y-128593885D01*
X102234919Y-128517695D01*
X102196823Y-128479600D01*
X102120633Y-128441504D01*
X101930157Y-128441504D01*
X101815871Y-128479600D01*
X101549204Y-128441504D02*
X101358728Y-129241504D01*
X101206347Y-128670076D01*
X101053966Y-129241504D01*
X100863490Y-128441504D01*
X104927300Y-128441504D02*
X104774919Y-128441504D01*
X104698728Y-128479600D01*
X104622538Y-128555790D01*
X104584442Y-128708171D01*
X104584442Y-128974838D01*
X104622538Y-129127219D01*
X104698728Y-129203409D01*
X104774919Y-129241504D01*
X104927300Y-129241504D01*
X105003490Y-129203409D01*
X105079680Y-129127219D01*
X105117776Y-128974838D01*
X105117776Y-128708171D01*
X105079680Y-128555790D01*
X105003490Y-128479600D01*
X104927300Y-128441504D01*
X104241585Y-128441504D02*
X104241585Y-129089123D01*
X104203490Y-129165314D01*
X104165395Y-129203409D01*
X104089204Y-129241504D01*
X103936823Y-129241504D01*
X103860633Y-129203409D01*
X103822538Y-129165314D01*
X103784442Y-129089123D01*
X103784442Y-128441504D01*
X103517776Y-128441504D02*
X103060633Y-128441504D01*
X103289204Y-129241504D02*
X103289204Y-128441504D01*
G04 #@! TO.C,D3*
X99099595Y-124277380D02*
X99099595Y-123277380D01*
X98861500Y-123277380D01*
X98718642Y-123325000D01*
X98623404Y-123420238D01*
X98575785Y-123515476D01*
X98528166Y-123705952D01*
X98528166Y-123848809D01*
X98575785Y-124039285D01*
X98623404Y-124134523D01*
X98718642Y-124229761D01*
X98861500Y-124277380D01*
X99099595Y-124277380D01*
X98194833Y-123277380D02*
X97575785Y-123277380D01*
X97909119Y-123658333D01*
X97766261Y-123658333D01*
X97671023Y-123705952D01*
X97623404Y-123753571D01*
X97575785Y-123848809D01*
X97575785Y-124086904D01*
X97623404Y-124182142D01*
X97671023Y-124229761D01*
X97766261Y-124277380D01*
X98051976Y-124277380D01*
X98147214Y-124229761D01*
X98194833Y-124182142D01*
G04 #@! TD*
M02*
