%TF.GenerationSoftware,KiCad,Pcbnew,6.0.0+dfsg1-2*%
%TF.CreationDate,2022-01-11T21:26:02+02:00*%
%TF.ProjectId,agudo,61677564-6f2e-46b6-9963-61645f706362,rev?*%
%TF.SameCoordinates,Original*%
%TF.FileFunction,Copper,L2,Bot*%
%TF.FilePolarity,Positive*%
%FSLAX46Y46*%
G04 Gerber Fmt 4.6, Leading zero omitted, Abs format (unit mm)*
G04 Created by KiCad (PCBNEW 6.0.0+dfsg1-2) date 2022-01-11 21:26:02*
%MOMM*%
%LPD*%
G01*
G04 APERTURE LIST*
%TA.AperFunction,ComponentPad*%
%ADD10O,2.000000X2.000000*%
%TD*%
%TA.AperFunction,ComponentPad*%
%ADD11O,2.540000X2.540000*%
%TD*%
%TA.AperFunction,ComponentPad*%
%ADD12R,2.540000X2.540000*%
%TD*%
%TA.AperFunction,ComponentPad*%
%ADD13O,1.930400X1.930400*%
%TD*%
%TA.AperFunction,ComponentPad*%
%ADD14R,1.930400X1.930400*%
%TD*%
%TA.AperFunction,ComponentPad*%
%ADD15O,2.400000X1.600000*%
%TD*%
%TA.AperFunction,ComponentPad*%
%ADD16R,2.400000X1.600000*%
%TD*%
%TA.AperFunction,ComponentPad*%
%ADD17C,1.800000*%
%TD*%
%TA.AperFunction,ComponentPad*%
%ADD18R,1.800000X1.800000*%
%TD*%
%TA.AperFunction,ComponentPad*%
%ADD19R,2.000000X2.000000*%
%TD*%
%TA.AperFunction,ComponentPad*%
%ADD20C,1.600000*%
%TD*%
%TA.AperFunction,ComponentPad*%
%ADD21R,1.600000X1.600000*%
%TD*%
%TA.AperFunction,ViaPad*%
%ADD22C,0.800000*%
%TD*%
%TA.AperFunction,Conductor*%
%ADD23C,0.609600*%
%TD*%
%TA.AperFunction,Conductor*%
%ADD24C,0.381000*%
%TD*%
G04 APERTURE END LIST*
D10*
%TO.P,R27,2*%
%TO.N,Net-(R27-Pad2)*%
X102870000Y-83185000D03*
%TO.P,R27,1*%
%TO.N,Net-(C10-Pad2)*%
X107950000Y-83185000D03*
%TD*%
%TO.P,R26,2*%
%TO.N,GND*%
X114300000Y-123825000D03*
%TO.P,R26,1*%
%TO.N,OUT*%
X109220000Y-123825000D03*
%TD*%
%TO.P,R25,2*%
%TO.N,Net-(C10-Pad2)*%
X114300000Y-103505000D03*
%TO.P,R25,1*%
%TO.N,Net-(R23-Pad2)*%
X109220000Y-103505000D03*
%TD*%
%TO.P,R24,2*%
%TO.N,GND*%
X114300000Y-106045000D03*
%TO.P,R24,1*%
%TO.N,Net-(R23-Pad2)*%
X109220000Y-106045000D03*
%TD*%
%TO.P,R23,2*%
%TO.N,Net-(R23-Pad2)*%
X114300000Y-108585000D03*
%TO.P,R23,1*%
%TO.N,+9V*%
X109220000Y-108585000D03*
%TD*%
%TO.P,R22,2*%
%TO.N,Net-(C10-Pad1)*%
X109220000Y-93980000D03*
%TO.P,R22,1*%
%TO.N,Net-(C8-Pad1)*%
X114300000Y-93980000D03*
%TD*%
%TO.P,R21,2*%
%TO.N,Net-(C9-Pad1)*%
X95885000Y-124714000D03*
%TO.P,R21,1*%
%TO.N,Net-(R20-Pad2)*%
X90805000Y-124714000D03*
%TD*%
%TO.P,R20,2*%
%TO.N,Net-(R20-Pad2)*%
X90170000Y-91694000D03*
%TO.P,R20,1*%
%TO.N,Net-(R16-Pad2)*%
X95250000Y-91694000D03*
%TD*%
%TO.P,R19,2*%
%TO.N,Net-(C8-Pad1)*%
X114300000Y-91440000D03*
%TO.P,R19,1*%
%TO.N,Net-(C5-Pad2)*%
X109220000Y-91440000D03*
%TD*%
%TO.P,R18,2*%
%TO.N,Net-(R18-Pad2)*%
X100457000Y-85471000D03*
%TO.P,R18,1*%
%TO.N,Net-(C5-Pad2)*%
X105537000Y-85471000D03*
%TD*%
%TO.P,R17,2*%
%TO.N,Net-(C5-Pad2)*%
X90170000Y-101346000D03*
%TO.P,R17,1*%
%TO.N,Net-(C7-Pad2)*%
X90170000Y-106426000D03*
%TD*%
%TO.P,R16,2*%
%TO.N,Net-(R16-Pad2)*%
X95250000Y-94107000D03*
%TO.P,R16,1*%
%TO.N,Net-(C6-Pad1)*%
X90170000Y-94107000D03*
%TD*%
%TO.P,R15,2*%
%TO.N,Net-(C6-Pad2)*%
X95250000Y-96520000D03*
%TO.P,R15,1*%
%TO.N,Net-(C7-Pad1)*%
X90170000Y-96520000D03*
%TD*%
%TO.P,R14,2*%
%TO.N,Net-(D3-Pad1)*%
X95885000Y-127127000D03*
%TO.P,R14,1*%
%TO.N,LED-*%
X90805000Y-127127000D03*
%TD*%
%TO.P,R13,2*%
%TO.N,Net-(C5-Pad1)*%
X95250000Y-98933000D03*
%TO.P,R13,1*%
%TO.N,Net-(C7-Pad1)*%
X90170000Y-98933000D03*
%TD*%
%TO.P,R12,2*%
%TO.N,Net-(C6-Pad1)*%
X109220000Y-111125000D03*
%TO.P,R12,1*%
%TO.N,Net-(R10-Pad2)*%
X114300000Y-111125000D03*
%TD*%
%TO.P,R11,2*%
%TO.N,Net-(C4-Pad2)*%
X114300000Y-88900000D03*
%TO.P,R11,1*%
%TO.N,Net-(C5-Pad2)*%
X109220000Y-88900000D03*
%TD*%
%TO.P,R10,2*%
%TO.N,Net-(R10-Pad2)*%
X109220000Y-113665000D03*
%TO.P,R10,1*%
%TO.N,Net-(C3-Pad1)*%
X114300000Y-113665000D03*
%TD*%
%TO.P,R9,2*%
%TO.N,Net-(C9-Pad1)*%
X109220000Y-116205000D03*
%TO.P,R9,1*%
%TO.N,Net-(C3-Pad1)*%
X114300000Y-116205000D03*
%TD*%
%TO.P,R8,2*%
%TO.N,Net-(C3-Pad2)*%
X109220000Y-118745000D03*
%TO.P,R8,1*%
%TO.N,Net-(C4-Pad1)*%
X114300000Y-118745000D03*
%TD*%
%TO.P,R7,2*%
%TO.N,Net-(C5-Pad1)*%
X109220000Y-121285000D03*
%TO.P,R7,1*%
%TO.N,Net-(C4-Pad1)*%
X114300000Y-121285000D03*
%TD*%
%TO.P,R6,2*%
%TO.N,Net-(C3-Pad1)*%
X95250000Y-109220000D03*
%TO.P,R6,1*%
%TO.N,Net-(R5-Pad1)*%
X90170000Y-109220000D03*
%TD*%
%TO.P,R5,2*%
%TO.N,Net-(C5-Pad1)*%
X90170000Y-111760000D03*
%TO.P,R5,1*%
%TO.N,Net-(R5-Pad1)*%
X95250000Y-111760000D03*
%TD*%
%TO.P,R4,2*%
%TO.N,Net-(C5-Pad1)*%
X90170000Y-114300000D03*
%TO.P,R4,1*%
%TO.N,Net-(R3-Pad2)*%
X95250000Y-114300000D03*
%TD*%
%TO.P,R3,2*%
%TO.N,Net-(R3-Pad2)*%
X95250000Y-116840000D03*
%TO.P,R3,1*%
%TO.N,Net-(C1-Pad2)*%
X90170000Y-116840000D03*
%TD*%
%TO.P,R2,2*%
%TO.N,Net-(C5-Pad1)*%
X101727000Y-106299000D03*
%TO.P,R2,1*%
%TO.N,+9V*%
X106807000Y-106299000D03*
%TD*%
%TO.P,R1,2*%
%TO.N,GND*%
X95250000Y-119380000D03*
%TO.P,R1,1*%
%TO.N,IN*%
X90170000Y-119380000D03*
%TD*%
D11*
%TO.P,RV2,3,3*%
%TO.N,Net-(C8-Pad1)*%
X105410000Y-80645000D03*
%TO.P,RV2,2,2*%
%TO.N,Net-(R27-Pad2)*%
X100330000Y-80645000D03*
D12*
%TO.P,RV2,1,1*%
X95250000Y-80645000D03*
%TD*%
D13*
%TO.P,J3,2,GND*%
%TO.N,GND*%
X115189000Y-80264000D03*
D14*
%TO.P,J3,1,PWR*%
%TO.N,VIN*%
X112649000Y-80264000D03*
%TD*%
D15*
%TO.P,U2,8,V+*%
%TO.N,+9V*%
X106045000Y-91440000D03*
%TO.P,U2,4,V-*%
%TO.N,GND*%
X98425000Y-99060000D03*
%TO.P,U2,7*%
%TO.N,Net-(C10-Pad2)*%
X106045000Y-93980000D03*
%TO.P,U2,3,+*%
%TO.N,Net-(C6-Pad2)*%
X98425000Y-96520000D03*
%TO.P,U2,6,-*%
%TO.N,Net-(C10-Pad1)*%
X106045000Y-96520000D03*
%TO.P,U2,2,-*%
%TO.N,Net-(R16-Pad2)*%
X98425000Y-93980000D03*
%TO.P,U2,5,+*%
%TO.N,Net-(R23-Pad2)*%
X106045000Y-99060000D03*
D16*
%TO.P,U2,1*%
%TO.N,Net-(R20-Pad2)*%
X98425000Y-91440000D03*
%TD*%
D15*
%TO.P,U1,8,V+*%
%TO.N,+9V*%
X106045000Y-109220000D03*
%TO.P,U1,4,V-*%
%TO.N,GND*%
X98425000Y-116840000D03*
%TO.P,U1,7*%
%TO.N,Net-(C6-Pad1)*%
X106045000Y-111760000D03*
%TO.P,U1,3,+*%
%TO.N,Net-(R3-Pad2)*%
X98425000Y-114300000D03*
%TO.P,U1,6,-*%
%TO.N,Net-(R10-Pad2)*%
X106045000Y-114300000D03*
%TO.P,U1,2,-*%
%TO.N,Net-(R5-Pad1)*%
X98425000Y-111760000D03*
%TO.P,U1,5,+*%
%TO.N,Net-(C3-Pad2)*%
X106045000Y-116840000D03*
D16*
%TO.P,U1,1*%
%TO.N,Net-(C3-Pad1)*%
X98425000Y-109220000D03*
%TD*%
D13*
%TO.P,RV1,3,3*%
%TO.N,Net-(C5-Pad1)*%
X95377000Y-88646000D03*
%TO.P,RV1,2,2*%
%TO.N,Net-(R18-Pad2)*%
X97917000Y-86106000D03*
%TO.P,RV1,1,1*%
%TO.N,GND*%
X95377000Y-83566000D03*
%TD*%
%TO.P,J2,2,GND*%
%TO.N,GND*%
X109664500Y-130556000D03*
D14*
%TO.P,J2,1,PWR*%
%TO.N,VIN*%
X107124500Y-130556000D03*
%TD*%
D13*
%TO.P,J1,4,OUT*%
%TO.N,OUT*%
X104127300Y-130784600D03*
%TO.P,J1,3,SW*%
%TO.N,LED-*%
X101587300Y-130784600D03*
%TO.P,J1,2,GND*%
%TO.N,GND*%
X99047300Y-130784600D03*
D14*
%TO.P,J1,1,IN*%
%TO.N,IN*%
X96507300Y-130784600D03*
%TD*%
D17*
%TO.P,D3,2,A*%
%TO.N,VIN*%
X101587300Y-126301500D03*
D18*
%TO.P,D3,1,K*%
%TO.N,Net-(D3-Pad1)*%
X99047300Y-126301500D03*
%TD*%
D19*
%TO.P,D2,1,K*%
%TO.N,Net-(C5-Pad1)*%
X90297000Y-88646000D03*
D10*
%TO.P,D2,2,A*%
%TO.N,GND*%
X90297000Y-81026000D03*
%TD*%
D19*
%TO.P,D1,1,K*%
%TO.N,+9V*%
X111760000Y-126238000D03*
D10*
%TO.P,D1,2,A*%
%TO.N,VIN*%
X104140000Y-126238000D03*
%TD*%
D20*
%TO.P,C10,2*%
%TO.N,Net-(C10-Pad2)*%
X109300000Y-96901000D03*
%TO.P,C10,1*%
%TO.N,Net-(C10-Pad1)*%
X114300000Y-96901000D03*
%TD*%
%TO.P,C9,2*%
%TO.N,OUT*%
X105393500Y-123253500D03*
%TO.P,C9,1*%
%TO.N,Net-(C9-Pad1)*%
X100393500Y-123253500D03*
%TD*%
%TO.P,C8,2*%
%TO.N,GND*%
X112990000Y-85090000D03*
D21*
%TO.P,C8,1*%
%TO.N,Net-(C8-Pad1)*%
X110490000Y-85090000D03*
%TD*%
D20*
%TO.P,C7,2*%
%TO.N,Net-(C7-Pad2)*%
X97710000Y-106045000D03*
%TO.P,C7,1*%
%TO.N,Net-(C7-Pad1)*%
X92710000Y-106045000D03*
%TD*%
%TO.P,C6,2*%
%TO.N,Net-(C6-Pad2)*%
X97710000Y-102362000D03*
%TO.P,C6,1*%
%TO.N,Net-(C6-Pad1)*%
X92710000Y-102362000D03*
%TD*%
%TO.P,C5,2*%
%TO.N,Net-(C5-Pad2)*%
X105584000Y-88265000D03*
%TO.P,C5,1*%
%TO.N,Net-(C5-Pad1)*%
X100584000Y-88265000D03*
%TD*%
%TO.P,C4,2*%
%TO.N,Net-(C4-Pad2)*%
X109300000Y-100330000D03*
%TO.P,C4,1*%
%TO.N,Net-(C4-Pad1)*%
X114300000Y-100330000D03*
%TD*%
%TO.P,C3,2*%
%TO.N,Net-(C3-Pad2)*%
X105330000Y-120015000D03*
%TO.P,C3,1*%
%TO.N,Net-(C3-Pad1)*%
X100330000Y-120015000D03*
%TD*%
%TO.P,C2,2*%
%TO.N,GND*%
X114641000Y-129794000D03*
D21*
%TO.P,C2,1*%
%TO.N,+9V*%
X112141000Y-129794000D03*
%TD*%
D20*
%TO.P,C1,2*%
%TO.N,Net-(C1-Pad2)*%
X96440000Y-122047000D03*
%TO.P,C1,1*%
%TO.N,IN*%
X91440000Y-122047000D03*
%TD*%
D22*
%TO.N,GND*%
X108839000Y-86741000D03*
X90043000Y-130429000D03*
X93345000Y-113030000D03*
X92837000Y-92837000D03*
X101600000Y-116840000D03*
X94234000Y-123063000D03*
X93472000Y-129413000D03*
X111887000Y-104775000D03*
X112522000Y-109855000D03*
X111379000Y-90170000D03*
%TD*%
D23*
%TO.N,VIN*%
X107124500Y-130556000D02*
X108594501Y-132026001D01*
X108594501Y-132026001D02*
X114340105Y-132026001D01*
X115945801Y-130420305D02*
X115945801Y-83560801D01*
X114340105Y-132026001D02*
X115945801Y-130420305D01*
X115945801Y-83560801D02*
X112649000Y-80264000D01*
D24*
%TO.N,Net-(C7-Pad2)*%
X90170000Y-106426000D02*
X91169999Y-107425999D01*
X91169999Y-107425999D02*
X96329001Y-107425999D01*
X96329001Y-107425999D02*
X97710000Y-106045000D01*
D23*
%TO.N,+9V*%
X111379000Y-110744000D02*
X109220000Y-108585000D01*
X111379000Y-126238000D02*
X111760000Y-126619000D01*
X111379000Y-110744000D02*
X111379000Y-126238000D01*
D24*
%TO.N,Net-(C5-Pad2)*%
X105584000Y-88265000D02*
X108585000Y-88265000D01*
X108585000Y-88265000D02*
X109220000Y-88900000D01*
X102108000Y-99314000D02*
X102108000Y-92837000D01*
X105584000Y-88265000D02*
X102108000Y-91741000D01*
X102108000Y-91741000D02*
X102108000Y-92837000D01*
%TO.N,Net-(C6-Pad1)*%
X95788942Y-102362000D02*
X103916942Y-110490000D01*
X92710000Y-102362000D02*
X95788942Y-102362000D01*
X103916942Y-110490000D02*
X104775000Y-110490000D01*
X104775000Y-110490000D02*
X106045000Y-111760000D01*
%TO.N,Net-(C5-Pad2)*%
X100457000Y-100965000D02*
X100647500Y-100774500D01*
X100647500Y-100774500D02*
X102108000Y-99314000D01*
X89408000Y-101219000D02*
X89455501Y-101171499D01*
X89455501Y-101171499D02*
X100250501Y-101171499D01*
X100250501Y-101171499D02*
X100647500Y-100774500D01*
D23*
%TO.N,+9V*%
X104648000Y-106299000D02*
X106807000Y-106299000D01*
D24*
%TO.N,OUT*%
X106193499Y-124053499D02*
X105393500Y-123253500D01*
X106193499Y-128718401D02*
X106193499Y-124053499D01*
X104127300Y-130784600D02*
X106193499Y-128718401D01*
%TO.N,Net-(R5-Pad1)*%
X92710000Y-111760000D02*
X90170000Y-109220000D01*
X95250000Y-111760000D02*
X92710000Y-111760000D01*
%TO.N,Net-(C4-Pad2)*%
X112909499Y-90290501D02*
X114300000Y-88900000D01*
X112909499Y-96720501D02*
X112909499Y-90290501D01*
X109300000Y-100330000D02*
X112909499Y-96720501D01*
%TO.N,Net-(C9-Pad1)*%
X107394490Y-118030510D02*
X109220000Y-116205000D01*
X105616490Y-118030510D02*
X107394490Y-118030510D01*
X100393500Y-123253500D02*
X105616490Y-118030510D01*
D23*
%TO.N,+9V*%
X103648001Y-93836999D02*
X106045000Y-91440000D01*
X103648001Y-105299001D02*
X103648001Y-93836999D01*
X104648000Y-106299000D02*
X103648001Y-105299001D01*
%TD*%
%TA.AperFunction,Conductor*%
%TO.N,GND*%
G36*
X93413621Y-79268002D02*
G01*
X93460114Y-79321658D01*
X93471500Y-79374000D01*
X93471500Y-81963134D01*
X93478255Y-82025316D01*
X93529385Y-82161705D01*
X93616739Y-82278261D01*
X93733295Y-82365615D01*
X93869684Y-82416745D01*
X93931866Y-82423500D01*
X94136408Y-82423500D01*
X94204529Y-82443502D01*
X94251022Y-82497158D01*
X94261126Y-82567432D01*
X94234331Y-82628791D01*
X94225270Y-82639982D01*
X94094589Y-82831552D01*
X94089491Y-82840526D01*
X93991853Y-83050868D01*
X93988290Y-83060555D01*
X93926319Y-83284015D01*
X93924409Y-83294024D01*
X93927049Y-83308608D01*
X93939429Y-83312000D01*
X96814128Y-83312000D01*
X96827659Y-83308027D01*
X96828964Y-83298947D01*
X96800343Y-83185000D01*
X101356835Y-83185000D01*
X101375465Y-83421711D01*
X101430895Y-83652594D01*
X101432788Y-83657165D01*
X101432789Y-83657167D01*
X101516188Y-83858510D01*
X101521760Y-83871963D01*
X101524346Y-83876183D01*
X101643241Y-84070202D01*
X101643245Y-84070208D01*
X101645824Y-84074416D01*
X101742441Y-84187540D01*
X101793075Y-84246824D01*
X101800031Y-84254969D01*
X101980584Y-84409176D01*
X101984792Y-84411755D01*
X101984798Y-84411759D01*
X102178817Y-84530654D01*
X102183037Y-84533240D01*
X102187607Y-84535133D01*
X102187611Y-84535135D01*
X102397833Y-84622211D01*
X102402406Y-84624105D01*
X102442839Y-84633812D01*
X102628476Y-84678380D01*
X102628482Y-84678381D01*
X102633289Y-84679535D01*
X102870000Y-84698165D01*
X103106711Y-84679535D01*
X103111518Y-84678381D01*
X103111524Y-84678380D01*
X103297161Y-84633812D01*
X103337594Y-84624105D01*
X103342167Y-84622211D01*
X103552389Y-84535135D01*
X103552393Y-84535133D01*
X103556963Y-84533240D01*
X103561183Y-84530654D01*
X103755202Y-84411759D01*
X103755208Y-84411755D01*
X103759416Y-84409176D01*
X103939969Y-84254969D01*
X103946926Y-84246824D01*
X103997559Y-84187540D01*
X104094176Y-84074416D01*
X104096755Y-84070208D01*
X104096759Y-84070202D01*
X104215654Y-83876183D01*
X104218240Y-83871963D01*
X104223813Y-83858510D01*
X104307211Y-83657167D01*
X104307212Y-83657165D01*
X104309105Y-83652594D01*
X104364535Y-83421711D01*
X104383165Y-83185000D01*
X106436835Y-83185000D01*
X106455465Y-83421711D01*
X106510895Y-83652594D01*
X106512788Y-83657165D01*
X106512789Y-83657167D01*
X106596188Y-83858510D01*
X106601760Y-83871963D01*
X106604346Y-83876183D01*
X106723241Y-84070202D01*
X106723245Y-84070208D01*
X106725824Y-84074416D01*
X106822441Y-84187540D01*
X106873075Y-84246824D01*
X106880031Y-84254969D01*
X107060584Y-84409176D01*
X107064792Y-84411755D01*
X107064798Y-84411759D01*
X107258817Y-84530654D01*
X107263037Y-84533240D01*
X107267607Y-84535133D01*
X107267611Y-84535135D01*
X107477833Y-84622211D01*
X107482406Y-84624105D01*
X107522839Y-84633812D01*
X107708476Y-84678380D01*
X107708482Y-84678381D01*
X107713289Y-84679535D01*
X107950000Y-84698165D01*
X108186711Y-84679535D01*
X108191518Y-84678381D01*
X108191524Y-84678380D01*
X108377161Y-84633812D01*
X108417594Y-84624105D01*
X108422167Y-84622211D01*
X108632389Y-84535135D01*
X108632393Y-84535133D01*
X108636963Y-84533240D01*
X108641183Y-84530654D01*
X108835202Y-84411759D01*
X108835208Y-84411755D01*
X108839416Y-84409176D01*
X108843176Y-84405965D01*
X108843182Y-84405961D01*
X108973670Y-84294513D01*
X109038459Y-84265482D01*
X109108659Y-84276087D01*
X109161982Y-84322962D01*
X109181500Y-84390324D01*
X109181500Y-85938134D01*
X109188255Y-86000316D01*
X109239385Y-86136705D01*
X109326739Y-86253261D01*
X109443295Y-86340615D01*
X109579684Y-86391745D01*
X109641866Y-86398500D01*
X111338134Y-86398500D01*
X111400316Y-86391745D01*
X111536705Y-86340615D01*
X111653261Y-86253261D01*
X111711119Y-86176062D01*
X112268493Y-86176062D01*
X112277789Y-86188077D01*
X112328994Y-86223931D01*
X112338489Y-86229414D01*
X112535947Y-86321490D01*
X112546239Y-86325236D01*
X112756688Y-86381625D01*
X112767481Y-86383528D01*
X112984525Y-86402517D01*
X112995475Y-86402517D01*
X113212519Y-86383528D01*
X113223312Y-86381625D01*
X113433761Y-86325236D01*
X113444053Y-86321490D01*
X113641511Y-86229414D01*
X113651006Y-86223931D01*
X113703048Y-86187491D01*
X113711424Y-86177012D01*
X113704356Y-86163566D01*
X113002812Y-85462022D01*
X112988868Y-85454408D01*
X112987035Y-85454539D01*
X112980420Y-85458790D01*
X112274923Y-86164287D01*
X112268493Y-86176062D01*
X111711119Y-86176062D01*
X111740615Y-86136705D01*
X111791745Y-86000316D01*
X111798500Y-85938134D01*
X111798500Y-85934815D01*
X111822153Y-85867890D01*
X111868156Y-85832196D01*
X111867141Y-85830266D01*
X111878000Y-85824558D01*
X111878245Y-85824368D01*
X111878403Y-85824347D01*
X111916434Y-85804356D01*
X112617978Y-85102812D01*
X112624356Y-85091132D01*
X113354408Y-85091132D01*
X113354539Y-85092965D01*
X113358790Y-85099580D01*
X114064287Y-85805077D01*
X114076062Y-85811507D01*
X114088077Y-85802211D01*
X114123931Y-85751006D01*
X114129414Y-85741511D01*
X114221490Y-85544053D01*
X114225236Y-85533761D01*
X114281625Y-85323312D01*
X114283528Y-85312519D01*
X114302517Y-85095475D01*
X114302517Y-85084525D01*
X114283528Y-84867481D01*
X114281625Y-84856688D01*
X114225236Y-84646239D01*
X114221490Y-84635947D01*
X114129414Y-84438489D01*
X114123931Y-84428994D01*
X114087491Y-84376952D01*
X114077012Y-84368576D01*
X114063566Y-84375644D01*
X113362022Y-85077188D01*
X113354408Y-85091132D01*
X112624356Y-85091132D01*
X112625592Y-85088868D01*
X112625461Y-85087035D01*
X112621210Y-85080420D01*
X111915713Y-84374923D01*
X111873971Y-84352129D01*
X111863971Y-84349953D01*
X111813773Y-84299747D01*
X111798549Y-84246186D01*
X111798500Y-84245281D01*
X111798500Y-84241866D01*
X111796964Y-84227722D01*
X111792598Y-84187540D01*
X111791745Y-84179684D01*
X111740615Y-84043295D01*
X111710407Y-84002988D01*
X112268576Y-84002988D01*
X112275644Y-84016434D01*
X112977188Y-84717978D01*
X112991132Y-84725592D01*
X112992965Y-84725461D01*
X112999580Y-84721210D01*
X113705077Y-84015713D01*
X113711507Y-84003938D01*
X113702211Y-83991923D01*
X113651006Y-83956069D01*
X113641511Y-83950586D01*
X113444053Y-83858510D01*
X113433761Y-83854764D01*
X113223312Y-83798375D01*
X113212519Y-83796472D01*
X112995475Y-83777483D01*
X112984525Y-83777483D01*
X112767481Y-83796472D01*
X112756688Y-83798375D01*
X112546239Y-83854764D01*
X112535947Y-83858510D01*
X112338489Y-83950586D01*
X112328994Y-83956069D01*
X112276952Y-83992509D01*
X112268576Y-84002988D01*
X111710407Y-84002988D01*
X111653261Y-83926739D01*
X111536705Y-83839385D01*
X111400316Y-83788255D01*
X111338134Y-83781500D01*
X109641866Y-83781500D01*
X109579684Y-83788255D01*
X109572289Y-83791027D01*
X109572286Y-83791028D01*
X109556591Y-83796912D01*
X109485783Y-83802094D01*
X109423415Y-83768172D01*
X109389287Y-83705916D01*
X109389844Y-83649515D01*
X109443380Y-83426524D01*
X109443381Y-83426518D01*
X109444535Y-83421711D01*
X109463165Y-83185000D01*
X109444535Y-82948289D01*
X109424087Y-82863114D01*
X109390260Y-82722218D01*
X109389105Y-82717406D01*
X109387211Y-82712833D01*
X109300135Y-82502611D01*
X109300133Y-82502607D01*
X109298240Y-82498037D01*
X109278474Y-82465782D01*
X109176759Y-82299798D01*
X109176755Y-82299792D01*
X109174176Y-82295584D01*
X109019969Y-82115031D01*
X108839416Y-81960824D01*
X108835208Y-81958245D01*
X108835202Y-81958241D01*
X108641183Y-81839346D01*
X108636963Y-81836760D01*
X108632393Y-81834867D01*
X108632389Y-81834865D01*
X108422167Y-81747789D01*
X108422165Y-81747788D01*
X108417594Y-81745895D01*
X108317406Y-81721842D01*
X108191524Y-81691620D01*
X108191518Y-81691619D01*
X108186711Y-81690465D01*
X107950000Y-81671835D01*
X107713289Y-81690465D01*
X107708482Y-81691619D01*
X107708476Y-81691620D01*
X107582594Y-81721842D01*
X107482406Y-81745895D01*
X107477835Y-81747788D01*
X107477833Y-81747789D01*
X107267611Y-81834865D01*
X107267607Y-81834867D01*
X107263037Y-81836760D01*
X107258817Y-81839346D01*
X107064798Y-81958241D01*
X107064792Y-81958245D01*
X107060584Y-81960824D01*
X106880031Y-82115031D01*
X106725824Y-82295584D01*
X106723245Y-82299792D01*
X106723241Y-82299798D01*
X106621526Y-82465782D01*
X106601760Y-82498037D01*
X106599867Y-82502607D01*
X106599865Y-82502611D01*
X106512789Y-82712833D01*
X106510895Y-82717406D01*
X106509740Y-82722218D01*
X106475914Y-82863114D01*
X106455465Y-82948289D01*
X106436835Y-83185000D01*
X104383165Y-83185000D01*
X104364535Y-82948289D01*
X104344087Y-82863114D01*
X104310260Y-82722218D01*
X104309105Y-82717406D01*
X104307211Y-82712833D01*
X104220135Y-82502611D01*
X104220133Y-82502607D01*
X104218240Y-82498037D01*
X104198474Y-82465782D01*
X104096759Y-82299798D01*
X104096755Y-82299792D01*
X104094176Y-82295584D01*
X103939969Y-82115031D01*
X103759416Y-81960824D01*
X103755208Y-81958245D01*
X103755202Y-81958241D01*
X103561183Y-81839346D01*
X103556963Y-81836760D01*
X103552393Y-81834867D01*
X103552389Y-81834865D01*
X103342167Y-81747789D01*
X103342165Y-81747788D01*
X103337594Y-81745895D01*
X103237406Y-81721842D01*
X103111524Y-81691620D01*
X103111518Y-81691619D01*
X103106711Y-81690465D01*
X102870000Y-81671835D01*
X102633289Y-81690465D01*
X102628482Y-81691619D01*
X102628476Y-81691620D01*
X102502594Y-81721842D01*
X102402406Y-81745895D01*
X102397835Y-81747788D01*
X102397833Y-81747789D01*
X102187611Y-81834865D01*
X102187607Y-81834867D01*
X102183037Y-81836760D01*
X102178817Y-81839346D01*
X101984798Y-81958241D01*
X101984792Y-81958245D01*
X101980584Y-81960824D01*
X101800031Y-82115031D01*
X101645824Y-82295584D01*
X101643245Y-82299792D01*
X101643241Y-82299798D01*
X101541526Y-82465782D01*
X101521760Y-82498037D01*
X101519867Y-82502607D01*
X101519865Y-82502611D01*
X101432789Y-82712833D01*
X101430895Y-82717406D01*
X101429740Y-82722218D01*
X101395914Y-82863114D01*
X101375465Y-82948289D01*
X101356835Y-83185000D01*
X96800343Y-83185000D01*
X96777642Y-83094622D01*
X96774324Y-83084874D01*
X96681846Y-82872189D01*
X96676980Y-82863114D01*
X96551012Y-82668398D01*
X96544719Y-82660227D01*
X96517586Y-82630409D01*
X96486534Y-82566564D01*
X96494928Y-82496065D01*
X96540105Y-82441296D01*
X96597170Y-82420346D01*
X96606853Y-82419294D01*
X96630316Y-82416745D01*
X96766705Y-82365615D01*
X96883261Y-82278261D01*
X96970615Y-82161705D01*
X97021745Y-82025316D01*
X97028500Y-81963134D01*
X97028500Y-79374000D01*
X97048502Y-79305879D01*
X97102158Y-79259386D01*
X97154500Y-79248000D01*
X98909870Y-79248000D01*
X98977991Y-79268002D01*
X99024484Y-79321658D01*
X99034588Y-79391932D01*
X99006744Y-79454569D01*
X98878036Y-79609324D01*
X98740901Y-79835314D01*
X98739095Y-79839622D01*
X98739094Y-79839623D01*
X98691477Y-79953178D01*
X98638677Y-80079091D01*
X98637526Y-80083623D01*
X98637525Y-80083626D01*
X98626226Y-80128116D01*
X98573608Y-80335301D01*
X98547124Y-80598314D01*
X98547348Y-80602980D01*
X98547348Y-80602985D01*
X98549518Y-80648160D01*
X98559807Y-80862352D01*
X98611378Y-81121616D01*
X98612957Y-81126014D01*
X98612959Y-81126021D01*
X98669276Y-81282876D01*
X98700704Y-81370410D01*
X98702921Y-81374536D01*
X98786861Y-81530756D01*
X98825822Y-81603267D01*
X98828617Y-81607011D01*
X98828619Y-81607013D01*
X98941144Y-81757702D01*
X98983985Y-81815073D01*
X98987292Y-81818351D01*
X98987297Y-81818357D01*
X99129897Y-81959717D01*
X99171718Y-82001174D01*
X99384896Y-82157483D01*
X99389031Y-82159659D01*
X99389035Y-82159661D01*
X99512293Y-82224510D01*
X99618836Y-82280565D01*
X99758891Y-82329474D01*
X99862384Y-82365615D01*
X99868400Y-82367716D01*
X99872993Y-82368588D01*
X100123515Y-82416151D01*
X100123518Y-82416151D01*
X100128104Y-82417022D01*
X100260174Y-82422212D01*
X100387575Y-82427218D01*
X100387581Y-82427218D01*
X100392243Y-82427401D01*
X100655015Y-82398622D01*
X100659526Y-82397434D01*
X100659528Y-82397434D01*
X100906124Y-82332511D01*
X100906126Y-82332510D01*
X100910647Y-82331320D01*
X100914944Y-82329474D01*
X101149229Y-82228817D01*
X101149231Y-82228816D01*
X101153523Y-82226972D01*
X101295918Y-82138855D01*
X101374332Y-82090331D01*
X101374334Y-82090330D01*
X101378307Y-82087871D01*
X101443460Y-82032715D01*
X101576496Y-81920093D01*
X101576498Y-81920091D01*
X101580063Y-81917073D01*
X101754356Y-81718329D01*
X101772529Y-81690077D01*
X101894831Y-81499936D01*
X101897359Y-81496006D01*
X102005930Y-81254988D01*
X102077683Y-81000570D01*
X102106761Y-80772000D01*
X102110645Y-80741471D01*
X102110645Y-80741465D01*
X102111043Y-80738340D01*
X102113487Y-80645000D01*
X102093897Y-80381384D01*
X102035557Y-80123559D01*
X102020028Y-80083626D01*
X101941442Y-79881542D01*
X101941441Y-79881540D01*
X101939749Y-79877189D01*
X101913535Y-79831323D01*
X101891375Y-79792552D01*
X101808578Y-79647687D01*
X101654316Y-79452006D01*
X101627851Y-79386126D01*
X101641204Y-79316397D01*
X101690136Y-79264956D01*
X101753266Y-79248000D01*
X103989870Y-79248000D01*
X104057991Y-79268002D01*
X104104484Y-79321658D01*
X104114588Y-79391932D01*
X104086744Y-79454569D01*
X103958036Y-79609324D01*
X103820901Y-79835314D01*
X103819095Y-79839622D01*
X103819094Y-79839623D01*
X103771477Y-79953178D01*
X103718677Y-80079091D01*
X103717526Y-80083623D01*
X103717525Y-80083626D01*
X103706226Y-80128116D01*
X103653608Y-80335301D01*
X103627124Y-80598314D01*
X103627348Y-80602980D01*
X103627348Y-80602985D01*
X103629518Y-80648160D01*
X103639807Y-80862352D01*
X103691378Y-81121616D01*
X103692957Y-81126014D01*
X103692959Y-81126021D01*
X103749276Y-81282876D01*
X103780704Y-81370410D01*
X103782921Y-81374536D01*
X103866861Y-81530756D01*
X103905822Y-81603267D01*
X103908617Y-81607011D01*
X103908619Y-81607013D01*
X104021144Y-81757702D01*
X104063985Y-81815073D01*
X104067292Y-81818351D01*
X104067297Y-81818357D01*
X104209897Y-81959717D01*
X104251718Y-82001174D01*
X104464896Y-82157483D01*
X104469031Y-82159659D01*
X104469035Y-82159661D01*
X104592293Y-82224510D01*
X104698836Y-82280565D01*
X104838891Y-82329474D01*
X104942384Y-82365615D01*
X104948400Y-82367716D01*
X104952993Y-82368588D01*
X105203515Y-82416151D01*
X105203518Y-82416151D01*
X105208104Y-82417022D01*
X105340174Y-82422212D01*
X105467575Y-82427218D01*
X105467581Y-82427218D01*
X105472243Y-82427401D01*
X105735015Y-82398622D01*
X105739526Y-82397434D01*
X105739528Y-82397434D01*
X105986124Y-82332511D01*
X105986126Y-82332510D01*
X105990647Y-82331320D01*
X105994944Y-82329474D01*
X106229229Y-82228817D01*
X106229231Y-82228816D01*
X106233523Y-82226972D01*
X106375918Y-82138855D01*
X106454332Y-82090331D01*
X106454334Y-82090330D01*
X106458307Y-82087871D01*
X106523460Y-82032715D01*
X106656496Y-81920093D01*
X106656498Y-81920091D01*
X106660063Y-81917073D01*
X106834356Y-81718329D01*
X106852529Y-81690077D01*
X106974831Y-81499936D01*
X106977359Y-81496006D01*
X107085930Y-81254988D01*
X107157683Y-81000570D01*
X107186761Y-80772000D01*
X107190645Y-80741471D01*
X107190645Y-80741465D01*
X107191043Y-80738340D01*
X107193487Y-80645000D01*
X107173897Y-80381384D01*
X107115557Y-80123559D01*
X107100028Y-80083626D01*
X107021442Y-79881542D01*
X107021441Y-79881540D01*
X107019749Y-79877189D01*
X106993535Y-79831323D01*
X106971375Y-79792552D01*
X106888578Y-79647687D01*
X106734316Y-79452006D01*
X106707851Y-79386126D01*
X106721204Y-79316397D01*
X106770136Y-79264956D01*
X106833266Y-79248000D01*
X111049300Y-79248000D01*
X111117421Y-79268002D01*
X111163914Y-79321658D01*
X111175300Y-79374000D01*
X111175300Y-81277334D01*
X111182055Y-81339516D01*
X111233185Y-81475905D01*
X111320539Y-81592461D01*
X111437095Y-81679815D01*
X111573484Y-81730945D01*
X111635666Y-81737700D01*
X112920330Y-81737700D01*
X112988451Y-81757702D01*
X113009425Y-81774605D01*
X115095596Y-83860776D01*
X115129622Y-83923088D01*
X115132501Y-83949871D01*
X115132501Y-87423471D01*
X115112499Y-87491592D01*
X115058843Y-87538085D01*
X114988569Y-87548189D01*
X114958283Y-87539880D01*
X114772168Y-87462789D01*
X114772161Y-87462787D01*
X114767594Y-87460895D01*
X114686512Y-87441429D01*
X114541524Y-87406620D01*
X114541518Y-87406619D01*
X114536711Y-87405465D01*
X114300000Y-87386835D01*
X114063289Y-87405465D01*
X114058482Y-87406619D01*
X114058476Y-87406620D01*
X113913488Y-87441429D01*
X113832406Y-87460895D01*
X113827835Y-87462788D01*
X113827833Y-87462789D01*
X113617611Y-87549865D01*
X113617607Y-87549867D01*
X113613037Y-87551760D01*
X113608817Y-87554346D01*
X113414798Y-87673241D01*
X113414792Y-87673245D01*
X113410584Y-87675824D01*
X113230031Y-87830031D01*
X113075824Y-88010584D01*
X113073245Y-88014792D01*
X113073241Y-88014798D01*
X113059689Y-88036913D01*
X112951760Y-88213037D01*
X112949867Y-88217607D01*
X112949865Y-88217611D01*
X112885068Y-88374047D01*
X112860895Y-88432406D01*
X112847642Y-88487609D01*
X112808808Y-88649365D01*
X112805465Y-88663289D01*
X112786835Y-88900000D01*
X112805465Y-89136711D01*
X112837753Y-89271198D01*
X112841127Y-89285253D01*
X112837580Y-89356161D01*
X112807703Y-89403762D01*
X112435460Y-89776005D01*
X112429195Y-89781858D01*
X112386225Y-89819343D01*
X112381858Y-89825557D01*
X112350005Y-89870879D01*
X112346072Y-89876175D01*
X112311893Y-89919764D01*
X112311891Y-89919767D01*
X112307207Y-89925741D01*
X112304081Y-89932665D01*
X112302243Y-89935700D01*
X112294999Y-89948399D01*
X112293311Y-89951547D01*
X112288943Y-89957762D01*
X112286183Y-89964841D01*
X112266066Y-90016440D01*
X112263521Y-90022496D01*
X112237586Y-90079936D01*
X112236201Y-90087409D01*
X112235130Y-90090827D01*
X112231145Y-90104816D01*
X112230248Y-90108308D01*
X112227487Y-90115390D01*
X112226495Y-90122923D01*
X112226495Y-90122924D01*
X112219266Y-90177831D01*
X112218234Y-90184344D01*
X112208138Y-90238819D01*
X112206754Y-90246288D01*
X112207191Y-90253868D01*
X112207191Y-90253869D01*
X112210290Y-90307613D01*
X112210499Y-90314866D01*
X112210499Y-96378775D01*
X112190497Y-96446896D01*
X112173594Y-96467870D01*
X109639444Y-99002020D01*
X109577132Y-99036046D01*
X109530038Y-99036980D01*
X109528087Y-99036457D01*
X109300000Y-99016502D01*
X109071913Y-99036457D01*
X109066600Y-99037881D01*
X109066598Y-99037881D01*
X108856067Y-99094293D01*
X108856065Y-99094294D01*
X108850757Y-99095716D01*
X108845776Y-99098039D01*
X108845775Y-99098039D01*
X108648238Y-99190151D01*
X108648233Y-99190154D01*
X108643251Y-99192477D01*
X108574893Y-99240342D01*
X108460211Y-99320643D01*
X108460208Y-99320645D01*
X108455700Y-99323802D01*
X108293802Y-99485700D01*
X108290645Y-99490208D01*
X108290643Y-99490211D01*
X108268048Y-99522480D01*
X108162477Y-99673251D01*
X108160154Y-99678233D01*
X108160151Y-99678238D01*
X108091168Y-99826175D01*
X108065716Y-99880757D01*
X108064294Y-99886065D01*
X108064293Y-99886067D01*
X108015180Y-100069357D01*
X108006457Y-100101913D01*
X107986502Y-100330000D01*
X108006457Y-100558087D01*
X108007881Y-100563400D01*
X108007881Y-100563402D01*
X108033507Y-100659037D01*
X108065716Y-100779243D01*
X108068039Y-100784224D01*
X108068039Y-100784225D01*
X108160151Y-100981762D01*
X108160154Y-100981767D01*
X108162477Y-100986749D01*
X108293802Y-101174300D01*
X108455700Y-101336198D01*
X108460208Y-101339355D01*
X108460211Y-101339357D01*
X108538389Y-101394098D01*
X108643251Y-101467523D01*
X108648233Y-101469846D01*
X108648238Y-101469849D01*
X108845775Y-101561961D01*
X108850757Y-101564284D01*
X108856065Y-101565706D01*
X108856067Y-101565707D01*
X109066598Y-101622119D01*
X109066600Y-101622119D01*
X109071913Y-101623543D01*
X109300000Y-101643498D01*
X109528087Y-101623543D01*
X109533400Y-101622119D01*
X109533402Y-101622119D01*
X109743933Y-101565707D01*
X109743935Y-101565706D01*
X109749243Y-101564284D01*
X109754225Y-101561961D01*
X109951762Y-101469849D01*
X109951767Y-101469846D01*
X109956749Y-101467523D01*
X110061611Y-101394098D01*
X110139789Y-101339357D01*
X110139792Y-101339355D01*
X110144300Y-101336198D01*
X110306198Y-101174300D01*
X110437523Y-100986749D01*
X110439846Y-100981767D01*
X110439849Y-100981762D01*
X110531961Y-100784225D01*
X110531961Y-100784224D01*
X110534284Y-100779243D01*
X110566494Y-100659037D01*
X110592119Y-100563402D01*
X110592119Y-100563400D01*
X110593543Y-100558087D01*
X110613498Y-100330000D01*
X110598097Y-100153965D01*
X110594022Y-100107386D01*
X110594022Y-100107384D01*
X110593543Y-100101913D01*
X110593122Y-100100340D01*
X110600859Y-100030969D01*
X110627980Y-99990555D01*
X113014417Y-97604118D01*
X113076729Y-97570092D01*
X113147544Y-97575157D01*
X113206725Y-97620942D01*
X113277993Y-97722722D01*
X113293802Y-97745300D01*
X113455700Y-97907198D01*
X113460208Y-97910355D01*
X113460211Y-97910357D01*
X113538389Y-97965098D01*
X113643251Y-98038523D01*
X113648233Y-98040846D01*
X113648238Y-98040849D01*
X113845775Y-98132961D01*
X113850757Y-98135284D01*
X113856065Y-98136706D01*
X113856067Y-98136707D01*
X114066598Y-98193119D01*
X114066600Y-98193119D01*
X114071913Y-98194543D01*
X114300000Y-98214498D01*
X114528087Y-98194543D01*
X114533400Y-98193119D01*
X114533402Y-98193119D01*
X114743933Y-98136707D01*
X114743935Y-98136706D01*
X114749243Y-98135284D01*
X114786539Y-98117893D01*
X114914800Y-98058084D01*
X114953251Y-98040154D01*
X115023443Y-98029493D01*
X115088256Y-98058473D01*
X115127112Y-98117893D01*
X115132501Y-98154349D01*
X115132501Y-99076651D01*
X115112499Y-99144772D01*
X115058843Y-99191265D01*
X114988569Y-99201369D01*
X114953251Y-99190846D01*
X114754225Y-99098039D01*
X114754224Y-99098039D01*
X114749243Y-99095716D01*
X114743935Y-99094294D01*
X114743933Y-99094293D01*
X114533402Y-99037881D01*
X114533400Y-99037881D01*
X114528087Y-99036457D01*
X114300000Y-99016502D01*
X114071913Y-99036457D01*
X114066600Y-99037881D01*
X114066598Y-99037881D01*
X113856067Y-99094293D01*
X113856065Y-99094294D01*
X113850757Y-99095716D01*
X113845776Y-99098039D01*
X113845775Y-99098039D01*
X113648238Y-99190151D01*
X113648233Y-99190154D01*
X113643251Y-99192477D01*
X113574893Y-99240342D01*
X113460211Y-99320643D01*
X113460208Y-99320645D01*
X113455700Y-99323802D01*
X113293802Y-99485700D01*
X113290645Y-99490208D01*
X113290643Y-99490211D01*
X113268048Y-99522480D01*
X113162477Y-99673251D01*
X113160154Y-99678233D01*
X113160151Y-99678238D01*
X113091168Y-99826175D01*
X113065716Y-99880757D01*
X113064294Y-99886065D01*
X113064293Y-99886067D01*
X113015180Y-100069357D01*
X113006457Y-100101913D01*
X112986502Y-100330000D01*
X113006457Y-100558087D01*
X113007881Y-100563400D01*
X113007881Y-100563402D01*
X113033507Y-100659037D01*
X113065716Y-100779243D01*
X113068039Y-100784224D01*
X113068039Y-100784225D01*
X113160151Y-100981762D01*
X113160154Y-100981767D01*
X113162477Y-100986749D01*
X113293802Y-101174300D01*
X113455700Y-101336198D01*
X113460208Y-101339355D01*
X113460211Y-101339357D01*
X113538389Y-101394098D01*
X113643251Y-101467523D01*
X113648233Y-101469846D01*
X113648238Y-101469849D01*
X113845775Y-101561961D01*
X113850757Y-101564284D01*
X113856065Y-101565706D01*
X113856067Y-101565707D01*
X114066598Y-101622119D01*
X114066600Y-101622119D01*
X114071913Y-101623543D01*
X114300000Y-101643498D01*
X114528087Y-101623543D01*
X114533400Y-101622119D01*
X114533402Y-101622119D01*
X114743933Y-101565707D01*
X114743935Y-101565706D01*
X114749243Y-101564284D01*
X114786539Y-101546893D01*
X114953251Y-101469154D01*
X115023443Y-101458493D01*
X115088256Y-101487473D01*
X115127112Y-101546893D01*
X115132501Y-101583349D01*
X115132501Y-102028471D01*
X115112499Y-102096592D01*
X115058843Y-102143085D01*
X114988569Y-102153189D01*
X114958283Y-102144880D01*
X114772168Y-102067789D01*
X114772161Y-102067787D01*
X114767594Y-102065895D01*
X114648000Y-102037183D01*
X114541524Y-102011620D01*
X114541518Y-102011619D01*
X114536711Y-102010465D01*
X114300000Y-101991835D01*
X114063289Y-102010465D01*
X114058482Y-102011619D01*
X114058476Y-102011620D01*
X113952000Y-102037183D01*
X113832406Y-102065895D01*
X113827835Y-102067788D01*
X113827833Y-102067789D01*
X113617611Y-102154865D01*
X113617607Y-102154867D01*
X113613037Y-102156760D01*
X113608817Y-102159346D01*
X113414798Y-102278241D01*
X113414792Y-102278245D01*
X113410584Y-102280824D01*
X113230031Y-102435031D01*
X113075824Y-102615584D01*
X113073245Y-102619792D01*
X113073241Y-102619798D01*
X112971941Y-102785105D01*
X112951760Y-102818037D01*
X112949867Y-102822607D01*
X112949865Y-102822611D01*
X112862789Y-103032833D01*
X112860895Y-103037406D01*
X112859740Y-103042218D01*
X112819412Y-103210197D01*
X112805465Y-103268289D01*
X112786835Y-103505000D01*
X112805465Y-103741711D01*
X112860895Y-103972594D01*
X112951760Y-104191963D01*
X112954346Y-104196183D01*
X113073241Y-104390202D01*
X113073245Y-104390208D01*
X113075824Y-104394416D01*
X113230031Y-104574969D01*
X113233787Y-104578177D01*
X113352442Y-104679518D01*
X113391251Y-104738968D01*
X113391757Y-104809963D01*
X113352442Y-104871140D01*
X113234142Y-104972178D01*
X113227178Y-104979142D01*
X113079443Y-105152117D01*
X113073643Y-105160101D01*
X112954795Y-105354042D01*
X112950313Y-105362837D01*
X112863264Y-105572992D01*
X112860218Y-105582366D01*
X112814358Y-105773385D01*
X112815063Y-105787469D01*
X112823944Y-105791000D01*
X114428000Y-105791000D01*
X114496121Y-105811002D01*
X114542614Y-105864658D01*
X114554000Y-105917000D01*
X114554000Y-106173000D01*
X114533998Y-106241121D01*
X114480342Y-106287614D01*
X114428000Y-106299000D01*
X112828244Y-106299000D01*
X112814713Y-106302973D01*
X112813353Y-106312431D01*
X112860218Y-106507634D01*
X112863264Y-106517008D01*
X112950313Y-106727163D01*
X112954795Y-106735958D01*
X113073643Y-106929899D01*
X113079443Y-106937883D01*
X113227178Y-107110858D01*
X113234142Y-107117822D01*
X113352442Y-107218860D01*
X113391251Y-107278311D01*
X113391757Y-107349305D01*
X113352442Y-107410482D01*
X113230031Y-107515031D01*
X113226823Y-107518787D01*
X113220868Y-107525759D01*
X113075824Y-107695584D01*
X113073245Y-107699792D01*
X113073241Y-107699798D01*
X112980918Y-107850455D01*
X112951760Y-107898037D01*
X112949867Y-107902607D01*
X112949865Y-107902611D01*
X112866753Y-108103263D01*
X112860895Y-108117406D01*
X112847830Y-108171827D01*
X112808703Y-108334802D01*
X112805465Y-108348289D01*
X112786835Y-108585000D01*
X112805465Y-108821711D01*
X112806619Y-108826518D01*
X112806620Y-108826524D01*
X112809833Y-108839906D01*
X112860895Y-109052594D01*
X112862788Y-109057165D01*
X112862789Y-109057167D01*
X112927969Y-109214525D01*
X112951760Y-109271963D01*
X112954346Y-109276183D01*
X113073241Y-109470202D01*
X113073245Y-109470208D01*
X113075824Y-109474416D01*
X113230031Y-109654969D01*
X113233787Y-109658177D01*
X113233792Y-109658182D01*
X113352056Y-109759189D01*
X113390866Y-109818639D01*
X113391372Y-109889634D01*
X113352056Y-109950811D01*
X113233792Y-110051818D01*
X113233787Y-110051823D01*
X113230031Y-110055031D01*
X113226823Y-110058787D01*
X113221758Y-110064717D01*
X113075824Y-110235584D01*
X113073245Y-110239792D01*
X113073241Y-110239798D01*
X113003034Y-110354366D01*
X112951760Y-110438037D01*
X112949867Y-110442607D01*
X112949865Y-110442611D01*
X112874055Y-110625634D01*
X112860895Y-110657406D01*
X112841640Y-110737609D01*
X112808704Y-110874798D01*
X112805465Y-110888289D01*
X112786835Y-111125000D01*
X112805465Y-111361711D01*
X112860895Y-111592594D01*
X112862788Y-111597165D01*
X112862789Y-111597167D01*
X112927969Y-111754525D01*
X112951760Y-111811963D01*
X112954346Y-111816183D01*
X113073241Y-112010202D01*
X113073245Y-112010208D01*
X113075824Y-112014416D01*
X113230031Y-112194969D01*
X113233787Y-112198177D01*
X113233792Y-112198182D01*
X113352056Y-112299189D01*
X113390866Y-112358639D01*
X113391372Y-112429634D01*
X113352056Y-112490811D01*
X113233792Y-112591818D01*
X113233787Y-112591823D01*
X113230031Y-112595031D01*
X113226823Y-112598787D01*
X113218786Y-112608197D01*
X113075824Y-112775584D01*
X113073245Y-112779792D01*
X113073241Y-112779798D01*
X113003034Y-112894366D01*
X112951760Y-112978037D01*
X112949867Y-112982607D01*
X112949865Y-112982611D01*
X112876326Y-113160151D01*
X112860895Y-113197406D01*
X112852161Y-113233787D01*
X112808704Y-113414798D01*
X112805465Y-113428289D01*
X112786835Y-113665000D01*
X112805465Y-113901711D01*
X112860895Y-114132594D01*
X112862788Y-114137165D01*
X112862789Y-114137167D01*
X112927969Y-114294525D01*
X112951760Y-114351963D01*
X112954346Y-114356183D01*
X113073241Y-114550202D01*
X113073245Y-114550208D01*
X113075824Y-114554416D01*
X113230031Y-114734969D01*
X113233787Y-114738177D01*
X113233792Y-114738182D01*
X113352056Y-114839189D01*
X113390866Y-114898639D01*
X113391372Y-114969634D01*
X113352056Y-115030811D01*
X113233792Y-115131818D01*
X113233787Y-115131823D01*
X113230031Y-115135031D01*
X113226823Y-115138787D01*
X113218786Y-115148197D01*
X113075824Y-115315584D01*
X113073245Y-115319792D01*
X113073241Y-115319798D01*
X113003034Y-115434366D01*
X112951760Y-115518037D01*
X112949867Y-115522607D01*
X112949865Y-115522611D01*
X112882821Y-115684471D01*
X112860895Y-115737406D01*
X112852161Y-115773787D01*
X112808704Y-115954798D01*
X112805465Y-115968289D01*
X112786835Y-116205000D01*
X112805465Y-116441711D01*
X112860895Y-116672594D01*
X112862788Y-116677165D01*
X112862789Y-116677167D01*
X112927969Y-116834525D01*
X112951760Y-116891963D01*
X112954346Y-116896183D01*
X113073241Y-117090202D01*
X113073245Y-117090208D01*
X113075824Y-117094416D01*
X113230031Y-117274969D01*
X113233787Y-117278177D01*
X113233792Y-117278182D01*
X113352056Y-117379189D01*
X113390866Y-117438639D01*
X113391372Y-117509634D01*
X113352056Y-117570811D01*
X113233792Y-117671818D01*
X113233787Y-117671823D01*
X113230031Y-117675031D01*
X113226823Y-117678787D01*
X113219061Y-117687875D01*
X113075824Y-117855584D01*
X113073245Y-117859792D01*
X113073241Y-117859798D01*
X112954346Y-118053817D01*
X112951760Y-118058037D01*
X112949867Y-118062607D01*
X112949865Y-118062611D01*
X112890550Y-118205811D01*
X112860895Y-118277406D01*
X112847180Y-118334535D01*
X112808704Y-118494798D01*
X112805465Y-118508289D01*
X112786835Y-118745000D01*
X112805465Y-118981711D01*
X112806619Y-118986518D01*
X112806620Y-118986524D01*
X112835877Y-119108385D01*
X112860895Y-119212594D01*
X112862788Y-119217165D01*
X112862789Y-119217167D01*
X112921228Y-119358251D01*
X112951760Y-119431963D01*
X112954346Y-119436183D01*
X113073241Y-119630202D01*
X113073245Y-119630208D01*
X113075824Y-119634416D01*
X113230031Y-119814969D01*
X113233787Y-119818177D01*
X113233792Y-119818182D01*
X113352056Y-119919189D01*
X113390866Y-119978639D01*
X113391372Y-120049634D01*
X113352056Y-120110811D01*
X113233792Y-120211818D01*
X113233787Y-120211823D01*
X113230031Y-120215031D01*
X113075824Y-120395584D01*
X113073245Y-120399792D01*
X113073241Y-120399798D01*
X112993625Y-120529720D01*
X112951760Y-120598037D01*
X112949867Y-120602607D01*
X112949865Y-120602611D01*
X112862789Y-120812833D01*
X112860895Y-120817406D01*
X112842975Y-120892049D01*
X112808021Y-121037643D01*
X112805465Y-121048289D01*
X112786835Y-121285000D01*
X112805465Y-121521711D01*
X112860895Y-121752594D01*
X112862788Y-121757165D01*
X112862789Y-121757167D01*
X112947377Y-121961381D01*
X112951760Y-121971963D01*
X112954346Y-121976183D01*
X113073241Y-122170202D01*
X113073245Y-122170208D01*
X113075824Y-122174416D01*
X113230031Y-122354969D01*
X113233787Y-122358177D01*
X113352442Y-122459518D01*
X113391251Y-122518968D01*
X113391757Y-122589963D01*
X113352442Y-122651140D01*
X113234142Y-122752178D01*
X113227178Y-122759142D01*
X113079443Y-122932117D01*
X113073643Y-122940101D01*
X112954795Y-123134042D01*
X112950313Y-123142837D01*
X112863264Y-123352992D01*
X112860218Y-123362366D01*
X112814358Y-123553385D01*
X112815063Y-123567469D01*
X112823944Y-123571000D01*
X114428000Y-123571000D01*
X114496121Y-123591002D01*
X114542614Y-123644658D01*
X114554000Y-123697000D01*
X114554000Y-125296756D01*
X114557973Y-125310287D01*
X114567431Y-125311647D01*
X114762634Y-125264782D01*
X114772008Y-125261736D01*
X114958283Y-125184578D01*
X115028873Y-125176989D01*
X115092360Y-125208768D01*
X115128587Y-125269826D01*
X115132501Y-125300987D01*
X115132501Y-128407349D01*
X115112499Y-128475470D01*
X115058843Y-128521963D01*
X114988569Y-128532067D01*
X114973890Y-128529056D01*
X114874313Y-128502375D01*
X114863519Y-128500472D01*
X114646475Y-128481483D01*
X114635525Y-128481483D01*
X114418481Y-128500472D01*
X114407688Y-128502375D01*
X114197239Y-128558764D01*
X114186947Y-128562510D01*
X113989489Y-128654586D01*
X113979994Y-128660069D01*
X113927952Y-128696509D01*
X113919576Y-128706988D01*
X113926644Y-128720434D01*
X114911115Y-129704905D01*
X114945141Y-129767217D01*
X114940076Y-129838032D01*
X114911115Y-129883095D01*
X113925923Y-130868287D01*
X113919493Y-130880062D01*
X113928789Y-130892077D01*
X113979994Y-130927931D01*
X113989490Y-130933414D01*
X114026240Y-130950551D01*
X114079525Y-130997469D01*
X114098986Y-131065746D01*
X114078444Y-131133706D01*
X114062085Y-131153841D01*
X114040130Y-131175796D01*
X113977818Y-131209822D01*
X113951035Y-131212701D01*
X113341646Y-131212701D01*
X113273525Y-131192699D01*
X113227032Y-131139043D01*
X113216928Y-131068769D01*
X113246422Y-131004189D01*
X113266074Y-130985881D01*
X113304261Y-130957261D01*
X113391615Y-130840705D01*
X113442745Y-130704316D01*
X113449500Y-130642134D01*
X113449500Y-130638815D01*
X113473153Y-130571890D01*
X113519156Y-130536196D01*
X113518141Y-130534266D01*
X113529000Y-130528558D01*
X113529245Y-130528368D01*
X113529403Y-130528347D01*
X113567434Y-130508356D01*
X114268978Y-129806812D01*
X114276592Y-129792868D01*
X114276461Y-129791035D01*
X114272210Y-129784420D01*
X113566713Y-129078923D01*
X113524971Y-129056129D01*
X113514971Y-129053953D01*
X113464773Y-129003747D01*
X113449549Y-128950186D01*
X113449500Y-128949281D01*
X113449500Y-128945866D01*
X113448686Y-128938368D01*
X113446569Y-128918883D01*
X113442745Y-128883684D01*
X113391615Y-128747295D01*
X113304261Y-128630739D01*
X113187705Y-128543385D01*
X113051316Y-128492255D01*
X112989134Y-128485500D01*
X111292866Y-128485500D01*
X111230684Y-128492255D01*
X111094295Y-128543385D01*
X110977739Y-128630739D01*
X110890385Y-128747295D01*
X110839255Y-128883684D01*
X110832500Y-128945866D01*
X110832500Y-129341044D01*
X110812498Y-129409165D01*
X110758842Y-129455658D01*
X110688568Y-129465762D01*
X110628408Y-129439926D01*
X110486605Y-129327936D01*
X110478032Y-129322240D01*
X110274992Y-129210156D01*
X110265595Y-129205933D01*
X110046980Y-129128518D01*
X110037030Y-129125889D01*
X109936336Y-129107953D01*
X109923040Y-129109412D01*
X109918500Y-129123968D01*
X109918500Y-130684000D01*
X109898498Y-130752121D01*
X109844842Y-130798614D01*
X109792500Y-130810000D01*
X109536500Y-130810000D01*
X109468379Y-130789998D01*
X109421886Y-130736342D01*
X109410500Y-130684000D01*
X109410500Y-129122555D01*
X109406582Y-129109211D01*
X109392306Y-129107224D01*
X109327032Y-129117213D01*
X109317004Y-129119602D01*
X109096573Y-129191650D01*
X109087064Y-129195647D01*
X108881365Y-129302727D01*
X108872640Y-129308221D01*
X108737381Y-129409777D01*
X108670896Y-129434683D01*
X108601501Y-129419691D01*
X108551227Y-129369560D01*
X108543746Y-129353247D01*
X108543467Y-129352503D01*
X108540315Y-129344095D01*
X108452961Y-129227539D01*
X108336405Y-129140185D01*
X108200016Y-129089055D01*
X108137834Y-129082300D01*
X106987931Y-129082300D01*
X106919810Y-129062298D01*
X106873317Y-129008642D01*
X106863213Y-128938368D01*
X106865284Y-128929250D01*
X106865412Y-128928966D01*
X106866615Y-128922473D01*
X106867638Y-128918883D01*
X106867699Y-128918614D01*
X106867869Y-128918070D01*
X106871853Y-128904086D01*
X106872750Y-128900594D01*
X106875511Y-128893512D01*
X106883732Y-128831071D01*
X106884764Y-128824558D01*
X106894860Y-128770083D01*
X106894860Y-128770081D01*
X106896244Y-128762614D01*
X106892708Y-128701288D01*
X106892499Y-128694036D01*
X106892499Y-124082088D01*
X106892791Y-124073518D01*
X106896152Y-124024223D01*
X106896152Y-124024219D01*
X106896668Y-124016647D01*
X106885836Y-123954584D01*
X106884874Y-123948063D01*
X106878221Y-123893081D01*
X106878220Y-123893078D01*
X106877308Y-123885539D01*
X106874622Y-123878430D01*
X106873776Y-123874987D01*
X106869913Y-123860862D01*
X106868885Y-123857457D01*
X106867580Y-123849981D01*
X106842264Y-123792309D01*
X106839776Y-123786214D01*
X106820189Y-123734379D01*
X106820188Y-123734377D01*
X106817505Y-123727277D01*
X106813208Y-123721025D01*
X106811565Y-123717882D01*
X106804470Y-123705134D01*
X106802629Y-123702022D01*
X106799576Y-123695066D01*
X106761231Y-123645092D01*
X106757360Y-123639765D01*
X106725980Y-123594106D01*
X106725979Y-123594104D01*
X106721678Y-123587847D01*
X106716562Y-123583289D01*
X106686650Y-123519251D01*
X106687087Y-123481591D01*
X106687043Y-123481587D01*
X106687094Y-123481000D01*
X106706998Y-123253500D01*
X106687043Y-123025413D01*
X106685619Y-123020098D01*
X106629207Y-122809567D01*
X106629206Y-122809565D01*
X106627784Y-122804257D01*
X106604830Y-122755031D01*
X106533349Y-122601738D01*
X106533346Y-122601733D01*
X106531023Y-122596751D01*
X106399698Y-122409200D01*
X106237800Y-122247302D01*
X106233292Y-122244145D01*
X106233289Y-122244143D01*
X106127690Y-122170202D01*
X106050249Y-122115977D01*
X106045267Y-122113654D01*
X106045262Y-122113651D01*
X105847725Y-122021539D01*
X105847724Y-122021539D01*
X105842743Y-122019216D01*
X105837435Y-122017794D01*
X105837433Y-122017793D01*
X105626902Y-121961381D01*
X105626900Y-121961381D01*
X105621587Y-121959957D01*
X105393500Y-121940002D01*
X105165413Y-121959957D01*
X105160100Y-121961381D01*
X105160098Y-121961381D01*
X104949567Y-122017793D01*
X104949565Y-122017794D01*
X104944257Y-122019216D01*
X104939276Y-122021539D01*
X104939275Y-122021539D01*
X104741738Y-122113651D01*
X104741733Y-122113654D01*
X104736751Y-122115977D01*
X104659310Y-122170202D01*
X104553711Y-122244143D01*
X104553708Y-122244145D01*
X104549200Y-122247302D01*
X104387302Y-122409200D01*
X104255977Y-122596751D01*
X104253654Y-122601733D01*
X104253651Y-122601738D01*
X104182170Y-122755031D01*
X104159216Y-122804257D01*
X104157794Y-122809565D01*
X104157793Y-122809567D01*
X104101381Y-123020098D01*
X104099957Y-123025413D01*
X104080002Y-123253500D01*
X104099957Y-123481587D01*
X104101381Y-123486900D01*
X104101381Y-123486902D01*
X104130107Y-123594106D01*
X104159216Y-123702743D01*
X104161539Y-123707724D01*
X104161539Y-123707725D01*
X104253651Y-123905262D01*
X104253654Y-123905267D01*
X104255977Y-123910249D01*
X104325242Y-124009169D01*
X104383543Y-124092431D01*
X104387302Y-124097800D01*
X104549200Y-124259698D01*
X104553708Y-124262855D01*
X104553711Y-124262857D01*
X104589308Y-124287782D01*
X104736751Y-124391023D01*
X104741733Y-124393346D01*
X104741738Y-124393349D01*
X104921750Y-124477289D01*
X104944257Y-124487784D01*
X104949565Y-124489206D01*
X104949567Y-124489207D01*
X105160098Y-124545619D01*
X105160100Y-124545619D01*
X105165413Y-124547043D01*
X105170889Y-124547522D01*
X105170894Y-124547523D01*
X105282804Y-124557313D01*
X105379481Y-124565772D01*
X105445599Y-124591634D01*
X105487238Y-124649138D01*
X105494499Y-124691292D01*
X105494499Y-125159634D01*
X105474497Y-125227755D01*
X105420841Y-125274248D01*
X105350567Y-125284352D01*
X105285987Y-125254858D01*
X105272688Y-125241465D01*
X105213177Y-125171787D01*
X105209969Y-125168031D01*
X105204319Y-125163205D01*
X105140451Y-125108657D01*
X105029416Y-125013824D01*
X105025208Y-125011245D01*
X105025202Y-125011241D01*
X104831183Y-124892346D01*
X104826963Y-124889760D01*
X104822393Y-124887867D01*
X104822389Y-124887865D01*
X104612167Y-124800789D01*
X104612165Y-124800788D01*
X104607594Y-124798895D01*
X104477820Y-124767739D01*
X104381524Y-124744620D01*
X104381518Y-124744619D01*
X104376711Y-124743465D01*
X104140000Y-124724835D01*
X103903289Y-124743465D01*
X103898482Y-124744619D01*
X103898476Y-124744620D01*
X103802180Y-124767739D01*
X103672406Y-124798895D01*
X103667835Y-124800788D01*
X103667833Y-124800789D01*
X103457611Y-124887865D01*
X103457607Y-124887867D01*
X103453037Y-124889760D01*
X103448817Y-124892346D01*
X103254798Y-125011241D01*
X103254792Y-125011245D01*
X103250584Y-125013824D01*
X103139549Y-125108657D01*
X103075682Y-125163205D01*
X103070031Y-125168031D01*
X103066823Y-125171787D01*
X103054541Y-125186167D01*
X102915824Y-125348584D01*
X102913242Y-125352798D01*
X102913238Y-125352803D01*
X102886326Y-125396720D01*
X102833679Y-125444352D01*
X102763637Y-125455959D01*
X102698440Y-125427856D01*
X102685705Y-125415692D01*
X102551187Y-125267858D01*
X102547136Y-125264659D01*
X102547132Y-125264655D01*
X102373477Y-125127511D01*
X102373472Y-125127508D01*
X102369423Y-125124310D01*
X102364907Y-125121817D01*
X102364904Y-125121815D01*
X102171179Y-125014873D01*
X102171175Y-125014871D01*
X102166655Y-125012376D01*
X102161786Y-125010652D01*
X102161782Y-125010650D01*
X101953203Y-124936788D01*
X101953199Y-124936787D01*
X101948328Y-124935062D01*
X101943235Y-124934155D01*
X101943232Y-124934154D01*
X101725395Y-124895351D01*
X101725389Y-124895350D01*
X101720306Y-124894445D01*
X101647396Y-124893554D01*
X101493881Y-124891679D01*
X101493879Y-124891679D01*
X101488711Y-124891616D01*
X101259764Y-124926650D01*
X101039614Y-124998606D01*
X101035026Y-125000994D01*
X101035022Y-125000996D01*
X100838761Y-125103163D01*
X100834172Y-125105552D01*
X100830039Y-125108655D01*
X100830036Y-125108657D01*
X100717328Y-125193281D01*
X100648955Y-125244617D01*
X100632596Y-125261736D01*
X100631470Y-125262914D01*
X100569946Y-125298344D01*
X100499033Y-125294887D01*
X100441247Y-125253641D01*
X100422394Y-125220092D01*
X100401068Y-125163205D01*
X100401067Y-125163203D01*
X100397915Y-125154795D01*
X100310561Y-125038239D01*
X100194005Y-124950885D01*
X100057616Y-124899755D01*
X99995434Y-124893000D01*
X98099166Y-124893000D01*
X98036984Y-124899755D01*
X97900595Y-124950885D01*
X97784039Y-125038239D01*
X97696685Y-125154795D01*
X97645555Y-125291184D01*
X97638800Y-125353366D01*
X97638800Y-126977641D01*
X97618798Y-127045762D01*
X97565142Y-127092255D01*
X97494868Y-127102359D01*
X97430288Y-127072865D01*
X97391904Y-127013139D01*
X97387188Y-126987527D01*
X97382264Y-126924963D01*
X97379535Y-126890289D01*
X97324105Y-126659406D01*
X97233240Y-126440037D01*
X97230654Y-126435817D01*
X97111759Y-126241798D01*
X97111755Y-126241792D01*
X97109176Y-126237584D01*
X96954969Y-126057031D01*
X96951213Y-126053823D01*
X96951208Y-126053818D01*
X96907293Y-126016311D01*
X96868483Y-125956861D01*
X96867977Y-125885866D01*
X96907293Y-125824689D01*
X96951208Y-125787182D01*
X96951213Y-125787177D01*
X96954969Y-125783969D01*
X97109176Y-125603416D01*
X97111755Y-125599208D01*
X97111759Y-125599202D01*
X97230654Y-125405183D01*
X97233240Y-125400963D01*
X97252956Y-125353366D01*
X97322211Y-125186167D01*
X97322212Y-125186165D01*
X97324105Y-125181594D01*
X97343360Y-125101391D01*
X97378380Y-124955524D01*
X97378381Y-124955518D01*
X97379535Y-124950711D01*
X97398165Y-124714000D01*
X97379535Y-124477289D01*
X97358825Y-124391023D01*
X97334003Y-124287634D01*
X97324105Y-124246406D01*
X97262267Y-124097115D01*
X97235135Y-124031611D01*
X97235133Y-124031607D01*
X97233240Y-124027037D01*
X97188844Y-123954589D01*
X97111759Y-123828798D01*
X97111755Y-123828792D01*
X97109176Y-123824584D01*
X96954969Y-123644031D01*
X96949974Y-123639765D01*
X96798085Y-123510039D01*
X96759276Y-123450588D01*
X96758770Y-123379594D01*
X96796726Y-123319595D01*
X96847304Y-123292522D01*
X96871141Y-123286134D01*
X96883933Y-123282707D01*
X96883935Y-123282706D01*
X96889243Y-123281284D01*
X96898883Y-123276789D01*
X97091762Y-123186849D01*
X97091767Y-123186846D01*
X97096749Y-123184523D01*
X97238611Y-123085190D01*
X97279789Y-123056357D01*
X97279792Y-123056355D01*
X97284300Y-123053198D01*
X97446198Y-122891300D01*
X97467380Y-122861050D01*
X97541615Y-122755031D01*
X97577523Y-122703749D01*
X97579846Y-122698767D01*
X97579849Y-122698762D01*
X97671961Y-122501225D01*
X97671961Y-122501224D01*
X97674284Y-122496243D01*
X97698652Y-122405303D01*
X97732119Y-122280402D01*
X97732119Y-122280400D01*
X97733543Y-122275087D01*
X97753498Y-122047000D01*
X97733543Y-121818913D01*
X97715773Y-121752594D01*
X97675707Y-121603067D01*
X97675706Y-121603065D01*
X97674284Y-121597757D01*
X97641068Y-121526524D01*
X97579849Y-121395238D01*
X97579846Y-121395233D01*
X97577523Y-121390251D01*
X97446198Y-121202700D01*
X97284300Y-121040802D01*
X97279792Y-121037645D01*
X97279789Y-121037643D01*
X97193804Y-120977436D01*
X97096749Y-120909477D01*
X97091767Y-120907154D01*
X97091762Y-120907151D01*
X96894225Y-120815039D01*
X96894224Y-120815039D01*
X96889243Y-120812716D01*
X96883935Y-120811294D01*
X96883933Y-120811293D01*
X96673402Y-120754881D01*
X96673400Y-120754881D01*
X96668087Y-120753457D01*
X96440000Y-120733502D01*
X96327678Y-120743329D01*
X96258073Y-120729340D01*
X96207080Y-120679940D01*
X96190890Y-120610815D01*
X96214642Y-120543909D01*
X96234865Y-120521997D01*
X96315858Y-120452822D01*
X96322822Y-120445858D01*
X96470557Y-120272883D01*
X96476357Y-120264899D01*
X96595205Y-120070958D01*
X96599687Y-120062163D01*
X96619223Y-120015000D01*
X99016502Y-120015000D01*
X99036457Y-120243087D01*
X99037881Y-120248400D01*
X99037881Y-120248402D01*
X99076312Y-120391825D01*
X99095716Y-120464243D01*
X99098039Y-120469224D01*
X99098039Y-120469225D01*
X99190151Y-120666762D01*
X99190154Y-120666767D01*
X99192477Y-120671749D01*
X99242598Y-120743329D01*
X99318520Y-120851756D01*
X99323802Y-120859300D01*
X99485700Y-121021198D01*
X99490208Y-121024355D01*
X99490211Y-121024357D01*
X99522716Y-121047117D01*
X99673251Y-121152523D01*
X99678233Y-121154846D01*
X99678238Y-121154849D01*
X99875775Y-121246961D01*
X99880757Y-121249284D01*
X99886065Y-121250706D01*
X99886067Y-121250707D01*
X100096598Y-121307119D01*
X100096600Y-121307119D01*
X100101913Y-121308543D01*
X100330000Y-121328498D01*
X100558087Y-121308543D01*
X100563400Y-121307119D01*
X100563402Y-121307119D01*
X100773933Y-121250707D01*
X100773935Y-121250706D01*
X100779243Y-121249284D01*
X100784225Y-121246961D01*
X100981762Y-121154849D01*
X100981767Y-121154846D01*
X100986749Y-121152523D01*
X101137284Y-121047117D01*
X101169789Y-121024357D01*
X101169792Y-121024355D01*
X101174300Y-121021198D01*
X101336198Y-120859300D01*
X101341481Y-120851756D01*
X101417402Y-120743329D01*
X101467523Y-120671749D01*
X101469846Y-120666767D01*
X101469849Y-120666762D01*
X101561961Y-120469225D01*
X101561961Y-120469224D01*
X101564284Y-120464243D01*
X101583689Y-120391825D01*
X101622119Y-120248402D01*
X101622119Y-120248400D01*
X101623543Y-120243087D01*
X101643498Y-120015000D01*
X101623543Y-119786913D01*
X101622119Y-119781598D01*
X101565707Y-119571067D01*
X101565706Y-119571065D01*
X101564284Y-119565757D01*
X101503828Y-119436108D01*
X101469849Y-119363238D01*
X101469846Y-119363233D01*
X101467523Y-119358251D01*
X101336198Y-119170700D01*
X101174300Y-119008802D01*
X101169792Y-119005645D01*
X101169789Y-119005643D01*
X101043505Y-118917218D01*
X100986749Y-118877477D01*
X100981767Y-118875154D01*
X100981762Y-118875151D01*
X100784225Y-118783039D01*
X100784224Y-118783039D01*
X100779243Y-118780716D01*
X100773935Y-118779294D01*
X100773933Y-118779293D01*
X100563402Y-118722881D01*
X100563400Y-118722881D01*
X100558087Y-118721457D01*
X100330000Y-118701502D01*
X100101913Y-118721457D01*
X100096600Y-118722881D01*
X100096598Y-118722881D01*
X99886067Y-118779293D01*
X99886065Y-118779294D01*
X99880757Y-118780716D01*
X99875776Y-118783039D01*
X99875775Y-118783039D01*
X99678238Y-118875151D01*
X99678233Y-118875154D01*
X99673251Y-118877477D01*
X99616495Y-118917218D01*
X99490211Y-119005643D01*
X99490208Y-119005645D01*
X99485700Y-119008802D01*
X99323802Y-119170700D01*
X99192477Y-119358251D01*
X99190154Y-119363233D01*
X99190151Y-119363238D01*
X99156172Y-119436108D01*
X99095716Y-119565757D01*
X99094294Y-119571065D01*
X99094293Y-119571067D01*
X99037881Y-119781598D01*
X99036457Y-119786913D01*
X99016502Y-120015000D01*
X96619223Y-120015000D01*
X96686736Y-119852008D01*
X96689782Y-119842634D01*
X96735642Y-119651615D01*
X96734937Y-119637531D01*
X96726056Y-119634000D01*
X95522115Y-119634000D01*
X95506876Y-119638475D01*
X95505671Y-119639865D01*
X95504000Y-119647548D01*
X95504000Y-120851756D01*
X95508475Y-120866995D01*
X95519374Y-120876439D01*
X95553554Y-120892049D01*
X95591937Y-120951775D01*
X95591936Y-121022772D01*
X95560135Y-121076367D01*
X95433802Y-121202700D01*
X95302477Y-121390251D01*
X95300154Y-121395233D01*
X95300151Y-121395238D01*
X95238932Y-121526524D01*
X95205716Y-121597757D01*
X95204294Y-121603065D01*
X95204293Y-121603067D01*
X95164227Y-121752594D01*
X95146457Y-121818913D01*
X95126502Y-122047000D01*
X95146457Y-122275087D01*
X95147881Y-122280400D01*
X95147881Y-122280402D01*
X95181349Y-122405303D01*
X95205716Y-122496243D01*
X95208039Y-122501224D01*
X95208039Y-122501225D01*
X95300151Y-122698762D01*
X95300154Y-122698767D01*
X95302477Y-122703749D01*
X95338385Y-122755031D01*
X95412621Y-122861050D01*
X95433802Y-122891300D01*
X95580868Y-123038366D01*
X95614894Y-123100678D01*
X95609829Y-123171493D01*
X95567282Y-123228329D01*
X95521187Y-123249979D01*
X95417406Y-123274895D01*
X95412835Y-123276788D01*
X95412833Y-123276789D01*
X95202611Y-123363865D01*
X95202607Y-123363867D01*
X95198037Y-123365760D01*
X95193817Y-123368346D01*
X94999798Y-123487241D01*
X94999792Y-123487245D01*
X94995584Y-123489824D01*
X94815031Y-123644031D01*
X94660824Y-123824584D01*
X94658245Y-123828792D01*
X94658241Y-123828798D01*
X94581156Y-123954589D01*
X94536760Y-124027037D01*
X94534867Y-124031607D01*
X94534865Y-124031611D01*
X94507733Y-124097115D01*
X94445895Y-124246406D01*
X94435997Y-124287634D01*
X94411176Y-124391023D01*
X94390465Y-124477289D01*
X94371835Y-124714000D01*
X94390465Y-124950711D01*
X94391619Y-124955518D01*
X94391620Y-124955524D01*
X94426640Y-125101391D01*
X94445895Y-125181594D01*
X94447788Y-125186165D01*
X94447789Y-125186167D01*
X94517045Y-125353366D01*
X94536760Y-125400963D01*
X94539346Y-125405183D01*
X94658241Y-125599202D01*
X94658245Y-125599208D01*
X94660824Y-125603416D01*
X94815031Y-125783969D01*
X94818787Y-125787177D01*
X94818792Y-125787182D01*
X94862707Y-125824689D01*
X94901517Y-125884139D01*
X94902023Y-125955134D01*
X94862707Y-126016311D01*
X94818792Y-126053818D01*
X94818787Y-126053823D01*
X94815031Y-126057031D01*
X94660824Y-126237584D01*
X94658245Y-126241792D01*
X94658241Y-126241798D01*
X94539346Y-126435817D01*
X94536760Y-126440037D01*
X94445895Y-126659406D01*
X94390465Y-126890289D01*
X94371835Y-127127000D01*
X94390465Y-127363711D01*
X94391619Y-127368518D01*
X94391620Y-127368524D01*
X94414104Y-127462176D01*
X94445895Y-127594594D01*
X94447788Y-127599165D01*
X94447789Y-127599167D01*
X94510588Y-127750777D01*
X94536760Y-127813963D01*
X94539346Y-127818183D01*
X94658241Y-128012202D01*
X94658245Y-128012208D01*
X94660824Y-128016416D01*
X94815031Y-128196969D01*
X94995584Y-128351176D01*
X94999792Y-128353755D01*
X94999798Y-128353759D01*
X95148359Y-128444797D01*
X95198037Y-128475240D01*
X95202607Y-128477133D01*
X95202611Y-128477135D01*
X95412833Y-128564211D01*
X95417406Y-128566105D01*
X95497609Y-128585360D01*
X95643476Y-128620380D01*
X95643482Y-128620381D01*
X95648289Y-128621535D01*
X95885000Y-128640165D01*
X96121711Y-128621535D01*
X96126518Y-128620381D01*
X96126524Y-128620380D01*
X96272391Y-128585360D01*
X96352594Y-128566105D01*
X96357167Y-128564211D01*
X96567389Y-128477135D01*
X96567393Y-128477133D01*
X96571963Y-128475240D01*
X96621641Y-128444797D01*
X96770202Y-128353759D01*
X96770208Y-128353755D01*
X96774416Y-128351176D01*
X96954969Y-128196969D01*
X97109176Y-128016416D01*
X97111755Y-128012208D01*
X97111759Y-128012202D01*
X97230654Y-127818183D01*
X97233240Y-127813963D01*
X97259413Y-127750777D01*
X97322211Y-127599167D01*
X97322212Y-127599165D01*
X97324105Y-127594594D01*
X97355896Y-127462176D01*
X97378380Y-127368524D01*
X97378381Y-127368518D01*
X97379535Y-127363711D01*
X97388096Y-127254931D01*
X97413381Y-127188591D01*
X97470519Y-127146451D01*
X97541370Y-127141892D01*
X97603437Y-127176361D01*
X97637017Y-127238914D01*
X97638971Y-127251210D01*
X97640856Y-127268559D01*
X97645555Y-127311816D01*
X97696685Y-127448205D01*
X97784039Y-127564761D01*
X97900595Y-127652115D01*
X98036984Y-127703245D01*
X98099166Y-127710000D01*
X99995434Y-127710000D01*
X100057616Y-127703245D01*
X100194005Y-127652115D01*
X100310561Y-127564761D01*
X100397915Y-127448205D01*
X100422480Y-127382678D01*
X100465122Y-127325914D01*
X100531683Y-127301214D01*
X100601032Y-127316421D01*
X100620947Y-127329964D01*
X100686024Y-127383992D01*
X100776649Y-127459230D01*
X100976622Y-127576084D01*
X100981447Y-127577926D01*
X100981448Y-127577927D01*
X101037070Y-127599167D01*
X101192994Y-127658709D01*
X101198060Y-127659740D01*
X101198061Y-127659740D01*
X101251146Y-127670540D01*
X101419956Y-127704885D01*
X101549389Y-127709631D01*
X101646249Y-127713183D01*
X101646253Y-127713183D01*
X101651413Y-127713372D01*
X101656533Y-127712716D01*
X101656535Y-127712716D01*
X101730466Y-127703245D01*
X101881147Y-127683942D01*
X101886095Y-127682457D01*
X101886102Y-127682456D01*
X102098047Y-127618869D01*
X102102990Y-127617386D01*
X102107624Y-127615116D01*
X102306349Y-127517762D01*
X102306352Y-127517760D01*
X102310984Y-127515491D01*
X102499543Y-127380994D01*
X102663603Y-127217505D01*
X102720233Y-127138696D01*
X102776227Y-127095049D01*
X102846930Y-127088603D01*
X102909895Y-127121406D01*
X102918366Y-127130393D01*
X103066818Y-127304208D01*
X103066823Y-127304213D01*
X103070031Y-127307969D01*
X103250584Y-127462176D01*
X103254792Y-127464755D01*
X103254798Y-127464759D01*
X103432210Y-127573477D01*
X103453037Y-127586240D01*
X103457607Y-127588133D01*
X103457611Y-127588135D01*
X103667833Y-127675211D01*
X103672406Y-127677105D01*
X103720349Y-127688615D01*
X103898476Y-127731380D01*
X103898482Y-127731381D01*
X103903289Y-127732535D01*
X104140000Y-127751165D01*
X104376711Y-127732535D01*
X104381518Y-127731381D01*
X104381524Y-127731380D01*
X104559651Y-127688615D01*
X104607594Y-127677105D01*
X104612167Y-127675211D01*
X104822389Y-127588135D01*
X104822393Y-127588133D01*
X104826963Y-127586240D01*
X104847790Y-127573477D01*
X105025202Y-127464759D01*
X105025208Y-127464755D01*
X105029416Y-127462176D01*
X105209969Y-127307969D01*
X105272688Y-127234535D01*
X105332139Y-127195726D01*
X105403134Y-127195220D01*
X105463132Y-127233176D01*
X105493085Y-127297545D01*
X105494499Y-127316366D01*
X105494499Y-128376676D01*
X105474497Y-128444797D01*
X105457594Y-128465771D01*
X104605347Y-129318018D01*
X104543035Y-129352044D01*
X104494156Y-129352970D01*
X104401990Y-129336553D01*
X104266463Y-129312412D01*
X104172925Y-129311269D01*
X104029318Y-129309514D01*
X104029316Y-129309514D01*
X104024148Y-129309451D01*
X103784603Y-129346107D01*
X103554261Y-129421394D01*
X103339309Y-129533291D01*
X103335176Y-129536394D01*
X103335173Y-129536396D01*
X103166175Y-129663283D01*
X103145518Y-129678793D01*
X102978095Y-129853992D01*
X102962534Y-129876804D01*
X102907624Y-129921805D01*
X102837099Y-129929976D01*
X102773352Y-129898722D01*
X102760287Y-129884493D01*
X102758899Y-129882347D01*
X102753855Y-129876803D01*
X102599281Y-129706929D01*
X102595806Y-129703110D01*
X102405628Y-129552917D01*
X102247748Y-129465762D01*
X102198005Y-129438302D01*
X102198002Y-129438301D01*
X102193474Y-129435801D01*
X102057962Y-129387814D01*
X101969913Y-129356634D01*
X101969910Y-129356633D01*
X101965041Y-129354909D01*
X101959952Y-129354002D01*
X101959950Y-129354002D01*
X101857898Y-129335824D01*
X101726463Y-129312412D01*
X101632925Y-129311269D01*
X101489318Y-129309514D01*
X101489316Y-129309514D01*
X101484148Y-129309451D01*
X101244603Y-129346107D01*
X101014261Y-129421394D01*
X100799309Y-129533291D01*
X100795176Y-129536394D01*
X100795173Y-129536396D01*
X100626175Y-129663283D01*
X100605518Y-129678793D01*
X100438095Y-129853992D01*
X100435184Y-129858260D01*
X100435178Y-129858267D01*
X100422235Y-129877240D01*
X100367323Y-129922242D01*
X100296798Y-129930412D01*
X100233051Y-129899156D01*
X100218321Y-129883115D01*
X100215018Y-129878827D01*
X100058941Y-129707300D01*
X100051408Y-129700274D01*
X99869404Y-129556536D01*
X99860832Y-129550840D01*
X99657792Y-129438756D01*
X99648395Y-129434533D01*
X99429780Y-129357118D01*
X99419830Y-129354489D01*
X99319136Y-129336553D01*
X99305840Y-129338012D01*
X99301300Y-129352568D01*
X99301300Y-130912600D01*
X99281298Y-130980721D01*
X99227642Y-131027214D01*
X99175300Y-131038600D01*
X98919300Y-131038600D01*
X98851179Y-131018598D01*
X98804686Y-130964942D01*
X98793300Y-130912600D01*
X98793300Y-129351155D01*
X98789382Y-129337811D01*
X98775106Y-129335824D01*
X98709832Y-129345813D01*
X98699804Y-129348202D01*
X98479373Y-129420250D01*
X98469864Y-129424247D01*
X98264165Y-129531327D01*
X98255440Y-129536821D01*
X98120181Y-129638377D01*
X98053696Y-129663283D01*
X97984301Y-129648291D01*
X97934027Y-129598160D01*
X97926546Y-129581847D01*
X97926267Y-129581103D01*
X97923115Y-129572695D01*
X97835761Y-129456139D01*
X97719205Y-129368785D01*
X97582816Y-129317655D01*
X97520634Y-129310900D01*
X95493966Y-129310900D01*
X95431784Y-129317655D01*
X95295395Y-129368785D01*
X95178839Y-129456139D01*
X95091485Y-129572695D01*
X95040355Y-129709084D01*
X95033600Y-129771266D01*
X95033600Y-131797934D01*
X95040355Y-131860116D01*
X95091485Y-131996505D01*
X95096872Y-132003692D01*
X95096872Y-132003693D01*
X95098176Y-132005433D01*
X95098932Y-132007455D01*
X95101179Y-132011560D01*
X95100587Y-132011884D01*
X95123026Y-132071938D01*
X95107975Y-132141321D01*
X95057802Y-132191553D01*
X94997352Y-132207000D01*
X88645000Y-132207000D01*
X88576879Y-132186998D01*
X88530386Y-132133342D01*
X88519000Y-132081000D01*
X88519000Y-119969480D01*
X88539002Y-119901359D01*
X88592658Y-119854866D01*
X88662932Y-119844762D01*
X88727512Y-119874256D01*
X88761409Y-119921262D01*
X88819772Y-120062163D01*
X88821760Y-120066963D01*
X88824346Y-120071183D01*
X88943241Y-120265202D01*
X88943245Y-120265208D01*
X88945824Y-120269416D01*
X89100031Y-120449969D01*
X89280584Y-120604176D01*
X89284792Y-120606755D01*
X89284798Y-120606759D01*
X89404219Y-120679940D01*
X89483037Y-120728240D01*
X89487607Y-120730133D01*
X89487611Y-120730135D01*
X89697833Y-120817211D01*
X89702406Y-120819105D01*
X89782609Y-120838360D01*
X89928476Y-120873380D01*
X89928482Y-120873381D01*
X89933289Y-120874535D01*
X90170000Y-120893165D01*
X90406711Y-120874535D01*
X90411518Y-120873381D01*
X90411524Y-120873380D01*
X90439784Y-120866595D01*
X90510692Y-120870142D01*
X90568426Y-120911462D01*
X90594656Y-120977436D01*
X90581053Y-121047117D01*
X90558293Y-121078209D01*
X90433802Y-121202700D01*
X90302477Y-121390251D01*
X90300154Y-121395233D01*
X90300151Y-121395238D01*
X90238932Y-121526524D01*
X90205716Y-121597757D01*
X90204294Y-121603065D01*
X90204293Y-121603067D01*
X90164227Y-121752594D01*
X90146457Y-121818913D01*
X90126502Y-122047000D01*
X90146457Y-122275087D01*
X90147881Y-122280400D01*
X90147881Y-122280402D01*
X90181349Y-122405303D01*
X90205716Y-122496243D01*
X90208039Y-122501224D01*
X90208039Y-122501225D01*
X90300151Y-122698762D01*
X90300154Y-122698767D01*
X90302477Y-122703749D01*
X90338385Y-122755031D01*
X90412621Y-122861050D01*
X90433802Y-122891300D01*
X90565380Y-123022878D01*
X90599406Y-123085190D01*
X90594341Y-123156005D01*
X90551794Y-123212841D01*
X90505701Y-123234491D01*
X90337406Y-123274895D01*
X90332835Y-123276788D01*
X90332833Y-123276789D01*
X90122611Y-123363865D01*
X90122607Y-123363867D01*
X90118037Y-123365760D01*
X90113817Y-123368346D01*
X89919798Y-123487241D01*
X89919792Y-123487245D01*
X89915584Y-123489824D01*
X89735031Y-123644031D01*
X89580824Y-123824584D01*
X89578245Y-123828792D01*
X89578241Y-123828798D01*
X89501156Y-123954589D01*
X89456760Y-124027037D01*
X89454867Y-124031607D01*
X89454865Y-124031611D01*
X89427733Y-124097115D01*
X89365895Y-124246406D01*
X89355997Y-124287634D01*
X89331176Y-124391023D01*
X89310465Y-124477289D01*
X89291835Y-124714000D01*
X89310465Y-124950711D01*
X89311619Y-124955518D01*
X89311620Y-124955524D01*
X89346640Y-125101391D01*
X89365895Y-125181594D01*
X89367788Y-125186165D01*
X89367789Y-125186167D01*
X89437045Y-125353366D01*
X89456760Y-125400963D01*
X89459346Y-125405183D01*
X89578241Y-125599202D01*
X89578245Y-125599208D01*
X89580824Y-125603416D01*
X89735031Y-125783969D01*
X89738787Y-125787177D01*
X89738792Y-125787182D01*
X89782707Y-125824689D01*
X89821517Y-125884139D01*
X89822023Y-125955134D01*
X89782707Y-126016311D01*
X89738792Y-126053818D01*
X89738787Y-126053823D01*
X89735031Y-126057031D01*
X89580824Y-126237584D01*
X89578245Y-126241792D01*
X89578241Y-126241798D01*
X89459346Y-126435817D01*
X89456760Y-126440037D01*
X89365895Y-126659406D01*
X89310465Y-126890289D01*
X89291835Y-127127000D01*
X89310465Y-127363711D01*
X89311619Y-127368518D01*
X89311620Y-127368524D01*
X89334104Y-127462176D01*
X89365895Y-127594594D01*
X89367788Y-127599165D01*
X89367789Y-127599167D01*
X89430588Y-127750777D01*
X89456760Y-127813963D01*
X89459346Y-127818183D01*
X89578241Y-128012202D01*
X89578245Y-128012208D01*
X89580824Y-128016416D01*
X89735031Y-128196969D01*
X89915584Y-128351176D01*
X89919792Y-128353755D01*
X89919798Y-128353759D01*
X90068359Y-128444797D01*
X90118037Y-128475240D01*
X90122607Y-128477133D01*
X90122611Y-128477135D01*
X90332833Y-128564211D01*
X90337406Y-128566105D01*
X90417609Y-128585360D01*
X90563476Y-128620380D01*
X90563482Y-128620381D01*
X90568289Y-128621535D01*
X90805000Y-128640165D01*
X91041711Y-128621535D01*
X91046518Y-128620381D01*
X91046524Y-128620380D01*
X91192391Y-128585360D01*
X91272594Y-128566105D01*
X91277167Y-128564211D01*
X91487389Y-128477135D01*
X91487393Y-128477133D01*
X91491963Y-128475240D01*
X91541641Y-128444797D01*
X91690202Y-128353759D01*
X91690208Y-128353755D01*
X91694416Y-128351176D01*
X91874969Y-128196969D01*
X92029176Y-128016416D01*
X92031755Y-128012208D01*
X92031759Y-128012202D01*
X92150654Y-127818183D01*
X92153240Y-127813963D01*
X92179413Y-127750777D01*
X92242211Y-127599167D01*
X92242212Y-127599165D01*
X92244105Y-127594594D01*
X92275896Y-127462176D01*
X92298380Y-127368524D01*
X92298381Y-127368518D01*
X92299535Y-127363711D01*
X92318165Y-127127000D01*
X92299535Y-126890289D01*
X92244105Y-126659406D01*
X92153240Y-126440037D01*
X92150654Y-126435817D01*
X92031759Y-126241798D01*
X92031755Y-126241792D01*
X92029176Y-126237584D01*
X91874969Y-126057031D01*
X91871213Y-126053823D01*
X91871208Y-126053818D01*
X91827293Y-126016311D01*
X91788483Y-125956861D01*
X91787977Y-125885866D01*
X91827293Y-125824689D01*
X91871208Y-125787182D01*
X91871213Y-125787177D01*
X91874969Y-125783969D01*
X92029176Y-125603416D01*
X92031755Y-125599208D01*
X92031759Y-125599202D01*
X92150654Y-125405183D01*
X92153240Y-125400963D01*
X92172956Y-125353366D01*
X92242211Y-125186167D01*
X92242212Y-125186165D01*
X92244105Y-125181594D01*
X92263360Y-125101391D01*
X92298380Y-124955524D01*
X92298381Y-124955518D01*
X92299535Y-124950711D01*
X92318165Y-124714000D01*
X92299535Y-124477289D01*
X92278825Y-124391023D01*
X92254003Y-124287634D01*
X92244105Y-124246406D01*
X92182267Y-124097115D01*
X92155135Y-124031611D01*
X92155133Y-124031607D01*
X92153240Y-124027037D01*
X92108844Y-123954589D01*
X92031759Y-123828798D01*
X92031755Y-123828792D01*
X92029176Y-123824584D01*
X91874969Y-123644031D01*
X91869974Y-123639765D01*
X91737190Y-123526356D01*
X91698381Y-123466905D01*
X91697875Y-123395910D01*
X91735831Y-123335912D01*
X91786409Y-123308838D01*
X91847306Y-123292521D01*
X91883933Y-123282707D01*
X91883935Y-123282706D01*
X91889243Y-123281284D01*
X91898883Y-123276789D01*
X92091762Y-123186849D01*
X92091767Y-123186846D01*
X92096749Y-123184523D01*
X92238611Y-123085190D01*
X92279789Y-123056357D01*
X92279792Y-123056355D01*
X92284300Y-123053198D01*
X92446198Y-122891300D01*
X92467380Y-122861050D01*
X92541615Y-122755031D01*
X92577523Y-122703749D01*
X92579846Y-122698767D01*
X92579849Y-122698762D01*
X92671961Y-122501225D01*
X92671961Y-122501224D01*
X92674284Y-122496243D01*
X92698652Y-122405303D01*
X92732119Y-122280402D01*
X92732119Y-122280400D01*
X92733543Y-122275087D01*
X92753498Y-122047000D01*
X92733543Y-121818913D01*
X92715773Y-121752594D01*
X92675707Y-121603067D01*
X92675706Y-121603065D01*
X92674284Y-121597757D01*
X92641068Y-121526524D01*
X92579849Y-121395238D01*
X92579846Y-121395233D01*
X92577523Y-121390251D01*
X92446198Y-121202700D01*
X92284300Y-121040802D01*
X92279792Y-121037645D01*
X92279789Y-121037643D01*
X92193804Y-120977436D01*
X92096749Y-120909477D01*
X92091767Y-120907154D01*
X92091762Y-120907151D01*
X91894225Y-120815039D01*
X91894224Y-120815039D01*
X91889243Y-120812716D01*
X91883935Y-120811294D01*
X91883933Y-120811293D01*
X91673402Y-120754881D01*
X91673400Y-120754881D01*
X91668087Y-120753457D01*
X91440000Y-120733502D01*
X91239405Y-120751052D01*
X91169801Y-120737063D01*
X91118809Y-120687664D01*
X91102618Y-120618538D01*
X91126370Y-120551632D01*
X91146593Y-120529720D01*
X91236213Y-120453177D01*
X91239969Y-120449969D01*
X91394176Y-120269416D01*
X91396755Y-120265208D01*
X91396759Y-120265202D01*
X91515654Y-120071183D01*
X91518240Y-120066963D01*
X91520229Y-120062163D01*
X91607211Y-119852167D01*
X91607212Y-119852165D01*
X91609105Y-119847594D01*
X91632094Y-119751837D01*
X91657160Y-119647431D01*
X93763353Y-119647431D01*
X93810218Y-119842634D01*
X93813264Y-119852008D01*
X93900313Y-120062163D01*
X93904795Y-120070958D01*
X94023643Y-120264899D01*
X94029443Y-120272883D01*
X94177178Y-120445858D01*
X94184142Y-120452822D01*
X94357117Y-120600557D01*
X94365101Y-120606357D01*
X94559042Y-120725205D01*
X94567837Y-120729687D01*
X94777992Y-120816736D01*
X94787366Y-120819782D01*
X94978385Y-120865642D01*
X94992469Y-120864937D01*
X94996000Y-120856056D01*
X94996000Y-119652115D01*
X94991525Y-119636876D01*
X94990135Y-119635671D01*
X94982452Y-119634000D01*
X93778244Y-119634000D01*
X93764713Y-119637973D01*
X93763353Y-119647431D01*
X91657160Y-119647431D01*
X91663380Y-119621524D01*
X91663381Y-119621518D01*
X91664535Y-119616711D01*
X91683165Y-119380000D01*
X91664535Y-119143289D01*
X91660385Y-119126000D01*
X91610260Y-118917218D01*
X91609105Y-118912406D01*
X91534861Y-118733164D01*
X91520135Y-118697611D01*
X91520133Y-118697607D01*
X91518240Y-118693037D01*
X91508995Y-118677951D01*
X91396759Y-118494798D01*
X91396755Y-118494792D01*
X91394176Y-118490584D01*
X91239969Y-118310031D01*
X91236213Y-118306823D01*
X91236208Y-118306818D01*
X91117944Y-118205811D01*
X91079134Y-118146361D01*
X91078628Y-118075366D01*
X91117944Y-118014189D01*
X91236208Y-117913182D01*
X91236213Y-117913177D01*
X91239969Y-117909969D01*
X91394176Y-117729416D01*
X91396755Y-117725208D01*
X91396759Y-117725202D01*
X91515654Y-117531183D01*
X91518240Y-117526963D01*
X91528992Y-117501007D01*
X91607211Y-117312167D01*
X91607212Y-117312165D01*
X91609105Y-117307594D01*
X91632094Y-117211837D01*
X91663380Y-117081524D01*
X91663381Y-117081518D01*
X91664535Y-117076711D01*
X91683165Y-116840000D01*
X91664535Y-116603289D01*
X91660385Y-116586000D01*
X91614785Y-116396067D01*
X91609105Y-116372406D01*
X91558619Y-116250520D01*
X91520135Y-116157611D01*
X91520133Y-116157607D01*
X91518240Y-116153037D01*
X91515654Y-116148817D01*
X91396759Y-115954798D01*
X91396755Y-115954792D01*
X91394176Y-115950584D01*
X91239969Y-115770031D01*
X91236213Y-115766823D01*
X91236208Y-115766818D01*
X91117944Y-115665811D01*
X91079134Y-115606361D01*
X91078628Y-115535366D01*
X91117944Y-115474189D01*
X91236208Y-115373182D01*
X91236213Y-115373177D01*
X91239969Y-115369969D01*
X91394176Y-115189416D01*
X91396755Y-115185208D01*
X91396759Y-115185202D01*
X91515654Y-114991183D01*
X91518240Y-114986963D01*
X91554110Y-114900366D01*
X91607211Y-114772167D01*
X91607212Y-114772165D01*
X91609105Y-114767594D01*
X91632094Y-114671837D01*
X91663380Y-114541524D01*
X91663381Y-114541518D01*
X91664535Y-114536711D01*
X91683165Y-114300000D01*
X91664535Y-114063289D01*
X91609105Y-113832406D01*
X91601489Y-113814019D01*
X91520135Y-113617611D01*
X91520133Y-113617607D01*
X91518240Y-113613037D01*
X91515654Y-113608817D01*
X91396759Y-113414798D01*
X91396755Y-113414792D01*
X91394176Y-113410584D01*
X91239969Y-113230031D01*
X91236213Y-113226823D01*
X91236208Y-113226818D01*
X91117944Y-113125811D01*
X91079134Y-113066361D01*
X91078628Y-112995366D01*
X91117944Y-112934189D01*
X91236208Y-112833182D01*
X91236213Y-112833177D01*
X91239969Y-112829969D01*
X91394176Y-112649416D01*
X91396755Y-112645208D01*
X91396759Y-112645202D01*
X91515654Y-112451183D01*
X91518240Y-112446963D01*
X91523078Y-112435285D01*
X91607211Y-112232167D01*
X91607212Y-112232165D01*
X91609105Y-112227594D01*
X91659447Y-112017905D01*
X91663381Y-112001519D01*
X91663382Y-112001515D01*
X91664535Y-111996711D01*
X91664923Y-111991780D01*
X91665660Y-111987126D01*
X91696071Y-111922972D01*
X91756338Y-111885444D01*
X91827328Y-111886456D01*
X91879204Y-111917739D01*
X92195503Y-112234038D01*
X92201356Y-112240303D01*
X92238842Y-112283274D01*
X92261487Y-112299189D01*
X92290389Y-112319502D01*
X92295684Y-112323435D01*
X92345239Y-112362291D01*
X92352163Y-112365417D01*
X92355212Y-112367264D01*
X92367878Y-112374489D01*
X92371043Y-112376186D01*
X92377261Y-112380556D01*
X92435996Y-112403456D01*
X92442009Y-112405983D01*
X92499435Y-112431912D01*
X92506903Y-112433296D01*
X92510311Y-112434364D01*
X92524350Y-112438364D01*
X92527814Y-112439253D01*
X92534889Y-112442012D01*
X92542418Y-112443003D01*
X92542421Y-112443004D01*
X92597345Y-112450235D01*
X92603859Y-112451267D01*
X92658317Y-112461360D01*
X92658320Y-112461360D01*
X92665786Y-112462744D01*
X92673366Y-112462307D01*
X92673367Y-112462307D01*
X92727094Y-112459209D01*
X92734347Y-112459000D01*
X93838573Y-112459000D01*
X93906694Y-112479002D01*
X93946005Y-112519165D01*
X94025824Y-112649416D01*
X94180031Y-112829969D01*
X94183787Y-112833177D01*
X94183792Y-112833182D01*
X94302056Y-112934189D01*
X94340866Y-112993639D01*
X94341372Y-113064634D01*
X94302056Y-113125811D01*
X94183792Y-113226818D01*
X94183787Y-113226823D01*
X94180031Y-113230031D01*
X94025824Y-113410584D01*
X94023245Y-113414792D01*
X94023241Y-113414798D01*
X93904346Y-113608817D01*
X93901760Y-113613037D01*
X93899867Y-113617607D01*
X93899865Y-113617611D01*
X93818511Y-113814019D01*
X93810895Y-113832406D01*
X93755465Y-114063289D01*
X93736835Y-114300000D01*
X93755465Y-114536711D01*
X93756619Y-114541518D01*
X93756620Y-114541524D01*
X93787906Y-114671837D01*
X93810895Y-114767594D01*
X93812788Y-114772165D01*
X93812789Y-114772167D01*
X93865891Y-114900366D01*
X93901760Y-114986963D01*
X93904346Y-114991183D01*
X94023241Y-115185202D01*
X94023245Y-115185208D01*
X94025824Y-115189416D01*
X94180031Y-115369969D01*
X94183787Y-115373177D01*
X94183792Y-115373182D01*
X94302056Y-115474189D01*
X94340866Y-115533639D01*
X94341372Y-115604634D01*
X94302056Y-115665811D01*
X94183792Y-115766818D01*
X94183787Y-115766823D01*
X94180031Y-115770031D01*
X94025824Y-115950584D01*
X94023245Y-115954792D01*
X94023241Y-115954798D01*
X93904346Y-116148817D01*
X93901760Y-116153037D01*
X93899867Y-116157607D01*
X93899865Y-116157611D01*
X93861381Y-116250520D01*
X93810895Y-116372406D01*
X93805215Y-116396067D01*
X93759616Y-116586000D01*
X93755465Y-116603289D01*
X93736835Y-116840000D01*
X93755465Y-117076711D01*
X93756619Y-117081518D01*
X93756620Y-117081524D01*
X93787906Y-117211837D01*
X93810895Y-117307594D01*
X93812788Y-117312165D01*
X93812789Y-117312167D01*
X93891009Y-117501007D01*
X93901760Y-117526963D01*
X93904346Y-117531183D01*
X94023241Y-117725202D01*
X94023245Y-117725208D01*
X94025824Y-117729416D01*
X94180031Y-117909969D01*
X94183787Y-117913177D01*
X94302442Y-118014518D01*
X94341251Y-118073968D01*
X94341757Y-118144963D01*
X94302442Y-118206140D01*
X94184142Y-118307178D01*
X94177178Y-118314142D01*
X94029443Y-118487117D01*
X94023643Y-118495101D01*
X93904795Y-118689042D01*
X93900313Y-118697837D01*
X93813264Y-118907992D01*
X93810218Y-118917366D01*
X93764358Y-119108385D01*
X93765063Y-119122469D01*
X93773944Y-119126000D01*
X96721756Y-119126000D01*
X96735287Y-119122027D01*
X96736647Y-119112569D01*
X96689782Y-118917366D01*
X96686736Y-118907992D01*
X96599687Y-118697837D01*
X96595205Y-118689042D01*
X96476357Y-118495101D01*
X96470557Y-118487117D01*
X96322822Y-118314142D01*
X96315858Y-118307178D01*
X96197558Y-118206140D01*
X96158749Y-118146689D01*
X96158243Y-118075695D01*
X96197558Y-118014518D01*
X96316213Y-117913177D01*
X96319969Y-117909969D01*
X96474176Y-117729416D01*
X96476755Y-117725208D01*
X96476759Y-117725202D01*
X96595654Y-117531183D01*
X96598240Y-117526963D01*
X96631606Y-117446411D01*
X96676155Y-117391130D01*
X96743518Y-117368709D01*
X96812309Y-117386267D01*
X96862210Y-117441380D01*
X96885584Y-117491507D01*
X96891069Y-117501007D01*
X97016028Y-117679467D01*
X97023084Y-117687875D01*
X97177125Y-117841916D01*
X97185533Y-117848972D01*
X97363993Y-117973931D01*
X97373489Y-117979414D01*
X97570947Y-118071490D01*
X97581239Y-118075236D01*
X97791688Y-118131625D01*
X97802481Y-118133528D01*
X97965170Y-118147762D01*
X97970635Y-118148000D01*
X98152885Y-118148000D01*
X98168124Y-118143525D01*
X98169329Y-118142135D01*
X98171000Y-118134452D01*
X98171000Y-118129885D01*
X98679000Y-118129885D01*
X98683475Y-118145124D01*
X98684865Y-118146329D01*
X98692548Y-118148000D01*
X98879365Y-118148000D01*
X98884830Y-118147762D01*
X99047519Y-118133528D01*
X99058312Y-118131625D01*
X99268761Y-118075236D01*
X99279053Y-118071490D01*
X99476511Y-117979414D01*
X99486007Y-117973931D01*
X99664467Y-117848972D01*
X99672875Y-117841916D01*
X99826916Y-117687875D01*
X99833972Y-117679467D01*
X99958931Y-117501007D01*
X99964414Y-117491511D01*
X100056490Y-117294053D01*
X100060236Y-117283761D01*
X100106394Y-117111497D01*
X100106058Y-117097401D01*
X100098116Y-117094000D01*
X98697115Y-117094000D01*
X98681876Y-117098475D01*
X98680671Y-117099865D01*
X98679000Y-117107548D01*
X98679000Y-118129885D01*
X98171000Y-118129885D01*
X98171000Y-116712000D01*
X98191002Y-116643879D01*
X98244658Y-116597386D01*
X98297000Y-116586000D01*
X100092967Y-116586000D01*
X100106498Y-116582027D01*
X100107727Y-116573478D01*
X100060236Y-116396239D01*
X100056490Y-116385947D01*
X99964414Y-116188489D01*
X99958931Y-116178993D01*
X99833972Y-116000533D01*
X99826916Y-115992125D01*
X99672875Y-115838084D01*
X99664467Y-115831028D01*
X99486007Y-115706069D01*
X99476511Y-115700586D01*
X99441951Y-115684471D01*
X99388666Y-115637554D01*
X99369205Y-115569277D01*
X99389747Y-115501317D01*
X99441951Y-115456081D01*
X99476762Y-115439849D01*
X99476767Y-115439846D01*
X99481749Y-115437523D01*
X99586611Y-115364098D01*
X99664789Y-115309357D01*
X99664792Y-115309355D01*
X99669300Y-115306198D01*
X99831198Y-115144300D01*
X99835059Y-115138787D01*
X99941367Y-114986963D01*
X99962523Y-114956749D01*
X99964846Y-114951767D01*
X99964849Y-114951762D01*
X100056961Y-114754225D01*
X100056961Y-114754224D01*
X100059284Y-114749243D01*
X100063142Y-114734847D01*
X100117119Y-114533402D01*
X100117119Y-114533400D01*
X100118543Y-114528087D01*
X100138498Y-114300000D01*
X100118543Y-114071913D01*
X100059284Y-113850757D01*
X100050727Y-113832406D01*
X99964849Y-113648238D01*
X99964846Y-113648233D01*
X99962523Y-113643251D01*
X99831198Y-113455700D01*
X99669300Y-113293802D01*
X99664792Y-113290645D01*
X99664789Y-113290643D01*
X99538505Y-113202218D01*
X99481749Y-113162477D01*
X99476767Y-113160154D01*
X99476762Y-113160151D01*
X99442543Y-113144195D01*
X99389258Y-113097278D01*
X99369797Y-113029001D01*
X99390339Y-112961041D01*
X99442543Y-112915805D01*
X99476762Y-112899849D01*
X99476767Y-112899846D01*
X99481749Y-112897523D01*
X99586611Y-112824098D01*
X99664789Y-112769357D01*
X99664792Y-112769355D01*
X99669300Y-112766198D01*
X99831198Y-112604300D01*
X99835059Y-112598787D01*
X99938412Y-112451183D01*
X99962523Y-112416749D01*
X99964846Y-112411767D01*
X99964849Y-112411762D01*
X100056961Y-112214225D01*
X100056961Y-112214224D01*
X100059284Y-112209243D01*
X100063142Y-112194847D01*
X100117119Y-111993402D01*
X100117119Y-111993400D01*
X100118543Y-111988087D01*
X100138498Y-111760000D01*
X100118543Y-111531913D01*
X100059284Y-111310757D01*
X100021972Y-111230740D01*
X99964849Y-111108238D01*
X99964846Y-111108233D01*
X99962523Y-111103251D01*
X99831198Y-110915700D01*
X99669300Y-110753802D01*
X99664789Y-110750643D01*
X99660576Y-110747108D01*
X99661527Y-110745974D01*
X99621529Y-110695929D01*
X99614224Y-110625310D01*
X99646258Y-110561951D01*
X99707462Y-110525970D01*
X99724517Y-110522918D01*
X99735316Y-110521745D01*
X99871705Y-110470615D01*
X99988261Y-110383261D01*
X100075615Y-110266705D01*
X100126745Y-110130316D01*
X100133500Y-110068134D01*
X100133500Y-108371866D01*
X100126745Y-108309684D01*
X100075615Y-108173295D01*
X99988261Y-108056739D01*
X99871705Y-107969385D01*
X99735316Y-107918255D01*
X99673134Y-107911500D01*
X97176866Y-107911500D01*
X97173471Y-107911869D01*
X97173467Y-107911869D01*
X97145712Y-107914884D01*
X97075829Y-107902355D01*
X97023814Y-107854034D01*
X97006180Y-107785262D01*
X97028527Y-107717874D01*
X97043010Y-107700525D01*
X97370557Y-107372979D01*
X97432869Y-107338954D01*
X97479965Y-107338021D01*
X97481913Y-107338543D01*
X97487380Y-107339021D01*
X97487384Y-107339022D01*
X97704525Y-107358019D01*
X97710000Y-107358498D01*
X97938087Y-107338543D01*
X97943400Y-107337119D01*
X97943402Y-107337119D01*
X98153933Y-107280707D01*
X98153935Y-107280706D01*
X98159243Y-107279284D01*
X98250437Y-107236760D01*
X98361762Y-107184849D01*
X98361767Y-107184846D01*
X98366749Y-107182523D01*
X98491202Y-107095380D01*
X98549789Y-107054357D01*
X98549792Y-107054355D01*
X98554300Y-107051198D01*
X98716198Y-106889300D01*
X98731099Y-106868020D01*
X98823412Y-106736183D01*
X98847523Y-106701749D01*
X98864536Y-106665264D01*
X98911454Y-106611979D01*
X98979731Y-106592518D01*
X99047691Y-106613060D01*
X99067826Y-106629419D01*
X103402445Y-110964038D01*
X103408298Y-110970303D01*
X103445784Y-111013274D01*
X103451998Y-111017641D01*
X103497320Y-111049494D01*
X103502616Y-111053427D01*
X103546205Y-111087606D01*
X103546208Y-111087608D01*
X103552182Y-111092292D01*
X103559106Y-111095418D01*
X103562141Y-111097256D01*
X103574840Y-111104500D01*
X103577988Y-111106188D01*
X103584203Y-111110556D01*
X103642892Y-111133438D01*
X103648937Y-111135978D01*
X103706377Y-111161913D01*
X103713850Y-111163298D01*
X103717268Y-111164369D01*
X103731257Y-111168354D01*
X103734749Y-111169251D01*
X103741831Y-111172012D01*
X103749364Y-111173004D01*
X103749365Y-111173004D01*
X103804272Y-111180233D01*
X103810785Y-111181265D01*
X103865260Y-111191361D01*
X103865262Y-111191361D01*
X103872729Y-111192745D01*
X103880309Y-111192308D01*
X103880310Y-111192308D01*
X103934054Y-111189209D01*
X103941307Y-111189000D01*
X104279134Y-111189000D01*
X104347255Y-111209002D01*
X104393748Y-111262658D01*
X104403852Y-111332932D01*
X104400841Y-111347610D01*
X104351457Y-111531913D01*
X104331502Y-111760000D01*
X104351457Y-111988087D01*
X104352881Y-111993400D01*
X104352881Y-111993402D01*
X104406859Y-112194847D01*
X104410716Y-112209243D01*
X104413039Y-112214224D01*
X104413039Y-112214225D01*
X104505151Y-112411762D01*
X104505154Y-112411767D01*
X104507477Y-112416749D01*
X104531588Y-112451183D01*
X104634942Y-112598787D01*
X104638802Y-112604300D01*
X104800700Y-112766198D01*
X104805208Y-112769355D01*
X104805211Y-112769357D01*
X104883389Y-112824098D01*
X104988251Y-112897523D01*
X104993233Y-112899846D01*
X104993238Y-112899849D01*
X105027457Y-112915805D01*
X105080742Y-112962722D01*
X105100203Y-113030999D01*
X105079661Y-113098959D01*
X105027457Y-113144195D01*
X104993238Y-113160151D01*
X104993233Y-113160154D01*
X104988251Y-113162477D01*
X104931495Y-113202218D01*
X104805211Y-113290643D01*
X104805208Y-113290645D01*
X104800700Y-113293802D01*
X104638802Y-113455700D01*
X104507477Y-113643251D01*
X104505154Y-113648233D01*
X104505151Y-113648238D01*
X104419273Y-113832406D01*
X104410716Y-113850757D01*
X104351457Y-114071913D01*
X104331502Y-114300000D01*
X104351457Y-114528087D01*
X104352881Y-114533400D01*
X104352881Y-114533402D01*
X104406859Y-114734847D01*
X104410716Y-114749243D01*
X104413039Y-114754224D01*
X104413039Y-114754225D01*
X104505151Y-114951762D01*
X104505154Y-114951767D01*
X104507477Y-114956749D01*
X104528633Y-114986963D01*
X104634942Y-115138787D01*
X104638802Y-115144300D01*
X104800700Y-115306198D01*
X104805208Y-115309355D01*
X104805211Y-115309357D01*
X104883389Y-115364098D01*
X104988251Y-115437523D01*
X104993233Y-115439846D01*
X104993238Y-115439849D01*
X105027457Y-115455805D01*
X105080742Y-115502722D01*
X105100203Y-115570999D01*
X105079661Y-115638959D01*
X105027457Y-115684195D01*
X104993238Y-115700151D01*
X104993233Y-115700154D01*
X104988251Y-115702477D01*
X104931495Y-115742218D01*
X104805211Y-115830643D01*
X104805208Y-115830645D01*
X104800700Y-115833802D01*
X104638802Y-115995700D01*
X104507477Y-116183251D01*
X104505154Y-116188233D01*
X104505151Y-116188238D01*
X104419273Y-116372406D01*
X104410716Y-116390757D01*
X104409294Y-116396065D01*
X104409293Y-116396067D01*
X104355057Y-116598476D01*
X104351457Y-116611913D01*
X104331502Y-116840000D01*
X104351457Y-117068087D01*
X104352881Y-117073400D01*
X104352881Y-117073402D01*
X104406859Y-117274847D01*
X104410716Y-117289243D01*
X104413039Y-117294224D01*
X104413039Y-117294225D01*
X104505151Y-117491762D01*
X104505154Y-117491767D01*
X104507477Y-117496749D01*
X104528633Y-117526963D01*
X104634942Y-117678787D01*
X104638802Y-117684300D01*
X104717388Y-117762886D01*
X104751414Y-117825198D01*
X104746349Y-117896013D01*
X104717388Y-117941076D01*
X100732944Y-121925520D01*
X100670632Y-121959546D01*
X100623538Y-121960480D01*
X100621587Y-121959957D01*
X100393500Y-121940002D01*
X100165413Y-121959957D01*
X100160100Y-121961381D01*
X100160098Y-121961381D01*
X99949567Y-122017793D01*
X99949565Y-122017794D01*
X99944257Y-122019216D01*
X99939276Y-122021539D01*
X99939275Y-122021539D01*
X99741738Y-122113651D01*
X99741733Y-122113654D01*
X99736751Y-122115977D01*
X99659310Y-122170202D01*
X99553711Y-122244143D01*
X99553708Y-122244145D01*
X99549200Y-122247302D01*
X99387302Y-122409200D01*
X99255977Y-122596751D01*
X99253654Y-122601733D01*
X99253651Y-122601738D01*
X99182170Y-122755031D01*
X99159216Y-122804257D01*
X99157794Y-122809565D01*
X99157793Y-122809567D01*
X99101381Y-123020098D01*
X99099957Y-123025413D01*
X99080002Y-123253500D01*
X99099957Y-123481587D01*
X99101381Y-123486900D01*
X99101381Y-123486902D01*
X99130107Y-123594106D01*
X99159216Y-123702743D01*
X99161539Y-123707724D01*
X99161539Y-123707725D01*
X99253651Y-123905262D01*
X99253654Y-123905267D01*
X99255977Y-123910249D01*
X99325242Y-124009169D01*
X99383543Y-124092431D01*
X99387302Y-124097800D01*
X99549200Y-124259698D01*
X99553708Y-124262855D01*
X99553711Y-124262857D01*
X99589308Y-124287782D01*
X99736751Y-124391023D01*
X99741733Y-124393346D01*
X99741738Y-124393349D01*
X99921750Y-124477289D01*
X99944257Y-124487784D01*
X99949565Y-124489206D01*
X99949567Y-124489207D01*
X100160098Y-124545619D01*
X100160100Y-124545619D01*
X100165413Y-124547043D01*
X100393500Y-124566998D01*
X100621587Y-124547043D01*
X100626900Y-124545619D01*
X100626902Y-124545619D01*
X100837433Y-124489207D01*
X100837435Y-124489206D01*
X100842743Y-124487784D01*
X100865250Y-124477289D01*
X101045262Y-124393349D01*
X101045267Y-124393346D01*
X101050249Y-124391023D01*
X101197692Y-124287782D01*
X101233289Y-124262857D01*
X101233292Y-124262855D01*
X101237800Y-124259698D01*
X101399698Y-124097800D01*
X101403458Y-124092431D01*
X101461758Y-124009169D01*
X101531023Y-123910249D01*
X101533346Y-123905267D01*
X101533349Y-123905262D01*
X101625461Y-123707725D01*
X101625461Y-123707724D01*
X101627784Y-123702743D01*
X101656894Y-123594106D01*
X101685619Y-123486902D01*
X101685619Y-123486900D01*
X101687043Y-123481587D01*
X101706998Y-123253500D01*
X101697316Y-123142837D01*
X101687522Y-123030886D01*
X101687522Y-123030884D01*
X101687043Y-123025413D01*
X101686622Y-123023840D01*
X101694359Y-122954469D01*
X101721480Y-122914055D01*
X103993010Y-120642525D01*
X104055322Y-120608499D01*
X104126137Y-120613564D01*
X104182973Y-120656111D01*
X104190520Y-120667552D01*
X104192477Y-120671749D01*
X104242598Y-120743329D01*
X104318520Y-120851756D01*
X104323802Y-120859300D01*
X104485700Y-121021198D01*
X104490208Y-121024355D01*
X104490211Y-121024357D01*
X104522716Y-121047117D01*
X104673251Y-121152523D01*
X104678233Y-121154846D01*
X104678238Y-121154849D01*
X104875775Y-121246961D01*
X104880757Y-121249284D01*
X104886065Y-121250706D01*
X104886067Y-121250707D01*
X105096598Y-121307119D01*
X105096600Y-121307119D01*
X105101913Y-121308543D01*
X105330000Y-121328498D01*
X105558087Y-121308543D01*
X105563400Y-121307119D01*
X105563402Y-121307119D01*
X105773933Y-121250707D01*
X105773935Y-121250706D01*
X105779243Y-121249284D01*
X105784225Y-121246961D01*
X105981762Y-121154849D01*
X105981767Y-121154846D01*
X105986749Y-121152523D01*
X106137284Y-121047117D01*
X106169789Y-121024357D01*
X106169792Y-121024355D01*
X106174300Y-121021198D01*
X106336198Y-120859300D01*
X106341481Y-120851756D01*
X106417402Y-120743329D01*
X106467523Y-120671749D01*
X106469846Y-120666767D01*
X106469849Y-120666762D01*
X106561961Y-120469225D01*
X106561961Y-120469224D01*
X106564284Y-120464243D01*
X106583689Y-120391825D01*
X106622119Y-120248402D01*
X106622119Y-120248400D01*
X106623543Y-120243087D01*
X106643498Y-120015000D01*
X106623543Y-119786913D01*
X106622119Y-119781598D01*
X106565707Y-119571067D01*
X106565706Y-119571065D01*
X106564284Y-119565757D01*
X106503828Y-119436108D01*
X106469849Y-119363238D01*
X106469846Y-119363233D01*
X106467523Y-119358251D01*
X106336198Y-119170700D01*
X106174300Y-119008802D01*
X106169792Y-119005645D01*
X106169789Y-119005643D01*
X106102780Y-118958723D01*
X106058452Y-118903266D01*
X106051143Y-118832646D01*
X106083174Y-118769286D01*
X106144375Y-118733301D01*
X106175051Y-118729510D01*
X107365891Y-118729510D01*
X107374461Y-118729802D01*
X107423767Y-118733164D01*
X107423771Y-118733164D01*
X107431342Y-118733680D01*
X107438818Y-118732375D01*
X107438822Y-118732375D01*
X107493414Y-118722847D01*
X107499939Y-118721884D01*
X107554908Y-118715232D01*
X107554910Y-118715231D01*
X107562449Y-118714319D01*
X107562505Y-118714782D01*
X107628551Y-118717740D01*
X107686500Y-118758757D01*
X107713292Y-118827041D01*
X107725465Y-118981711D01*
X107726619Y-118986518D01*
X107726620Y-118986524D01*
X107755877Y-119108385D01*
X107780895Y-119212594D01*
X107782788Y-119217165D01*
X107782789Y-119217167D01*
X107841228Y-119358251D01*
X107871760Y-119431963D01*
X107874346Y-119436183D01*
X107993241Y-119630202D01*
X107993245Y-119630208D01*
X107995824Y-119634416D01*
X108150031Y-119814969D01*
X108153787Y-119818177D01*
X108153792Y-119818182D01*
X108272056Y-119919189D01*
X108310866Y-119978639D01*
X108311372Y-120049634D01*
X108272056Y-120110811D01*
X108153792Y-120211818D01*
X108153787Y-120211823D01*
X108150031Y-120215031D01*
X107995824Y-120395584D01*
X107993245Y-120399792D01*
X107993241Y-120399798D01*
X107913625Y-120529720D01*
X107871760Y-120598037D01*
X107869867Y-120602607D01*
X107869865Y-120602611D01*
X107782789Y-120812833D01*
X107780895Y-120817406D01*
X107762975Y-120892049D01*
X107728021Y-121037643D01*
X107725465Y-121048289D01*
X107706835Y-121285000D01*
X107725465Y-121521711D01*
X107780895Y-121752594D01*
X107782788Y-121757165D01*
X107782789Y-121757167D01*
X107867377Y-121961381D01*
X107871760Y-121971963D01*
X107874346Y-121976183D01*
X107993241Y-122170202D01*
X107993245Y-122170208D01*
X107995824Y-122174416D01*
X108150031Y-122354969D01*
X108153787Y-122358177D01*
X108153792Y-122358182D01*
X108272056Y-122459189D01*
X108310866Y-122518639D01*
X108311372Y-122589634D01*
X108272056Y-122650811D01*
X108153792Y-122751818D01*
X108153787Y-122751823D01*
X108150031Y-122755031D01*
X107995824Y-122935584D01*
X107993245Y-122939792D01*
X107993241Y-122939798D01*
X107921814Y-123056357D01*
X107871760Y-123138037D01*
X107869867Y-123142607D01*
X107869865Y-123142611D01*
X107811836Y-123282707D01*
X107780895Y-123357406D01*
X107778269Y-123368346D01*
X107729616Y-123571000D01*
X107725465Y-123588289D01*
X107706835Y-123825000D01*
X107725465Y-124061711D01*
X107726619Y-124066518D01*
X107726620Y-124066524D01*
X107761640Y-124212391D01*
X107780895Y-124292594D01*
X107782788Y-124297165D01*
X107782789Y-124297167D01*
X107869772Y-124507163D01*
X107871760Y-124511963D01*
X107874346Y-124516183D01*
X107993241Y-124710202D01*
X107993245Y-124710208D01*
X107995824Y-124714416D01*
X108150031Y-124894969D01*
X108330584Y-125049176D01*
X108334792Y-125051755D01*
X108334798Y-125051759D01*
X108528817Y-125170654D01*
X108533037Y-125173240D01*
X108537607Y-125175133D01*
X108537611Y-125175135D01*
X108747833Y-125262211D01*
X108752406Y-125264105D01*
X108794655Y-125274248D01*
X108978476Y-125318380D01*
X108978482Y-125318381D01*
X108983289Y-125319535D01*
X109220000Y-125338165D01*
X109456711Y-125319535D01*
X109461518Y-125318381D01*
X109461524Y-125318380D01*
X109645345Y-125274248D01*
X109687594Y-125264105D01*
X109692167Y-125262211D01*
X109902389Y-125175135D01*
X109902393Y-125175133D01*
X109906963Y-125173240D01*
X109911183Y-125170654D01*
X110059820Y-125079569D01*
X110128354Y-125061031D01*
X110196030Y-125082487D01*
X110241363Y-125137126D01*
X110250768Y-125189866D01*
X110251500Y-125189866D01*
X110251500Y-127286134D01*
X110258255Y-127348316D01*
X110309385Y-127484705D01*
X110396739Y-127601261D01*
X110513295Y-127688615D01*
X110649684Y-127739745D01*
X110711866Y-127746500D01*
X112808134Y-127746500D01*
X112870316Y-127739745D01*
X113006705Y-127688615D01*
X113123261Y-127601261D01*
X113210615Y-127484705D01*
X113261745Y-127348316D01*
X113268500Y-127286134D01*
X113268500Y-125189866D01*
X113269284Y-125189866D01*
X113284786Y-125124104D01*
X113335849Y-125074778D01*
X113405474Y-125060889D01*
X113460147Y-125078961D01*
X113609052Y-125170210D01*
X113617837Y-125174687D01*
X113827992Y-125261736D01*
X113837366Y-125264782D01*
X114028385Y-125310642D01*
X114042469Y-125309937D01*
X114046000Y-125301056D01*
X114046000Y-124097115D01*
X114041525Y-124081876D01*
X114040135Y-124080671D01*
X114032452Y-124079000D01*
X112828244Y-124079000D01*
X112814713Y-124082973D01*
X112813353Y-124092431D01*
X112860218Y-124287634D01*
X112863264Y-124297008D01*
X112950313Y-124507163D01*
X112954791Y-124515951D01*
X112971357Y-124542983D01*
X112989896Y-124611516D01*
X112968441Y-124679193D01*
X112913802Y-124724527D01*
X112850319Y-124734082D01*
X112811536Y-124729869D01*
X112811526Y-124729868D01*
X112808134Y-124729500D01*
X112318300Y-124729500D01*
X112250179Y-124709498D01*
X112203686Y-124655842D01*
X112192300Y-124603500D01*
X112192300Y-110753217D01*
X112192307Y-110751897D01*
X112192893Y-110695929D01*
X112193256Y-110661291D01*
X112191768Y-110654408D01*
X112184033Y-110618628D01*
X112181974Y-110606050D01*
X112177894Y-110569682D01*
X112177892Y-110569673D01*
X112177107Y-110562675D01*
X112167757Y-110535824D01*
X112165997Y-110530769D01*
X112161835Y-110515962D01*
X112157664Y-110496671D01*
X112154697Y-110482949D01*
X112150416Y-110473767D01*
X112141330Y-110454284D01*
X112136249Y-110443386D01*
X112131460Y-110431593D01*
X112117101Y-110390361D01*
X112112665Y-110383261D01*
X112099199Y-110361710D01*
X112091860Y-110348193D01*
X112080561Y-110323963D01*
X112077585Y-110317581D01*
X112050831Y-110283090D01*
X112043537Y-110272634D01*
X112024145Y-110241600D01*
X112020411Y-110235624D01*
X112014188Y-110229357D01*
X111991644Y-110206656D01*
X111991047Y-110206018D01*
X111990527Y-110205347D01*
X111964269Y-110179089D01*
X111903691Y-110118087D01*
X111894335Y-110108665D01*
X111894331Y-110108661D01*
X111891841Y-110106154D01*
X111890800Y-110105494D01*
X111889565Y-110104385D01*
X110743592Y-108958412D01*
X110709566Y-108896100D01*
X110710168Y-108839906D01*
X110713378Y-108826534D01*
X110713380Y-108826523D01*
X110714535Y-108821711D01*
X110733165Y-108585000D01*
X110714535Y-108348289D01*
X110711298Y-108334802D01*
X110672170Y-108171827D01*
X110659105Y-108117406D01*
X110653247Y-108103263D01*
X110570135Y-107902611D01*
X110570133Y-107902607D01*
X110568240Y-107898037D01*
X110539082Y-107850455D01*
X110446759Y-107699798D01*
X110446755Y-107699792D01*
X110444176Y-107695584D01*
X110299132Y-107525759D01*
X110293177Y-107518787D01*
X110289969Y-107515031D01*
X110286213Y-107511823D01*
X110286208Y-107511818D01*
X110167944Y-107410811D01*
X110129134Y-107351361D01*
X110128628Y-107280366D01*
X110167944Y-107219189D01*
X110286208Y-107118182D01*
X110286213Y-107118177D01*
X110289969Y-107114969D01*
X110300871Y-107102205D01*
X110332965Y-107064627D01*
X110444176Y-106934416D01*
X110446755Y-106930208D01*
X110446759Y-106930202D01*
X110565654Y-106736183D01*
X110568240Y-106731963D01*
X110570229Y-106727163D01*
X110657211Y-106517167D01*
X110657212Y-106517165D01*
X110659105Y-106512594D01*
X110689871Y-106384445D01*
X110713380Y-106286524D01*
X110713381Y-106286518D01*
X110714535Y-106281711D01*
X110733165Y-106045000D01*
X110714535Y-105808289D01*
X110710385Y-105791000D01*
X110664785Y-105601067D01*
X110659105Y-105577406D01*
X110640639Y-105532825D01*
X110570135Y-105362611D01*
X110570133Y-105362607D01*
X110568240Y-105358037D01*
X110565045Y-105352823D01*
X110446759Y-105159798D01*
X110446755Y-105159792D01*
X110444176Y-105155584D01*
X110289969Y-104975031D01*
X110286213Y-104971823D01*
X110286208Y-104971818D01*
X110167944Y-104870811D01*
X110129134Y-104811361D01*
X110128628Y-104740366D01*
X110167944Y-104679189D01*
X110286208Y-104578182D01*
X110286213Y-104578177D01*
X110289969Y-104574969D01*
X110444176Y-104394416D01*
X110446755Y-104390208D01*
X110446759Y-104390202D01*
X110565654Y-104196183D01*
X110568240Y-104191963D01*
X110659105Y-103972594D01*
X110714535Y-103741711D01*
X110733165Y-103505000D01*
X110714535Y-103268289D01*
X110700589Y-103210197D01*
X110660260Y-103042218D01*
X110659105Y-103037406D01*
X110657211Y-103032833D01*
X110570135Y-102822611D01*
X110570133Y-102822607D01*
X110568240Y-102818037D01*
X110548059Y-102785105D01*
X110446759Y-102619798D01*
X110446755Y-102619792D01*
X110444176Y-102615584D01*
X110289969Y-102435031D01*
X110109416Y-102280824D01*
X110105208Y-102278245D01*
X110105202Y-102278241D01*
X109911183Y-102159346D01*
X109906963Y-102156760D01*
X109902393Y-102154867D01*
X109902389Y-102154865D01*
X109692167Y-102067789D01*
X109692165Y-102067788D01*
X109687594Y-102065895D01*
X109568000Y-102037183D01*
X109461524Y-102011620D01*
X109461518Y-102011619D01*
X109456711Y-102010465D01*
X109220000Y-101991835D01*
X108983289Y-102010465D01*
X108978482Y-102011619D01*
X108978476Y-102011620D01*
X108872000Y-102037183D01*
X108752406Y-102065895D01*
X108747835Y-102067788D01*
X108747833Y-102067789D01*
X108537611Y-102154865D01*
X108537607Y-102154867D01*
X108533037Y-102156760D01*
X108528817Y-102159346D01*
X108334798Y-102278241D01*
X108334792Y-102278245D01*
X108330584Y-102280824D01*
X108150031Y-102435031D01*
X107995824Y-102615584D01*
X107993245Y-102619792D01*
X107993241Y-102619798D01*
X107891941Y-102785105D01*
X107871760Y-102818037D01*
X107869867Y-102822607D01*
X107869865Y-102822611D01*
X107782789Y-103032833D01*
X107780895Y-103037406D01*
X107779740Y-103042218D01*
X107739412Y-103210197D01*
X107725465Y-103268289D01*
X107706835Y-103505000D01*
X107725465Y-103741711D01*
X107780895Y-103972594D01*
X107871760Y-104191963D01*
X107874346Y-104196183D01*
X107993241Y-104390202D01*
X107993245Y-104390208D01*
X107995824Y-104394416D01*
X108150031Y-104574969D01*
X108153787Y-104578177D01*
X108153792Y-104578182D01*
X108272056Y-104679189D01*
X108310866Y-104738639D01*
X108311372Y-104809634D01*
X108272056Y-104870811D01*
X108153792Y-104971818D01*
X108153787Y-104971823D01*
X108150031Y-104975031D01*
X108146823Y-104978787D01*
X108062292Y-105077760D01*
X107995824Y-105155584D01*
X107995496Y-105155304D01*
X107941572Y-105196882D01*
X107870836Y-105202956D01*
X107814031Y-105175277D01*
X107796262Y-105160101D01*
X107696416Y-105074824D01*
X107692208Y-105072245D01*
X107692202Y-105072241D01*
X107498183Y-104953346D01*
X107493963Y-104950760D01*
X107489393Y-104948867D01*
X107489389Y-104948865D01*
X107279167Y-104861789D01*
X107279165Y-104861788D01*
X107274594Y-104859895D01*
X107194391Y-104840640D01*
X107048524Y-104805620D01*
X107048518Y-104805619D01*
X107043711Y-104804465D01*
X106807000Y-104785835D01*
X106570289Y-104804465D01*
X106565482Y-104805619D01*
X106565476Y-104805620D01*
X106419609Y-104840640D01*
X106339406Y-104859895D01*
X106334835Y-104861788D01*
X106334833Y-104861789D01*
X106124611Y-104948865D01*
X106124607Y-104948867D01*
X106120037Y-104950760D01*
X106115817Y-104953346D01*
X105921798Y-105072241D01*
X105921792Y-105072245D01*
X105917584Y-105074824D01*
X105737031Y-105229031D01*
X105582824Y-105409584D01*
X105580242Y-105413798D01*
X105580239Y-105413802D01*
X105573048Y-105425536D01*
X105520400Y-105473167D01*
X105465616Y-105485700D01*
X105037070Y-105485700D01*
X104968949Y-105465698D01*
X104947975Y-105448795D01*
X104498206Y-104999026D01*
X104464180Y-104936714D01*
X104461301Y-104909931D01*
X104461301Y-100030989D01*
X104481303Y-99962868D01*
X104534959Y-99916375D01*
X104605233Y-99906271D01*
X104669813Y-99935765D01*
X104676396Y-99941894D01*
X104800700Y-100066198D01*
X104805208Y-100069355D01*
X104805211Y-100069357D01*
X104851156Y-100101528D01*
X104988251Y-100197523D01*
X104993233Y-100199846D01*
X104993238Y-100199849D01*
X105190775Y-100291961D01*
X105195757Y-100294284D01*
X105201065Y-100295706D01*
X105201067Y-100295707D01*
X105411598Y-100352119D01*
X105411600Y-100352119D01*
X105416913Y-100353543D01*
X105510777Y-100361755D01*
X105585149Y-100368262D01*
X105585156Y-100368262D01*
X105587873Y-100368500D01*
X106502127Y-100368500D01*
X106504844Y-100368262D01*
X106504851Y-100368262D01*
X106579223Y-100361755D01*
X106673087Y-100353543D01*
X106678400Y-100352119D01*
X106678402Y-100352119D01*
X106888933Y-100295707D01*
X106888935Y-100295706D01*
X106894243Y-100294284D01*
X106899225Y-100291961D01*
X107096762Y-100199849D01*
X107096767Y-100199846D01*
X107101749Y-100197523D01*
X107238844Y-100101528D01*
X107284789Y-100069357D01*
X107284792Y-100069355D01*
X107289300Y-100066198D01*
X107451198Y-99904300D01*
X107471172Y-99875775D01*
X107579366Y-99721257D01*
X107582523Y-99716749D01*
X107584846Y-99711767D01*
X107584849Y-99711762D01*
X107676961Y-99514225D01*
X107676961Y-99514224D01*
X107679284Y-99509243D01*
X107684679Y-99489111D01*
X107737119Y-99293402D01*
X107737119Y-99293400D01*
X107738543Y-99288087D01*
X107758498Y-99060000D01*
X107738543Y-98831913D01*
X107737119Y-98826598D01*
X107680707Y-98616067D01*
X107680706Y-98616065D01*
X107679284Y-98610757D01*
X107628699Y-98502276D01*
X107584849Y-98408238D01*
X107584846Y-98408233D01*
X107582523Y-98403251D01*
X107472440Y-98246037D01*
X107454357Y-98220211D01*
X107454355Y-98220208D01*
X107451198Y-98215700D01*
X107289300Y-98053802D01*
X107284792Y-98050645D01*
X107284789Y-98050643D01*
X107206611Y-97995902D01*
X107101749Y-97922477D01*
X107096767Y-97920154D01*
X107096762Y-97920151D01*
X107062543Y-97904195D01*
X107009258Y-97857278D01*
X106989797Y-97789001D01*
X107010339Y-97721041D01*
X107062543Y-97675805D01*
X107096762Y-97659849D01*
X107096767Y-97659846D01*
X107101749Y-97657523D01*
X107251363Y-97552762D01*
X107284789Y-97529357D01*
X107284792Y-97529355D01*
X107289300Y-97526198D01*
X107451198Y-97364300D01*
X107457553Y-97355225D01*
X107561367Y-97206963D01*
X107582523Y-97176749D01*
X107584846Y-97171767D01*
X107584849Y-97171762D01*
X107676961Y-96974225D01*
X107676961Y-96974224D01*
X107679284Y-96969243D01*
X107738543Y-96748087D01*
X107758498Y-96520000D01*
X107738543Y-96291913D01*
X107679284Y-96070757D01*
X107670727Y-96052406D01*
X107584849Y-95868238D01*
X107584846Y-95868233D01*
X107582523Y-95863251D01*
X107451198Y-95675700D01*
X107289300Y-95513802D01*
X107284792Y-95510645D01*
X107284789Y-95510643D01*
X107155710Y-95420261D01*
X107101749Y-95382477D01*
X107096767Y-95380154D01*
X107096762Y-95380151D01*
X107062543Y-95364195D01*
X107009258Y-95317278D01*
X106989797Y-95249001D01*
X107010339Y-95181041D01*
X107062543Y-95135805D01*
X107096762Y-95119849D01*
X107096767Y-95119846D01*
X107101749Y-95117523D01*
X107269339Y-95000175D01*
X107284789Y-94989357D01*
X107284792Y-94989355D01*
X107289300Y-94986198D01*
X107451198Y-94824300D01*
X107469486Y-94798183D01*
X107561367Y-94666963D01*
X107582523Y-94636749D01*
X107584846Y-94631767D01*
X107584849Y-94631762D01*
X107608050Y-94582006D01*
X107654967Y-94528721D01*
X107723244Y-94509260D01*
X107791204Y-94529802D01*
X107838654Y-94587038D01*
X107864014Y-94648262D01*
X107871760Y-94666963D01*
X107874346Y-94671183D01*
X107993241Y-94865202D01*
X107993245Y-94865208D01*
X107995824Y-94869416D01*
X108150031Y-95049969D01*
X108330584Y-95204176D01*
X108334792Y-95206755D01*
X108334798Y-95206759D01*
X108515149Y-95317278D01*
X108533037Y-95328240D01*
X108537607Y-95330133D01*
X108537611Y-95330135D01*
X108728761Y-95409311D01*
X108752406Y-95419105D01*
X108795459Y-95429441D01*
X108817022Y-95434618D01*
X108878591Y-95469970D01*
X108911274Y-95532997D01*
X108904693Y-95603688D01*
X108860939Y-95659599D01*
X108840858Y-95671332D01*
X108648238Y-95761151D01*
X108648233Y-95761154D01*
X108643251Y-95763477D01*
X108608499Y-95787811D01*
X108460211Y-95891643D01*
X108460208Y-95891645D01*
X108455700Y-95894802D01*
X108293802Y-96056700D01*
X108290645Y-96061208D01*
X108290643Y-96061211D01*
X108283959Y-96070757D01*
X108162477Y-96244251D01*
X108160154Y-96249233D01*
X108160151Y-96249238D01*
X108099748Y-96378775D01*
X108065716Y-96451757D01*
X108064294Y-96457065D01*
X108064293Y-96457067D01*
X108048897Y-96514525D01*
X108006457Y-96672913D01*
X107986502Y-96901000D01*
X108006457Y-97129087D01*
X108065716Y-97350243D01*
X108068039Y-97355224D01*
X108068039Y-97355225D01*
X108160151Y-97552762D01*
X108160154Y-97552767D01*
X108162477Y-97557749D01*
X108213550Y-97630689D01*
X108277993Y-97722722D01*
X108293802Y-97745300D01*
X108455700Y-97907198D01*
X108460208Y-97910355D01*
X108460211Y-97910357D01*
X108538389Y-97965098D01*
X108643251Y-98038523D01*
X108648233Y-98040846D01*
X108648238Y-98040849D01*
X108845775Y-98132961D01*
X108850757Y-98135284D01*
X108856065Y-98136706D01*
X108856067Y-98136707D01*
X109066598Y-98193119D01*
X109066600Y-98193119D01*
X109071913Y-98194543D01*
X109300000Y-98214498D01*
X109528087Y-98194543D01*
X109533400Y-98193119D01*
X109533402Y-98193119D01*
X109743933Y-98136707D01*
X109743935Y-98136706D01*
X109749243Y-98135284D01*
X109754225Y-98132961D01*
X109951762Y-98040849D01*
X109951767Y-98040846D01*
X109956749Y-98038523D01*
X110061611Y-97965098D01*
X110139789Y-97910357D01*
X110139792Y-97910355D01*
X110144300Y-97907198D01*
X110306198Y-97745300D01*
X110322008Y-97722722D01*
X110386450Y-97630689D01*
X110437523Y-97557749D01*
X110439846Y-97552767D01*
X110439849Y-97552762D01*
X110531961Y-97355225D01*
X110531961Y-97355224D01*
X110534284Y-97350243D01*
X110593543Y-97129087D01*
X110613498Y-96901000D01*
X110593543Y-96672913D01*
X110551103Y-96514525D01*
X110535707Y-96457067D01*
X110535706Y-96457065D01*
X110534284Y-96451757D01*
X110500252Y-96378775D01*
X110439849Y-96249238D01*
X110439846Y-96249233D01*
X110437523Y-96244251D01*
X110316041Y-96070757D01*
X110309357Y-96061211D01*
X110309355Y-96061208D01*
X110306198Y-96056700D01*
X110144300Y-95894802D01*
X110139792Y-95891645D01*
X110139789Y-95891643D01*
X109991501Y-95787811D01*
X109956749Y-95763477D01*
X109951767Y-95761154D01*
X109951762Y-95761151D01*
X109754225Y-95669039D01*
X109754224Y-95669039D01*
X109749243Y-95666716D01*
X109743936Y-95665294D01*
X109743925Y-95665290D01*
X109707366Y-95655494D01*
X109646743Y-95618542D01*
X109615722Y-95554682D01*
X109624152Y-95484187D01*
X109669355Y-95429441D01*
X109691757Y-95417381D01*
X109796809Y-95373867D01*
X109902389Y-95330135D01*
X109902393Y-95330133D01*
X109906963Y-95328240D01*
X109924851Y-95317278D01*
X110105202Y-95206759D01*
X110105208Y-95206755D01*
X110109416Y-95204176D01*
X110289969Y-95049969D01*
X110444176Y-94869416D01*
X110446755Y-94865208D01*
X110446759Y-94865202D01*
X110565654Y-94671183D01*
X110568240Y-94666963D01*
X110575987Y-94648262D01*
X110657211Y-94452167D01*
X110657212Y-94452165D01*
X110659105Y-94447594D01*
X110714535Y-94216711D01*
X110733165Y-93980000D01*
X110714535Y-93743289D01*
X110690830Y-93644548D01*
X110664785Y-93536067D01*
X110659105Y-93512406D01*
X110649800Y-93489941D01*
X110570135Y-93297611D01*
X110570133Y-93297607D01*
X110568240Y-93293037D01*
X110524978Y-93222440D01*
X110446759Y-93094798D01*
X110446755Y-93094792D01*
X110444176Y-93090584D01*
X110289969Y-92910031D01*
X110286213Y-92906823D01*
X110286208Y-92906818D01*
X110167944Y-92805811D01*
X110129134Y-92746361D01*
X110128628Y-92675366D01*
X110167944Y-92614189D01*
X110286208Y-92513182D01*
X110286213Y-92513177D01*
X110289969Y-92509969D01*
X110444176Y-92329416D01*
X110446755Y-92325208D01*
X110446759Y-92325202D01*
X110565654Y-92131183D01*
X110568240Y-92126963D01*
X110614781Y-92014604D01*
X110657211Y-91912167D01*
X110657212Y-91912165D01*
X110659105Y-91907594D01*
X110694122Y-91761737D01*
X110713380Y-91681524D01*
X110713381Y-91681518D01*
X110714535Y-91676711D01*
X110733165Y-91440000D01*
X110714535Y-91203289D01*
X110659105Y-90972406D01*
X110615806Y-90867872D01*
X110570135Y-90757611D01*
X110570133Y-90757607D01*
X110568240Y-90753037D01*
X110565654Y-90748817D01*
X110446759Y-90554798D01*
X110446755Y-90554792D01*
X110444176Y-90550584D01*
X110289969Y-90370031D01*
X110286213Y-90366823D01*
X110286208Y-90366818D01*
X110167944Y-90265811D01*
X110129134Y-90206361D01*
X110128628Y-90135366D01*
X110167944Y-90074189D01*
X110286208Y-89973182D01*
X110286213Y-89973177D01*
X110289969Y-89969969D01*
X110444176Y-89789416D01*
X110446755Y-89785208D01*
X110446759Y-89785202D01*
X110565654Y-89591183D01*
X110568240Y-89586963D01*
X110571747Y-89578498D01*
X110657211Y-89372167D01*
X110657212Y-89372165D01*
X110659105Y-89367594D01*
X110701654Y-89190365D01*
X110713380Y-89141524D01*
X110713381Y-89141518D01*
X110714535Y-89136711D01*
X110733165Y-88900000D01*
X110714535Y-88663289D01*
X110711193Y-88649365D01*
X110672358Y-88487609D01*
X110659105Y-88432406D01*
X110634932Y-88374047D01*
X110570135Y-88217611D01*
X110570133Y-88217607D01*
X110568240Y-88213037D01*
X110460311Y-88036913D01*
X110446759Y-88014798D01*
X110446755Y-88014792D01*
X110444176Y-88010584D01*
X110289969Y-87830031D01*
X110109416Y-87675824D01*
X110105208Y-87673245D01*
X110105202Y-87673241D01*
X109911183Y-87554346D01*
X109906963Y-87551760D01*
X109902393Y-87549867D01*
X109902389Y-87549865D01*
X109692167Y-87462789D01*
X109692165Y-87462788D01*
X109687594Y-87460895D01*
X109606512Y-87441429D01*
X109461524Y-87406620D01*
X109461518Y-87406619D01*
X109456711Y-87405465D01*
X109220000Y-87386835D01*
X108983289Y-87405465D01*
X108978482Y-87406619D01*
X108978476Y-87406620D01*
X108833488Y-87441429D01*
X108752406Y-87460895D01*
X108533037Y-87551760D01*
X108531768Y-87552537D01*
X108475695Y-87566000D01*
X106757530Y-87566000D01*
X106689409Y-87545998D01*
X106654317Y-87512271D01*
X106593357Y-87425211D01*
X106593355Y-87425208D01*
X106590198Y-87420700D01*
X106428300Y-87258802D01*
X106423792Y-87255645D01*
X106423789Y-87255643D01*
X106306832Y-87173749D01*
X106240749Y-87127477D01*
X106235767Y-87125154D01*
X106235762Y-87125151D01*
X106142318Y-87081578D01*
X106089033Y-87034661D01*
X106069572Y-86966384D01*
X106090114Y-86898424D01*
X106147350Y-86850974D01*
X106219389Y-86821135D01*
X106219393Y-86821133D01*
X106223963Y-86819240D01*
X106292664Y-86777140D01*
X106422202Y-86697759D01*
X106422208Y-86697755D01*
X106426416Y-86695176D01*
X106606969Y-86540969D01*
X106761176Y-86360416D01*
X106763755Y-86356208D01*
X106763759Y-86356202D01*
X106882654Y-86162183D01*
X106885240Y-86157963D01*
X106894046Y-86136705D01*
X106974211Y-85943167D01*
X106974212Y-85943165D01*
X106976105Y-85938594D01*
X106995360Y-85858391D01*
X107030380Y-85712524D01*
X107030381Y-85712518D01*
X107031535Y-85707711D01*
X107050165Y-85471000D01*
X107031535Y-85234289D01*
X106976105Y-85003406D01*
X106974211Y-84998833D01*
X106887135Y-84788611D01*
X106887133Y-84788607D01*
X106885240Y-84784037D01*
X106878848Y-84773606D01*
X106763759Y-84585798D01*
X106763755Y-84585792D01*
X106761176Y-84581584D01*
X106616132Y-84411759D01*
X106610177Y-84404787D01*
X106606969Y-84401031D01*
X106426416Y-84246824D01*
X106422208Y-84244245D01*
X106422202Y-84244241D01*
X106228183Y-84125346D01*
X106223963Y-84122760D01*
X106219393Y-84120867D01*
X106219389Y-84120865D01*
X106009167Y-84033789D01*
X106009165Y-84033788D01*
X106004594Y-84031895D01*
X105924391Y-84012640D01*
X105778524Y-83977620D01*
X105778518Y-83977619D01*
X105773711Y-83976465D01*
X105537000Y-83957835D01*
X105300289Y-83976465D01*
X105295482Y-83977619D01*
X105295476Y-83977620D01*
X105149609Y-84012640D01*
X105069406Y-84031895D01*
X105064835Y-84033788D01*
X105064833Y-84033789D01*
X104854611Y-84120865D01*
X104854607Y-84120867D01*
X104850037Y-84122760D01*
X104845817Y-84125346D01*
X104651798Y-84244241D01*
X104651792Y-84244245D01*
X104647584Y-84246824D01*
X104467031Y-84401031D01*
X104463823Y-84404787D01*
X104457868Y-84411759D01*
X104312824Y-84581584D01*
X104310245Y-84585792D01*
X104310241Y-84585798D01*
X104195152Y-84773606D01*
X104188760Y-84784037D01*
X104186867Y-84788607D01*
X104186865Y-84788611D01*
X104099789Y-84998833D01*
X104097895Y-85003406D01*
X104042465Y-85234289D01*
X104023835Y-85471000D01*
X104042465Y-85707711D01*
X104043619Y-85712518D01*
X104043620Y-85712524D01*
X104078640Y-85858391D01*
X104097895Y-85938594D01*
X104099788Y-85943165D01*
X104099789Y-85943167D01*
X104179955Y-86136705D01*
X104188760Y-86157963D01*
X104191346Y-86162183D01*
X104310241Y-86356202D01*
X104310245Y-86356208D01*
X104312824Y-86360416D01*
X104467031Y-86540969D01*
X104647584Y-86695176D01*
X104651792Y-86697755D01*
X104651798Y-86697759D01*
X104781336Y-86777140D01*
X104850037Y-86819240D01*
X104854607Y-86821133D01*
X104854611Y-86821135D01*
X104976431Y-86871594D01*
X105031712Y-86916142D01*
X105054133Y-86983506D01*
X105036575Y-87052297D01*
X104981462Y-87102198D01*
X104932242Y-87125149D01*
X104932239Y-87125151D01*
X104927251Y-87127477D01*
X104861168Y-87173749D01*
X104744211Y-87255643D01*
X104744208Y-87255645D01*
X104739700Y-87258802D01*
X104577802Y-87420700D01*
X104446477Y-87608251D01*
X104444154Y-87613233D01*
X104444151Y-87613238D01*
X104381271Y-87748087D01*
X104349716Y-87815757D01*
X104348294Y-87821065D01*
X104348293Y-87821067D01*
X104321711Y-87920271D01*
X104290457Y-88036913D01*
X104270502Y-88265000D01*
X104290457Y-88493087D01*
X104290878Y-88494659D01*
X104283142Y-88564028D01*
X104256020Y-88604444D01*
X101633962Y-91226503D01*
X101627697Y-91232356D01*
X101584726Y-91269842D01*
X101580359Y-91276056D01*
X101548506Y-91321378D01*
X101544573Y-91326674D01*
X101510394Y-91370263D01*
X101510392Y-91370266D01*
X101505708Y-91376240D01*
X101502582Y-91383164D01*
X101500744Y-91386199D01*
X101493500Y-91398898D01*
X101491812Y-91402046D01*
X101487444Y-91408261D01*
X101466406Y-91462223D01*
X101464567Y-91466939D01*
X101462022Y-91472995D01*
X101436087Y-91530435D01*
X101434702Y-91537908D01*
X101433631Y-91541326D01*
X101429646Y-91555315D01*
X101428749Y-91558807D01*
X101425988Y-91565889D01*
X101424996Y-91573422D01*
X101424996Y-91573423D01*
X101417767Y-91628330D01*
X101416735Y-91634843D01*
X101406685Y-91689070D01*
X101405255Y-91696787D01*
X101405692Y-91704367D01*
X101405692Y-91704368D01*
X101408791Y-91758112D01*
X101409000Y-91765365D01*
X101409000Y-98972275D01*
X101388998Y-99040396D01*
X101372095Y-99061370D01*
X100185815Y-100247650D01*
X100185811Y-100247653D01*
X99997870Y-100435594D01*
X99935558Y-100469620D01*
X99908775Y-100472499D01*
X99459227Y-100472499D01*
X99391106Y-100452497D01*
X99344613Y-100398841D01*
X99334509Y-100328567D01*
X99364003Y-100263987D01*
X99405977Y-100232304D01*
X99476511Y-100199414D01*
X99486007Y-100193931D01*
X99664467Y-100068972D01*
X99672875Y-100061916D01*
X99826916Y-99907875D01*
X99833972Y-99899467D01*
X99958931Y-99721007D01*
X99964414Y-99711511D01*
X100056490Y-99514053D01*
X100060236Y-99503761D01*
X100106394Y-99331497D01*
X100106058Y-99317401D01*
X100098116Y-99314000D01*
X98297000Y-99314000D01*
X98228879Y-99293998D01*
X98182386Y-99240342D01*
X98171000Y-99188000D01*
X98171000Y-98932000D01*
X98191002Y-98863879D01*
X98244658Y-98817386D01*
X98297000Y-98806000D01*
X100092967Y-98806000D01*
X100106498Y-98802027D01*
X100107727Y-98793478D01*
X100060236Y-98616239D01*
X100056490Y-98605947D01*
X99964414Y-98408489D01*
X99958931Y-98398993D01*
X99833972Y-98220533D01*
X99826916Y-98212125D01*
X99672875Y-98058084D01*
X99664467Y-98051028D01*
X99486007Y-97926069D01*
X99476511Y-97920586D01*
X99441951Y-97904471D01*
X99388666Y-97857554D01*
X99369205Y-97789277D01*
X99389747Y-97721317D01*
X99441951Y-97676081D01*
X99476762Y-97659849D01*
X99476767Y-97659846D01*
X99481749Y-97657523D01*
X99631363Y-97552762D01*
X99664789Y-97529357D01*
X99664792Y-97529355D01*
X99669300Y-97526198D01*
X99831198Y-97364300D01*
X99837553Y-97355225D01*
X99941367Y-97206963D01*
X99962523Y-97176749D01*
X99964846Y-97171767D01*
X99964849Y-97171762D01*
X100056961Y-96974225D01*
X100056961Y-96974224D01*
X100059284Y-96969243D01*
X100118543Y-96748087D01*
X100138498Y-96520000D01*
X100118543Y-96291913D01*
X100059284Y-96070757D01*
X100050727Y-96052406D01*
X99964849Y-95868238D01*
X99964846Y-95868233D01*
X99962523Y-95863251D01*
X99831198Y-95675700D01*
X99669300Y-95513802D01*
X99664792Y-95510645D01*
X99664789Y-95510643D01*
X99535710Y-95420261D01*
X99481749Y-95382477D01*
X99476767Y-95380154D01*
X99476762Y-95380151D01*
X99442543Y-95364195D01*
X99389258Y-95317278D01*
X99369797Y-95249001D01*
X99390339Y-95181041D01*
X99442543Y-95135805D01*
X99476762Y-95119849D01*
X99476767Y-95119846D01*
X99481749Y-95117523D01*
X99649339Y-95000175D01*
X99664789Y-94989357D01*
X99664792Y-94989355D01*
X99669300Y-94986198D01*
X99831198Y-94824300D01*
X99849486Y-94798183D01*
X99941367Y-94666963D01*
X99962523Y-94636749D01*
X99964846Y-94631767D01*
X99964849Y-94631762D01*
X100056961Y-94434225D01*
X100056961Y-94434224D01*
X100059284Y-94429243D01*
X100082203Y-94343711D01*
X100117119Y-94213402D01*
X100117119Y-94213400D01*
X100118543Y-94208087D01*
X100138498Y-93980000D01*
X100118543Y-93751913D01*
X100110553Y-93722095D01*
X100060707Y-93536067D01*
X100060706Y-93536065D01*
X100059284Y-93530757D01*
X100049830Y-93510483D01*
X99964849Y-93328238D01*
X99964846Y-93328233D01*
X99962523Y-93323251D01*
X99831198Y-93135700D01*
X99669300Y-92973802D01*
X99664789Y-92970643D01*
X99660576Y-92967108D01*
X99661527Y-92965974D01*
X99621529Y-92915929D01*
X99614224Y-92845310D01*
X99646258Y-92781951D01*
X99707462Y-92745970D01*
X99724517Y-92742918D01*
X99735316Y-92741745D01*
X99871705Y-92690615D01*
X99988261Y-92603261D01*
X100075615Y-92486705D01*
X100126745Y-92350316D01*
X100133500Y-92288134D01*
X100133500Y-90591866D01*
X100126745Y-90529684D01*
X100075615Y-90393295D01*
X99988261Y-90276739D01*
X99871705Y-90189385D01*
X99735316Y-90138255D01*
X99673134Y-90131500D01*
X97176866Y-90131500D01*
X97114684Y-90138255D01*
X96978295Y-90189385D01*
X96861739Y-90276739D01*
X96774385Y-90393295D01*
X96723255Y-90529684D01*
X96716500Y-90591866D01*
X96716500Y-90753258D01*
X96696498Y-90821379D01*
X96642842Y-90867872D01*
X96572568Y-90877976D01*
X96507988Y-90848482D01*
X96483067Y-90819092D01*
X96476762Y-90808803D01*
X96476758Y-90808798D01*
X96474176Y-90804584D01*
X96319969Y-90624031D01*
X96139416Y-90469824D01*
X96135208Y-90467245D01*
X96135202Y-90467241D01*
X95941183Y-90348346D01*
X95936963Y-90345760D01*
X95932393Y-90343867D01*
X95932389Y-90343865D01*
X95844867Y-90307613D01*
X95803126Y-90290323D01*
X95747846Y-90245776D01*
X95725425Y-90178413D01*
X95742983Y-90109621D01*
X95794945Y-90061243D01*
X95815137Y-90053229D01*
X95822532Y-90051010D01*
X95916562Y-90022800D01*
X96049321Y-89957762D01*
X96129533Y-89918467D01*
X96129538Y-89918464D01*
X96134184Y-89916188D01*
X96138394Y-89913185D01*
X96138399Y-89913182D01*
X96327259Y-89778469D01*
X96327264Y-89778465D01*
X96331471Y-89775464D01*
X96503126Y-89604408D01*
X96515662Y-89586963D01*
X96641519Y-89411813D01*
X96644537Y-89407613D01*
X96751908Y-89190365D01*
X96769709Y-89131776D01*
X96820851Y-88963449D01*
X96820852Y-88963443D01*
X96822355Y-88958497D01*
X96853986Y-88718237D01*
X96855751Y-88646000D01*
X96835895Y-88404482D01*
X96776859Y-88169449D01*
X96680228Y-87947215D01*
X96606848Y-87833787D01*
X96551407Y-87748087D01*
X96551405Y-87748084D01*
X96548599Y-87743747D01*
X96385506Y-87564510D01*
X96195328Y-87414317D01*
X95983174Y-87297201D01*
X95817319Y-87238469D01*
X95759613Y-87218034D01*
X95759610Y-87218033D01*
X95754741Y-87216309D01*
X95749652Y-87215402D01*
X95749650Y-87215402D01*
X95667511Y-87200771D01*
X95516163Y-87173812D01*
X95425635Y-87172706D01*
X95279018Y-87170914D01*
X95279016Y-87170914D01*
X95273848Y-87170851D01*
X95034303Y-87207507D01*
X94803961Y-87282794D01*
X94589009Y-87394691D01*
X94584876Y-87397794D01*
X94584873Y-87397796D01*
X94412700Y-87527067D01*
X94395218Y-87540193D01*
X94227795Y-87715392D01*
X94224881Y-87719664D01*
X94224880Y-87719665D01*
X94205492Y-87748087D01*
X94091234Y-87915583D01*
X93989203Y-88135390D01*
X93987821Y-88140372D01*
X93987821Y-88140373D01*
X93951741Y-88270475D01*
X93924442Y-88368910D01*
X93923893Y-88374047D01*
X93904688Y-88553752D01*
X93898690Y-88609871D01*
X93898987Y-88615023D01*
X93898987Y-88615027D01*
X93904402Y-88708933D01*
X93912640Y-88851802D01*
X93913777Y-88856848D01*
X93913778Y-88856854D01*
X93924613Y-88904930D01*
X93965916Y-89088207D01*
X93967858Y-89092989D01*
X93967859Y-89092993D01*
X94040221Y-89271198D01*
X94057088Y-89312736D01*
X94183707Y-89519359D01*
X94342372Y-89702527D01*
X94528823Y-89857322D01*
X94738053Y-89979586D01*
X94742882Y-89981430D01*
X94817574Y-90009952D01*
X94874078Y-90052939D01*
X94898371Y-90119650D01*
X94882741Y-90188905D01*
X94832150Y-90238715D01*
X94802042Y-90250180D01*
X94787225Y-90253737D01*
X94787212Y-90253741D01*
X94782406Y-90254895D01*
X94777835Y-90256788D01*
X94777833Y-90256789D01*
X94567611Y-90343865D01*
X94567607Y-90343867D01*
X94563037Y-90345760D01*
X94558817Y-90348346D01*
X94364798Y-90467241D01*
X94364792Y-90467245D01*
X94360584Y-90469824D01*
X94180031Y-90624031D01*
X94025824Y-90804584D01*
X94023245Y-90808792D01*
X94023241Y-90808798D01*
X93925784Y-90967833D01*
X93901760Y-91007037D01*
X93899867Y-91011607D01*
X93899865Y-91011611D01*
X93816898Y-91211913D01*
X93810895Y-91226406D01*
X93801666Y-91264848D01*
X93759616Y-91440000D01*
X93755465Y-91457289D01*
X93736835Y-91694000D01*
X93755465Y-91930711D01*
X93756619Y-91935518D01*
X93756620Y-91935524D01*
X93783500Y-92047485D01*
X93810895Y-92161594D01*
X93812788Y-92166165D01*
X93812789Y-92166167D01*
X93889066Y-92350316D01*
X93901760Y-92380963D01*
X93904346Y-92385183D01*
X94023241Y-92579202D01*
X94023245Y-92579208D01*
X94025824Y-92583416D01*
X94094800Y-92664176D01*
X94173075Y-92755824D01*
X94180031Y-92763969D01*
X94183787Y-92767177D01*
X94183792Y-92767182D01*
X94227707Y-92804689D01*
X94266517Y-92864139D01*
X94267023Y-92935134D01*
X94227707Y-92996311D01*
X94183792Y-93033818D01*
X94183787Y-93033823D01*
X94180031Y-93037031D01*
X94025824Y-93217584D01*
X94023245Y-93221792D01*
X94023241Y-93221798D01*
X93950790Y-93340028D01*
X93901760Y-93420037D01*
X93899867Y-93424607D01*
X93899865Y-93424611D01*
X93841409Y-93565738D01*
X93810895Y-93639406D01*
X93809740Y-93644218D01*
X93783885Y-93751913D01*
X93755465Y-93870289D01*
X93736835Y-94107000D01*
X93755465Y-94343711D01*
X93756619Y-94348518D01*
X93756620Y-94348524D01*
X93775999Y-94429243D01*
X93810895Y-94574594D01*
X93812788Y-94579165D01*
X93812789Y-94579167D01*
X93847261Y-94662389D01*
X93901760Y-94793963D01*
X93904346Y-94798183D01*
X94023241Y-94992202D01*
X94023245Y-94992208D01*
X94025824Y-94996416D01*
X94180031Y-95176969D01*
X94183787Y-95180177D01*
X94183792Y-95180182D01*
X94227707Y-95217689D01*
X94266517Y-95277139D01*
X94267023Y-95348134D01*
X94227707Y-95409311D01*
X94183792Y-95446818D01*
X94183787Y-95446823D01*
X94180031Y-95450031D01*
X94176823Y-95453787D01*
X94163001Y-95469970D01*
X94025824Y-95630584D01*
X94023245Y-95634792D01*
X94023241Y-95634798D01*
X93929475Y-95787811D01*
X93901760Y-95833037D01*
X93899867Y-95837607D01*
X93899865Y-95837611D01*
X93818511Y-96034019D01*
X93810895Y-96052406D01*
X93755465Y-96283289D01*
X93736835Y-96520000D01*
X93755465Y-96756711D01*
X93810895Y-96987594D01*
X93812788Y-96992165D01*
X93812789Y-96992167D01*
X93821939Y-97014256D01*
X93901760Y-97206963D01*
X93904346Y-97211183D01*
X94023241Y-97405202D01*
X94023245Y-97405208D01*
X94025824Y-97409416D01*
X94180031Y-97589969D01*
X94183787Y-97593177D01*
X94183792Y-97593182D01*
X94227707Y-97630689D01*
X94266517Y-97690139D01*
X94267023Y-97761134D01*
X94227707Y-97822311D01*
X94183792Y-97859818D01*
X94183787Y-97859823D01*
X94180031Y-97863031D01*
X94025824Y-98043584D01*
X94023245Y-98047792D01*
X94023241Y-98047798D01*
X93951714Y-98164520D01*
X93901760Y-98246037D01*
X93899867Y-98250607D01*
X93899865Y-98250611D01*
X93834199Y-98409145D01*
X93810895Y-98465406D01*
X93809740Y-98470218D01*
X93774725Y-98616067D01*
X93755465Y-98696289D01*
X93736835Y-98933000D01*
X93755465Y-99169711D01*
X93756619Y-99174518D01*
X93756620Y-99174524D01*
X93785304Y-99293998D01*
X93810895Y-99400594D01*
X93812788Y-99405165D01*
X93812789Y-99405167D01*
X93894169Y-99601636D01*
X93901760Y-99619963D01*
X93904346Y-99624183D01*
X94023241Y-99818202D01*
X94023245Y-99818208D01*
X94025824Y-99822416D01*
X94180031Y-100002969D01*
X94360584Y-100157176D01*
X94426424Y-100197523D01*
X94494216Y-100239066D01*
X94541847Y-100291714D01*
X94553454Y-100361755D01*
X94525351Y-100426953D01*
X94466460Y-100466607D01*
X94428381Y-100472499D01*
X91465856Y-100472499D01*
X91397735Y-100452497D01*
X91370045Y-100428330D01*
X91243177Y-100279787D01*
X91239969Y-100276031D01*
X91236213Y-100272823D01*
X91236208Y-100272818D01*
X91192293Y-100235311D01*
X91153483Y-100175861D01*
X91152977Y-100104866D01*
X91192293Y-100043689D01*
X91236208Y-100006182D01*
X91236213Y-100006177D01*
X91239969Y-100002969D01*
X91394176Y-99822416D01*
X91396755Y-99818208D01*
X91396759Y-99818202D01*
X91515654Y-99624183D01*
X91518240Y-99619963D01*
X91525832Y-99601636D01*
X91607211Y-99405167D01*
X91607212Y-99405165D01*
X91609105Y-99400594D01*
X91634696Y-99293998D01*
X91663380Y-99174524D01*
X91663381Y-99174518D01*
X91664535Y-99169711D01*
X91683165Y-98933000D01*
X91664535Y-98696289D01*
X91645276Y-98616067D01*
X91610260Y-98470218D01*
X91609105Y-98465406D01*
X91585801Y-98409145D01*
X91520135Y-98250611D01*
X91520133Y-98250607D01*
X91518240Y-98246037D01*
X91468286Y-98164520D01*
X91396759Y-98047798D01*
X91396755Y-98047792D01*
X91394176Y-98043584D01*
X91239969Y-97863031D01*
X91236213Y-97859823D01*
X91236208Y-97859818D01*
X91192293Y-97822311D01*
X91153483Y-97762861D01*
X91152977Y-97691866D01*
X91192293Y-97630689D01*
X91236208Y-97593182D01*
X91236213Y-97593177D01*
X91239969Y-97589969D01*
X91394176Y-97409416D01*
X91396755Y-97405208D01*
X91396759Y-97405202D01*
X91515654Y-97211183D01*
X91518240Y-97206963D01*
X91598062Y-97014256D01*
X91607211Y-96992167D01*
X91607212Y-96992165D01*
X91609105Y-96987594D01*
X91664535Y-96756711D01*
X91683165Y-96520000D01*
X91664535Y-96283289D01*
X91609105Y-96052406D01*
X91601489Y-96034019D01*
X91520135Y-95837611D01*
X91520133Y-95837607D01*
X91518240Y-95833037D01*
X91490525Y-95787811D01*
X91396759Y-95634798D01*
X91396755Y-95634792D01*
X91394176Y-95630584D01*
X91256999Y-95469970D01*
X91243177Y-95453787D01*
X91239969Y-95450031D01*
X91236213Y-95446823D01*
X91236208Y-95446818D01*
X91192293Y-95409311D01*
X91153483Y-95349861D01*
X91152977Y-95278866D01*
X91192293Y-95217689D01*
X91236208Y-95180182D01*
X91236213Y-95180177D01*
X91239969Y-95176969D01*
X91394176Y-94996416D01*
X91396755Y-94992208D01*
X91396759Y-94992202D01*
X91515654Y-94798183D01*
X91518240Y-94793963D01*
X91572740Y-94662389D01*
X91607211Y-94579167D01*
X91607212Y-94579165D01*
X91609105Y-94574594D01*
X91644001Y-94429243D01*
X91663380Y-94348524D01*
X91663381Y-94348518D01*
X91664535Y-94343711D01*
X91683165Y-94107000D01*
X91664535Y-93870289D01*
X91636116Y-93751913D01*
X91610260Y-93644218D01*
X91609105Y-93639406D01*
X91578591Y-93565738D01*
X91520135Y-93424611D01*
X91520133Y-93424607D01*
X91518240Y-93420037D01*
X91469210Y-93340028D01*
X91396759Y-93221798D01*
X91396755Y-93221792D01*
X91394176Y-93217584D01*
X91239969Y-93037031D01*
X91236213Y-93033823D01*
X91236208Y-93033818D01*
X91192293Y-92996311D01*
X91153483Y-92936861D01*
X91152977Y-92865866D01*
X91192293Y-92804689D01*
X91236208Y-92767182D01*
X91236213Y-92767177D01*
X91239969Y-92763969D01*
X91246926Y-92755824D01*
X91325200Y-92664176D01*
X91394176Y-92583416D01*
X91396755Y-92579208D01*
X91396759Y-92579202D01*
X91515654Y-92385183D01*
X91518240Y-92380963D01*
X91530935Y-92350316D01*
X91607211Y-92166167D01*
X91607212Y-92166165D01*
X91609105Y-92161594D01*
X91636500Y-92047485D01*
X91663380Y-91935524D01*
X91663381Y-91935518D01*
X91664535Y-91930711D01*
X91683165Y-91694000D01*
X91664535Y-91457289D01*
X91660385Y-91440000D01*
X91618334Y-91264848D01*
X91609105Y-91226406D01*
X91603102Y-91211913D01*
X91520135Y-91011611D01*
X91520133Y-91011607D01*
X91518240Y-91007037D01*
X91494216Y-90967833D01*
X91396759Y-90808798D01*
X91396755Y-90808792D01*
X91394176Y-90804584D01*
X91239969Y-90624031D01*
X91059416Y-90469824D01*
X91055201Y-90467241D01*
X91055193Y-90467235D01*
X90925783Y-90387932D01*
X90878152Y-90335285D01*
X90866545Y-90265243D01*
X90894648Y-90200046D01*
X90953539Y-90160392D01*
X90991618Y-90154500D01*
X91345134Y-90154500D01*
X91407316Y-90147745D01*
X91543705Y-90096615D01*
X91660261Y-90009261D01*
X91747615Y-89892705D01*
X91798745Y-89756316D01*
X91805500Y-89694134D01*
X91805500Y-87597866D01*
X91798745Y-87535684D01*
X91747615Y-87399295D01*
X91660261Y-87282739D01*
X91543705Y-87195385D01*
X91407316Y-87144255D01*
X91345134Y-87137500D01*
X89248866Y-87137500D01*
X89186684Y-87144255D01*
X89050295Y-87195385D01*
X88933739Y-87282739D01*
X88846385Y-87399295D01*
X88795255Y-87535684D01*
X88788500Y-87597866D01*
X88788500Y-89694134D01*
X88795255Y-89756316D01*
X88846385Y-89892705D01*
X88933739Y-90009261D01*
X89050295Y-90096615D01*
X89186684Y-90147745D01*
X89248866Y-90154500D01*
X89348382Y-90154500D01*
X89416503Y-90174502D01*
X89462996Y-90228158D01*
X89473100Y-90298432D01*
X89443606Y-90363012D01*
X89414217Y-90387932D01*
X89284807Y-90467235D01*
X89284799Y-90467241D01*
X89280584Y-90469824D01*
X89100031Y-90624031D01*
X88945824Y-90804584D01*
X88943245Y-90808792D01*
X88943241Y-90808798D01*
X88845784Y-90967833D01*
X88821760Y-91007037D01*
X88819867Y-91011607D01*
X88819865Y-91011611D01*
X88761409Y-91152738D01*
X88716861Y-91208019D01*
X88649497Y-91230440D01*
X88580706Y-91212882D01*
X88532328Y-91160920D01*
X88519000Y-91104520D01*
X88519000Y-86069871D01*
X96438690Y-86069871D01*
X96438987Y-86075023D01*
X96438987Y-86075027D01*
X96444134Y-86164287D01*
X96452640Y-86311802D01*
X96453777Y-86316848D01*
X96453778Y-86316854D01*
X96470656Y-86391745D01*
X96505916Y-86548207D01*
X96507858Y-86552989D01*
X96507859Y-86552993D01*
X96532378Y-86613376D01*
X96597088Y-86772736D01*
X96723707Y-86979359D01*
X96882372Y-87162527D01*
X96886347Y-87165827D01*
X96886350Y-87165830D01*
X96938486Y-87209114D01*
X97068823Y-87317322D01*
X97278053Y-87439586D01*
X97282873Y-87441426D01*
X97282878Y-87441429D01*
X97391220Y-87482800D01*
X97504442Y-87526035D01*
X97509510Y-87527066D01*
X97509513Y-87527067D01*
X97602562Y-87545998D01*
X97741910Y-87574349D01*
X97747085Y-87574539D01*
X97747087Y-87574539D01*
X97978917Y-87583040D01*
X97978921Y-87583040D01*
X97984081Y-87583229D01*
X97989201Y-87582573D01*
X97989203Y-87582573D01*
X98064315Y-87572951D01*
X98224450Y-87552437D01*
X98229401Y-87550952D01*
X98229404Y-87550951D01*
X98451612Y-87484285D01*
X98451611Y-87484285D01*
X98456562Y-87482800D01*
X98574116Y-87425211D01*
X98669533Y-87378467D01*
X98669538Y-87378464D01*
X98674184Y-87376188D01*
X98678394Y-87373185D01*
X98678399Y-87373182D01*
X98867259Y-87238469D01*
X98867264Y-87238465D01*
X98871471Y-87235464D01*
X99043126Y-87064408D01*
X99077112Y-87017112D01*
X99181519Y-86871813D01*
X99184537Y-86867613D01*
X99286448Y-86661411D01*
X99334562Y-86609205D01*
X99403263Y-86591298D01*
X99470739Y-86613376D01*
X99481235Y-86621428D01*
X99563818Y-86691960D01*
X99563822Y-86691963D01*
X99567584Y-86695176D01*
X99571792Y-86697755D01*
X99571798Y-86697759D01*
X99701336Y-86777140D01*
X99770037Y-86819240D01*
X99774607Y-86821133D01*
X99774611Y-86821135D01*
X99804280Y-86833424D01*
X99938798Y-86889142D01*
X99994078Y-86933690D01*
X100016499Y-87001053D01*
X99998941Y-87069845D01*
X99943832Y-87119744D01*
X99932245Y-87125147D01*
X99932234Y-87125154D01*
X99927251Y-87127477D01*
X99861168Y-87173749D01*
X99744211Y-87255643D01*
X99744208Y-87255645D01*
X99739700Y-87258802D01*
X99577802Y-87420700D01*
X99446477Y-87608251D01*
X99444154Y-87613233D01*
X99444151Y-87613238D01*
X99381271Y-87748087D01*
X99349716Y-87815757D01*
X99348294Y-87821065D01*
X99348293Y-87821067D01*
X99321711Y-87920271D01*
X99290457Y-88036913D01*
X99270502Y-88265000D01*
X99290457Y-88493087D01*
X99291881Y-88498400D01*
X99291881Y-88498402D01*
X99330532Y-88642646D01*
X99349716Y-88714243D01*
X99352039Y-88719224D01*
X99352039Y-88719225D01*
X99444151Y-88916762D01*
X99444154Y-88916767D01*
X99446477Y-88921749D01*
X99475676Y-88963449D01*
X99566384Y-89092993D01*
X99577802Y-89109300D01*
X99739700Y-89271198D01*
X99744208Y-89274355D01*
X99744211Y-89274357D01*
X99792186Y-89307949D01*
X99927251Y-89402523D01*
X99932233Y-89404846D01*
X99932238Y-89404849D01*
X100129775Y-89496961D01*
X100134757Y-89499284D01*
X100140065Y-89500706D01*
X100140067Y-89500707D01*
X100350598Y-89557119D01*
X100350600Y-89557119D01*
X100355913Y-89558543D01*
X100584000Y-89578498D01*
X100812087Y-89558543D01*
X100817400Y-89557119D01*
X100817402Y-89557119D01*
X101027933Y-89500707D01*
X101027935Y-89500706D01*
X101033243Y-89499284D01*
X101038225Y-89496961D01*
X101235762Y-89404849D01*
X101235767Y-89404846D01*
X101240749Y-89402523D01*
X101375814Y-89307949D01*
X101423789Y-89274357D01*
X101423792Y-89274355D01*
X101428300Y-89271198D01*
X101590198Y-89109300D01*
X101601617Y-89092993D01*
X101692324Y-88963449D01*
X101721523Y-88921749D01*
X101723846Y-88916767D01*
X101723849Y-88916762D01*
X101815961Y-88719225D01*
X101815961Y-88719224D01*
X101818284Y-88714243D01*
X101837469Y-88642646D01*
X101876119Y-88498402D01*
X101876119Y-88498400D01*
X101877543Y-88493087D01*
X101897498Y-88265000D01*
X101877543Y-88036913D01*
X101846289Y-87920271D01*
X101819707Y-87821067D01*
X101819706Y-87821065D01*
X101818284Y-87815757D01*
X101786729Y-87748087D01*
X101723849Y-87613238D01*
X101723846Y-87613233D01*
X101721523Y-87608251D01*
X101590198Y-87420700D01*
X101428300Y-87258802D01*
X101423792Y-87255645D01*
X101423789Y-87255643D01*
X101306832Y-87173749D01*
X101240749Y-87127477D01*
X101235767Y-87125154D01*
X101235762Y-87125151D01*
X101104684Y-87064029D01*
X101051399Y-87017112D01*
X101031938Y-86948835D01*
X101052480Y-86880875D01*
X101109716Y-86833425D01*
X101143963Y-86819240D01*
X101212664Y-86777140D01*
X101342202Y-86697759D01*
X101342208Y-86697755D01*
X101346416Y-86695176D01*
X101526969Y-86540969D01*
X101681176Y-86360416D01*
X101683755Y-86356208D01*
X101683759Y-86356202D01*
X101802654Y-86162183D01*
X101805240Y-86157963D01*
X101814046Y-86136705D01*
X101894211Y-85943167D01*
X101894212Y-85943165D01*
X101896105Y-85938594D01*
X101915360Y-85858391D01*
X101950380Y-85712524D01*
X101950381Y-85712518D01*
X101951535Y-85707711D01*
X101970165Y-85471000D01*
X101951535Y-85234289D01*
X101896105Y-85003406D01*
X101894211Y-84998833D01*
X101807135Y-84788611D01*
X101807133Y-84788607D01*
X101805240Y-84784037D01*
X101798848Y-84773606D01*
X101683759Y-84585798D01*
X101683755Y-84585792D01*
X101681176Y-84581584D01*
X101536132Y-84411759D01*
X101530177Y-84404787D01*
X101526969Y-84401031D01*
X101346416Y-84246824D01*
X101342208Y-84244245D01*
X101342202Y-84244241D01*
X101148183Y-84125346D01*
X101143963Y-84122760D01*
X101139393Y-84120867D01*
X101139389Y-84120865D01*
X100929167Y-84033789D01*
X100929165Y-84033788D01*
X100924594Y-84031895D01*
X100844391Y-84012640D01*
X100698524Y-83977620D01*
X100698518Y-83977619D01*
X100693711Y-83976465D01*
X100457000Y-83957835D01*
X100220289Y-83976465D01*
X100215482Y-83977619D01*
X100215476Y-83977620D01*
X100069609Y-84012640D01*
X99989406Y-84031895D01*
X99984835Y-84033788D01*
X99984833Y-84033789D01*
X99774611Y-84120865D01*
X99774607Y-84120867D01*
X99770037Y-84122760D01*
X99765817Y-84125346D01*
X99571798Y-84244241D01*
X99571792Y-84244245D01*
X99567584Y-84246824D01*
X99387031Y-84401031D01*
X99383823Y-84404787D01*
X99377868Y-84411759D01*
X99232824Y-84581584D01*
X99230245Y-84585792D01*
X99230241Y-84585798D01*
X99115152Y-84773606D01*
X99108760Y-84784037D01*
X99106867Y-84788607D01*
X99106865Y-84788611D01*
X99052291Y-84920367D01*
X99007743Y-84975648D01*
X98940380Y-84998069D01*
X98871588Y-84980511D01*
X98857790Y-84971031D01*
X98769084Y-84900976D01*
X98735328Y-84874317D01*
X98564143Y-84779817D01*
X98527705Y-84759702D01*
X98527702Y-84759701D01*
X98523174Y-84757201D01*
X98304947Y-84679923D01*
X98299613Y-84678034D01*
X98299610Y-84678033D01*
X98294741Y-84676309D01*
X98289652Y-84675402D01*
X98289650Y-84675402D01*
X98216394Y-84662353D01*
X98056163Y-84633812D01*
X97965635Y-84632706D01*
X97819018Y-84630914D01*
X97819016Y-84630914D01*
X97813848Y-84630851D01*
X97574303Y-84667507D01*
X97343961Y-84742794D01*
X97129009Y-84854691D01*
X97124876Y-84857794D01*
X97124873Y-84857796D01*
X96961432Y-84980511D01*
X96935218Y-85000193D01*
X96767795Y-85175392D01*
X96631234Y-85375583D01*
X96529203Y-85595390D01*
X96527821Y-85600372D01*
X96527821Y-85600373D01*
X96498054Y-85707711D01*
X96464442Y-85828910D01*
X96463893Y-85834047D01*
X96445333Y-86007715D01*
X96438690Y-86069871D01*
X88519000Y-86069871D01*
X88519000Y-83833966D01*
X93927162Y-83833966D01*
X93965257Y-84003008D01*
X93968340Y-84012848D01*
X94055592Y-84227722D01*
X94060235Y-84236913D01*
X94181415Y-84434661D01*
X94187493Y-84442965D01*
X94339339Y-84618262D01*
X94346701Y-84625471D01*
X94525130Y-84773606D01*
X94533578Y-84779521D01*
X94733809Y-84896526D01*
X94743096Y-84900976D01*
X94959751Y-84983708D01*
X94969653Y-84986585D01*
X95105248Y-85014172D01*
X95119300Y-85012977D01*
X95123000Y-85002632D01*
X95123000Y-85000665D01*
X95631000Y-85000665D01*
X95635064Y-85014507D01*
X95648478Y-85016541D01*
X95679216Y-85012603D01*
X95689297Y-85010460D01*
X95911426Y-84943818D01*
X95921024Y-84940056D01*
X96129289Y-84838029D01*
X96138134Y-84832756D01*
X96326935Y-84698086D01*
X96334810Y-84691430D01*
X96499083Y-84527730D01*
X96505761Y-84519883D01*
X96641089Y-84331556D01*
X96646398Y-84322719D01*
X96749147Y-84114821D01*
X96752946Y-84105226D01*
X96820360Y-83883343D01*
X96822539Y-83873262D01*
X96827186Y-83837961D01*
X96824975Y-83823779D01*
X96811817Y-83820000D01*
X95649115Y-83820000D01*
X95633876Y-83824475D01*
X95632671Y-83825865D01*
X95631000Y-83833548D01*
X95631000Y-85000665D01*
X95123000Y-85000665D01*
X95123000Y-83838115D01*
X95118525Y-83822876D01*
X95117135Y-83821671D01*
X95109452Y-83820000D01*
X93942130Y-83820000D01*
X93928599Y-83823973D01*
X93927162Y-83833966D01*
X88519000Y-83833966D01*
X88519000Y-81293431D01*
X88810353Y-81293431D01*
X88857218Y-81488634D01*
X88860264Y-81498008D01*
X88947313Y-81708163D01*
X88951795Y-81716958D01*
X89070643Y-81910899D01*
X89076443Y-81918883D01*
X89224178Y-82091858D01*
X89231142Y-82098822D01*
X89404117Y-82246557D01*
X89412101Y-82252357D01*
X89606042Y-82371205D01*
X89614837Y-82375687D01*
X89824992Y-82462736D01*
X89834366Y-82465782D01*
X90025385Y-82511642D01*
X90039469Y-82510937D01*
X90043000Y-82502056D01*
X90043000Y-82497756D01*
X90551000Y-82497756D01*
X90554973Y-82511287D01*
X90564431Y-82512647D01*
X90759634Y-82465782D01*
X90769008Y-82462736D01*
X90979163Y-82375687D01*
X90987958Y-82371205D01*
X91181899Y-82252357D01*
X91189883Y-82246557D01*
X91362858Y-82098822D01*
X91369822Y-82091858D01*
X91517557Y-81918883D01*
X91523357Y-81910899D01*
X91642205Y-81716958D01*
X91646687Y-81708163D01*
X91733736Y-81498008D01*
X91736782Y-81488634D01*
X91782642Y-81297615D01*
X91781937Y-81283531D01*
X91773056Y-81280000D01*
X90569115Y-81280000D01*
X90553876Y-81284475D01*
X90552671Y-81285865D01*
X90551000Y-81293548D01*
X90551000Y-82497756D01*
X90043000Y-82497756D01*
X90043000Y-81298115D01*
X90038525Y-81282876D01*
X90037135Y-81281671D01*
X90029452Y-81280000D01*
X88825244Y-81280000D01*
X88811713Y-81283973D01*
X88810353Y-81293431D01*
X88519000Y-81293431D01*
X88519000Y-80754385D01*
X88811358Y-80754385D01*
X88812063Y-80768469D01*
X88820944Y-80772000D01*
X90024885Y-80772000D01*
X90040124Y-80767525D01*
X90041329Y-80766135D01*
X90043000Y-80758452D01*
X90043000Y-80753885D01*
X90551000Y-80753885D01*
X90555475Y-80769124D01*
X90556865Y-80770329D01*
X90564548Y-80772000D01*
X91768756Y-80772000D01*
X91782287Y-80768027D01*
X91783647Y-80758569D01*
X91736782Y-80563366D01*
X91733736Y-80553992D01*
X91646687Y-80343837D01*
X91642205Y-80335042D01*
X91523357Y-80141101D01*
X91517557Y-80133117D01*
X91369822Y-79960142D01*
X91362858Y-79953178D01*
X91189883Y-79805443D01*
X91181899Y-79799643D01*
X90987958Y-79680795D01*
X90979163Y-79676313D01*
X90769008Y-79589264D01*
X90759634Y-79586218D01*
X90568615Y-79540358D01*
X90554531Y-79541063D01*
X90551000Y-79549944D01*
X90551000Y-80753885D01*
X90043000Y-80753885D01*
X90043000Y-79554244D01*
X90039027Y-79540713D01*
X90029569Y-79539353D01*
X89834366Y-79586218D01*
X89824992Y-79589264D01*
X89614837Y-79676313D01*
X89606042Y-79680795D01*
X89412101Y-79799643D01*
X89404117Y-79805443D01*
X89231142Y-79953178D01*
X89224178Y-79960142D01*
X89076443Y-80133117D01*
X89070643Y-80141101D01*
X88951795Y-80335042D01*
X88947313Y-80343837D01*
X88860264Y-80553992D01*
X88857218Y-80563366D01*
X88811358Y-80754385D01*
X88519000Y-80754385D01*
X88519000Y-79374000D01*
X88539002Y-79305879D01*
X88592658Y-79259386D01*
X88645000Y-79248000D01*
X93345500Y-79248000D01*
X93413621Y-79268002D01*
G37*
%TD.AperFunction*%
%TD*%
M02*
