G04 #@! TF.GenerationSoftware,KiCad,Pcbnew,(5.99.0-1452-gb67f18b39)*
G04 #@! TF.CreationDate,2020-04-28T12:03:23+03:00*
G04 #@! TF.ProjectId,agudo,61677564-6f2e-46b6-9963-61645f706362,rev?*
G04 #@! TF.SameCoordinates,Original*
G04 #@! TF.FileFunction,Legend,Top*
G04 #@! TF.FilePolarity,Positive*
%FSLAX46Y46*%
G04 Gerber Fmt 4.6, Leading zero omitted, Abs format (unit mm)*
G04 Created by KiCad (PCBNEW (5.99.0-1452-gb67f18b39)) date 2020-04-28 12:03:23*
%MOMM*%
%LPD*%
G01*
G04 APERTURE LIST*
%ADD10C,0.100000*%
%ADD11C,0.105833*%
%ADD12C,0.127000*%
%ADD13C,0.120000*%
%ADD14C,0.152400*%
%ADD15C,0.304800*%
G04 APERTURE END LIST*
D10*
G36*
X93277944Y-131623676D02*
G01*
X93240682Y-131668788D01*
X93205878Y-131714516D01*
X93173515Y-131760900D01*
X93143580Y-131807978D01*
X93116058Y-131855791D01*
X93090933Y-131904377D01*
X93068192Y-131953776D01*
X93047818Y-132004026D01*
X93029798Y-132055168D01*
X93014116Y-132107239D01*
X93000757Y-132160281D01*
X92989707Y-132214331D01*
X92980952Y-132269429D01*
X92974475Y-132325615D01*
X92970262Y-132382927D01*
X92968299Y-132441404D01*
X92888924Y-132440577D01*
X92891027Y-132378966D01*
X92895564Y-132318410D01*
X92902542Y-132258893D01*
X92911966Y-132200397D01*
X92923843Y-132142906D01*
X92938178Y-132086403D01*
X92954976Y-132030870D01*
X92974244Y-131976292D01*
X92995988Y-131922652D01*
X93020213Y-131869932D01*
X93046925Y-131818115D01*
X93076131Y-131767186D01*
X93107835Y-131717126D01*
X93142044Y-131667920D01*
X93178764Y-131619550D01*
X93218000Y-131572000D01*
X93277944Y-131623676D01*
G37*
X93277944Y-131623676D02*
X93240682Y-131668788D01*
X93205878Y-131714516D01*
X93173515Y-131760900D01*
X93143580Y-131807978D01*
X93116058Y-131855791D01*
X93090933Y-131904377D01*
X93068192Y-131953776D01*
X93047818Y-132004026D01*
X93029798Y-132055168D01*
X93014116Y-132107239D01*
X93000757Y-132160281D01*
X92989707Y-132214331D01*
X92980952Y-132269429D01*
X92974475Y-132325615D01*
X92970262Y-132382927D01*
X92968299Y-132441404D01*
X92888924Y-132440577D01*
X92891027Y-132378966D01*
X92895564Y-132318410D01*
X92902542Y-132258893D01*
X92911966Y-132200397D01*
X92923843Y-132142906D01*
X92938178Y-132086403D01*
X92954976Y-132030870D01*
X92974244Y-131976292D01*
X92995988Y-131922652D01*
X93020213Y-131869932D01*
X93046925Y-131818115D01*
X93076131Y-131767186D01*
X93107835Y-131717126D01*
X93142044Y-131667920D01*
X93178764Y-131619550D01*
X93218000Y-131572000D01*
X93277944Y-131623676D01*
D11*
X87636945Y-132459838D02*
X94251528Y-132459838D01*
X94251528Y-132459838D02*
X88959862Y-127168172D01*
D12*
G04 #@! TO.C,R27*
X106807000Y-83947000D02*
X106680000Y-84074000D01*
X106680000Y-84074000D02*
X106045000Y-84074000D01*
X106045000Y-84074000D02*
X105918000Y-83947000D01*
X105918000Y-83947000D02*
X104902000Y-83947000D01*
X104902000Y-83947000D02*
X104775000Y-84074000D01*
X104775000Y-84074000D02*
X104140000Y-84074000D01*
X104140000Y-84074000D02*
X104013000Y-83947000D01*
X104013000Y-82423000D02*
X104140000Y-82296000D01*
X104140000Y-82296000D02*
X104775000Y-82296000D01*
X104775000Y-82296000D02*
X104902000Y-82423000D01*
X104902000Y-82423000D02*
X105918000Y-82423000D01*
X105918000Y-82423000D02*
X106045000Y-82296000D01*
X106045000Y-82296000D02*
X106680000Y-82296000D01*
X106680000Y-82296000D02*
X106807000Y-82423000D01*
X106807000Y-83947000D02*
X106807000Y-82423000D01*
X104013000Y-83947000D02*
X104013000Y-82423000D01*
G04 #@! TO.C,R26*
X110363000Y-123063000D02*
X110490000Y-122936000D01*
X110490000Y-122936000D02*
X111125000Y-122936000D01*
X111125000Y-122936000D02*
X111252000Y-123063000D01*
X111252000Y-123063000D02*
X112268000Y-123063000D01*
X112268000Y-123063000D02*
X112395000Y-122936000D01*
X112395000Y-122936000D02*
X113030000Y-122936000D01*
X113030000Y-122936000D02*
X113157000Y-123063000D01*
X113157000Y-124587000D02*
X113030000Y-124714000D01*
X113030000Y-124714000D02*
X112395000Y-124714000D01*
X112395000Y-124714000D02*
X112268000Y-124587000D01*
X112268000Y-124587000D02*
X111252000Y-124587000D01*
X111252000Y-124587000D02*
X111125000Y-124714000D01*
X111125000Y-124714000D02*
X110490000Y-124714000D01*
X110490000Y-124714000D02*
X110363000Y-124587000D01*
X110363000Y-123063000D02*
X110363000Y-124587000D01*
X113157000Y-123063000D02*
X113157000Y-124587000D01*
G04 #@! TO.C,R25*
X110363000Y-102743000D02*
X110490000Y-102616000D01*
X110490000Y-102616000D02*
X111125000Y-102616000D01*
X111125000Y-102616000D02*
X111252000Y-102743000D01*
X111252000Y-102743000D02*
X112268000Y-102743000D01*
X112268000Y-102743000D02*
X112395000Y-102616000D01*
X112395000Y-102616000D02*
X113030000Y-102616000D01*
X113030000Y-102616000D02*
X113157000Y-102743000D01*
X113157000Y-104267000D02*
X113030000Y-104394000D01*
X113030000Y-104394000D02*
X112395000Y-104394000D01*
X112395000Y-104394000D02*
X112268000Y-104267000D01*
X112268000Y-104267000D02*
X111252000Y-104267000D01*
X111252000Y-104267000D02*
X111125000Y-104394000D01*
X111125000Y-104394000D02*
X110490000Y-104394000D01*
X110490000Y-104394000D02*
X110363000Y-104267000D01*
X110363000Y-102743000D02*
X110363000Y-104267000D01*
X113157000Y-102743000D02*
X113157000Y-104267000D01*
G04 #@! TO.C,R24*
X110363000Y-105283000D02*
X110490000Y-105156000D01*
X110490000Y-105156000D02*
X111125000Y-105156000D01*
X111125000Y-105156000D02*
X111252000Y-105283000D01*
X111252000Y-105283000D02*
X112268000Y-105283000D01*
X112268000Y-105283000D02*
X112395000Y-105156000D01*
X112395000Y-105156000D02*
X113030000Y-105156000D01*
X113030000Y-105156000D02*
X113157000Y-105283000D01*
X113157000Y-106807000D02*
X113030000Y-106934000D01*
X113030000Y-106934000D02*
X112395000Y-106934000D01*
X112395000Y-106934000D02*
X112268000Y-106807000D01*
X112268000Y-106807000D02*
X111252000Y-106807000D01*
X111252000Y-106807000D02*
X111125000Y-106934000D01*
X111125000Y-106934000D02*
X110490000Y-106934000D01*
X110490000Y-106934000D02*
X110363000Y-106807000D01*
X110363000Y-105283000D02*
X110363000Y-106807000D01*
X113157000Y-105283000D02*
X113157000Y-106807000D01*
G04 #@! TO.C,R23*
X110363000Y-107823000D02*
X110490000Y-107696000D01*
X110490000Y-107696000D02*
X111125000Y-107696000D01*
X111125000Y-107696000D02*
X111252000Y-107823000D01*
X111252000Y-107823000D02*
X112268000Y-107823000D01*
X112268000Y-107823000D02*
X112395000Y-107696000D01*
X112395000Y-107696000D02*
X113030000Y-107696000D01*
X113030000Y-107696000D02*
X113157000Y-107823000D01*
X113157000Y-109347000D02*
X113030000Y-109474000D01*
X113030000Y-109474000D02*
X112395000Y-109474000D01*
X112395000Y-109474000D02*
X112268000Y-109347000D01*
X112268000Y-109347000D02*
X111252000Y-109347000D01*
X111252000Y-109347000D02*
X111125000Y-109474000D01*
X111125000Y-109474000D02*
X110490000Y-109474000D01*
X110490000Y-109474000D02*
X110363000Y-109347000D01*
X110363000Y-107823000D02*
X110363000Y-109347000D01*
X113157000Y-107823000D02*
X113157000Y-109347000D01*
G04 #@! TO.C,R22*
X113157000Y-94742000D02*
X113030000Y-94869000D01*
X113030000Y-94869000D02*
X112395000Y-94869000D01*
X112395000Y-94869000D02*
X112268000Y-94742000D01*
X112268000Y-94742000D02*
X111252000Y-94742000D01*
X111252000Y-94742000D02*
X111125000Y-94869000D01*
X111125000Y-94869000D02*
X110490000Y-94869000D01*
X110490000Y-94869000D02*
X110363000Y-94742000D01*
X110363000Y-93218000D02*
X110490000Y-93091000D01*
X110490000Y-93091000D02*
X111125000Y-93091000D01*
X111125000Y-93091000D02*
X111252000Y-93218000D01*
X111252000Y-93218000D02*
X112268000Y-93218000D01*
X112268000Y-93218000D02*
X112395000Y-93091000D01*
X112395000Y-93091000D02*
X113030000Y-93091000D01*
X113030000Y-93091000D02*
X113157000Y-93218000D01*
X113157000Y-94742000D02*
X113157000Y-93218000D01*
X110363000Y-94742000D02*
X110363000Y-93218000D01*
G04 #@! TO.C,R21*
X91948000Y-123952000D02*
X92075000Y-123825000D01*
X92075000Y-123825000D02*
X92710000Y-123825000D01*
X92710000Y-123825000D02*
X92837000Y-123952000D01*
X92837000Y-123952000D02*
X93853000Y-123952000D01*
X93853000Y-123952000D02*
X93980000Y-123825000D01*
X93980000Y-123825000D02*
X94615000Y-123825000D01*
X94615000Y-123825000D02*
X94742000Y-123952000D01*
X94742000Y-125476000D02*
X94615000Y-125603000D01*
X94615000Y-125603000D02*
X93980000Y-125603000D01*
X93980000Y-125603000D02*
X93853000Y-125476000D01*
X93853000Y-125476000D02*
X92837000Y-125476000D01*
X92837000Y-125476000D02*
X92710000Y-125603000D01*
X92710000Y-125603000D02*
X92075000Y-125603000D01*
X92075000Y-125603000D02*
X91948000Y-125476000D01*
X91948000Y-123952000D02*
X91948000Y-125476000D01*
X94742000Y-123952000D02*
X94742000Y-125476000D01*
G04 #@! TO.C,R20*
X94107000Y-92456000D02*
X93980000Y-92583000D01*
X93980000Y-92583000D02*
X93345000Y-92583000D01*
X93345000Y-92583000D02*
X93218000Y-92456000D01*
X93218000Y-92456000D02*
X92202000Y-92456000D01*
X92202000Y-92456000D02*
X92075000Y-92583000D01*
X92075000Y-92583000D02*
X91440000Y-92583000D01*
X91440000Y-92583000D02*
X91313000Y-92456000D01*
X91313000Y-90932000D02*
X91440000Y-90805000D01*
X91440000Y-90805000D02*
X92075000Y-90805000D01*
X92075000Y-90805000D02*
X92202000Y-90932000D01*
X92202000Y-90932000D02*
X93218000Y-90932000D01*
X93218000Y-90932000D02*
X93345000Y-90805000D01*
X93345000Y-90805000D02*
X93980000Y-90805000D01*
X93980000Y-90805000D02*
X94107000Y-90932000D01*
X94107000Y-92456000D02*
X94107000Y-90932000D01*
X91313000Y-92456000D02*
X91313000Y-90932000D01*
G04 #@! TO.C,R19*
X110363000Y-90678000D02*
X110490000Y-90551000D01*
X110490000Y-90551000D02*
X111125000Y-90551000D01*
X111125000Y-90551000D02*
X111252000Y-90678000D01*
X111252000Y-90678000D02*
X112268000Y-90678000D01*
X112268000Y-90678000D02*
X112395000Y-90551000D01*
X112395000Y-90551000D02*
X113030000Y-90551000D01*
X113030000Y-90551000D02*
X113157000Y-90678000D01*
X113157000Y-92202000D02*
X113030000Y-92329000D01*
X113030000Y-92329000D02*
X112395000Y-92329000D01*
X112395000Y-92329000D02*
X112268000Y-92202000D01*
X112268000Y-92202000D02*
X111252000Y-92202000D01*
X111252000Y-92202000D02*
X111125000Y-92329000D01*
X111125000Y-92329000D02*
X110490000Y-92329000D01*
X110490000Y-92329000D02*
X110363000Y-92202000D01*
X110363000Y-90678000D02*
X110363000Y-92202000D01*
X113157000Y-90678000D02*
X113157000Y-92202000D01*
G04 #@! TO.C,R18*
X104394000Y-86233000D02*
X104267000Y-86360000D01*
X104267000Y-86360000D02*
X103632000Y-86360000D01*
X103632000Y-86360000D02*
X103505000Y-86233000D01*
X103505000Y-86233000D02*
X102489000Y-86233000D01*
X102489000Y-86233000D02*
X102362000Y-86360000D01*
X102362000Y-86360000D02*
X101727000Y-86360000D01*
X101727000Y-86360000D02*
X101600000Y-86233000D01*
X101600000Y-84709000D02*
X101727000Y-84582000D01*
X101727000Y-84582000D02*
X102362000Y-84582000D01*
X102362000Y-84582000D02*
X102489000Y-84709000D01*
X102489000Y-84709000D02*
X103505000Y-84709000D01*
X103505000Y-84709000D02*
X103632000Y-84582000D01*
X103632000Y-84582000D02*
X104267000Y-84582000D01*
X104267000Y-84582000D02*
X104394000Y-84709000D01*
X104394000Y-86233000D02*
X104394000Y-84709000D01*
X101600000Y-86233000D02*
X101600000Y-84709000D01*
G04 #@! TO.C,R17*
X89408000Y-105283000D02*
X89281000Y-105156000D01*
X89281000Y-105156000D02*
X89281000Y-104521000D01*
X89281000Y-104521000D02*
X89408000Y-104394000D01*
X89408000Y-104394000D02*
X89408000Y-103378000D01*
X89408000Y-103378000D02*
X89281000Y-103251000D01*
X89281000Y-103251000D02*
X89281000Y-102616000D01*
X89281000Y-102616000D02*
X89408000Y-102489000D01*
X90932000Y-102489000D02*
X91059000Y-102616000D01*
X91059000Y-102616000D02*
X91059000Y-103251000D01*
X91059000Y-103251000D02*
X90932000Y-103378000D01*
X90932000Y-103378000D02*
X90932000Y-104394000D01*
X90932000Y-104394000D02*
X91059000Y-104521000D01*
X91059000Y-104521000D02*
X91059000Y-105156000D01*
X91059000Y-105156000D02*
X90932000Y-105283000D01*
X89408000Y-105283000D02*
X90932000Y-105283000D01*
X89408000Y-102489000D02*
X90932000Y-102489000D01*
G04 #@! TO.C,R16*
X91313000Y-93345000D02*
X91440000Y-93218000D01*
X91440000Y-93218000D02*
X92075000Y-93218000D01*
X92075000Y-93218000D02*
X92202000Y-93345000D01*
X92202000Y-93345000D02*
X93218000Y-93345000D01*
X93218000Y-93345000D02*
X93345000Y-93218000D01*
X93345000Y-93218000D02*
X93980000Y-93218000D01*
X93980000Y-93218000D02*
X94107000Y-93345000D01*
X94107000Y-94869000D02*
X93980000Y-94996000D01*
X93980000Y-94996000D02*
X93345000Y-94996000D01*
X93345000Y-94996000D02*
X93218000Y-94869000D01*
X93218000Y-94869000D02*
X92202000Y-94869000D01*
X92202000Y-94869000D02*
X92075000Y-94996000D01*
X92075000Y-94996000D02*
X91440000Y-94996000D01*
X91440000Y-94996000D02*
X91313000Y-94869000D01*
X91313000Y-93345000D02*
X91313000Y-94869000D01*
X94107000Y-93345000D02*
X94107000Y-94869000D01*
G04 #@! TO.C,R15*
X91313000Y-95758000D02*
X91440000Y-95631000D01*
X91440000Y-95631000D02*
X92075000Y-95631000D01*
X92075000Y-95631000D02*
X92202000Y-95758000D01*
X92202000Y-95758000D02*
X93218000Y-95758000D01*
X93218000Y-95758000D02*
X93345000Y-95631000D01*
X93345000Y-95631000D02*
X93980000Y-95631000D01*
X93980000Y-95631000D02*
X94107000Y-95758000D01*
X94107000Y-97282000D02*
X93980000Y-97409000D01*
X93980000Y-97409000D02*
X93345000Y-97409000D01*
X93345000Y-97409000D02*
X93218000Y-97282000D01*
X93218000Y-97282000D02*
X92202000Y-97282000D01*
X92202000Y-97282000D02*
X92075000Y-97409000D01*
X92075000Y-97409000D02*
X91440000Y-97409000D01*
X91440000Y-97409000D02*
X91313000Y-97282000D01*
X91313000Y-95758000D02*
X91313000Y-97282000D01*
X94107000Y-95758000D02*
X94107000Y-97282000D01*
G04 #@! TO.C,R14*
X91948000Y-126365000D02*
X92075000Y-126238000D01*
X92075000Y-126238000D02*
X92710000Y-126238000D01*
X92710000Y-126238000D02*
X92837000Y-126365000D01*
X92837000Y-126365000D02*
X93853000Y-126365000D01*
X93853000Y-126365000D02*
X93980000Y-126238000D01*
X93980000Y-126238000D02*
X94615000Y-126238000D01*
X94615000Y-126238000D02*
X94742000Y-126365000D01*
X94742000Y-127889000D02*
X94615000Y-128016000D01*
X94615000Y-128016000D02*
X93980000Y-128016000D01*
X93980000Y-128016000D02*
X93853000Y-127889000D01*
X93853000Y-127889000D02*
X92837000Y-127889000D01*
X92837000Y-127889000D02*
X92710000Y-128016000D01*
X92710000Y-128016000D02*
X92075000Y-128016000D01*
X92075000Y-128016000D02*
X91948000Y-127889000D01*
X91948000Y-126365000D02*
X91948000Y-127889000D01*
X94742000Y-126365000D02*
X94742000Y-127889000D01*
G04 #@! TO.C,R13*
X91313000Y-98171000D02*
X91440000Y-98044000D01*
X91440000Y-98044000D02*
X92075000Y-98044000D01*
X92075000Y-98044000D02*
X92202000Y-98171000D01*
X92202000Y-98171000D02*
X93218000Y-98171000D01*
X93218000Y-98171000D02*
X93345000Y-98044000D01*
X93345000Y-98044000D02*
X93980000Y-98044000D01*
X93980000Y-98044000D02*
X94107000Y-98171000D01*
X94107000Y-99695000D02*
X93980000Y-99822000D01*
X93980000Y-99822000D02*
X93345000Y-99822000D01*
X93345000Y-99822000D02*
X93218000Y-99695000D01*
X93218000Y-99695000D02*
X92202000Y-99695000D01*
X92202000Y-99695000D02*
X92075000Y-99822000D01*
X92075000Y-99822000D02*
X91440000Y-99822000D01*
X91440000Y-99822000D02*
X91313000Y-99695000D01*
X91313000Y-98171000D02*
X91313000Y-99695000D01*
X94107000Y-98171000D02*
X94107000Y-99695000D01*
G04 #@! TO.C,R12*
X113157000Y-111887000D02*
X113030000Y-112014000D01*
X113030000Y-112014000D02*
X112395000Y-112014000D01*
X112395000Y-112014000D02*
X112268000Y-111887000D01*
X112268000Y-111887000D02*
X111252000Y-111887000D01*
X111252000Y-111887000D02*
X111125000Y-112014000D01*
X111125000Y-112014000D02*
X110490000Y-112014000D01*
X110490000Y-112014000D02*
X110363000Y-111887000D01*
X110363000Y-110363000D02*
X110490000Y-110236000D01*
X110490000Y-110236000D02*
X111125000Y-110236000D01*
X111125000Y-110236000D02*
X111252000Y-110363000D01*
X111252000Y-110363000D02*
X112268000Y-110363000D01*
X112268000Y-110363000D02*
X112395000Y-110236000D01*
X112395000Y-110236000D02*
X113030000Y-110236000D01*
X113030000Y-110236000D02*
X113157000Y-110363000D01*
X113157000Y-111887000D02*
X113157000Y-110363000D01*
X110363000Y-111887000D02*
X110363000Y-110363000D01*
G04 #@! TO.C,R11*
X110363000Y-88138000D02*
X110490000Y-88011000D01*
X110490000Y-88011000D02*
X111125000Y-88011000D01*
X111125000Y-88011000D02*
X111252000Y-88138000D01*
X111252000Y-88138000D02*
X112268000Y-88138000D01*
X112268000Y-88138000D02*
X112395000Y-88011000D01*
X112395000Y-88011000D02*
X113030000Y-88011000D01*
X113030000Y-88011000D02*
X113157000Y-88138000D01*
X113157000Y-89662000D02*
X113030000Y-89789000D01*
X113030000Y-89789000D02*
X112395000Y-89789000D01*
X112395000Y-89789000D02*
X112268000Y-89662000D01*
X112268000Y-89662000D02*
X111252000Y-89662000D01*
X111252000Y-89662000D02*
X111125000Y-89789000D01*
X111125000Y-89789000D02*
X110490000Y-89789000D01*
X110490000Y-89789000D02*
X110363000Y-89662000D01*
X110363000Y-88138000D02*
X110363000Y-89662000D01*
X113157000Y-88138000D02*
X113157000Y-89662000D01*
G04 #@! TO.C,R10*
X113157000Y-114427000D02*
X113030000Y-114554000D01*
X113030000Y-114554000D02*
X112395000Y-114554000D01*
X112395000Y-114554000D02*
X112268000Y-114427000D01*
X112268000Y-114427000D02*
X111252000Y-114427000D01*
X111252000Y-114427000D02*
X111125000Y-114554000D01*
X111125000Y-114554000D02*
X110490000Y-114554000D01*
X110490000Y-114554000D02*
X110363000Y-114427000D01*
X110363000Y-112903000D02*
X110490000Y-112776000D01*
X110490000Y-112776000D02*
X111125000Y-112776000D01*
X111125000Y-112776000D02*
X111252000Y-112903000D01*
X111252000Y-112903000D02*
X112268000Y-112903000D01*
X112268000Y-112903000D02*
X112395000Y-112776000D01*
X112395000Y-112776000D02*
X113030000Y-112776000D01*
X113030000Y-112776000D02*
X113157000Y-112903000D01*
X113157000Y-114427000D02*
X113157000Y-112903000D01*
X110363000Y-114427000D02*
X110363000Y-112903000D01*
G04 #@! TO.C,R9*
X113157000Y-116967000D02*
X113030000Y-117094000D01*
X113030000Y-117094000D02*
X112395000Y-117094000D01*
X112395000Y-117094000D02*
X112268000Y-116967000D01*
X112268000Y-116967000D02*
X111252000Y-116967000D01*
X111252000Y-116967000D02*
X111125000Y-117094000D01*
X111125000Y-117094000D02*
X110490000Y-117094000D01*
X110490000Y-117094000D02*
X110363000Y-116967000D01*
X110363000Y-115443000D02*
X110490000Y-115316000D01*
X110490000Y-115316000D02*
X111125000Y-115316000D01*
X111125000Y-115316000D02*
X111252000Y-115443000D01*
X111252000Y-115443000D02*
X112268000Y-115443000D01*
X112268000Y-115443000D02*
X112395000Y-115316000D01*
X112395000Y-115316000D02*
X113030000Y-115316000D01*
X113030000Y-115316000D02*
X113157000Y-115443000D01*
X113157000Y-116967000D02*
X113157000Y-115443000D01*
X110363000Y-116967000D02*
X110363000Y-115443000D01*
G04 #@! TO.C,R8*
X113157000Y-119507000D02*
X113030000Y-119634000D01*
X113030000Y-119634000D02*
X112395000Y-119634000D01*
X112395000Y-119634000D02*
X112268000Y-119507000D01*
X112268000Y-119507000D02*
X111252000Y-119507000D01*
X111252000Y-119507000D02*
X111125000Y-119634000D01*
X111125000Y-119634000D02*
X110490000Y-119634000D01*
X110490000Y-119634000D02*
X110363000Y-119507000D01*
X110363000Y-117983000D02*
X110490000Y-117856000D01*
X110490000Y-117856000D02*
X111125000Y-117856000D01*
X111125000Y-117856000D02*
X111252000Y-117983000D01*
X111252000Y-117983000D02*
X112268000Y-117983000D01*
X112268000Y-117983000D02*
X112395000Y-117856000D01*
X112395000Y-117856000D02*
X113030000Y-117856000D01*
X113030000Y-117856000D02*
X113157000Y-117983000D01*
X113157000Y-119507000D02*
X113157000Y-117983000D01*
X110363000Y-119507000D02*
X110363000Y-117983000D01*
G04 #@! TO.C,R7*
X113157000Y-122047000D02*
X113030000Y-122174000D01*
X113030000Y-122174000D02*
X112395000Y-122174000D01*
X112395000Y-122174000D02*
X112268000Y-122047000D01*
X112268000Y-122047000D02*
X111252000Y-122047000D01*
X111252000Y-122047000D02*
X111125000Y-122174000D01*
X111125000Y-122174000D02*
X110490000Y-122174000D01*
X110490000Y-122174000D02*
X110363000Y-122047000D01*
X110363000Y-120523000D02*
X110490000Y-120396000D01*
X110490000Y-120396000D02*
X111125000Y-120396000D01*
X111125000Y-120396000D02*
X111252000Y-120523000D01*
X111252000Y-120523000D02*
X112268000Y-120523000D01*
X112268000Y-120523000D02*
X112395000Y-120396000D01*
X112395000Y-120396000D02*
X113030000Y-120396000D01*
X113030000Y-120396000D02*
X113157000Y-120523000D01*
X113157000Y-122047000D02*
X113157000Y-120523000D01*
X110363000Y-122047000D02*
X110363000Y-120523000D01*
G04 #@! TO.C,R6*
X91313000Y-108458000D02*
X91440000Y-108331000D01*
X91440000Y-108331000D02*
X92075000Y-108331000D01*
X92075000Y-108331000D02*
X92202000Y-108458000D01*
X92202000Y-108458000D02*
X93218000Y-108458000D01*
X93218000Y-108458000D02*
X93345000Y-108331000D01*
X93345000Y-108331000D02*
X93980000Y-108331000D01*
X93980000Y-108331000D02*
X94107000Y-108458000D01*
X94107000Y-109982000D02*
X93980000Y-110109000D01*
X93980000Y-110109000D02*
X93345000Y-110109000D01*
X93345000Y-110109000D02*
X93218000Y-109982000D01*
X93218000Y-109982000D02*
X92202000Y-109982000D01*
X92202000Y-109982000D02*
X92075000Y-110109000D01*
X92075000Y-110109000D02*
X91440000Y-110109000D01*
X91440000Y-110109000D02*
X91313000Y-109982000D01*
X91313000Y-108458000D02*
X91313000Y-109982000D01*
X94107000Y-108458000D02*
X94107000Y-109982000D01*
G04 #@! TO.C,R5*
X94107000Y-112522000D02*
X93980000Y-112649000D01*
X93980000Y-112649000D02*
X93345000Y-112649000D01*
X93345000Y-112649000D02*
X93218000Y-112522000D01*
X93218000Y-112522000D02*
X92202000Y-112522000D01*
X92202000Y-112522000D02*
X92075000Y-112649000D01*
X92075000Y-112649000D02*
X91440000Y-112649000D01*
X91440000Y-112649000D02*
X91313000Y-112522000D01*
X91313000Y-110998000D02*
X91440000Y-110871000D01*
X91440000Y-110871000D02*
X92075000Y-110871000D01*
X92075000Y-110871000D02*
X92202000Y-110998000D01*
X92202000Y-110998000D02*
X93218000Y-110998000D01*
X93218000Y-110998000D02*
X93345000Y-110871000D01*
X93345000Y-110871000D02*
X93980000Y-110871000D01*
X93980000Y-110871000D02*
X94107000Y-110998000D01*
X94107000Y-112522000D02*
X94107000Y-110998000D01*
X91313000Y-112522000D02*
X91313000Y-110998000D01*
G04 #@! TO.C,R4*
X94107000Y-115062000D02*
X93980000Y-115189000D01*
X93980000Y-115189000D02*
X93345000Y-115189000D01*
X93345000Y-115189000D02*
X93218000Y-115062000D01*
X93218000Y-115062000D02*
X92202000Y-115062000D01*
X92202000Y-115062000D02*
X92075000Y-115189000D01*
X92075000Y-115189000D02*
X91440000Y-115189000D01*
X91440000Y-115189000D02*
X91313000Y-115062000D01*
X91313000Y-113538000D02*
X91440000Y-113411000D01*
X91440000Y-113411000D02*
X92075000Y-113411000D01*
X92075000Y-113411000D02*
X92202000Y-113538000D01*
X92202000Y-113538000D02*
X93218000Y-113538000D01*
X93218000Y-113538000D02*
X93345000Y-113411000D01*
X93345000Y-113411000D02*
X93980000Y-113411000D01*
X93980000Y-113411000D02*
X94107000Y-113538000D01*
X94107000Y-115062000D02*
X94107000Y-113538000D01*
X91313000Y-115062000D02*
X91313000Y-113538000D01*
G04 #@! TO.C,R3*
X91313000Y-116078000D02*
X91440000Y-115951000D01*
X91440000Y-115951000D02*
X92075000Y-115951000D01*
X92075000Y-115951000D02*
X92202000Y-116078000D01*
X92202000Y-116078000D02*
X93218000Y-116078000D01*
X93218000Y-116078000D02*
X93345000Y-115951000D01*
X93345000Y-115951000D02*
X93980000Y-115951000D01*
X93980000Y-115951000D02*
X94107000Y-116078000D01*
X94107000Y-117602000D02*
X93980000Y-117729000D01*
X93980000Y-117729000D02*
X93345000Y-117729000D01*
X93345000Y-117729000D02*
X93218000Y-117602000D01*
X93218000Y-117602000D02*
X92202000Y-117602000D01*
X92202000Y-117602000D02*
X92075000Y-117729000D01*
X92075000Y-117729000D02*
X91440000Y-117729000D01*
X91440000Y-117729000D02*
X91313000Y-117602000D01*
X91313000Y-116078000D02*
X91313000Y-117602000D01*
X94107000Y-116078000D02*
X94107000Y-117602000D01*
G04 #@! TO.C,R2*
X105664000Y-107061000D02*
X105537000Y-107188000D01*
X105537000Y-107188000D02*
X104902000Y-107188000D01*
X104902000Y-107188000D02*
X104775000Y-107061000D01*
X104775000Y-107061000D02*
X103759000Y-107061000D01*
X103759000Y-107061000D02*
X103632000Y-107188000D01*
X103632000Y-107188000D02*
X102997000Y-107188000D01*
X102997000Y-107188000D02*
X102870000Y-107061000D01*
X102870000Y-105537000D02*
X102997000Y-105410000D01*
X102997000Y-105410000D02*
X103632000Y-105410000D01*
X103632000Y-105410000D02*
X103759000Y-105537000D01*
X103759000Y-105537000D02*
X104775000Y-105537000D01*
X104775000Y-105537000D02*
X104902000Y-105410000D01*
X104902000Y-105410000D02*
X105537000Y-105410000D01*
X105537000Y-105410000D02*
X105664000Y-105537000D01*
X105664000Y-107061000D02*
X105664000Y-105537000D01*
X102870000Y-107061000D02*
X102870000Y-105537000D01*
G04 #@! TO.C,R1*
X91313000Y-118618000D02*
X91440000Y-118491000D01*
X91440000Y-118491000D02*
X92075000Y-118491000D01*
X92075000Y-118491000D02*
X92202000Y-118618000D01*
X92202000Y-118618000D02*
X93218000Y-118618000D01*
X93218000Y-118618000D02*
X93345000Y-118491000D01*
X93345000Y-118491000D02*
X93980000Y-118491000D01*
X93980000Y-118491000D02*
X94107000Y-118618000D01*
X94107000Y-120142000D02*
X93980000Y-120269000D01*
X93980000Y-120269000D02*
X93345000Y-120269000D01*
X93345000Y-120269000D02*
X93218000Y-120142000D01*
X93218000Y-120142000D02*
X92202000Y-120142000D01*
X92202000Y-120142000D02*
X92075000Y-120269000D01*
X92075000Y-120269000D02*
X91440000Y-120269000D01*
X91440000Y-120269000D02*
X91313000Y-120142000D01*
X91313000Y-118618000D02*
X91313000Y-120142000D01*
X94107000Y-118618000D02*
X94107000Y-120142000D01*
G04 #@! TO.C,RV2*
X106934000Y-82169000D02*
X103886000Y-82169000D01*
X101854000Y-82169000D02*
X98806000Y-82169000D01*
X96774000Y-82169000D02*
X93726000Y-82169000D01*
X106934000Y-82169000D02*
X106934000Y-79121000D01*
X106934000Y-79121000D02*
X103886000Y-79121000D01*
X103886000Y-79121000D02*
X103886000Y-82169000D01*
X101854000Y-82169000D02*
X101854000Y-79121000D01*
X101854000Y-79121000D02*
X98806000Y-79121000D01*
X98806000Y-79121000D02*
X98806000Y-82169000D01*
X96774000Y-82169000D02*
X96774000Y-79121000D01*
X96774000Y-79121000D02*
X93726000Y-79121000D01*
X93726000Y-79121000D02*
X93726000Y-82169000D01*
G04 #@! TO.C,J3*
X116459000Y-82804000D02*
X116459000Y-81534000D01*
X111379000Y-82804000D02*
X111379000Y-81534000D01*
X116459000Y-82804000D02*
X111379000Y-82804000D01*
X116459000Y-81534000D02*
X116459000Y-78994000D01*
X111379000Y-81534000D02*
X111379000Y-78994000D01*
X116459000Y-81534000D02*
X111379000Y-81534000D01*
X111379000Y-78994000D02*
X116459000Y-78994000D01*
D13*
G04 #@! TO.C,U2*
X103235000Y-90110000D02*
G75*
G02*
X101235000Y-90110000I-1000000J0D01*
G01*
X101235000Y-90110000D02*
X99985000Y-90110000D01*
X99985000Y-90110000D02*
X99985000Y-100390000D01*
X99985000Y-100390000D02*
X104485000Y-100390000D01*
X104485000Y-100390000D02*
X104485000Y-90110000D01*
X104485000Y-90110000D02*
X103235000Y-90110000D01*
X96985000Y-90050000D02*
X96985000Y-100450000D01*
X96985000Y-100450000D02*
X107485000Y-100450000D01*
X107485000Y-100450000D02*
X107485000Y-90050000D01*
X107485000Y-90050000D02*
X96985000Y-90050000D01*
G04 #@! TO.C,U1*
X103235000Y-107890000D02*
G75*
G02*
X101235000Y-107890000I-1000000J0D01*
G01*
X101235000Y-107890000D02*
X99985000Y-107890000D01*
X99985000Y-107890000D02*
X99985000Y-118170000D01*
X99985000Y-118170000D02*
X104485000Y-118170000D01*
X104485000Y-118170000D02*
X104485000Y-107890000D01*
X104485000Y-107890000D02*
X103235000Y-107890000D01*
X96985000Y-107830000D02*
X96985000Y-118230000D01*
X96985000Y-118230000D02*
X107485000Y-118230000D01*
X107485000Y-118230000D02*
X107485000Y-107830000D01*
X107485000Y-107830000D02*
X96985000Y-107830000D01*
D12*
G04 #@! TO.C,RV1*
X97348500Y-86106000D02*
G75*
G03*
X97348500Y-86106000I-1971500J0D01*
G01*
D14*
X98806000Y-89281000D02*
X98806000Y-82931000D01*
X98806000Y-89281000D02*
X98552000Y-89535000D01*
X91948000Y-89281000D02*
X92202000Y-89535000D01*
X92202000Y-89535000D02*
X98552000Y-89535000D01*
X91948000Y-82931000D02*
X92202000Y-82677000D01*
X98806000Y-82931000D02*
X98552000Y-82677000D01*
X98552000Y-82677000D02*
X92202000Y-82677000D01*
X94996000Y-86868000D02*
X94996000Y-88011000D01*
X94996000Y-88011000D02*
X95758000Y-88011000D01*
X95758000Y-88011000D02*
X95758000Y-86868000D01*
X95758000Y-86868000D02*
X96139000Y-86487000D01*
X97282000Y-86487000D02*
X97282000Y-85725000D01*
X96139000Y-85725000D02*
X95758000Y-85344000D01*
X95758000Y-85344000D02*
X95758000Y-84201000D01*
X95758000Y-84201000D02*
X94996000Y-84201000D01*
X94996000Y-84201000D02*
X94996000Y-85344000D01*
X94615000Y-85725000D02*
X94996000Y-85344000D01*
X93472000Y-85725000D02*
X93472000Y-86487000D01*
X94615000Y-86487000D02*
X94996000Y-86868000D01*
D15*
X97028000Y-87884000D02*
X97282000Y-88138000D01*
X97028000Y-84201000D02*
X97282000Y-83947000D01*
D14*
X96139000Y-86487000D02*
X97282000Y-86487000D01*
X97282000Y-85725000D02*
X96139000Y-85725000D01*
X93472000Y-86487000D02*
X94615000Y-86487000D01*
X94615000Y-85725000D02*
X93472000Y-85725000D01*
X91948000Y-82931000D02*
X91948000Y-89281000D01*
D13*
G04 #@! TO.C,Q2*
X99385000Y-103630000D02*
X100315000Y-103630000D01*
X102545000Y-103630000D02*
X101615000Y-103630000D01*
X102545000Y-103630000D02*
X102545000Y-101470000D01*
X99385000Y-103630000D02*
X99385000Y-102170000D01*
G04 #@! TO.C,Q1*
X103830000Y-103630000D02*
X104760000Y-103630000D01*
X106990000Y-103630000D02*
X106060000Y-103630000D01*
X106990000Y-103630000D02*
X106990000Y-101470000D01*
X103830000Y-103630000D02*
X103830000Y-102170000D01*
D12*
G04 #@! TO.C,J2*
X105854500Y-129286000D02*
X110934500Y-129286000D01*
X110934500Y-131826000D02*
X105854500Y-131826000D01*
X105854500Y-131826000D02*
X105854500Y-129286000D01*
X110934500Y-131826000D02*
X110934500Y-129286000D01*
X110934500Y-128016000D02*
X105854500Y-128016000D01*
X105854500Y-129286000D02*
X105854500Y-128016000D01*
X110934500Y-129286000D02*
X110934500Y-128016000D01*
G04 #@! TO.C,J1*
X95237300Y-129514600D02*
X105397300Y-129514600D01*
X105397300Y-132054600D02*
X95237300Y-132054600D01*
X95237300Y-132054600D02*
X95237300Y-129514600D01*
X105397300Y-132054600D02*
X105397300Y-129514600D01*
X105397300Y-128244600D02*
X95237300Y-128244600D01*
X95237300Y-129514600D02*
X95237300Y-128244600D01*
X105397300Y-129514600D02*
X105397300Y-128244600D01*
D14*
G04 #@! TO.C,D2*
X91567000Y-82804000D02*
X91567000Y-86868000D01*
X91567000Y-82804000D02*
X89027000Y-82804000D01*
X89027000Y-86868000D02*
X89027000Y-82804000D01*
X89027000Y-86868000D02*
X91567000Y-86868000D01*
G36*
X91567000Y-86487000D02*
G01*
X89027000Y-86487000D01*
X89027000Y-85979000D01*
X91567000Y-85979000D01*
X91567000Y-86487000D01*
G37*
D10*
X91567000Y-86487000D02*
X89027000Y-86487000D01*
X89027000Y-85979000D01*
X91567000Y-85979000D01*
X91567000Y-86487000D01*
G36*
X90678000Y-87249000D02*
G01*
X89916000Y-87249000D01*
X89916000Y-86868000D01*
X90678000Y-86868000D01*
X90678000Y-87249000D01*
G37*
X90678000Y-87249000D02*
X89916000Y-87249000D01*
X89916000Y-86868000D01*
X90678000Y-86868000D01*
X90678000Y-87249000D01*
G36*
X90678000Y-82804000D02*
G01*
X89916000Y-82804000D01*
X89916000Y-82423000D01*
X90678000Y-82423000D01*
X90678000Y-82804000D01*
G37*
X90678000Y-82804000D02*
X89916000Y-82804000D01*
X89916000Y-82423000D01*
X90678000Y-82423000D01*
X90678000Y-82804000D01*
D14*
G04 #@! TO.C,D1*
X105918000Y-124968000D02*
X109982000Y-124968000D01*
X105918000Y-124968000D02*
X105918000Y-127508000D01*
X109982000Y-127508000D02*
X105918000Y-127508000D01*
X109982000Y-127508000D02*
X109982000Y-124968000D01*
G36*
X109601000Y-127508000D02*
G01*
X109093000Y-127508000D01*
X109093000Y-124968000D01*
X109601000Y-124968000D01*
X109601000Y-127508000D01*
G37*
D10*
X109601000Y-127508000D02*
X109093000Y-127508000D01*
X109093000Y-124968000D01*
X109601000Y-124968000D01*
X109601000Y-127508000D01*
G36*
X110363000Y-126619000D02*
G01*
X109982000Y-126619000D01*
X109982000Y-125857000D01*
X110363000Y-125857000D01*
X110363000Y-126619000D01*
G37*
X110363000Y-126619000D02*
X109982000Y-126619000D01*
X109982000Y-125857000D01*
X110363000Y-125857000D01*
X110363000Y-126619000D01*
G36*
X105918000Y-126619000D02*
G01*
X105537000Y-126619000D01*
X105537000Y-125857000D01*
X105918000Y-125857000D01*
X105918000Y-126619000D01*
G37*
X105918000Y-126619000D02*
X105537000Y-126619000D01*
X105537000Y-125857000D01*
X105918000Y-125857000D01*
X105918000Y-126619000D01*
D13*
G04 #@! TO.C,C10*
X108080000Y-98271000D02*
X108080000Y-95531000D01*
X115520000Y-98271000D02*
X115520000Y-95531000D01*
X115520000Y-95531000D02*
X108080000Y-95531000D01*
X115520000Y-98271000D02*
X108080000Y-98271000D01*
G04 #@! TO.C,C9*
X106613500Y-121883500D02*
X106613500Y-124623500D01*
X99173500Y-121883500D02*
X99173500Y-124623500D01*
X99173500Y-124623500D02*
X106613500Y-124623500D01*
X99173500Y-121883500D02*
X106613500Y-121883500D01*
G04 #@! TO.C,C8*
X114360000Y-85090000D02*
G75*
G03*
X114360000Y-85090000I-2620000J0D01*
G01*
X111740000Y-82510000D02*
X111740000Y-87670000D01*
X111780000Y-82510000D02*
X111780000Y-87670000D01*
X111820000Y-82511000D02*
X111820000Y-87669000D01*
X111860000Y-82512000D02*
X111860000Y-87668000D01*
X111900000Y-82514000D02*
X111900000Y-87666000D01*
X111940000Y-82517000D02*
X111940000Y-87663000D01*
X111980000Y-82521000D02*
X111980000Y-84050000D01*
X111980000Y-86130000D02*
X111980000Y-87659000D01*
X112020000Y-82525000D02*
X112020000Y-84050000D01*
X112020000Y-86130000D02*
X112020000Y-87655000D01*
X112060000Y-82529000D02*
X112060000Y-84050000D01*
X112060000Y-86130000D02*
X112060000Y-87651000D01*
X112100000Y-82534000D02*
X112100000Y-84050000D01*
X112100000Y-86130000D02*
X112100000Y-87646000D01*
X112140000Y-82540000D02*
X112140000Y-84050000D01*
X112140000Y-86130000D02*
X112140000Y-87640000D01*
X112180000Y-82547000D02*
X112180000Y-84050000D01*
X112180000Y-86130000D02*
X112180000Y-87633000D01*
X112220000Y-82554000D02*
X112220000Y-84050000D01*
X112220000Y-86130000D02*
X112220000Y-87626000D01*
X112260000Y-82562000D02*
X112260000Y-84050000D01*
X112260000Y-86130000D02*
X112260000Y-87618000D01*
X112300000Y-82570000D02*
X112300000Y-84050000D01*
X112300000Y-86130000D02*
X112300000Y-87610000D01*
X112340000Y-82579000D02*
X112340000Y-84050000D01*
X112340000Y-86130000D02*
X112340000Y-87601000D01*
X112380000Y-82589000D02*
X112380000Y-84050000D01*
X112380000Y-86130000D02*
X112380000Y-87591000D01*
X112420000Y-82599000D02*
X112420000Y-84050000D01*
X112420000Y-86130000D02*
X112420000Y-87581000D01*
X112461000Y-82610000D02*
X112461000Y-84050000D01*
X112461000Y-86130000D02*
X112461000Y-87570000D01*
X112501000Y-82622000D02*
X112501000Y-84050000D01*
X112501000Y-86130000D02*
X112501000Y-87558000D01*
X112541000Y-82635000D02*
X112541000Y-84050000D01*
X112541000Y-86130000D02*
X112541000Y-87545000D01*
X112581000Y-82648000D02*
X112581000Y-84050000D01*
X112581000Y-86130000D02*
X112581000Y-87532000D01*
X112621000Y-82662000D02*
X112621000Y-84050000D01*
X112621000Y-86130000D02*
X112621000Y-87518000D01*
X112661000Y-82676000D02*
X112661000Y-84050000D01*
X112661000Y-86130000D02*
X112661000Y-87504000D01*
X112701000Y-82692000D02*
X112701000Y-84050000D01*
X112701000Y-86130000D02*
X112701000Y-87488000D01*
X112741000Y-82708000D02*
X112741000Y-84050000D01*
X112741000Y-86130000D02*
X112741000Y-87472000D01*
X112781000Y-82725000D02*
X112781000Y-84050000D01*
X112781000Y-86130000D02*
X112781000Y-87455000D01*
X112821000Y-82742000D02*
X112821000Y-84050000D01*
X112821000Y-86130000D02*
X112821000Y-87438000D01*
X112861000Y-82761000D02*
X112861000Y-84050000D01*
X112861000Y-86130000D02*
X112861000Y-87419000D01*
X112901000Y-82780000D02*
X112901000Y-84050000D01*
X112901000Y-86130000D02*
X112901000Y-87400000D01*
X112941000Y-82800000D02*
X112941000Y-84050000D01*
X112941000Y-86130000D02*
X112941000Y-87380000D01*
X112981000Y-82822000D02*
X112981000Y-84050000D01*
X112981000Y-86130000D02*
X112981000Y-87358000D01*
X113021000Y-82843000D02*
X113021000Y-84050000D01*
X113021000Y-86130000D02*
X113021000Y-87337000D01*
X113061000Y-82866000D02*
X113061000Y-84050000D01*
X113061000Y-86130000D02*
X113061000Y-87314000D01*
X113101000Y-82890000D02*
X113101000Y-84050000D01*
X113101000Y-86130000D02*
X113101000Y-87290000D01*
X113141000Y-82915000D02*
X113141000Y-84050000D01*
X113141000Y-86130000D02*
X113141000Y-87265000D01*
X113181000Y-82941000D02*
X113181000Y-84050000D01*
X113181000Y-86130000D02*
X113181000Y-87239000D01*
X113221000Y-82968000D02*
X113221000Y-84050000D01*
X113221000Y-86130000D02*
X113221000Y-87212000D01*
X113261000Y-82995000D02*
X113261000Y-84050000D01*
X113261000Y-86130000D02*
X113261000Y-87185000D01*
X113301000Y-83025000D02*
X113301000Y-84050000D01*
X113301000Y-86130000D02*
X113301000Y-87155000D01*
X113341000Y-83055000D02*
X113341000Y-84050000D01*
X113341000Y-86130000D02*
X113341000Y-87125000D01*
X113381000Y-83086000D02*
X113381000Y-84050000D01*
X113381000Y-86130000D02*
X113381000Y-87094000D01*
X113421000Y-83119000D02*
X113421000Y-84050000D01*
X113421000Y-86130000D02*
X113421000Y-87061000D01*
X113461000Y-83153000D02*
X113461000Y-84050000D01*
X113461000Y-86130000D02*
X113461000Y-87027000D01*
X113501000Y-83189000D02*
X113501000Y-84050000D01*
X113501000Y-86130000D02*
X113501000Y-86991000D01*
X113541000Y-83226000D02*
X113541000Y-84050000D01*
X113541000Y-86130000D02*
X113541000Y-86954000D01*
X113581000Y-83264000D02*
X113581000Y-84050000D01*
X113581000Y-86130000D02*
X113581000Y-86916000D01*
X113621000Y-83305000D02*
X113621000Y-84050000D01*
X113621000Y-86130000D02*
X113621000Y-86875000D01*
X113661000Y-83347000D02*
X113661000Y-84050000D01*
X113661000Y-86130000D02*
X113661000Y-86833000D01*
X113701000Y-83391000D02*
X113701000Y-84050000D01*
X113701000Y-86130000D02*
X113701000Y-86789000D01*
X113741000Y-83437000D02*
X113741000Y-84050000D01*
X113741000Y-86130000D02*
X113741000Y-86743000D01*
X113781000Y-83485000D02*
X113781000Y-84050000D01*
X113781000Y-86130000D02*
X113781000Y-86695000D01*
X113821000Y-83536000D02*
X113821000Y-84050000D01*
X113821000Y-86130000D02*
X113821000Y-86644000D01*
X113861000Y-83590000D02*
X113861000Y-84050000D01*
X113861000Y-86130000D02*
X113861000Y-86590000D01*
X113901000Y-83647000D02*
X113901000Y-84050000D01*
X113901000Y-86130000D02*
X113901000Y-86533000D01*
X113941000Y-83707000D02*
X113941000Y-84050000D01*
X113941000Y-86130000D02*
X113941000Y-86473000D01*
X113981000Y-83771000D02*
X113981000Y-84050000D01*
X113981000Y-86130000D02*
X113981000Y-86409000D01*
X114021000Y-83839000D02*
X114021000Y-84050000D01*
X114021000Y-86130000D02*
X114021000Y-86341000D01*
X114061000Y-83912000D02*
X114061000Y-86268000D01*
X114101000Y-83992000D02*
X114101000Y-86188000D01*
X114141000Y-84079000D02*
X114141000Y-86101000D01*
X114181000Y-84175000D02*
X114181000Y-86005000D01*
X114221000Y-84285000D02*
X114221000Y-85895000D01*
X114261000Y-84413000D02*
X114261000Y-85767000D01*
X114301000Y-84572000D02*
X114301000Y-85608000D01*
X114341000Y-84806000D02*
X114341000Y-85374000D01*
X110240000Y-83693000D02*
X110740000Y-83693000D01*
X110490000Y-83443000D02*
X110490000Y-83943000D01*
G04 #@! TO.C,C7*
X98930000Y-104675000D02*
X98930000Y-107415000D01*
X91490000Y-104675000D02*
X91490000Y-107415000D01*
X91490000Y-107415000D02*
X98930000Y-107415000D01*
X91490000Y-104675000D02*
X98930000Y-104675000D01*
G04 #@! TO.C,C6*
X98930000Y-100992000D02*
X98930000Y-103732000D01*
X91490000Y-100992000D02*
X91490000Y-103732000D01*
X91490000Y-103732000D02*
X98930000Y-103732000D01*
X91490000Y-100992000D02*
X98930000Y-100992000D01*
G04 #@! TO.C,C5*
X106804000Y-86895000D02*
X106804000Y-89635000D01*
X99364000Y-86895000D02*
X99364000Y-89635000D01*
X99364000Y-89635000D02*
X106804000Y-89635000D01*
X99364000Y-86895000D02*
X106804000Y-86895000D01*
G04 #@! TO.C,C4*
X108080000Y-101700000D02*
X108080000Y-98960000D01*
X115520000Y-101700000D02*
X115520000Y-98960000D01*
X115520000Y-98960000D02*
X108080000Y-98960000D01*
X115520000Y-101700000D02*
X108080000Y-101700000D01*
G04 #@! TO.C,C3*
X106550000Y-118645000D02*
X106550000Y-121385000D01*
X99110000Y-118645000D02*
X99110000Y-121385000D01*
X99110000Y-121385000D02*
X106550000Y-121385000D01*
X99110000Y-118645000D02*
X106550000Y-118645000D01*
G04 #@! TO.C,C2*
X116011000Y-129794000D02*
G75*
G03*
X116011000Y-129794000I-2620000J0D01*
G01*
X113391000Y-127214000D02*
X113391000Y-132374000D01*
X113431000Y-127214000D02*
X113431000Y-132374000D01*
X113471000Y-127215000D02*
X113471000Y-132373000D01*
X113511000Y-127216000D02*
X113511000Y-132372000D01*
X113551000Y-127218000D02*
X113551000Y-132370000D01*
X113591000Y-127221000D02*
X113591000Y-132367000D01*
X113631000Y-127225000D02*
X113631000Y-128754000D01*
X113631000Y-130834000D02*
X113631000Y-132363000D01*
X113671000Y-127229000D02*
X113671000Y-128754000D01*
X113671000Y-130834000D02*
X113671000Y-132359000D01*
X113711000Y-127233000D02*
X113711000Y-128754000D01*
X113711000Y-130834000D02*
X113711000Y-132355000D01*
X113751000Y-127238000D02*
X113751000Y-128754000D01*
X113751000Y-130834000D02*
X113751000Y-132350000D01*
X113791000Y-127244000D02*
X113791000Y-128754000D01*
X113791000Y-130834000D02*
X113791000Y-132344000D01*
X113831000Y-127251000D02*
X113831000Y-128754000D01*
X113831000Y-130834000D02*
X113831000Y-132337000D01*
X113871000Y-127258000D02*
X113871000Y-128754000D01*
X113871000Y-130834000D02*
X113871000Y-132330000D01*
X113911000Y-127266000D02*
X113911000Y-128754000D01*
X113911000Y-130834000D02*
X113911000Y-132322000D01*
X113951000Y-127274000D02*
X113951000Y-128754000D01*
X113951000Y-130834000D02*
X113951000Y-132314000D01*
X113991000Y-127283000D02*
X113991000Y-128754000D01*
X113991000Y-130834000D02*
X113991000Y-132305000D01*
X114031000Y-127293000D02*
X114031000Y-128754000D01*
X114031000Y-130834000D02*
X114031000Y-132295000D01*
X114071000Y-127303000D02*
X114071000Y-128754000D01*
X114071000Y-130834000D02*
X114071000Y-132285000D01*
X114112000Y-127314000D02*
X114112000Y-128754000D01*
X114112000Y-130834000D02*
X114112000Y-132274000D01*
X114152000Y-127326000D02*
X114152000Y-128754000D01*
X114152000Y-130834000D02*
X114152000Y-132262000D01*
X114192000Y-127339000D02*
X114192000Y-128754000D01*
X114192000Y-130834000D02*
X114192000Y-132249000D01*
X114232000Y-127352000D02*
X114232000Y-128754000D01*
X114232000Y-130834000D02*
X114232000Y-132236000D01*
X114272000Y-127366000D02*
X114272000Y-128754000D01*
X114272000Y-130834000D02*
X114272000Y-132222000D01*
X114312000Y-127380000D02*
X114312000Y-128754000D01*
X114312000Y-130834000D02*
X114312000Y-132208000D01*
X114352000Y-127396000D02*
X114352000Y-128754000D01*
X114352000Y-130834000D02*
X114352000Y-132192000D01*
X114392000Y-127412000D02*
X114392000Y-128754000D01*
X114392000Y-130834000D02*
X114392000Y-132176000D01*
X114432000Y-127429000D02*
X114432000Y-128754000D01*
X114432000Y-130834000D02*
X114432000Y-132159000D01*
X114472000Y-127446000D02*
X114472000Y-128754000D01*
X114472000Y-130834000D02*
X114472000Y-132142000D01*
X114512000Y-127465000D02*
X114512000Y-128754000D01*
X114512000Y-130834000D02*
X114512000Y-132123000D01*
X114552000Y-127484000D02*
X114552000Y-128754000D01*
X114552000Y-130834000D02*
X114552000Y-132104000D01*
X114592000Y-127504000D02*
X114592000Y-128754000D01*
X114592000Y-130834000D02*
X114592000Y-132084000D01*
X114632000Y-127526000D02*
X114632000Y-128754000D01*
X114632000Y-130834000D02*
X114632000Y-132062000D01*
X114672000Y-127547000D02*
X114672000Y-128754000D01*
X114672000Y-130834000D02*
X114672000Y-132041000D01*
X114712000Y-127570000D02*
X114712000Y-128754000D01*
X114712000Y-130834000D02*
X114712000Y-132018000D01*
X114752000Y-127594000D02*
X114752000Y-128754000D01*
X114752000Y-130834000D02*
X114752000Y-131994000D01*
X114792000Y-127619000D02*
X114792000Y-128754000D01*
X114792000Y-130834000D02*
X114792000Y-131969000D01*
X114832000Y-127645000D02*
X114832000Y-128754000D01*
X114832000Y-130834000D02*
X114832000Y-131943000D01*
X114872000Y-127672000D02*
X114872000Y-128754000D01*
X114872000Y-130834000D02*
X114872000Y-131916000D01*
X114912000Y-127699000D02*
X114912000Y-128754000D01*
X114912000Y-130834000D02*
X114912000Y-131889000D01*
X114952000Y-127729000D02*
X114952000Y-128754000D01*
X114952000Y-130834000D02*
X114952000Y-131859000D01*
X114992000Y-127759000D02*
X114992000Y-128754000D01*
X114992000Y-130834000D02*
X114992000Y-131829000D01*
X115032000Y-127790000D02*
X115032000Y-128754000D01*
X115032000Y-130834000D02*
X115032000Y-131798000D01*
X115072000Y-127823000D02*
X115072000Y-128754000D01*
X115072000Y-130834000D02*
X115072000Y-131765000D01*
X115112000Y-127857000D02*
X115112000Y-128754000D01*
X115112000Y-130834000D02*
X115112000Y-131731000D01*
X115152000Y-127893000D02*
X115152000Y-128754000D01*
X115152000Y-130834000D02*
X115152000Y-131695000D01*
X115192000Y-127930000D02*
X115192000Y-128754000D01*
X115192000Y-130834000D02*
X115192000Y-131658000D01*
X115232000Y-127968000D02*
X115232000Y-128754000D01*
X115232000Y-130834000D02*
X115232000Y-131620000D01*
X115272000Y-128009000D02*
X115272000Y-128754000D01*
X115272000Y-130834000D02*
X115272000Y-131579000D01*
X115312000Y-128051000D02*
X115312000Y-128754000D01*
X115312000Y-130834000D02*
X115312000Y-131537000D01*
X115352000Y-128095000D02*
X115352000Y-128754000D01*
X115352000Y-130834000D02*
X115352000Y-131493000D01*
X115392000Y-128141000D02*
X115392000Y-128754000D01*
X115392000Y-130834000D02*
X115392000Y-131447000D01*
X115432000Y-128189000D02*
X115432000Y-128754000D01*
X115432000Y-130834000D02*
X115432000Y-131399000D01*
X115472000Y-128240000D02*
X115472000Y-128754000D01*
X115472000Y-130834000D02*
X115472000Y-131348000D01*
X115512000Y-128294000D02*
X115512000Y-128754000D01*
X115512000Y-130834000D02*
X115512000Y-131294000D01*
X115552000Y-128351000D02*
X115552000Y-128754000D01*
X115552000Y-130834000D02*
X115552000Y-131237000D01*
X115592000Y-128411000D02*
X115592000Y-128754000D01*
X115592000Y-130834000D02*
X115592000Y-131177000D01*
X115632000Y-128475000D02*
X115632000Y-128754000D01*
X115632000Y-130834000D02*
X115632000Y-131113000D01*
X115672000Y-128543000D02*
X115672000Y-128754000D01*
X115672000Y-130834000D02*
X115672000Y-131045000D01*
X115712000Y-128616000D02*
X115712000Y-130972000D01*
X115752000Y-128696000D02*
X115752000Y-130892000D01*
X115792000Y-128783000D02*
X115792000Y-130805000D01*
X115832000Y-128879000D02*
X115832000Y-130709000D01*
X115872000Y-128989000D02*
X115872000Y-130599000D01*
X115912000Y-129117000D02*
X115912000Y-130471000D01*
X115952000Y-129276000D02*
X115952000Y-130312000D01*
X115992000Y-129510000D02*
X115992000Y-130078000D01*
X111891000Y-128397000D02*
X112391000Y-128397000D01*
X112141000Y-128147000D02*
X112141000Y-128647000D01*
G04 #@! TO.C,C1*
X97660000Y-120677000D02*
X97660000Y-123417000D01*
X90220000Y-120677000D02*
X90220000Y-123417000D01*
X90220000Y-123417000D02*
X97660000Y-123417000D01*
X90220000Y-120677000D02*
X97660000Y-120677000D01*
G04 #@! TO.C,R27*
X104895714Y-83546904D02*
X104629047Y-83165952D01*
X104438571Y-83546904D02*
X104438571Y-82746904D01*
X104743333Y-82746904D01*
X104819523Y-82785000D01*
X104857619Y-82823095D01*
X104895714Y-82899285D01*
X104895714Y-83013571D01*
X104857619Y-83089761D01*
X104819523Y-83127857D01*
X104743333Y-83165952D01*
X104438571Y-83165952D01*
X105200476Y-82823095D02*
X105238571Y-82785000D01*
X105314761Y-82746904D01*
X105505238Y-82746904D01*
X105581428Y-82785000D01*
X105619523Y-82823095D01*
X105657619Y-82899285D01*
X105657619Y-82975476D01*
X105619523Y-83089761D01*
X105162380Y-83546904D01*
X105657619Y-83546904D01*
X105924285Y-82746904D02*
X106457619Y-82746904D01*
X106114761Y-83546904D01*
G04 #@! TO.C,R26*
X111245714Y-124186904D02*
X110979047Y-123805952D01*
X110788571Y-124186904D02*
X110788571Y-123386904D01*
X111093333Y-123386904D01*
X111169523Y-123425000D01*
X111207619Y-123463095D01*
X111245714Y-123539285D01*
X111245714Y-123653571D01*
X111207619Y-123729761D01*
X111169523Y-123767857D01*
X111093333Y-123805952D01*
X110788571Y-123805952D01*
X111550476Y-123463095D02*
X111588571Y-123425000D01*
X111664761Y-123386904D01*
X111855238Y-123386904D01*
X111931428Y-123425000D01*
X111969523Y-123463095D01*
X112007619Y-123539285D01*
X112007619Y-123615476D01*
X111969523Y-123729761D01*
X111512380Y-124186904D01*
X112007619Y-124186904D01*
X112693333Y-123386904D02*
X112540952Y-123386904D01*
X112464761Y-123425000D01*
X112426666Y-123463095D01*
X112350476Y-123577380D01*
X112312380Y-123729761D01*
X112312380Y-124034523D01*
X112350476Y-124110714D01*
X112388571Y-124148809D01*
X112464761Y-124186904D01*
X112617142Y-124186904D01*
X112693333Y-124148809D01*
X112731428Y-124110714D01*
X112769523Y-124034523D01*
X112769523Y-123844047D01*
X112731428Y-123767857D01*
X112693333Y-123729761D01*
X112617142Y-123691666D01*
X112464761Y-123691666D01*
X112388571Y-123729761D01*
X112350476Y-123767857D01*
X112312380Y-123844047D01*
G04 #@! TO.C,R25*
X111245714Y-103866904D02*
X110979047Y-103485952D01*
X110788571Y-103866904D02*
X110788571Y-103066904D01*
X111093333Y-103066904D01*
X111169523Y-103105000D01*
X111207619Y-103143095D01*
X111245714Y-103219285D01*
X111245714Y-103333571D01*
X111207619Y-103409761D01*
X111169523Y-103447857D01*
X111093333Y-103485952D01*
X110788571Y-103485952D01*
X111550476Y-103143095D02*
X111588571Y-103105000D01*
X111664761Y-103066904D01*
X111855238Y-103066904D01*
X111931428Y-103105000D01*
X111969523Y-103143095D01*
X112007619Y-103219285D01*
X112007619Y-103295476D01*
X111969523Y-103409761D01*
X111512380Y-103866904D01*
X112007619Y-103866904D01*
X112731428Y-103066904D02*
X112350476Y-103066904D01*
X112312380Y-103447857D01*
X112350476Y-103409761D01*
X112426666Y-103371666D01*
X112617142Y-103371666D01*
X112693333Y-103409761D01*
X112731428Y-103447857D01*
X112769523Y-103524047D01*
X112769523Y-103714523D01*
X112731428Y-103790714D01*
X112693333Y-103828809D01*
X112617142Y-103866904D01*
X112426666Y-103866904D01*
X112350476Y-103828809D01*
X112312380Y-103790714D01*
G04 #@! TO.C,R24*
X111245714Y-106406904D02*
X110979047Y-106025952D01*
X110788571Y-106406904D02*
X110788571Y-105606904D01*
X111093333Y-105606904D01*
X111169523Y-105645000D01*
X111207619Y-105683095D01*
X111245714Y-105759285D01*
X111245714Y-105873571D01*
X111207619Y-105949761D01*
X111169523Y-105987857D01*
X111093333Y-106025952D01*
X110788571Y-106025952D01*
X111550476Y-105683095D02*
X111588571Y-105645000D01*
X111664761Y-105606904D01*
X111855238Y-105606904D01*
X111931428Y-105645000D01*
X111969523Y-105683095D01*
X112007619Y-105759285D01*
X112007619Y-105835476D01*
X111969523Y-105949761D01*
X111512380Y-106406904D01*
X112007619Y-106406904D01*
X112693333Y-105873571D02*
X112693333Y-106406904D01*
X112502857Y-105568809D02*
X112312380Y-106140238D01*
X112807619Y-106140238D01*
G04 #@! TO.C,R23*
X111245714Y-108946904D02*
X110979047Y-108565952D01*
X110788571Y-108946904D02*
X110788571Y-108146904D01*
X111093333Y-108146904D01*
X111169523Y-108185000D01*
X111207619Y-108223095D01*
X111245714Y-108299285D01*
X111245714Y-108413571D01*
X111207619Y-108489761D01*
X111169523Y-108527857D01*
X111093333Y-108565952D01*
X110788571Y-108565952D01*
X111550476Y-108223095D02*
X111588571Y-108185000D01*
X111664761Y-108146904D01*
X111855238Y-108146904D01*
X111931428Y-108185000D01*
X111969523Y-108223095D01*
X112007619Y-108299285D01*
X112007619Y-108375476D01*
X111969523Y-108489761D01*
X111512380Y-108946904D01*
X112007619Y-108946904D01*
X112274285Y-108146904D02*
X112769523Y-108146904D01*
X112502857Y-108451666D01*
X112617142Y-108451666D01*
X112693333Y-108489761D01*
X112731428Y-108527857D01*
X112769523Y-108604047D01*
X112769523Y-108794523D01*
X112731428Y-108870714D01*
X112693333Y-108908809D01*
X112617142Y-108946904D01*
X112388571Y-108946904D01*
X112312380Y-108908809D01*
X112274285Y-108870714D01*
G04 #@! TO.C,R22*
X111245714Y-94341904D02*
X110979047Y-93960952D01*
X110788571Y-94341904D02*
X110788571Y-93541904D01*
X111093333Y-93541904D01*
X111169523Y-93580000D01*
X111207619Y-93618095D01*
X111245714Y-93694285D01*
X111245714Y-93808571D01*
X111207619Y-93884761D01*
X111169523Y-93922857D01*
X111093333Y-93960952D01*
X110788571Y-93960952D01*
X111550476Y-93618095D02*
X111588571Y-93580000D01*
X111664761Y-93541904D01*
X111855238Y-93541904D01*
X111931428Y-93580000D01*
X111969523Y-93618095D01*
X112007619Y-93694285D01*
X112007619Y-93770476D01*
X111969523Y-93884761D01*
X111512380Y-94341904D01*
X112007619Y-94341904D01*
X112312380Y-93618095D02*
X112350476Y-93580000D01*
X112426666Y-93541904D01*
X112617142Y-93541904D01*
X112693333Y-93580000D01*
X112731428Y-93618095D01*
X112769523Y-93694285D01*
X112769523Y-93770476D01*
X112731428Y-93884761D01*
X112274285Y-94341904D01*
X112769523Y-94341904D01*
G04 #@! TO.C,R21*
X92830714Y-125075904D02*
X92564047Y-124694952D01*
X92373571Y-125075904D02*
X92373571Y-124275904D01*
X92678333Y-124275904D01*
X92754523Y-124314000D01*
X92792619Y-124352095D01*
X92830714Y-124428285D01*
X92830714Y-124542571D01*
X92792619Y-124618761D01*
X92754523Y-124656857D01*
X92678333Y-124694952D01*
X92373571Y-124694952D01*
X93135476Y-124352095D02*
X93173571Y-124314000D01*
X93249761Y-124275904D01*
X93440238Y-124275904D01*
X93516428Y-124314000D01*
X93554523Y-124352095D01*
X93592619Y-124428285D01*
X93592619Y-124504476D01*
X93554523Y-124618761D01*
X93097380Y-125075904D01*
X93592619Y-125075904D01*
X94354523Y-125075904D02*
X93897380Y-125075904D01*
X94125952Y-125075904D02*
X94125952Y-124275904D01*
X94049761Y-124390190D01*
X93973571Y-124466380D01*
X93897380Y-124504476D01*
G04 #@! TO.C,R20*
X92195714Y-92055904D02*
X91929047Y-91674952D01*
X91738571Y-92055904D02*
X91738571Y-91255904D01*
X92043333Y-91255904D01*
X92119523Y-91294000D01*
X92157619Y-91332095D01*
X92195714Y-91408285D01*
X92195714Y-91522571D01*
X92157619Y-91598761D01*
X92119523Y-91636857D01*
X92043333Y-91674952D01*
X91738571Y-91674952D01*
X92500476Y-91332095D02*
X92538571Y-91294000D01*
X92614761Y-91255904D01*
X92805238Y-91255904D01*
X92881428Y-91294000D01*
X92919523Y-91332095D01*
X92957619Y-91408285D01*
X92957619Y-91484476D01*
X92919523Y-91598761D01*
X92462380Y-92055904D01*
X92957619Y-92055904D01*
X93452857Y-91255904D02*
X93529047Y-91255904D01*
X93605238Y-91294000D01*
X93643333Y-91332095D01*
X93681428Y-91408285D01*
X93719523Y-91560666D01*
X93719523Y-91751142D01*
X93681428Y-91903523D01*
X93643333Y-91979714D01*
X93605238Y-92017809D01*
X93529047Y-92055904D01*
X93452857Y-92055904D01*
X93376666Y-92017809D01*
X93338571Y-91979714D01*
X93300476Y-91903523D01*
X93262380Y-91751142D01*
X93262380Y-91560666D01*
X93300476Y-91408285D01*
X93338571Y-91332095D01*
X93376666Y-91294000D01*
X93452857Y-91255904D01*
G04 #@! TO.C,R19*
X111245714Y-91801904D02*
X110979047Y-91420952D01*
X110788571Y-91801904D02*
X110788571Y-91001904D01*
X111093333Y-91001904D01*
X111169523Y-91040000D01*
X111207619Y-91078095D01*
X111245714Y-91154285D01*
X111245714Y-91268571D01*
X111207619Y-91344761D01*
X111169523Y-91382857D01*
X111093333Y-91420952D01*
X110788571Y-91420952D01*
X112007619Y-91801904D02*
X111550476Y-91801904D01*
X111779047Y-91801904D02*
X111779047Y-91001904D01*
X111702857Y-91116190D01*
X111626666Y-91192380D01*
X111550476Y-91230476D01*
X112388571Y-91801904D02*
X112540952Y-91801904D01*
X112617142Y-91763809D01*
X112655238Y-91725714D01*
X112731428Y-91611428D01*
X112769523Y-91459047D01*
X112769523Y-91154285D01*
X112731428Y-91078095D01*
X112693333Y-91040000D01*
X112617142Y-91001904D01*
X112464761Y-91001904D01*
X112388571Y-91040000D01*
X112350476Y-91078095D01*
X112312380Y-91154285D01*
X112312380Y-91344761D01*
X112350476Y-91420952D01*
X112388571Y-91459047D01*
X112464761Y-91497142D01*
X112617142Y-91497142D01*
X112693333Y-91459047D01*
X112731428Y-91420952D01*
X112769523Y-91344761D01*
G04 #@! TO.C,R18*
X102482714Y-85832904D02*
X102216047Y-85451952D01*
X102025571Y-85832904D02*
X102025571Y-85032904D01*
X102330333Y-85032904D01*
X102406523Y-85071000D01*
X102444619Y-85109095D01*
X102482714Y-85185285D01*
X102482714Y-85299571D01*
X102444619Y-85375761D01*
X102406523Y-85413857D01*
X102330333Y-85451952D01*
X102025571Y-85451952D01*
X103244619Y-85832904D02*
X102787476Y-85832904D01*
X103016047Y-85832904D02*
X103016047Y-85032904D01*
X102939857Y-85147190D01*
X102863666Y-85223380D01*
X102787476Y-85261476D01*
X103701761Y-85375761D02*
X103625571Y-85337666D01*
X103587476Y-85299571D01*
X103549380Y-85223380D01*
X103549380Y-85185285D01*
X103587476Y-85109095D01*
X103625571Y-85071000D01*
X103701761Y-85032904D01*
X103854142Y-85032904D01*
X103930333Y-85071000D01*
X103968428Y-85109095D01*
X104006523Y-85185285D01*
X104006523Y-85223380D01*
X103968428Y-85299571D01*
X103930333Y-85337666D01*
X103854142Y-85375761D01*
X103701761Y-85375761D01*
X103625571Y-85413857D01*
X103587476Y-85451952D01*
X103549380Y-85528142D01*
X103549380Y-85680523D01*
X103587476Y-85756714D01*
X103625571Y-85794809D01*
X103701761Y-85832904D01*
X103854142Y-85832904D01*
X103930333Y-85794809D01*
X103968428Y-85756714D01*
X104006523Y-85680523D01*
X104006523Y-85528142D01*
X103968428Y-85451952D01*
X103930333Y-85413857D01*
X103854142Y-85375761D01*
G04 #@! TO.C,R17*
X90531904Y-104400285D02*
X90150952Y-104666952D01*
X90531904Y-104857428D02*
X89731904Y-104857428D01*
X89731904Y-104552666D01*
X89770000Y-104476476D01*
X89808095Y-104438380D01*
X89884285Y-104400285D01*
X89998571Y-104400285D01*
X90074761Y-104438380D01*
X90112857Y-104476476D01*
X90150952Y-104552666D01*
X90150952Y-104857428D01*
X90531904Y-103638380D02*
X90531904Y-104095523D01*
X90531904Y-103866952D02*
X89731904Y-103866952D01*
X89846190Y-103943142D01*
X89922380Y-104019333D01*
X89960476Y-104095523D01*
X89731904Y-103371714D02*
X89731904Y-102838380D01*
X90531904Y-103181238D01*
G04 #@! TO.C,R16*
X92195714Y-94468904D02*
X91929047Y-94087952D01*
X91738571Y-94468904D02*
X91738571Y-93668904D01*
X92043333Y-93668904D01*
X92119523Y-93707000D01*
X92157619Y-93745095D01*
X92195714Y-93821285D01*
X92195714Y-93935571D01*
X92157619Y-94011761D01*
X92119523Y-94049857D01*
X92043333Y-94087952D01*
X91738571Y-94087952D01*
X92957619Y-94468904D02*
X92500476Y-94468904D01*
X92729047Y-94468904D02*
X92729047Y-93668904D01*
X92652857Y-93783190D01*
X92576666Y-93859380D01*
X92500476Y-93897476D01*
X93643333Y-93668904D02*
X93490952Y-93668904D01*
X93414761Y-93707000D01*
X93376666Y-93745095D01*
X93300476Y-93859380D01*
X93262380Y-94011761D01*
X93262380Y-94316523D01*
X93300476Y-94392714D01*
X93338571Y-94430809D01*
X93414761Y-94468904D01*
X93567142Y-94468904D01*
X93643333Y-94430809D01*
X93681428Y-94392714D01*
X93719523Y-94316523D01*
X93719523Y-94126047D01*
X93681428Y-94049857D01*
X93643333Y-94011761D01*
X93567142Y-93973666D01*
X93414761Y-93973666D01*
X93338571Y-94011761D01*
X93300476Y-94049857D01*
X93262380Y-94126047D01*
G04 #@! TO.C,R15*
X92195714Y-96881904D02*
X91929047Y-96500952D01*
X91738571Y-96881904D02*
X91738571Y-96081904D01*
X92043333Y-96081904D01*
X92119523Y-96120000D01*
X92157619Y-96158095D01*
X92195714Y-96234285D01*
X92195714Y-96348571D01*
X92157619Y-96424761D01*
X92119523Y-96462857D01*
X92043333Y-96500952D01*
X91738571Y-96500952D01*
X92957619Y-96881904D02*
X92500476Y-96881904D01*
X92729047Y-96881904D02*
X92729047Y-96081904D01*
X92652857Y-96196190D01*
X92576666Y-96272380D01*
X92500476Y-96310476D01*
X93681428Y-96081904D02*
X93300476Y-96081904D01*
X93262380Y-96462857D01*
X93300476Y-96424761D01*
X93376666Y-96386666D01*
X93567142Y-96386666D01*
X93643333Y-96424761D01*
X93681428Y-96462857D01*
X93719523Y-96539047D01*
X93719523Y-96729523D01*
X93681428Y-96805714D01*
X93643333Y-96843809D01*
X93567142Y-96881904D01*
X93376666Y-96881904D01*
X93300476Y-96843809D01*
X93262380Y-96805714D01*
G04 #@! TO.C,R14*
X92830714Y-127488904D02*
X92564047Y-127107952D01*
X92373571Y-127488904D02*
X92373571Y-126688904D01*
X92678333Y-126688904D01*
X92754523Y-126727000D01*
X92792619Y-126765095D01*
X92830714Y-126841285D01*
X92830714Y-126955571D01*
X92792619Y-127031761D01*
X92754523Y-127069857D01*
X92678333Y-127107952D01*
X92373571Y-127107952D01*
X93592619Y-127488904D02*
X93135476Y-127488904D01*
X93364047Y-127488904D02*
X93364047Y-126688904D01*
X93287857Y-126803190D01*
X93211666Y-126879380D01*
X93135476Y-126917476D01*
X94278333Y-126955571D02*
X94278333Y-127488904D01*
X94087857Y-126650809D02*
X93897380Y-127222238D01*
X94392619Y-127222238D01*
G04 #@! TO.C,R13*
X92195714Y-99294904D02*
X91929047Y-98913952D01*
X91738571Y-99294904D02*
X91738571Y-98494904D01*
X92043333Y-98494904D01*
X92119523Y-98533000D01*
X92157619Y-98571095D01*
X92195714Y-98647285D01*
X92195714Y-98761571D01*
X92157619Y-98837761D01*
X92119523Y-98875857D01*
X92043333Y-98913952D01*
X91738571Y-98913952D01*
X92957619Y-99294904D02*
X92500476Y-99294904D01*
X92729047Y-99294904D02*
X92729047Y-98494904D01*
X92652857Y-98609190D01*
X92576666Y-98685380D01*
X92500476Y-98723476D01*
X93224285Y-98494904D02*
X93719523Y-98494904D01*
X93452857Y-98799666D01*
X93567142Y-98799666D01*
X93643333Y-98837761D01*
X93681428Y-98875857D01*
X93719523Y-98952047D01*
X93719523Y-99142523D01*
X93681428Y-99218714D01*
X93643333Y-99256809D01*
X93567142Y-99294904D01*
X93338571Y-99294904D01*
X93262380Y-99256809D01*
X93224285Y-99218714D01*
G04 #@! TO.C,R12*
X111245714Y-111486904D02*
X110979047Y-111105952D01*
X110788571Y-111486904D02*
X110788571Y-110686904D01*
X111093333Y-110686904D01*
X111169523Y-110725000D01*
X111207619Y-110763095D01*
X111245714Y-110839285D01*
X111245714Y-110953571D01*
X111207619Y-111029761D01*
X111169523Y-111067857D01*
X111093333Y-111105952D01*
X110788571Y-111105952D01*
X112007619Y-111486904D02*
X111550476Y-111486904D01*
X111779047Y-111486904D02*
X111779047Y-110686904D01*
X111702857Y-110801190D01*
X111626666Y-110877380D01*
X111550476Y-110915476D01*
X112312380Y-110763095D02*
X112350476Y-110725000D01*
X112426666Y-110686904D01*
X112617142Y-110686904D01*
X112693333Y-110725000D01*
X112731428Y-110763095D01*
X112769523Y-110839285D01*
X112769523Y-110915476D01*
X112731428Y-111029761D01*
X112274285Y-111486904D01*
X112769523Y-111486904D01*
G04 #@! TO.C,R11*
X111245714Y-89261904D02*
X110979047Y-88880952D01*
X110788571Y-89261904D02*
X110788571Y-88461904D01*
X111093333Y-88461904D01*
X111169523Y-88500000D01*
X111207619Y-88538095D01*
X111245714Y-88614285D01*
X111245714Y-88728571D01*
X111207619Y-88804761D01*
X111169523Y-88842857D01*
X111093333Y-88880952D01*
X110788571Y-88880952D01*
X112007619Y-89261904D02*
X111550476Y-89261904D01*
X111779047Y-89261904D02*
X111779047Y-88461904D01*
X111702857Y-88576190D01*
X111626666Y-88652380D01*
X111550476Y-88690476D01*
X112769523Y-89261904D02*
X112312380Y-89261904D01*
X112540952Y-89261904D02*
X112540952Y-88461904D01*
X112464761Y-88576190D01*
X112388571Y-88652380D01*
X112312380Y-88690476D01*
G04 #@! TO.C,R10*
X111245714Y-114026904D02*
X110979047Y-113645952D01*
X110788571Y-114026904D02*
X110788571Y-113226904D01*
X111093333Y-113226904D01*
X111169523Y-113265000D01*
X111207619Y-113303095D01*
X111245714Y-113379285D01*
X111245714Y-113493571D01*
X111207619Y-113569761D01*
X111169523Y-113607857D01*
X111093333Y-113645952D01*
X110788571Y-113645952D01*
X112007619Y-114026904D02*
X111550476Y-114026904D01*
X111779047Y-114026904D02*
X111779047Y-113226904D01*
X111702857Y-113341190D01*
X111626666Y-113417380D01*
X111550476Y-113455476D01*
X112502857Y-113226904D02*
X112579047Y-113226904D01*
X112655238Y-113265000D01*
X112693333Y-113303095D01*
X112731428Y-113379285D01*
X112769523Y-113531666D01*
X112769523Y-113722142D01*
X112731428Y-113874523D01*
X112693333Y-113950714D01*
X112655238Y-113988809D01*
X112579047Y-114026904D01*
X112502857Y-114026904D01*
X112426666Y-113988809D01*
X112388571Y-113950714D01*
X112350476Y-113874523D01*
X112312380Y-113722142D01*
X112312380Y-113531666D01*
X112350476Y-113379285D01*
X112388571Y-113303095D01*
X112426666Y-113265000D01*
X112502857Y-113226904D01*
G04 #@! TO.C,R9*
X111626666Y-116566904D02*
X111360000Y-116185952D01*
X111169523Y-116566904D02*
X111169523Y-115766904D01*
X111474285Y-115766904D01*
X111550476Y-115805000D01*
X111588571Y-115843095D01*
X111626666Y-115919285D01*
X111626666Y-116033571D01*
X111588571Y-116109761D01*
X111550476Y-116147857D01*
X111474285Y-116185952D01*
X111169523Y-116185952D01*
X112007619Y-116566904D02*
X112160000Y-116566904D01*
X112236190Y-116528809D01*
X112274285Y-116490714D01*
X112350476Y-116376428D01*
X112388571Y-116224047D01*
X112388571Y-115919285D01*
X112350476Y-115843095D01*
X112312380Y-115805000D01*
X112236190Y-115766904D01*
X112083809Y-115766904D01*
X112007619Y-115805000D01*
X111969523Y-115843095D01*
X111931428Y-115919285D01*
X111931428Y-116109761D01*
X111969523Y-116185952D01*
X112007619Y-116224047D01*
X112083809Y-116262142D01*
X112236190Y-116262142D01*
X112312380Y-116224047D01*
X112350476Y-116185952D01*
X112388571Y-116109761D01*
G04 #@! TO.C,R8*
X111626666Y-119106904D02*
X111360000Y-118725952D01*
X111169523Y-119106904D02*
X111169523Y-118306904D01*
X111474285Y-118306904D01*
X111550476Y-118345000D01*
X111588571Y-118383095D01*
X111626666Y-118459285D01*
X111626666Y-118573571D01*
X111588571Y-118649761D01*
X111550476Y-118687857D01*
X111474285Y-118725952D01*
X111169523Y-118725952D01*
X112083809Y-118649761D02*
X112007619Y-118611666D01*
X111969523Y-118573571D01*
X111931428Y-118497380D01*
X111931428Y-118459285D01*
X111969523Y-118383095D01*
X112007619Y-118345000D01*
X112083809Y-118306904D01*
X112236190Y-118306904D01*
X112312380Y-118345000D01*
X112350476Y-118383095D01*
X112388571Y-118459285D01*
X112388571Y-118497380D01*
X112350476Y-118573571D01*
X112312380Y-118611666D01*
X112236190Y-118649761D01*
X112083809Y-118649761D01*
X112007619Y-118687857D01*
X111969523Y-118725952D01*
X111931428Y-118802142D01*
X111931428Y-118954523D01*
X111969523Y-119030714D01*
X112007619Y-119068809D01*
X112083809Y-119106904D01*
X112236190Y-119106904D01*
X112312380Y-119068809D01*
X112350476Y-119030714D01*
X112388571Y-118954523D01*
X112388571Y-118802142D01*
X112350476Y-118725952D01*
X112312380Y-118687857D01*
X112236190Y-118649761D01*
G04 #@! TO.C,R7*
X111626666Y-121646904D02*
X111360000Y-121265952D01*
X111169523Y-121646904D02*
X111169523Y-120846904D01*
X111474285Y-120846904D01*
X111550476Y-120885000D01*
X111588571Y-120923095D01*
X111626666Y-120999285D01*
X111626666Y-121113571D01*
X111588571Y-121189761D01*
X111550476Y-121227857D01*
X111474285Y-121265952D01*
X111169523Y-121265952D01*
X111893333Y-120846904D02*
X112426666Y-120846904D01*
X112083809Y-121646904D01*
G04 #@! TO.C,R6*
X92576666Y-109581904D02*
X92310000Y-109200952D01*
X92119523Y-109581904D02*
X92119523Y-108781904D01*
X92424285Y-108781904D01*
X92500476Y-108820000D01*
X92538571Y-108858095D01*
X92576666Y-108934285D01*
X92576666Y-109048571D01*
X92538571Y-109124761D01*
X92500476Y-109162857D01*
X92424285Y-109200952D01*
X92119523Y-109200952D01*
X93262380Y-108781904D02*
X93110000Y-108781904D01*
X93033809Y-108820000D01*
X92995714Y-108858095D01*
X92919523Y-108972380D01*
X92881428Y-109124761D01*
X92881428Y-109429523D01*
X92919523Y-109505714D01*
X92957619Y-109543809D01*
X93033809Y-109581904D01*
X93186190Y-109581904D01*
X93262380Y-109543809D01*
X93300476Y-109505714D01*
X93338571Y-109429523D01*
X93338571Y-109239047D01*
X93300476Y-109162857D01*
X93262380Y-109124761D01*
X93186190Y-109086666D01*
X93033809Y-109086666D01*
X92957619Y-109124761D01*
X92919523Y-109162857D01*
X92881428Y-109239047D01*
G04 #@! TO.C,R5*
X92576666Y-112121904D02*
X92310000Y-111740952D01*
X92119523Y-112121904D02*
X92119523Y-111321904D01*
X92424285Y-111321904D01*
X92500476Y-111360000D01*
X92538571Y-111398095D01*
X92576666Y-111474285D01*
X92576666Y-111588571D01*
X92538571Y-111664761D01*
X92500476Y-111702857D01*
X92424285Y-111740952D01*
X92119523Y-111740952D01*
X93300476Y-111321904D02*
X92919523Y-111321904D01*
X92881428Y-111702857D01*
X92919523Y-111664761D01*
X92995714Y-111626666D01*
X93186190Y-111626666D01*
X93262380Y-111664761D01*
X93300476Y-111702857D01*
X93338571Y-111779047D01*
X93338571Y-111969523D01*
X93300476Y-112045714D01*
X93262380Y-112083809D01*
X93186190Y-112121904D01*
X92995714Y-112121904D01*
X92919523Y-112083809D01*
X92881428Y-112045714D01*
G04 #@! TO.C,R4*
X92576666Y-114661904D02*
X92310000Y-114280952D01*
X92119523Y-114661904D02*
X92119523Y-113861904D01*
X92424285Y-113861904D01*
X92500476Y-113900000D01*
X92538571Y-113938095D01*
X92576666Y-114014285D01*
X92576666Y-114128571D01*
X92538571Y-114204761D01*
X92500476Y-114242857D01*
X92424285Y-114280952D01*
X92119523Y-114280952D01*
X93262380Y-114128571D02*
X93262380Y-114661904D01*
X93071904Y-113823809D02*
X92881428Y-114395238D01*
X93376666Y-114395238D01*
G04 #@! TO.C,R3*
X92576666Y-117201904D02*
X92310000Y-116820952D01*
X92119523Y-117201904D02*
X92119523Y-116401904D01*
X92424285Y-116401904D01*
X92500476Y-116440000D01*
X92538571Y-116478095D01*
X92576666Y-116554285D01*
X92576666Y-116668571D01*
X92538571Y-116744761D01*
X92500476Y-116782857D01*
X92424285Y-116820952D01*
X92119523Y-116820952D01*
X92843333Y-116401904D02*
X93338571Y-116401904D01*
X93071904Y-116706666D01*
X93186190Y-116706666D01*
X93262380Y-116744761D01*
X93300476Y-116782857D01*
X93338571Y-116859047D01*
X93338571Y-117049523D01*
X93300476Y-117125714D01*
X93262380Y-117163809D01*
X93186190Y-117201904D01*
X92957619Y-117201904D01*
X92881428Y-117163809D01*
X92843333Y-117125714D01*
G04 #@! TO.C,R2*
X104133666Y-106660904D02*
X103867000Y-106279952D01*
X103676523Y-106660904D02*
X103676523Y-105860904D01*
X103981285Y-105860904D01*
X104057476Y-105899000D01*
X104095571Y-105937095D01*
X104133666Y-106013285D01*
X104133666Y-106127571D01*
X104095571Y-106203761D01*
X104057476Y-106241857D01*
X103981285Y-106279952D01*
X103676523Y-106279952D01*
X104438428Y-105937095D02*
X104476523Y-105899000D01*
X104552714Y-105860904D01*
X104743190Y-105860904D01*
X104819380Y-105899000D01*
X104857476Y-105937095D01*
X104895571Y-106013285D01*
X104895571Y-106089476D01*
X104857476Y-106203761D01*
X104400333Y-106660904D01*
X104895571Y-106660904D01*
G04 #@! TO.C,R1*
X92576666Y-119741904D02*
X92310000Y-119360952D01*
X92119523Y-119741904D02*
X92119523Y-118941904D01*
X92424285Y-118941904D01*
X92500476Y-118980000D01*
X92538571Y-119018095D01*
X92576666Y-119094285D01*
X92576666Y-119208571D01*
X92538571Y-119284761D01*
X92500476Y-119322857D01*
X92424285Y-119360952D01*
X92119523Y-119360952D01*
X93338571Y-119741904D02*
X92881428Y-119741904D01*
X93110000Y-119741904D02*
X93110000Y-118941904D01*
X93033809Y-119056190D01*
X92957619Y-119132380D01*
X92881428Y-119170476D01*
G04 #@! TO.C,RV2*
X94200617Y-83026310D02*
X93759382Y-83026310D01*
X93980000Y-83026310D02*
X93980000Y-82254150D01*
X93906460Y-82364459D01*
X93832921Y-82437998D01*
X93759382Y-82474767D01*
G04 #@! TO.C,J3*
X114452476Y-81769000D02*
X114376285Y-81730904D01*
X114262000Y-81730904D01*
X114147714Y-81769000D01*
X114071523Y-81845190D01*
X114033428Y-81921380D01*
X113995333Y-82073761D01*
X113995333Y-82188047D01*
X114033428Y-82340428D01*
X114071523Y-82416619D01*
X114147714Y-82492809D01*
X114262000Y-82530904D01*
X114338190Y-82530904D01*
X114452476Y-82492809D01*
X114490571Y-82454714D01*
X114490571Y-82188047D01*
X114338190Y-82188047D01*
X114833428Y-82530904D02*
X114833428Y-81730904D01*
X115290571Y-82530904D01*
X115290571Y-81730904D01*
X115671523Y-82530904D02*
X115671523Y-81730904D01*
X115862000Y-81730904D01*
X115976285Y-81769000D01*
X116052476Y-81845190D01*
X116090571Y-81921380D01*
X116128666Y-82073761D01*
X116128666Y-82188047D01*
X116090571Y-82340428D01*
X116052476Y-82416619D01*
X115976285Y-82492809D01*
X115862000Y-82530904D01*
X115671523Y-82530904D01*
X111887095Y-81730904D02*
X112153761Y-82530904D01*
X112420428Y-81730904D01*
X112687095Y-82226142D02*
X113296619Y-82226142D01*
X112991857Y-82530904D02*
X112991857Y-81921380D01*
G04 #@! TO.C,U2*
X101346095Y-94575380D02*
X101346095Y-95384904D01*
X101393714Y-95480142D01*
X101441333Y-95527761D01*
X101536571Y-95575380D01*
X101727047Y-95575380D01*
X101822285Y-95527761D01*
X101869904Y-95480142D01*
X101917523Y-95384904D01*
X101917523Y-94575380D01*
X102346095Y-94670619D02*
X102393714Y-94623000D01*
X102488952Y-94575380D01*
X102727047Y-94575380D01*
X102822285Y-94623000D01*
X102869904Y-94670619D01*
X102917523Y-94765857D01*
X102917523Y-94861095D01*
X102869904Y-95003952D01*
X102298476Y-95575380D01*
X102917523Y-95575380D01*
G04 #@! TO.C,U1*
X101473095Y-112482380D02*
X101473095Y-113291904D01*
X101520714Y-113387142D01*
X101568333Y-113434761D01*
X101663571Y-113482380D01*
X101854047Y-113482380D01*
X101949285Y-113434761D01*
X101996904Y-113387142D01*
X102044523Y-113291904D01*
X102044523Y-112482380D01*
X103044523Y-113482380D02*
X102473095Y-113482380D01*
X102758809Y-113482380D02*
X102758809Y-112482380D01*
X102663571Y-112625238D01*
X102568333Y-112720476D01*
X102473095Y-112768095D01*
G04 #@! TO.C,RV1*
X93162380Y-86701238D02*
X92686190Y-87034571D01*
X93162380Y-87272666D02*
X92162380Y-87272666D01*
X92162380Y-86891714D01*
X92210000Y-86796476D01*
X92257619Y-86748857D01*
X92352857Y-86701238D01*
X92495714Y-86701238D01*
X92590952Y-86748857D01*
X92638571Y-86796476D01*
X92686190Y-86891714D01*
X92686190Y-87272666D01*
X92162380Y-86415523D02*
X93162380Y-86082190D01*
X92162380Y-85748857D01*
X93162380Y-84891714D02*
X93162380Y-85463142D01*
X93162380Y-85177428D02*
X92162380Y-85177428D01*
X92305238Y-85272666D01*
X92400476Y-85367904D01*
X92448095Y-85463142D01*
X97490038Y-83052847D02*
X97490038Y-83604390D01*
X97490038Y-83328619D02*
X96524838Y-83328619D01*
X96662723Y-83420542D01*
X96754647Y-83512466D01*
X96800609Y-83604390D01*
G04 #@! TO.C,Q2*
X100369619Y-104870238D02*
X100322000Y-104965476D01*
X100226761Y-105060714D01*
X100083904Y-105203571D01*
X100036285Y-105298809D01*
X100036285Y-105394047D01*
X100274380Y-105346428D02*
X100226761Y-105441666D01*
X100131523Y-105536904D01*
X99941047Y-105584523D01*
X99607714Y-105584523D01*
X99417238Y-105536904D01*
X99322000Y-105441666D01*
X99274380Y-105346428D01*
X99274380Y-105155952D01*
X99322000Y-105060714D01*
X99417238Y-104965476D01*
X99607714Y-104917857D01*
X99941047Y-104917857D01*
X100131523Y-104965476D01*
X100226761Y-105060714D01*
X100274380Y-105155952D01*
X100274380Y-105346428D01*
X99369619Y-104536904D02*
X99322000Y-104489285D01*
X99274380Y-104394047D01*
X99274380Y-104155952D01*
X99322000Y-104060714D01*
X99369619Y-104013095D01*
X99464857Y-103965476D01*
X99560095Y-103965476D01*
X99702952Y-104013095D01*
X100274380Y-104584523D01*
X100274380Y-103965476D01*
G04 #@! TO.C,Q1*
X104814619Y-104616238D02*
X104767000Y-104711476D01*
X104671761Y-104806714D01*
X104528904Y-104949571D01*
X104481285Y-105044809D01*
X104481285Y-105140047D01*
X104719380Y-105092428D02*
X104671761Y-105187666D01*
X104576523Y-105282904D01*
X104386047Y-105330523D01*
X104052714Y-105330523D01*
X103862238Y-105282904D01*
X103767000Y-105187666D01*
X103719380Y-105092428D01*
X103719380Y-104901952D01*
X103767000Y-104806714D01*
X103862238Y-104711476D01*
X104052714Y-104663857D01*
X104386047Y-104663857D01*
X104576523Y-104711476D01*
X104671761Y-104806714D01*
X104719380Y-104901952D01*
X104719380Y-105092428D01*
X104719380Y-103711476D02*
X104719380Y-104282904D01*
X104719380Y-103997190D02*
X103719380Y-103997190D01*
X103862238Y-104092428D01*
X103957476Y-104187666D01*
X104005095Y-104282904D01*
G04 #@! TO.C,J2*
X106362595Y-128212904D02*
X106629261Y-129012904D01*
X106895928Y-128212904D01*
X107162595Y-128708142D02*
X107772119Y-128708142D01*
X107467357Y-129012904D02*
X107467357Y-128403380D01*
X109054976Y-128251000D02*
X108978785Y-128212904D01*
X108864500Y-128212904D01*
X108750214Y-128251000D01*
X108674023Y-128327190D01*
X108635928Y-128403380D01*
X108597833Y-128555761D01*
X108597833Y-128670047D01*
X108635928Y-128822428D01*
X108674023Y-128898619D01*
X108750214Y-128974809D01*
X108864500Y-129012904D01*
X108940690Y-129012904D01*
X109054976Y-128974809D01*
X109093071Y-128936714D01*
X109093071Y-128670047D01*
X108940690Y-128670047D01*
X109435928Y-129012904D02*
X109435928Y-128212904D01*
X109893071Y-129012904D01*
X109893071Y-128212904D01*
X110274023Y-129012904D02*
X110274023Y-128212904D01*
X110464500Y-128212904D01*
X110578785Y-128251000D01*
X110654976Y-128327190D01*
X110693071Y-128403380D01*
X110731166Y-128555761D01*
X110731166Y-128670047D01*
X110693071Y-128822428D01*
X110654976Y-128898619D01*
X110578785Y-128974809D01*
X110464500Y-129012904D01*
X110274023Y-129012904D01*
G04 #@! TO.C,J1*
X96088252Y-129241504D02*
X96088252Y-128441504D01*
X96469204Y-129241504D02*
X96469204Y-128441504D01*
X96926347Y-129241504D01*
X96926347Y-128441504D01*
X98437776Y-128479600D02*
X98361585Y-128441504D01*
X98247300Y-128441504D01*
X98133014Y-128479600D01*
X98056823Y-128555790D01*
X98018728Y-128631980D01*
X97980633Y-128784361D01*
X97980633Y-128898647D01*
X98018728Y-129051028D01*
X98056823Y-129127219D01*
X98133014Y-129203409D01*
X98247300Y-129241504D01*
X98323490Y-129241504D01*
X98437776Y-129203409D01*
X98475871Y-129165314D01*
X98475871Y-128898647D01*
X98323490Y-128898647D01*
X98818728Y-129241504D02*
X98818728Y-128441504D01*
X99275871Y-129241504D01*
X99275871Y-128441504D01*
X99656823Y-129241504D02*
X99656823Y-128441504D01*
X99847300Y-128441504D01*
X99961585Y-128479600D01*
X100037776Y-128555790D01*
X100075871Y-128631980D01*
X100113966Y-128784361D01*
X100113966Y-128898647D01*
X100075871Y-129051028D01*
X100037776Y-129127219D01*
X99961585Y-129203409D01*
X99847300Y-129241504D01*
X99656823Y-129241504D01*
X100901585Y-129203409D02*
X101015871Y-129241504D01*
X101206347Y-129241504D01*
X101282538Y-129203409D01*
X101320633Y-129165314D01*
X101358728Y-129089123D01*
X101358728Y-129012933D01*
X101320633Y-128936742D01*
X101282538Y-128898647D01*
X101206347Y-128860552D01*
X101053966Y-128822457D01*
X100977776Y-128784361D01*
X100939680Y-128746266D01*
X100901585Y-128670076D01*
X100901585Y-128593885D01*
X100939680Y-128517695D01*
X100977776Y-128479600D01*
X101053966Y-128441504D01*
X101244442Y-128441504D01*
X101358728Y-128479600D01*
X101625395Y-128441504D02*
X101815871Y-129241504D01*
X101968252Y-128670076D01*
X102120633Y-129241504D01*
X102311109Y-128441504D01*
X103327300Y-128441504D02*
X103479680Y-128441504D01*
X103555871Y-128479600D01*
X103632061Y-128555790D01*
X103670157Y-128708171D01*
X103670157Y-128974838D01*
X103632061Y-129127219D01*
X103555871Y-129203409D01*
X103479680Y-129241504D01*
X103327300Y-129241504D01*
X103251109Y-129203409D01*
X103174919Y-129127219D01*
X103136823Y-128974838D01*
X103136823Y-128708171D01*
X103174919Y-128555790D01*
X103251109Y-128479600D01*
X103327300Y-128441504D01*
X104013014Y-128441504D02*
X104013014Y-129089123D01*
X104051109Y-129165314D01*
X104089204Y-129203409D01*
X104165395Y-129241504D01*
X104317776Y-129241504D01*
X104393966Y-129203409D01*
X104432061Y-129165314D01*
X104470157Y-129089123D01*
X104470157Y-128441504D01*
X104736823Y-128441504D02*
X105193966Y-128441504D01*
X104965395Y-129241504D02*
X104965395Y-128441504D01*
G04 #@! TO.C,D2*
X90749380Y-85256595D02*
X89749380Y-85256595D01*
X89749380Y-85018500D01*
X89797000Y-84875642D01*
X89892238Y-84780404D01*
X89987476Y-84732785D01*
X90177952Y-84685166D01*
X90320809Y-84685166D01*
X90511285Y-84732785D01*
X90606523Y-84780404D01*
X90701761Y-84875642D01*
X90749380Y-85018500D01*
X90749380Y-85256595D01*
X89844619Y-84304214D02*
X89797000Y-84256595D01*
X89749380Y-84161357D01*
X89749380Y-83923261D01*
X89797000Y-83828023D01*
X89844619Y-83780404D01*
X89939857Y-83732785D01*
X90035095Y-83732785D01*
X90177952Y-83780404D01*
X90749380Y-84351833D01*
X90749380Y-83732785D01*
G04 #@! TO.C,D1*
X106894404Y-126690380D02*
X106894404Y-125690380D01*
X107132500Y-125690380D01*
X107275357Y-125738000D01*
X107370595Y-125833238D01*
X107418214Y-125928476D01*
X107465833Y-126118952D01*
X107465833Y-126261809D01*
X107418214Y-126452285D01*
X107370595Y-126547523D01*
X107275357Y-126642761D01*
X107132500Y-126690380D01*
X106894404Y-126690380D01*
X108418214Y-126690380D02*
X107846785Y-126690380D01*
X108132500Y-126690380D02*
X108132500Y-125690380D01*
X108037261Y-125833238D01*
X107942023Y-125928476D01*
X107846785Y-125976095D01*
G04 #@! TO.C,C10*
X111157142Y-97258142D02*
X111109523Y-97305761D01*
X110966666Y-97353380D01*
X110871428Y-97353380D01*
X110728571Y-97305761D01*
X110633333Y-97210523D01*
X110585714Y-97115285D01*
X110538095Y-96924809D01*
X110538095Y-96781952D01*
X110585714Y-96591476D01*
X110633333Y-96496238D01*
X110728571Y-96401000D01*
X110871428Y-96353380D01*
X110966666Y-96353380D01*
X111109523Y-96401000D01*
X111157142Y-96448619D01*
X112109523Y-97353380D02*
X111538095Y-97353380D01*
X111823809Y-97353380D02*
X111823809Y-96353380D01*
X111728571Y-96496238D01*
X111633333Y-96591476D01*
X111538095Y-96639095D01*
X112728571Y-96353380D02*
X112823809Y-96353380D01*
X112919047Y-96401000D01*
X112966666Y-96448619D01*
X113014285Y-96543857D01*
X113061904Y-96734333D01*
X113061904Y-96972428D01*
X113014285Y-97162904D01*
X112966666Y-97258142D01*
X112919047Y-97305761D01*
X112823809Y-97353380D01*
X112728571Y-97353380D01*
X112633333Y-97305761D01*
X112585714Y-97258142D01*
X112538095Y-97162904D01*
X112490476Y-96972428D01*
X112490476Y-96734333D01*
X112538095Y-96543857D01*
X112585714Y-96448619D01*
X112633333Y-96401000D01*
X112728571Y-96353380D01*
G04 #@! TO.C,C9*
X102726833Y-123610642D02*
X102679214Y-123658261D01*
X102536357Y-123705880D01*
X102441119Y-123705880D01*
X102298261Y-123658261D01*
X102203023Y-123563023D01*
X102155404Y-123467785D01*
X102107785Y-123277309D01*
X102107785Y-123134452D01*
X102155404Y-122943976D01*
X102203023Y-122848738D01*
X102298261Y-122753500D01*
X102441119Y-122705880D01*
X102536357Y-122705880D01*
X102679214Y-122753500D01*
X102726833Y-122801119D01*
X103203023Y-123705880D02*
X103393500Y-123705880D01*
X103488738Y-123658261D01*
X103536357Y-123610642D01*
X103631595Y-123467785D01*
X103679214Y-123277309D01*
X103679214Y-122896357D01*
X103631595Y-122801119D01*
X103583976Y-122753500D01*
X103488738Y-122705880D01*
X103298261Y-122705880D01*
X103203023Y-122753500D01*
X103155404Y-122801119D01*
X103107785Y-122896357D01*
X103107785Y-123134452D01*
X103155404Y-123229690D01*
X103203023Y-123277309D01*
X103298261Y-123324928D01*
X103488738Y-123324928D01*
X103583976Y-123277309D01*
X103631595Y-123229690D01*
X103679214Y-123134452D01*
G04 #@! TO.C,C8*
X109561333Y-82399142D02*
X109513714Y-82446761D01*
X109370857Y-82494380D01*
X109275619Y-82494380D01*
X109132761Y-82446761D01*
X109037523Y-82351523D01*
X108989904Y-82256285D01*
X108942285Y-82065809D01*
X108942285Y-81922952D01*
X108989904Y-81732476D01*
X109037523Y-81637238D01*
X109132761Y-81542000D01*
X109275619Y-81494380D01*
X109370857Y-81494380D01*
X109513714Y-81542000D01*
X109561333Y-81589619D01*
X110132761Y-81922952D02*
X110037523Y-81875333D01*
X109989904Y-81827714D01*
X109942285Y-81732476D01*
X109942285Y-81684857D01*
X109989904Y-81589619D01*
X110037523Y-81542000D01*
X110132761Y-81494380D01*
X110323238Y-81494380D01*
X110418476Y-81542000D01*
X110466095Y-81589619D01*
X110513714Y-81684857D01*
X110513714Y-81732476D01*
X110466095Y-81827714D01*
X110418476Y-81875333D01*
X110323238Y-81922952D01*
X110132761Y-81922952D01*
X110037523Y-81970571D01*
X109989904Y-82018190D01*
X109942285Y-82113428D01*
X109942285Y-82303904D01*
X109989904Y-82399142D01*
X110037523Y-82446761D01*
X110132761Y-82494380D01*
X110323238Y-82494380D01*
X110418476Y-82446761D01*
X110466095Y-82399142D01*
X110513714Y-82303904D01*
X110513714Y-82113428D01*
X110466095Y-82018190D01*
X110418476Y-81970571D01*
X110323238Y-81922952D01*
G04 #@! TO.C,C7*
X95043333Y-106402142D02*
X94995714Y-106449761D01*
X94852857Y-106497380D01*
X94757619Y-106497380D01*
X94614761Y-106449761D01*
X94519523Y-106354523D01*
X94471904Y-106259285D01*
X94424285Y-106068809D01*
X94424285Y-105925952D01*
X94471904Y-105735476D01*
X94519523Y-105640238D01*
X94614761Y-105545000D01*
X94757619Y-105497380D01*
X94852857Y-105497380D01*
X94995714Y-105545000D01*
X95043333Y-105592619D01*
X95376666Y-105497380D02*
X96043333Y-105497380D01*
X95614761Y-106497380D01*
G04 #@! TO.C,C6*
X95043333Y-102719142D02*
X94995714Y-102766761D01*
X94852857Y-102814380D01*
X94757619Y-102814380D01*
X94614761Y-102766761D01*
X94519523Y-102671523D01*
X94471904Y-102576285D01*
X94424285Y-102385809D01*
X94424285Y-102242952D01*
X94471904Y-102052476D01*
X94519523Y-101957238D01*
X94614761Y-101862000D01*
X94757619Y-101814380D01*
X94852857Y-101814380D01*
X94995714Y-101862000D01*
X95043333Y-101909619D01*
X95900476Y-101814380D02*
X95710000Y-101814380D01*
X95614761Y-101862000D01*
X95567142Y-101909619D01*
X95471904Y-102052476D01*
X95424285Y-102242952D01*
X95424285Y-102623904D01*
X95471904Y-102719142D01*
X95519523Y-102766761D01*
X95614761Y-102814380D01*
X95805238Y-102814380D01*
X95900476Y-102766761D01*
X95948095Y-102719142D01*
X95995714Y-102623904D01*
X95995714Y-102385809D01*
X95948095Y-102290571D01*
X95900476Y-102242952D01*
X95805238Y-102195333D01*
X95614761Y-102195333D01*
X95519523Y-102242952D01*
X95471904Y-102290571D01*
X95424285Y-102385809D01*
G04 #@! TO.C,C5*
X102917333Y-88622142D02*
X102869714Y-88669761D01*
X102726857Y-88717380D01*
X102631619Y-88717380D01*
X102488761Y-88669761D01*
X102393523Y-88574523D01*
X102345904Y-88479285D01*
X102298285Y-88288809D01*
X102298285Y-88145952D01*
X102345904Y-87955476D01*
X102393523Y-87860238D01*
X102488761Y-87765000D01*
X102631619Y-87717380D01*
X102726857Y-87717380D01*
X102869714Y-87765000D01*
X102917333Y-87812619D01*
X103822095Y-87717380D02*
X103345904Y-87717380D01*
X103298285Y-88193571D01*
X103345904Y-88145952D01*
X103441142Y-88098333D01*
X103679238Y-88098333D01*
X103774476Y-88145952D01*
X103822095Y-88193571D01*
X103869714Y-88288809D01*
X103869714Y-88526904D01*
X103822095Y-88622142D01*
X103774476Y-88669761D01*
X103679238Y-88717380D01*
X103441142Y-88717380D01*
X103345904Y-88669761D01*
X103298285Y-88622142D01*
G04 #@! TO.C,C4*
X111633333Y-100687142D02*
X111585714Y-100734761D01*
X111442857Y-100782380D01*
X111347619Y-100782380D01*
X111204761Y-100734761D01*
X111109523Y-100639523D01*
X111061904Y-100544285D01*
X111014285Y-100353809D01*
X111014285Y-100210952D01*
X111061904Y-100020476D01*
X111109523Y-99925238D01*
X111204761Y-99830000D01*
X111347619Y-99782380D01*
X111442857Y-99782380D01*
X111585714Y-99830000D01*
X111633333Y-99877619D01*
X112490476Y-100115714D02*
X112490476Y-100782380D01*
X112252380Y-99734761D02*
X112014285Y-100449047D01*
X112633333Y-100449047D01*
G04 #@! TO.C,C3*
X102663333Y-120372142D02*
X102615714Y-120419761D01*
X102472857Y-120467380D01*
X102377619Y-120467380D01*
X102234761Y-120419761D01*
X102139523Y-120324523D01*
X102091904Y-120229285D01*
X102044285Y-120038809D01*
X102044285Y-119895952D01*
X102091904Y-119705476D01*
X102139523Y-119610238D01*
X102234761Y-119515000D01*
X102377619Y-119467380D01*
X102472857Y-119467380D01*
X102615714Y-119515000D01*
X102663333Y-119562619D01*
X102996666Y-119467380D02*
X103615714Y-119467380D01*
X103282380Y-119848333D01*
X103425238Y-119848333D01*
X103520476Y-119895952D01*
X103568095Y-119943571D01*
X103615714Y-120038809D01*
X103615714Y-120276904D01*
X103568095Y-120372142D01*
X103520476Y-120419761D01*
X103425238Y-120467380D01*
X103139523Y-120467380D01*
X103044285Y-120419761D01*
X102996666Y-120372142D01*
G04 #@! TO.C,C2*
X114006333Y-126722142D02*
X113958714Y-126769761D01*
X113815857Y-126817380D01*
X113720619Y-126817380D01*
X113577761Y-126769761D01*
X113482523Y-126674523D01*
X113434904Y-126579285D01*
X113387285Y-126388809D01*
X113387285Y-126245952D01*
X113434904Y-126055476D01*
X113482523Y-125960238D01*
X113577761Y-125865000D01*
X113720619Y-125817380D01*
X113815857Y-125817380D01*
X113958714Y-125865000D01*
X114006333Y-125912619D01*
X114387285Y-125912619D02*
X114434904Y-125865000D01*
X114530142Y-125817380D01*
X114768238Y-125817380D01*
X114863476Y-125865000D01*
X114911095Y-125912619D01*
X114958714Y-126007857D01*
X114958714Y-126103095D01*
X114911095Y-126245952D01*
X114339666Y-126817380D01*
X114958714Y-126817380D01*
G04 #@! TO.C,C1*
X93773333Y-122404142D02*
X93725714Y-122451761D01*
X93582857Y-122499380D01*
X93487619Y-122499380D01*
X93344761Y-122451761D01*
X93249523Y-122356523D01*
X93201904Y-122261285D01*
X93154285Y-122070809D01*
X93154285Y-121927952D01*
X93201904Y-121737476D01*
X93249523Y-121642238D01*
X93344761Y-121547000D01*
X93487619Y-121499380D01*
X93582857Y-121499380D01*
X93725714Y-121547000D01*
X93773333Y-121594619D01*
X94725714Y-122499380D02*
X94154285Y-122499380D01*
X94440000Y-122499380D02*
X94440000Y-121499380D01*
X94344761Y-121642238D01*
X94249523Y-121737476D01*
X94154285Y-121785095D01*
G04 #@! TD*
M02*
