G04 #@! TF.GenerationSoftware,KiCad,Pcbnew,(5.99.0-7307-g71ab42e60a)*
G04 #@! TF.CreationDate,2020-12-03T10:19:34+02:00*
G04 #@! TF.ProjectId,agudo,61677564-6f2e-46b6-9963-61645f706362,rev?*
G04 #@! TF.SameCoordinates,Original*
G04 #@! TF.FileFunction,Copper,L1,Top*
G04 #@! TF.FilePolarity,Positive*
%FSLAX46Y46*%
G04 Gerber Fmt 4.6, Leading zero omitted, Abs format (unit mm)*
G04 Created by KiCad (PCBNEW (5.99.0-7307-g71ab42e60a)) date 2020-12-03 10:19:34*
%MOMM*%
%LPD*%
G01*
G04 APERTURE LIST*
G04 Aperture macros list*
%AMRoundRect*
0 Rectangle with rounded corners*
0 $1 Rounding radius*
0 $2 $3 $4 $5 $6 $7 $8 $9 X,Y pos of 4 corners*
0 Add a 4 corners polygon primitive as box body*
4,1,4,$2,$3,$4,$5,$6,$7,$8,$9,$2,$3,0*
0 Add four circle primitives for the rounded corners*
1,1,$1+$1,$2,$3,0*
1,1,$1+$1,$4,$5,0*
1,1,$1+$1,$6,$7,0*
1,1,$1+$1,$8,$9,0*
0 Add four rect primitives between the rounded corners*
20,1,$1+$1,$2,$3,$4,$5,0*
20,1,$1+$1,$4,$5,$6,$7,0*
20,1,$1+$1,$6,$7,$8,$9,0*
20,1,$1+$1,$8,$9,$2,$3,0*%
G04 Aperture macros list end*
G04 #@! TA.AperFunction,SMDPad,CuDef*
%ADD10RoundRect,0.218750X0.218750X0.256250X-0.218750X0.256250X-0.218750X-0.256250X0.218750X-0.256250X0*%
G04 #@! TD*
G04 #@! TA.AperFunction,SMDPad,CuDef*
%ADD11RoundRect,0.218750X-0.218750X-0.256250X0.218750X-0.256250X0.218750X0.256250X-0.218750X0.256250X0*%
G04 #@! TD*
G04 #@! TA.AperFunction,ComponentPad*
%ADD12R,1.600000X1.600000*%
G04 #@! TD*
G04 #@! TA.AperFunction,ComponentPad*
%ADD13C,1.600000*%
G04 #@! TD*
G04 #@! TA.AperFunction,SMDPad,CuDef*
%ADD14RoundRect,0.150000X-0.825000X-0.150000X0.825000X-0.150000X0.825000X0.150000X-0.825000X0.150000X0*%
G04 #@! TD*
G04 #@! TA.AperFunction,ComponentPad*
%ADD15R,2.540000X2.540000*%
G04 #@! TD*
G04 #@! TA.AperFunction,ComponentPad*
%ADD16O,2.540000X2.540000*%
G04 #@! TD*
G04 #@! TA.AperFunction,SMDPad,CuDef*
%ADD17R,0.800000X0.900000*%
G04 #@! TD*
G04 #@! TA.AperFunction,ComponentPad*
%ADD18R,2.000000X2.000000*%
G04 #@! TD*
G04 #@! TA.AperFunction,ComponentPad*
%ADD19O,2.000000X2.000000*%
G04 #@! TD*
G04 #@! TA.AperFunction,ComponentPad*
%ADD20R,2.032000X2.032000*%
G04 #@! TD*
G04 #@! TA.AperFunction,ComponentPad*
%ADD21O,2.032000X2.032000*%
G04 #@! TD*
G04 #@! TA.AperFunction,SMDPad,CuDef*
%ADD22R,0.900000X0.800000*%
G04 #@! TD*
G04 #@! TA.AperFunction,ComponentPad*
%ADD23R,1.930400X1.930400*%
G04 #@! TD*
G04 #@! TA.AperFunction,ComponentPad*
%ADD24O,1.930400X1.930400*%
G04 #@! TD*
G04 #@! TA.AperFunction,ComponentPad*
%ADD25R,1.800000X1.800000*%
G04 #@! TD*
G04 #@! TA.AperFunction,ComponentPad*
%ADD26C,1.800000*%
G04 #@! TD*
G04 #@! TA.AperFunction,ViaPad*
%ADD27C,0.800000*%
G04 #@! TD*
G04 #@! TA.AperFunction,Conductor*
%ADD28C,0.350000*%
G04 #@! TD*
G04 APERTURE END LIST*
D10*
G04 #@! TO.P,R13,1*
G04 #@! TO.N,Net-(C7-Pad1)*
X80787500Y-117750000D03*
G04 #@! TO.P,R13,2*
G04 #@! TO.N,Net-(C5-Pad1)*
X79212500Y-117750000D03*
G04 #@! TD*
D11*
G04 #@! TO.P,R18,1*
G04 #@! TO.N,Net-(C5-Pad2)*
X82212500Y-112750000D03*
G04 #@! TO.P,R18,2*
G04 #@! TO.N,Net-(R18-Pad2)*
X83787500Y-112750000D03*
G04 #@! TD*
D10*
G04 #@! TO.P,R5,1*
G04 #@! TO.N,Net-(R5-Pad1)*
X69787500Y-120500000D03*
G04 #@! TO.P,R5,2*
G04 #@! TO.N,Net-(C5-Pad1)*
X68212500Y-120500000D03*
G04 #@! TD*
D11*
G04 #@! TO.P,R22,1*
G04 #@! TO.N,Net-(R19-Pad2)*
X68212500Y-106000000D03*
G04 #@! TO.P,R22,2*
G04 #@! TO.N,Net-(C10-Pad1)*
X69787500Y-106000000D03*
G04 #@! TD*
D12*
G04 #@! TO.P,C2,1*
G04 #@! TO.N,VCC*
X60750000Y-115750000D03*
D13*
G04 #@! TO.P,C2,2*
G04 #@! TO.N,GND*
X63250000Y-115750000D03*
G04 #@! TD*
D11*
G04 #@! TO.P,R21,1*
G04 #@! TO.N,Net-(R20-Pad2)*
X71962500Y-126500000D03*
G04 #@! TO.P,R21,2*
G04 #@! TO.N,Net-(R21-Pad2)*
X73537500Y-126500000D03*
G04 #@! TD*
G04 #@! TO.P,C5,1*
G04 #@! TO.N,Net-(C5-Pad1)*
X66962500Y-117500000D03*
G04 #@! TO.P,C5,2*
G04 #@! TO.N,Net-(C5-Pad2)*
X68537500Y-117500000D03*
G04 #@! TD*
G04 #@! TO.P,C3,1*
G04 #@! TO.N,U1A_OUT*
X81962500Y-131500000D03*
G04 #@! TO.P,C3,2*
G04 #@! TO.N,Net-(C3-Pad2)*
X83537500Y-131500000D03*
G04 #@! TD*
G04 #@! TO.P,C12,1*
G04 #@! TO.N,U1B_OUT*
X82212500Y-117750000D03*
G04 #@! TO.P,C12,2*
G04 #@! TO.N,Net-(SW1-Pad6)*
X83787500Y-117750000D03*
G04 #@! TD*
G04 #@! TO.P,R15,1*
G04 #@! TO.N,Net-(C7-Pad1)*
X79212500Y-116250000D03*
G04 #@! TO.P,R15,2*
G04 #@! TO.N,U2A_IN*
X80787500Y-116250000D03*
G04 #@! TD*
G04 #@! TO.P,C10,1*
G04 #@! TO.N,Net-(C10-Pad1)*
X74231250Y-107500000D03*
G04 #@! TO.P,C10,2*
G04 #@! TO.N,Net-(C10-Pad2)*
X75806250Y-107500000D03*
G04 #@! TD*
D10*
G04 #@! TO.P,R19,1*
G04 #@! TO.N,Net-(C5-Pad2)*
X68537500Y-109500000D03*
G04 #@! TO.P,R19,2*
G04 #@! TO.N,Net-(R19-Pad2)*
X66962500Y-109500000D03*
G04 #@! TD*
G04 #@! TO.P,R27,1*
G04 #@! TO.N,Net-(C10-Pad2)*
X75806250Y-106000000D03*
G04 #@! TO.P,R27,2*
G04 #@! TO.N,Net-(R27-Pad2)*
X74231250Y-106000000D03*
G04 #@! TD*
D11*
G04 #@! TO.P,C6,1*
G04 #@! TO.N,U1B_OUT*
X82212500Y-120750000D03*
G04 #@! TO.P,C6,2*
G04 #@! TO.N,Net-(C6-Pad2)*
X83787500Y-120750000D03*
G04 #@! TD*
G04 #@! TO.P,R20,1*
G04 #@! TO.N,Net-(R16-Pad2)*
X68231250Y-107500000D03*
G04 #@! TO.P,R20,2*
G04 #@! TO.N,Net-(R20-Pad2)*
X69806250Y-107500000D03*
G04 #@! TD*
D14*
G04 #@! TO.P,U2,1*
G04 #@! TO.N,Net-(R20-Pad2)*
X72025000Y-109345000D03*
G04 #@! TO.P,U2,2,-*
G04 #@! TO.N,Net-(R16-Pad2)*
X72025000Y-110615000D03*
G04 #@! TO.P,U2,3,+*
G04 #@! TO.N,U2A_IN*
X72025000Y-111885000D03*
G04 #@! TO.P,U2,4,V-*
G04 #@! TO.N,GND*
X72025000Y-113155000D03*
G04 #@! TO.P,U2,5,+*
G04 #@! TO.N,Net-(R23-Pad2)*
X76975000Y-113155000D03*
G04 #@! TO.P,U2,6,-*
G04 #@! TO.N,Net-(C10-Pad1)*
X76975000Y-111885000D03*
G04 #@! TO.P,U2,7*
G04 #@! TO.N,Net-(C10-Pad2)*
X76975000Y-110615000D03*
G04 #@! TO.P,U2,8,V+*
G04 #@! TO.N,VCC*
X76975000Y-109345000D03*
G04 #@! TD*
G04 #@! TO.P,U1,1*
G04 #@! TO.N,U1A_OUT*
X72025000Y-119845000D03*
G04 #@! TO.P,U1,2,-*
G04 #@! TO.N,Net-(R5-Pad1)*
X72025000Y-121115000D03*
G04 #@! TO.P,U1,3,+*
G04 #@! TO.N,Net-(R3-Pad2)*
X72025000Y-122385000D03*
G04 #@! TO.P,U1,4,V-*
G04 #@! TO.N,GND*
X72025000Y-123655000D03*
G04 #@! TO.P,U1,5,+*
G04 #@! TO.N,U1B_IN*
X76975000Y-123655000D03*
G04 #@! TO.P,U1,6,-*
G04 #@! TO.N,Net-(R10-Pad2)*
X76975000Y-122385000D03*
G04 #@! TO.P,U1,7*
G04 #@! TO.N,U1B_OUT*
X76975000Y-121115000D03*
G04 #@! TO.P,U1,8,V+*
G04 #@! TO.N,VCC*
X76975000Y-119845000D03*
G04 #@! TD*
D11*
G04 #@! TO.P,R26,1*
G04 #@! TO.N,OUT*
X74962500Y-128000000D03*
G04 #@! TO.P,R26,2*
G04 #@! TO.N,GND*
X76537500Y-128000000D03*
G04 #@! TD*
G04 #@! TO.P,R6,1*
G04 #@! TO.N,Net-(R5-Pad1)*
X68212500Y-119000000D03*
G04 #@! TO.P,R6,2*
G04 #@! TO.N,U1A_OUT*
X69787500Y-119000000D03*
G04 #@! TD*
G04 #@! TO.P,C7,1*
G04 #@! TO.N,Net-(C7-Pad1)*
X66462500Y-111000000D03*
G04 #@! TO.P,C7,2*
G04 #@! TO.N,Net-(C7-Pad2)*
X68037500Y-111000000D03*
G04 #@! TD*
D15*
G04 #@! TO.P,RV2,1,1*
G04 #@! TO.N,Net-(R27-Pad2)*
X67670000Y-103250000D03*
D16*
G04 #@! TO.P,RV2,2,2*
X72750000Y-103250000D03*
G04 #@! TO.P,RV2,3,3*
G04 #@! TO.N,Net-(R19-Pad2)*
X77830000Y-103250000D03*
G04 #@! TD*
D11*
G04 #@! TO.P,C11,1*
G04 #@! TO.N,U1A_OUT*
X81962500Y-130000000D03*
G04 #@! TO.P,C11,2*
G04 #@! TO.N,Net-(SW1-Pad3)*
X83537500Y-130000000D03*
G04 #@! TD*
G04 #@! TO.P,R10,1*
G04 #@! TO.N,U1A_OUT*
X71212500Y-118000000D03*
G04 #@! TO.P,R10,2*
G04 #@! TO.N,Net-(R10-Pad2)*
X72787500Y-118000000D03*
G04 #@! TD*
G04 #@! TO.P,R12,1*
G04 #@! TO.N,Net-(R10-Pad2)*
X70962500Y-116500000D03*
G04 #@! TO.P,R12,2*
G04 #@! TO.N,U1B_OUT*
X72537500Y-116500000D03*
G04 #@! TD*
G04 #@! TO.P,R9,1*
G04 #@! TO.N,Net-(R21-Pad2)*
X74962500Y-126500000D03*
G04 #@! TO.P,R9,2*
G04 #@! TO.N,U1A_OUT*
X76537500Y-126500000D03*
G04 #@! TD*
G04 #@! TO.P,R3,1*
G04 #@! TO.N,Net-(C1-Pad2)*
X68212500Y-123500000D03*
G04 #@! TO.P,R3,2*
G04 #@! TO.N,Net-(R3-Pad2)*
X69787500Y-123500000D03*
G04 #@! TD*
D10*
G04 #@! TO.P,R1,1*
G04 #@! TO.N,IN*
X67037500Y-129750000D03*
G04 #@! TO.P,R1,2*
G04 #@! TO.N,GND*
X65462500Y-129750000D03*
G04 #@! TD*
D11*
G04 #@! TO.P,R24,1*
G04 #@! TO.N,Net-(R23-Pad2)*
X80712500Y-103250000D03*
G04 #@! TO.P,R24,2*
G04 #@! TO.N,GND*
X82287500Y-103250000D03*
G04 #@! TD*
G04 #@! TO.P,R17,1*
G04 #@! TO.N,Net-(C7-Pad2)*
X66962500Y-112500000D03*
G04 #@! TO.P,R17,2*
G04 #@! TO.N,Net-(C5-Pad2)*
X68537500Y-112500000D03*
G04 #@! TD*
D10*
G04 #@! TO.P,R4,1*
G04 #@! TO.N,Net-(R3-Pad2)*
X69787500Y-122000000D03*
G04 #@! TO.P,R4,2*
G04 #@! TO.N,Net-(C5-Pad1)*
X68212500Y-122000000D03*
G04 #@! TD*
D17*
G04 #@! TO.P,Q2,D,D*
G04 #@! TO.N,Net-(C5-Pad1)*
X67050000Y-116000000D03*
G04 #@! TO.P,Q2,G,G*
G04 #@! TO.N,Net-(C7-Pad2)*
X68000000Y-114000000D03*
G04 #@! TO.P,Q2,S,S*
G04 #@! TO.N,U2A_IN*
X68950000Y-116000000D03*
G04 #@! TD*
D18*
G04 #@! TO.P,D2,1,K*
G04 #@! TO.N,Net-(C5-Pad1)*
X63500000Y-119940000D03*
D19*
G04 #@! TO.P,D2,2,A*
G04 #@! TO.N,GND*
X63500000Y-127560000D03*
G04 #@! TD*
D11*
G04 #@! TO.P,C1,1*
G04 #@! TO.N,IN*
X68212500Y-125000000D03*
G04 #@! TO.P,C1,2*
G04 #@! TO.N,Net-(C1-Pad2)*
X69787500Y-125000000D03*
G04 #@! TD*
D10*
G04 #@! TO.P,R23,1*
G04 #@! TO.N,VCC*
X80537500Y-112750000D03*
G04 #@! TO.P,R23,2*
G04 #@! TO.N,Net-(R23-Pad2)*
X78962500Y-112750000D03*
G04 #@! TD*
G04 #@! TO.P,R8,1*
G04 #@! TO.N,Net-(C4-Pad1)*
X80787500Y-120750000D03*
G04 #@! TO.P,R8,2*
G04 #@! TO.N,U1B_IN*
X79212500Y-120750000D03*
G04 #@! TD*
D11*
G04 #@! TO.P,R11,1*
G04 #@! TO.N,Net-(C5-Pad2)*
X82212500Y-114250000D03*
G04 #@! TO.P,R11,2*
G04 #@! TO.N,Net-(C4-Pad2)*
X83787500Y-114250000D03*
G04 #@! TD*
D10*
G04 #@! TO.P,R14,1*
G04 #@! TO.N,Net-(C10-Pad2)*
X77537500Y-100750000D03*
G04 #@! TO.P,R14,2*
G04 #@! TO.N,Net-(R14-Pad2)*
X75962500Y-100750000D03*
G04 #@! TD*
G04 #@! TO.P,R25,1*
G04 #@! TO.N,Net-(R23-Pad2)*
X78806250Y-107500000D03*
G04 #@! TO.P,R25,2*
G04 #@! TO.N,Net-(C10-Pad2)*
X77231250Y-107500000D03*
G04 #@! TD*
D11*
G04 #@! TO.P,R2,1*
G04 #@! TO.N,VCC*
X79212500Y-114250000D03*
G04 #@! TO.P,R2,2*
G04 #@! TO.N,Net-(C5-Pad1)*
X80787500Y-114250000D03*
G04 #@! TD*
D18*
G04 #@! TO.P,D1,1,K*
G04 #@! TO.N,VCC*
X60750000Y-119940000D03*
D19*
G04 #@! TO.P,D1,2,A*
G04 #@! TO.N,+9V*
X60750000Y-127560000D03*
G04 #@! TD*
D11*
G04 #@! TO.P,R16,1*
G04 #@! TO.N,U1B_OUT*
X70962500Y-115000000D03*
G04 #@! TO.P,R16,2*
G04 #@! TO.N,Net-(R16-Pad2)*
X72537500Y-115000000D03*
G04 #@! TD*
D10*
G04 #@! TO.P,R7,1*
G04 #@! TO.N,Net-(C4-Pad1)*
X80787500Y-119250000D03*
G04 #@! TO.P,R7,2*
G04 #@! TO.N,Net-(C5-Pad1)*
X79212500Y-119250000D03*
G04 #@! TD*
D20*
G04 #@! TO.P,SW1,1,A*
G04 #@! TO.N,Net-(C3-Pad2)*
X85750000Y-131330000D03*
D21*
G04 #@! TO.P,SW1,2,B*
G04 #@! TO.N,U1B_IN*
X85750000Y-128790000D03*
G04 #@! TO.P,SW1,3,C*
G04 #@! TO.N,Net-(SW1-Pad3)*
X85750000Y-126250000D03*
G04 #@! TO.P,SW1,4,A*
G04 #@! TO.N,Net-(C6-Pad2)*
X85750000Y-123710000D03*
G04 #@! TO.P,SW1,5,B*
G04 #@! TO.N,U2A_IN*
X85750000Y-121170000D03*
G04 #@! TO.P,SW1,6,C*
G04 #@! TO.N,Net-(SW1-Pad6)*
X85750000Y-118630000D03*
G04 #@! TD*
D22*
G04 #@! TO.P,Q1,D,D*
G04 #@! TO.N,Net-(C5-Pad1)*
X80250000Y-125550000D03*
G04 #@! TO.P,Q1,G,G*
G04 #@! TO.N,Net-(C4-Pad2)*
X82250000Y-126500000D03*
G04 #@! TO.P,Q1,S,S*
G04 #@! TO.N,U1B_IN*
X80250000Y-127450000D03*
G04 #@! TD*
D23*
G04 #@! TO.P,J1,1,IN*
G04 #@! TO.N,IN*
X69190000Y-131500000D03*
D24*
G04 #@! TO.P,J1,2,GND*
G04 #@! TO.N,GND*
X71730000Y-131500000D03*
G04 #@! TO.P,J1,3,SW*
G04 #@! TO.N,+9V*
X74270000Y-131500000D03*
G04 #@! TO.P,J1,4,OUT*
G04 #@! TO.N,OUT*
X76810000Y-131500000D03*
G04 #@! TD*
D11*
G04 #@! TO.P,C4,1*
G04 #@! TO.N,Net-(C4-Pad1)*
X80712500Y-122250000D03*
G04 #@! TO.P,C4,2*
G04 #@! TO.N,Net-(C4-Pad2)*
X82287500Y-122250000D03*
G04 #@! TD*
G04 #@! TO.P,C9,1*
G04 #@! TO.N,Net-(R21-Pad2)*
X71962500Y-128000000D03*
G04 #@! TO.P,C9,2*
G04 #@! TO.N,OUT*
X73537500Y-128000000D03*
G04 #@! TD*
D12*
G04 #@! TO.P,C8,1*
G04 #@! TO.N,Net-(R19-Pad2)*
X63250000Y-106750000D03*
D13*
G04 #@! TO.P,C8,2*
G04 #@! TO.N,GND*
X60750000Y-106750000D03*
G04 #@! TD*
D24*
G04 #@! TO.P,RV1,1,1*
G04 #@! TO.N,GND*
X86040000Y-108000000D03*
G04 #@! TO.P,RV1,2,2*
G04 #@! TO.N,Net-(R18-Pad2)*
X83500000Y-110540000D03*
G04 #@! TO.P,RV1,3,3*
G04 #@! TO.N,Net-(C5-Pad1)*
X80960000Y-108000000D03*
G04 #@! TD*
D25*
G04 #@! TO.P,D3,1,K*
G04 #@! TO.N,GND*
X71500000Y-99250000D03*
D26*
G04 #@! TO.P,D3,2,A*
G04 #@! TO.N,Net-(R14-Pad2)*
X74040000Y-99250000D03*
G04 #@! TD*
D27*
G04 #@! TO.N,GND*
X79000000Y-131500000D03*
X65250000Y-124750000D03*
X65250000Y-118500000D03*
G04 #@! TO.N,Net-(C7-Pad1)*
X76000000Y-115750000D03*
X65500000Y-115250000D03*
G04 #@! TO.N,GND*
X69000000Y-128500000D03*
X70500000Y-113250000D03*
G04 #@! TO.N,VCC*
X77000000Y-116500000D03*
X78750000Y-110250000D03*
G04 #@! TO.N,Net-(C4-Pad2)*
X85250000Y-114250000D03*
X83000000Y-123500000D03*
G04 #@! TO.N,Net-(C5-Pad2)*
X82250000Y-111500000D03*
X69750000Y-117500000D03*
G04 #@! TO.N,Net-(C5-Pad1)*
X78000000Y-118500000D03*
X66750000Y-122500000D03*
X78250000Y-124500000D03*
G04 #@! TO.N,U1B_OUT*
X82250000Y-119250000D03*
X78750000Y-122000000D03*
G04 #@! TO.N,Net-(R19-Pad2)*
X71768750Y-106000000D03*
G04 #@! TO.N,Net-(R16-Pad2)*
X70500000Y-110250000D03*
X74250000Y-114250000D03*
G04 #@! TO.N,Net-(R20-Pad2)*
X71000000Y-127000000D03*
X70500000Y-108750000D03*
G04 #@! TO.N,Net-(R23-Pad2)*
X79500000Y-109000000D03*
X75250000Y-112500000D03*
G04 #@! TO.N,Net-(SW1-Pad3)*
X82250000Y-128750000D03*
G04 #@! TD*
D28*
G04 #@! TO.N,Net-(C5-Pad1)*
X78000000Y-118000000D02*
X78250000Y-117750000D01*
X78250000Y-117750000D02*
X79212500Y-117750000D01*
X78000000Y-118500000D02*
X78000000Y-118000000D01*
G04 #@! TO.N,Net-(C5-Pad2)*
X68537500Y-117500000D02*
X69750000Y-117500000D01*
X68012510Y-115737490D02*
X68012510Y-115367836D01*
X68537500Y-117500000D02*
X68012510Y-116975010D01*
X68012510Y-116975010D02*
X68012510Y-115737490D01*
G04 #@! TO.N,Net-(C5-Pad1)*
X66962500Y-117500000D02*
X66962500Y-116087500D01*
X66962500Y-116087500D02*
X67050000Y-116000000D01*
X68212500Y-120500000D02*
X66962500Y-119250000D01*
X66962500Y-119250000D02*
X66962500Y-117500000D01*
G04 #@! TO.N,Net-(C7-Pad1)*
X76224999Y-115724999D02*
X75974999Y-115724999D01*
X78687499Y-115724999D02*
X76224999Y-115724999D01*
G04 #@! TO.N,Net-(R16-Pad2)*
X73037500Y-115000000D02*
X73500000Y-115000000D01*
X73500000Y-115000000D02*
X74250000Y-114250000D01*
G04 #@! TO.N,U1B_OUT*
X73037500Y-116500000D02*
X72962500Y-116500000D01*
X72962500Y-116500000D02*
X71462500Y-115000000D01*
X74518750Y-117231250D02*
X75100010Y-117812510D01*
X73037500Y-116500000D02*
X73787500Y-116500000D01*
X73787500Y-116500000D02*
X74518750Y-117231250D01*
G04 #@! TO.N,U2A_IN*
X69400020Y-115549980D02*
X69400020Y-112349980D01*
X68950000Y-116000000D02*
X69400020Y-115549980D01*
X69400020Y-112349980D02*
X69865000Y-111885000D01*
X69865000Y-111885000D02*
X72025000Y-111885000D01*
G04 #@! TO.N,Net-(C5-Pad2)*
X68537500Y-112500000D02*
X68850010Y-112187490D01*
X68850010Y-112187490D02*
X68850010Y-109812510D01*
X68850010Y-109812510D02*
X68537500Y-109500000D01*
G04 #@! TO.N,Net-(C7-Pad2)*
X66962500Y-112500000D02*
X66962500Y-112075000D01*
X66962500Y-112075000D02*
X68037500Y-111000000D01*
G04 #@! TO.N,Net-(C7-Pad1)*
X65500000Y-115250000D02*
X65500000Y-111962500D01*
X65500000Y-111962500D02*
X66462500Y-111000000D01*
G04 #@! TO.N,Net-(R10-Pad2)*
X73037500Y-118000000D02*
X72962500Y-118000000D01*
X72962500Y-118000000D02*
X71462500Y-116500000D01*
X73037500Y-118000000D02*
X73037500Y-118930331D01*
X73037500Y-118930331D02*
X76492169Y-122385000D01*
X76492169Y-122385000D02*
X76975000Y-122385000D01*
G04 #@! TO.N,U1A_OUT*
X72025000Y-119845000D02*
X72025000Y-118562500D01*
X72025000Y-118562500D02*
X71462500Y-118000000D01*
G04 #@! TO.N,Net-(C5-Pad2)*
X68012510Y-115367836D02*
X68775010Y-114605336D01*
X68775010Y-114605336D02*
X68775010Y-112737510D01*
X68775010Y-112737510D02*
X68537500Y-112500000D01*
G04 #@! TO.N,Net-(C7-Pad2)*
X68000000Y-114000000D02*
X68000000Y-113537500D01*
X68000000Y-113537500D02*
X66962500Y-112500000D01*
G04 #@! TO.N,U2A_IN*
X77202216Y-115100010D02*
X76426103Y-114323897D01*
X72025000Y-111885000D02*
X73487998Y-111885000D01*
X73487998Y-111885000D02*
X75926895Y-114323897D01*
X75926895Y-114323897D02*
X76426103Y-114323897D01*
G04 #@! TO.N,IN*
X67037500Y-129750000D02*
X67037500Y-126175000D01*
X67037500Y-126175000D02*
X68212500Y-125000000D01*
X69190000Y-131500000D02*
X68787500Y-131500000D01*
X68787500Y-131500000D02*
X67037500Y-129750000D01*
G04 #@! TO.N,U1B_IN*
X80250000Y-127450000D02*
X84410000Y-127450000D01*
X84410000Y-127450000D02*
X85750000Y-128790000D01*
X80250000Y-127450000D02*
X80052998Y-127450000D01*
X80052998Y-127450000D02*
X76975000Y-124372002D01*
X76975000Y-124372002D02*
X76975000Y-123655000D01*
G04 #@! TO.N,Net-(C5-Pad1)*
X80250000Y-125550000D02*
X79300000Y-125550000D01*
X79300000Y-125550000D02*
X78250000Y-124500000D01*
G04 #@! TO.N,Net-(C4-Pad2)*
X82250000Y-126500000D02*
X82250000Y-124250000D01*
X82250000Y-124250000D02*
X83000000Y-123500000D01*
G04 #@! TO.N,U1B_OUT*
X75100010Y-120215010D02*
X75100010Y-118899990D01*
X75100010Y-117812510D02*
X75100010Y-118899990D01*
G04 #@! TO.N,U1A_OUT*
X72025000Y-119845000D02*
X70632500Y-119845000D01*
X70632500Y-119845000D02*
X69787500Y-119000000D01*
G04 #@! TO.N,Net-(SW1-Pad6)*
X85750000Y-118630000D02*
X84667500Y-118630000D01*
X84667500Y-118630000D02*
X83787500Y-117750000D01*
G04 #@! TO.N,U1B_OUT*
X82212500Y-120750000D02*
X82212500Y-117750000D01*
G04 #@! TO.N,U2A_IN*
X83787500Y-116250000D02*
X80787500Y-116250000D01*
X87141001Y-119778999D02*
X85750000Y-121170000D01*
X83787500Y-116250000D02*
X85428682Y-116250000D01*
X85428682Y-116250000D02*
X87141001Y-117962319D01*
X87141001Y-117962319D02*
X87141001Y-119778999D01*
G04 #@! TO.N,Net-(R19-Pad2)*
X66962500Y-109500000D02*
X66000000Y-109500000D01*
X66000000Y-109500000D02*
X63250000Y-106750000D01*
G04 #@! TO.N,Net-(R23-Pad2)*
X78806250Y-107500000D02*
X78806250Y-105156250D01*
X78806250Y-105156250D02*
X80712500Y-103250000D01*
G04 #@! TO.N,Net-(C10-Pad1)*
X74231250Y-107500000D02*
X73500000Y-107500000D01*
X71287500Y-107500000D02*
X73500000Y-107500000D01*
X73500000Y-107500000D02*
X72806250Y-107500000D01*
X69787500Y-106000000D02*
X71287500Y-107500000D01*
G04 #@! TO.N,Net-(R19-Pad2)*
X68212500Y-106000000D02*
X69062510Y-105149990D01*
X69062510Y-105149990D02*
X70918740Y-105149990D01*
X70918740Y-105149990D02*
X71768750Y-106000000D01*
X66962500Y-109500000D02*
X66962500Y-107250000D01*
X66962500Y-107250000D02*
X68212500Y-106000000D01*
G04 #@! TO.N,OUT*
X76810000Y-131500000D02*
X74962500Y-129652500D01*
X74962500Y-129652500D02*
X74962500Y-128000000D01*
G04 #@! TO.N,Net-(R20-Pad2)*
X71962500Y-126500000D02*
X71500000Y-126500000D01*
X71500000Y-126500000D02*
X71000000Y-127000000D01*
G04 #@! TO.N,Net-(R21-Pad2)*
X71962500Y-128000000D02*
X72037500Y-128000000D01*
X72037500Y-128000000D02*
X73537500Y-126500000D01*
G04 #@! TO.N,OUT*
X73537500Y-128000000D02*
X74962500Y-128000000D01*
G04 #@! TO.N,U1A_OUT*
X76537500Y-126500000D02*
X75624990Y-125587490D01*
X75624990Y-125587490D02*
X75624990Y-122997512D01*
X75624990Y-122997512D02*
X72472478Y-119845000D01*
X72472478Y-119845000D02*
X72025000Y-119845000D01*
X81962500Y-130000000D02*
X80037500Y-130000000D01*
X80037500Y-130000000D02*
X76537500Y-126500000D01*
G04 #@! TO.N,Net-(C10-Pad2)*
X75806250Y-107500000D02*
X75806250Y-106000000D01*
X75806250Y-107500000D02*
X77231250Y-107500000D01*
X76975000Y-110615000D02*
X76000000Y-110615000D01*
X75624990Y-107681260D02*
X75806250Y-107500000D01*
X76000000Y-110615000D02*
X75624990Y-110239990D01*
X75624990Y-110239990D02*
X75624990Y-107681260D01*
G04 #@! TO.N,Net-(R16-Pad2)*
X69467500Y-109032500D02*
X69467500Y-108736250D01*
X71050000Y-110615000D02*
X69467500Y-109032500D01*
X69467500Y-108736250D02*
X68231250Y-107500000D01*
G04 #@! TO.N,Net-(R19-Pad2)*
X66962500Y-108462500D02*
X66962500Y-107987460D01*
X66962500Y-109500000D02*
X66962500Y-108462500D01*
X66962500Y-108462500D02*
X66962500Y-107454044D01*
G04 #@! TO.N,Net-(R20-Pad2)*
X70500000Y-108750000D02*
X70500000Y-108193750D01*
X70500000Y-108193750D02*
X69806250Y-107500000D01*
G04 #@! TO.N,Net-(C10-Pad1)*
X76975000Y-111885000D02*
X76000000Y-111885000D01*
X76000000Y-111885000D02*
X74231250Y-110116250D01*
X74231250Y-110116250D02*
X74231250Y-107500000D01*
G04 #@! TO.N,Net-(R27-Pad2)*
X72750000Y-103250000D02*
X67670000Y-103250000D01*
X74231250Y-106000000D02*
X74231250Y-104731250D01*
X74231250Y-104731250D02*
X72750000Y-103250000D01*
G04 #@! TO.N,Net-(C10-Pad2)*
X75806250Y-106000000D02*
X75806250Y-102839148D01*
X77537500Y-101107898D02*
X77537500Y-100750000D01*
X75806250Y-102839148D02*
X77537500Y-101107898D01*
G04 #@! TO.N,Net-(R23-Pad2)*
X79500000Y-109000000D02*
X79500000Y-108193750D01*
X79500000Y-108193750D02*
X78806250Y-107500000D01*
G04 #@! TO.N,Net-(C5-Pad1)*
X80787500Y-114250000D02*
X81350010Y-113687490D01*
X81350010Y-113687490D02*
X81350010Y-108390010D01*
X81350010Y-108390010D02*
X80960000Y-108000000D01*
G04 #@! TO.N,Net-(R18-Pad2)*
X83787500Y-112750000D02*
X83787500Y-110827500D01*
X83787500Y-110827500D02*
X83500000Y-110540000D01*
G04 #@! TO.N,VCC*
X76975000Y-119845000D02*
X76975000Y-116525000D01*
X76975000Y-116525000D02*
X77000000Y-116500000D01*
G04 #@! TO.N,Net-(C7-Pad1)*
X79212500Y-116250000D02*
X78687499Y-115724999D01*
G04 #@! TO.N,Net-(C7-Pad2)*
X66962500Y-112500000D02*
X67037500Y-112500000D01*
G04 #@! TO.N,Net-(C1-Pad2)*
X69712500Y-125000000D02*
X68212500Y-123500000D01*
X69787500Y-125000000D02*
X69712500Y-125000000D01*
G04 #@! TO.N,+9V*
X66030201Y-132840201D02*
X60750000Y-127560000D01*
X74270000Y-131500000D02*
X72929799Y-132840201D01*
X72929799Y-132840201D02*
X66030201Y-132840201D01*
G04 #@! TO.N,Net-(C3-Pad2)*
X83537500Y-131500000D02*
X85580000Y-131500000D01*
X85580000Y-131500000D02*
X85750000Y-131330000D01*
G04 #@! TO.N,VCC*
X80537500Y-112750000D02*
X80537500Y-112037500D01*
X79212500Y-114250000D02*
X79212500Y-114075000D01*
X80537500Y-112037500D02*
X79625000Y-111125000D01*
X78750000Y-110250000D02*
X77845000Y-109345000D01*
X79625000Y-111125000D02*
X78750000Y-110250000D01*
X60750000Y-119940000D02*
X60750000Y-115750000D01*
X79212500Y-114075000D02*
X80537500Y-112750000D01*
X77845000Y-109345000D02*
X76975000Y-109345000D01*
G04 #@! TO.N,Net-(C4-Pad2)*
X83000000Y-122962500D02*
X82287500Y-122250000D01*
X83787500Y-114250000D02*
X85250000Y-114250000D01*
X83000000Y-123500000D02*
X83000000Y-122962500D01*
G04 #@! TO.N,Net-(C4-Pad1)*
X80712500Y-122250000D02*
X80712500Y-120825000D01*
X80787500Y-120750000D02*
X80787500Y-119250000D01*
X80712500Y-120825000D02*
X80787500Y-120750000D01*
G04 #@! TO.N,Net-(C5-Pad2)*
X82212500Y-112750000D02*
X82212500Y-114250000D01*
X82212500Y-112750000D02*
X82212500Y-111537500D01*
X82212500Y-111537500D02*
X82250000Y-111500000D01*
G04 #@! TO.N,Net-(C5-Pad1)*
X78450000Y-124300000D02*
X78250000Y-124500000D01*
X79212500Y-119250000D02*
X79212500Y-117750000D01*
X67712500Y-122500000D02*
X68212500Y-122000000D01*
X68212500Y-122000000D02*
X68212500Y-120500000D01*
X66750000Y-122500000D02*
X67712500Y-122500000D01*
X64060000Y-120500000D02*
X63500000Y-119940000D01*
X68212500Y-120500000D02*
X64060000Y-120500000D01*
G04 #@! TO.N,Net-(C6-Pad2)*
X85750000Y-123710000D02*
X83787500Y-121747500D01*
X83787500Y-121747500D02*
X83787500Y-120750000D01*
G04 #@! TO.N,U1A_OUT*
X81962500Y-131500000D02*
X81962500Y-130000000D01*
G04 #@! TO.N,Net-(C7-Pad1)*
X80712500Y-117750000D02*
X79212500Y-116250000D01*
X80787500Y-117750000D02*
X80712500Y-117750000D01*
G04 #@! TO.N,U1B_OUT*
X76975000Y-121115000D02*
X77865000Y-121115000D01*
X77865000Y-121115000D02*
X78750000Y-122000000D01*
X76000000Y-121115000D02*
X75100010Y-120215010D01*
X76975000Y-121115000D02*
X76000000Y-121115000D01*
G04 #@! TO.N,Net-(C10-Pad2)*
X75806250Y-106000000D02*
X75806250Y-105525000D01*
G04 #@! TO.N,Net-(C10-Pad1)*
X74231250Y-107500000D02*
X74093730Y-107637520D01*
G04 #@! TO.N,Net-(R21-Pad2)*
X74037500Y-126250000D02*
X75462500Y-126250000D01*
G04 #@! TO.N,Net-(R14-Pad2)*
X75962500Y-100750000D02*
X75540000Y-100750000D01*
X75540000Y-100750000D02*
X74040000Y-99250000D01*
G04 #@! TO.N,Net-(R3-Pad2)*
X69787500Y-122000000D02*
X71640000Y-122000000D01*
X69787500Y-123500000D02*
X69787500Y-122000000D01*
X71640000Y-122000000D02*
X72025000Y-122385000D01*
G04 #@! TO.N,Net-(R5-Pad1)*
X70402500Y-121115000D02*
X72025000Y-121115000D01*
X69787500Y-120500000D02*
X70402500Y-121115000D01*
X69787500Y-120500000D02*
X69712500Y-120500000D01*
X69712500Y-120500000D02*
X68212500Y-119000000D01*
G04 #@! TO.N,Net-(R16-Pad2)*
X72025000Y-110615000D02*
X71050000Y-110615000D01*
X72865000Y-110615000D02*
X72025000Y-110615000D01*
G04 #@! TO.N,Net-(R20-Pad2)*
X69518750Y-107787500D02*
X69806250Y-107500000D01*
X71095000Y-109345000D02*
X72025000Y-109345000D01*
X71000000Y-109250000D02*
X71095000Y-109345000D01*
X70500000Y-108750000D02*
X71000000Y-109250000D01*
G04 #@! TO.N,Net-(R23-Pad2)*
X78768750Y-107537500D02*
X78806250Y-107500000D01*
X76975000Y-113155000D02*
X75905000Y-113155000D01*
X75905000Y-113155000D02*
X75250000Y-112500000D01*
X79212500Y-112750000D02*
X77380000Y-112750000D01*
X77380000Y-112750000D02*
X76975000Y-113155000D01*
G04 #@! TO.N,Net-(R27-Pad2)*
X74231250Y-105712500D02*
X74231250Y-106000000D01*
G04 #@! TO.N,Net-(SW1-Pad3)*
X82250000Y-128750000D02*
X82287500Y-128750000D01*
X82287500Y-128750000D02*
X83537500Y-130000000D01*
G04 #@! TO.N,U1B_IN*
X79525001Y-122372001D02*
X79525001Y-121062501D01*
X78242002Y-123655000D02*
X79525001Y-122372001D01*
X76975000Y-123655000D02*
X78242002Y-123655000D01*
X79525001Y-121062501D02*
X79212500Y-120750000D01*
G04 #@! TO.N,U2A_IN*
X79637510Y-115100010D02*
X77202216Y-115100010D01*
X80787500Y-116250000D02*
X79637510Y-115100010D01*
G04 #@! TD*
G04 #@! TA.AperFunction,Conductor*
G04 #@! TO.N,GND*
G36*
X76733621Y-127766002D02*
G01*
X76780114Y-127819658D01*
X76791500Y-127872000D01*
X76791500Y-128964885D01*
X76795975Y-128980124D01*
X76797365Y-128981329D01*
X76802985Y-128982551D01*
X76917319Y-128969222D01*
X76931466Y-128965878D01*
X77077022Y-128913043D01*
X77090017Y-128906535D01*
X77219511Y-128821635D01*
X77230663Y-128812311D01*
X77337149Y-128699902D01*
X77345867Y-128688249D01*
X77415462Y-128568434D01*
X77466973Y-128519576D01*
X77536721Y-128506322D01*
X77602563Y-128532882D01*
X77613510Y-128542625D01*
X79534564Y-130463679D01*
X79540418Y-130469945D01*
X79576804Y-130511655D01*
X79583018Y-130516022D01*
X79627136Y-130547029D01*
X79632431Y-130550962D01*
X79680837Y-130588917D01*
X79687760Y-130592043D01*
X79692076Y-130594657D01*
X79701464Y-130600012D01*
X79705932Y-130602408D01*
X79712149Y-130606777D01*
X79769481Y-130629130D01*
X79775551Y-130631682D01*
X79831609Y-130656993D01*
X79839079Y-130658378D01*
X79843940Y-130659901D01*
X79854324Y-130662859D01*
X79859201Y-130664111D01*
X79866277Y-130666870D01*
X79873807Y-130667861D01*
X79873810Y-130667862D01*
X79927290Y-130674902D01*
X79933807Y-130675934D01*
X79955146Y-130679889D01*
X79994268Y-130687140D01*
X80001848Y-130686703D01*
X80001849Y-130686703D01*
X80053770Y-130683709D01*
X80061023Y-130683500D01*
X81009154Y-130683500D01*
X81077275Y-130703502D01*
X81123768Y-130757158D01*
X81133872Y-130827432D01*
X81118108Y-130872785D01*
X81075910Y-130945435D01*
X81072233Y-130951766D01*
X81023073Y-131114080D01*
X81016500Y-131187727D01*
X81016500Y-131799135D01*
X81031140Y-131924704D01*
X81089006Y-132084122D01*
X81181993Y-132225951D01*
X81305115Y-132342586D01*
X81451766Y-132427767D01*
X81614080Y-132476927D01*
X81620520Y-132477502D01*
X81620521Y-132477502D01*
X81684934Y-132483251D01*
X81684940Y-132483251D01*
X81687727Y-132483500D01*
X82224135Y-132483500D01*
X82314213Y-132472998D01*
X82342432Y-132469708D01*
X82342433Y-132469708D01*
X82349704Y-132468860D01*
X82356581Y-132466364D01*
X82356584Y-132466363D01*
X82502243Y-132413491D01*
X82509122Y-132410994D01*
X82650951Y-132318007D01*
X82660413Y-132308018D01*
X82721783Y-132272321D01*
X82792710Y-132275469D01*
X82838537Y-132303199D01*
X82880115Y-132342586D01*
X83026766Y-132427767D01*
X83189080Y-132476927D01*
X83195520Y-132477502D01*
X83195521Y-132477502D01*
X83259934Y-132483251D01*
X83259940Y-132483251D01*
X83262727Y-132483500D01*
X83799135Y-132483500D01*
X83889213Y-132472998D01*
X83917432Y-132469708D01*
X83917433Y-132469708D01*
X83924704Y-132468860D01*
X83931581Y-132466364D01*
X83931584Y-132466363D01*
X84083849Y-132411093D01*
X84154706Y-132406652D01*
X84216716Y-132441224D01*
X84247736Y-132494035D01*
X84266904Y-132559316D01*
X84271775Y-132566895D01*
X84341051Y-132674691D01*
X84341053Y-132674694D01*
X84345923Y-132682271D01*
X84447334Y-132770144D01*
X84448063Y-132770776D01*
X84486446Y-132830502D01*
X84486446Y-132901498D01*
X84448062Y-132961225D01*
X84383482Y-132990718D01*
X84365550Y-132992000D01*
X77649751Y-132992000D01*
X77581630Y-132971998D01*
X77535137Y-132918342D01*
X77525033Y-132848068D01*
X77554527Y-132783488D01*
X77576582Y-132763422D01*
X77760226Y-132632430D01*
X77760231Y-132632426D01*
X77764438Y-132629425D01*
X77936087Y-132458375D01*
X77970063Y-132411093D01*
X78074475Y-132265787D01*
X78077493Y-132261587D01*
X78082306Y-132251850D01*
X78162177Y-132090242D01*
X78184860Y-132044346D01*
X78201082Y-131990953D01*
X78253801Y-131817438D01*
X78253802Y-131817432D01*
X78255305Y-131812486D01*
X78286935Y-131572234D01*
X78288700Y-131500000D01*
X78268844Y-131258490D01*
X78209810Y-131023466D01*
X78113183Y-130801239D01*
X77981559Y-130597778D01*
X77976959Y-130592722D01*
X77821949Y-130422369D01*
X77821947Y-130422368D01*
X77818471Y-130418547D01*
X77814420Y-130415348D01*
X77814416Y-130415344D01*
X77632355Y-130271561D01*
X77632351Y-130271559D01*
X77628300Y-130268359D01*
X77416153Y-130151248D01*
X77411284Y-130149524D01*
X77411280Y-130149522D01*
X77192603Y-130072084D01*
X77192599Y-130072083D01*
X77187728Y-130070358D01*
X77182638Y-130069451D01*
X77182633Y-130069450D01*
X77048067Y-130045481D01*
X76949158Y-130027863D01*
X76858181Y-130026751D01*
X76712021Y-130024965D01*
X76712019Y-130024965D01*
X76706851Y-130024902D01*
X76570006Y-130045842D01*
X76472423Y-130060774D01*
X76472420Y-130060775D01*
X76467314Y-130061556D01*
X76443520Y-130069333D01*
X76372557Y-130071486D01*
X76315278Y-130038664D01*
X75682905Y-129406291D01*
X75648879Y-129343979D01*
X75646000Y-129317196D01*
X75646000Y-128913044D01*
X75666002Y-128844923D01*
X75719658Y-128798430D01*
X75789932Y-128788326D01*
X75858652Y-128821570D01*
X75875098Y-128837149D01*
X75886745Y-128845862D01*
X76020640Y-128923635D01*
X76033965Y-128929429D01*
X76182984Y-128974562D01*
X76195607Y-128977010D01*
X76259934Y-128982751D01*
X76265404Y-128982994D01*
X76280624Y-128978525D01*
X76281829Y-128977135D01*
X76283500Y-128969452D01*
X76283500Y-127872000D01*
X76303502Y-127803879D01*
X76357158Y-127757386D01*
X76409500Y-127746000D01*
X76665500Y-127746000D01*
X76733621Y-127766002D01*
G37*
G04 #@! TD.AperFunction*
G04 #@! TA.AperFunction,Conductor*
G36*
X67327276Y-121203502D02*
G01*
X67373769Y-121257158D01*
X67383873Y-121327432D01*
X67368109Y-121372785D01*
X67332564Y-121433982D01*
X67322234Y-121451766D01*
X67320111Y-121458774D01*
X67320111Y-121458775D01*
X67281281Y-121586979D01*
X67242392Y-121646377D01*
X67177563Y-121675320D01*
X67109443Y-121665562D01*
X67032287Y-121631210D01*
X66938887Y-121611357D01*
X66851944Y-121592876D01*
X66851939Y-121592876D01*
X66845487Y-121591504D01*
X66654513Y-121591504D01*
X66648061Y-121592876D01*
X66648056Y-121592876D01*
X66561113Y-121611357D01*
X66467713Y-121631210D01*
X66461683Y-121633895D01*
X66461682Y-121633895D01*
X66299280Y-121706201D01*
X66299278Y-121706202D01*
X66293250Y-121708886D01*
X66287909Y-121712766D01*
X66287908Y-121712767D01*
X66144093Y-121817254D01*
X66144091Y-121817256D01*
X66138749Y-121821137D01*
X66010963Y-121963058D01*
X65915476Y-122128446D01*
X65913434Y-122134731D01*
X65863467Y-122288515D01*
X65856462Y-122310073D01*
X65836500Y-122500000D01*
X65837190Y-122506565D01*
X65851585Y-122643521D01*
X65856462Y-122689927D01*
X65858502Y-122696205D01*
X65858502Y-122696206D01*
X65870212Y-122732246D01*
X65915476Y-122871554D01*
X65918779Y-122877276D01*
X65918780Y-122877277D01*
X65952689Y-122936008D01*
X66010963Y-123036942D01*
X66015381Y-123041849D01*
X66015382Y-123041850D01*
X66134311Y-123173934D01*
X66138749Y-123178863D01*
X66144091Y-123182744D01*
X66144093Y-123182746D01*
X66246432Y-123257099D01*
X66293250Y-123291114D01*
X66299278Y-123293798D01*
X66299280Y-123293799D01*
X66390957Y-123334616D01*
X66467713Y-123368790D01*
X66561113Y-123388643D01*
X66648056Y-123407124D01*
X66648061Y-123407124D01*
X66654513Y-123408496D01*
X66845487Y-123408496D01*
X66851939Y-123407124D01*
X66851944Y-123407124D01*
X66938887Y-123388643D01*
X67032287Y-123368790D01*
X67089251Y-123343428D01*
X67159618Y-123333994D01*
X67223915Y-123364100D01*
X67261729Y-123424189D01*
X67266500Y-123458535D01*
X67266500Y-123799135D01*
X67281140Y-123924704D01*
X67283636Y-123931581D01*
X67283637Y-123931584D01*
X67314662Y-124017055D01*
X67339006Y-124084122D01*
X67375496Y-124139779D01*
X67400674Y-124178182D01*
X67421297Y-124246118D01*
X67404256Y-124310552D01*
X67322233Y-124451766D01*
X67273073Y-124614080D01*
X67272498Y-124620520D01*
X67272498Y-124620521D01*
X67268882Y-124661042D01*
X67266500Y-124687727D01*
X67266500Y-124927194D01*
X67246498Y-124995315D01*
X67229596Y-125016289D01*
X66573815Y-125672071D01*
X66567549Y-125677924D01*
X66525846Y-125714304D01*
X66490464Y-125764647D01*
X66486558Y-125769907D01*
X66475681Y-125783779D01*
X66453987Y-125811446D01*
X66448582Y-125818339D01*
X66445457Y-125825260D01*
X66442841Y-125829580D01*
X66437502Y-125838940D01*
X66435093Y-125843433D01*
X66430724Y-125849649D01*
X66412914Y-125895330D01*
X66408382Y-125906953D01*
X66405826Y-125913032D01*
X66386728Y-125955330D01*
X66380506Y-125969111D01*
X66379123Y-125976574D01*
X66377614Y-125981388D01*
X66374645Y-125991812D01*
X66373390Y-125996701D01*
X66370631Y-126003777D01*
X66363435Y-126058434D01*
X66362600Y-126064779D01*
X66361570Y-126071282D01*
X66350360Y-126131769D01*
X66350797Y-126139350D01*
X66350797Y-126139351D01*
X66353792Y-126191295D01*
X66354001Y-126198548D01*
X66354000Y-128836957D01*
X66333998Y-128905078D01*
X66280342Y-128951571D01*
X66210068Y-128961674D01*
X66141348Y-128928431D01*
X66124902Y-128912852D01*
X66113255Y-128904139D01*
X65979362Y-128826367D01*
X65966030Y-128820570D01*
X65817019Y-128775439D01*
X65804393Y-128772990D01*
X65740066Y-128767249D01*
X65734596Y-128767006D01*
X65719376Y-128771475D01*
X65718171Y-128772865D01*
X65716500Y-128780548D01*
X65716499Y-129495998D01*
X65716500Y-129496004D01*
X65716499Y-130714885D01*
X65720974Y-130730124D01*
X65722364Y-130731329D01*
X65727984Y-130732551D01*
X65842318Y-130719222D01*
X65856465Y-130715878D01*
X66002021Y-130663043D01*
X66015016Y-130656535D01*
X66144510Y-130571635D01*
X66155667Y-130562307D01*
X66160053Y-130557677D01*
X66221422Y-130521979D01*
X66292349Y-130525127D01*
X66338178Y-130552857D01*
X66380115Y-130592585D01*
X66390471Y-130598600D01*
X66520433Y-130674088D01*
X66520436Y-130674089D01*
X66526766Y-130677766D01*
X66533774Y-130679889D01*
X66533775Y-130679889D01*
X66553146Y-130685756D01*
X66689080Y-130726927D01*
X66695516Y-130727501D01*
X66695519Y-130727502D01*
X66759934Y-130733251D01*
X66759940Y-130733251D01*
X66762727Y-130733500D01*
X67002195Y-130733500D01*
X67070316Y-130753502D01*
X67091291Y-130770405D01*
X67674396Y-131353511D01*
X67708421Y-131415823D01*
X67711300Y-131442606D01*
X67711300Y-132030701D01*
X67691298Y-132098822D01*
X67637642Y-132145315D01*
X67585300Y-132156701D01*
X66365506Y-132156701D01*
X66297385Y-132136699D01*
X66276411Y-132119796D01*
X65104710Y-130948095D01*
X65070684Y-130885783D01*
X65075749Y-130814968D01*
X65118296Y-130758132D01*
X65184816Y-130733321D01*
X65189911Y-130733139D01*
X65205624Y-130728525D01*
X65206829Y-130727135D01*
X65208500Y-130719452D01*
X65208501Y-130022115D01*
X65204026Y-130006876D01*
X65202636Y-130005671D01*
X65194953Y-130004000D01*
X64535115Y-130003999D01*
X64519876Y-130008474D01*
X64518671Y-130009864D01*
X64517000Y-130017547D01*
X64517000Y-130045481D01*
X64517223Y-130049314D01*
X64501211Y-130118481D01*
X64450346Y-130168011D01*
X64380777Y-130182179D01*
X64314593Y-130156487D01*
X64302341Y-130145726D01*
X63597144Y-129440529D01*
X64517000Y-129440529D01*
X64517000Y-129477885D01*
X64521475Y-129493124D01*
X64522865Y-129494329D01*
X64530548Y-129496000D01*
X65190385Y-129496001D01*
X65205624Y-129491526D01*
X65206829Y-129490136D01*
X65208500Y-129482453D01*
X65208501Y-128785115D01*
X65204026Y-128769876D01*
X65202636Y-128768671D01*
X65197016Y-128767449D01*
X65082682Y-128780778D01*
X65068535Y-128784122D01*
X64922979Y-128836957D01*
X64909984Y-128843465D01*
X64780490Y-128928365D01*
X64769338Y-128937689D01*
X64662852Y-129050098D01*
X64654139Y-129061745D01*
X64576367Y-129195638D01*
X64570570Y-129208970D01*
X64525439Y-129357981D01*
X64522990Y-129370607D01*
X64517249Y-129434934D01*
X64517000Y-129440529D01*
X63597144Y-129440529D01*
X63282905Y-129126290D01*
X63248879Y-129063978D01*
X63246000Y-129037195D01*
X63246000Y-129028660D01*
X63753999Y-129028660D01*
X63757712Y-129041306D01*
X63773141Y-129043193D01*
X63891716Y-129021001D01*
X63901455Y-129018355D01*
X64120263Y-128939579D01*
X64129456Y-128935409D01*
X64332850Y-128822666D01*
X64341263Y-128817077D01*
X64524019Y-128673262D01*
X64531420Y-128666408D01*
X64688836Y-128495219D01*
X64695042Y-128487277D01*
X64823069Y-128293113D01*
X64827926Y-128284278D01*
X64923259Y-128072154D01*
X64926642Y-128062653D01*
X64986835Y-127838011D01*
X64988094Y-127831153D01*
X64985512Y-127817310D01*
X64973307Y-127814000D01*
X63772115Y-127813999D01*
X63756876Y-127818474D01*
X63755671Y-127819864D01*
X63754000Y-127827547D01*
X63753999Y-129028660D01*
X63246000Y-129028660D01*
X63246001Y-127814000D01*
X63246000Y-127813996D01*
X63246000Y-127287885D01*
X63753999Y-127287885D01*
X63758474Y-127303124D01*
X63759864Y-127304329D01*
X63767547Y-127306000D01*
X64972450Y-127306001D01*
X64985981Y-127302028D01*
X64987313Y-127292761D01*
X64936856Y-127087337D01*
X64933673Y-127077767D01*
X64842802Y-126863688D01*
X64838128Y-126854749D01*
X64714206Y-126657963D01*
X64708161Y-126649882D01*
X64554365Y-126475435D01*
X64547104Y-126468424D01*
X64367400Y-126320812D01*
X64359122Y-126315059D01*
X64158114Y-126198069D01*
X64149023Y-126193714D01*
X63931907Y-126110371D01*
X63922230Y-126107523D01*
X63771736Y-126076083D01*
X63757675Y-126077206D01*
X63754000Y-126087313D01*
X63753999Y-127287885D01*
X63246000Y-127287885D01*
X63246001Y-126089316D01*
X63241865Y-126075230D01*
X63228887Y-126073181D01*
X63211150Y-126075233D01*
X63201256Y-126077192D01*
X62977473Y-126140516D01*
X62968029Y-126144028D01*
X62757249Y-126242317D01*
X62748484Y-126247296D01*
X62556139Y-126378014D01*
X62548264Y-126384346D01*
X62379304Y-126544123D01*
X62372543Y-126551632D01*
X62231299Y-126736372D01*
X62228617Y-126740533D01*
X62174901Y-126786956D01*
X62104614Y-126796968D01*
X62040071Y-126767391D01*
X62016088Y-126739416D01*
X62012442Y-126733626D01*
X61961907Y-126653378D01*
X61801365Y-126471279D01*
X61613775Y-126317191D01*
X61403962Y-126195076D01*
X61399235Y-126193262D01*
X61399232Y-126193260D01*
X61182048Y-126109891D01*
X61182044Y-126109890D01*
X61177324Y-126108078D01*
X61172374Y-126107044D01*
X61172371Y-126107043D01*
X60944643Y-126059468D01*
X60944639Y-126059468D01*
X60939692Y-126058434D01*
X60697180Y-126047422D01*
X60692160Y-126048003D01*
X60692156Y-126048003D01*
X60461056Y-126074742D01*
X60456026Y-126075324D01*
X60451155Y-126076702D01*
X60451152Y-126076703D01*
X60395130Y-126092556D01*
X60222436Y-126141424D01*
X60181905Y-126160324D01*
X60007001Y-126241882D01*
X60006997Y-126241884D01*
X60002419Y-126244019D01*
X59801635Y-126380472D01*
X59625250Y-126547271D01*
X59622172Y-126551297D01*
X59622171Y-126551298D01*
X59484096Y-126731893D01*
X59426831Y-126773861D01*
X59355968Y-126778206D01*
X59294004Y-126743550D01*
X59260614Y-126680896D01*
X59258000Y-126655364D01*
X59258000Y-121462123D01*
X59278002Y-121394002D01*
X59331658Y-121347509D01*
X59401932Y-121337405D01*
X59457096Y-121362599D01*
X59457989Y-121361210D01*
X59465570Y-121366082D01*
X59472381Y-121371984D01*
X59480579Y-121375728D01*
X59520594Y-121394002D01*
X59605330Y-121432700D01*
X59614245Y-121433982D01*
X59614246Y-121433982D01*
X59745552Y-121452861D01*
X59745559Y-121452862D01*
X59750000Y-121453500D01*
X61750000Y-121453500D01*
X61823079Y-121448273D01*
X61901165Y-121425345D01*
X61954670Y-121409635D01*
X61954672Y-121409634D01*
X61963316Y-121407096D01*
X61970894Y-121402226D01*
X61970896Y-121402225D01*
X62055978Y-121347546D01*
X62124099Y-121327544D01*
X62192220Y-121347546D01*
X62206612Y-121358320D01*
X62215569Y-121366082D01*
X62215572Y-121366084D01*
X62222381Y-121371984D01*
X62230579Y-121375728D01*
X62270594Y-121394002D01*
X62355330Y-121432700D01*
X62364245Y-121433982D01*
X62364246Y-121433982D01*
X62495552Y-121452861D01*
X62495559Y-121452862D01*
X62500000Y-121453500D01*
X64500000Y-121453500D01*
X64573079Y-121448273D01*
X64651165Y-121425345D01*
X64704670Y-121409635D01*
X64704672Y-121409634D01*
X64713316Y-121407096D01*
X64777135Y-121366082D01*
X64828691Y-121332949D01*
X64828694Y-121332947D01*
X64836271Y-121328077D01*
X64872904Y-121285801D01*
X64923867Y-121226987D01*
X64983593Y-121188604D01*
X65019091Y-121183500D01*
X67259155Y-121183500D01*
X67327276Y-121203502D01*
G37*
G04 #@! TD.AperFunction*
G04 #@! TA.AperFunction,Conductor*
G36*
X73699268Y-122041853D02*
G01*
X73718437Y-122057574D01*
X74904586Y-123243723D01*
X74938612Y-123306035D01*
X74941491Y-123332818D01*
X74941490Y-125390500D01*
X74921488Y-125458621D01*
X74867832Y-125505114D01*
X74815490Y-125516500D01*
X74700865Y-125516500D01*
X74628406Y-125524948D01*
X74582568Y-125530292D01*
X74582567Y-125530292D01*
X74575296Y-125531140D01*
X74568419Y-125533636D01*
X74568416Y-125533637D01*
X74498711Y-125558939D01*
X74455720Y-125566500D01*
X74047966Y-125566500D01*
X74011443Y-125561090D01*
X73892111Y-125524948D01*
X73892110Y-125524948D01*
X73885920Y-125523073D01*
X73879480Y-125522498D01*
X73879479Y-125522498D01*
X73815066Y-125516749D01*
X73815060Y-125516749D01*
X73812273Y-125516500D01*
X73275865Y-125516500D01*
X73203406Y-125524948D01*
X73157568Y-125530292D01*
X73157567Y-125530292D01*
X73150296Y-125531140D01*
X73143419Y-125533636D01*
X73143416Y-125533637D01*
X73036665Y-125572386D01*
X72990878Y-125589006D01*
X72849049Y-125681993D01*
X72844011Y-125687311D01*
X72844010Y-125687312D01*
X72839586Y-125691982D01*
X72778217Y-125727679D01*
X72707290Y-125724531D01*
X72661463Y-125696801D01*
X72619885Y-125657414D01*
X72473234Y-125572233D01*
X72310920Y-125523073D01*
X72304480Y-125522498D01*
X72304479Y-125522498D01*
X72240066Y-125516749D01*
X72240060Y-125516749D01*
X72237273Y-125516500D01*
X71700865Y-125516500D01*
X71628406Y-125524948D01*
X71582568Y-125530292D01*
X71582567Y-125530292D01*
X71575296Y-125531140D01*
X71568419Y-125533636D01*
X71568416Y-125533637D01*
X71461665Y-125572386D01*
X71415878Y-125589006D01*
X71274049Y-125681993D01*
X71157414Y-125805115D01*
X71072233Y-125951766D01*
X71070164Y-125950564D01*
X71047785Y-125981420D01*
X71044687Y-125983549D01*
X71039635Y-125989219D01*
X71039633Y-125989221D01*
X71005021Y-126028069D01*
X71000040Y-126033345D01*
X70977045Y-126056340D01*
X70914733Y-126090366D01*
X70907656Y-126091504D01*
X70904513Y-126091504D01*
X70717713Y-126131210D01*
X70711683Y-126133895D01*
X70711682Y-126133895D01*
X70549280Y-126206201D01*
X70549278Y-126206202D01*
X70543250Y-126208886D01*
X70537909Y-126212766D01*
X70537908Y-126212767D01*
X70394093Y-126317254D01*
X70394091Y-126317256D01*
X70388749Y-126321137D01*
X70384328Y-126326047D01*
X70384327Y-126326048D01*
X70265415Y-126458114D01*
X70260963Y-126463058D01*
X70233685Y-126510305D01*
X70176475Y-126609396D01*
X70165476Y-126628446D01*
X70158608Y-126649584D01*
X70128077Y-126743550D01*
X70106462Y-126810073D01*
X70105772Y-126816636D01*
X70105772Y-126816637D01*
X70100827Y-126863688D01*
X70086500Y-127000000D01*
X70106462Y-127189927D01*
X70165476Y-127371554D01*
X70168779Y-127377276D01*
X70168780Y-127377277D01*
X70194217Y-127421334D01*
X70260963Y-127536942D01*
X70265381Y-127541849D01*
X70265382Y-127541850D01*
X70329637Y-127613212D01*
X70388749Y-127678863D01*
X70394091Y-127682744D01*
X70394093Y-127682746D01*
X70496827Y-127757386D01*
X70543250Y-127791114D01*
X70549278Y-127793798D01*
X70549280Y-127793799D01*
X70711682Y-127866105D01*
X70717713Y-127868790D01*
X70904513Y-127908496D01*
X70905568Y-127908496D01*
X70969323Y-127934723D01*
X71009955Y-127992942D01*
X71016500Y-128033023D01*
X71016500Y-128299135D01*
X71031140Y-128424704D01*
X71033636Y-128431581D01*
X71033637Y-128431584D01*
X71086509Y-128577243D01*
X71089006Y-128584122D01*
X71181993Y-128725951D01*
X71305115Y-128842586D01*
X71451766Y-128927767D01*
X71614080Y-128976927D01*
X71620520Y-128977502D01*
X71620521Y-128977502D01*
X71684934Y-128983251D01*
X71684940Y-128983251D01*
X71687727Y-128983500D01*
X72224135Y-128983500D01*
X72314213Y-128972998D01*
X72342432Y-128969708D01*
X72342433Y-128969708D01*
X72349704Y-128968860D01*
X72356581Y-128966364D01*
X72356584Y-128966363D01*
X72502243Y-128913491D01*
X72509122Y-128910994D01*
X72650951Y-128818007D01*
X72660413Y-128808018D01*
X72721783Y-128772321D01*
X72792710Y-128775469D01*
X72838537Y-128803199D01*
X72880115Y-128842586D01*
X73026766Y-128927767D01*
X73189080Y-128976927D01*
X73195520Y-128977502D01*
X73195521Y-128977502D01*
X73259934Y-128983251D01*
X73259940Y-128983251D01*
X73262727Y-128983500D01*
X73799135Y-128983500D01*
X73889213Y-128972998D01*
X73917432Y-128969708D01*
X73917433Y-128969708D01*
X73924704Y-128968860D01*
X73931581Y-128966364D01*
X73931584Y-128966363D01*
X74005372Y-128939579D01*
X74084122Y-128910994D01*
X74090247Y-128906978D01*
X74096582Y-128903806D01*
X74166449Y-128891189D01*
X74232046Y-128918347D01*
X74272546Y-128976658D01*
X74279001Y-129016467D01*
X74279000Y-129325297D01*
X74279000Y-129624762D01*
X74278708Y-129633331D01*
X74275718Y-129677196D01*
X74274945Y-129688533D01*
X74276250Y-129696009D01*
X74276250Y-129696015D01*
X74285519Y-129749126D01*
X74286482Y-129755648D01*
X74293874Y-129816729D01*
X74296558Y-129823832D01*
X74297760Y-129828726D01*
X74300623Y-129839192D01*
X74302081Y-129844023D01*
X74303386Y-129851498D01*
X74306436Y-129858445D01*
X74307728Y-129862726D01*
X74308267Y-129933720D01*
X74270338Y-129993736D01*
X74205982Y-130023718D01*
X74185567Y-130025131D01*
X74176415Y-130025019D01*
X74172020Y-130024965D01*
X74172018Y-130024965D01*
X74166851Y-130024902D01*
X73927314Y-130061556D01*
X73696981Y-130136841D01*
X73692393Y-130139229D01*
X73692389Y-130139231D01*
X73578479Y-130198529D01*
X73482036Y-130248734D01*
X73477903Y-130251837D01*
X73477900Y-130251839D01*
X73309474Y-130378297D01*
X73288252Y-130394231D01*
X73120834Y-130569424D01*
X73104940Y-130592723D01*
X73050032Y-130637725D01*
X72979507Y-130645898D01*
X72915759Y-130614644D01*
X72901027Y-130598600D01*
X72897686Y-130594262D01*
X72741608Y-130422735D01*
X72734075Y-130415710D01*
X72552081Y-130271981D01*
X72543494Y-130266276D01*
X72340482Y-130154207D01*
X72331070Y-130149977D01*
X72112469Y-130072566D01*
X72102512Y-130069936D01*
X72001836Y-130052002D01*
X71988541Y-130053461D01*
X71984000Y-130068019D01*
X71984000Y-131628000D01*
X71963998Y-131696121D01*
X71910342Y-131742614D01*
X71858000Y-131754000D01*
X71602000Y-131754000D01*
X71533879Y-131733998D01*
X71487386Y-131680342D01*
X71476000Y-131628000D01*
X71476000Y-130066605D01*
X71472082Y-130053261D01*
X71457806Y-130051274D01*
X71392542Y-130061261D01*
X71382515Y-130063650D01*
X71162092Y-130135695D01*
X71152582Y-130139692D01*
X70946891Y-130246768D01*
X70938166Y-130252262D01*
X70803476Y-130353391D01*
X70736991Y-130378297D01*
X70667596Y-130363305D01*
X70621826Y-130320753D01*
X70543277Y-130198529D01*
X70508058Y-130168011D01*
X70439631Y-130108718D01*
X70439628Y-130108716D01*
X70432819Y-130102816D01*
X70359502Y-130069333D01*
X70308064Y-130045842D01*
X70308063Y-130045842D01*
X70299870Y-130042100D01*
X70290955Y-130040818D01*
X70290954Y-130040818D01*
X70159648Y-130021939D01*
X70159641Y-130021938D01*
X70155200Y-130021300D01*
X68327604Y-130021300D01*
X68259483Y-130001298D01*
X68238509Y-129984395D01*
X68020405Y-129766291D01*
X67986379Y-129703979D01*
X67983500Y-129677196D01*
X67983500Y-129450866D01*
X67968860Y-129325297D01*
X67965920Y-129317196D01*
X67913491Y-129172758D01*
X67910994Y-129165879D01*
X67818007Y-129024050D01*
X67760347Y-128969428D01*
X67724649Y-128908058D01*
X67721000Y-128877955D01*
X67721000Y-126510305D01*
X67741002Y-126442184D01*
X67757905Y-126421209D01*
X68158711Y-126020404D01*
X68221023Y-125986379D01*
X68247806Y-125983500D01*
X68474135Y-125983500D01*
X68564213Y-125972998D01*
X68592432Y-125969708D01*
X68592433Y-125969708D01*
X68599704Y-125968860D01*
X68606581Y-125966364D01*
X68606584Y-125966363D01*
X68752243Y-125913491D01*
X68759122Y-125910994D01*
X68900951Y-125818007D01*
X68906300Y-125812361D01*
X68910414Y-125808018D01*
X68971783Y-125772321D01*
X69042710Y-125775469D01*
X69088537Y-125803199D01*
X69130115Y-125842586D01*
X69276766Y-125927767D01*
X69439080Y-125976927D01*
X69445520Y-125977502D01*
X69445521Y-125977502D01*
X69509934Y-125983251D01*
X69509940Y-125983251D01*
X69512727Y-125983500D01*
X70049135Y-125983500D01*
X70139213Y-125972998D01*
X70167432Y-125969708D01*
X70167433Y-125969708D01*
X70174704Y-125968860D01*
X70181581Y-125966364D01*
X70181584Y-125966363D01*
X70327243Y-125913491D01*
X70334122Y-125910994D01*
X70475951Y-125818007D01*
X70592586Y-125694885D01*
X70677767Y-125548234D01*
X70726927Y-125385920D01*
X70730911Y-125341281D01*
X70733251Y-125315066D01*
X70733251Y-125315060D01*
X70733500Y-125312273D01*
X70733500Y-124700865D01*
X70718860Y-124575296D01*
X70704954Y-124536985D01*
X70700512Y-124466128D01*
X70735084Y-124404117D01*
X70797693Y-124370642D01*
X70868461Y-124376329D01*
X70877040Y-124379985D01*
X70987945Y-124432173D01*
X71002913Y-124437036D01*
X71133176Y-124461886D01*
X71144961Y-124463000D01*
X71752885Y-124463000D01*
X71768124Y-124458525D01*
X71769329Y-124457135D01*
X71771000Y-124449452D01*
X71771000Y-123922548D01*
X72279000Y-123922548D01*
X72279000Y-124444885D01*
X72283475Y-124460124D01*
X72284865Y-124461329D01*
X72292548Y-124463000D01*
X72885621Y-124463000D01*
X72893511Y-124462503D01*
X73007016Y-124448165D01*
X73022249Y-124444254D01*
X73162034Y-124388909D01*
X73175816Y-124381332D01*
X73297441Y-124292966D01*
X73308908Y-124282198D01*
X73404736Y-124166361D01*
X73413165Y-124153079D01*
X73477173Y-124017055D01*
X73482036Y-124002087D01*
X73496400Y-123926794D01*
X73495129Y-123913755D01*
X73480207Y-123909000D01*
X72297115Y-123909000D01*
X72281876Y-123913475D01*
X72280671Y-123914865D01*
X72279000Y-123922548D01*
X71771000Y-123922548D01*
X71771000Y-123527000D01*
X71791002Y-123458879D01*
X71844658Y-123412386D01*
X71897000Y-123401000D01*
X73481747Y-123401000D01*
X73495624Y-123396925D01*
X73497661Y-123383574D01*
X73493165Y-123347984D01*
X73489254Y-123332751D01*
X73433909Y-123192966D01*
X73426332Y-123179184D01*
X73364581Y-123094191D01*
X73340722Y-123027323D01*
X73356803Y-122958171D01*
X73369433Y-122939814D01*
X73405159Y-122896629D01*
X73410212Y-122890521D01*
X73481026Y-122740033D01*
X73482511Y-122732250D01*
X73482512Y-122732246D01*
X73507386Y-122601852D01*
X73507386Y-122601849D01*
X73508500Y-122596011D01*
X73508500Y-122195421D01*
X73504336Y-122162461D01*
X73515642Y-122092371D01*
X73563047Y-122039520D01*
X73631500Y-122020687D01*
X73699268Y-122041853D01*
G37*
G04 #@! TD.AperFunction*
G04 #@! TA.AperFunction,Conductor*
G36*
X87013121Y-97528002D02*
G01*
X87059614Y-97581658D01*
X87071000Y-97634000D01*
X87071000Y-106676911D01*
X87050998Y-106745032D01*
X86997342Y-106791525D01*
X86927068Y-106801629D01*
X86866908Y-106775793D01*
X86862081Y-106771981D01*
X86853494Y-106766276D01*
X86650482Y-106654207D01*
X86641070Y-106649977D01*
X86422469Y-106572566D01*
X86412512Y-106569936D01*
X86311836Y-106552002D01*
X86298541Y-106553461D01*
X86294000Y-106568019D01*
X86293999Y-107745998D01*
X86294000Y-107746004D01*
X86293999Y-109434615D01*
X86298063Y-109448457D01*
X86311477Y-109450491D01*
X86342205Y-109446555D01*
X86352288Y-109444412D01*
X86574418Y-109377770D01*
X86583995Y-109374017D01*
X86792264Y-109271987D01*
X86801109Y-109266714D01*
X86871831Y-109216268D01*
X86938904Y-109192994D01*
X87007913Y-109209676D01*
X87056947Y-109261020D01*
X87071000Y-109318846D01*
X87071000Y-116621513D01*
X87050998Y-116689634D01*
X86997342Y-116736127D01*
X86927068Y-116746231D01*
X86862488Y-116716737D01*
X86855917Y-116710620D01*
X85931611Y-115786315D01*
X85925771Y-115780063D01*
X85894374Y-115744072D01*
X85889378Y-115738345D01*
X85839042Y-115702968D01*
X85833756Y-115699042D01*
X85826049Y-115693000D01*
X85785343Y-115661082D01*
X85778414Y-115657954D01*
X85774062Y-115655318D01*
X85764712Y-115649985D01*
X85760248Y-115647591D01*
X85754033Y-115643223D01*
X85746958Y-115640464D01*
X85746955Y-115640463D01*
X85696714Y-115620875D01*
X85690633Y-115618319D01*
X85641495Y-115596132D01*
X85641493Y-115596131D01*
X85634571Y-115593006D01*
X85627102Y-115591622D01*
X85622256Y-115590103D01*
X85611845Y-115587138D01*
X85606983Y-115585890D01*
X85599905Y-115583130D01*
X85568758Y-115579030D01*
X85538888Y-115575097D01*
X85532374Y-115574065D01*
X85479382Y-115564244D01*
X85479380Y-115564244D01*
X85471913Y-115562860D01*
X85464332Y-115563297D01*
X85464331Y-115563297D01*
X85412405Y-115566291D01*
X85405152Y-115566500D01*
X81661285Y-115566500D01*
X81593164Y-115546498D01*
X81568409Y-115524662D01*
X81568007Y-115524049D01*
X81444885Y-115407414D01*
X81438558Y-115403739D01*
X81438554Y-115403736D01*
X81363273Y-115360010D01*
X81314414Y-115308499D01*
X81301160Y-115238751D01*
X81327720Y-115172909D01*
X81357471Y-115145686D01*
X81428183Y-115099325D01*
X81496119Y-115078703D01*
X81560552Y-115095744D01*
X81701766Y-115177767D01*
X81864080Y-115226927D01*
X81870520Y-115227502D01*
X81870521Y-115227502D01*
X81934934Y-115233251D01*
X81934940Y-115233251D01*
X81937727Y-115233500D01*
X82474135Y-115233500D01*
X82564213Y-115222998D01*
X82592432Y-115219708D01*
X82592433Y-115219708D01*
X82599704Y-115218860D01*
X82606581Y-115216364D01*
X82606584Y-115216363D01*
X82752243Y-115163491D01*
X82759122Y-115160994D01*
X82900951Y-115068007D01*
X82910413Y-115058018D01*
X82971783Y-115022321D01*
X83042710Y-115025469D01*
X83088537Y-115053199D01*
X83130115Y-115092586D01*
X83276766Y-115177767D01*
X83439080Y-115226927D01*
X83445520Y-115227502D01*
X83445521Y-115227502D01*
X83509934Y-115233251D01*
X83509940Y-115233251D01*
X83512727Y-115233500D01*
X84049135Y-115233500D01*
X84139213Y-115222998D01*
X84167432Y-115219708D01*
X84167433Y-115219708D01*
X84174704Y-115218860D01*
X84181581Y-115216364D01*
X84181584Y-115216363D01*
X84327243Y-115163491D01*
X84334122Y-115160994D01*
X84475951Y-115068007D01*
X84544337Y-114995817D01*
X84605705Y-114960120D01*
X84676632Y-114963267D01*
X84709870Y-114980535D01*
X84787519Y-115036950D01*
X84793250Y-115041114D01*
X84799278Y-115043798D01*
X84799280Y-115043799D01*
X84959553Y-115115157D01*
X84967713Y-115118790D01*
X85061113Y-115138643D01*
X85148056Y-115157124D01*
X85148061Y-115157124D01*
X85154513Y-115158496D01*
X85345487Y-115158496D01*
X85351939Y-115157124D01*
X85351944Y-115157124D01*
X85438887Y-115138643D01*
X85532287Y-115118790D01*
X85540447Y-115115157D01*
X85700720Y-115043799D01*
X85700722Y-115043798D01*
X85706750Y-115041114D01*
X85712092Y-115037233D01*
X85855907Y-114932746D01*
X85855909Y-114932744D01*
X85861251Y-114928863D01*
X85865673Y-114923952D01*
X85984618Y-114791850D01*
X85984619Y-114791849D01*
X85989037Y-114786942D01*
X86060604Y-114662985D01*
X86081220Y-114627277D01*
X86081221Y-114627276D01*
X86084524Y-114621554D01*
X86140265Y-114450000D01*
X86141498Y-114446206D01*
X86141498Y-114446205D01*
X86143538Y-114439927D01*
X86148102Y-114396508D01*
X86162810Y-114256565D01*
X86163500Y-114250000D01*
X86158206Y-114199629D01*
X86144228Y-114066637D01*
X86144228Y-114066636D01*
X86143538Y-114060073D01*
X86139673Y-114048176D01*
X86107011Y-113947655D01*
X86084524Y-113878446D01*
X85989037Y-113713058D01*
X85861251Y-113571137D01*
X85855909Y-113567256D01*
X85855907Y-113567254D01*
X85712092Y-113462767D01*
X85712091Y-113462766D01*
X85706750Y-113458886D01*
X85700722Y-113456202D01*
X85700720Y-113456201D01*
X85538318Y-113383895D01*
X85538317Y-113383895D01*
X85532287Y-113381210D01*
X85438887Y-113361357D01*
X85351944Y-113342876D01*
X85351939Y-113342876D01*
X85345487Y-113341504D01*
X85154513Y-113341504D01*
X85148061Y-113342876D01*
X85148056Y-113342876D01*
X85061113Y-113361357D01*
X84967713Y-113381210D01*
X84961683Y-113383895D01*
X84961682Y-113383895D01*
X84855231Y-113431290D01*
X84784864Y-113440724D01*
X84720567Y-113410617D01*
X84682753Y-113350529D01*
X84683392Y-113279662D01*
X84726927Y-113135920D01*
X84733500Y-113062273D01*
X84733500Y-112450865D01*
X84718860Y-112325296D01*
X84660994Y-112165878D01*
X84568007Y-112024049D01*
X84510347Y-111969427D01*
X84474649Y-111908057D01*
X84471000Y-111877954D01*
X84471000Y-111705241D01*
X84491002Y-111637120D01*
X84508060Y-111615990D01*
X84524246Y-111599861D01*
X84626087Y-111498375D01*
X84651793Y-111462602D01*
X84764475Y-111305787D01*
X84767493Y-111301587D01*
X84773063Y-111290318D01*
X84838934Y-111157037D01*
X84874860Y-111084346D01*
X84894281Y-111020423D01*
X84943801Y-110857438D01*
X84943802Y-110857432D01*
X84945305Y-110852486D01*
X84975844Y-110620521D01*
X84976498Y-110615555D01*
X84976498Y-110615551D01*
X84976935Y-110612234D01*
X84978700Y-110540000D01*
X84958844Y-110298490D01*
X84899810Y-110063466D01*
X84819881Y-109879641D01*
X84805243Y-109845976D01*
X84805241Y-109845973D01*
X84803183Y-109841239D01*
X84671559Y-109637778D01*
X84642359Y-109605687D01*
X84511949Y-109462369D01*
X84511947Y-109462368D01*
X84508471Y-109458547D01*
X84504420Y-109455348D01*
X84504416Y-109455344D01*
X84322355Y-109311561D01*
X84322351Y-109311559D01*
X84318300Y-109308359D01*
X84106153Y-109191248D01*
X84101284Y-109189524D01*
X84101280Y-109189522D01*
X83882603Y-109112084D01*
X83882599Y-109112083D01*
X83877728Y-109110358D01*
X83872638Y-109109451D01*
X83872633Y-109109450D01*
X83742999Y-109086360D01*
X83639158Y-109067863D01*
X83548181Y-109066751D01*
X83402021Y-109064965D01*
X83402019Y-109064965D01*
X83396851Y-109064902D01*
X83157314Y-109101556D01*
X82926981Y-109176841D01*
X82922393Y-109179229D01*
X82922389Y-109179231D01*
X82716625Y-109286345D01*
X82712036Y-109288734D01*
X82707903Y-109291837D01*
X82707900Y-109291839D01*
X82522387Y-109431126D01*
X82518252Y-109434231D01*
X82504657Y-109448457D01*
X82401877Y-109556011D01*
X82350834Y-109609424D01*
X82347920Y-109613696D01*
X82347919Y-109613697D01*
X82263598Y-109737307D01*
X82208687Y-109782310D01*
X82138162Y-109790481D01*
X82074415Y-109759227D01*
X82037685Y-109698470D01*
X82033510Y-109666303D01*
X82033510Y-109063089D01*
X82053512Y-108994968D01*
X82070570Y-108973838D01*
X82082426Y-108962023D01*
X82086087Y-108958375D01*
X82227493Y-108761587D01*
X82234994Y-108746411D01*
X82283416Y-108648436D01*
X82334860Y-108544346D01*
X82361515Y-108456616D01*
X82403801Y-108317438D01*
X82403802Y-108317432D01*
X82405305Y-108312486D01*
X82411166Y-108267965D01*
X84590212Y-108267965D01*
X84628304Y-108436993D01*
X84631387Y-108446833D01*
X84718636Y-108661700D01*
X84723279Y-108670891D01*
X84844454Y-108868632D01*
X84850528Y-108876931D01*
X85002374Y-109052227D01*
X85009736Y-109059437D01*
X85188159Y-109207566D01*
X85196606Y-109213481D01*
X85396830Y-109330482D01*
X85406117Y-109334932D01*
X85622769Y-109417663D01*
X85632662Y-109420537D01*
X85768248Y-109448122D01*
X85782300Y-109446927D01*
X85786000Y-109436581D01*
X85786001Y-108272115D01*
X85781526Y-108256876D01*
X85780136Y-108255671D01*
X85772453Y-108254000D01*
X84605180Y-108253999D01*
X84591649Y-108257972D01*
X84590212Y-108267965D01*
X82411166Y-108267965D01*
X82436935Y-108072234D01*
X82437017Y-108068882D01*
X82438618Y-108003365D01*
X82438618Y-108003361D01*
X82438700Y-108000000D01*
X82418844Y-107758490D01*
X82411192Y-107728026D01*
X84587458Y-107728026D01*
X84590098Y-107742608D01*
X84602478Y-107746000D01*
X85767885Y-107746001D01*
X85783124Y-107741526D01*
X85784329Y-107740136D01*
X85786000Y-107732453D01*
X85786001Y-106566605D01*
X85782083Y-106553261D01*
X85767807Y-106551274D01*
X85702542Y-106561261D01*
X85692517Y-106563649D01*
X85472092Y-106635695D01*
X85462582Y-106639692D01*
X85256891Y-106746768D01*
X85248166Y-106752262D01*
X85062719Y-106891500D01*
X85055012Y-106898343D01*
X84894795Y-107066002D01*
X84888308Y-107074012D01*
X84757630Y-107265579D01*
X84752537Y-107274543D01*
X84654895Y-107484895D01*
X84651338Y-107494563D01*
X84589366Y-107718026D01*
X84587458Y-107728026D01*
X82411192Y-107728026D01*
X82366475Y-107550000D01*
X82361069Y-107528478D01*
X82361069Y-107528477D01*
X82359810Y-107523466D01*
X82263183Y-107301239D01*
X82131559Y-107097778D01*
X82121121Y-107086306D01*
X81971949Y-106922369D01*
X81971947Y-106922368D01*
X81968471Y-106918547D01*
X81964420Y-106915348D01*
X81964416Y-106915344D01*
X81782355Y-106771561D01*
X81782351Y-106771559D01*
X81778300Y-106768359D01*
X81758903Y-106757651D01*
X81656074Y-106700887D01*
X81566153Y-106651248D01*
X81561284Y-106649524D01*
X81561280Y-106649522D01*
X81342603Y-106572084D01*
X81342599Y-106572083D01*
X81337728Y-106570358D01*
X81332638Y-106569451D01*
X81332633Y-106569450D01*
X81177682Y-106541850D01*
X81099158Y-106527863D01*
X81008181Y-106526751D01*
X80862021Y-106524965D01*
X80862019Y-106524965D01*
X80856851Y-106524902D01*
X80617314Y-106561556D01*
X80386981Y-106636841D01*
X80382393Y-106639229D01*
X80382389Y-106639231D01*
X80194214Y-106737189D01*
X80172036Y-106748734D01*
X80167903Y-106751837D01*
X80167900Y-106751839D01*
X80043928Y-106844920D01*
X79978252Y-106894231D01*
X79896484Y-106979797D01*
X79834961Y-107015226D01*
X79764049Y-107011769D01*
X79706262Y-106970523D01*
X79686953Y-106935738D01*
X79682242Y-106922760D01*
X79682241Y-106922758D01*
X79679744Y-106915879D01*
X79586757Y-106774050D01*
X79529097Y-106719428D01*
X79493399Y-106658058D01*
X79489750Y-106627955D01*
X79489750Y-105491554D01*
X79509752Y-105423433D01*
X79526655Y-105402459D01*
X80658710Y-104270405D01*
X80721022Y-104236379D01*
X80747805Y-104233500D01*
X80974135Y-104233500D01*
X81064213Y-104222998D01*
X81092432Y-104219708D01*
X81092433Y-104219708D01*
X81099704Y-104218860D01*
X81106581Y-104216364D01*
X81106584Y-104216363D01*
X81252243Y-104163491D01*
X81259122Y-104160994D01*
X81400951Y-104068007D01*
X81406347Y-104062311D01*
X81410756Y-104057658D01*
X81472125Y-104021961D01*
X81543052Y-104025109D01*
X81588881Y-104052840D01*
X81625098Y-104087149D01*
X81636745Y-104095862D01*
X81770640Y-104173635D01*
X81783965Y-104179429D01*
X81932984Y-104224562D01*
X81945607Y-104227010D01*
X82009934Y-104232751D01*
X82015404Y-104232994D01*
X82030624Y-104228525D01*
X82031829Y-104227135D01*
X82033500Y-104219452D01*
X82033500Y-103517548D01*
X82541500Y-103517548D01*
X82541500Y-104214885D01*
X82545975Y-104230124D01*
X82547365Y-104231329D01*
X82552985Y-104232551D01*
X82667319Y-104219222D01*
X82681466Y-104215878D01*
X82827022Y-104163043D01*
X82840017Y-104156535D01*
X82969511Y-104071635D01*
X82980663Y-104062311D01*
X83087149Y-103949902D01*
X83095862Y-103938255D01*
X83173635Y-103804360D01*
X83179429Y-103791035D01*
X83224562Y-103642016D01*
X83227010Y-103629393D01*
X83232751Y-103565066D01*
X83233000Y-103559471D01*
X83233000Y-103522115D01*
X83228525Y-103506876D01*
X83227135Y-103505671D01*
X83219452Y-103504000D01*
X82559615Y-103504000D01*
X82544376Y-103508475D01*
X82543171Y-103509865D01*
X82541500Y-103517548D01*
X82033500Y-103517548D01*
X82033500Y-102285115D01*
X82032159Y-102280548D01*
X82541500Y-102280548D01*
X82541500Y-102977885D01*
X82545975Y-102993124D01*
X82547365Y-102994329D01*
X82555048Y-102996000D01*
X83214885Y-102996000D01*
X83230124Y-102991525D01*
X83231329Y-102990135D01*
X83233000Y-102982452D01*
X83233000Y-102954526D01*
X83232575Y-102947222D01*
X83219222Y-102832681D01*
X83215878Y-102818534D01*
X83163043Y-102672978D01*
X83156535Y-102659983D01*
X83071635Y-102530489D01*
X83062311Y-102519337D01*
X82949902Y-102412851D01*
X82938255Y-102404138D01*
X82804360Y-102326365D01*
X82791035Y-102320571D01*
X82642016Y-102275438D01*
X82629393Y-102272990D01*
X82565066Y-102267249D01*
X82559596Y-102267006D01*
X82544376Y-102271475D01*
X82543171Y-102272865D01*
X82541500Y-102280548D01*
X82032159Y-102280548D01*
X82029025Y-102269876D01*
X82027635Y-102268671D01*
X82022015Y-102267449D01*
X81907681Y-102280778D01*
X81893534Y-102284122D01*
X81747978Y-102336957D01*
X81734983Y-102343465D01*
X81605489Y-102428365D01*
X81594337Y-102437689D01*
X81589948Y-102442322D01*
X81528579Y-102478020D01*
X81457652Y-102474872D01*
X81411822Y-102447142D01*
X81369885Y-102407414D01*
X81223234Y-102322233D01*
X81060920Y-102273073D01*
X81054480Y-102272498D01*
X81054479Y-102272498D01*
X80990066Y-102266749D01*
X80990060Y-102266749D01*
X80987273Y-102266500D01*
X80450865Y-102266500D01*
X80378406Y-102274948D01*
X80332568Y-102280292D01*
X80332567Y-102280292D01*
X80325296Y-102281140D01*
X80318419Y-102283636D01*
X80318416Y-102283637D01*
X80201957Y-102325910D01*
X80165878Y-102339006D01*
X80024049Y-102431993D01*
X79907414Y-102555115D01*
X79822233Y-102701766D01*
X79792918Y-102798556D01*
X79754032Y-102857950D01*
X79689203Y-102886894D01*
X79619017Y-102876194D01*
X79565758Y-102829248D01*
X79549437Y-102789837D01*
X79536601Y-102733112D01*
X79535570Y-102728555D01*
X79533877Y-102724201D01*
X79441454Y-102486536D01*
X79441453Y-102486534D01*
X79439761Y-102482183D01*
X79435583Y-102474872D01*
X79347129Y-102320111D01*
X79308589Y-102252679D01*
X79144934Y-102045085D01*
X78952393Y-101863960D01*
X78755690Y-101727502D01*
X78739037Y-101715949D01*
X78739034Y-101715947D01*
X78735195Y-101713284D01*
X78731005Y-101711218D01*
X78731002Y-101711216D01*
X78502299Y-101598433D01*
X78502296Y-101598432D01*
X78498111Y-101596368D01*
X78442026Y-101578415D01*
X78383247Y-101538597D01*
X78355325Y-101473321D01*
X78367127Y-101403312D01*
X78371486Y-101395128D01*
X78424088Y-101304567D01*
X78424089Y-101304564D01*
X78427766Y-101298234D01*
X78476927Y-101135920D01*
X78483500Y-101062273D01*
X78483500Y-100450866D01*
X78468860Y-100325297D01*
X78410994Y-100165879D01*
X78318007Y-100024050D01*
X78194885Y-99907415D01*
X78135485Y-99872913D01*
X78054567Y-99825912D01*
X78054564Y-99825911D01*
X78048234Y-99822234D01*
X77885920Y-99773073D01*
X77879484Y-99772499D01*
X77879481Y-99772498D01*
X77815066Y-99766749D01*
X77815060Y-99766749D01*
X77812273Y-99766500D01*
X77275866Y-99766500D01*
X77185788Y-99777002D01*
X77157569Y-99780292D01*
X77157568Y-99780292D01*
X77150297Y-99781140D01*
X77143420Y-99783636D01*
X77143417Y-99783637D01*
X77037085Y-99822234D01*
X76990879Y-99839006D01*
X76849050Y-99931993D01*
X76839585Y-99941985D01*
X76778217Y-99977681D01*
X76707290Y-99974532D01*
X76661463Y-99946802D01*
X76619885Y-99907415D01*
X76560485Y-99872913D01*
X76479567Y-99825912D01*
X76479564Y-99825911D01*
X76473234Y-99822234D01*
X76310920Y-99773073D01*
X76304484Y-99772499D01*
X76304481Y-99772498D01*
X76240066Y-99766749D01*
X76240060Y-99766749D01*
X76237273Y-99766500D01*
X75700866Y-99766500D01*
X75644489Y-99773073D01*
X75602243Y-99777998D01*
X75532264Y-99766019D01*
X75498557Y-99741942D01*
X75446224Y-99689610D01*
X75412199Y-99627298D01*
X75413990Y-99566523D01*
X75427026Y-99519992D01*
X75428463Y-99514863D01*
X75429296Y-99506876D01*
X75452933Y-99280083D01*
X75452933Y-99280080D01*
X75453240Y-99277136D01*
X75453500Y-99250000D01*
X75433292Y-99011840D01*
X75428747Y-98994329D01*
X75374586Y-98785655D01*
X75374584Y-98785650D01*
X75373245Y-98780490D01*
X75275077Y-98562565D01*
X75141594Y-98364296D01*
X75132245Y-98354495D01*
X74980292Y-98195208D01*
X74976613Y-98191351D01*
X74784852Y-98048677D01*
X74780101Y-98046261D01*
X74780097Y-98046259D01*
X74576549Y-97942770D01*
X74576548Y-97942770D01*
X74571793Y-97940352D01*
X74343528Y-97869474D01*
X74283540Y-97861523D01*
X74111868Y-97838769D01*
X74111865Y-97838769D01*
X74106585Y-97838069D01*
X74101256Y-97838269D01*
X74101255Y-97838269D01*
X74015862Y-97841475D01*
X73867738Y-97847036D01*
X73829234Y-97855115D01*
X73639043Y-97895021D01*
X73639040Y-97895022D01*
X73633816Y-97896118D01*
X73411508Y-97983911D01*
X73406944Y-97986680D01*
X73406945Y-97986680D01*
X73211732Y-98105138D01*
X73211729Y-98105140D01*
X73207171Y-98107906D01*
X73077200Y-98220689D01*
X73012643Y-98250228D01*
X72942362Y-98240174D01*
X72888673Y-98193720D01*
X72873726Y-98161022D01*
X72869180Y-98145540D01*
X72861767Y-98129308D01*
X72792574Y-98021640D01*
X72780888Y-98008153D01*
X72684160Y-97924338D01*
X72669152Y-97914693D01*
X72552725Y-97861523D01*
X72535612Y-97856498D01*
X72404446Y-97837639D01*
X72395505Y-97837000D01*
X71772115Y-97837000D01*
X71756876Y-97841475D01*
X71755671Y-97842865D01*
X71754000Y-97850548D01*
X71754000Y-100644885D01*
X71758475Y-100660124D01*
X71759865Y-100661329D01*
X71767548Y-100663000D01*
X72397743Y-100663000D01*
X72402250Y-100662839D01*
X72466269Y-100658260D01*
X72479491Y-100655874D01*
X72604458Y-100619181D01*
X72620692Y-100611767D01*
X72728360Y-100542574D01*
X72741847Y-100530888D01*
X72825662Y-100434160D01*
X72835307Y-100419152D01*
X72880044Y-100321190D01*
X72926537Y-100267534D01*
X72994658Y-100247532D01*
X73062779Y-100267534D01*
X73079049Y-100279968D01*
X73185399Y-100375895D01*
X73189912Y-100378754D01*
X73189914Y-100378755D01*
X73277387Y-100434160D01*
X73387318Y-100503790D01*
X73607900Y-100595835D01*
X73709428Y-100619181D01*
X73835629Y-100648201D01*
X73835633Y-100648202D01*
X73840836Y-100649398D01*
X73846169Y-100649701D01*
X73846170Y-100649701D01*
X73954877Y-100655874D01*
X74079467Y-100662949D01*
X74084774Y-100662349D01*
X74084776Y-100662349D01*
X74251486Y-100643502D01*
X74316970Y-100636099D01*
X74322085Y-100634618D01*
X74322089Y-100634617D01*
X74355979Y-100624803D01*
X74426976Y-100625068D01*
X74480121Y-100656736D01*
X75030179Y-101206794D01*
X75059523Y-101252898D01*
X75078278Y-101304567D01*
X75089006Y-101334121D01*
X75181993Y-101475950D01*
X75305115Y-101592585D01*
X75315700Y-101598733D01*
X75445433Y-101674088D01*
X75445436Y-101674089D01*
X75451766Y-101677766D01*
X75458774Y-101679889D01*
X75458775Y-101679889D01*
X75501004Y-101692679D01*
X75614080Y-101726927D01*
X75620514Y-101727501D01*
X75620518Y-101727502D01*
X75655657Y-101730638D01*
X75721730Y-101756617D01*
X75763268Y-101814194D01*
X75767084Y-101885088D01*
X75733550Y-101945234D01*
X75342572Y-102336212D01*
X75336306Y-102342066D01*
X75294596Y-102378452D01*
X75259214Y-102428795D01*
X75255308Y-102434055D01*
X75217332Y-102482487D01*
X75214207Y-102489408D01*
X75211591Y-102493728D01*
X75206252Y-102503088D01*
X75203843Y-102507581D01*
X75199474Y-102513797D01*
X75183365Y-102555115D01*
X75177132Y-102571101D01*
X75174576Y-102577180D01*
X75152381Y-102626337D01*
X75149256Y-102633259D01*
X75147873Y-102640722D01*
X75146364Y-102645536D01*
X75143395Y-102655960D01*
X75142140Y-102660849D01*
X75139381Y-102667925D01*
X75138390Y-102675454D01*
X75131350Y-102728927D01*
X75130320Y-102735430D01*
X75119110Y-102795917D01*
X75119547Y-102803498D01*
X75119547Y-102803499D01*
X75122542Y-102855442D01*
X75122751Y-102862695D01*
X75122750Y-104461131D01*
X75102748Y-104529252D01*
X75049092Y-104575745D01*
X74978818Y-104585848D01*
X74914237Y-104556355D01*
X74881375Y-104511774D01*
X74865634Y-104475913D01*
X74863143Y-104469809D01*
X74844086Y-104419376D01*
X74844085Y-104419374D01*
X74841401Y-104412271D01*
X74837098Y-104406011D01*
X74834731Y-104401483D01*
X74829496Y-104392078D01*
X74826923Y-104387727D01*
X74823871Y-104380774D01*
X74819249Y-104374751D01*
X74819247Y-104374747D01*
X74786406Y-104331947D01*
X74782530Y-104326613D01*
X74747701Y-104275937D01*
X74703181Y-104236271D01*
X74697906Y-104231291D01*
X74455925Y-103989310D01*
X74421899Y-103926998D01*
X74426415Y-103860126D01*
X74425942Y-103859993D01*
X74426576Y-103857745D01*
X74497696Y-103605573D01*
X74531056Y-103343341D01*
X74533500Y-103250000D01*
X74513910Y-102986382D01*
X74455570Y-102728555D01*
X74453877Y-102724201D01*
X74361454Y-102486536D01*
X74361453Y-102486534D01*
X74359761Y-102482183D01*
X74355583Y-102474872D01*
X74267129Y-102320111D01*
X74228589Y-102252679D01*
X74064934Y-102045085D01*
X73872393Y-101863960D01*
X73675690Y-101727502D01*
X73659037Y-101715949D01*
X73659034Y-101715947D01*
X73655195Y-101713284D01*
X73651005Y-101711218D01*
X73651002Y-101711216D01*
X73422299Y-101598433D01*
X73422296Y-101598432D01*
X73418111Y-101596368D01*
X73362027Y-101578415D01*
X73188661Y-101522920D01*
X73166350Y-101515778D01*
X72991486Y-101487300D01*
X72910054Y-101474038D01*
X72910053Y-101474038D01*
X72905442Y-101473287D01*
X72773281Y-101471557D01*
X72645797Y-101469888D01*
X72645794Y-101469888D01*
X72641120Y-101469827D01*
X72379189Y-101505474D01*
X72374703Y-101506782D01*
X72374701Y-101506782D01*
X72343837Y-101515778D01*
X72125405Y-101579445D01*
X71885342Y-101690116D01*
X71881437Y-101692676D01*
X71881432Y-101692679D01*
X71668187Y-101832488D01*
X71668182Y-101832492D01*
X71664274Y-101835054D01*
X71467057Y-102011077D01*
X71298025Y-102214316D01*
X71160890Y-102440308D01*
X71159081Y-102444622D01*
X71159080Y-102444624D01*
X71140377Y-102489226D01*
X71095588Y-102544312D01*
X71024180Y-102566500D01*
X69579500Y-102566500D01*
X69511379Y-102546498D01*
X69464886Y-102492842D01*
X69453500Y-102440500D01*
X69453500Y-101980000D01*
X69448273Y-101906921D01*
X69407096Y-101766684D01*
X69359536Y-101692679D01*
X69332949Y-101651309D01*
X69332947Y-101651306D01*
X69328077Y-101643729D01*
X69321267Y-101637828D01*
X69224431Y-101553918D01*
X69224428Y-101553916D01*
X69217619Y-101548016D01*
X69209421Y-101544272D01*
X69092864Y-101491042D01*
X69092863Y-101491042D01*
X69084670Y-101487300D01*
X69075755Y-101486018D01*
X69075754Y-101486018D01*
X68944448Y-101467139D01*
X68944441Y-101467138D01*
X68940000Y-101466500D01*
X66400000Y-101466500D01*
X66326921Y-101471727D01*
X66273884Y-101487300D01*
X66195330Y-101510365D01*
X66195328Y-101510366D01*
X66186684Y-101512904D01*
X66179105Y-101517775D01*
X66071309Y-101587051D01*
X66071306Y-101587053D01*
X66063729Y-101591923D01*
X66057828Y-101598733D01*
X65973918Y-101695569D01*
X65973916Y-101695572D01*
X65968016Y-101702381D01*
X65964272Y-101710579D01*
X65916953Y-101814194D01*
X65907300Y-101835330D01*
X65906018Y-101844245D01*
X65906018Y-101844246D01*
X65887139Y-101975552D01*
X65887138Y-101975559D01*
X65886500Y-101980000D01*
X65886500Y-104520000D01*
X65891727Y-104593079D01*
X65914655Y-104671165D01*
X65918213Y-104683281D01*
X65932904Y-104733316D01*
X65951656Y-104762494D01*
X66007051Y-104848691D01*
X66007053Y-104848694D01*
X66011923Y-104856271D01*
X66018733Y-104862172D01*
X66115569Y-104946082D01*
X66115572Y-104946084D01*
X66122381Y-104951984D01*
X66130579Y-104955728D01*
X66232873Y-105002444D01*
X66255330Y-105012700D01*
X66264245Y-105013982D01*
X66264246Y-105013982D01*
X66395552Y-105032861D01*
X66395559Y-105032862D01*
X66400000Y-105033500D01*
X67371796Y-105033500D01*
X67439917Y-105053502D01*
X67486410Y-105107158D01*
X67496514Y-105177432D01*
X67463269Y-105246153D01*
X67407414Y-105305115D01*
X67322233Y-105451766D01*
X67290345Y-105557051D01*
X67274967Y-105607828D01*
X67273073Y-105614080D01*
X67272498Y-105620519D01*
X67272498Y-105620521D01*
X67267870Y-105672381D01*
X67266500Y-105687727D01*
X67266500Y-105927194D01*
X67246498Y-105995315D01*
X67229596Y-106016289D01*
X66498815Y-106747071D01*
X66492549Y-106752924D01*
X66450846Y-106789304D01*
X66415464Y-106839647D01*
X66411558Y-106844907D01*
X66373582Y-106893339D01*
X66370457Y-106900260D01*
X66367841Y-106904580D01*
X66362502Y-106913940D01*
X66360093Y-106918433D01*
X66355724Y-106924649D01*
X66352965Y-106931726D01*
X66333382Y-106981953D01*
X66330826Y-106988032D01*
X66318548Y-107015226D01*
X66305506Y-107044111D01*
X66304123Y-107051574D01*
X66302614Y-107056388D01*
X66299645Y-107066812D01*
X66298390Y-107071701D01*
X66295631Y-107078777D01*
X66292558Y-107102121D01*
X66287600Y-107139779D01*
X66286570Y-107146282D01*
X66275360Y-107206769D01*
X66275797Y-107214350D01*
X66275797Y-107214351D01*
X66278792Y-107266294D01*
X66279001Y-107273547D01*
X66279001Y-107942555D01*
X66279000Y-107942559D01*
X66279000Y-108508195D01*
X66258998Y-108576316D01*
X66205342Y-108622809D01*
X66135068Y-108632913D01*
X66070488Y-108603419D01*
X66063905Y-108597290D01*
X64600405Y-107133791D01*
X64566380Y-107071479D01*
X64563500Y-107044696D01*
X64563500Y-105950000D01*
X64558273Y-105876921D01*
X64517096Y-105736684D01*
X64471393Y-105665569D01*
X64442949Y-105621309D01*
X64442947Y-105621306D01*
X64438077Y-105613729D01*
X64402117Y-105582569D01*
X64334431Y-105523918D01*
X64334428Y-105523916D01*
X64327619Y-105518016D01*
X64194670Y-105457300D01*
X64185755Y-105456018D01*
X64185754Y-105456018D01*
X64054448Y-105437139D01*
X64054441Y-105437138D01*
X64050000Y-105436500D01*
X62450000Y-105436500D01*
X62376921Y-105441727D01*
X62311140Y-105461042D01*
X62245330Y-105480365D01*
X62245328Y-105480366D01*
X62236684Y-105482904D01*
X62198528Y-105507426D01*
X62121309Y-105557051D01*
X62121306Y-105557053D01*
X62113729Y-105561923D01*
X62107828Y-105568733D01*
X62023918Y-105665569D01*
X62023916Y-105665572D01*
X62018016Y-105672381D01*
X61957300Y-105805330D01*
X61956018Y-105814245D01*
X61956018Y-105814246D01*
X61941334Y-105916378D01*
X61911841Y-105980959D01*
X61871398Y-106006950D01*
X61872861Y-106009733D01*
X61823570Y-106035641D01*
X61122021Y-106737189D01*
X61114408Y-106751132D01*
X61114539Y-106752966D01*
X61118790Y-106759580D01*
X61824294Y-107465083D01*
X61867621Y-107488741D01*
X61874182Y-107490168D01*
X61924390Y-107540364D01*
X61939488Y-107591772D01*
X61941727Y-107623079D01*
X61943631Y-107629562D01*
X61977820Y-107746000D01*
X61982904Y-107763316D01*
X61987775Y-107770895D01*
X62057051Y-107878691D01*
X62057053Y-107878694D01*
X62061923Y-107886271D01*
X62068733Y-107892172D01*
X62165569Y-107976082D01*
X62165572Y-107976084D01*
X62172381Y-107981984D01*
X62180579Y-107985728D01*
X62219199Y-108003365D01*
X62305330Y-108042700D01*
X62314245Y-108043982D01*
X62314246Y-108043982D01*
X62445552Y-108062861D01*
X62445559Y-108062862D01*
X62450000Y-108063500D01*
X63544696Y-108063500D01*
X63612817Y-108083502D01*
X63633791Y-108100405D01*
X64585612Y-109052227D01*
X65497064Y-109963679D01*
X65502918Y-109969945D01*
X65539304Y-110011655D01*
X65545518Y-110016022D01*
X65589636Y-110047029D01*
X65594931Y-110050962D01*
X65643337Y-110088917D01*
X65649591Y-110091741D01*
X65697286Y-110143908D01*
X65709258Y-110213888D01*
X65681496Y-110279231D01*
X65675581Y-110285937D01*
X65664707Y-110297416D01*
X65657414Y-110305115D01*
X65572233Y-110451766D01*
X65523073Y-110614080D01*
X65522498Y-110620520D01*
X65522498Y-110620521D01*
X65517775Y-110673446D01*
X65516500Y-110687727D01*
X65516500Y-110927194D01*
X65496498Y-110995315D01*
X65479596Y-111016289D01*
X65036315Y-111459571D01*
X65030049Y-111465424D01*
X64988346Y-111501804D01*
X64952964Y-111552147D01*
X64949058Y-111557407D01*
X64911082Y-111605839D01*
X64907957Y-111612760D01*
X64905341Y-111617080D01*
X64900002Y-111626440D01*
X64897593Y-111630933D01*
X64893224Y-111637149D01*
X64872945Y-111689163D01*
X64870882Y-111694453D01*
X64868326Y-111700532D01*
X64863710Y-111710756D01*
X64843006Y-111756611D01*
X64841623Y-111764074D01*
X64840114Y-111768888D01*
X64837145Y-111779312D01*
X64835890Y-111784201D01*
X64833131Y-111791277D01*
X64825100Y-111852279D01*
X64824070Y-111858782D01*
X64812860Y-111919269D01*
X64813297Y-111926850D01*
X64813297Y-111926851D01*
X64816292Y-111978794D01*
X64816501Y-111986047D01*
X64816500Y-114603011D01*
X64796498Y-114671132D01*
X64784137Y-114687321D01*
X64760963Y-114713058D01*
X64665476Y-114878446D01*
X64663434Y-114884731D01*
X64607606Y-115056551D01*
X64567532Y-115115157D01*
X64502136Y-115142794D01*
X64432179Y-115130687D01*
X64384560Y-115089886D01*
X64347494Y-115036950D01*
X64337015Y-115028574D01*
X64323570Y-115035641D01*
X63622021Y-115737189D01*
X63614408Y-115751132D01*
X63614539Y-115752966D01*
X63618790Y-115759580D01*
X64324294Y-116465083D01*
X64336064Y-116471510D01*
X64348078Y-116462216D01*
X64383934Y-116411008D01*
X64389417Y-116401513D01*
X64481491Y-116204057D01*
X64485239Y-116193761D01*
X64541630Y-115983310D01*
X64543532Y-115972523D01*
X64552330Y-115871959D01*
X64578193Y-115805841D01*
X64635697Y-115764201D01*
X64706584Y-115760260D01*
X64771487Y-115798630D01*
X64802551Y-115833130D01*
X64854174Y-115890463D01*
X64888749Y-115928863D01*
X64894091Y-115932744D01*
X64894093Y-115932746D01*
X65036654Y-116036322D01*
X65043250Y-116041114D01*
X65049278Y-116043798D01*
X65049280Y-116043799D01*
X65211682Y-116116105D01*
X65217713Y-116118790D01*
X65311113Y-116138643D01*
X65398056Y-116157124D01*
X65398061Y-116157124D01*
X65404513Y-116158496D01*
X65595487Y-116158496D01*
X65601939Y-116157124D01*
X65601944Y-116157124D01*
X65688887Y-116138643D01*
X65782287Y-116118790D01*
X65790196Y-116115269D01*
X65956750Y-116041114D01*
X65957674Y-116043190D01*
X66016494Y-116028920D01*
X66083586Y-116052139D01*
X66127474Y-116107946D01*
X66136500Y-116154777D01*
X66136500Y-116450000D01*
X66141727Y-116523079D01*
X66182904Y-116663316D01*
X66184404Y-116665650D01*
X66194058Y-116732807D01*
X66165112Y-116792650D01*
X66166834Y-116793938D01*
X66162449Y-116799800D01*
X66157414Y-116805115D01*
X66072233Y-116951766D01*
X66023073Y-117114080D01*
X66022498Y-117120520D01*
X66022498Y-117120521D01*
X66021779Y-117128584D01*
X66016500Y-117187727D01*
X66016500Y-117799135D01*
X66031140Y-117924704D01*
X66089006Y-118084122D01*
X66181993Y-118225951D01*
X66187304Y-118230982D01*
X66187308Y-118230987D01*
X66239653Y-118280573D01*
X66275352Y-118341941D01*
X66279001Y-118372046D01*
X66279000Y-118817890D01*
X66279000Y-119222262D01*
X66278708Y-119230831D01*
X66275764Y-119274023D01*
X66274945Y-119286033D01*
X66276250Y-119293509D01*
X66276250Y-119293515D01*
X66285519Y-119346626D01*
X66286482Y-119353148D01*
X66293874Y-119414229D01*
X66296558Y-119421332D01*
X66297760Y-119426226D01*
X66300617Y-119436669D01*
X66302080Y-119441515D01*
X66303386Y-119448998D01*
X66306439Y-119455954D01*
X66306440Y-119455956D01*
X66328115Y-119505335D01*
X66330607Y-119511440D01*
X66352349Y-119568978D01*
X66356652Y-119575238D01*
X66359019Y-119579766D01*
X66364254Y-119589171D01*
X66366827Y-119593523D01*
X66369879Y-119600475D01*
X66374500Y-119606497D01*
X66374501Y-119606499D01*
X66380099Y-119613794D01*
X66405701Y-119680014D01*
X66391438Y-119749563D01*
X66341837Y-119800360D01*
X66280138Y-119816500D01*
X65139500Y-119816500D01*
X65071379Y-119796498D01*
X65024886Y-119742842D01*
X65013500Y-119690500D01*
X65013500Y-118940000D01*
X65008273Y-118866921D01*
X64979933Y-118770404D01*
X64969635Y-118735330D01*
X64969634Y-118735328D01*
X64967096Y-118726684D01*
X64938253Y-118681803D01*
X64892949Y-118611309D01*
X64892947Y-118611306D01*
X64888077Y-118603729D01*
X64846852Y-118568007D01*
X64784431Y-118513918D01*
X64784428Y-118513916D01*
X64777619Y-118508016D01*
X64644670Y-118447300D01*
X64635755Y-118446018D01*
X64635754Y-118446018D01*
X64504448Y-118427139D01*
X64504441Y-118427138D01*
X64500000Y-118426500D01*
X62500000Y-118426500D01*
X62426921Y-118431727D01*
X62373884Y-118447300D01*
X62295330Y-118470365D01*
X62295328Y-118470366D01*
X62286684Y-118472904D01*
X62279106Y-118477774D01*
X62279104Y-118477775D01*
X62194022Y-118532454D01*
X62125901Y-118552456D01*
X62057780Y-118532454D01*
X62043388Y-118521680D01*
X62034431Y-118513918D01*
X62034428Y-118513916D01*
X62027619Y-118508016D01*
X61894670Y-118447300D01*
X61885755Y-118446018D01*
X61885754Y-118446018D01*
X61754448Y-118427139D01*
X61754441Y-118427138D01*
X61750000Y-118426500D01*
X61559500Y-118426500D01*
X61491379Y-118406498D01*
X61444886Y-118352842D01*
X61433500Y-118300500D01*
X61433500Y-117189142D01*
X61453502Y-117121021D01*
X61507158Y-117074528D01*
X61550510Y-117063464D01*
X61623079Y-117058273D01*
X61715224Y-117031217D01*
X61754670Y-117019635D01*
X61754672Y-117019634D01*
X61763316Y-117017096D01*
X61827135Y-116976082D01*
X61878691Y-116942949D01*
X61878694Y-116942947D01*
X61886271Y-116938077D01*
X61926048Y-116892172D01*
X61974666Y-116836064D01*
X62528490Y-116836064D01*
X62537784Y-116848078D01*
X62588992Y-116883934D01*
X62598487Y-116889417D01*
X62795943Y-116981491D01*
X62806239Y-116985239D01*
X63016690Y-117041630D01*
X63027477Y-117043532D01*
X63244525Y-117062521D01*
X63255475Y-117062521D01*
X63472523Y-117043532D01*
X63483310Y-117041630D01*
X63693761Y-116985239D01*
X63704057Y-116981491D01*
X63901513Y-116889417D01*
X63911008Y-116883934D01*
X63963050Y-116847494D01*
X63971426Y-116837015D01*
X63964359Y-116823570D01*
X63262811Y-116122021D01*
X63248868Y-116114408D01*
X63247034Y-116114539D01*
X63240420Y-116118790D01*
X62534917Y-116824294D01*
X62528490Y-116836064D01*
X61974666Y-116836064D01*
X61976082Y-116834431D01*
X61976084Y-116834428D01*
X61981984Y-116827619D01*
X62027542Y-116727861D01*
X62038958Y-116702864D01*
X62038958Y-116702863D01*
X62042700Y-116694670D01*
X62044582Y-116681584D01*
X62058666Y-116583622D01*
X62088159Y-116519041D01*
X62128602Y-116493050D01*
X62127139Y-116490267D01*
X62176430Y-116464359D01*
X62877979Y-115762811D01*
X62885592Y-115748868D01*
X62885461Y-115747034D01*
X62881210Y-115740420D01*
X62175706Y-115034917D01*
X62132379Y-115011259D01*
X62125818Y-115009832D01*
X62075610Y-114959636D01*
X62060512Y-114908227D01*
X62058755Y-114883659D01*
X62058755Y-114883658D01*
X62058273Y-114876921D01*
X62017096Y-114736684D01*
X61971393Y-114665569D01*
X61969733Y-114662985D01*
X62528574Y-114662985D01*
X62535641Y-114676430D01*
X63237189Y-115377979D01*
X63251132Y-115385592D01*
X63252966Y-115385461D01*
X63259580Y-115381210D01*
X63965083Y-114675706D01*
X63971510Y-114663936D01*
X63962216Y-114651922D01*
X63911008Y-114616066D01*
X63901513Y-114610583D01*
X63704057Y-114518509D01*
X63693761Y-114514761D01*
X63483310Y-114458370D01*
X63472523Y-114456468D01*
X63255475Y-114437479D01*
X63244525Y-114437479D01*
X63027477Y-114456468D01*
X63016690Y-114458370D01*
X62806239Y-114514761D01*
X62795943Y-114518509D01*
X62598487Y-114610583D01*
X62588992Y-114616066D01*
X62536950Y-114652506D01*
X62528574Y-114662985D01*
X61969733Y-114662985D01*
X61942949Y-114621309D01*
X61942947Y-114621306D01*
X61938077Y-114613729D01*
X61912299Y-114591392D01*
X61834431Y-114523918D01*
X61834428Y-114523916D01*
X61827619Y-114518016D01*
X61819421Y-114514272D01*
X61702864Y-114461042D01*
X61702863Y-114461042D01*
X61694670Y-114457300D01*
X61685755Y-114456018D01*
X61685754Y-114456018D01*
X61554448Y-114437139D01*
X61554441Y-114437138D01*
X61550000Y-114436500D01*
X59950000Y-114436500D01*
X59876921Y-114441727D01*
X59823884Y-114457300D01*
X59745330Y-114480365D01*
X59745328Y-114480366D01*
X59736684Y-114482904D01*
X59729105Y-114487775D01*
X59621309Y-114557051D01*
X59621306Y-114557053D01*
X59613729Y-114561923D01*
X59607828Y-114568733D01*
X59523918Y-114665569D01*
X59523916Y-114665572D01*
X59518016Y-114672381D01*
X59514272Y-114680578D01*
X59514270Y-114680582D01*
X59498613Y-114714866D01*
X59452120Y-114768521D01*
X59383999Y-114788523D01*
X59315879Y-114768521D01*
X59269386Y-114714865D01*
X59258000Y-114662523D01*
X59258000Y-107836064D01*
X60028490Y-107836064D01*
X60037784Y-107848078D01*
X60088992Y-107883934D01*
X60098487Y-107889417D01*
X60295943Y-107981491D01*
X60306239Y-107985239D01*
X60516690Y-108041630D01*
X60527477Y-108043532D01*
X60744525Y-108062521D01*
X60755475Y-108062521D01*
X60972523Y-108043532D01*
X60983310Y-108041630D01*
X61193761Y-107985239D01*
X61204057Y-107981491D01*
X61401513Y-107889417D01*
X61411008Y-107883934D01*
X61463050Y-107847494D01*
X61471426Y-107837015D01*
X61464359Y-107823570D01*
X60762811Y-107122021D01*
X60748868Y-107114408D01*
X60747034Y-107114539D01*
X60740420Y-107118790D01*
X60034917Y-107824294D01*
X60028490Y-107836064D01*
X59258000Y-107836064D01*
X59258000Y-107192584D01*
X59278002Y-107124463D01*
X59331658Y-107077970D01*
X59401932Y-107067866D01*
X59466512Y-107097360D01*
X59505707Y-107159972D01*
X59514761Y-107193761D01*
X59518509Y-107204057D01*
X59610583Y-107401513D01*
X59616066Y-107411008D01*
X59652506Y-107463050D01*
X59662985Y-107471426D01*
X59676430Y-107464359D01*
X60377979Y-106762811D01*
X60385592Y-106748868D01*
X60385461Y-106747034D01*
X60381210Y-106740420D01*
X59675706Y-106034917D01*
X59663936Y-106028490D01*
X59651922Y-106037784D01*
X59616066Y-106088992D01*
X59610583Y-106098487D01*
X59518509Y-106295943D01*
X59514761Y-106306239D01*
X59505707Y-106340028D01*
X59468755Y-106400650D01*
X59404894Y-106431672D01*
X59334400Y-106423243D01*
X59279653Y-106378039D01*
X59258000Y-106307416D01*
X59258000Y-105662985D01*
X60028574Y-105662985D01*
X60035641Y-105676430D01*
X60737189Y-106377979D01*
X60751132Y-106385592D01*
X60752966Y-106385461D01*
X60759580Y-106381210D01*
X61465083Y-105675706D01*
X61471510Y-105663936D01*
X61462216Y-105651922D01*
X61411008Y-105616066D01*
X61401513Y-105610583D01*
X61204057Y-105518509D01*
X61193761Y-105514761D01*
X60983310Y-105458370D01*
X60972523Y-105456468D01*
X60755475Y-105437479D01*
X60744525Y-105437479D01*
X60527477Y-105456468D01*
X60516690Y-105458370D01*
X60306239Y-105514761D01*
X60295943Y-105518509D01*
X60098487Y-105610583D01*
X60088992Y-105616066D01*
X60036950Y-105652506D01*
X60028574Y-105662985D01*
X59258000Y-105662985D01*
X59258000Y-99517548D01*
X70087000Y-99517548D01*
X70087000Y-100147743D01*
X70087161Y-100152250D01*
X70091740Y-100216269D01*
X70094126Y-100229491D01*
X70130819Y-100354458D01*
X70138233Y-100370692D01*
X70207426Y-100478360D01*
X70219112Y-100491847D01*
X70315840Y-100575662D01*
X70330848Y-100585307D01*
X70447275Y-100638477D01*
X70464388Y-100643502D01*
X70595554Y-100662361D01*
X70604495Y-100663000D01*
X71227885Y-100663000D01*
X71243124Y-100658525D01*
X71244329Y-100657135D01*
X71246000Y-100649452D01*
X71246000Y-99522115D01*
X71241525Y-99506876D01*
X71240135Y-99505671D01*
X71232452Y-99504000D01*
X70105115Y-99504000D01*
X70089876Y-99508475D01*
X70088671Y-99509865D01*
X70087000Y-99517548D01*
X59258000Y-99517548D01*
X59258000Y-98354495D01*
X70087000Y-98354495D01*
X70087000Y-98977885D01*
X70091475Y-98993124D01*
X70092865Y-98994329D01*
X70100548Y-98996000D01*
X71227885Y-98996000D01*
X71243124Y-98991525D01*
X71244329Y-98990135D01*
X71246000Y-98982452D01*
X71246000Y-97855115D01*
X71241525Y-97839876D01*
X71240135Y-97838671D01*
X71232452Y-97837000D01*
X70602257Y-97837000D01*
X70597750Y-97837161D01*
X70533731Y-97841740D01*
X70520509Y-97844126D01*
X70395542Y-97880819D01*
X70379308Y-97888233D01*
X70271640Y-97957426D01*
X70258153Y-97969112D01*
X70174338Y-98065840D01*
X70164693Y-98080848D01*
X70111523Y-98197275D01*
X70106498Y-98214388D01*
X70087639Y-98345554D01*
X70087000Y-98354495D01*
X59258000Y-98354495D01*
X59258000Y-97634000D01*
X59278002Y-97565879D01*
X59331658Y-97519386D01*
X59384000Y-97508000D01*
X86945000Y-97508000D01*
X87013121Y-97528002D01*
G37*
G04 #@! TD.AperFunction*
G04 #@! TA.AperFunction,Conductor*
G36*
X70548020Y-112588502D02*
G01*
X70594513Y-112642158D01*
X70604617Y-112712432D01*
X70593907Y-112748148D01*
X70572827Y-112792945D01*
X70567964Y-112807913D01*
X70553600Y-112883206D01*
X70554871Y-112896245D01*
X70569793Y-112901000D01*
X73485194Y-112901000D01*
X73553315Y-112921002D01*
X73574289Y-112937905D01*
X73872593Y-113236209D01*
X73906619Y-113298521D01*
X73901554Y-113369336D01*
X73859007Y-113426172D01*
X73834745Y-113440411D01*
X73799286Y-113456198D01*
X73799281Y-113456201D01*
X73793250Y-113458886D01*
X73767627Y-113477502D01*
X73697059Y-113528772D01*
X73630191Y-113552630D01*
X73561040Y-113536549D01*
X73511560Y-113485634D01*
X73497592Y-113439050D01*
X73495128Y-113413754D01*
X73480207Y-113409000D01*
X70568253Y-113409000D01*
X70554376Y-113413075D01*
X70552339Y-113426426D01*
X70556835Y-113462016D01*
X70560746Y-113477249D01*
X70616091Y-113617034D01*
X70623668Y-113630816D01*
X70712034Y-113752441D01*
X70722803Y-113763909D01*
X70760372Y-113794989D01*
X70800110Y-113853822D01*
X70801731Y-113924800D01*
X70764722Y-113985388D01*
X70694647Y-114017225D01*
X70582568Y-114030292D01*
X70582567Y-114030292D01*
X70575296Y-114031140D01*
X70568419Y-114033636D01*
X70568416Y-114033637D01*
X70458227Y-114073634D01*
X70415878Y-114089006D01*
X70290035Y-114171512D01*
X70278605Y-114179006D01*
X70210669Y-114199629D01*
X70142369Y-114180249D01*
X70095389Y-114127020D01*
X70083520Y-114073634D01*
X70083520Y-112694500D01*
X70103522Y-112626379D01*
X70157178Y-112579886D01*
X70209520Y-112568500D01*
X70479899Y-112568500D01*
X70548020Y-112588502D01*
G37*
G04 #@! TD.AperFunction*
G04 #@! TD*
M02*
