%TF.GenerationSoftware,KiCad,Pcbnew,6.0.0+dfsg1-2*%
%TF.CreationDate,2022-01-11T21:26:03+02:00*%
%TF.ProjectId,agudo,61677564-6f2e-46b6-9963-61645f706362,rev?*%
%TF.SameCoordinates,Original*%
%TF.FileFunction,Soldermask,Bot*%
%TF.FilePolarity,Negative*%
%FSLAX46Y46*%
G04 Gerber Fmt 4.6, Leading zero omitted, Abs format (unit mm)*
G04 Created by KiCad (PCBNEW 6.0.0+dfsg1-2) date 2022-01-11 21:26:03*
%MOMM*%
%LPD*%
G01*
G04 APERTURE LIST*
%ADD10O,2.000000X2.000000*%
%ADD11O,2.540000X2.540000*%
%ADD12R,2.540000X2.540000*%
%ADD13O,1.930400X1.930400*%
%ADD14R,1.930400X1.930400*%
%ADD15O,2.400000X1.600000*%
%ADD16R,2.400000X1.600000*%
%ADD17C,1.800000*%
%ADD18R,1.800000X1.800000*%
%ADD19R,2.000000X2.000000*%
%ADD20C,1.600000*%
%ADD21R,1.600000X1.600000*%
G04 APERTURE END LIST*
D10*
%TO.C,R27*%
X102870000Y-83185000D03*
X107950000Y-83185000D03*
%TD*%
%TO.C,R26*%
X114300000Y-123825000D03*
X109220000Y-123825000D03*
%TD*%
%TO.C,R25*%
X114300000Y-103505000D03*
X109220000Y-103505000D03*
%TD*%
%TO.C,R24*%
X114300000Y-106045000D03*
X109220000Y-106045000D03*
%TD*%
%TO.C,R23*%
X114300000Y-108585000D03*
X109220000Y-108585000D03*
%TD*%
%TO.C,R22*%
X109220000Y-93980000D03*
X114300000Y-93980000D03*
%TD*%
%TO.C,R21*%
X95885000Y-124714000D03*
X90805000Y-124714000D03*
%TD*%
%TO.C,R20*%
X90170000Y-91694000D03*
X95250000Y-91694000D03*
%TD*%
%TO.C,R19*%
X114300000Y-91440000D03*
X109220000Y-91440000D03*
%TD*%
%TO.C,R18*%
X100457000Y-85471000D03*
X105537000Y-85471000D03*
%TD*%
%TO.C,R17*%
X90170000Y-101346000D03*
X90170000Y-106426000D03*
%TD*%
%TO.C,R16*%
X95250000Y-94107000D03*
X90170000Y-94107000D03*
%TD*%
%TO.C,R15*%
X95250000Y-96520000D03*
X90170000Y-96520000D03*
%TD*%
%TO.C,R14*%
X95885000Y-127127000D03*
X90805000Y-127127000D03*
%TD*%
%TO.C,R13*%
X95250000Y-98933000D03*
X90170000Y-98933000D03*
%TD*%
%TO.C,R12*%
X109220000Y-111125000D03*
X114300000Y-111125000D03*
%TD*%
%TO.C,R11*%
X114300000Y-88900000D03*
X109220000Y-88900000D03*
%TD*%
%TO.C,R10*%
X109220000Y-113665000D03*
X114300000Y-113665000D03*
%TD*%
%TO.C,R9*%
X109220000Y-116205000D03*
X114300000Y-116205000D03*
%TD*%
%TO.C,R8*%
X109220000Y-118745000D03*
X114300000Y-118745000D03*
%TD*%
%TO.C,R7*%
X109220000Y-121285000D03*
X114300000Y-121285000D03*
%TD*%
%TO.C,R6*%
X95250000Y-109220000D03*
X90170000Y-109220000D03*
%TD*%
%TO.C,R5*%
X90170000Y-111760000D03*
X95250000Y-111760000D03*
%TD*%
%TO.C,R4*%
X90170000Y-114300000D03*
X95250000Y-114300000D03*
%TD*%
%TO.C,R3*%
X95250000Y-116840000D03*
X90170000Y-116840000D03*
%TD*%
%TO.C,R2*%
X101727000Y-106299000D03*
X106807000Y-106299000D03*
%TD*%
%TO.C,R1*%
X95250000Y-119380000D03*
X90170000Y-119380000D03*
%TD*%
D11*
%TO.C,RV2*%
X105410000Y-80645000D03*
X100330000Y-80645000D03*
D12*
X95250000Y-80645000D03*
%TD*%
D13*
%TO.C,J3*%
X115189000Y-80264000D03*
D14*
X112649000Y-80264000D03*
%TD*%
D15*
%TO.C,U2*%
X106045000Y-91440000D03*
X98425000Y-99060000D03*
X106045000Y-93980000D03*
X98425000Y-96520000D03*
X106045000Y-96520000D03*
X98425000Y-93980000D03*
X106045000Y-99060000D03*
D16*
X98425000Y-91440000D03*
%TD*%
D15*
%TO.C,U1*%
X106045000Y-109220000D03*
X98425000Y-116840000D03*
X106045000Y-111760000D03*
X98425000Y-114300000D03*
X106045000Y-114300000D03*
X98425000Y-111760000D03*
X106045000Y-116840000D03*
D16*
X98425000Y-109220000D03*
%TD*%
D13*
%TO.C,RV1*%
X95377000Y-88646000D03*
X97917000Y-86106000D03*
X95377000Y-83566000D03*
%TD*%
%TO.C,J2*%
X109664500Y-130556000D03*
D14*
X107124500Y-130556000D03*
%TD*%
D13*
%TO.C,J1*%
X104127300Y-130784600D03*
X101587300Y-130784600D03*
X99047300Y-130784600D03*
D14*
X96507300Y-130784600D03*
%TD*%
D17*
%TO.C,D3*%
X101587300Y-126301500D03*
D18*
X99047300Y-126301500D03*
%TD*%
D19*
%TO.C,D2*%
X90297000Y-88646000D03*
D10*
X90297000Y-81026000D03*
%TD*%
D19*
%TO.C,D1*%
X111760000Y-126238000D03*
D10*
X104140000Y-126238000D03*
%TD*%
D20*
%TO.C,C10*%
X109300000Y-96901000D03*
X114300000Y-96901000D03*
%TD*%
%TO.C,C9*%
X105393500Y-123253500D03*
X100393500Y-123253500D03*
%TD*%
%TO.C,C8*%
X112990000Y-85090000D03*
D21*
X110490000Y-85090000D03*
%TD*%
D20*
%TO.C,C7*%
X97710000Y-106045000D03*
X92710000Y-106045000D03*
%TD*%
%TO.C,C6*%
X97710000Y-102362000D03*
X92710000Y-102362000D03*
%TD*%
%TO.C,C5*%
X105584000Y-88265000D03*
X100584000Y-88265000D03*
%TD*%
%TO.C,C4*%
X109300000Y-100330000D03*
X114300000Y-100330000D03*
%TD*%
%TO.C,C3*%
X105330000Y-120015000D03*
X100330000Y-120015000D03*
%TD*%
%TO.C,C2*%
X114641000Y-129794000D03*
D21*
X112141000Y-129794000D03*
%TD*%
D20*
%TO.C,C1*%
X96440000Y-122047000D03*
X91440000Y-122047000D03*
%TD*%
M02*
