G04 #@! TF.GenerationSoftware,KiCad,Pcbnew,(5.99.0-1452-gb67f18b39)*
G04 #@! TF.CreationDate,2020-04-28T12:03:23+03:00*
G04 #@! TF.ProjectId,agudo,61677564-6f2e-46b6-9963-61645f706362,rev?*
G04 #@! TF.SameCoordinates,Original*
G04 #@! TF.FileFunction,Copper,L2,Bot*
G04 #@! TF.FilePolarity,Positive*
%FSLAX46Y46*%
G04 Gerber Fmt 4.6, Leading zero omitted, Abs format (unit mm)*
G04 Created by KiCad (PCBNEW (5.99.0-1452-gb67f18b39)) date 2020-04-28 12:03:23*
%MOMM*%
%LPD*%
G01*
G04 APERTURE LIST*
G04 #@! TA.AperFunction,ComponentPad*
%ADD10O,2.000000X2.000000*%
G04 #@! TD*
G04 #@! TA.AperFunction,ComponentPad*
%ADD11O,2.540000X2.540000*%
G04 #@! TD*
G04 #@! TA.AperFunction,ComponentPad*
%ADD12R,2.540000X2.540000*%
G04 #@! TD*
G04 #@! TA.AperFunction,ComponentPad*
%ADD13O,1.930400X1.930400*%
G04 #@! TD*
G04 #@! TA.AperFunction,ComponentPad*
%ADD14R,1.930400X1.930400*%
G04 #@! TD*
G04 #@! TA.AperFunction,ComponentPad*
%ADD15O,2.400000X1.600000*%
G04 #@! TD*
G04 #@! TA.AperFunction,ComponentPad*
%ADD16R,2.400000X1.600000*%
G04 #@! TD*
G04 #@! TA.AperFunction,ComponentPad*
%ADD17C,1.800000*%
G04 #@! TD*
G04 #@! TA.AperFunction,ComponentPad*
%ADD18R,1.800000X1.800000*%
G04 #@! TD*
G04 #@! TA.AperFunction,ComponentPad*
%ADD19R,2.000000X2.000000*%
G04 #@! TD*
G04 #@! TA.AperFunction,ComponentPad*
%ADD20C,1.600000*%
G04 #@! TD*
G04 #@! TA.AperFunction,ComponentPad*
%ADD21R,1.600000X1.600000*%
G04 #@! TD*
G04 #@! TA.AperFunction,ViaPad*
%ADD22C,0.800000*%
G04 #@! TD*
G04 #@! TA.AperFunction,Conductor*
%ADD23C,0.609600*%
G04 #@! TD*
G04 #@! TA.AperFunction,Conductor*
%ADD24C,0.381000*%
G04 #@! TD*
G04 #@! TA.AperFunction,Conductor*
%ADD25C,0.254000*%
G04 #@! TD*
G04 APERTURE END LIST*
D10*
G04 #@! TO.P,R27,2*
G04 #@! TO.N,Net-(R27-Pad2)*
X102870000Y-83185000D03*
G04 #@! TO.P,R27,1*
G04 #@! TO.N,Net-(C10-Pad2)*
X107950000Y-83185000D03*
G04 #@! TD*
G04 #@! TO.P,R26,2*
G04 #@! TO.N,GND*
X114300000Y-123825000D03*
G04 #@! TO.P,R26,1*
G04 #@! TO.N,OUT*
X109220000Y-123825000D03*
G04 #@! TD*
G04 #@! TO.P,R25,2*
G04 #@! TO.N,Net-(C10-Pad2)*
X114300000Y-103505000D03*
G04 #@! TO.P,R25,1*
G04 #@! TO.N,Net-(R23-Pad2)*
X109220000Y-103505000D03*
G04 #@! TD*
G04 #@! TO.P,R24,2*
G04 #@! TO.N,GND*
X114300000Y-106045000D03*
G04 #@! TO.P,R24,1*
G04 #@! TO.N,Net-(R23-Pad2)*
X109220000Y-106045000D03*
G04 #@! TD*
G04 #@! TO.P,R23,2*
G04 #@! TO.N,Net-(R23-Pad2)*
X114300000Y-108585000D03*
G04 #@! TO.P,R23,1*
G04 #@! TO.N,+9V*
X109220000Y-108585000D03*
G04 #@! TD*
G04 #@! TO.P,R22,2*
G04 #@! TO.N,Net-(C10-Pad1)*
X109220000Y-93980000D03*
G04 #@! TO.P,R22,1*
G04 #@! TO.N,Net-(C8-Pad1)*
X114300000Y-93980000D03*
G04 #@! TD*
G04 #@! TO.P,R21,2*
G04 #@! TO.N,Net-(C9-Pad1)*
X95885000Y-124714000D03*
G04 #@! TO.P,R21,1*
G04 #@! TO.N,Net-(R20-Pad2)*
X90805000Y-124714000D03*
G04 #@! TD*
G04 #@! TO.P,R20,2*
G04 #@! TO.N,Net-(R20-Pad2)*
X90170000Y-91694000D03*
G04 #@! TO.P,R20,1*
G04 #@! TO.N,Net-(R16-Pad2)*
X95250000Y-91694000D03*
G04 #@! TD*
G04 #@! TO.P,R19,2*
G04 #@! TO.N,Net-(C8-Pad1)*
X114300000Y-91440000D03*
G04 #@! TO.P,R19,1*
G04 #@! TO.N,Net-(C5-Pad2)*
X109220000Y-91440000D03*
G04 #@! TD*
G04 #@! TO.P,R18,2*
G04 #@! TO.N,Net-(R18-Pad2)*
X100457000Y-85471000D03*
G04 #@! TO.P,R18,1*
G04 #@! TO.N,Net-(C5-Pad2)*
X105537000Y-85471000D03*
G04 #@! TD*
G04 #@! TO.P,R17,2*
G04 #@! TO.N,Net-(C5-Pad2)*
X90170000Y-101346000D03*
G04 #@! TO.P,R17,1*
G04 #@! TO.N,Net-(C7-Pad2)*
X90170000Y-106426000D03*
G04 #@! TD*
G04 #@! TO.P,R16,2*
G04 #@! TO.N,Net-(R16-Pad2)*
X95250000Y-94107000D03*
G04 #@! TO.P,R16,1*
G04 #@! TO.N,Net-(C6-Pad1)*
X90170000Y-94107000D03*
G04 #@! TD*
G04 #@! TO.P,R15,2*
G04 #@! TO.N,Net-(C6-Pad2)*
X95250000Y-96520000D03*
G04 #@! TO.P,R15,1*
G04 #@! TO.N,Net-(C7-Pad1)*
X90170000Y-96520000D03*
G04 #@! TD*
G04 #@! TO.P,R14,2*
G04 #@! TO.N,Net-(D3-Pad1)*
X95885000Y-127127000D03*
G04 #@! TO.P,R14,1*
G04 #@! TO.N,LED-*
X90805000Y-127127000D03*
G04 #@! TD*
G04 #@! TO.P,R13,2*
G04 #@! TO.N,Net-(C5-Pad1)*
X95250000Y-98933000D03*
G04 #@! TO.P,R13,1*
G04 #@! TO.N,Net-(C7-Pad1)*
X90170000Y-98933000D03*
G04 #@! TD*
G04 #@! TO.P,R12,2*
G04 #@! TO.N,Net-(C6-Pad1)*
X109220000Y-111125000D03*
G04 #@! TO.P,R12,1*
G04 #@! TO.N,Net-(R10-Pad2)*
X114300000Y-111125000D03*
G04 #@! TD*
G04 #@! TO.P,R11,2*
G04 #@! TO.N,Net-(C4-Pad2)*
X114300000Y-88900000D03*
G04 #@! TO.P,R11,1*
G04 #@! TO.N,Net-(C5-Pad2)*
X109220000Y-88900000D03*
G04 #@! TD*
G04 #@! TO.P,R10,2*
G04 #@! TO.N,Net-(R10-Pad2)*
X109220000Y-113665000D03*
G04 #@! TO.P,R10,1*
G04 #@! TO.N,Net-(C3-Pad1)*
X114300000Y-113665000D03*
G04 #@! TD*
G04 #@! TO.P,R9,2*
G04 #@! TO.N,Net-(C9-Pad1)*
X109220000Y-116205000D03*
G04 #@! TO.P,R9,1*
G04 #@! TO.N,Net-(C3-Pad1)*
X114300000Y-116205000D03*
G04 #@! TD*
G04 #@! TO.P,R8,2*
G04 #@! TO.N,Net-(C3-Pad2)*
X109220000Y-118745000D03*
G04 #@! TO.P,R8,1*
G04 #@! TO.N,Net-(C4-Pad1)*
X114300000Y-118745000D03*
G04 #@! TD*
G04 #@! TO.P,R7,2*
G04 #@! TO.N,Net-(C5-Pad1)*
X109220000Y-121285000D03*
G04 #@! TO.P,R7,1*
G04 #@! TO.N,Net-(C4-Pad1)*
X114300000Y-121285000D03*
G04 #@! TD*
G04 #@! TO.P,R6,2*
G04 #@! TO.N,Net-(C3-Pad1)*
X95250000Y-109220000D03*
G04 #@! TO.P,R6,1*
G04 #@! TO.N,Net-(R5-Pad1)*
X90170000Y-109220000D03*
G04 #@! TD*
G04 #@! TO.P,R5,2*
G04 #@! TO.N,Net-(C5-Pad1)*
X90170000Y-111760000D03*
G04 #@! TO.P,R5,1*
G04 #@! TO.N,Net-(R5-Pad1)*
X95250000Y-111760000D03*
G04 #@! TD*
G04 #@! TO.P,R4,2*
G04 #@! TO.N,Net-(C5-Pad1)*
X90170000Y-114300000D03*
G04 #@! TO.P,R4,1*
G04 #@! TO.N,Net-(R3-Pad2)*
X95250000Y-114300000D03*
G04 #@! TD*
G04 #@! TO.P,R3,2*
G04 #@! TO.N,Net-(R3-Pad2)*
X95250000Y-116840000D03*
G04 #@! TO.P,R3,1*
G04 #@! TO.N,Net-(C1-Pad2)*
X90170000Y-116840000D03*
G04 #@! TD*
G04 #@! TO.P,R2,2*
G04 #@! TO.N,Net-(C5-Pad1)*
X101727000Y-106299000D03*
G04 #@! TO.P,R2,1*
G04 #@! TO.N,+9V*
X106807000Y-106299000D03*
G04 #@! TD*
G04 #@! TO.P,R1,2*
G04 #@! TO.N,GND*
X95250000Y-119380000D03*
G04 #@! TO.P,R1,1*
G04 #@! TO.N,IN*
X90170000Y-119380000D03*
G04 #@! TD*
D11*
G04 #@! TO.P,RV2,3,3*
G04 #@! TO.N,Net-(C8-Pad1)*
X105410000Y-80645000D03*
G04 #@! TO.P,RV2,2,2*
G04 #@! TO.N,Net-(R27-Pad2)*
X100330000Y-80645000D03*
D12*
G04 #@! TO.P,RV2,1,1*
X95250000Y-80645000D03*
G04 #@! TD*
D13*
G04 #@! TO.P,J3,2,GND*
G04 #@! TO.N,GND*
X115189000Y-80264000D03*
D14*
G04 #@! TO.P,J3,1,PWR*
G04 #@! TO.N,VIN*
X112649000Y-80264000D03*
G04 #@! TD*
D15*
G04 #@! TO.P,U2,8,V+*
G04 #@! TO.N,+9V*
X106045000Y-91440000D03*
G04 #@! TO.P,U2,4,V-*
G04 #@! TO.N,GND*
X98425000Y-99060000D03*
G04 #@! TO.P,U2,7*
G04 #@! TO.N,Net-(C10-Pad2)*
X106045000Y-93980000D03*
G04 #@! TO.P,U2,3,+*
G04 #@! TO.N,Net-(C6-Pad2)*
X98425000Y-96520000D03*
G04 #@! TO.P,U2,6,-*
G04 #@! TO.N,Net-(C10-Pad1)*
X106045000Y-96520000D03*
G04 #@! TO.P,U2,2,-*
G04 #@! TO.N,Net-(R16-Pad2)*
X98425000Y-93980000D03*
G04 #@! TO.P,U2,5,+*
G04 #@! TO.N,Net-(R23-Pad2)*
X106045000Y-99060000D03*
D16*
G04 #@! TO.P,U2,1*
G04 #@! TO.N,Net-(R20-Pad2)*
X98425000Y-91440000D03*
G04 #@! TD*
D15*
G04 #@! TO.P,U1,8,V+*
G04 #@! TO.N,+9V*
X106045000Y-109220000D03*
G04 #@! TO.P,U1,4,V-*
G04 #@! TO.N,GND*
X98425000Y-116840000D03*
G04 #@! TO.P,U1,7*
G04 #@! TO.N,Net-(C6-Pad1)*
X106045000Y-111760000D03*
G04 #@! TO.P,U1,3,+*
G04 #@! TO.N,Net-(R3-Pad2)*
X98425000Y-114300000D03*
G04 #@! TO.P,U1,6,-*
G04 #@! TO.N,Net-(R10-Pad2)*
X106045000Y-114300000D03*
G04 #@! TO.P,U1,2,-*
G04 #@! TO.N,Net-(R5-Pad1)*
X98425000Y-111760000D03*
G04 #@! TO.P,U1,5,+*
G04 #@! TO.N,Net-(C3-Pad2)*
X106045000Y-116840000D03*
D16*
G04 #@! TO.P,U1,1*
G04 #@! TO.N,Net-(C3-Pad1)*
X98425000Y-109220000D03*
G04 #@! TD*
D13*
G04 #@! TO.P,RV1,3,3*
G04 #@! TO.N,Net-(C5-Pad1)*
X95377000Y-88646000D03*
G04 #@! TO.P,RV1,2,2*
G04 #@! TO.N,Net-(R18-Pad2)*
X97917000Y-86106000D03*
G04 #@! TO.P,RV1,1,1*
G04 #@! TO.N,GND*
X95377000Y-83566000D03*
G04 #@! TD*
G04 #@! TO.P,J2,2,GND*
G04 #@! TO.N,GND*
X109664500Y-130556000D03*
D14*
G04 #@! TO.P,J2,1,PWR*
G04 #@! TO.N,VIN*
X107124500Y-130556000D03*
G04 #@! TD*
D13*
G04 #@! TO.P,J1,4,OUT*
G04 #@! TO.N,OUT*
X104127300Y-130784600D03*
G04 #@! TO.P,J1,3,SW*
G04 #@! TO.N,LED-*
X101587300Y-130784600D03*
G04 #@! TO.P,J1,2,GND*
G04 #@! TO.N,GND*
X99047300Y-130784600D03*
D14*
G04 #@! TO.P,J1,1,IN*
G04 #@! TO.N,IN*
X96507300Y-130784600D03*
G04 #@! TD*
D17*
G04 #@! TO.P,D3,2,A*
G04 #@! TO.N,VIN*
X101587300Y-126301500D03*
D18*
G04 #@! TO.P,D3,1,K*
G04 #@! TO.N,Net-(D3-Pad1)*
X99047300Y-126301500D03*
G04 #@! TD*
D19*
G04 #@! TO.P,D2,1,K*
G04 #@! TO.N,Net-(C5-Pad1)*
X90297000Y-88646000D03*
D10*
G04 #@! TO.P,D2,2,A*
G04 #@! TO.N,GND*
X90297000Y-81026000D03*
G04 #@! TD*
D19*
G04 #@! TO.P,D1,1,K*
G04 #@! TO.N,+9V*
X111760000Y-126238000D03*
D10*
G04 #@! TO.P,D1,2,A*
G04 #@! TO.N,VIN*
X104140000Y-126238000D03*
G04 #@! TD*
D20*
G04 #@! TO.P,C10,2*
G04 #@! TO.N,Net-(C10-Pad2)*
X109300000Y-96901000D03*
G04 #@! TO.P,C10,1*
G04 #@! TO.N,Net-(C10-Pad1)*
X114300000Y-96901000D03*
G04 #@! TD*
G04 #@! TO.P,C9,2*
G04 #@! TO.N,OUT*
X105393500Y-123253500D03*
G04 #@! TO.P,C9,1*
G04 #@! TO.N,Net-(C9-Pad1)*
X100393500Y-123253500D03*
G04 #@! TD*
G04 #@! TO.P,C8,2*
G04 #@! TO.N,GND*
X112990000Y-85090000D03*
D21*
G04 #@! TO.P,C8,1*
G04 #@! TO.N,Net-(C8-Pad1)*
X110490000Y-85090000D03*
G04 #@! TD*
D20*
G04 #@! TO.P,C7,2*
G04 #@! TO.N,Net-(C7-Pad2)*
X97710000Y-106045000D03*
G04 #@! TO.P,C7,1*
G04 #@! TO.N,Net-(C7-Pad1)*
X92710000Y-106045000D03*
G04 #@! TD*
G04 #@! TO.P,C6,2*
G04 #@! TO.N,Net-(C6-Pad2)*
X97710000Y-102362000D03*
G04 #@! TO.P,C6,1*
G04 #@! TO.N,Net-(C6-Pad1)*
X92710000Y-102362000D03*
G04 #@! TD*
G04 #@! TO.P,C5,2*
G04 #@! TO.N,Net-(C5-Pad2)*
X105584000Y-88265000D03*
G04 #@! TO.P,C5,1*
G04 #@! TO.N,Net-(C5-Pad1)*
X100584000Y-88265000D03*
G04 #@! TD*
G04 #@! TO.P,C4,2*
G04 #@! TO.N,Net-(C4-Pad2)*
X109300000Y-100330000D03*
G04 #@! TO.P,C4,1*
G04 #@! TO.N,Net-(C4-Pad1)*
X114300000Y-100330000D03*
G04 #@! TD*
G04 #@! TO.P,C3,2*
G04 #@! TO.N,Net-(C3-Pad2)*
X105330000Y-120015000D03*
G04 #@! TO.P,C3,1*
G04 #@! TO.N,Net-(C3-Pad1)*
X100330000Y-120015000D03*
G04 #@! TD*
G04 #@! TO.P,C2,2*
G04 #@! TO.N,GND*
X114641000Y-129794000D03*
D21*
G04 #@! TO.P,C2,1*
G04 #@! TO.N,+9V*
X112141000Y-129794000D03*
G04 #@! TD*
D20*
G04 #@! TO.P,C1,2*
G04 #@! TO.N,Net-(C1-Pad2)*
X96440000Y-122047000D03*
G04 #@! TO.P,C1,1*
G04 #@! TO.N,IN*
X91440000Y-122047000D03*
G04 #@! TD*
D22*
G04 #@! TO.N,GND*
X108839000Y-86741000D03*
X90043000Y-130429000D03*
X93345000Y-113030000D03*
X92837000Y-92837000D03*
X101600000Y-116840000D03*
X94234000Y-123063000D03*
X93472000Y-129413000D03*
X111887000Y-104775000D03*
X112522000Y-109855000D03*
X111379000Y-90170000D03*
G04 #@! TD*
D23*
G04 #@! TO.N,VIN*
X107124500Y-130556000D02*
X108594501Y-132026001D01*
X108594501Y-132026001D02*
X114340105Y-132026001D01*
X115945801Y-130420305D02*
X115945801Y-83560801D01*
X114340105Y-132026001D02*
X115945801Y-130420305D01*
X115945801Y-83560801D02*
X112649000Y-80264000D01*
D24*
G04 #@! TO.N,Net-(C7-Pad2)*
X90170000Y-106426000D02*
X91169999Y-107425999D01*
X91169999Y-107425999D02*
X96329001Y-107425999D01*
X96329001Y-107425999D02*
X97710000Y-106045000D01*
D23*
G04 #@! TO.N,+9V*
X111379000Y-110744000D02*
X109220000Y-108585000D01*
X111379000Y-126238000D02*
X111760000Y-126619000D01*
X111379000Y-110744000D02*
X111379000Y-126238000D01*
D24*
G04 #@! TO.N,Net-(C5-Pad2)*
X105584000Y-88265000D02*
X108585000Y-88265000D01*
X108585000Y-88265000D02*
X109220000Y-88900000D01*
X102108000Y-99314000D02*
X102108000Y-92837000D01*
X105584000Y-88265000D02*
X102108000Y-91741000D01*
X102108000Y-91741000D02*
X102108000Y-92837000D01*
G04 #@! TO.N,Net-(C6-Pad1)*
X95788942Y-102362000D02*
X103916942Y-110490000D01*
X92710000Y-102362000D02*
X95788942Y-102362000D01*
X103916942Y-110490000D02*
X104775000Y-110490000D01*
X104775000Y-110490000D02*
X106045000Y-111760000D01*
G04 #@! TO.N,Net-(C5-Pad2)*
X100457000Y-100965000D02*
X100647500Y-100774500D01*
X100647500Y-100774500D02*
X102108000Y-99314000D01*
X89408000Y-101219000D02*
X89455501Y-101171499D01*
X89455501Y-101171499D02*
X100250501Y-101171499D01*
X100250501Y-101171499D02*
X100647500Y-100774500D01*
D23*
G04 #@! TO.N,+9V*
X104648000Y-106299000D02*
X106807000Y-106299000D01*
D24*
G04 #@! TO.N,OUT*
X106193499Y-124053499D02*
X105393500Y-123253500D01*
X106193499Y-128718401D02*
X106193499Y-124053499D01*
X104127300Y-130784600D02*
X106193499Y-128718401D01*
G04 #@! TO.N,Net-(R5-Pad1)*
X92710000Y-111760000D02*
X90170000Y-109220000D01*
X95250000Y-111760000D02*
X92710000Y-111760000D01*
G04 #@! TO.N,Net-(C4-Pad2)*
X112909499Y-90290501D02*
X114300000Y-88900000D01*
X112909499Y-96720501D02*
X112909499Y-90290501D01*
X109300000Y-100330000D02*
X112909499Y-96720501D01*
G04 #@! TO.N,Net-(C9-Pad1)*
X107394490Y-118030510D02*
X109220000Y-116205000D01*
X105616490Y-118030510D02*
X107394490Y-118030510D01*
X100393500Y-123253500D02*
X105616490Y-118030510D01*
D23*
G04 #@! TO.N,+9V*
X103648001Y-93836999D02*
X106045000Y-91440000D01*
X103648001Y-105299001D02*
X103648001Y-93836999D01*
X104648000Y-106299000D02*
X103648001Y-105299001D01*
G04 #@! TD*
G04 #@! TO.N,GND*
G36*
X93338163Y-81923258D02*
G01*
X93340319Y-81939634D01*
X93415137Y-82218859D01*
X93427880Y-82243339D01*
X93558990Y-82399590D01*
X93575879Y-82413761D01*
X93750120Y-82514359D01*
X93770837Y-82521900D01*
X93963538Y-82555878D01*
X93974499Y-82556837D01*
X94136318Y-82556837D01*
X94054647Y-82657693D01*
X94048820Y-82666236D01*
X93924054Y-82885864D01*
X93919699Y-82895244D01*
X93832479Y-83132300D01*
X93829716Y-83142266D01*
X93790731Y-83346631D01*
X93866318Y-83438000D01*
X95175192Y-83438001D01*
X95175193Y-83438000D01*
X96886634Y-83438001D01*
X96962119Y-83348992D01*
X96934175Y-83180196D01*
X96932342Y-83172898D01*
X101231132Y-83172898D01*
X101248766Y-83425071D01*
X101250279Y-83435078D01*
X101308004Y-83681187D01*
X101311098Y-83690824D01*
X101407428Y-83924538D01*
X101412023Y-83933556D01*
X101544480Y-84148862D01*
X101550458Y-84157030D01*
X101715634Y-84348390D01*
X101722841Y-84355497D01*
X101916489Y-84517986D01*
X101924739Y-84523849D01*
X102141873Y-84653287D01*
X102150955Y-84657756D01*
X102385991Y-84750813D01*
X102395670Y-84753772D01*
X102642561Y-84808054D01*
X102652589Y-84809428D01*
X102904983Y-84823539D01*
X102915101Y-84823292D01*
X103166504Y-84796869D01*
X103176453Y-84795007D01*
X103420398Y-84728728D01*
X103429920Y-84725300D01*
X103660131Y-84620873D01*
X103668983Y-84615966D01*
X103879536Y-84476074D01*
X103887489Y-84469815D01*
X104072968Y-84298061D01*
X104079819Y-84290610D01*
X104235451Y-84091411D01*
X104241023Y-84082961D01*
X104362804Y-83861441D01*
X104366953Y-83852209D01*
X104451751Y-83614068D01*
X104454370Y-83604292D01*
X104500063Y-83355332D01*
X104501097Y-83344599D01*
X104502895Y-83172898D01*
X106311132Y-83172898D01*
X106328766Y-83425071D01*
X106330279Y-83435078D01*
X106388004Y-83681187D01*
X106391098Y-83690824D01*
X106487428Y-83924538D01*
X106492023Y-83933556D01*
X106624480Y-84148862D01*
X106630458Y-84157030D01*
X106795634Y-84348390D01*
X106802841Y-84355497D01*
X106996489Y-84517986D01*
X107004739Y-84523849D01*
X107221873Y-84653287D01*
X107230955Y-84657756D01*
X107465991Y-84750813D01*
X107475670Y-84753772D01*
X107722561Y-84808054D01*
X107732589Y-84809428D01*
X107984983Y-84823539D01*
X107995101Y-84823292D01*
X108246504Y-84796869D01*
X108256453Y-84795007D01*
X108500398Y-84728728D01*
X108509920Y-84725300D01*
X108740131Y-84620873D01*
X108748983Y-84615966D01*
X108959536Y-84476074D01*
X108967489Y-84469815D01*
X109048163Y-84395111D01*
X109048163Y-85898258D01*
X109050319Y-85914634D01*
X109125137Y-86193859D01*
X109137880Y-86218339D01*
X109268990Y-86374590D01*
X109285879Y-86388761D01*
X109460120Y-86489359D01*
X109480837Y-86496900D01*
X109673538Y-86530878D01*
X109684499Y-86531837D01*
X111298258Y-86531837D01*
X111314634Y-86529681D01*
X111593859Y-86454863D01*
X111618339Y-86442120D01*
X111774590Y-86311010D01*
X111788761Y-86294121D01*
X111881296Y-86133844D01*
X112127177Y-86133844D01*
X112143397Y-86257053D01*
X112376868Y-86391848D01*
X112386840Y-86396498D01*
X112612247Y-86478540D01*
X112622874Y-86481387D01*
X112859103Y-86523041D01*
X112870064Y-86524000D01*
X113109936Y-86524000D01*
X113120897Y-86523041D01*
X113357126Y-86481387D01*
X113367753Y-86478540D01*
X113593160Y-86396498D01*
X113603132Y-86391848D01*
X113836603Y-86257053D01*
X113852823Y-86133844D01*
X113042191Y-85323210D01*
X112937809Y-85323210D01*
X112127177Y-86133844D01*
X111881296Y-86133844D01*
X111889359Y-86119880D01*
X111896900Y-86099163D01*
X111923235Y-85949806D01*
X111946156Y-85952823D01*
X112756790Y-85142191D01*
X112756790Y-85037809D01*
X113223210Y-85037809D01*
X113223210Y-85142191D01*
X114033844Y-85952823D01*
X114157053Y-85936603D01*
X114291848Y-85703132D01*
X114296498Y-85693160D01*
X114378540Y-85467753D01*
X114381387Y-85457126D01*
X114423041Y-85220897D01*
X114424000Y-85209936D01*
X114424000Y-84970064D01*
X114423041Y-84959103D01*
X114381387Y-84722874D01*
X114378540Y-84712247D01*
X114296498Y-84486840D01*
X114291848Y-84476868D01*
X114157053Y-84243397D01*
X114033844Y-84227177D01*
X113223210Y-85037809D01*
X112756790Y-85037809D01*
X111946156Y-84227177D01*
X111920358Y-84230573D01*
X111870944Y-84046156D01*
X112127177Y-84046156D01*
X112937809Y-84856790D01*
X113042191Y-84856790D01*
X113852823Y-84046156D01*
X113836603Y-83922947D01*
X113603132Y-83788152D01*
X113593160Y-83783502D01*
X113367753Y-83701460D01*
X113357126Y-83698613D01*
X113120897Y-83656959D01*
X113109936Y-83656000D01*
X112870064Y-83656000D01*
X112859103Y-83656959D01*
X112622874Y-83698613D01*
X112612247Y-83701460D01*
X112386840Y-83783502D01*
X112376868Y-83788152D01*
X112143397Y-83922947D01*
X112127177Y-84046156D01*
X111870944Y-84046156D01*
X111854863Y-83986142D01*
X111842120Y-83961662D01*
X111711010Y-83805410D01*
X111694121Y-83791239D01*
X111519880Y-83690641D01*
X111499163Y-83683100D01*
X111306462Y-83649122D01*
X111295501Y-83648163D01*
X109681742Y-83648163D01*
X109665366Y-83650319D01*
X109503388Y-83693721D01*
X109531751Y-83614068D01*
X109534370Y-83604292D01*
X109580063Y-83355332D01*
X109581097Y-83344599D01*
X109584082Y-83059596D01*
X109583273Y-83048844D01*
X109542804Y-82798981D01*
X109540390Y-82789152D01*
X109460597Y-82549287D01*
X109456642Y-82539971D01*
X109339527Y-82315949D01*
X109334134Y-82307384D01*
X109182708Y-82104969D01*
X109176014Y-82097377D01*
X108994174Y-81921776D01*
X108986353Y-81915351D01*
X108778775Y-81771081D01*
X108770028Y-81765990D01*
X108542056Y-81656764D01*
X108532607Y-81653137D01*
X108290103Y-81581765D01*
X108280196Y-81579695D01*
X108029402Y-81548011D01*
X108019290Y-81547552D01*
X107766656Y-81556374D01*
X107756601Y-81557538D01*
X107508628Y-81606639D01*
X107498889Y-81609394D01*
X107261956Y-81697508D01*
X107252783Y-81701786D01*
X107032984Y-81826649D01*
X107024613Y-81832338D01*
X106827606Y-81990737D01*
X106820252Y-81997691D01*
X106651104Y-82185548D01*
X106644956Y-82193589D01*
X106508019Y-82406075D01*
X106503236Y-82414994D01*
X106402032Y-82646639D01*
X106398737Y-82656209D01*
X106335871Y-82901056D01*
X106334148Y-82911030D01*
X106311238Y-83162777D01*
X106311132Y-83172898D01*
X104502895Y-83172898D01*
X104504082Y-83059596D01*
X104503273Y-83048844D01*
X104462804Y-82798981D01*
X104460390Y-82789152D01*
X104380597Y-82549287D01*
X104376642Y-82539971D01*
X104259527Y-82315949D01*
X104254134Y-82307384D01*
X104102708Y-82104969D01*
X104096014Y-82097377D01*
X103914174Y-81921776D01*
X103906353Y-81915351D01*
X103698775Y-81771081D01*
X103690028Y-81765990D01*
X103462056Y-81656764D01*
X103452607Y-81653137D01*
X103210103Y-81581765D01*
X103200196Y-81579695D01*
X102949402Y-81548011D01*
X102939290Y-81547552D01*
X102686656Y-81556374D01*
X102676601Y-81557538D01*
X102428628Y-81606639D01*
X102418889Y-81609394D01*
X102181956Y-81697508D01*
X102172783Y-81701786D01*
X101952984Y-81826649D01*
X101944613Y-81832338D01*
X101747606Y-81990737D01*
X101740252Y-81997691D01*
X101571104Y-82185548D01*
X101564956Y-82193589D01*
X101428019Y-82406075D01*
X101423236Y-82414994D01*
X101322032Y-82646639D01*
X101318737Y-82656209D01*
X101255871Y-82901056D01*
X101254148Y-82911030D01*
X101231238Y-83162777D01*
X101231132Y-83172898D01*
X96932342Y-83172898D01*
X96931655Y-83170166D01*
X96850253Y-82931050D01*
X96846130Y-82921566D01*
X96726767Y-82698955D01*
X96721149Y-82690271D01*
X96604398Y-82538667D01*
X96823859Y-82479863D01*
X96848339Y-82467120D01*
X97004590Y-82336010D01*
X97018761Y-82319121D01*
X97119359Y-82144880D01*
X97126900Y-82124163D01*
X97160878Y-81931462D01*
X97161837Y-81920501D01*
X97161837Y-79374000D01*
X98910405Y-79374000D01*
X98865282Y-79420726D01*
X98859303Y-79427915D01*
X98700412Y-79650673D01*
X98695561Y-79658667D01*
X98571341Y-79902463D01*
X98567725Y-79911086D01*
X98480904Y-80170565D01*
X98478602Y-80179628D01*
X98431088Y-80449090D01*
X98430152Y-80458394D01*
X98422989Y-80731919D01*
X98423437Y-80741259D01*
X98456784Y-81012839D01*
X98458608Y-81022010D01*
X98531729Y-81285677D01*
X98534889Y-81294478D01*
X98646180Y-81544442D01*
X98650606Y-81552679D01*
X98797621Y-81783447D01*
X98803215Y-81790939D01*
X98982726Y-81997442D01*
X98989367Y-82004025D01*
X99197429Y-82181727D01*
X99204969Y-82187256D01*
X99437011Y-82332252D01*
X99445286Y-82336605D01*
X99696212Y-82445711D01*
X99705040Y-82448794D01*
X99969335Y-82519611D01*
X99978521Y-82521355D01*
X100250382Y-82552329D01*
X100259725Y-82552696D01*
X100533178Y-82543148D01*
X100542473Y-82542130D01*
X100811510Y-82492266D01*
X100820552Y-82489885D01*
X101079264Y-82400804D01*
X101087855Y-82397113D01*
X101330559Y-82270770D01*
X101338511Y-82265849D01*
X101559872Y-82105020D01*
X101567009Y-82098979D01*
X101762168Y-81907197D01*
X101768333Y-81900166D01*
X101933002Y-81681644D01*
X101938060Y-81673780D01*
X102068620Y-81433319D01*
X102072460Y-81424794D01*
X102166043Y-81167675D01*
X102168581Y-81158676D01*
X102223297Y-80889741D01*
X102224543Y-80878809D01*
X102234183Y-80510665D01*
X102233511Y-80499683D01*
X102192946Y-80228252D01*
X102190882Y-80219132D01*
X102110883Y-79957468D01*
X102107494Y-79948753D01*
X101989698Y-79701789D01*
X101985058Y-79693671D01*
X101832052Y-79466831D01*
X101826264Y-79459488D01*
X101747929Y-79374000D01*
X103990405Y-79374000D01*
X103945282Y-79420726D01*
X103939303Y-79427915D01*
X103780412Y-79650673D01*
X103775561Y-79658667D01*
X103651341Y-79902463D01*
X103647725Y-79911086D01*
X103560904Y-80170565D01*
X103558602Y-80179628D01*
X103511088Y-80449090D01*
X103510152Y-80458394D01*
X103502989Y-80731919D01*
X103503437Y-80741259D01*
X103536784Y-81012839D01*
X103538608Y-81022010D01*
X103611729Y-81285677D01*
X103614889Y-81294478D01*
X103726180Y-81544442D01*
X103730606Y-81552679D01*
X103877621Y-81783447D01*
X103883215Y-81790939D01*
X104062726Y-81997442D01*
X104069367Y-82004025D01*
X104277429Y-82181727D01*
X104284969Y-82187256D01*
X104517011Y-82332252D01*
X104525286Y-82336605D01*
X104776212Y-82445711D01*
X104785040Y-82448794D01*
X105049335Y-82519611D01*
X105058521Y-82521355D01*
X105330382Y-82552329D01*
X105339725Y-82552696D01*
X105613178Y-82543148D01*
X105622473Y-82542130D01*
X105891510Y-82492266D01*
X105900552Y-82489885D01*
X106159264Y-82400804D01*
X106167855Y-82397113D01*
X106410559Y-82270770D01*
X106418511Y-82265849D01*
X106639872Y-82105020D01*
X106647009Y-82098979D01*
X106842168Y-81907197D01*
X106848333Y-81900166D01*
X107013002Y-81681644D01*
X107018060Y-81673780D01*
X107148620Y-81433319D01*
X107152460Y-81424794D01*
X107246043Y-81167675D01*
X107248581Y-81158676D01*
X107303297Y-80889741D01*
X107304543Y-80878809D01*
X107314183Y-80510665D01*
X107313511Y-80499683D01*
X107272946Y-80228252D01*
X107270882Y-80219132D01*
X107190883Y-79957468D01*
X107187494Y-79948753D01*
X107069698Y-79701789D01*
X107065058Y-79693671D01*
X106912052Y-79466831D01*
X106906264Y-79459488D01*
X106827929Y-79374000D01*
X111041963Y-79374000D01*
X111041963Y-81237458D01*
X111044119Y-81253834D01*
X111118937Y-81533059D01*
X111131680Y-81557539D01*
X111262790Y-81713790D01*
X111279679Y-81727961D01*
X111453920Y-81828559D01*
X111474637Y-81836100D01*
X111667338Y-81870078D01*
X111678299Y-81871037D01*
X112925547Y-81871037D01*
X115005002Y-83950493D01*
X115005002Y-87425879D01*
X114892056Y-87371764D01*
X114882607Y-87368137D01*
X114640103Y-87296765D01*
X114630196Y-87294695D01*
X114379402Y-87263011D01*
X114369290Y-87262552D01*
X114116656Y-87271374D01*
X114106601Y-87272538D01*
X113858628Y-87321639D01*
X113848889Y-87324394D01*
X113611956Y-87412508D01*
X113602783Y-87416786D01*
X113382984Y-87541649D01*
X113374613Y-87547338D01*
X113177606Y-87705737D01*
X113170252Y-87712691D01*
X113001104Y-87900548D01*
X112994956Y-87908589D01*
X112858019Y-88121075D01*
X112853236Y-88129994D01*
X112752032Y-88361639D01*
X112748737Y-88371209D01*
X112685871Y-88616056D01*
X112684148Y-88626030D01*
X112661238Y-88877777D01*
X112661132Y-88887898D01*
X112678766Y-89140071D01*
X112680279Y-89150078D01*
X112718428Y-89312725D01*
X112390550Y-89640604D01*
X112375997Y-89649786D01*
X112362325Y-89661422D01*
X112306326Y-89724829D01*
X112286342Y-89744812D01*
X112280470Y-89751585D01*
X112267993Y-89768232D01*
X112217613Y-89825277D01*
X112207756Y-89840283D01*
X112197295Y-89862563D01*
X112182531Y-89882263D01*
X112173909Y-89898011D01*
X112147190Y-89969284D01*
X112114768Y-90038341D01*
X112109460Y-90055895D01*
X112105971Y-90079236D01*
X112097172Y-90102710D01*
X112093317Y-90120244D01*
X112086862Y-90207103D01*
X112083693Y-90228306D01*
X112083000Y-90237629D01*
X112083000Y-90259076D01*
X112077117Y-90338250D01*
X112078338Y-90356161D01*
X112083000Y-90378000D01*
X112082999Y-96378154D01*
X109544214Y-98916940D01*
X109430897Y-98896959D01*
X109419936Y-98896000D01*
X109180064Y-98896000D01*
X109169103Y-98896959D01*
X108932874Y-98938613D01*
X108922247Y-98941460D01*
X108696840Y-99023502D01*
X108686868Y-99028152D01*
X108479132Y-99148088D01*
X108470119Y-99154399D01*
X108286366Y-99308587D01*
X108278587Y-99316366D01*
X108124399Y-99500119D01*
X108118088Y-99509132D01*
X107998152Y-99716868D01*
X107993502Y-99726840D01*
X107911460Y-99952247D01*
X107908613Y-99962874D01*
X107866959Y-100199103D01*
X107866000Y-100210064D01*
X107866000Y-100449936D01*
X107866959Y-100460897D01*
X107908613Y-100697126D01*
X107911460Y-100707753D01*
X107993502Y-100933160D01*
X107998152Y-100943132D01*
X108118088Y-101150868D01*
X108124399Y-101159881D01*
X108278587Y-101343634D01*
X108286366Y-101351413D01*
X108470119Y-101505601D01*
X108479132Y-101511912D01*
X108686868Y-101631848D01*
X108696840Y-101636498D01*
X108922247Y-101718540D01*
X108932874Y-101721387D01*
X109169103Y-101763041D01*
X109180064Y-101764000D01*
X109419936Y-101764000D01*
X109430897Y-101763041D01*
X109667126Y-101721387D01*
X109677753Y-101718540D01*
X109903160Y-101636498D01*
X109913132Y-101631848D01*
X110120868Y-101511912D01*
X110129881Y-101505601D01*
X110313634Y-101351413D01*
X110321413Y-101343634D01*
X110475601Y-101159881D01*
X110481912Y-101150868D01*
X110601848Y-100943132D01*
X110606498Y-100933160D01*
X110688540Y-100707753D01*
X110691387Y-100697126D01*
X110733041Y-100460897D01*
X110734000Y-100449936D01*
X110734000Y-100210064D01*
X110733041Y-100199103D01*
X110713060Y-100085786D01*
X113103040Y-97695805D01*
X113118088Y-97721868D01*
X113124399Y-97730881D01*
X113278587Y-97914634D01*
X113286366Y-97922413D01*
X113470119Y-98076601D01*
X113479132Y-98082912D01*
X113686868Y-98202848D01*
X113696840Y-98207498D01*
X113922247Y-98289540D01*
X113932874Y-98292387D01*
X114169103Y-98334041D01*
X114180064Y-98335000D01*
X114419936Y-98335000D01*
X114430897Y-98334041D01*
X114667126Y-98292387D01*
X114677753Y-98289540D01*
X114903160Y-98207498D01*
X114913132Y-98202848D01*
X115005002Y-98149807D01*
X115005002Y-99081193D01*
X114913132Y-99028152D01*
X114903160Y-99023502D01*
X114677753Y-98941460D01*
X114667126Y-98938613D01*
X114430897Y-98896959D01*
X114419936Y-98896000D01*
X114180064Y-98896000D01*
X114169103Y-98896959D01*
X113932874Y-98938613D01*
X113922247Y-98941460D01*
X113696840Y-99023502D01*
X113686868Y-99028152D01*
X113479132Y-99148088D01*
X113470119Y-99154399D01*
X113286366Y-99308587D01*
X113278587Y-99316366D01*
X113124399Y-99500119D01*
X113118088Y-99509132D01*
X112998152Y-99716868D01*
X112993502Y-99726840D01*
X112911460Y-99952247D01*
X112908613Y-99962874D01*
X112866959Y-100199103D01*
X112866000Y-100210064D01*
X112866000Y-100449936D01*
X112866959Y-100460897D01*
X112908613Y-100697126D01*
X112911460Y-100707753D01*
X112993502Y-100933160D01*
X112998152Y-100943132D01*
X113118088Y-101150868D01*
X113124399Y-101159881D01*
X113278587Y-101343634D01*
X113286366Y-101351413D01*
X113470119Y-101505601D01*
X113479132Y-101511912D01*
X113686868Y-101631848D01*
X113696840Y-101636498D01*
X113922247Y-101718540D01*
X113932874Y-101721387D01*
X114169103Y-101763041D01*
X114180064Y-101764000D01*
X114419936Y-101764000D01*
X114430897Y-101763041D01*
X114667126Y-101721387D01*
X114677753Y-101718540D01*
X114903160Y-101636498D01*
X114913132Y-101631848D01*
X115005002Y-101578807D01*
X115005002Y-102030879D01*
X114892056Y-101976764D01*
X114882607Y-101973137D01*
X114640103Y-101901765D01*
X114630196Y-101899695D01*
X114379402Y-101868011D01*
X114369290Y-101867552D01*
X114116656Y-101876374D01*
X114106601Y-101877538D01*
X113858628Y-101926639D01*
X113848889Y-101929394D01*
X113611956Y-102017508D01*
X113602783Y-102021786D01*
X113382984Y-102146649D01*
X113374613Y-102152338D01*
X113177606Y-102310737D01*
X113170252Y-102317691D01*
X113001104Y-102505548D01*
X112994956Y-102513589D01*
X112858019Y-102726075D01*
X112853236Y-102734994D01*
X112752032Y-102966639D01*
X112748737Y-102976209D01*
X112685871Y-103221056D01*
X112684148Y-103231030D01*
X112661238Y-103482777D01*
X112661132Y-103492898D01*
X112678766Y-103745071D01*
X112680279Y-103755078D01*
X112738004Y-104001187D01*
X112741098Y-104010824D01*
X112837428Y-104244538D01*
X112842023Y-104253556D01*
X112974480Y-104468862D01*
X112980458Y-104477030D01*
X113145634Y-104668390D01*
X113152841Y-104675497D01*
X113271610Y-104775155D01*
X113177606Y-104850737D01*
X113170252Y-104857691D01*
X113001104Y-105045548D01*
X112994956Y-105053589D01*
X112858019Y-105266075D01*
X112853236Y-105274994D01*
X112752032Y-105506639D01*
X112748737Y-105516209D01*
X112685872Y-105761052D01*
X112684150Y-105771017D01*
X112678327Y-105834912D01*
X112753273Y-105917000D01*
X114428000Y-105917000D01*
X114428000Y-106173000D01*
X112749708Y-106173000D01*
X112674039Y-106268471D01*
X112738004Y-106541187D01*
X112741098Y-106550824D01*
X112837428Y-106784538D01*
X112842023Y-106793556D01*
X112974480Y-107008862D01*
X112980458Y-107017030D01*
X113145634Y-107208390D01*
X113152841Y-107215497D01*
X113271610Y-107315155D01*
X113177606Y-107390737D01*
X113170252Y-107397691D01*
X113001104Y-107585548D01*
X112994956Y-107593589D01*
X112858019Y-107806075D01*
X112853236Y-107814994D01*
X112752032Y-108046639D01*
X112748737Y-108056209D01*
X112685871Y-108301056D01*
X112684148Y-108311030D01*
X112661238Y-108562777D01*
X112661132Y-108572898D01*
X112678766Y-108825071D01*
X112680279Y-108835078D01*
X112738004Y-109081187D01*
X112741098Y-109090824D01*
X112837428Y-109324538D01*
X112842023Y-109333556D01*
X112974480Y-109548862D01*
X112980458Y-109557030D01*
X113145634Y-109748390D01*
X113152841Y-109755497D01*
X113271610Y-109855155D01*
X113177606Y-109930737D01*
X113170252Y-109937691D01*
X113001104Y-110125548D01*
X112994956Y-110133589D01*
X112858019Y-110346075D01*
X112853236Y-110354994D01*
X112752032Y-110586639D01*
X112748737Y-110596209D01*
X112685871Y-110841056D01*
X112684148Y-110851030D01*
X112661238Y-111102777D01*
X112661132Y-111112898D01*
X112678766Y-111365071D01*
X112680279Y-111375078D01*
X112738004Y-111621187D01*
X112741098Y-111630824D01*
X112837428Y-111864538D01*
X112842023Y-111873556D01*
X112974480Y-112088862D01*
X112980458Y-112097030D01*
X113145634Y-112288390D01*
X113152841Y-112295497D01*
X113271610Y-112395155D01*
X113177606Y-112470737D01*
X113170252Y-112477691D01*
X113001104Y-112665548D01*
X112994956Y-112673589D01*
X112858019Y-112886075D01*
X112853236Y-112894994D01*
X112752032Y-113126639D01*
X112748737Y-113136209D01*
X112685871Y-113381056D01*
X112684148Y-113391030D01*
X112661238Y-113642777D01*
X112661132Y-113652898D01*
X112678766Y-113905071D01*
X112680279Y-113915078D01*
X112738004Y-114161187D01*
X112741098Y-114170824D01*
X112837428Y-114404538D01*
X112842023Y-114413556D01*
X112974480Y-114628862D01*
X112980458Y-114637030D01*
X113145634Y-114828390D01*
X113152841Y-114835497D01*
X113271610Y-114935155D01*
X113177606Y-115010737D01*
X113170252Y-115017691D01*
X113001104Y-115205548D01*
X112994956Y-115213589D01*
X112858019Y-115426075D01*
X112853236Y-115434994D01*
X112752032Y-115666639D01*
X112748737Y-115676209D01*
X112685871Y-115921056D01*
X112684148Y-115931030D01*
X112661238Y-116182777D01*
X112661132Y-116192898D01*
X112678766Y-116445071D01*
X112680279Y-116455078D01*
X112738004Y-116701187D01*
X112741098Y-116710824D01*
X112837428Y-116944538D01*
X112842023Y-116953556D01*
X112974480Y-117168862D01*
X112980458Y-117177030D01*
X113145634Y-117368390D01*
X113152841Y-117375497D01*
X113271610Y-117475155D01*
X113177606Y-117550737D01*
X113170252Y-117557691D01*
X113001104Y-117745548D01*
X112994956Y-117753589D01*
X112858019Y-117966075D01*
X112853236Y-117974994D01*
X112752032Y-118206639D01*
X112748737Y-118216209D01*
X112685871Y-118461056D01*
X112684148Y-118471030D01*
X112661238Y-118722777D01*
X112661132Y-118732898D01*
X112678766Y-118985071D01*
X112680279Y-118995078D01*
X112738004Y-119241187D01*
X112741098Y-119250824D01*
X112837428Y-119484538D01*
X112842023Y-119493556D01*
X112974480Y-119708862D01*
X112980458Y-119717030D01*
X113145634Y-119908390D01*
X113152841Y-119915497D01*
X113271610Y-120015155D01*
X113177606Y-120090737D01*
X113170252Y-120097691D01*
X113001104Y-120285548D01*
X112994956Y-120293589D01*
X112858019Y-120506075D01*
X112853236Y-120514994D01*
X112752032Y-120746639D01*
X112748737Y-120756209D01*
X112685871Y-121001056D01*
X112684148Y-121011030D01*
X112661238Y-121262777D01*
X112661132Y-121272898D01*
X112678766Y-121525071D01*
X112680279Y-121535078D01*
X112738004Y-121781187D01*
X112741098Y-121790824D01*
X112837428Y-122024538D01*
X112842023Y-122033556D01*
X112974480Y-122248862D01*
X112980458Y-122257030D01*
X113145634Y-122448390D01*
X113152841Y-122455497D01*
X113271610Y-122555155D01*
X113177606Y-122630737D01*
X113170252Y-122637691D01*
X113001104Y-122825548D01*
X112994956Y-122833589D01*
X112858019Y-123046075D01*
X112853236Y-123054994D01*
X112752032Y-123286639D01*
X112748737Y-123296209D01*
X112685872Y-123541052D01*
X112684150Y-123551017D01*
X112678327Y-123614912D01*
X112753273Y-123697000D01*
X114428000Y-123697000D01*
X114428000Y-125370741D01*
X114511379Y-125445815D01*
X114596504Y-125436869D01*
X114606453Y-125435007D01*
X114850398Y-125368728D01*
X114859920Y-125365300D01*
X115005001Y-125299489D01*
X115005001Y-128402062D01*
X114771897Y-128360959D01*
X114760936Y-128360000D01*
X114521064Y-128360000D01*
X114510103Y-128360959D01*
X114273874Y-128402613D01*
X114263247Y-128405460D01*
X114037840Y-128487502D01*
X114027868Y-128492152D01*
X113794397Y-128626947D01*
X113778177Y-128750156D01*
X114822020Y-129794000D01*
X114551905Y-130064115D01*
X113778177Y-130837844D01*
X113794397Y-130961053D01*
X113972014Y-131063601D01*
X113950414Y-131085201D01*
X113341940Y-131085201D01*
X113425590Y-131015010D01*
X113439761Y-130998121D01*
X113540359Y-130823880D01*
X113547900Y-130803163D01*
X113574235Y-130653806D01*
X113597156Y-130656823D01*
X114407790Y-129846191D01*
X114407790Y-129741809D01*
X113597156Y-128931177D01*
X113571358Y-128934573D01*
X113505863Y-128690142D01*
X113493120Y-128665662D01*
X113362010Y-128509410D01*
X113345121Y-128495239D01*
X113170880Y-128394641D01*
X113150163Y-128387100D01*
X112957462Y-128353122D01*
X112946501Y-128352163D01*
X111332742Y-128352163D01*
X111316366Y-128354319D01*
X111037142Y-128429137D01*
X111012662Y-128441880D01*
X110856410Y-128572990D01*
X110842239Y-128589879D01*
X110741641Y-128764120D01*
X110734100Y-128784837D01*
X110700122Y-128977538D01*
X110699163Y-128988499D01*
X110699163Y-129334104D01*
X110662837Y-129300229D01*
X110654721Y-129293819D01*
X110444332Y-129154036D01*
X110435278Y-129149038D01*
X110204883Y-129045495D01*
X110195134Y-129042043D01*
X109950923Y-128977519D01*
X109940742Y-128975706D01*
X109874902Y-128969482D01*
X109792500Y-129044461D01*
X109792500Y-130684000D01*
X109536500Y-130684000D01*
X109536500Y-129040957D01*
X109440684Y-128965286D01*
X109171013Y-129029531D01*
X109161183Y-129032743D01*
X108928327Y-129130627D01*
X108919154Y-129135402D01*
X108705412Y-129270003D01*
X108697142Y-129276212D01*
X108660423Y-129308812D01*
X108654563Y-129286942D01*
X108641820Y-129262462D01*
X108510710Y-129106210D01*
X108493821Y-129092039D01*
X108319580Y-128991441D01*
X108298863Y-128983900D01*
X108106162Y-128949922D01*
X108095201Y-128948963D01*
X106994144Y-128948963D01*
X106997028Y-128929662D01*
X107005826Y-128906194D01*
X107009681Y-128888659D01*
X107016135Y-128801819D01*
X107019306Y-128780600D01*
X107019999Y-128771274D01*
X107019999Y-128749822D01*
X107025882Y-128670652D01*
X107024661Y-128652741D01*
X107019999Y-128630901D01*
X107019999Y-124146085D01*
X107023795Y-124129309D01*
X107025235Y-124111414D01*
X107019999Y-124027014D01*
X107019999Y-123998720D01*
X107019362Y-123989778D01*
X107016411Y-123969172D01*
X107011699Y-123893225D01*
X107008059Y-123875645D01*
X106999701Y-123852493D01*
X106996211Y-123828121D01*
X106991172Y-123810890D01*
X106959670Y-123741605D01*
X106933763Y-123669842D01*
X106925103Y-123653675D01*
X106911064Y-123634701D01*
X106900690Y-123611886D01*
X106891018Y-123596761D01*
X106834174Y-123530791D01*
X106821412Y-123513544D01*
X106815308Y-123506461D01*
X106806560Y-123497713D01*
X106826541Y-123384397D01*
X106827500Y-123373436D01*
X106827500Y-123133564D01*
X106826541Y-123122603D01*
X106784887Y-122886374D01*
X106782040Y-122875747D01*
X106699998Y-122650340D01*
X106695348Y-122640368D01*
X106575412Y-122432632D01*
X106569101Y-122423619D01*
X106414913Y-122239866D01*
X106407134Y-122232087D01*
X106223381Y-122077899D01*
X106214368Y-122071588D01*
X106006632Y-121951652D01*
X105996660Y-121947002D01*
X105771253Y-121864960D01*
X105760626Y-121862113D01*
X105524397Y-121820459D01*
X105513436Y-121819500D01*
X105273564Y-121819500D01*
X105262603Y-121820459D01*
X105026374Y-121862113D01*
X105015747Y-121864960D01*
X104790340Y-121947002D01*
X104780368Y-121951652D01*
X104572632Y-122071588D01*
X104563619Y-122077899D01*
X104379866Y-122232087D01*
X104372087Y-122239866D01*
X104217899Y-122423619D01*
X104211588Y-122432632D01*
X104091652Y-122640368D01*
X104087002Y-122650340D01*
X104004960Y-122875747D01*
X104002113Y-122886374D01*
X103960459Y-123122603D01*
X103959500Y-123133564D01*
X103959500Y-123373436D01*
X103960459Y-123384397D01*
X104002113Y-123620626D01*
X104004960Y-123631253D01*
X104087002Y-123856660D01*
X104091652Y-123866632D01*
X104211588Y-124074368D01*
X104217899Y-124083381D01*
X104372087Y-124267134D01*
X104379866Y-124274913D01*
X104563619Y-124429101D01*
X104572632Y-124435412D01*
X104780368Y-124555348D01*
X104790340Y-124559998D01*
X105015747Y-124642040D01*
X105026374Y-124644887D01*
X105262603Y-124686541D01*
X105273564Y-124687500D01*
X105367000Y-124687500D01*
X105367000Y-125151495D01*
X105366014Y-125150377D01*
X105184174Y-124974776D01*
X105176353Y-124968351D01*
X104968775Y-124824081D01*
X104960028Y-124818990D01*
X104732056Y-124709764D01*
X104722607Y-124706137D01*
X104480103Y-124634765D01*
X104470196Y-124632695D01*
X104219402Y-124601011D01*
X104209290Y-124600552D01*
X103956656Y-124609374D01*
X103946601Y-124610538D01*
X103698628Y-124659639D01*
X103688889Y-124662394D01*
X103451956Y-124750508D01*
X103442783Y-124754786D01*
X103222984Y-124879649D01*
X103214613Y-124885338D01*
X103017606Y-125043737D01*
X103010252Y-125050691D01*
X102841104Y-125238548D01*
X102834956Y-125246589D01*
X102778251Y-125334578D01*
X102704622Y-125243002D01*
X102697256Y-125235280D01*
X102510303Y-125069878D01*
X102501740Y-125063507D01*
X102289591Y-124931970D01*
X102280078Y-124927133D01*
X102048800Y-124833221D01*
X102038608Y-124830056D01*
X101794813Y-124776454D01*
X101784234Y-124775052D01*
X101534892Y-124763294D01*
X101524228Y-124763694D01*
X101276470Y-124794114D01*
X101266025Y-124796306D01*
X101026935Y-124868037D01*
X101017009Y-124871957D01*
X100793423Y-124982946D01*
X100784300Y-124988482D01*
X100582611Y-125135556D01*
X100574550Y-125142551D01*
X100535074Y-125183145D01*
X100512163Y-125097642D01*
X100499420Y-125073162D01*
X100368310Y-124916910D01*
X100351421Y-124902739D01*
X100177180Y-124802141D01*
X100156463Y-124794600D01*
X99963762Y-124760622D01*
X99952801Y-124759663D01*
X98139042Y-124759663D01*
X98122666Y-124761819D01*
X97843442Y-124836637D01*
X97818962Y-124849380D01*
X97662710Y-124980490D01*
X97648539Y-124997379D01*
X97547941Y-125171620D01*
X97540400Y-125192337D01*
X97506422Y-125385038D01*
X97505463Y-125395999D01*
X97505463Y-126911753D01*
X97477804Y-126740981D01*
X97475390Y-126731152D01*
X97395597Y-126491287D01*
X97391642Y-126481971D01*
X97274527Y-126257949D01*
X97269134Y-126249384D01*
X97117708Y-126046969D01*
X97111014Y-126039377D01*
X96987497Y-125920098D01*
X97087968Y-125827061D01*
X97094819Y-125819610D01*
X97250451Y-125620411D01*
X97256023Y-125611961D01*
X97377804Y-125390441D01*
X97381953Y-125381209D01*
X97466751Y-125143068D01*
X97469370Y-125133292D01*
X97515063Y-124884332D01*
X97516097Y-124873599D01*
X97519082Y-124588596D01*
X97518273Y-124577844D01*
X97477804Y-124327981D01*
X97475390Y-124318152D01*
X97395597Y-124078287D01*
X97391642Y-124068971D01*
X97274527Y-123844949D01*
X97269134Y-123836384D01*
X97117708Y-123633969D01*
X97111014Y-123626377D01*
X96929174Y-123450776D01*
X96921353Y-123444351D01*
X96877426Y-123413821D01*
X97043160Y-123353498D01*
X97053132Y-123348848D01*
X97260868Y-123228912D01*
X97269881Y-123222601D01*
X97453634Y-123068413D01*
X97461413Y-123060634D01*
X97615601Y-122876881D01*
X97621912Y-122867868D01*
X97741848Y-122660132D01*
X97746498Y-122650160D01*
X97828540Y-122424753D01*
X97831387Y-122414126D01*
X97873041Y-122177897D01*
X97874000Y-122166936D01*
X97874000Y-121927064D01*
X97873041Y-121916103D01*
X97831387Y-121679874D01*
X97828540Y-121669247D01*
X97746498Y-121443840D01*
X97741848Y-121433868D01*
X97621912Y-121226132D01*
X97615601Y-121217119D01*
X97461413Y-121033366D01*
X97453634Y-121025587D01*
X97269881Y-120871399D01*
X97260868Y-120865088D01*
X97053132Y-120745152D01*
X97043160Y-120740502D01*
X96817753Y-120658460D01*
X96807126Y-120655613D01*
X96570897Y-120613959D01*
X96559936Y-120613000D01*
X96323445Y-120613000D01*
X96452968Y-120493061D01*
X96459819Y-120485610D01*
X96615451Y-120286411D01*
X96621023Y-120277961D01*
X96742804Y-120056441D01*
X96746953Y-120047209D01*
X96801129Y-119895064D01*
X98896000Y-119895064D01*
X98896000Y-120134936D01*
X98896959Y-120145897D01*
X98938613Y-120382126D01*
X98941460Y-120392753D01*
X99023502Y-120618160D01*
X99028152Y-120628132D01*
X99148088Y-120835868D01*
X99154399Y-120844881D01*
X99308587Y-121028634D01*
X99316366Y-121036413D01*
X99500119Y-121190601D01*
X99509132Y-121196912D01*
X99716868Y-121316848D01*
X99726840Y-121321498D01*
X99952247Y-121403540D01*
X99962874Y-121406387D01*
X100199103Y-121448041D01*
X100210064Y-121449000D01*
X100449936Y-121449000D01*
X100460897Y-121448041D01*
X100697126Y-121406387D01*
X100707753Y-121403540D01*
X100933160Y-121321498D01*
X100943132Y-121316848D01*
X101150868Y-121196912D01*
X101159881Y-121190601D01*
X101343634Y-121036413D01*
X101351413Y-121028634D01*
X101505601Y-120844881D01*
X101511912Y-120835868D01*
X101631848Y-120628132D01*
X101636498Y-120618160D01*
X101718540Y-120392753D01*
X101721387Y-120382126D01*
X101763041Y-120145897D01*
X101764000Y-120134936D01*
X101764000Y-119895064D01*
X101763041Y-119884103D01*
X101721387Y-119647874D01*
X101718540Y-119637247D01*
X101636498Y-119411840D01*
X101631848Y-119401868D01*
X101511912Y-119194132D01*
X101505601Y-119185119D01*
X101351413Y-119001366D01*
X101343634Y-118993587D01*
X101159881Y-118839399D01*
X101150868Y-118833088D01*
X100943132Y-118713152D01*
X100933160Y-118708502D01*
X100707753Y-118626460D01*
X100697126Y-118623613D01*
X100460897Y-118581959D01*
X100449936Y-118581000D01*
X100210064Y-118581000D01*
X100199103Y-118581959D01*
X99962874Y-118623613D01*
X99952247Y-118626460D01*
X99726840Y-118708502D01*
X99716868Y-118713152D01*
X99509132Y-118833088D01*
X99500119Y-118839399D01*
X99316366Y-118993587D01*
X99308587Y-119001366D01*
X99154399Y-119185119D01*
X99148088Y-119194132D01*
X99028152Y-119401868D01*
X99023502Y-119411840D01*
X98941460Y-119637247D01*
X98938613Y-119647874D01*
X98896959Y-119884103D01*
X98896000Y-119895064D01*
X96801129Y-119895064D01*
X96831751Y-119809069D01*
X96834370Y-119799292D01*
X96871188Y-119598693D01*
X96795626Y-119508000D01*
X95451809Y-119508000D01*
X95378000Y-119581809D01*
X95378000Y-120925741D01*
X95458730Y-120998430D01*
X95426366Y-121025587D01*
X95418587Y-121033366D01*
X95264399Y-121217119D01*
X95258088Y-121226132D01*
X95138152Y-121433868D01*
X95133502Y-121443840D01*
X95051460Y-121669247D01*
X95048613Y-121679874D01*
X95006959Y-121916103D01*
X95006000Y-121927064D01*
X95006000Y-122166936D01*
X95006959Y-122177897D01*
X95048613Y-122414126D01*
X95051460Y-122424753D01*
X95133502Y-122650160D01*
X95138152Y-122660132D01*
X95258088Y-122867868D01*
X95264399Y-122876881D01*
X95418587Y-123060634D01*
X95426366Y-123068413D01*
X95494482Y-123125569D01*
X95443628Y-123135639D01*
X95433889Y-123138394D01*
X95196956Y-123226508D01*
X95187783Y-123230786D01*
X94967984Y-123355649D01*
X94959613Y-123361338D01*
X94762606Y-123519737D01*
X94755252Y-123526691D01*
X94586104Y-123714548D01*
X94579956Y-123722589D01*
X94443019Y-123935075D01*
X94438236Y-123943994D01*
X94337032Y-124175639D01*
X94333737Y-124185209D01*
X94270871Y-124430056D01*
X94269148Y-124440030D01*
X94246238Y-124691777D01*
X94246132Y-124701898D01*
X94263766Y-124954071D01*
X94265279Y-124964078D01*
X94323004Y-125210187D01*
X94326098Y-125219824D01*
X94422428Y-125453538D01*
X94427023Y-125462556D01*
X94559480Y-125677862D01*
X94565458Y-125686030D01*
X94730634Y-125877390D01*
X94737841Y-125884497D01*
X94779318Y-125919300D01*
X94762606Y-125932737D01*
X94755252Y-125939691D01*
X94586104Y-126127548D01*
X94579956Y-126135589D01*
X94443019Y-126348075D01*
X94438236Y-126356994D01*
X94337032Y-126588639D01*
X94333737Y-126598209D01*
X94270871Y-126843056D01*
X94269148Y-126853030D01*
X94246238Y-127104777D01*
X94246132Y-127114898D01*
X94263766Y-127367071D01*
X94265279Y-127377078D01*
X94323004Y-127623187D01*
X94326098Y-127632824D01*
X94422428Y-127866538D01*
X94427023Y-127875556D01*
X94559480Y-128090862D01*
X94565458Y-128099030D01*
X94730634Y-128290390D01*
X94737841Y-128297497D01*
X94931489Y-128459986D01*
X94939739Y-128465849D01*
X95156873Y-128595287D01*
X95165955Y-128599756D01*
X95400991Y-128692813D01*
X95410670Y-128695772D01*
X95657561Y-128750054D01*
X95667589Y-128751428D01*
X95919983Y-128765539D01*
X95930101Y-128765292D01*
X96181504Y-128738869D01*
X96191453Y-128737007D01*
X96435398Y-128670728D01*
X96444920Y-128667300D01*
X96675131Y-128562873D01*
X96683983Y-128557966D01*
X96894536Y-128418074D01*
X96902489Y-128411815D01*
X97087968Y-128240061D01*
X97094819Y-128232610D01*
X97250451Y-128033411D01*
X97256023Y-128024961D01*
X97377804Y-127803441D01*
X97381953Y-127794209D01*
X97466751Y-127556068D01*
X97469370Y-127546292D01*
X97515063Y-127297332D01*
X97516097Y-127286599D01*
X97516388Y-127258859D01*
X97582437Y-127505359D01*
X97595180Y-127529839D01*
X97726290Y-127686090D01*
X97743179Y-127700261D01*
X97917420Y-127800859D01*
X97938137Y-127808400D01*
X98130838Y-127842378D01*
X98141799Y-127843337D01*
X99955558Y-127843337D01*
X99971934Y-127841181D01*
X100251159Y-127766363D01*
X100275639Y-127753620D01*
X100431890Y-127622510D01*
X100446061Y-127605621D01*
X100545521Y-127433350D01*
X100552487Y-127440794D01*
X100560412Y-127447942D01*
X100759241Y-127598861D01*
X100768257Y-127604571D01*
X100989671Y-127719832D01*
X100999520Y-127723942D01*
X101237189Y-127800249D01*
X101247590Y-127802640D01*
X101494717Y-127837812D01*
X101505372Y-127838417D01*
X101754893Y-127831448D01*
X101765498Y-127830249D01*
X102010277Y-127781337D01*
X102020528Y-127778368D01*
X102253567Y-127688913D01*
X102263171Y-127684260D01*
X102477806Y-127556819D01*
X102486488Y-127550614D01*
X102676583Y-127388831D01*
X102684096Y-127381252D01*
X102823913Y-127214033D01*
X102985634Y-127401390D01*
X102992841Y-127408497D01*
X103186489Y-127570986D01*
X103194739Y-127576849D01*
X103411873Y-127706287D01*
X103420955Y-127710756D01*
X103655991Y-127803813D01*
X103665670Y-127806772D01*
X103912561Y-127861054D01*
X103922589Y-127862428D01*
X104174983Y-127876539D01*
X104185101Y-127876292D01*
X104436504Y-127849869D01*
X104446453Y-127848007D01*
X104690398Y-127781728D01*
X104699920Y-127778300D01*
X104930131Y-127673873D01*
X104938983Y-127668966D01*
X105149536Y-127529074D01*
X105157489Y-127522815D01*
X105342968Y-127351061D01*
X105349819Y-127343610D01*
X105366999Y-127321621D01*
X105366999Y-128376055D01*
X104511185Y-129231869D01*
X104413723Y-129206119D01*
X104403542Y-129204306D01*
X104152070Y-129180535D01*
X104141729Y-129180408D01*
X103889751Y-129198029D01*
X103879529Y-129199593D01*
X103633813Y-129258131D01*
X103623983Y-129261343D01*
X103391127Y-129359227D01*
X103381954Y-129364002D01*
X103168212Y-129498603D01*
X103159942Y-129504812D01*
X102971054Y-129672514D01*
X102963909Y-129679991D01*
X102856927Y-129812103D01*
X102777331Y-129708746D01*
X102770372Y-129701097D01*
X102585637Y-129528829D01*
X102577521Y-129522419D01*
X102367132Y-129382636D01*
X102358078Y-129377638D01*
X102127683Y-129274095D01*
X102117934Y-129270643D01*
X101873723Y-129206119D01*
X101863542Y-129204306D01*
X101612070Y-129180535D01*
X101601729Y-129180408D01*
X101349751Y-129198029D01*
X101339529Y-129199593D01*
X101093813Y-129258131D01*
X101083983Y-129261343D01*
X100851127Y-129359227D01*
X100841954Y-129364002D01*
X100628212Y-129498603D01*
X100619942Y-129504812D01*
X100431054Y-129672514D01*
X100423909Y-129679991D01*
X100316927Y-129812103D01*
X100237331Y-129708746D01*
X100230372Y-129701097D01*
X100045637Y-129528829D01*
X100037521Y-129522419D01*
X99827132Y-129382636D01*
X99818078Y-129377638D01*
X99587683Y-129274095D01*
X99577934Y-129270643D01*
X99333723Y-129206119D01*
X99323542Y-129204306D01*
X99257702Y-129198082D01*
X99175300Y-129273061D01*
X99175300Y-130912600D01*
X98919300Y-130912600D01*
X98919300Y-129269557D01*
X98823484Y-129193886D01*
X98553813Y-129258131D01*
X98543983Y-129261343D01*
X98311127Y-129359227D01*
X98301954Y-129364002D01*
X98088212Y-129498603D01*
X98079942Y-129504812D01*
X98043223Y-129537412D01*
X98037363Y-129515542D01*
X98024620Y-129491062D01*
X97893510Y-129334810D01*
X97876621Y-129320639D01*
X97702380Y-129220041D01*
X97681663Y-129212500D01*
X97488962Y-129178522D01*
X97478001Y-129177563D01*
X95533842Y-129177563D01*
X95517466Y-129179719D01*
X95238242Y-129254537D01*
X95213762Y-129267280D01*
X95057510Y-129398390D01*
X95043339Y-129415279D01*
X94942741Y-129589520D01*
X94935200Y-129610237D01*
X94901222Y-129802938D01*
X94900263Y-129813899D01*
X94900263Y-131758058D01*
X94902419Y-131774434D01*
X94977237Y-132053659D01*
X94989980Y-132078139D01*
X94992381Y-132081000D01*
X88645000Y-132081000D01*
X88645000Y-119968076D01*
X88707428Y-120119538D01*
X88712023Y-120128556D01*
X88844480Y-120343862D01*
X88850458Y-120352030D01*
X89015634Y-120543390D01*
X89022841Y-120550497D01*
X89216489Y-120712986D01*
X89224739Y-120718849D01*
X89441873Y-120848287D01*
X89450955Y-120852756D01*
X89685991Y-120945813D01*
X89695670Y-120948772D01*
X89942561Y-121003054D01*
X89952589Y-121004428D01*
X90204983Y-121018539D01*
X90215101Y-121018292D01*
X90466504Y-120991869D01*
X90466562Y-120991858D01*
X90426366Y-121025587D01*
X90418587Y-121033366D01*
X90264399Y-121217119D01*
X90258088Y-121226132D01*
X90138152Y-121433868D01*
X90133502Y-121443840D01*
X90051460Y-121669247D01*
X90048613Y-121679874D01*
X90006959Y-121916103D01*
X90006000Y-121927064D01*
X90006000Y-122166936D01*
X90006959Y-122177897D01*
X90048613Y-122414126D01*
X90051460Y-122424753D01*
X90133502Y-122650160D01*
X90138152Y-122660132D01*
X90258088Y-122867868D01*
X90264399Y-122876881D01*
X90418587Y-123060634D01*
X90426366Y-123068413D01*
X90479208Y-123112753D01*
X90363628Y-123135639D01*
X90353889Y-123138394D01*
X90116956Y-123226508D01*
X90107783Y-123230786D01*
X89887984Y-123355649D01*
X89879613Y-123361338D01*
X89682606Y-123519737D01*
X89675252Y-123526691D01*
X89506104Y-123714548D01*
X89499956Y-123722589D01*
X89363019Y-123935075D01*
X89358236Y-123943994D01*
X89257032Y-124175639D01*
X89253737Y-124185209D01*
X89190871Y-124430056D01*
X89189148Y-124440030D01*
X89166238Y-124691777D01*
X89166132Y-124701898D01*
X89183766Y-124954071D01*
X89185279Y-124964078D01*
X89243004Y-125210187D01*
X89246098Y-125219824D01*
X89342428Y-125453538D01*
X89347023Y-125462556D01*
X89479480Y-125677862D01*
X89485458Y-125686030D01*
X89650634Y-125877390D01*
X89657841Y-125884497D01*
X89699318Y-125919300D01*
X89682606Y-125932737D01*
X89675252Y-125939691D01*
X89506104Y-126127548D01*
X89499956Y-126135589D01*
X89363019Y-126348075D01*
X89358236Y-126356994D01*
X89257032Y-126588639D01*
X89253737Y-126598209D01*
X89190871Y-126843056D01*
X89189148Y-126853030D01*
X89166238Y-127104777D01*
X89166132Y-127114898D01*
X89183766Y-127367071D01*
X89185279Y-127377078D01*
X89243004Y-127623187D01*
X89246098Y-127632824D01*
X89342428Y-127866538D01*
X89347023Y-127875556D01*
X89479480Y-128090862D01*
X89485458Y-128099030D01*
X89650634Y-128290390D01*
X89657841Y-128297497D01*
X89851489Y-128459986D01*
X89859739Y-128465849D01*
X90076873Y-128595287D01*
X90085955Y-128599756D01*
X90320991Y-128692813D01*
X90330670Y-128695772D01*
X90577561Y-128750054D01*
X90587589Y-128751428D01*
X90839983Y-128765539D01*
X90850101Y-128765292D01*
X91101504Y-128738869D01*
X91111453Y-128737007D01*
X91355398Y-128670728D01*
X91364920Y-128667300D01*
X91595131Y-128562873D01*
X91603983Y-128557966D01*
X91814536Y-128418074D01*
X91822489Y-128411815D01*
X92007968Y-128240061D01*
X92014819Y-128232610D01*
X92170451Y-128033411D01*
X92176023Y-128024961D01*
X92297804Y-127803441D01*
X92301953Y-127794209D01*
X92386751Y-127556068D01*
X92389370Y-127546292D01*
X92435063Y-127297332D01*
X92436097Y-127286599D01*
X92439082Y-127001596D01*
X92438273Y-126990844D01*
X92397804Y-126740981D01*
X92395390Y-126731152D01*
X92315597Y-126491287D01*
X92311642Y-126481971D01*
X92194527Y-126257949D01*
X92189134Y-126249384D01*
X92037708Y-126046969D01*
X92031014Y-126039377D01*
X91907497Y-125920098D01*
X92007968Y-125827061D01*
X92014819Y-125819610D01*
X92170451Y-125620411D01*
X92176023Y-125611961D01*
X92297804Y-125390441D01*
X92301953Y-125381209D01*
X92386751Y-125143068D01*
X92389370Y-125133292D01*
X92435063Y-124884332D01*
X92436097Y-124873599D01*
X92439082Y-124588596D01*
X92438273Y-124577844D01*
X92397804Y-124327981D01*
X92395390Y-124318152D01*
X92315597Y-124078287D01*
X92311642Y-124068971D01*
X92194527Y-123844949D01*
X92189134Y-123836384D01*
X92037708Y-123633969D01*
X92031014Y-123626377D01*
X91849174Y-123450776D01*
X91841353Y-123444351D01*
X91824922Y-123432931D01*
X92043160Y-123353498D01*
X92053132Y-123348848D01*
X92260868Y-123228912D01*
X92269881Y-123222601D01*
X92453634Y-123068413D01*
X92461413Y-123060634D01*
X92615601Y-122876881D01*
X92621912Y-122867868D01*
X92741848Y-122660132D01*
X92746498Y-122650160D01*
X92828540Y-122424753D01*
X92831387Y-122414126D01*
X92873041Y-122177897D01*
X92874000Y-122166936D01*
X92874000Y-121927064D01*
X92873041Y-121916103D01*
X92831387Y-121679874D01*
X92828540Y-121669247D01*
X92746498Y-121443840D01*
X92741848Y-121433868D01*
X92621912Y-121226132D01*
X92615601Y-121217119D01*
X92461413Y-121033366D01*
X92453634Y-121025587D01*
X92269881Y-120871399D01*
X92260868Y-120865088D01*
X92053132Y-120745152D01*
X92043160Y-120740502D01*
X91817753Y-120658460D01*
X91807126Y-120655613D01*
X91570897Y-120613959D01*
X91559936Y-120613000D01*
X91320064Y-120613000D01*
X91309103Y-120613959D01*
X91226722Y-120628485D01*
X91372968Y-120493061D01*
X91379819Y-120485610D01*
X91535451Y-120286411D01*
X91541023Y-120277961D01*
X91662804Y-120056441D01*
X91666953Y-120047209D01*
X91751751Y-119809068D01*
X91754370Y-119799292D01*
X91790310Y-119603471D01*
X93624039Y-119603471D01*
X93688004Y-119876187D01*
X93691098Y-119885824D01*
X93787428Y-120119538D01*
X93792023Y-120128556D01*
X93924480Y-120343862D01*
X93930458Y-120352030D01*
X94095634Y-120543390D01*
X94102841Y-120550497D01*
X94296489Y-120712986D01*
X94304739Y-120718849D01*
X94521873Y-120848287D01*
X94530955Y-120852756D01*
X94765991Y-120945813D01*
X94775670Y-120948772D01*
X95027904Y-121004229D01*
X95122000Y-120928574D01*
X95122000Y-119581809D01*
X95048191Y-119508000D01*
X93699708Y-119508000D01*
X93624039Y-119603471D01*
X91790310Y-119603471D01*
X91800063Y-119550332D01*
X91801097Y-119539599D01*
X91804082Y-119254596D01*
X91803273Y-119243844D01*
X91762804Y-118993981D01*
X91760390Y-118984152D01*
X91680597Y-118744287D01*
X91676642Y-118734971D01*
X91559527Y-118510949D01*
X91554134Y-118502384D01*
X91402708Y-118299969D01*
X91396014Y-118292377D01*
X91214173Y-118116776D01*
X91206352Y-118110351D01*
X91204500Y-118109064D01*
X91372968Y-117953061D01*
X91379819Y-117945610D01*
X91535451Y-117746411D01*
X91541023Y-117737961D01*
X91662804Y-117516441D01*
X91666953Y-117507209D01*
X91751751Y-117269068D01*
X91754370Y-117259292D01*
X91800063Y-117010332D01*
X91801097Y-116999599D01*
X91804082Y-116714596D01*
X91803273Y-116703844D01*
X91762804Y-116453981D01*
X91760390Y-116444152D01*
X91680597Y-116204287D01*
X91676642Y-116194971D01*
X91559527Y-115970949D01*
X91554134Y-115962384D01*
X91402708Y-115759969D01*
X91396014Y-115752377D01*
X91214173Y-115576776D01*
X91206352Y-115570351D01*
X91204500Y-115569064D01*
X91372968Y-115413061D01*
X91379819Y-115405610D01*
X91535451Y-115206411D01*
X91541023Y-115197961D01*
X91662804Y-114976441D01*
X91666953Y-114967209D01*
X91751751Y-114729068D01*
X91754370Y-114719292D01*
X91800063Y-114470332D01*
X91801097Y-114459599D01*
X91804082Y-114174596D01*
X91803273Y-114163844D01*
X91762804Y-113913981D01*
X91760390Y-113904152D01*
X91680597Y-113664287D01*
X91676642Y-113654971D01*
X91559527Y-113430949D01*
X91554134Y-113422384D01*
X91402708Y-113219969D01*
X91396014Y-113212377D01*
X91214173Y-113036776D01*
X91206352Y-113030351D01*
X91204500Y-113029064D01*
X91372968Y-112873061D01*
X91379819Y-112865610D01*
X91535451Y-112666411D01*
X91541023Y-112657961D01*
X91662804Y-112436441D01*
X91666953Y-112427209D01*
X91751751Y-112189068D01*
X91754370Y-112179292D01*
X91786327Y-112005173D01*
X92060103Y-112278950D01*
X92069286Y-112293504D01*
X92080921Y-112307175D01*
X92144328Y-112363174D01*
X92164311Y-112383158D01*
X92171086Y-112389032D01*
X92187728Y-112401503D01*
X92244775Y-112451886D01*
X92259781Y-112461743D01*
X92282065Y-112472205D01*
X92301761Y-112486967D01*
X92317509Y-112495589D01*
X92388765Y-112522302D01*
X92457840Y-112554732D01*
X92475394Y-112560040D01*
X92498742Y-112563530D01*
X92522208Y-112572326D01*
X92539741Y-112576181D01*
X92626569Y-112582634D01*
X92647805Y-112585807D01*
X92657128Y-112586500D01*
X92678592Y-112586500D01*
X92757748Y-112592382D01*
X92775660Y-112591161D01*
X92797494Y-112586500D01*
X93839974Y-112586500D01*
X93924480Y-112723863D01*
X93930458Y-112732030D01*
X94095634Y-112923390D01*
X94102841Y-112930497D01*
X94221610Y-113030155D01*
X94127606Y-113105737D01*
X94120252Y-113112691D01*
X93951104Y-113300548D01*
X93944956Y-113308589D01*
X93808019Y-113521075D01*
X93803236Y-113529994D01*
X93702032Y-113761639D01*
X93698737Y-113771209D01*
X93635871Y-114016056D01*
X93634148Y-114026030D01*
X93611238Y-114277777D01*
X93611132Y-114287898D01*
X93628766Y-114540071D01*
X93630279Y-114550078D01*
X93688004Y-114796187D01*
X93691098Y-114805824D01*
X93787428Y-115039538D01*
X93792023Y-115048556D01*
X93924480Y-115263862D01*
X93930458Y-115272030D01*
X94095634Y-115463390D01*
X94102841Y-115470497D01*
X94221610Y-115570155D01*
X94127606Y-115645737D01*
X94120252Y-115652691D01*
X93951104Y-115840548D01*
X93944956Y-115848589D01*
X93808019Y-116061075D01*
X93803236Y-116069994D01*
X93702032Y-116301639D01*
X93698737Y-116311209D01*
X93635871Y-116556056D01*
X93634148Y-116566030D01*
X93611238Y-116817777D01*
X93611132Y-116827898D01*
X93628766Y-117080071D01*
X93630279Y-117090078D01*
X93688004Y-117336187D01*
X93691098Y-117345824D01*
X93787428Y-117579538D01*
X93792023Y-117588556D01*
X93924480Y-117803862D01*
X93930458Y-117812030D01*
X94095634Y-118003390D01*
X94102841Y-118010497D01*
X94221610Y-118110155D01*
X94127606Y-118185737D01*
X94120252Y-118192691D01*
X93951104Y-118380548D01*
X93944956Y-118388589D01*
X93808019Y-118601075D01*
X93803236Y-118609994D01*
X93702032Y-118841639D01*
X93698737Y-118851209D01*
X93635872Y-119096052D01*
X93634150Y-119106017D01*
X93628327Y-119169912D01*
X93703273Y-119252000D01*
X96794765Y-119252000D01*
X96870233Y-119163326D01*
X96842804Y-118993981D01*
X96840390Y-118984152D01*
X96760597Y-118744287D01*
X96756642Y-118734971D01*
X96639527Y-118510949D01*
X96634134Y-118502384D01*
X96482708Y-118299969D01*
X96476014Y-118292377D01*
X96294173Y-118116776D01*
X96286352Y-118110351D01*
X96284500Y-118109064D01*
X96452968Y-117953061D01*
X96459819Y-117945610D01*
X96615451Y-117746411D01*
X96621023Y-117737961D01*
X96742804Y-117516441D01*
X96746953Y-117507209D01*
X96749953Y-117498785D01*
X96776042Y-117554734D01*
X96781543Y-117564262D01*
X96919129Y-117760755D01*
X96926202Y-117769183D01*
X97095817Y-117938798D01*
X97104245Y-117945871D01*
X97300738Y-118083457D01*
X97310266Y-118088958D01*
X97527665Y-118190333D01*
X97538004Y-118194096D01*
X97769704Y-118256180D01*
X97780539Y-118258090D01*
X97959652Y-118273760D01*
X97965146Y-118274000D01*
X98223191Y-118274000D01*
X98297000Y-118200191D01*
X98297000Y-117041809D01*
X98553000Y-117041809D01*
X98553000Y-118200191D01*
X98626809Y-118274000D01*
X98884854Y-118274000D01*
X98890348Y-118273760D01*
X99069461Y-118258090D01*
X99080296Y-118256180D01*
X99311996Y-118194096D01*
X99322335Y-118190333D01*
X99539734Y-118088958D01*
X99549262Y-118083457D01*
X99745755Y-117945871D01*
X99754183Y-117938798D01*
X99923798Y-117769183D01*
X99930871Y-117760755D01*
X100068457Y-117564262D01*
X100073958Y-117554734D01*
X100175333Y-117337335D01*
X100179096Y-117326996D01*
X100248871Y-117066592D01*
X100173218Y-116968000D01*
X98626809Y-116968000D01*
X98553000Y-117041809D01*
X98297000Y-117041809D01*
X98297000Y-116712000D01*
X100173218Y-116712000D01*
X100248871Y-116613408D01*
X100179096Y-116353004D01*
X100175333Y-116342665D01*
X100073958Y-116125266D01*
X100068457Y-116115738D01*
X99930871Y-115919245D01*
X99923798Y-115910817D01*
X99754183Y-115741202D01*
X99745755Y-115734129D01*
X99549262Y-115596543D01*
X99539734Y-115591042D01*
X99494609Y-115570000D01*
X99539734Y-115548958D01*
X99549262Y-115543457D01*
X99745755Y-115405871D01*
X99754183Y-115398798D01*
X99923798Y-115229183D01*
X99930871Y-115220755D01*
X100068457Y-115024262D01*
X100073958Y-115014734D01*
X100175333Y-114797335D01*
X100179096Y-114786996D01*
X100241180Y-114555296D01*
X100243090Y-114544461D01*
X100263996Y-114305501D01*
X100263996Y-114294499D01*
X100243090Y-114055539D01*
X100241180Y-114044704D01*
X100179096Y-113813004D01*
X100175333Y-113802665D01*
X100073958Y-113585266D01*
X100068457Y-113575738D01*
X99930871Y-113379245D01*
X99923798Y-113370817D01*
X99754183Y-113201202D01*
X99745755Y-113194129D01*
X99549262Y-113056543D01*
X99539734Y-113051042D01*
X99494609Y-113030000D01*
X99539734Y-113008958D01*
X99549262Y-113003457D01*
X99745755Y-112865871D01*
X99754183Y-112858798D01*
X99923798Y-112689183D01*
X99930871Y-112680755D01*
X100068457Y-112484262D01*
X100073958Y-112474734D01*
X100175333Y-112257335D01*
X100179096Y-112246996D01*
X100241180Y-112015296D01*
X100243090Y-112004461D01*
X100263996Y-111765501D01*
X100263996Y-111754499D01*
X100243090Y-111515539D01*
X100241180Y-111504704D01*
X100179096Y-111273004D01*
X100175333Y-111262665D01*
X100073958Y-111045266D01*
X100068457Y-111035738D01*
X99930871Y-110839245D01*
X99923798Y-110830817D01*
X99754183Y-110661202D01*
X99745755Y-110654129D01*
X99724887Y-110639517D01*
X99928859Y-110584863D01*
X99953339Y-110572120D01*
X100109590Y-110441010D01*
X100123761Y-110424121D01*
X100224359Y-110249880D01*
X100231900Y-110229163D01*
X100265878Y-110036462D01*
X100266837Y-110025501D01*
X100266837Y-108411742D01*
X100264681Y-108395366D01*
X100189863Y-108116142D01*
X100177120Y-108091662D01*
X100046010Y-107935410D01*
X100029121Y-107921239D01*
X99854880Y-107820641D01*
X99834163Y-107813100D01*
X99641462Y-107779122D01*
X99630501Y-107778163D01*
X97216742Y-107778163D01*
X97200366Y-107780319D01*
X97122723Y-107801123D01*
X97465786Y-107458061D01*
X97579103Y-107478041D01*
X97590064Y-107479000D01*
X97829936Y-107479000D01*
X97840897Y-107478041D01*
X98077126Y-107436387D01*
X98087753Y-107433540D01*
X98313160Y-107351498D01*
X98323132Y-107346848D01*
X98530868Y-107226912D01*
X98539881Y-107220601D01*
X98723634Y-107066413D01*
X98731413Y-107058634D01*
X98885601Y-106874881D01*
X98891912Y-106865868D01*
X98976849Y-106718753D01*
X103267044Y-111008949D01*
X103276227Y-111023503D01*
X103287863Y-111037175D01*
X103351262Y-111093167D01*
X103371252Y-111113158D01*
X103378026Y-111119031D01*
X103394677Y-111131510D01*
X103451718Y-111181887D01*
X103466724Y-111191744D01*
X103489006Y-111202206D01*
X103508703Y-111216968D01*
X103524451Y-111225590D01*
X103595715Y-111252305D01*
X103664782Y-111284732D01*
X103682337Y-111290041D01*
X103705681Y-111293529D01*
X103729149Y-111302327D01*
X103746683Y-111306182D01*
X103833528Y-111312636D01*
X103854747Y-111315807D01*
X103864070Y-111316500D01*
X103885530Y-111316500D01*
X103964690Y-111322382D01*
X103982601Y-111321161D01*
X104004436Y-111316500D01*
X104279249Y-111316500D01*
X104228820Y-111504704D01*
X104226910Y-111515539D01*
X104206004Y-111754499D01*
X104206004Y-111765501D01*
X104226910Y-112004461D01*
X104228820Y-112015296D01*
X104290904Y-112246996D01*
X104294667Y-112257335D01*
X104396042Y-112474734D01*
X104401543Y-112484262D01*
X104539129Y-112680755D01*
X104546202Y-112689183D01*
X104715817Y-112858798D01*
X104724245Y-112865871D01*
X104920738Y-113003457D01*
X104930266Y-113008958D01*
X104975391Y-113030000D01*
X104930266Y-113051042D01*
X104920738Y-113056543D01*
X104724245Y-113194129D01*
X104715817Y-113201202D01*
X104546202Y-113370817D01*
X104539129Y-113379245D01*
X104401543Y-113575738D01*
X104396042Y-113585266D01*
X104294667Y-113802665D01*
X104290904Y-113813004D01*
X104228820Y-114044704D01*
X104226910Y-114055539D01*
X104206004Y-114294499D01*
X104206004Y-114305501D01*
X104226910Y-114544461D01*
X104228820Y-114555296D01*
X104290904Y-114786996D01*
X104294667Y-114797335D01*
X104396042Y-115014734D01*
X104401543Y-115024262D01*
X104539129Y-115220755D01*
X104546202Y-115229183D01*
X104715817Y-115398798D01*
X104724245Y-115405871D01*
X104920738Y-115543457D01*
X104930266Y-115548958D01*
X104975391Y-115570000D01*
X104930266Y-115591042D01*
X104920738Y-115596543D01*
X104724245Y-115734129D01*
X104715817Y-115741202D01*
X104546202Y-115910817D01*
X104539129Y-115919245D01*
X104401543Y-116115738D01*
X104396042Y-116125266D01*
X104294667Y-116342665D01*
X104290904Y-116353004D01*
X104228820Y-116584704D01*
X104226910Y-116595539D01*
X104206004Y-116834499D01*
X104206004Y-116845501D01*
X104226910Y-117084461D01*
X104228820Y-117095296D01*
X104290904Y-117326996D01*
X104294667Y-117337335D01*
X104396042Y-117554734D01*
X104401543Y-117564262D01*
X104539129Y-117760755D01*
X104546202Y-117769183D01*
X104627586Y-117850567D01*
X100637714Y-121840440D01*
X100524397Y-121820459D01*
X100513436Y-121819500D01*
X100273564Y-121819500D01*
X100262603Y-121820459D01*
X100026374Y-121862113D01*
X100015747Y-121864960D01*
X99790340Y-121947002D01*
X99780368Y-121951652D01*
X99572632Y-122071588D01*
X99563619Y-122077899D01*
X99379866Y-122232087D01*
X99372087Y-122239866D01*
X99217899Y-122423619D01*
X99211588Y-122432632D01*
X99091652Y-122640368D01*
X99087002Y-122650340D01*
X99004960Y-122875747D01*
X99002113Y-122886374D01*
X98960459Y-123122603D01*
X98959500Y-123133564D01*
X98959500Y-123373436D01*
X98960459Y-123384397D01*
X99002113Y-123620626D01*
X99004960Y-123631253D01*
X99087002Y-123856660D01*
X99091652Y-123866632D01*
X99211588Y-124074368D01*
X99217899Y-124083381D01*
X99372087Y-124267134D01*
X99379866Y-124274913D01*
X99563619Y-124429101D01*
X99572632Y-124435412D01*
X99780368Y-124555348D01*
X99790340Y-124559998D01*
X100015747Y-124642040D01*
X100026374Y-124644887D01*
X100262603Y-124686541D01*
X100273564Y-124687500D01*
X100513436Y-124687500D01*
X100524397Y-124686541D01*
X100760626Y-124644887D01*
X100771253Y-124642040D01*
X100996660Y-124559998D01*
X101006632Y-124555348D01*
X101214368Y-124435412D01*
X101223381Y-124429101D01*
X101407134Y-124274913D01*
X101414913Y-124267134D01*
X101569101Y-124083381D01*
X101575412Y-124074368D01*
X101695348Y-123866632D01*
X101699998Y-123856660D01*
X101782040Y-123631253D01*
X101784887Y-123620626D01*
X101826541Y-123384397D01*
X101827500Y-123373436D01*
X101827500Y-123133564D01*
X101826541Y-123122603D01*
X101806560Y-123009285D01*
X104086556Y-120729290D01*
X104148088Y-120835868D01*
X104154399Y-120844881D01*
X104308587Y-121028634D01*
X104316366Y-121036413D01*
X104500119Y-121190601D01*
X104509132Y-121196912D01*
X104716868Y-121316848D01*
X104726840Y-121321498D01*
X104952247Y-121403540D01*
X104962874Y-121406387D01*
X105199103Y-121448041D01*
X105210064Y-121449000D01*
X105449936Y-121449000D01*
X105460897Y-121448041D01*
X105697126Y-121406387D01*
X105707753Y-121403540D01*
X105933160Y-121321498D01*
X105943132Y-121316848D01*
X106150868Y-121196912D01*
X106159881Y-121190601D01*
X106343634Y-121036413D01*
X106351413Y-121028634D01*
X106505601Y-120844881D01*
X106511912Y-120835868D01*
X106631848Y-120628132D01*
X106636498Y-120618160D01*
X106718540Y-120392753D01*
X106721387Y-120382126D01*
X106763041Y-120145897D01*
X106764000Y-120134936D01*
X106764000Y-119895064D01*
X106763041Y-119884103D01*
X106721387Y-119647874D01*
X106718540Y-119637247D01*
X106636498Y-119411840D01*
X106631848Y-119401868D01*
X106511912Y-119194132D01*
X106505601Y-119185119D01*
X106351413Y-119001366D01*
X106343634Y-118993587D01*
X106180869Y-118857010D01*
X107301899Y-118857010D01*
X107318680Y-118860807D01*
X107336576Y-118862247D01*
X107420985Y-118857010D01*
X107449268Y-118857010D01*
X107458209Y-118856373D01*
X107478815Y-118853423D01*
X107554764Y-118848710D01*
X107572344Y-118845069D01*
X107588566Y-118839213D01*
X107598766Y-118985071D01*
X107600279Y-118995078D01*
X107658004Y-119241187D01*
X107661098Y-119250824D01*
X107757428Y-119484538D01*
X107762023Y-119493556D01*
X107894480Y-119708862D01*
X107900458Y-119717030D01*
X108065634Y-119908390D01*
X108072841Y-119915497D01*
X108191610Y-120015155D01*
X108097606Y-120090737D01*
X108090252Y-120097691D01*
X107921104Y-120285548D01*
X107914956Y-120293589D01*
X107778019Y-120506075D01*
X107773236Y-120514994D01*
X107672032Y-120746639D01*
X107668737Y-120756209D01*
X107605871Y-121001056D01*
X107604148Y-121011030D01*
X107581238Y-121262777D01*
X107581132Y-121272898D01*
X107598766Y-121525071D01*
X107600279Y-121535078D01*
X107658004Y-121781187D01*
X107661098Y-121790824D01*
X107757428Y-122024538D01*
X107762023Y-122033556D01*
X107894480Y-122248862D01*
X107900458Y-122257030D01*
X108065634Y-122448390D01*
X108072841Y-122455497D01*
X108191610Y-122555155D01*
X108097606Y-122630737D01*
X108090252Y-122637691D01*
X107921104Y-122825548D01*
X107914956Y-122833589D01*
X107778019Y-123046075D01*
X107773236Y-123054994D01*
X107672032Y-123286639D01*
X107668737Y-123296209D01*
X107605871Y-123541056D01*
X107604148Y-123551030D01*
X107581238Y-123802777D01*
X107581132Y-123812898D01*
X107598766Y-124065071D01*
X107600279Y-124075078D01*
X107658004Y-124321187D01*
X107661098Y-124330824D01*
X107757428Y-124564538D01*
X107762023Y-124573556D01*
X107894480Y-124788862D01*
X107900458Y-124797030D01*
X108065634Y-124988390D01*
X108072841Y-124995497D01*
X108266489Y-125157986D01*
X108274739Y-125163849D01*
X108491873Y-125293287D01*
X108500955Y-125297756D01*
X108735991Y-125390813D01*
X108745670Y-125393772D01*
X108992561Y-125448054D01*
X109002589Y-125449428D01*
X109254983Y-125463539D01*
X109265101Y-125463292D01*
X109516504Y-125436869D01*
X109526453Y-125435007D01*
X109770398Y-125368728D01*
X109779920Y-125365300D01*
X110010131Y-125260873D01*
X110018983Y-125255966D01*
X110125534Y-125185173D01*
X110119122Y-125221538D01*
X110118163Y-125232499D01*
X110118163Y-127246258D01*
X110120319Y-127262634D01*
X110195137Y-127541859D01*
X110207880Y-127566339D01*
X110338990Y-127722590D01*
X110355879Y-127736761D01*
X110530120Y-127837359D01*
X110550837Y-127844900D01*
X110743538Y-127878878D01*
X110754499Y-127879837D01*
X112768258Y-127879837D01*
X112784634Y-127877681D01*
X113063859Y-127802863D01*
X113088339Y-127790120D01*
X113244590Y-127659010D01*
X113258761Y-127642121D01*
X113359359Y-127467880D01*
X113366900Y-127447163D01*
X113400878Y-127254462D01*
X113401837Y-127243501D01*
X113401837Y-125229742D01*
X113399681Y-125213366D01*
X113392434Y-125186320D01*
X113571873Y-125293287D01*
X113580955Y-125297756D01*
X113815991Y-125390813D01*
X113825670Y-125393772D01*
X114077904Y-125449229D01*
X114172000Y-125373574D01*
X114172000Y-124026809D01*
X114098191Y-123953000D01*
X112749708Y-123953000D01*
X112674039Y-124048471D01*
X112738004Y-124321187D01*
X112741098Y-124330824D01*
X112837428Y-124564538D01*
X112842023Y-124573556D01*
X112866262Y-124612956D01*
X112776462Y-124597122D01*
X112765501Y-124596163D01*
X112319800Y-124596163D01*
X112319800Y-110805656D01*
X112326830Y-110752257D01*
X112326830Y-110735741D01*
X112296671Y-110506660D01*
X112292396Y-110490706D01*
X112241129Y-110366936D01*
X112203974Y-110277237D01*
X112195716Y-110262933D01*
X112055057Y-110079622D01*
X112043378Y-110067943D01*
X112000639Y-110035148D01*
X110830021Y-108864531D01*
X110850063Y-108755332D01*
X110851097Y-108744599D01*
X110854082Y-108459596D01*
X110853273Y-108448844D01*
X110812804Y-108198981D01*
X110810390Y-108189152D01*
X110730597Y-107949287D01*
X110726642Y-107939971D01*
X110609527Y-107715949D01*
X110604134Y-107707384D01*
X110452708Y-107504969D01*
X110446014Y-107497377D01*
X110264173Y-107321776D01*
X110256352Y-107315351D01*
X110254500Y-107314064D01*
X110422968Y-107158061D01*
X110429819Y-107150610D01*
X110585451Y-106951411D01*
X110591023Y-106942961D01*
X110712804Y-106721441D01*
X110716953Y-106712209D01*
X110801751Y-106474068D01*
X110804370Y-106464292D01*
X110850063Y-106215332D01*
X110851097Y-106204599D01*
X110854082Y-105919596D01*
X110853273Y-105908844D01*
X110812804Y-105658981D01*
X110810390Y-105649152D01*
X110730597Y-105409287D01*
X110726642Y-105399971D01*
X110609527Y-105175949D01*
X110604134Y-105167384D01*
X110452708Y-104964969D01*
X110446014Y-104957377D01*
X110264173Y-104781776D01*
X110256352Y-104775351D01*
X110254500Y-104774064D01*
X110422968Y-104618061D01*
X110429819Y-104610610D01*
X110585451Y-104411411D01*
X110591023Y-104402961D01*
X110712804Y-104181441D01*
X110716953Y-104172209D01*
X110801751Y-103934068D01*
X110804370Y-103924292D01*
X110850063Y-103675332D01*
X110851097Y-103664599D01*
X110854082Y-103379596D01*
X110853273Y-103368844D01*
X110812804Y-103118981D01*
X110810390Y-103109152D01*
X110730597Y-102869287D01*
X110726642Y-102859971D01*
X110609527Y-102635949D01*
X110604134Y-102627384D01*
X110452708Y-102424969D01*
X110446014Y-102417377D01*
X110264174Y-102241776D01*
X110256353Y-102235351D01*
X110048775Y-102091081D01*
X110040028Y-102085990D01*
X109812056Y-101976764D01*
X109802607Y-101973137D01*
X109560103Y-101901765D01*
X109550196Y-101899695D01*
X109299402Y-101868011D01*
X109289290Y-101867552D01*
X109036656Y-101876374D01*
X109026601Y-101877538D01*
X108778628Y-101926639D01*
X108768889Y-101929394D01*
X108531956Y-102017508D01*
X108522783Y-102021786D01*
X108302984Y-102146649D01*
X108294613Y-102152338D01*
X108097606Y-102310737D01*
X108090252Y-102317691D01*
X107921104Y-102505548D01*
X107914956Y-102513589D01*
X107778019Y-102726075D01*
X107773236Y-102734994D01*
X107672032Y-102966639D01*
X107668737Y-102976209D01*
X107605871Y-103221056D01*
X107604148Y-103231030D01*
X107581238Y-103482777D01*
X107581132Y-103492898D01*
X107598766Y-103745071D01*
X107600279Y-103755078D01*
X107658004Y-104001187D01*
X107661098Y-104010824D01*
X107757428Y-104244538D01*
X107762023Y-104253556D01*
X107894480Y-104468862D01*
X107900458Y-104477030D01*
X108065634Y-104668390D01*
X108072841Y-104675497D01*
X108191610Y-104775155D01*
X108097606Y-104850737D01*
X108090252Y-104857691D01*
X107921104Y-105045548D01*
X107914956Y-105053589D01*
X107897565Y-105080575D01*
X107851174Y-105035776D01*
X107843353Y-105029351D01*
X107635775Y-104885081D01*
X107627028Y-104879990D01*
X107399056Y-104770764D01*
X107389607Y-104767137D01*
X107147103Y-104695765D01*
X107137196Y-104693695D01*
X106886402Y-104662011D01*
X106876290Y-104661552D01*
X106623656Y-104670374D01*
X106613601Y-104671538D01*
X106365628Y-104720639D01*
X106355889Y-104723394D01*
X106118956Y-104811508D01*
X106109783Y-104815786D01*
X105889984Y-104940649D01*
X105881613Y-104946338D01*
X105684606Y-105104737D01*
X105677252Y-105111691D01*
X105508104Y-105299548D01*
X105501956Y-105307589D01*
X105469340Y-105358200D01*
X105037692Y-105358200D01*
X104588801Y-104909310D01*
X104588801Y-100031782D01*
X104715817Y-100158798D01*
X104724245Y-100165871D01*
X104920738Y-100303457D01*
X104930266Y-100308958D01*
X105147665Y-100410333D01*
X105158004Y-100414096D01*
X105389704Y-100476180D01*
X105400539Y-100478090D01*
X105579652Y-100493760D01*
X105585146Y-100494000D01*
X106504854Y-100494000D01*
X106510348Y-100493760D01*
X106689461Y-100478090D01*
X106700296Y-100476180D01*
X106931996Y-100414096D01*
X106942335Y-100410333D01*
X107159734Y-100308958D01*
X107169262Y-100303457D01*
X107365755Y-100165871D01*
X107374183Y-100158798D01*
X107543798Y-99989183D01*
X107550871Y-99980755D01*
X107688457Y-99784262D01*
X107693958Y-99774734D01*
X107795333Y-99557335D01*
X107799096Y-99546996D01*
X107861180Y-99315296D01*
X107863090Y-99304461D01*
X107883996Y-99065501D01*
X107883996Y-99054499D01*
X107863090Y-98815539D01*
X107861180Y-98804704D01*
X107799096Y-98573004D01*
X107795333Y-98562665D01*
X107693958Y-98345266D01*
X107688457Y-98335738D01*
X107550871Y-98139245D01*
X107543798Y-98130817D01*
X107374183Y-97961202D01*
X107365755Y-97954129D01*
X107169262Y-97816543D01*
X107159734Y-97811042D01*
X107114609Y-97790000D01*
X107159734Y-97768958D01*
X107169262Y-97763457D01*
X107365755Y-97625871D01*
X107374183Y-97618798D01*
X107543798Y-97449183D01*
X107550871Y-97440755D01*
X107688457Y-97244262D01*
X107693958Y-97234734D01*
X107795333Y-97017335D01*
X107799096Y-97006996D01*
X107861180Y-96775296D01*
X107863090Y-96764461D01*
X107883996Y-96525501D01*
X107883996Y-96514499D01*
X107863090Y-96275539D01*
X107861180Y-96264704D01*
X107799096Y-96033004D01*
X107795333Y-96022665D01*
X107693958Y-95805266D01*
X107688457Y-95795738D01*
X107550871Y-95599245D01*
X107543798Y-95590817D01*
X107374183Y-95421202D01*
X107365755Y-95414129D01*
X107169262Y-95276543D01*
X107159734Y-95271042D01*
X107114609Y-95250000D01*
X107159734Y-95228958D01*
X107169262Y-95223457D01*
X107365755Y-95085871D01*
X107374183Y-95078798D01*
X107543798Y-94909183D01*
X107550871Y-94900755D01*
X107688457Y-94704262D01*
X107693958Y-94694734D01*
X107722222Y-94634122D01*
X107757428Y-94719538D01*
X107762023Y-94728556D01*
X107894480Y-94943862D01*
X107900458Y-94952030D01*
X108065634Y-95143390D01*
X108072841Y-95150497D01*
X108266489Y-95312986D01*
X108274739Y-95318849D01*
X108491873Y-95448287D01*
X108500955Y-95452756D01*
X108735991Y-95545813D01*
X108745670Y-95548772D01*
X108793555Y-95559300D01*
X108696840Y-95594502D01*
X108686868Y-95599152D01*
X108479132Y-95719088D01*
X108470119Y-95725399D01*
X108286366Y-95879587D01*
X108278587Y-95887366D01*
X108124399Y-96071119D01*
X108118088Y-96080132D01*
X107998152Y-96287868D01*
X107993502Y-96297840D01*
X107911460Y-96523247D01*
X107908613Y-96533874D01*
X107866959Y-96770103D01*
X107866000Y-96781064D01*
X107866000Y-97020936D01*
X107866959Y-97031897D01*
X107908613Y-97268126D01*
X107911460Y-97278753D01*
X107993502Y-97504160D01*
X107998152Y-97514132D01*
X108118088Y-97721868D01*
X108124399Y-97730881D01*
X108278587Y-97914634D01*
X108286366Y-97922413D01*
X108470119Y-98076601D01*
X108479132Y-98082912D01*
X108686868Y-98202848D01*
X108696840Y-98207498D01*
X108922247Y-98289540D01*
X108932874Y-98292387D01*
X109169103Y-98334041D01*
X109180064Y-98335000D01*
X109419936Y-98335000D01*
X109430897Y-98334041D01*
X109667126Y-98292387D01*
X109677753Y-98289540D01*
X109903160Y-98207498D01*
X109913132Y-98202848D01*
X110120868Y-98082912D01*
X110129881Y-98076601D01*
X110313634Y-97922413D01*
X110321413Y-97914634D01*
X110475601Y-97730881D01*
X110481912Y-97721868D01*
X110601848Y-97514132D01*
X110606498Y-97504160D01*
X110688540Y-97278753D01*
X110691387Y-97268126D01*
X110733041Y-97031897D01*
X110734000Y-97020936D01*
X110734000Y-96781064D01*
X110733041Y-96770103D01*
X110691387Y-96533874D01*
X110688540Y-96523247D01*
X110606498Y-96297840D01*
X110601848Y-96287868D01*
X110481912Y-96080132D01*
X110475601Y-96071119D01*
X110321413Y-95887366D01*
X110313634Y-95879587D01*
X110129881Y-95725399D01*
X110120868Y-95719088D01*
X109913132Y-95599152D01*
X109903160Y-95594502D01*
X109735077Y-95533324D01*
X109770398Y-95523728D01*
X109779920Y-95520300D01*
X110010131Y-95415873D01*
X110018983Y-95410966D01*
X110229536Y-95271074D01*
X110237489Y-95264815D01*
X110422968Y-95093061D01*
X110429819Y-95085610D01*
X110585451Y-94886411D01*
X110591023Y-94877961D01*
X110712804Y-94656441D01*
X110716953Y-94647209D01*
X110801751Y-94409068D01*
X110804370Y-94399292D01*
X110850063Y-94150332D01*
X110851097Y-94139599D01*
X110854082Y-93854596D01*
X110853273Y-93843844D01*
X110812804Y-93593981D01*
X110810390Y-93584152D01*
X110730597Y-93344287D01*
X110726642Y-93334971D01*
X110609527Y-93110949D01*
X110604134Y-93102384D01*
X110452708Y-92899969D01*
X110446014Y-92892377D01*
X110264173Y-92716776D01*
X110256352Y-92710351D01*
X110254500Y-92709064D01*
X110422968Y-92553061D01*
X110429819Y-92545610D01*
X110585451Y-92346411D01*
X110591023Y-92337961D01*
X110712804Y-92116441D01*
X110716953Y-92107209D01*
X110801751Y-91869068D01*
X110804370Y-91859292D01*
X110850063Y-91610332D01*
X110851097Y-91599599D01*
X110854082Y-91314596D01*
X110853273Y-91303844D01*
X110812804Y-91053981D01*
X110810390Y-91044152D01*
X110730597Y-90804287D01*
X110726642Y-90794971D01*
X110609527Y-90570949D01*
X110604134Y-90562384D01*
X110452708Y-90359969D01*
X110446014Y-90352377D01*
X110264173Y-90176776D01*
X110256352Y-90170351D01*
X110254500Y-90169064D01*
X110422968Y-90013061D01*
X110429819Y-90005610D01*
X110585451Y-89806411D01*
X110591023Y-89797961D01*
X110712804Y-89576441D01*
X110716953Y-89567209D01*
X110801751Y-89329068D01*
X110804370Y-89319292D01*
X110850063Y-89070332D01*
X110851097Y-89059599D01*
X110854082Y-88774596D01*
X110853273Y-88763844D01*
X110812804Y-88513981D01*
X110810390Y-88504152D01*
X110730597Y-88264287D01*
X110726642Y-88254971D01*
X110609527Y-88030949D01*
X110604134Y-88022384D01*
X110452708Y-87819969D01*
X110446014Y-87812377D01*
X110264174Y-87636776D01*
X110256353Y-87630351D01*
X110048775Y-87486081D01*
X110040028Y-87480990D01*
X109812056Y-87371764D01*
X109802607Y-87368137D01*
X109560103Y-87296765D01*
X109550196Y-87294695D01*
X109299402Y-87263011D01*
X109289290Y-87262552D01*
X109036656Y-87271374D01*
X109026601Y-87272538D01*
X108778628Y-87321639D01*
X108768889Y-87324394D01*
X108531956Y-87412508D01*
X108522783Y-87416786D01*
X108484559Y-87438500D01*
X106761968Y-87438500D01*
X106759601Y-87435119D01*
X106605413Y-87251366D01*
X106597634Y-87243587D01*
X106413881Y-87089399D01*
X106404868Y-87083088D01*
X106199742Y-86964659D01*
X106327131Y-86906873D01*
X106335983Y-86901966D01*
X106546536Y-86762074D01*
X106554489Y-86755815D01*
X106739968Y-86584061D01*
X106746819Y-86576610D01*
X106902451Y-86377411D01*
X106908023Y-86368961D01*
X107029804Y-86147441D01*
X107033953Y-86138209D01*
X107118751Y-85900068D01*
X107121370Y-85890292D01*
X107167063Y-85641332D01*
X107168097Y-85630599D01*
X107171082Y-85345596D01*
X107170273Y-85334844D01*
X107129804Y-85084981D01*
X107127390Y-85075152D01*
X107047597Y-84835287D01*
X107043642Y-84825971D01*
X106926527Y-84601949D01*
X106921134Y-84593384D01*
X106769708Y-84390969D01*
X106763014Y-84383377D01*
X106581174Y-84207776D01*
X106573353Y-84201351D01*
X106365775Y-84057081D01*
X106357028Y-84051990D01*
X106129056Y-83942764D01*
X106119607Y-83939137D01*
X105877103Y-83867765D01*
X105867196Y-83865695D01*
X105616402Y-83834011D01*
X105606290Y-83833552D01*
X105353656Y-83842374D01*
X105343601Y-83843538D01*
X105095628Y-83892639D01*
X105085889Y-83895394D01*
X104848956Y-83983508D01*
X104839783Y-83987786D01*
X104619984Y-84112649D01*
X104611613Y-84118338D01*
X104414606Y-84276737D01*
X104407252Y-84283691D01*
X104238104Y-84471548D01*
X104231956Y-84479589D01*
X104095019Y-84692075D01*
X104090236Y-84700994D01*
X103989032Y-84932639D01*
X103985737Y-84942209D01*
X103922871Y-85187056D01*
X103921148Y-85197030D01*
X103898238Y-85448777D01*
X103898132Y-85458898D01*
X103915766Y-85711071D01*
X103917279Y-85721078D01*
X103975004Y-85967187D01*
X103978098Y-85976824D01*
X104074428Y-86210538D01*
X104079023Y-86219556D01*
X104211480Y-86434862D01*
X104217458Y-86443030D01*
X104382634Y-86634390D01*
X104389841Y-86641497D01*
X104583489Y-86803986D01*
X104591739Y-86809849D01*
X104808873Y-86939287D01*
X104817955Y-86943756D01*
X104928592Y-86987560D01*
X104763132Y-87083088D01*
X104754119Y-87089399D01*
X104570366Y-87243587D01*
X104562587Y-87251366D01*
X104408399Y-87435119D01*
X104402088Y-87444132D01*
X104282152Y-87651868D01*
X104277502Y-87661840D01*
X104195460Y-87887247D01*
X104192613Y-87897874D01*
X104150959Y-88134103D01*
X104150000Y-88145064D01*
X104150000Y-88384936D01*
X104150959Y-88395897D01*
X104170939Y-88509214D01*
X101589056Y-91091099D01*
X101574497Y-91100285D01*
X101560825Y-91111921D01*
X101504819Y-91175336D01*
X101484844Y-91195311D01*
X101478972Y-91202083D01*
X101466498Y-91218726D01*
X101416113Y-91275777D01*
X101406257Y-91290782D01*
X101395795Y-91313065D01*
X101381032Y-91332763D01*
X101372410Y-91348510D01*
X101345695Y-91419774D01*
X101313268Y-91488841D01*
X101307959Y-91506396D01*
X101304471Y-91529740D01*
X101295673Y-91553208D01*
X101291818Y-91570743D01*
X101285364Y-91657586D01*
X101282193Y-91678805D01*
X101281500Y-91688129D01*
X101281500Y-91709588D01*
X101275618Y-91788748D01*
X101276839Y-91806659D01*
X101281500Y-91828494D01*
X101281501Y-92788803D01*
X101281500Y-98971654D01*
X100100333Y-100152822D01*
X100100318Y-100152835D01*
X99908155Y-100344999D01*
X99462444Y-100344999D01*
X99539734Y-100308958D01*
X99549262Y-100303457D01*
X99745755Y-100165871D01*
X99754183Y-100158798D01*
X99923798Y-99989183D01*
X99930871Y-99980755D01*
X100068457Y-99784262D01*
X100073958Y-99774734D01*
X100175333Y-99557335D01*
X100179096Y-99546996D01*
X100248871Y-99286592D01*
X100173218Y-99188000D01*
X98297000Y-99188000D01*
X98297000Y-98932000D01*
X100173218Y-98932000D01*
X100248871Y-98833408D01*
X100179096Y-98573004D01*
X100175333Y-98562665D01*
X100073958Y-98345266D01*
X100068457Y-98335738D01*
X99930871Y-98139245D01*
X99923798Y-98130817D01*
X99754183Y-97961202D01*
X99745755Y-97954129D01*
X99549262Y-97816543D01*
X99539734Y-97811042D01*
X99494609Y-97790000D01*
X99539734Y-97768958D01*
X99549262Y-97763457D01*
X99745755Y-97625871D01*
X99754183Y-97618798D01*
X99923798Y-97449183D01*
X99930871Y-97440755D01*
X100068457Y-97244262D01*
X100073958Y-97234734D01*
X100175333Y-97017335D01*
X100179096Y-97006996D01*
X100241180Y-96775296D01*
X100243090Y-96764461D01*
X100263996Y-96525501D01*
X100263996Y-96514499D01*
X100243090Y-96275539D01*
X100241180Y-96264704D01*
X100179096Y-96033004D01*
X100175333Y-96022665D01*
X100073958Y-95805266D01*
X100068457Y-95795738D01*
X99930871Y-95599245D01*
X99923798Y-95590817D01*
X99754183Y-95421202D01*
X99745755Y-95414129D01*
X99549262Y-95276543D01*
X99539734Y-95271042D01*
X99494609Y-95250000D01*
X99539734Y-95228958D01*
X99549262Y-95223457D01*
X99745755Y-95085871D01*
X99754183Y-95078798D01*
X99923798Y-94909183D01*
X99930871Y-94900755D01*
X100068457Y-94704262D01*
X100073958Y-94694734D01*
X100175333Y-94477335D01*
X100179096Y-94466996D01*
X100241180Y-94235296D01*
X100243090Y-94224461D01*
X100263996Y-93985501D01*
X100263996Y-93974499D01*
X100243090Y-93735539D01*
X100241180Y-93724704D01*
X100179096Y-93493004D01*
X100175333Y-93482665D01*
X100073958Y-93265266D01*
X100068457Y-93255738D01*
X99930871Y-93059245D01*
X99923798Y-93050817D01*
X99754183Y-92881202D01*
X99745755Y-92874129D01*
X99724887Y-92859517D01*
X99928859Y-92804863D01*
X99953339Y-92792120D01*
X100109590Y-92661010D01*
X100123761Y-92644121D01*
X100224359Y-92469880D01*
X100231900Y-92449163D01*
X100265878Y-92256462D01*
X100266837Y-92245501D01*
X100266837Y-90631742D01*
X100264681Y-90615366D01*
X100189863Y-90336142D01*
X100177120Y-90311662D01*
X100046010Y-90155410D01*
X100029121Y-90141239D01*
X99854880Y-90040641D01*
X99834163Y-90033100D01*
X99641462Y-89999122D01*
X99630501Y-89998163D01*
X97216742Y-89998163D01*
X97200366Y-90000319D01*
X96921142Y-90075137D01*
X96896662Y-90087880D01*
X96740410Y-90218990D01*
X96726239Y-90235879D01*
X96625641Y-90410120D01*
X96618100Y-90430837D01*
X96584122Y-90623538D01*
X96583163Y-90634499D01*
X96583163Y-90748250D01*
X96482708Y-90613969D01*
X96476014Y-90606377D01*
X96294174Y-90430776D01*
X96286353Y-90424351D01*
X96078775Y-90280081D01*
X96070028Y-90274990D01*
X95860064Y-90174392D01*
X96078128Y-90088933D01*
X96087415Y-90084384D01*
X96304382Y-89955046D01*
X96312801Y-89949041D01*
X96505730Y-89786003D01*
X96513055Y-89778703D01*
X96676766Y-89586344D01*
X96682801Y-89577946D01*
X96812895Y-89361431D01*
X96817477Y-89352161D01*
X96910463Y-89117306D01*
X96913470Y-89107411D01*
X96967011Y-88859769D01*
X96968418Y-88847969D01*
X96976385Y-88522013D01*
X96975556Y-88510158D01*
X96934175Y-88260197D01*
X96931655Y-88250167D01*
X96850253Y-88011050D01*
X96846130Y-88001566D01*
X96726767Y-87778955D01*
X96721149Y-87770271D01*
X96567031Y-87570146D01*
X96560072Y-87562497D01*
X96375337Y-87390229D01*
X96367221Y-87383819D01*
X96156832Y-87244036D01*
X96147778Y-87239038D01*
X95917383Y-87135495D01*
X95907634Y-87132043D01*
X95663423Y-87067519D01*
X95653242Y-87065706D01*
X95401770Y-87041935D01*
X95391429Y-87041808D01*
X95139451Y-87059429D01*
X95129229Y-87060993D01*
X94883513Y-87119531D01*
X94873683Y-87122743D01*
X94640827Y-87220627D01*
X94631654Y-87225402D01*
X94417912Y-87360003D01*
X94409642Y-87366212D01*
X94220754Y-87533914D01*
X94213609Y-87541391D01*
X94054647Y-87737693D01*
X94048820Y-87746236D01*
X93924054Y-87965864D01*
X93919699Y-87975244D01*
X93832479Y-88212300D01*
X93829716Y-88222266D01*
X93782385Y-88470384D01*
X93781286Y-88480667D01*
X93775114Y-88733185D01*
X93775710Y-88743509D01*
X93810864Y-88993643D01*
X93813137Y-89003732D01*
X93888673Y-89244766D01*
X93892564Y-89254348D01*
X94006452Y-89479808D01*
X94011855Y-89488626D01*
X94161038Y-89692458D01*
X94167809Y-89700275D01*
X94348280Y-89877004D01*
X94356237Y-89883610D01*
X94563148Y-90028492D01*
X94572077Y-90033710D01*
X94770704Y-90128876D01*
X94561956Y-90206508D01*
X94552783Y-90210786D01*
X94332984Y-90335649D01*
X94324613Y-90341338D01*
X94127606Y-90499737D01*
X94120252Y-90506691D01*
X93951104Y-90694548D01*
X93944956Y-90702589D01*
X93808019Y-90915075D01*
X93803236Y-90923994D01*
X93702032Y-91155639D01*
X93698737Y-91165209D01*
X93635871Y-91410056D01*
X93634148Y-91420030D01*
X93611238Y-91671777D01*
X93611132Y-91681898D01*
X93628766Y-91934071D01*
X93630279Y-91944078D01*
X93688004Y-92190187D01*
X93691098Y-92199824D01*
X93787428Y-92433538D01*
X93792023Y-92442556D01*
X93924480Y-92657862D01*
X93930458Y-92666030D01*
X94095634Y-92857390D01*
X94102841Y-92864497D01*
X94144318Y-92899300D01*
X94127606Y-92912737D01*
X94120252Y-92919691D01*
X93951104Y-93107548D01*
X93944956Y-93115589D01*
X93808019Y-93328075D01*
X93803236Y-93336994D01*
X93702032Y-93568639D01*
X93698737Y-93578209D01*
X93635871Y-93823056D01*
X93634148Y-93833030D01*
X93611238Y-94084777D01*
X93611132Y-94094898D01*
X93628766Y-94347071D01*
X93630279Y-94357078D01*
X93688004Y-94603187D01*
X93691098Y-94612824D01*
X93787428Y-94846538D01*
X93792023Y-94855556D01*
X93924480Y-95070862D01*
X93930458Y-95079030D01*
X94095634Y-95270390D01*
X94102841Y-95277497D01*
X94144318Y-95312300D01*
X94127606Y-95325737D01*
X94120252Y-95332691D01*
X93951104Y-95520548D01*
X93944956Y-95528589D01*
X93808019Y-95741075D01*
X93803236Y-95749994D01*
X93702032Y-95981639D01*
X93698737Y-95991209D01*
X93635871Y-96236056D01*
X93634148Y-96246030D01*
X93611238Y-96497777D01*
X93611132Y-96507898D01*
X93628766Y-96760071D01*
X93630279Y-96770078D01*
X93688004Y-97016187D01*
X93691098Y-97025824D01*
X93787428Y-97259538D01*
X93792023Y-97268556D01*
X93924480Y-97483862D01*
X93930458Y-97492030D01*
X94095634Y-97683390D01*
X94102841Y-97690497D01*
X94144318Y-97725300D01*
X94127606Y-97738737D01*
X94120252Y-97745691D01*
X93951104Y-97933548D01*
X93944956Y-97941589D01*
X93808019Y-98154075D01*
X93803236Y-98162994D01*
X93702032Y-98394639D01*
X93698737Y-98404209D01*
X93635871Y-98649056D01*
X93634148Y-98659030D01*
X93611238Y-98910777D01*
X93611132Y-98920898D01*
X93628766Y-99173071D01*
X93630279Y-99183078D01*
X93688004Y-99429187D01*
X93691098Y-99438824D01*
X93787428Y-99672538D01*
X93792023Y-99681556D01*
X93924480Y-99896862D01*
X93930458Y-99905030D01*
X94095634Y-100096390D01*
X94102841Y-100103497D01*
X94296489Y-100265986D01*
X94304739Y-100271849D01*
X94427449Y-100344999D01*
X91461830Y-100344999D01*
X91402708Y-100265969D01*
X91396014Y-100258376D01*
X91272497Y-100139098D01*
X91372968Y-100046061D01*
X91379819Y-100038610D01*
X91535451Y-99839411D01*
X91541023Y-99830961D01*
X91662804Y-99609441D01*
X91666953Y-99600209D01*
X91751751Y-99362068D01*
X91754370Y-99352292D01*
X91800063Y-99103332D01*
X91801097Y-99092599D01*
X91804082Y-98807596D01*
X91803273Y-98796844D01*
X91762804Y-98546981D01*
X91760390Y-98537152D01*
X91680597Y-98297287D01*
X91676642Y-98287971D01*
X91559527Y-98063949D01*
X91554134Y-98055384D01*
X91402708Y-97852969D01*
X91396014Y-97845377D01*
X91272497Y-97726098D01*
X91372968Y-97633061D01*
X91379819Y-97625610D01*
X91535451Y-97426411D01*
X91541023Y-97417961D01*
X91662804Y-97196441D01*
X91666953Y-97187209D01*
X91751751Y-96949068D01*
X91754370Y-96939292D01*
X91800063Y-96690332D01*
X91801097Y-96679599D01*
X91804082Y-96394596D01*
X91803273Y-96383844D01*
X91762804Y-96133981D01*
X91760390Y-96124152D01*
X91680597Y-95884287D01*
X91676642Y-95874971D01*
X91559527Y-95650949D01*
X91554134Y-95642384D01*
X91402708Y-95439969D01*
X91396014Y-95432377D01*
X91272497Y-95313098D01*
X91372968Y-95220061D01*
X91379819Y-95212610D01*
X91535451Y-95013411D01*
X91541023Y-95004961D01*
X91662804Y-94783441D01*
X91666953Y-94774209D01*
X91751751Y-94536068D01*
X91754370Y-94526292D01*
X91800063Y-94277332D01*
X91801097Y-94266599D01*
X91804082Y-93981596D01*
X91803273Y-93970844D01*
X91762804Y-93720981D01*
X91760390Y-93711152D01*
X91680597Y-93471287D01*
X91676642Y-93461971D01*
X91559527Y-93237949D01*
X91554134Y-93229384D01*
X91402708Y-93026969D01*
X91396014Y-93019377D01*
X91272497Y-92900098D01*
X91372968Y-92807061D01*
X91379819Y-92799610D01*
X91535451Y-92600411D01*
X91541023Y-92591961D01*
X91662804Y-92370441D01*
X91666953Y-92361209D01*
X91751751Y-92123068D01*
X91754370Y-92113292D01*
X91800063Y-91864332D01*
X91801097Y-91853599D01*
X91804082Y-91568596D01*
X91803273Y-91557844D01*
X91762804Y-91307981D01*
X91760390Y-91298152D01*
X91680597Y-91058287D01*
X91676642Y-91048971D01*
X91559527Y-90824949D01*
X91554134Y-90816384D01*
X91402708Y-90613969D01*
X91396014Y-90606377D01*
X91214174Y-90430776D01*
X91206353Y-90424351D01*
X91009934Y-90287837D01*
X91305258Y-90287837D01*
X91321634Y-90285681D01*
X91600859Y-90210863D01*
X91625339Y-90198120D01*
X91781590Y-90067010D01*
X91795761Y-90050121D01*
X91896359Y-89875880D01*
X91903900Y-89855163D01*
X91937878Y-89662462D01*
X91938837Y-89651501D01*
X91938837Y-87637742D01*
X91936681Y-87621366D01*
X91861863Y-87342142D01*
X91849120Y-87317662D01*
X91718010Y-87161410D01*
X91701121Y-87147239D01*
X91526880Y-87046641D01*
X91506163Y-87039100D01*
X91313462Y-87005122D01*
X91302501Y-87004163D01*
X89288742Y-87004163D01*
X89272366Y-87006319D01*
X88993142Y-87081137D01*
X88968662Y-87093880D01*
X88812410Y-87224990D01*
X88798239Y-87241879D01*
X88697641Y-87416120D01*
X88690100Y-87436837D01*
X88656122Y-87629538D01*
X88655163Y-87640499D01*
X88655163Y-89654258D01*
X88657319Y-89670634D01*
X88732137Y-89949859D01*
X88744880Y-89974339D01*
X88875990Y-90130590D01*
X88892879Y-90144761D01*
X89067120Y-90245359D01*
X89087837Y-90252900D01*
X89280538Y-90286878D01*
X89291499Y-90287837D01*
X89337148Y-90287837D01*
X89252984Y-90335649D01*
X89244613Y-90341338D01*
X89047606Y-90499737D01*
X89040252Y-90506691D01*
X88871104Y-90694548D01*
X88864956Y-90702589D01*
X88728019Y-90915075D01*
X88723236Y-90923994D01*
X88645000Y-91103068D01*
X88645000Y-86193185D01*
X96315114Y-86193185D01*
X96315710Y-86203509D01*
X96350864Y-86453643D01*
X96353137Y-86463732D01*
X96428673Y-86704766D01*
X96432564Y-86714348D01*
X96546452Y-86939808D01*
X96551855Y-86948626D01*
X96701038Y-87152458D01*
X96707809Y-87160275D01*
X96888280Y-87337004D01*
X96896237Y-87343610D01*
X97103148Y-87488492D01*
X97112077Y-87493710D01*
X97339873Y-87602851D01*
X97349535Y-87606540D01*
X97592098Y-87677012D01*
X97602232Y-87679073D01*
X97853048Y-87708981D01*
X97863382Y-87709360D01*
X98115714Y-87697902D01*
X98125972Y-87696588D01*
X98373045Y-87644070D01*
X98382950Y-87641099D01*
X98618128Y-87548933D01*
X98627415Y-87544384D01*
X98844382Y-87415046D01*
X98852801Y-87409041D01*
X99045730Y-87246003D01*
X99053055Y-87238703D01*
X99216766Y-87046344D01*
X99222801Y-87037946D01*
X99352895Y-86821431D01*
X99357477Y-86812161D01*
X99396318Y-86714060D01*
X99503489Y-86803986D01*
X99511739Y-86809849D01*
X99728873Y-86939287D01*
X99737955Y-86943756D01*
X99896048Y-87006349D01*
X99763132Y-87083088D01*
X99754119Y-87089399D01*
X99570366Y-87243587D01*
X99562587Y-87251366D01*
X99408399Y-87435119D01*
X99402088Y-87444132D01*
X99282152Y-87651868D01*
X99277502Y-87661840D01*
X99195460Y-87887247D01*
X99192613Y-87897874D01*
X99150959Y-88134103D01*
X99150000Y-88145064D01*
X99150000Y-88384936D01*
X99150959Y-88395897D01*
X99192613Y-88632126D01*
X99195460Y-88642753D01*
X99277502Y-88868160D01*
X99282152Y-88878132D01*
X99402088Y-89085868D01*
X99408399Y-89094881D01*
X99562587Y-89278634D01*
X99570366Y-89286413D01*
X99754119Y-89440601D01*
X99763132Y-89446912D01*
X99970868Y-89566848D01*
X99980840Y-89571498D01*
X100206247Y-89653540D01*
X100216874Y-89656387D01*
X100453103Y-89698041D01*
X100464064Y-89699000D01*
X100703936Y-89699000D01*
X100714897Y-89698041D01*
X100951126Y-89656387D01*
X100961753Y-89653540D01*
X101187160Y-89571498D01*
X101197132Y-89566848D01*
X101404868Y-89446912D01*
X101413881Y-89440601D01*
X101597634Y-89286413D01*
X101605413Y-89278634D01*
X101759601Y-89094881D01*
X101765912Y-89085868D01*
X101885848Y-88878132D01*
X101890498Y-88868160D01*
X101972540Y-88642753D01*
X101975387Y-88632126D01*
X102017041Y-88395897D01*
X102018000Y-88384936D01*
X102018000Y-88145064D01*
X102017041Y-88134103D01*
X101975387Y-87897874D01*
X101972540Y-87887247D01*
X101890498Y-87661840D01*
X101885848Y-87651868D01*
X101765912Y-87444132D01*
X101759601Y-87435119D01*
X101605413Y-87251366D01*
X101597634Y-87243587D01*
X101413881Y-87089399D01*
X101404868Y-87083088D01*
X101197132Y-86963152D01*
X101187160Y-86958502D01*
X101157285Y-86947628D01*
X101247131Y-86906873D01*
X101255983Y-86901966D01*
X101466536Y-86762074D01*
X101474489Y-86755815D01*
X101659968Y-86584061D01*
X101666819Y-86576610D01*
X101822451Y-86377411D01*
X101828023Y-86368961D01*
X101949804Y-86147441D01*
X101953953Y-86138209D01*
X102038751Y-85900068D01*
X102041370Y-85890292D01*
X102087063Y-85641332D01*
X102088097Y-85630599D01*
X102091082Y-85345596D01*
X102090273Y-85334844D01*
X102049804Y-85084981D01*
X102047390Y-85075152D01*
X101967597Y-84835287D01*
X101963642Y-84825971D01*
X101846527Y-84601949D01*
X101841134Y-84593384D01*
X101689708Y-84390969D01*
X101683014Y-84383377D01*
X101501174Y-84207776D01*
X101493353Y-84201351D01*
X101285775Y-84057081D01*
X101277028Y-84051990D01*
X101049056Y-83942764D01*
X101039607Y-83939137D01*
X100797103Y-83867765D01*
X100787196Y-83865695D01*
X100536402Y-83834011D01*
X100526290Y-83833552D01*
X100273656Y-83842374D01*
X100263601Y-83843538D01*
X100015628Y-83892639D01*
X100005889Y-83895394D01*
X99768956Y-83983508D01*
X99759783Y-83987786D01*
X99539984Y-84112649D01*
X99531613Y-84118338D01*
X99334606Y-84276737D01*
X99327252Y-84283691D01*
X99158104Y-84471548D01*
X99151956Y-84479589D01*
X99015019Y-84692075D01*
X99010236Y-84700994D01*
X98936439Y-84869907D01*
X98915337Y-84850229D01*
X98907221Y-84843820D01*
X98696832Y-84704036D01*
X98687778Y-84699038D01*
X98457383Y-84595495D01*
X98447634Y-84592043D01*
X98203423Y-84527519D01*
X98193242Y-84525706D01*
X97941770Y-84501935D01*
X97931429Y-84501808D01*
X97679451Y-84519429D01*
X97669229Y-84520993D01*
X97423513Y-84579531D01*
X97413683Y-84582743D01*
X97180827Y-84680627D01*
X97171654Y-84685402D01*
X96957912Y-84820003D01*
X96949642Y-84826212D01*
X96760754Y-84993914D01*
X96753609Y-85001391D01*
X96594647Y-85197693D01*
X96588820Y-85206236D01*
X96464054Y-85425864D01*
X96459699Y-85435244D01*
X96372479Y-85672300D01*
X96369716Y-85682266D01*
X96322385Y-85930384D01*
X96321286Y-85940667D01*
X96315114Y-86193185D01*
X88645000Y-86193185D01*
X88645000Y-83780672D01*
X93792176Y-83780672D01*
X93810864Y-83913644D01*
X93813137Y-83923732D01*
X93888673Y-84164766D01*
X93892564Y-84174348D01*
X94006452Y-84399808D01*
X94011855Y-84408626D01*
X94161038Y-84612458D01*
X94167809Y-84620275D01*
X94348280Y-84797004D01*
X94356237Y-84803610D01*
X94563148Y-84948492D01*
X94572077Y-84953710D01*
X94799873Y-85062851D01*
X94809535Y-85066540D01*
X95052098Y-85137012D01*
X95062232Y-85139073D01*
X95164309Y-85151246D01*
X95246469Y-85078301D01*
X95504999Y-85078301D01*
X95598410Y-85153944D01*
X95833045Y-85104070D01*
X95842950Y-85101099D01*
X96078128Y-85008933D01*
X96087415Y-85004384D01*
X96304382Y-84875046D01*
X96312801Y-84869041D01*
X96505730Y-84706003D01*
X96513055Y-84698703D01*
X96676766Y-84506344D01*
X96682801Y-84497946D01*
X96812895Y-84281431D01*
X96817477Y-84272161D01*
X96910463Y-84037306D01*
X96913470Y-84027411D01*
X96965285Y-83787753D01*
X96889636Y-83694000D01*
X95578809Y-83693999D01*
X95505000Y-83767808D01*
X95504999Y-85078301D01*
X95246469Y-85078301D01*
X95249000Y-85076054D01*
X95249001Y-83767809D01*
X95175192Y-83694000D01*
X93867519Y-83693999D01*
X93792176Y-83780672D01*
X88645000Y-83780672D01*
X88645000Y-81249470D01*
X88671038Y-81249470D01*
X88735004Y-81522187D01*
X88738098Y-81531824D01*
X88834428Y-81765538D01*
X88839023Y-81774556D01*
X88971480Y-81989862D01*
X88977458Y-81998030D01*
X89142634Y-82189390D01*
X89149841Y-82196497D01*
X89343489Y-82358986D01*
X89351739Y-82364849D01*
X89568873Y-82494287D01*
X89577955Y-82498756D01*
X89812991Y-82591813D01*
X89822670Y-82594772D01*
X90074904Y-82650229D01*
X90169000Y-82574574D01*
X90169000Y-82571740D01*
X90424999Y-82571740D01*
X90508377Y-82646815D01*
X90593504Y-82637869D01*
X90603453Y-82636007D01*
X90847398Y-82569728D01*
X90856920Y-82566300D01*
X91087131Y-82461873D01*
X91095983Y-82456966D01*
X91306536Y-82317074D01*
X91314489Y-82310815D01*
X91499968Y-82139061D01*
X91506819Y-82131610D01*
X91662451Y-81932411D01*
X91668023Y-81923961D01*
X91789804Y-81702441D01*
X91793953Y-81693209D01*
X91878751Y-81455069D01*
X91881370Y-81445292D01*
X91918188Y-81244693D01*
X91842626Y-81154000D01*
X90498809Y-81153999D01*
X90425000Y-81227808D01*
X90424999Y-82571740D01*
X90169000Y-82571740D01*
X90169001Y-81227809D01*
X90095192Y-81154000D01*
X88746707Y-81153999D01*
X88671038Y-81249470D01*
X88645000Y-81249470D01*
X88645000Y-80815912D01*
X88675327Y-80815912D01*
X88750273Y-80898000D01*
X90095191Y-80898001D01*
X90169000Y-80824192D01*
X90169000Y-80824191D01*
X90424999Y-80824191D01*
X90498808Y-80898000D01*
X91841765Y-80898001D01*
X91917233Y-80809327D01*
X91889804Y-80639981D01*
X91887390Y-80630152D01*
X91807597Y-80390287D01*
X91803642Y-80380971D01*
X91686527Y-80156949D01*
X91681134Y-80148384D01*
X91529708Y-79945969D01*
X91523014Y-79938377D01*
X91341174Y-79762776D01*
X91333353Y-79756351D01*
X91125775Y-79612081D01*
X91117028Y-79606990D01*
X90889056Y-79497764D01*
X90879607Y-79494137D01*
X90637104Y-79422765D01*
X90627197Y-79420695D01*
X90510350Y-79405933D01*
X90425000Y-79481178D01*
X90424999Y-80824191D01*
X90169000Y-80824191D01*
X90169001Y-79479423D01*
X90076953Y-79403814D01*
X89855628Y-79447639D01*
X89845889Y-79450394D01*
X89608956Y-79538508D01*
X89599783Y-79542786D01*
X89379984Y-79667649D01*
X89371613Y-79673338D01*
X89174606Y-79831737D01*
X89167252Y-79838691D01*
X88998104Y-80026548D01*
X88991956Y-80034589D01*
X88855019Y-80247075D01*
X88850236Y-80255994D01*
X88749032Y-80487639D01*
X88745737Y-80497209D01*
X88682872Y-80742052D01*
X88681150Y-80752017D01*
X88675327Y-80815912D01*
X88645000Y-80815912D01*
X88645000Y-79374000D01*
X93338163Y-79374000D01*
X93338163Y-81923258D01*
G37*
D25*
X93338163Y-81923258D02*
X93340319Y-81939634D01*
X93415137Y-82218859D01*
X93427880Y-82243339D01*
X93558990Y-82399590D01*
X93575879Y-82413761D01*
X93750120Y-82514359D01*
X93770837Y-82521900D01*
X93963538Y-82555878D01*
X93974499Y-82556837D01*
X94136318Y-82556837D01*
X94054647Y-82657693D01*
X94048820Y-82666236D01*
X93924054Y-82885864D01*
X93919699Y-82895244D01*
X93832479Y-83132300D01*
X93829716Y-83142266D01*
X93790731Y-83346631D01*
X93866318Y-83438000D01*
X95175192Y-83438001D01*
X95175193Y-83438000D01*
X96886634Y-83438001D01*
X96962119Y-83348992D01*
X96934175Y-83180196D01*
X96932342Y-83172898D01*
X101231132Y-83172898D01*
X101248766Y-83425071D01*
X101250279Y-83435078D01*
X101308004Y-83681187D01*
X101311098Y-83690824D01*
X101407428Y-83924538D01*
X101412023Y-83933556D01*
X101544480Y-84148862D01*
X101550458Y-84157030D01*
X101715634Y-84348390D01*
X101722841Y-84355497D01*
X101916489Y-84517986D01*
X101924739Y-84523849D01*
X102141873Y-84653287D01*
X102150955Y-84657756D01*
X102385991Y-84750813D01*
X102395670Y-84753772D01*
X102642561Y-84808054D01*
X102652589Y-84809428D01*
X102904983Y-84823539D01*
X102915101Y-84823292D01*
X103166504Y-84796869D01*
X103176453Y-84795007D01*
X103420398Y-84728728D01*
X103429920Y-84725300D01*
X103660131Y-84620873D01*
X103668983Y-84615966D01*
X103879536Y-84476074D01*
X103887489Y-84469815D01*
X104072968Y-84298061D01*
X104079819Y-84290610D01*
X104235451Y-84091411D01*
X104241023Y-84082961D01*
X104362804Y-83861441D01*
X104366953Y-83852209D01*
X104451751Y-83614068D01*
X104454370Y-83604292D01*
X104500063Y-83355332D01*
X104501097Y-83344599D01*
X104502895Y-83172898D01*
X106311132Y-83172898D01*
X106328766Y-83425071D01*
X106330279Y-83435078D01*
X106388004Y-83681187D01*
X106391098Y-83690824D01*
X106487428Y-83924538D01*
X106492023Y-83933556D01*
X106624480Y-84148862D01*
X106630458Y-84157030D01*
X106795634Y-84348390D01*
X106802841Y-84355497D01*
X106996489Y-84517986D01*
X107004739Y-84523849D01*
X107221873Y-84653287D01*
X107230955Y-84657756D01*
X107465991Y-84750813D01*
X107475670Y-84753772D01*
X107722561Y-84808054D01*
X107732589Y-84809428D01*
X107984983Y-84823539D01*
X107995101Y-84823292D01*
X108246504Y-84796869D01*
X108256453Y-84795007D01*
X108500398Y-84728728D01*
X108509920Y-84725300D01*
X108740131Y-84620873D01*
X108748983Y-84615966D01*
X108959536Y-84476074D01*
X108967489Y-84469815D01*
X109048163Y-84395111D01*
X109048163Y-85898258D01*
X109050319Y-85914634D01*
X109125137Y-86193859D01*
X109137880Y-86218339D01*
X109268990Y-86374590D01*
X109285879Y-86388761D01*
X109460120Y-86489359D01*
X109480837Y-86496900D01*
X109673538Y-86530878D01*
X109684499Y-86531837D01*
X111298258Y-86531837D01*
X111314634Y-86529681D01*
X111593859Y-86454863D01*
X111618339Y-86442120D01*
X111774590Y-86311010D01*
X111788761Y-86294121D01*
X111881296Y-86133844D01*
X112127177Y-86133844D01*
X112143397Y-86257053D01*
X112376868Y-86391848D01*
X112386840Y-86396498D01*
X112612247Y-86478540D01*
X112622874Y-86481387D01*
X112859103Y-86523041D01*
X112870064Y-86524000D01*
X113109936Y-86524000D01*
X113120897Y-86523041D01*
X113357126Y-86481387D01*
X113367753Y-86478540D01*
X113593160Y-86396498D01*
X113603132Y-86391848D01*
X113836603Y-86257053D01*
X113852823Y-86133844D01*
X113042191Y-85323210D01*
X112937809Y-85323210D01*
X112127177Y-86133844D01*
X111881296Y-86133844D01*
X111889359Y-86119880D01*
X111896900Y-86099163D01*
X111923235Y-85949806D01*
X111946156Y-85952823D01*
X112756790Y-85142191D01*
X112756790Y-85037809D01*
X113223210Y-85037809D01*
X113223210Y-85142191D01*
X114033844Y-85952823D01*
X114157053Y-85936603D01*
X114291848Y-85703132D01*
X114296498Y-85693160D01*
X114378540Y-85467753D01*
X114381387Y-85457126D01*
X114423041Y-85220897D01*
X114424000Y-85209936D01*
X114424000Y-84970064D01*
X114423041Y-84959103D01*
X114381387Y-84722874D01*
X114378540Y-84712247D01*
X114296498Y-84486840D01*
X114291848Y-84476868D01*
X114157053Y-84243397D01*
X114033844Y-84227177D01*
X113223210Y-85037809D01*
X112756790Y-85037809D01*
X111946156Y-84227177D01*
X111920358Y-84230573D01*
X111870944Y-84046156D01*
X112127177Y-84046156D01*
X112937809Y-84856790D01*
X113042191Y-84856790D01*
X113852823Y-84046156D01*
X113836603Y-83922947D01*
X113603132Y-83788152D01*
X113593160Y-83783502D01*
X113367753Y-83701460D01*
X113357126Y-83698613D01*
X113120897Y-83656959D01*
X113109936Y-83656000D01*
X112870064Y-83656000D01*
X112859103Y-83656959D01*
X112622874Y-83698613D01*
X112612247Y-83701460D01*
X112386840Y-83783502D01*
X112376868Y-83788152D01*
X112143397Y-83922947D01*
X112127177Y-84046156D01*
X111870944Y-84046156D01*
X111854863Y-83986142D01*
X111842120Y-83961662D01*
X111711010Y-83805410D01*
X111694121Y-83791239D01*
X111519880Y-83690641D01*
X111499163Y-83683100D01*
X111306462Y-83649122D01*
X111295501Y-83648163D01*
X109681742Y-83648163D01*
X109665366Y-83650319D01*
X109503388Y-83693721D01*
X109531751Y-83614068D01*
X109534370Y-83604292D01*
X109580063Y-83355332D01*
X109581097Y-83344599D01*
X109584082Y-83059596D01*
X109583273Y-83048844D01*
X109542804Y-82798981D01*
X109540390Y-82789152D01*
X109460597Y-82549287D01*
X109456642Y-82539971D01*
X109339527Y-82315949D01*
X109334134Y-82307384D01*
X109182708Y-82104969D01*
X109176014Y-82097377D01*
X108994174Y-81921776D01*
X108986353Y-81915351D01*
X108778775Y-81771081D01*
X108770028Y-81765990D01*
X108542056Y-81656764D01*
X108532607Y-81653137D01*
X108290103Y-81581765D01*
X108280196Y-81579695D01*
X108029402Y-81548011D01*
X108019290Y-81547552D01*
X107766656Y-81556374D01*
X107756601Y-81557538D01*
X107508628Y-81606639D01*
X107498889Y-81609394D01*
X107261956Y-81697508D01*
X107252783Y-81701786D01*
X107032984Y-81826649D01*
X107024613Y-81832338D01*
X106827606Y-81990737D01*
X106820252Y-81997691D01*
X106651104Y-82185548D01*
X106644956Y-82193589D01*
X106508019Y-82406075D01*
X106503236Y-82414994D01*
X106402032Y-82646639D01*
X106398737Y-82656209D01*
X106335871Y-82901056D01*
X106334148Y-82911030D01*
X106311238Y-83162777D01*
X106311132Y-83172898D01*
X104502895Y-83172898D01*
X104504082Y-83059596D01*
X104503273Y-83048844D01*
X104462804Y-82798981D01*
X104460390Y-82789152D01*
X104380597Y-82549287D01*
X104376642Y-82539971D01*
X104259527Y-82315949D01*
X104254134Y-82307384D01*
X104102708Y-82104969D01*
X104096014Y-82097377D01*
X103914174Y-81921776D01*
X103906353Y-81915351D01*
X103698775Y-81771081D01*
X103690028Y-81765990D01*
X103462056Y-81656764D01*
X103452607Y-81653137D01*
X103210103Y-81581765D01*
X103200196Y-81579695D01*
X102949402Y-81548011D01*
X102939290Y-81547552D01*
X102686656Y-81556374D01*
X102676601Y-81557538D01*
X102428628Y-81606639D01*
X102418889Y-81609394D01*
X102181956Y-81697508D01*
X102172783Y-81701786D01*
X101952984Y-81826649D01*
X101944613Y-81832338D01*
X101747606Y-81990737D01*
X101740252Y-81997691D01*
X101571104Y-82185548D01*
X101564956Y-82193589D01*
X101428019Y-82406075D01*
X101423236Y-82414994D01*
X101322032Y-82646639D01*
X101318737Y-82656209D01*
X101255871Y-82901056D01*
X101254148Y-82911030D01*
X101231238Y-83162777D01*
X101231132Y-83172898D01*
X96932342Y-83172898D01*
X96931655Y-83170166D01*
X96850253Y-82931050D01*
X96846130Y-82921566D01*
X96726767Y-82698955D01*
X96721149Y-82690271D01*
X96604398Y-82538667D01*
X96823859Y-82479863D01*
X96848339Y-82467120D01*
X97004590Y-82336010D01*
X97018761Y-82319121D01*
X97119359Y-82144880D01*
X97126900Y-82124163D01*
X97160878Y-81931462D01*
X97161837Y-81920501D01*
X97161837Y-79374000D01*
X98910405Y-79374000D01*
X98865282Y-79420726D01*
X98859303Y-79427915D01*
X98700412Y-79650673D01*
X98695561Y-79658667D01*
X98571341Y-79902463D01*
X98567725Y-79911086D01*
X98480904Y-80170565D01*
X98478602Y-80179628D01*
X98431088Y-80449090D01*
X98430152Y-80458394D01*
X98422989Y-80731919D01*
X98423437Y-80741259D01*
X98456784Y-81012839D01*
X98458608Y-81022010D01*
X98531729Y-81285677D01*
X98534889Y-81294478D01*
X98646180Y-81544442D01*
X98650606Y-81552679D01*
X98797621Y-81783447D01*
X98803215Y-81790939D01*
X98982726Y-81997442D01*
X98989367Y-82004025D01*
X99197429Y-82181727D01*
X99204969Y-82187256D01*
X99437011Y-82332252D01*
X99445286Y-82336605D01*
X99696212Y-82445711D01*
X99705040Y-82448794D01*
X99969335Y-82519611D01*
X99978521Y-82521355D01*
X100250382Y-82552329D01*
X100259725Y-82552696D01*
X100533178Y-82543148D01*
X100542473Y-82542130D01*
X100811510Y-82492266D01*
X100820552Y-82489885D01*
X101079264Y-82400804D01*
X101087855Y-82397113D01*
X101330559Y-82270770D01*
X101338511Y-82265849D01*
X101559872Y-82105020D01*
X101567009Y-82098979D01*
X101762168Y-81907197D01*
X101768333Y-81900166D01*
X101933002Y-81681644D01*
X101938060Y-81673780D01*
X102068620Y-81433319D01*
X102072460Y-81424794D01*
X102166043Y-81167675D01*
X102168581Y-81158676D01*
X102223297Y-80889741D01*
X102224543Y-80878809D01*
X102234183Y-80510665D01*
X102233511Y-80499683D01*
X102192946Y-80228252D01*
X102190882Y-80219132D01*
X102110883Y-79957468D01*
X102107494Y-79948753D01*
X101989698Y-79701789D01*
X101985058Y-79693671D01*
X101832052Y-79466831D01*
X101826264Y-79459488D01*
X101747929Y-79374000D01*
X103990405Y-79374000D01*
X103945282Y-79420726D01*
X103939303Y-79427915D01*
X103780412Y-79650673D01*
X103775561Y-79658667D01*
X103651341Y-79902463D01*
X103647725Y-79911086D01*
X103560904Y-80170565D01*
X103558602Y-80179628D01*
X103511088Y-80449090D01*
X103510152Y-80458394D01*
X103502989Y-80731919D01*
X103503437Y-80741259D01*
X103536784Y-81012839D01*
X103538608Y-81022010D01*
X103611729Y-81285677D01*
X103614889Y-81294478D01*
X103726180Y-81544442D01*
X103730606Y-81552679D01*
X103877621Y-81783447D01*
X103883215Y-81790939D01*
X104062726Y-81997442D01*
X104069367Y-82004025D01*
X104277429Y-82181727D01*
X104284969Y-82187256D01*
X104517011Y-82332252D01*
X104525286Y-82336605D01*
X104776212Y-82445711D01*
X104785040Y-82448794D01*
X105049335Y-82519611D01*
X105058521Y-82521355D01*
X105330382Y-82552329D01*
X105339725Y-82552696D01*
X105613178Y-82543148D01*
X105622473Y-82542130D01*
X105891510Y-82492266D01*
X105900552Y-82489885D01*
X106159264Y-82400804D01*
X106167855Y-82397113D01*
X106410559Y-82270770D01*
X106418511Y-82265849D01*
X106639872Y-82105020D01*
X106647009Y-82098979D01*
X106842168Y-81907197D01*
X106848333Y-81900166D01*
X107013002Y-81681644D01*
X107018060Y-81673780D01*
X107148620Y-81433319D01*
X107152460Y-81424794D01*
X107246043Y-81167675D01*
X107248581Y-81158676D01*
X107303297Y-80889741D01*
X107304543Y-80878809D01*
X107314183Y-80510665D01*
X107313511Y-80499683D01*
X107272946Y-80228252D01*
X107270882Y-80219132D01*
X107190883Y-79957468D01*
X107187494Y-79948753D01*
X107069698Y-79701789D01*
X107065058Y-79693671D01*
X106912052Y-79466831D01*
X106906264Y-79459488D01*
X106827929Y-79374000D01*
X111041963Y-79374000D01*
X111041963Y-81237458D01*
X111044119Y-81253834D01*
X111118937Y-81533059D01*
X111131680Y-81557539D01*
X111262790Y-81713790D01*
X111279679Y-81727961D01*
X111453920Y-81828559D01*
X111474637Y-81836100D01*
X111667338Y-81870078D01*
X111678299Y-81871037D01*
X112925547Y-81871037D01*
X115005002Y-83950493D01*
X115005002Y-87425879D01*
X114892056Y-87371764D01*
X114882607Y-87368137D01*
X114640103Y-87296765D01*
X114630196Y-87294695D01*
X114379402Y-87263011D01*
X114369290Y-87262552D01*
X114116656Y-87271374D01*
X114106601Y-87272538D01*
X113858628Y-87321639D01*
X113848889Y-87324394D01*
X113611956Y-87412508D01*
X113602783Y-87416786D01*
X113382984Y-87541649D01*
X113374613Y-87547338D01*
X113177606Y-87705737D01*
X113170252Y-87712691D01*
X113001104Y-87900548D01*
X112994956Y-87908589D01*
X112858019Y-88121075D01*
X112853236Y-88129994D01*
X112752032Y-88361639D01*
X112748737Y-88371209D01*
X112685871Y-88616056D01*
X112684148Y-88626030D01*
X112661238Y-88877777D01*
X112661132Y-88887898D01*
X112678766Y-89140071D01*
X112680279Y-89150078D01*
X112718428Y-89312725D01*
X112390550Y-89640604D01*
X112375997Y-89649786D01*
X112362325Y-89661422D01*
X112306326Y-89724829D01*
X112286342Y-89744812D01*
X112280470Y-89751585D01*
X112267993Y-89768232D01*
X112217613Y-89825277D01*
X112207756Y-89840283D01*
X112197295Y-89862563D01*
X112182531Y-89882263D01*
X112173909Y-89898011D01*
X112147190Y-89969284D01*
X112114768Y-90038341D01*
X112109460Y-90055895D01*
X112105971Y-90079236D01*
X112097172Y-90102710D01*
X112093317Y-90120244D01*
X112086862Y-90207103D01*
X112083693Y-90228306D01*
X112083000Y-90237629D01*
X112083000Y-90259076D01*
X112077117Y-90338250D01*
X112078338Y-90356161D01*
X112083000Y-90378000D01*
X112082999Y-96378154D01*
X109544214Y-98916940D01*
X109430897Y-98896959D01*
X109419936Y-98896000D01*
X109180064Y-98896000D01*
X109169103Y-98896959D01*
X108932874Y-98938613D01*
X108922247Y-98941460D01*
X108696840Y-99023502D01*
X108686868Y-99028152D01*
X108479132Y-99148088D01*
X108470119Y-99154399D01*
X108286366Y-99308587D01*
X108278587Y-99316366D01*
X108124399Y-99500119D01*
X108118088Y-99509132D01*
X107998152Y-99716868D01*
X107993502Y-99726840D01*
X107911460Y-99952247D01*
X107908613Y-99962874D01*
X107866959Y-100199103D01*
X107866000Y-100210064D01*
X107866000Y-100449936D01*
X107866959Y-100460897D01*
X107908613Y-100697126D01*
X107911460Y-100707753D01*
X107993502Y-100933160D01*
X107998152Y-100943132D01*
X108118088Y-101150868D01*
X108124399Y-101159881D01*
X108278587Y-101343634D01*
X108286366Y-101351413D01*
X108470119Y-101505601D01*
X108479132Y-101511912D01*
X108686868Y-101631848D01*
X108696840Y-101636498D01*
X108922247Y-101718540D01*
X108932874Y-101721387D01*
X109169103Y-101763041D01*
X109180064Y-101764000D01*
X109419936Y-101764000D01*
X109430897Y-101763041D01*
X109667126Y-101721387D01*
X109677753Y-101718540D01*
X109903160Y-101636498D01*
X109913132Y-101631848D01*
X110120868Y-101511912D01*
X110129881Y-101505601D01*
X110313634Y-101351413D01*
X110321413Y-101343634D01*
X110475601Y-101159881D01*
X110481912Y-101150868D01*
X110601848Y-100943132D01*
X110606498Y-100933160D01*
X110688540Y-100707753D01*
X110691387Y-100697126D01*
X110733041Y-100460897D01*
X110734000Y-100449936D01*
X110734000Y-100210064D01*
X110733041Y-100199103D01*
X110713060Y-100085786D01*
X113103040Y-97695805D01*
X113118088Y-97721868D01*
X113124399Y-97730881D01*
X113278587Y-97914634D01*
X113286366Y-97922413D01*
X113470119Y-98076601D01*
X113479132Y-98082912D01*
X113686868Y-98202848D01*
X113696840Y-98207498D01*
X113922247Y-98289540D01*
X113932874Y-98292387D01*
X114169103Y-98334041D01*
X114180064Y-98335000D01*
X114419936Y-98335000D01*
X114430897Y-98334041D01*
X114667126Y-98292387D01*
X114677753Y-98289540D01*
X114903160Y-98207498D01*
X114913132Y-98202848D01*
X115005002Y-98149807D01*
X115005002Y-99081193D01*
X114913132Y-99028152D01*
X114903160Y-99023502D01*
X114677753Y-98941460D01*
X114667126Y-98938613D01*
X114430897Y-98896959D01*
X114419936Y-98896000D01*
X114180064Y-98896000D01*
X114169103Y-98896959D01*
X113932874Y-98938613D01*
X113922247Y-98941460D01*
X113696840Y-99023502D01*
X113686868Y-99028152D01*
X113479132Y-99148088D01*
X113470119Y-99154399D01*
X113286366Y-99308587D01*
X113278587Y-99316366D01*
X113124399Y-99500119D01*
X113118088Y-99509132D01*
X112998152Y-99716868D01*
X112993502Y-99726840D01*
X112911460Y-99952247D01*
X112908613Y-99962874D01*
X112866959Y-100199103D01*
X112866000Y-100210064D01*
X112866000Y-100449936D01*
X112866959Y-100460897D01*
X112908613Y-100697126D01*
X112911460Y-100707753D01*
X112993502Y-100933160D01*
X112998152Y-100943132D01*
X113118088Y-101150868D01*
X113124399Y-101159881D01*
X113278587Y-101343634D01*
X113286366Y-101351413D01*
X113470119Y-101505601D01*
X113479132Y-101511912D01*
X113686868Y-101631848D01*
X113696840Y-101636498D01*
X113922247Y-101718540D01*
X113932874Y-101721387D01*
X114169103Y-101763041D01*
X114180064Y-101764000D01*
X114419936Y-101764000D01*
X114430897Y-101763041D01*
X114667126Y-101721387D01*
X114677753Y-101718540D01*
X114903160Y-101636498D01*
X114913132Y-101631848D01*
X115005002Y-101578807D01*
X115005002Y-102030879D01*
X114892056Y-101976764D01*
X114882607Y-101973137D01*
X114640103Y-101901765D01*
X114630196Y-101899695D01*
X114379402Y-101868011D01*
X114369290Y-101867552D01*
X114116656Y-101876374D01*
X114106601Y-101877538D01*
X113858628Y-101926639D01*
X113848889Y-101929394D01*
X113611956Y-102017508D01*
X113602783Y-102021786D01*
X113382984Y-102146649D01*
X113374613Y-102152338D01*
X113177606Y-102310737D01*
X113170252Y-102317691D01*
X113001104Y-102505548D01*
X112994956Y-102513589D01*
X112858019Y-102726075D01*
X112853236Y-102734994D01*
X112752032Y-102966639D01*
X112748737Y-102976209D01*
X112685871Y-103221056D01*
X112684148Y-103231030D01*
X112661238Y-103482777D01*
X112661132Y-103492898D01*
X112678766Y-103745071D01*
X112680279Y-103755078D01*
X112738004Y-104001187D01*
X112741098Y-104010824D01*
X112837428Y-104244538D01*
X112842023Y-104253556D01*
X112974480Y-104468862D01*
X112980458Y-104477030D01*
X113145634Y-104668390D01*
X113152841Y-104675497D01*
X113271610Y-104775155D01*
X113177606Y-104850737D01*
X113170252Y-104857691D01*
X113001104Y-105045548D01*
X112994956Y-105053589D01*
X112858019Y-105266075D01*
X112853236Y-105274994D01*
X112752032Y-105506639D01*
X112748737Y-105516209D01*
X112685872Y-105761052D01*
X112684150Y-105771017D01*
X112678327Y-105834912D01*
X112753273Y-105917000D01*
X114428000Y-105917000D01*
X114428000Y-106173000D01*
X112749708Y-106173000D01*
X112674039Y-106268471D01*
X112738004Y-106541187D01*
X112741098Y-106550824D01*
X112837428Y-106784538D01*
X112842023Y-106793556D01*
X112974480Y-107008862D01*
X112980458Y-107017030D01*
X113145634Y-107208390D01*
X113152841Y-107215497D01*
X113271610Y-107315155D01*
X113177606Y-107390737D01*
X113170252Y-107397691D01*
X113001104Y-107585548D01*
X112994956Y-107593589D01*
X112858019Y-107806075D01*
X112853236Y-107814994D01*
X112752032Y-108046639D01*
X112748737Y-108056209D01*
X112685871Y-108301056D01*
X112684148Y-108311030D01*
X112661238Y-108562777D01*
X112661132Y-108572898D01*
X112678766Y-108825071D01*
X112680279Y-108835078D01*
X112738004Y-109081187D01*
X112741098Y-109090824D01*
X112837428Y-109324538D01*
X112842023Y-109333556D01*
X112974480Y-109548862D01*
X112980458Y-109557030D01*
X113145634Y-109748390D01*
X113152841Y-109755497D01*
X113271610Y-109855155D01*
X113177606Y-109930737D01*
X113170252Y-109937691D01*
X113001104Y-110125548D01*
X112994956Y-110133589D01*
X112858019Y-110346075D01*
X112853236Y-110354994D01*
X112752032Y-110586639D01*
X112748737Y-110596209D01*
X112685871Y-110841056D01*
X112684148Y-110851030D01*
X112661238Y-111102777D01*
X112661132Y-111112898D01*
X112678766Y-111365071D01*
X112680279Y-111375078D01*
X112738004Y-111621187D01*
X112741098Y-111630824D01*
X112837428Y-111864538D01*
X112842023Y-111873556D01*
X112974480Y-112088862D01*
X112980458Y-112097030D01*
X113145634Y-112288390D01*
X113152841Y-112295497D01*
X113271610Y-112395155D01*
X113177606Y-112470737D01*
X113170252Y-112477691D01*
X113001104Y-112665548D01*
X112994956Y-112673589D01*
X112858019Y-112886075D01*
X112853236Y-112894994D01*
X112752032Y-113126639D01*
X112748737Y-113136209D01*
X112685871Y-113381056D01*
X112684148Y-113391030D01*
X112661238Y-113642777D01*
X112661132Y-113652898D01*
X112678766Y-113905071D01*
X112680279Y-113915078D01*
X112738004Y-114161187D01*
X112741098Y-114170824D01*
X112837428Y-114404538D01*
X112842023Y-114413556D01*
X112974480Y-114628862D01*
X112980458Y-114637030D01*
X113145634Y-114828390D01*
X113152841Y-114835497D01*
X113271610Y-114935155D01*
X113177606Y-115010737D01*
X113170252Y-115017691D01*
X113001104Y-115205548D01*
X112994956Y-115213589D01*
X112858019Y-115426075D01*
X112853236Y-115434994D01*
X112752032Y-115666639D01*
X112748737Y-115676209D01*
X112685871Y-115921056D01*
X112684148Y-115931030D01*
X112661238Y-116182777D01*
X112661132Y-116192898D01*
X112678766Y-116445071D01*
X112680279Y-116455078D01*
X112738004Y-116701187D01*
X112741098Y-116710824D01*
X112837428Y-116944538D01*
X112842023Y-116953556D01*
X112974480Y-117168862D01*
X112980458Y-117177030D01*
X113145634Y-117368390D01*
X113152841Y-117375497D01*
X113271610Y-117475155D01*
X113177606Y-117550737D01*
X113170252Y-117557691D01*
X113001104Y-117745548D01*
X112994956Y-117753589D01*
X112858019Y-117966075D01*
X112853236Y-117974994D01*
X112752032Y-118206639D01*
X112748737Y-118216209D01*
X112685871Y-118461056D01*
X112684148Y-118471030D01*
X112661238Y-118722777D01*
X112661132Y-118732898D01*
X112678766Y-118985071D01*
X112680279Y-118995078D01*
X112738004Y-119241187D01*
X112741098Y-119250824D01*
X112837428Y-119484538D01*
X112842023Y-119493556D01*
X112974480Y-119708862D01*
X112980458Y-119717030D01*
X113145634Y-119908390D01*
X113152841Y-119915497D01*
X113271610Y-120015155D01*
X113177606Y-120090737D01*
X113170252Y-120097691D01*
X113001104Y-120285548D01*
X112994956Y-120293589D01*
X112858019Y-120506075D01*
X112853236Y-120514994D01*
X112752032Y-120746639D01*
X112748737Y-120756209D01*
X112685871Y-121001056D01*
X112684148Y-121011030D01*
X112661238Y-121262777D01*
X112661132Y-121272898D01*
X112678766Y-121525071D01*
X112680279Y-121535078D01*
X112738004Y-121781187D01*
X112741098Y-121790824D01*
X112837428Y-122024538D01*
X112842023Y-122033556D01*
X112974480Y-122248862D01*
X112980458Y-122257030D01*
X113145634Y-122448390D01*
X113152841Y-122455497D01*
X113271610Y-122555155D01*
X113177606Y-122630737D01*
X113170252Y-122637691D01*
X113001104Y-122825548D01*
X112994956Y-122833589D01*
X112858019Y-123046075D01*
X112853236Y-123054994D01*
X112752032Y-123286639D01*
X112748737Y-123296209D01*
X112685872Y-123541052D01*
X112684150Y-123551017D01*
X112678327Y-123614912D01*
X112753273Y-123697000D01*
X114428000Y-123697000D01*
X114428000Y-125370741D01*
X114511379Y-125445815D01*
X114596504Y-125436869D01*
X114606453Y-125435007D01*
X114850398Y-125368728D01*
X114859920Y-125365300D01*
X115005001Y-125299489D01*
X115005001Y-128402062D01*
X114771897Y-128360959D01*
X114760936Y-128360000D01*
X114521064Y-128360000D01*
X114510103Y-128360959D01*
X114273874Y-128402613D01*
X114263247Y-128405460D01*
X114037840Y-128487502D01*
X114027868Y-128492152D01*
X113794397Y-128626947D01*
X113778177Y-128750156D01*
X114822020Y-129794000D01*
X114551905Y-130064115D01*
X113778177Y-130837844D01*
X113794397Y-130961053D01*
X113972014Y-131063601D01*
X113950414Y-131085201D01*
X113341940Y-131085201D01*
X113425590Y-131015010D01*
X113439761Y-130998121D01*
X113540359Y-130823880D01*
X113547900Y-130803163D01*
X113574235Y-130653806D01*
X113597156Y-130656823D01*
X114407790Y-129846191D01*
X114407790Y-129741809D01*
X113597156Y-128931177D01*
X113571358Y-128934573D01*
X113505863Y-128690142D01*
X113493120Y-128665662D01*
X113362010Y-128509410D01*
X113345121Y-128495239D01*
X113170880Y-128394641D01*
X113150163Y-128387100D01*
X112957462Y-128353122D01*
X112946501Y-128352163D01*
X111332742Y-128352163D01*
X111316366Y-128354319D01*
X111037142Y-128429137D01*
X111012662Y-128441880D01*
X110856410Y-128572990D01*
X110842239Y-128589879D01*
X110741641Y-128764120D01*
X110734100Y-128784837D01*
X110700122Y-128977538D01*
X110699163Y-128988499D01*
X110699163Y-129334104D01*
X110662837Y-129300229D01*
X110654721Y-129293819D01*
X110444332Y-129154036D01*
X110435278Y-129149038D01*
X110204883Y-129045495D01*
X110195134Y-129042043D01*
X109950923Y-128977519D01*
X109940742Y-128975706D01*
X109874902Y-128969482D01*
X109792500Y-129044461D01*
X109792500Y-130684000D01*
X109536500Y-130684000D01*
X109536500Y-129040957D01*
X109440684Y-128965286D01*
X109171013Y-129029531D01*
X109161183Y-129032743D01*
X108928327Y-129130627D01*
X108919154Y-129135402D01*
X108705412Y-129270003D01*
X108697142Y-129276212D01*
X108660423Y-129308812D01*
X108654563Y-129286942D01*
X108641820Y-129262462D01*
X108510710Y-129106210D01*
X108493821Y-129092039D01*
X108319580Y-128991441D01*
X108298863Y-128983900D01*
X108106162Y-128949922D01*
X108095201Y-128948963D01*
X106994144Y-128948963D01*
X106997028Y-128929662D01*
X107005826Y-128906194D01*
X107009681Y-128888659D01*
X107016135Y-128801819D01*
X107019306Y-128780600D01*
X107019999Y-128771274D01*
X107019999Y-128749822D01*
X107025882Y-128670652D01*
X107024661Y-128652741D01*
X107019999Y-128630901D01*
X107019999Y-124146085D01*
X107023795Y-124129309D01*
X107025235Y-124111414D01*
X107019999Y-124027014D01*
X107019999Y-123998720D01*
X107019362Y-123989778D01*
X107016411Y-123969172D01*
X107011699Y-123893225D01*
X107008059Y-123875645D01*
X106999701Y-123852493D01*
X106996211Y-123828121D01*
X106991172Y-123810890D01*
X106959670Y-123741605D01*
X106933763Y-123669842D01*
X106925103Y-123653675D01*
X106911064Y-123634701D01*
X106900690Y-123611886D01*
X106891018Y-123596761D01*
X106834174Y-123530791D01*
X106821412Y-123513544D01*
X106815308Y-123506461D01*
X106806560Y-123497713D01*
X106826541Y-123384397D01*
X106827500Y-123373436D01*
X106827500Y-123133564D01*
X106826541Y-123122603D01*
X106784887Y-122886374D01*
X106782040Y-122875747D01*
X106699998Y-122650340D01*
X106695348Y-122640368D01*
X106575412Y-122432632D01*
X106569101Y-122423619D01*
X106414913Y-122239866D01*
X106407134Y-122232087D01*
X106223381Y-122077899D01*
X106214368Y-122071588D01*
X106006632Y-121951652D01*
X105996660Y-121947002D01*
X105771253Y-121864960D01*
X105760626Y-121862113D01*
X105524397Y-121820459D01*
X105513436Y-121819500D01*
X105273564Y-121819500D01*
X105262603Y-121820459D01*
X105026374Y-121862113D01*
X105015747Y-121864960D01*
X104790340Y-121947002D01*
X104780368Y-121951652D01*
X104572632Y-122071588D01*
X104563619Y-122077899D01*
X104379866Y-122232087D01*
X104372087Y-122239866D01*
X104217899Y-122423619D01*
X104211588Y-122432632D01*
X104091652Y-122640368D01*
X104087002Y-122650340D01*
X104004960Y-122875747D01*
X104002113Y-122886374D01*
X103960459Y-123122603D01*
X103959500Y-123133564D01*
X103959500Y-123373436D01*
X103960459Y-123384397D01*
X104002113Y-123620626D01*
X104004960Y-123631253D01*
X104087002Y-123856660D01*
X104091652Y-123866632D01*
X104211588Y-124074368D01*
X104217899Y-124083381D01*
X104372087Y-124267134D01*
X104379866Y-124274913D01*
X104563619Y-124429101D01*
X104572632Y-124435412D01*
X104780368Y-124555348D01*
X104790340Y-124559998D01*
X105015747Y-124642040D01*
X105026374Y-124644887D01*
X105262603Y-124686541D01*
X105273564Y-124687500D01*
X105367000Y-124687500D01*
X105367000Y-125151495D01*
X105366014Y-125150377D01*
X105184174Y-124974776D01*
X105176353Y-124968351D01*
X104968775Y-124824081D01*
X104960028Y-124818990D01*
X104732056Y-124709764D01*
X104722607Y-124706137D01*
X104480103Y-124634765D01*
X104470196Y-124632695D01*
X104219402Y-124601011D01*
X104209290Y-124600552D01*
X103956656Y-124609374D01*
X103946601Y-124610538D01*
X103698628Y-124659639D01*
X103688889Y-124662394D01*
X103451956Y-124750508D01*
X103442783Y-124754786D01*
X103222984Y-124879649D01*
X103214613Y-124885338D01*
X103017606Y-125043737D01*
X103010252Y-125050691D01*
X102841104Y-125238548D01*
X102834956Y-125246589D01*
X102778251Y-125334578D01*
X102704622Y-125243002D01*
X102697256Y-125235280D01*
X102510303Y-125069878D01*
X102501740Y-125063507D01*
X102289591Y-124931970D01*
X102280078Y-124927133D01*
X102048800Y-124833221D01*
X102038608Y-124830056D01*
X101794813Y-124776454D01*
X101784234Y-124775052D01*
X101534892Y-124763294D01*
X101524228Y-124763694D01*
X101276470Y-124794114D01*
X101266025Y-124796306D01*
X101026935Y-124868037D01*
X101017009Y-124871957D01*
X100793423Y-124982946D01*
X100784300Y-124988482D01*
X100582611Y-125135556D01*
X100574550Y-125142551D01*
X100535074Y-125183145D01*
X100512163Y-125097642D01*
X100499420Y-125073162D01*
X100368310Y-124916910D01*
X100351421Y-124902739D01*
X100177180Y-124802141D01*
X100156463Y-124794600D01*
X99963762Y-124760622D01*
X99952801Y-124759663D01*
X98139042Y-124759663D01*
X98122666Y-124761819D01*
X97843442Y-124836637D01*
X97818962Y-124849380D01*
X97662710Y-124980490D01*
X97648539Y-124997379D01*
X97547941Y-125171620D01*
X97540400Y-125192337D01*
X97506422Y-125385038D01*
X97505463Y-125395999D01*
X97505463Y-126911753D01*
X97477804Y-126740981D01*
X97475390Y-126731152D01*
X97395597Y-126491287D01*
X97391642Y-126481971D01*
X97274527Y-126257949D01*
X97269134Y-126249384D01*
X97117708Y-126046969D01*
X97111014Y-126039377D01*
X96987497Y-125920098D01*
X97087968Y-125827061D01*
X97094819Y-125819610D01*
X97250451Y-125620411D01*
X97256023Y-125611961D01*
X97377804Y-125390441D01*
X97381953Y-125381209D01*
X97466751Y-125143068D01*
X97469370Y-125133292D01*
X97515063Y-124884332D01*
X97516097Y-124873599D01*
X97519082Y-124588596D01*
X97518273Y-124577844D01*
X97477804Y-124327981D01*
X97475390Y-124318152D01*
X97395597Y-124078287D01*
X97391642Y-124068971D01*
X97274527Y-123844949D01*
X97269134Y-123836384D01*
X97117708Y-123633969D01*
X97111014Y-123626377D01*
X96929174Y-123450776D01*
X96921353Y-123444351D01*
X96877426Y-123413821D01*
X97043160Y-123353498D01*
X97053132Y-123348848D01*
X97260868Y-123228912D01*
X97269881Y-123222601D01*
X97453634Y-123068413D01*
X97461413Y-123060634D01*
X97615601Y-122876881D01*
X97621912Y-122867868D01*
X97741848Y-122660132D01*
X97746498Y-122650160D01*
X97828540Y-122424753D01*
X97831387Y-122414126D01*
X97873041Y-122177897D01*
X97874000Y-122166936D01*
X97874000Y-121927064D01*
X97873041Y-121916103D01*
X97831387Y-121679874D01*
X97828540Y-121669247D01*
X97746498Y-121443840D01*
X97741848Y-121433868D01*
X97621912Y-121226132D01*
X97615601Y-121217119D01*
X97461413Y-121033366D01*
X97453634Y-121025587D01*
X97269881Y-120871399D01*
X97260868Y-120865088D01*
X97053132Y-120745152D01*
X97043160Y-120740502D01*
X96817753Y-120658460D01*
X96807126Y-120655613D01*
X96570897Y-120613959D01*
X96559936Y-120613000D01*
X96323445Y-120613000D01*
X96452968Y-120493061D01*
X96459819Y-120485610D01*
X96615451Y-120286411D01*
X96621023Y-120277961D01*
X96742804Y-120056441D01*
X96746953Y-120047209D01*
X96801129Y-119895064D01*
X98896000Y-119895064D01*
X98896000Y-120134936D01*
X98896959Y-120145897D01*
X98938613Y-120382126D01*
X98941460Y-120392753D01*
X99023502Y-120618160D01*
X99028152Y-120628132D01*
X99148088Y-120835868D01*
X99154399Y-120844881D01*
X99308587Y-121028634D01*
X99316366Y-121036413D01*
X99500119Y-121190601D01*
X99509132Y-121196912D01*
X99716868Y-121316848D01*
X99726840Y-121321498D01*
X99952247Y-121403540D01*
X99962874Y-121406387D01*
X100199103Y-121448041D01*
X100210064Y-121449000D01*
X100449936Y-121449000D01*
X100460897Y-121448041D01*
X100697126Y-121406387D01*
X100707753Y-121403540D01*
X100933160Y-121321498D01*
X100943132Y-121316848D01*
X101150868Y-121196912D01*
X101159881Y-121190601D01*
X101343634Y-121036413D01*
X101351413Y-121028634D01*
X101505601Y-120844881D01*
X101511912Y-120835868D01*
X101631848Y-120628132D01*
X101636498Y-120618160D01*
X101718540Y-120392753D01*
X101721387Y-120382126D01*
X101763041Y-120145897D01*
X101764000Y-120134936D01*
X101764000Y-119895064D01*
X101763041Y-119884103D01*
X101721387Y-119647874D01*
X101718540Y-119637247D01*
X101636498Y-119411840D01*
X101631848Y-119401868D01*
X101511912Y-119194132D01*
X101505601Y-119185119D01*
X101351413Y-119001366D01*
X101343634Y-118993587D01*
X101159881Y-118839399D01*
X101150868Y-118833088D01*
X100943132Y-118713152D01*
X100933160Y-118708502D01*
X100707753Y-118626460D01*
X100697126Y-118623613D01*
X100460897Y-118581959D01*
X100449936Y-118581000D01*
X100210064Y-118581000D01*
X100199103Y-118581959D01*
X99962874Y-118623613D01*
X99952247Y-118626460D01*
X99726840Y-118708502D01*
X99716868Y-118713152D01*
X99509132Y-118833088D01*
X99500119Y-118839399D01*
X99316366Y-118993587D01*
X99308587Y-119001366D01*
X99154399Y-119185119D01*
X99148088Y-119194132D01*
X99028152Y-119401868D01*
X99023502Y-119411840D01*
X98941460Y-119637247D01*
X98938613Y-119647874D01*
X98896959Y-119884103D01*
X98896000Y-119895064D01*
X96801129Y-119895064D01*
X96831751Y-119809069D01*
X96834370Y-119799292D01*
X96871188Y-119598693D01*
X96795626Y-119508000D01*
X95451809Y-119508000D01*
X95378000Y-119581809D01*
X95378000Y-120925741D01*
X95458730Y-120998430D01*
X95426366Y-121025587D01*
X95418587Y-121033366D01*
X95264399Y-121217119D01*
X95258088Y-121226132D01*
X95138152Y-121433868D01*
X95133502Y-121443840D01*
X95051460Y-121669247D01*
X95048613Y-121679874D01*
X95006959Y-121916103D01*
X95006000Y-121927064D01*
X95006000Y-122166936D01*
X95006959Y-122177897D01*
X95048613Y-122414126D01*
X95051460Y-122424753D01*
X95133502Y-122650160D01*
X95138152Y-122660132D01*
X95258088Y-122867868D01*
X95264399Y-122876881D01*
X95418587Y-123060634D01*
X95426366Y-123068413D01*
X95494482Y-123125569D01*
X95443628Y-123135639D01*
X95433889Y-123138394D01*
X95196956Y-123226508D01*
X95187783Y-123230786D01*
X94967984Y-123355649D01*
X94959613Y-123361338D01*
X94762606Y-123519737D01*
X94755252Y-123526691D01*
X94586104Y-123714548D01*
X94579956Y-123722589D01*
X94443019Y-123935075D01*
X94438236Y-123943994D01*
X94337032Y-124175639D01*
X94333737Y-124185209D01*
X94270871Y-124430056D01*
X94269148Y-124440030D01*
X94246238Y-124691777D01*
X94246132Y-124701898D01*
X94263766Y-124954071D01*
X94265279Y-124964078D01*
X94323004Y-125210187D01*
X94326098Y-125219824D01*
X94422428Y-125453538D01*
X94427023Y-125462556D01*
X94559480Y-125677862D01*
X94565458Y-125686030D01*
X94730634Y-125877390D01*
X94737841Y-125884497D01*
X94779318Y-125919300D01*
X94762606Y-125932737D01*
X94755252Y-125939691D01*
X94586104Y-126127548D01*
X94579956Y-126135589D01*
X94443019Y-126348075D01*
X94438236Y-126356994D01*
X94337032Y-126588639D01*
X94333737Y-126598209D01*
X94270871Y-126843056D01*
X94269148Y-126853030D01*
X94246238Y-127104777D01*
X94246132Y-127114898D01*
X94263766Y-127367071D01*
X94265279Y-127377078D01*
X94323004Y-127623187D01*
X94326098Y-127632824D01*
X94422428Y-127866538D01*
X94427023Y-127875556D01*
X94559480Y-128090862D01*
X94565458Y-128099030D01*
X94730634Y-128290390D01*
X94737841Y-128297497D01*
X94931489Y-128459986D01*
X94939739Y-128465849D01*
X95156873Y-128595287D01*
X95165955Y-128599756D01*
X95400991Y-128692813D01*
X95410670Y-128695772D01*
X95657561Y-128750054D01*
X95667589Y-128751428D01*
X95919983Y-128765539D01*
X95930101Y-128765292D01*
X96181504Y-128738869D01*
X96191453Y-128737007D01*
X96435398Y-128670728D01*
X96444920Y-128667300D01*
X96675131Y-128562873D01*
X96683983Y-128557966D01*
X96894536Y-128418074D01*
X96902489Y-128411815D01*
X97087968Y-128240061D01*
X97094819Y-128232610D01*
X97250451Y-128033411D01*
X97256023Y-128024961D01*
X97377804Y-127803441D01*
X97381953Y-127794209D01*
X97466751Y-127556068D01*
X97469370Y-127546292D01*
X97515063Y-127297332D01*
X97516097Y-127286599D01*
X97516388Y-127258859D01*
X97582437Y-127505359D01*
X97595180Y-127529839D01*
X97726290Y-127686090D01*
X97743179Y-127700261D01*
X97917420Y-127800859D01*
X97938137Y-127808400D01*
X98130838Y-127842378D01*
X98141799Y-127843337D01*
X99955558Y-127843337D01*
X99971934Y-127841181D01*
X100251159Y-127766363D01*
X100275639Y-127753620D01*
X100431890Y-127622510D01*
X100446061Y-127605621D01*
X100545521Y-127433350D01*
X100552487Y-127440794D01*
X100560412Y-127447942D01*
X100759241Y-127598861D01*
X100768257Y-127604571D01*
X100989671Y-127719832D01*
X100999520Y-127723942D01*
X101237189Y-127800249D01*
X101247590Y-127802640D01*
X101494717Y-127837812D01*
X101505372Y-127838417D01*
X101754893Y-127831448D01*
X101765498Y-127830249D01*
X102010277Y-127781337D01*
X102020528Y-127778368D01*
X102253567Y-127688913D01*
X102263171Y-127684260D01*
X102477806Y-127556819D01*
X102486488Y-127550614D01*
X102676583Y-127388831D01*
X102684096Y-127381252D01*
X102823913Y-127214033D01*
X102985634Y-127401390D01*
X102992841Y-127408497D01*
X103186489Y-127570986D01*
X103194739Y-127576849D01*
X103411873Y-127706287D01*
X103420955Y-127710756D01*
X103655991Y-127803813D01*
X103665670Y-127806772D01*
X103912561Y-127861054D01*
X103922589Y-127862428D01*
X104174983Y-127876539D01*
X104185101Y-127876292D01*
X104436504Y-127849869D01*
X104446453Y-127848007D01*
X104690398Y-127781728D01*
X104699920Y-127778300D01*
X104930131Y-127673873D01*
X104938983Y-127668966D01*
X105149536Y-127529074D01*
X105157489Y-127522815D01*
X105342968Y-127351061D01*
X105349819Y-127343610D01*
X105366999Y-127321621D01*
X105366999Y-128376055D01*
X104511185Y-129231869D01*
X104413723Y-129206119D01*
X104403542Y-129204306D01*
X104152070Y-129180535D01*
X104141729Y-129180408D01*
X103889751Y-129198029D01*
X103879529Y-129199593D01*
X103633813Y-129258131D01*
X103623983Y-129261343D01*
X103391127Y-129359227D01*
X103381954Y-129364002D01*
X103168212Y-129498603D01*
X103159942Y-129504812D01*
X102971054Y-129672514D01*
X102963909Y-129679991D01*
X102856927Y-129812103D01*
X102777331Y-129708746D01*
X102770372Y-129701097D01*
X102585637Y-129528829D01*
X102577521Y-129522419D01*
X102367132Y-129382636D01*
X102358078Y-129377638D01*
X102127683Y-129274095D01*
X102117934Y-129270643D01*
X101873723Y-129206119D01*
X101863542Y-129204306D01*
X101612070Y-129180535D01*
X101601729Y-129180408D01*
X101349751Y-129198029D01*
X101339529Y-129199593D01*
X101093813Y-129258131D01*
X101083983Y-129261343D01*
X100851127Y-129359227D01*
X100841954Y-129364002D01*
X100628212Y-129498603D01*
X100619942Y-129504812D01*
X100431054Y-129672514D01*
X100423909Y-129679991D01*
X100316927Y-129812103D01*
X100237331Y-129708746D01*
X100230372Y-129701097D01*
X100045637Y-129528829D01*
X100037521Y-129522419D01*
X99827132Y-129382636D01*
X99818078Y-129377638D01*
X99587683Y-129274095D01*
X99577934Y-129270643D01*
X99333723Y-129206119D01*
X99323542Y-129204306D01*
X99257702Y-129198082D01*
X99175300Y-129273061D01*
X99175300Y-130912600D01*
X98919300Y-130912600D01*
X98919300Y-129269557D01*
X98823484Y-129193886D01*
X98553813Y-129258131D01*
X98543983Y-129261343D01*
X98311127Y-129359227D01*
X98301954Y-129364002D01*
X98088212Y-129498603D01*
X98079942Y-129504812D01*
X98043223Y-129537412D01*
X98037363Y-129515542D01*
X98024620Y-129491062D01*
X97893510Y-129334810D01*
X97876621Y-129320639D01*
X97702380Y-129220041D01*
X97681663Y-129212500D01*
X97488962Y-129178522D01*
X97478001Y-129177563D01*
X95533842Y-129177563D01*
X95517466Y-129179719D01*
X95238242Y-129254537D01*
X95213762Y-129267280D01*
X95057510Y-129398390D01*
X95043339Y-129415279D01*
X94942741Y-129589520D01*
X94935200Y-129610237D01*
X94901222Y-129802938D01*
X94900263Y-129813899D01*
X94900263Y-131758058D01*
X94902419Y-131774434D01*
X94977237Y-132053659D01*
X94989980Y-132078139D01*
X94992381Y-132081000D01*
X88645000Y-132081000D01*
X88645000Y-119968076D01*
X88707428Y-120119538D01*
X88712023Y-120128556D01*
X88844480Y-120343862D01*
X88850458Y-120352030D01*
X89015634Y-120543390D01*
X89022841Y-120550497D01*
X89216489Y-120712986D01*
X89224739Y-120718849D01*
X89441873Y-120848287D01*
X89450955Y-120852756D01*
X89685991Y-120945813D01*
X89695670Y-120948772D01*
X89942561Y-121003054D01*
X89952589Y-121004428D01*
X90204983Y-121018539D01*
X90215101Y-121018292D01*
X90466504Y-120991869D01*
X90466562Y-120991858D01*
X90426366Y-121025587D01*
X90418587Y-121033366D01*
X90264399Y-121217119D01*
X90258088Y-121226132D01*
X90138152Y-121433868D01*
X90133502Y-121443840D01*
X90051460Y-121669247D01*
X90048613Y-121679874D01*
X90006959Y-121916103D01*
X90006000Y-121927064D01*
X90006000Y-122166936D01*
X90006959Y-122177897D01*
X90048613Y-122414126D01*
X90051460Y-122424753D01*
X90133502Y-122650160D01*
X90138152Y-122660132D01*
X90258088Y-122867868D01*
X90264399Y-122876881D01*
X90418587Y-123060634D01*
X90426366Y-123068413D01*
X90479208Y-123112753D01*
X90363628Y-123135639D01*
X90353889Y-123138394D01*
X90116956Y-123226508D01*
X90107783Y-123230786D01*
X89887984Y-123355649D01*
X89879613Y-123361338D01*
X89682606Y-123519737D01*
X89675252Y-123526691D01*
X89506104Y-123714548D01*
X89499956Y-123722589D01*
X89363019Y-123935075D01*
X89358236Y-123943994D01*
X89257032Y-124175639D01*
X89253737Y-124185209D01*
X89190871Y-124430056D01*
X89189148Y-124440030D01*
X89166238Y-124691777D01*
X89166132Y-124701898D01*
X89183766Y-124954071D01*
X89185279Y-124964078D01*
X89243004Y-125210187D01*
X89246098Y-125219824D01*
X89342428Y-125453538D01*
X89347023Y-125462556D01*
X89479480Y-125677862D01*
X89485458Y-125686030D01*
X89650634Y-125877390D01*
X89657841Y-125884497D01*
X89699318Y-125919300D01*
X89682606Y-125932737D01*
X89675252Y-125939691D01*
X89506104Y-126127548D01*
X89499956Y-126135589D01*
X89363019Y-126348075D01*
X89358236Y-126356994D01*
X89257032Y-126588639D01*
X89253737Y-126598209D01*
X89190871Y-126843056D01*
X89189148Y-126853030D01*
X89166238Y-127104777D01*
X89166132Y-127114898D01*
X89183766Y-127367071D01*
X89185279Y-127377078D01*
X89243004Y-127623187D01*
X89246098Y-127632824D01*
X89342428Y-127866538D01*
X89347023Y-127875556D01*
X89479480Y-128090862D01*
X89485458Y-128099030D01*
X89650634Y-128290390D01*
X89657841Y-128297497D01*
X89851489Y-128459986D01*
X89859739Y-128465849D01*
X90076873Y-128595287D01*
X90085955Y-128599756D01*
X90320991Y-128692813D01*
X90330670Y-128695772D01*
X90577561Y-128750054D01*
X90587589Y-128751428D01*
X90839983Y-128765539D01*
X90850101Y-128765292D01*
X91101504Y-128738869D01*
X91111453Y-128737007D01*
X91355398Y-128670728D01*
X91364920Y-128667300D01*
X91595131Y-128562873D01*
X91603983Y-128557966D01*
X91814536Y-128418074D01*
X91822489Y-128411815D01*
X92007968Y-128240061D01*
X92014819Y-128232610D01*
X92170451Y-128033411D01*
X92176023Y-128024961D01*
X92297804Y-127803441D01*
X92301953Y-127794209D01*
X92386751Y-127556068D01*
X92389370Y-127546292D01*
X92435063Y-127297332D01*
X92436097Y-127286599D01*
X92439082Y-127001596D01*
X92438273Y-126990844D01*
X92397804Y-126740981D01*
X92395390Y-126731152D01*
X92315597Y-126491287D01*
X92311642Y-126481971D01*
X92194527Y-126257949D01*
X92189134Y-126249384D01*
X92037708Y-126046969D01*
X92031014Y-126039377D01*
X91907497Y-125920098D01*
X92007968Y-125827061D01*
X92014819Y-125819610D01*
X92170451Y-125620411D01*
X92176023Y-125611961D01*
X92297804Y-125390441D01*
X92301953Y-125381209D01*
X92386751Y-125143068D01*
X92389370Y-125133292D01*
X92435063Y-124884332D01*
X92436097Y-124873599D01*
X92439082Y-124588596D01*
X92438273Y-124577844D01*
X92397804Y-124327981D01*
X92395390Y-124318152D01*
X92315597Y-124078287D01*
X92311642Y-124068971D01*
X92194527Y-123844949D01*
X92189134Y-123836384D01*
X92037708Y-123633969D01*
X92031014Y-123626377D01*
X91849174Y-123450776D01*
X91841353Y-123444351D01*
X91824922Y-123432931D01*
X92043160Y-123353498D01*
X92053132Y-123348848D01*
X92260868Y-123228912D01*
X92269881Y-123222601D01*
X92453634Y-123068413D01*
X92461413Y-123060634D01*
X92615601Y-122876881D01*
X92621912Y-122867868D01*
X92741848Y-122660132D01*
X92746498Y-122650160D01*
X92828540Y-122424753D01*
X92831387Y-122414126D01*
X92873041Y-122177897D01*
X92874000Y-122166936D01*
X92874000Y-121927064D01*
X92873041Y-121916103D01*
X92831387Y-121679874D01*
X92828540Y-121669247D01*
X92746498Y-121443840D01*
X92741848Y-121433868D01*
X92621912Y-121226132D01*
X92615601Y-121217119D01*
X92461413Y-121033366D01*
X92453634Y-121025587D01*
X92269881Y-120871399D01*
X92260868Y-120865088D01*
X92053132Y-120745152D01*
X92043160Y-120740502D01*
X91817753Y-120658460D01*
X91807126Y-120655613D01*
X91570897Y-120613959D01*
X91559936Y-120613000D01*
X91320064Y-120613000D01*
X91309103Y-120613959D01*
X91226722Y-120628485D01*
X91372968Y-120493061D01*
X91379819Y-120485610D01*
X91535451Y-120286411D01*
X91541023Y-120277961D01*
X91662804Y-120056441D01*
X91666953Y-120047209D01*
X91751751Y-119809068D01*
X91754370Y-119799292D01*
X91790310Y-119603471D01*
X93624039Y-119603471D01*
X93688004Y-119876187D01*
X93691098Y-119885824D01*
X93787428Y-120119538D01*
X93792023Y-120128556D01*
X93924480Y-120343862D01*
X93930458Y-120352030D01*
X94095634Y-120543390D01*
X94102841Y-120550497D01*
X94296489Y-120712986D01*
X94304739Y-120718849D01*
X94521873Y-120848287D01*
X94530955Y-120852756D01*
X94765991Y-120945813D01*
X94775670Y-120948772D01*
X95027904Y-121004229D01*
X95122000Y-120928574D01*
X95122000Y-119581809D01*
X95048191Y-119508000D01*
X93699708Y-119508000D01*
X93624039Y-119603471D01*
X91790310Y-119603471D01*
X91800063Y-119550332D01*
X91801097Y-119539599D01*
X91804082Y-119254596D01*
X91803273Y-119243844D01*
X91762804Y-118993981D01*
X91760390Y-118984152D01*
X91680597Y-118744287D01*
X91676642Y-118734971D01*
X91559527Y-118510949D01*
X91554134Y-118502384D01*
X91402708Y-118299969D01*
X91396014Y-118292377D01*
X91214173Y-118116776D01*
X91206352Y-118110351D01*
X91204500Y-118109064D01*
X91372968Y-117953061D01*
X91379819Y-117945610D01*
X91535451Y-117746411D01*
X91541023Y-117737961D01*
X91662804Y-117516441D01*
X91666953Y-117507209D01*
X91751751Y-117269068D01*
X91754370Y-117259292D01*
X91800063Y-117010332D01*
X91801097Y-116999599D01*
X91804082Y-116714596D01*
X91803273Y-116703844D01*
X91762804Y-116453981D01*
X91760390Y-116444152D01*
X91680597Y-116204287D01*
X91676642Y-116194971D01*
X91559527Y-115970949D01*
X91554134Y-115962384D01*
X91402708Y-115759969D01*
X91396014Y-115752377D01*
X91214173Y-115576776D01*
X91206352Y-115570351D01*
X91204500Y-115569064D01*
X91372968Y-115413061D01*
X91379819Y-115405610D01*
X91535451Y-115206411D01*
X91541023Y-115197961D01*
X91662804Y-114976441D01*
X91666953Y-114967209D01*
X91751751Y-114729068D01*
X91754370Y-114719292D01*
X91800063Y-114470332D01*
X91801097Y-114459599D01*
X91804082Y-114174596D01*
X91803273Y-114163844D01*
X91762804Y-113913981D01*
X91760390Y-113904152D01*
X91680597Y-113664287D01*
X91676642Y-113654971D01*
X91559527Y-113430949D01*
X91554134Y-113422384D01*
X91402708Y-113219969D01*
X91396014Y-113212377D01*
X91214173Y-113036776D01*
X91206352Y-113030351D01*
X91204500Y-113029064D01*
X91372968Y-112873061D01*
X91379819Y-112865610D01*
X91535451Y-112666411D01*
X91541023Y-112657961D01*
X91662804Y-112436441D01*
X91666953Y-112427209D01*
X91751751Y-112189068D01*
X91754370Y-112179292D01*
X91786327Y-112005173D01*
X92060103Y-112278950D01*
X92069286Y-112293504D01*
X92080921Y-112307175D01*
X92144328Y-112363174D01*
X92164311Y-112383158D01*
X92171086Y-112389032D01*
X92187728Y-112401503D01*
X92244775Y-112451886D01*
X92259781Y-112461743D01*
X92282065Y-112472205D01*
X92301761Y-112486967D01*
X92317509Y-112495589D01*
X92388765Y-112522302D01*
X92457840Y-112554732D01*
X92475394Y-112560040D01*
X92498742Y-112563530D01*
X92522208Y-112572326D01*
X92539741Y-112576181D01*
X92626569Y-112582634D01*
X92647805Y-112585807D01*
X92657128Y-112586500D01*
X92678592Y-112586500D01*
X92757748Y-112592382D01*
X92775660Y-112591161D01*
X92797494Y-112586500D01*
X93839974Y-112586500D01*
X93924480Y-112723863D01*
X93930458Y-112732030D01*
X94095634Y-112923390D01*
X94102841Y-112930497D01*
X94221610Y-113030155D01*
X94127606Y-113105737D01*
X94120252Y-113112691D01*
X93951104Y-113300548D01*
X93944956Y-113308589D01*
X93808019Y-113521075D01*
X93803236Y-113529994D01*
X93702032Y-113761639D01*
X93698737Y-113771209D01*
X93635871Y-114016056D01*
X93634148Y-114026030D01*
X93611238Y-114277777D01*
X93611132Y-114287898D01*
X93628766Y-114540071D01*
X93630279Y-114550078D01*
X93688004Y-114796187D01*
X93691098Y-114805824D01*
X93787428Y-115039538D01*
X93792023Y-115048556D01*
X93924480Y-115263862D01*
X93930458Y-115272030D01*
X94095634Y-115463390D01*
X94102841Y-115470497D01*
X94221610Y-115570155D01*
X94127606Y-115645737D01*
X94120252Y-115652691D01*
X93951104Y-115840548D01*
X93944956Y-115848589D01*
X93808019Y-116061075D01*
X93803236Y-116069994D01*
X93702032Y-116301639D01*
X93698737Y-116311209D01*
X93635871Y-116556056D01*
X93634148Y-116566030D01*
X93611238Y-116817777D01*
X93611132Y-116827898D01*
X93628766Y-117080071D01*
X93630279Y-117090078D01*
X93688004Y-117336187D01*
X93691098Y-117345824D01*
X93787428Y-117579538D01*
X93792023Y-117588556D01*
X93924480Y-117803862D01*
X93930458Y-117812030D01*
X94095634Y-118003390D01*
X94102841Y-118010497D01*
X94221610Y-118110155D01*
X94127606Y-118185737D01*
X94120252Y-118192691D01*
X93951104Y-118380548D01*
X93944956Y-118388589D01*
X93808019Y-118601075D01*
X93803236Y-118609994D01*
X93702032Y-118841639D01*
X93698737Y-118851209D01*
X93635872Y-119096052D01*
X93634150Y-119106017D01*
X93628327Y-119169912D01*
X93703273Y-119252000D01*
X96794765Y-119252000D01*
X96870233Y-119163326D01*
X96842804Y-118993981D01*
X96840390Y-118984152D01*
X96760597Y-118744287D01*
X96756642Y-118734971D01*
X96639527Y-118510949D01*
X96634134Y-118502384D01*
X96482708Y-118299969D01*
X96476014Y-118292377D01*
X96294173Y-118116776D01*
X96286352Y-118110351D01*
X96284500Y-118109064D01*
X96452968Y-117953061D01*
X96459819Y-117945610D01*
X96615451Y-117746411D01*
X96621023Y-117737961D01*
X96742804Y-117516441D01*
X96746953Y-117507209D01*
X96749953Y-117498785D01*
X96776042Y-117554734D01*
X96781543Y-117564262D01*
X96919129Y-117760755D01*
X96926202Y-117769183D01*
X97095817Y-117938798D01*
X97104245Y-117945871D01*
X97300738Y-118083457D01*
X97310266Y-118088958D01*
X97527665Y-118190333D01*
X97538004Y-118194096D01*
X97769704Y-118256180D01*
X97780539Y-118258090D01*
X97959652Y-118273760D01*
X97965146Y-118274000D01*
X98223191Y-118274000D01*
X98297000Y-118200191D01*
X98297000Y-117041809D01*
X98553000Y-117041809D01*
X98553000Y-118200191D01*
X98626809Y-118274000D01*
X98884854Y-118274000D01*
X98890348Y-118273760D01*
X99069461Y-118258090D01*
X99080296Y-118256180D01*
X99311996Y-118194096D01*
X99322335Y-118190333D01*
X99539734Y-118088958D01*
X99549262Y-118083457D01*
X99745755Y-117945871D01*
X99754183Y-117938798D01*
X99923798Y-117769183D01*
X99930871Y-117760755D01*
X100068457Y-117564262D01*
X100073958Y-117554734D01*
X100175333Y-117337335D01*
X100179096Y-117326996D01*
X100248871Y-117066592D01*
X100173218Y-116968000D01*
X98626809Y-116968000D01*
X98553000Y-117041809D01*
X98297000Y-117041809D01*
X98297000Y-116712000D01*
X100173218Y-116712000D01*
X100248871Y-116613408D01*
X100179096Y-116353004D01*
X100175333Y-116342665D01*
X100073958Y-116125266D01*
X100068457Y-116115738D01*
X99930871Y-115919245D01*
X99923798Y-115910817D01*
X99754183Y-115741202D01*
X99745755Y-115734129D01*
X99549262Y-115596543D01*
X99539734Y-115591042D01*
X99494609Y-115570000D01*
X99539734Y-115548958D01*
X99549262Y-115543457D01*
X99745755Y-115405871D01*
X99754183Y-115398798D01*
X99923798Y-115229183D01*
X99930871Y-115220755D01*
X100068457Y-115024262D01*
X100073958Y-115014734D01*
X100175333Y-114797335D01*
X100179096Y-114786996D01*
X100241180Y-114555296D01*
X100243090Y-114544461D01*
X100263996Y-114305501D01*
X100263996Y-114294499D01*
X100243090Y-114055539D01*
X100241180Y-114044704D01*
X100179096Y-113813004D01*
X100175333Y-113802665D01*
X100073958Y-113585266D01*
X100068457Y-113575738D01*
X99930871Y-113379245D01*
X99923798Y-113370817D01*
X99754183Y-113201202D01*
X99745755Y-113194129D01*
X99549262Y-113056543D01*
X99539734Y-113051042D01*
X99494609Y-113030000D01*
X99539734Y-113008958D01*
X99549262Y-113003457D01*
X99745755Y-112865871D01*
X99754183Y-112858798D01*
X99923798Y-112689183D01*
X99930871Y-112680755D01*
X100068457Y-112484262D01*
X100073958Y-112474734D01*
X100175333Y-112257335D01*
X100179096Y-112246996D01*
X100241180Y-112015296D01*
X100243090Y-112004461D01*
X100263996Y-111765501D01*
X100263996Y-111754499D01*
X100243090Y-111515539D01*
X100241180Y-111504704D01*
X100179096Y-111273004D01*
X100175333Y-111262665D01*
X100073958Y-111045266D01*
X100068457Y-111035738D01*
X99930871Y-110839245D01*
X99923798Y-110830817D01*
X99754183Y-110661202D01*
X99745755Y-110654129D01*
X99724887Y-110639517D01*
X99928859Y-110584863D01*
X99953339Y-110572120D01*
X100109590Y-110441010D01*
X100123761Y-110424121D01*
X100224359Y-110249880D01*
X100231900Y-110229163D01*
X100265878Y-110036462D01*
X100266837Y-110025501D01*
X100266837Y-108411742D01*
X100264681Y-108395366D01*
X100189863Y-108116142D01*
X100177120Y-108091662D01*
X100046010Y-107935410D01*
X100029121Y-107921239D01*
X99854880Y-107820641D01*
X99834163Y-107813100D01*
X99641462Y-107779122D01*
X99630501Y-107778163D01*
X97216742Y-107778163D01*
X97200366Y-107780319D01*
X97122723Y-107801123D01*
X97465786Y-107458061D01*
X97579103Y-107478041D01*
X97590064Y-107479000D01*
X97829936Y-107479000D01*
X97840897Y-107478041D01*
X98077126Y-107436387D01*
X98087753Y-107433540D01*
X98313160Y-107351498D01*
X98323132Y-107346848D01*
X98530868Y-107226912D01*
X98539881Y-107220601D01*
X98723634Y-107066413D01*
X98731413Y-107058634D01*
X98885601Y-106874881D01*
X98891912Y-106865868D01*
X98976849Y-106718753D01*
X103267044Y-111008949D01*
X103276227Y-111023503D01*
X103287863Y-111037175D01*
X103351262Y-111093167D01*
X103371252Y-111113158D01*
X103378026Y-111119031D01*
X103394677Y-111131510D01*
X103451718Y-111181887D01*
X103466724Y-111191744D01*
X103489006Y-111202206D01*
X103508703Y-111216968D01*
X103524451Y-111225590D01*
X103595715Y-111252305D01*
X103664782Y-111284732D01*
X103682337Y-111290041D01*
X103705681Y-111293529D01*
X103729149Y-111302327D01*
X103746683Y-111306182D01*
X103833528Y-111312636D01*
X103854747Y-111315807D01*
X103864070Y-111316500D01*
X103885530Y-111316500D01*
X103964690Y-111322382D01*
X103982601Y-111321161D01*
X104004436Y-111316500D01*
X104279249Y-111316500D01*
X104228820Y-111504704D01*
X104226910Y-111515539D01*
X104206004Y-111754499D01*
X104206004Y-111765501D01*
X104226910Y-112004461D01*
X104228820Y-112015296D01*
X104290904Y-112246996D01*
X104294667Y-112257335D01*
X104396042Y-112474734D01*
X104401543Y-112484262D01*
X104539129Y-112680755D01*
X104546202Y-112689183D01*
X104715817Y-112858798D01*
X104724245Y-112865871D01*
X104920738Y-113003457D01*
X104930266Y-113008958D01*
X104975391Y-113030000D01*
X104930266Y-113051042D01*
X104920738Y-113056543D01*
X104724245Y-113194129D01*
X104715817Y-113201202D01*
X104546202Y-113370817D01*
X104539129Y-113379245D01*
X104401543Y-113575738D01*
X104396042Y-113585266D01*
X104294667Y-113802665D01*
X104290904Y-113813004D01*
X104228820Y-114044704D01*
X104226910Y-114055539D01*
X104206004Y-114294499D01*
X104206004Y-114305501D01*
X104226910Y-114544461D01*
X104228820Y-114555296D01*
X104290904Y-114786996D01*
X104294667Y-114797335D01*
X104396042Y-115014734D01*
X104401543Y-115024262D01*
X104539129Y-115220755D01*
X104546202Y-115229183D01*
X104715817Y-115398798D01*
X104724245Y-115405871D01*
X104920738Y-115543457D01*
X104930266Y-115548958D01*
X104975391Y-115570000D01*
X104930266Y-115591042D01*
X104920738Y-115596543D01*
X104724245Y-115734129D01*
X104715817Y-115741202D01*
X104546202Y-115910817D01*
X104539129Y-115919245D01*
X104401543Y-116115738D01*
X104396042Y-116125266D01*
X104294667Y-116342665D01*
X104290904Y-116353004D01*
X104228820Y-116584704D01*
X104226910Y-116595539D01*
X104206004Y-116834499D01*
X104206004Y-116845501D01*
X104226910Y-117084461D01*
X104228820Y-117095296D01*
X104290904Y-117326996D01*
X104294667Y-117337335D01*
X104396042Y-117554734D01*
X104401543Y-117564262D01*
X104539129Y-117760755D01*
X104546202Y-117769183D01*
X104627586Y-117850567D01*
X100637714Y-121840440D01*
X100524397Y-121820459D01*
X100513436Y-121819500D01*
X100273564Y-121819500D01*
X100262603Y-121820459D01*
X100026374Y-121862113D01*
X100015747Y-121864960D01*
X99790340Y-121947002D01*
X99780368Y-121951652D01*
X99572632Y-122071588D01*
X99563619Y-122077899D01*
X99379866Y-122232087D01*
X99372087Y-122239866D01*
X99217899Y-122423619D01*
X99211588Y-122432632D01*
X99091652Y-122640368D01*
X99087002Y-122650340D01*
X99004960Y-122875747D01*
X99002113Y-122886374D01*
X98960459Y-123122603D01*
X98959500Y-123133564D01*
X98959500Y-123373436D01*
X98960459Y-123384397D01*
X99002113Y-123620626D01*
X99004960Y-123631253D01*
X99087002Y-123856660D01*
X99091652Y-123866632D01*
X99211588Y-124074368D01*
X99217899Y-124083381D01*
X99372087Y-124267134D01*
X99379866Y-124274913D01*
X99563619Y-124429101D01*
X99572632Y-124435412D01*
X99780368Y-124555348D01*
X99790340Y-124559998D01*
X100015747Y-124642040D01*
X100026374Y-124644887D01*
X100262603Y-124686541D01*
X100273564Y-124687500D01*
X100513436Y-124687500D01*
X100524397Y-124686541D01*
X100760626Y-124644887D01*
X100771253Y-124642040D01*
X100996660Y-124559998D01*
X101006632Y-124555348D01*
X101214368Y-124435412D01*
X101223381Y-124429101D01*
X101407134Y-124274913D01*
X101414913Y-124267134D01*
X101569101Y-124083381D01*
X101575412Y-124074368D01*
X101695348Y-123866632D01*
X101699998Y-123856660D01*
X101782040Y-123631253D01*
X101784887Y-123620626D01*
X101826541Y-123384397D01*
X101827500Y-123373436D01*
X101827500Y-123133564D01*
X101826541Y-123122603D01*
X101806560Y-123009285D01*
X104086556Y-120729290D01*
X104148088Y-120835868D01*
X104154399Y-120844881D01*
X104308587Y-121028634D01*
X104316366Y-121036413D01*
X104500119Y-121190601D01*
X104509132Y-121196912D01*
X104716868Y-121316848D01*
X104726840Y-121321498D01*
X104952247Y-121403540D01*
X104962874Y-121406387D01*
X105199103Y-121448041D01*
X105210064Y-121449000D01*
X105449936Y-121449000D01*
X105460897Y-121448041D01*
X105697126Y-121406387D01*
X105707753Y-121403540D01*
X105933160Y-121321498D01*
X105943132Y-121316848D01*
X106150868Y-121196912D01*
X106159881Y-121190601D01*
X106343634Y-121036413D01*
X106351413Y-121028634D01*
X106505601Y-120844881D01*
X106511912Y-120835868D01*
X106631848Y-120628132D01*
X106636498Y-120618160D01*
X106718540Y-120392753D01*
X106721387Y-120382126D01*
X106763041Y-120145897D01*
X106764000Y-120134936D01*
X106764000Y-119895064D01*
X106763041Y-119884103D01*
X106721387Y-119647874D01*
X106718540Y-119637247D01*
X106636498Y-119411840D01*
X106631848Y-119401868D01*
X106511912Y-119194132D01*
X106505601Y-119185119D01*
X106351413Y-119001366D01*
X106343634Y-118993587D01*
X106180869Y-118857010D01*
X107301899Y-118857010D01*
X107318680Y-118860807D01*
X107336576Y-118862247D01*
X107420985Y-118857010D01*
X107449268Y-118857010D01*
X107458209Y-118856373D01*
X107478815Y-118853423D01*
X107554764Y-118848710D01*
X107572344Y-118845069D01*
X107588566Y-118839213D01*
X107598766Y-118985071D01*
X107600279Y-118995078D01*
X107658004Y-119241187D01*
X107661098Y-119250824D01*
X107757428Y-119484538D01*
X107762023Y-119493556D01*
X107894480Y-119708862D01*
X107900458Y-119717030D01*
X108065634Y-119908390D01*
X108072841Y-119915497D01*
X108191610Y-120015155D01*
X108097606Y-120090737D01*
X108090252Y-120097691D01*
X107921104Y-120285548D01*
X107914956Y-120293589D01*
X107778019Y-120506075D01*
X107773236Y-120514994D01*
X107672032Y-120746639D01*
X107668737Y-120756209D01*
X107605871Y-121001056D01*
X107604148Y-121011030D01*
X107581238Y-121262777D01*
X107581132Y-121272898D01*
X107598766Y-121525071D01*
X107600279Y-121535078D01*
X107658004Y-121781187D01*
X107661098Y-121790824D01*
X107757428Y-122024538D01*
X107762023Y-122033556D01*
X107894480Y-122248862D01*
X107900458Y-122257030D01*
X108065634Y-122448390D01*
X108072841Y-122455497D01*
X108191610Y-122555155D01*
X108097606Y-122630737D01*
X108090252Y-122637691D01*
X107921104Y-122825548D01*
X107914956Y-122833589D01*
X107778019Y-123046075D01*
X107773236Y-123054994D01*
X107672032Y-123286639D01*
X107668737Y-123296209D01*
X107605871Y-123541056D01*
X107604148Y-123551030D01*
X107581238Y-123802777D01*
X107581132Y-123812898D01*
X107598766Y-124065071D01*
X107600279Y-124075078D01*
X107658004Y-124321187D01*
X107661098Y-124330824D01*
X107757428Y-124564538D01*
X107762023Y-124573556D01*
X107894480Y-124788862D01*
X107900458Y-124797030D01*
X108065634Y-124988390D01*
X108072841Y-124995497D01*
X108266489Y-125157986D01*
X108274739Y-125163849D01*
X108491873Y-125293287D01*
X108500955Y-125297756D01*
X108735991Y-125390813D01*
X108745670Y-125393772D01*
X108992561Y-125448054D01*
X109002589Y-125449428D01*
X109254983Y-125463539D01*
X109265101Y-125463292D01*
X109516504Y-125436869D01*
X109526453Y-125435007D01*
X109770398Y-125368728D01*
X109779920Y-125365300D01*
X110010131Y-125260873D01*
X110018983Y-125255966D01*
X110125534Y-125185173D01*
X110119122Y-125221538D01*
X110118163Y-125232499D01*
X110118163Y-127246258D01*
X110120319Y-127262634D01*
X110195137Y-127541859D01*
X110207880Y-127566339D01*
X110338990Y-127722590D01*
X110355879Y-127736761D01*
X110530120Y-127837359D01*
X110550837Y-127844900D01*
X110743538Y-127878878D01*
X110754499Y-127879837D01*
X112768258Y-127879837D01*
X112784634Y-127877681D01*
X113063859Y-127802863D01*
X113088339Y-127790120D01*
X113244590Y-127659010D01*
X113258761Y-127642121D01*
X113359359Y-127467880D01*
X113366900Y-127447163D01*
X113400878Y-127254462D01*
X113401837Y-127243501D01*
X113401837Y-125229742D01*
X113399681Y-125213366D01*
X113392434Y-125186320D01*
X113571873Y-125293287D01*
X113580955Y-125297756D01*
X113815991Y-125390813D01*
X113825670Y-125393772D01*
X114077904Y-125449229D01*
X114172000Y-125373574D01*
X114172000Y-124026809D01*
X114098191Y-123953000D01*
X112749708Y-123953000D01*
X112674039Y-124048471D01*
X112738004Y-124321187D01*
X112741098Y-124330824D01*
X112837428Y-124564538D01*
X112842023Y-124573556D01*
X112866262Y-124612956D01*
X112776462Y-124597122D01*
X112765501Y-124596163D01*
X112319800Y-124596163D01*
X112319800Y-110805656D01*
X112326830Y-110752257D01*
X112326830Y-110735741D01*
X112296671Y-110506660D01*
X112292396Y-110490706D01*
X112241129Y-110366936D01*
X112203974Y-110277237D01*
X112195716Y-110262933D01*
X112055057Y-110079622D01*
X112043378Y-110067943D01*
X112000639Y-110035148D01*
X110830021Y-108864531D01*
X110850063Y-108755332D01*
X110851097Y-108744599D01*
X110854082Y-108459596D01*
X110853273Y-108448844D01*
X110812804Y-108198981D01*
X110810390Y-108189152D01*
X110730597Y-107949287D01*
X110726642Y-107939971D01*
X110609527Y-107715949D01*
X110604134Y-107707384D01*
X110452708Y-107504969D01*
X110446014Y-107497377D01*
X110264173Y-107321776D01*
X110256352Y-107315351D01*
X110254500Y-107314064D01*
X110422968Y-107158061D01*
X110429819Y-107150610D01*
X110585451Y-106951411D01*
X110591023Y-106942961D01*
X110712804Y-106721441D01*
X110716953Y-106712209D01*
X110801751Y-106474068D01*
X110804370Y-106464292D01*
X110850063Y-106215332D01*
X110851097Y-106204599D01*
X110854082Y-105919596D01*
X110853273Y-105908844D01*
X110812804Y-105658981D01*
X110810390Y-105649152D01*
X110730597Y-105409287D01*
X110726642Y-105399971D01*
X110609527Y-105175949D01*
X110604134Y-105167384D01*
X110452708Y-104964969D01*
X110446014Y-104957377D01*
X110264173Y-104781776D01*
X110256352Y-104775351D01*
X110254500Y-104774064D01*
X110422968Y-104618061D01*
X110429819Y-104610610D01*
X110585451Y-104411411D01*
X110591023Y-104402961D01*
X110712804Y-104181441D01*
X110716953Y-104172209D01*
X110801751Y-103934068D01*
X110804370Y-103924292D01*
X110850063Y-103675332D01*
X110851097Y-103664599D01*
X110854082Y-103379596D01*
X110853273Y-103368844D01*
X110812804Y-103118981D01*
X110810390Y-103109152D01*
X110730597Y-102869287D01*
X110726642Y-102859971D01*
X110609527Y-102635949D01*
X110604134Y-102627384D01*
X110452708Y-102424969D01*
X110446014Y-102417377D01*
X110264174Y-102241776D01*
X110256353Y-102235351D01*
X110048775Y-102091081D01*
X110040028Y-102085990D01*
X109812056Y-101976764D01*
X109802607Y-101973137D01*
X109560103Y-101901765D01*
X109550196Y-101899695D01*
X109299402Y-101868011D01*
X109289290Y-101867552D01*
X109036656Y-101876374D01*
X109026601Y-101877538D01*
X108778628Y-101926639D01*
X108768889Y-101929394D01*
X108531956Y-102017508D01*
X108522783Y-102021786D01*
X108302984Y-102146649D01*
X108294613Y-102152338D01*
X108097606Y-102310737D01*
X108090252Y-102317691D01*
X107921104Y-102505548D01*
X107914956Y-102513589D01*
X107778019Y-102726075D01*
X107773236Y-102734994D01*
X107672032Y-102966639D01*
X107668737Y-102976209D01*
X107605871Y-103221056D01*
X107604148Y-103231030D01*
X107581238Y-103482777D01*
X107581132Y-103492898D01*
X107598766Y-103745071D01*
X107600279Y-103755078D01*
X107658004Y-104001187D01*
X107661098Y-104010824D01*
X107757428Y-104244538D01*
X107762023Y-104253556D01*
X107894480Y-104468862D01*
X107900458Y-104477030D01*
X108065634Y-104668390D01*
X108072841Y-104675497D01*
X108191610Y-104775155D01*
X108097606Y-104850737D01*
X108090252Y-104857691D01*
X107921104Y-105045548D01*
X107914956Y-105053589D01*
X107897565Y-105080575D01*
X107851174Y-105035776D01*
X107843353Y-105029351D01*
X107635775Y-104885081D01*
X107627028Y-104879990D01*
X107399056Y-104770764D01*
X107389607Y-104767137D01*
X107147103Y-104695765D01*
X107137196Y-104693695D01*
X106886402Y-104662011D01*
X106876290Y-104661552D01*
X106623656Y-104670374D01*
X106613601Y-104671538D01*
X106365628Y-104720639D01*
X106355889Y-104723394D01*
X106118956Y-104811508D01*
X106109783Y-104815786D01*
X105889984Y-104940649D01*
X105881613Y-104946338D01*
X105684606Y-105104737D01*
X105677252Y-105111691D01*
X105508104Y-105299548D01*
X105501956Y-105307589D01*
X105469340Y-105358200D01*
X105037692Y-105358200D01*
X104588801Y-104909310D01*
X104588801Y-100031782D01*
X104715817Y-100158798D01*
X104724245Y-100165871D01*
X104920738Y-100303457D01*
X104930266Y-100308958D01*
X105147665Y-100410333D01*
X105158004Y-100414096D01*
X105389704Y-100476180D01*
X105400539Y-100478090D01*
X105579652Y-100493760D01*
X105585146Y-100494000D01*
X106504854Y-100494000D01*
X106510348Y-100493760D01*
X106689461Y-100478090D01*
X106700296Y-100476180D01*
X106931996Y-100414096D01*
X106942335Y-100410333D01*
X107159734Y-100308958D01*
X107169262Y-100303457D01*
X107365755Y-100165871D01*
X107374183Y-100158798D01*
X107543798Y-99989183D01*
X107550871Y-99980755D01*
X107688457Y-99784262D01*
X107693958Y-99774734D01*
X107795333Y-99557335D01*
X107799096Y-99546996D01*
X107861180Y-99315296D01*
X107863090Y-99304461D01*
X107883996Y-99065501D01*
X107883996Y-99054499D01*
X107863090Y-98815539D01*
X107861180Y-98804704D01*
X107799096Y-98573004D01*
X107795333Y-98562665D01*
X107693958Y-98345266D01*
X107688457Y-98335738D01*
X107550871Y-98139245D01*
X107543798Y-98130817D01*
X107374183Y-97961202D01*
X107365755Y-97954129D01*
X107169262Y-97816543D01*
X107159734Y-97811042D01*
X107114609Y-97790000D01*
X107159734Y-97768958D01*
X107169262Y-97763457D01*
X107365755Y-97625871D01*
X107374183Y-97618798D01*
X107543798Y-97449183D01*
X107550871Y-97440755D01*
X107688457Y-97244262D01*
X107693958Y-97234734D01*
X107795333Y-97017335D01*
X107799096Y-97006996D01*
X107861180Y-96775296D01*
X107863090Y-96764461D01*
X107883996Y-96525501D01*
X107883996Y-96514499D01*
X107863090Y-96275539D01*
X107861180Y-96264704D01*
X107799096Y-96033004D01*
X107795333Y-96022665D01*
X107693958Y-95805266D01*
X107688457Y-95795738D01*
X107550871Y-95599245D01*
X107543798Y-95590817D01*
X107374183Y-95421202D01*
X107365755Y-95414129D01*
X107169262Y-95276543D01*
X107159734Y-95271042D01*
X107114609Y-95250000D01*
X107159734Y-95228958D01*
X107169262Y-95223457D01*
X107365755Y-95085871D01*
X107374183Y-95078798D01*
X107543798Y-94909183D01*
X107550871Y-94900755D01*
X107688457Y-94704262D01*
X107693958Y-94694734D01*
X107722222Y-94634122D01*
X107757428Y-94719538D01*
X107762023Y-94728556D01*
X107894480Y-94943862D01*
X107900458Y-94952030D01*
X108065634Y-95143390D01*
X108072841Y-95150497D01*
X108266489Y-95312986D01*
X108274739Y-95318849D01*
X108491873Y-95448287D01*
X108500955Y-95452756D01*
X108735991Y-95545813D01*
X108745670Y-95548772D01*
X108793555Y-95559300D01*
X108696840Y-95594502D01*
X108686868Y-95599152D01*
X108479132Y-95719088D01*
X108470119Y-95725399D01*
X108286366Y-95879587D01*
X108278587Y-95887366D01*
X108124399Y-96071119D01*
X108118088Y-96080132D01*
X107998152Y-96287868D01*
X107993502Y-96297840D01*
X107911460Y-96523247D01*
X107908613Y-96533874D01*
X107866959Y-96770103D01*
X107866000Y-96781064D01*
X107866000Y-97020936D01*
X107866959Y-97031897D01*
X107908613Y-97268126D01*
X107911460Y-97278753D01*
X107993502Y-97504160D01*
X107998152Y-97514132D01*
X108118088Y-97721868D01*
X108124399Y-97730881D01*
X108278587Y-97914634D01*
X108286366Y-97922413D01*
X108470119Y-98076601D01*
X108479132Y-98082912D01*
X108686868Y-98202848D01*
X108696840Y-98207498D01*
X108922247Y-98289540D01*
X108932874Y-98292387D01*
X109169103Y-98334041D01*
X109180064Y-98335000D01*
X109419936Y-98335000D01*
X109430897Y-98334041D01*
X109667126Y-98292387D01*
X109677753Y-98289540D01*
X109903160Y-98207498D01*
X109913132Y-98202848D01*
X110120868Y-98082912D01*
X110129881Y-98076601D01*
X110313634Y-97922413D01*
X110321413Y-97914634D01*
X110475601Y-97730881D01*
X110481912Y-97721868D01*
X110601848Y-97514132D01*
X110606498Y-97504160D01*
X110688540Y-97278753D01*
X110691387Y-97268126D01*
X110733041Y-97031897D01*
X110734000Y-97020936D01*
X110734000Y-96781064D01*
X110733041Y-96770103D01*
X110691387Y-96533874D01*
X110688540Y-96523247D01*
X110606498Y-96297840D01*
X110601848Y-96287868D01*
X110481912Y-96080132D01*
X110475601Y-96071119D01*
X110321413Y-95887366D01*
X110313634Y-95879587D01*
X110129881Y-95725399D01*
X110120868Y-95719088D01*
X109913132Y-95599152D01*
X109903160Y-95594502D01*
X109735077Y-95533324D01*
X109770398Y-95523728D01*
X109779920Y-95520300D01*
X110010131Y-95415873D01*
X110018983Y-95410966D01*
X110229536Y-95271074D01*
X110237489Y-95264815D01*
X110422968Y-95093061D01*
X110429819Y-95085610D01*
X110585451Y-94886411D01*
X110591023Y-94877961D01*
X110712804Y-94656441D01*
X110716953Y-94647209D01*
X110801751Y-94409068D01*
X110804370Y-94399292D01*
X110850063Y-94150332D01*
X110851097Y-94139599D01*
X110854082Y-93854596D01*
X110853273Y-93843844D01*
X110812804Y-93593981D01*
X110810390Y-93584152D01*
X110730597Y-93344287D01*
X110726642Y-93334971D01*
X110609527Y-93110949D01*
X110604134Y-93102384D01*
X110452708Y-92899969D01*
X110446014Y-92892377D01*
X110264173Y-92716776D01*
X110256352Y-92710351D01*
X110254500Y-92709064D01*
X110422968Y-92553061D01*
X110429819Y-92545610D01*
X110585451Y-92346411D01*
X110591023Y-92337961D01*
X110712804Y-92116441D01*
X110716953Y-92107209D01*
X110801751Y-91869068D01*
X110804370Y-91859292D01*
X110850063Y-91610332D01*
X110851097Y-91599599D01*
X110854082Y-91314596D01*
X110853273Y-91303844D01*
X110812804Y-91053981D01*
X110810390Y-91044152D01*
X110730597Y-90804287D01*
X110726642Y-90794971D01*
X110609527Y-90570949D01*
X110604134Y-90562384D01*
X110452708Y-90359969D01*
X110446014Y-90352377D01*
X110264173Y-90176776D01*
X110256352Y-90170351D01*
X110254500Y-90169064D01*
X110422968Y-90013061D01*
X110429819Y-90005610D01*
X110585451Y-89806411D01*
X110591023Y-89797961D01*
X110712804Y-89576441D01*
X110716953Y-89567209D01*
X110801751Y-89329068D01*
X110804370Y-89319292D01*
X110850063Y-89070332D01*
X110851097Y-89059599D01*
X110854082Y-88774596D01*
X110853273Y-88763844D01*
X110812804Y-88513981D01*
X110810390Y-88504152D01*
X110730597Y-88264287D01*
X110726642Y-88254971D01*
X110609527Y-88030949D01*
X110604134Y-88022384D01*
X110452708Y-87819969D01*
X110446014Y-87812377D01*
X110264174Y-87636776D01*
X110256353Y-87630351D01*
X110048775Y-87486081D01*
X110040028Y-87480990D01*
X109812056Y-87371764D01*
X109802607Y-87368137D01*
X109560103Y-87296765D01*
X109550196Y-87294695D01*
X109299402Y-87263011D01*
X109289290Y-87262552D01*
X109036656Y-87271374D01*
X109026601Y-87272538D01*
X108778628Y-87321639D01*
X108768889Y-87324394D01*
X108531956Y-87412508D01*
X108522783Y-87416786D01*
X108484559Y-87438500D01*
X106761968Y-87438500D01*
X106759601Y-87435119D01*
X106605413Y-87251366D01*
X106597634Y-87243587D01*
X106413881Y-87089399D01*
X106404868Y-87083088D01*
X106199742Y-86964659D01*
X106327131Y-86906873D01*
X106335983Y-86901966D01*
X106546536Y-86762074D01*
X106554489Y-86755815D01*
X106739968Y-86584061D01*
X106746819Y-86576610D01*
X106902451Y-86377411D01*
X106908023Y-86368961D01*
X107029804Y-86147441D01*
X107033953Y-86138209D01*
X107118751Y-85900068D01*
X107121370Y-85890292D01*
X107167063Y-85641332D01*
X107168097Y-85630599D01*
X107171082Y-85345596D01*
X107170273Y-85334844D01*
X107129804Y-85084981D01*
X107127390Y-85075152D01*
X107047597Y-84835287D01*
X107043642Y-84825971D01*
X106926527Y-84601949D01*
X106921134Y-84593384D01*
X106769708Y-84390969D01*
X106763014Y-84383377D01*
X106581174Y-84207776D01*
X106573353Y-84201351D01*
X106365775Y-84057081D01*
X106357028Y-84051990D01*
X106129056Y-83942764D01*
X106119607Y-83939137D01*
X105877103Y-83867765D01*
X105867196Y-83865695D01*
X105616402Y-83834011D01*
X105606290Y-83833552D01*
X105353656Y-83842374D01*
X105343601Y-83843538D01*
X105095628Y-83892639D01*
X105085889Y-83895394D01*
X104848956Y-83983508D01*
X104839783Y-83987786D01*
X104619984Y-84112649D01*
X104611613Y-84118338D01*
X104414606Y-84276737D01*
X104407252Y-84283691D01*
X104238104Y-84471548D01*
X104231956Y-84479589D01*
X104095019Y-84692075D01*
X104090236Y-84700994D01*
X103989032Y-84932639D01*
X103985737Y-84942209D01*
X103922871Y-85187056D01*
X103921148Y-85197030D01*
X103898238Y-85448777D01*
X103898132Y-85458898D01*
X103915766Y-85711071D01*
X103917279Y-85721078D01*
X103975004Y-85967187D01*
X103978098Y-85976824D01*
X104074428Y-86210538D01*
X104079023Y-86219556D01*
X104211480Y-86434862D01*
X104217458Y-86443030D01*
X104382634Y-86634390D01*
X104389841Y-86641497D01*
X104583489Y-86803986D01*
X104591739Y-86809849D01*
X104808873Y-86939287D01*
X104817955Y-86943756D01*
X104928592Y-86987560D01*
X104763132Y-87083088D01*
X104754119Y-87089399D01*
X104570366Y-87243587D01*
X104562587Y-87251366D01*
X104408399Y-87435119D01*
X104402088Y-87444132D01*
X104282152Y-87651868D01*
X104277502Y-87661840D01*
X104195460Y-87887247D01*
X104192613Y-87897874D01*
X104150959Y-88134103D01*
X104150000Y-88145064D01*
X104150000Y-88384936D01*
X104150959Y-88395897D01*
X104170939Y-88509214D01*
X101589056Y-91091099D01*
X101574497Y-91100285D01*
X101560825Y-91111921D01*
X101504819Y-91175336D01*
X101484844Y-91195311D01*
X101478972Y-91202083D01*
X101466498Y-91218726D01*
X101416113Y-91275777D01*
X101406257Y-91290782D01*
X101395795Y-91313065D01*
X101381032Y-91332763D01*
X101372410Y-91348510D01*
X101345695Y-91419774D01*
X101313268Y-91488841D01*
X101307959Y-91506396D01*
X101304471Y-91529740D01*
X101295673Y-91553208D01*
X101291818Y-91570743D01*
X101285364Y-91657586D01*
X101282193Y-91678805D01*
X101281500Y-91688129D01*
X101281500Y-91709588D01*
X101275618Y-91788748D01*
X101276839Y-91806659D01*
X101281500Y-91828494D01*
X101281501Y-92788803D01*
X101281500Y-98971654D01*
X100100333Y-100152822D01*
X100100318Y-100152835D01*
X99908155Y-100344999D01*
X99462444Y-100344999D01*
X99539734Y-100308958D01*
X99549262Y-100303457D01*
X99745755Y-100165871D01*
X99754183Y-100158798D01*
X99923798Y-99989183D01*
X99930871Y-99980755D01*
X100068457Y-99784262D01*
X100073958Y-99774734D01*
X100175333Y-99557335D01*
X100179096Y-99546996D01*
X100248871Y-99286592D01*
X100173218Y-99188000D01*
X98297000Y-99188000D01*
X98297000Y-98932000D01*
X100173218Y-98932000D01*
X100248871Y-98833408D01*
X100179096Y-98573004D01*
X100175333Y-98562665D01*
X100073958Y-98345266D01*
X100068457Y-98335738D01*
X99930871Y-98139245D01*
X99923798Y-98130817D01*
X99754183Y-97961202D01*
X99745755Y-97954129D01*
X99549262Y-97816543D01*
X99539734Y-97811042D01*
X99494609Y-97790000D01*
X99539734Y-97768958D01*
X99549262Y-97763457D01*
X99745755Y-97625871D01*
X99754183Y-97618798D01*
X99923798Y-97449183D01*
X99930871Y-97440755D01*
X100068457Y-97244262D01*
X100073958Y-97234734D01*
X100175333Y-97017335D01*
X100179096Y-97006996D01*
X100241180Y-96775296D01*
X100243090Y-96764461D01*
X100263996Y-96525501D01*
X100263996Y-96514499D01*
X100243090Y-96275539D01*
X100241180Y-96264704D01*
X100179096Y-96033004D01*
X100175333Y-96022665D01*
X100073958Y-95805266D01*
X100068457Y-95795738D01*
X99930871Y-95599245D01*
X99923798Y-95590817D01*
X99754183Y-95421202D01*
X99745755Y-95414129D01*
X99549262Y-95276543D01*
X99539734Y-95271042D01*
X99494609Y-95250000D01*
X99539734Y-95228958D01*
X99549262Y-95223457D01*
X99745755Y-95085871D01*
X99754183Y-95078798D01*
X99923798Y-94909183D01*
X99930871Y-94900755D01*
X100068457Y-94704262D01*
X100073958Y-94694734D01*
X100175333Y-94477335D01*
X100179096Y-94466996D01*
X100241180Y-94235296D01*
X100243090Y-94224461D01*
X100263996Y-93985501D01*
X100263996Y-93974499D01*
X100243090Y-93735539D01*
X100241180Y-93724704D01*
X100179096Y-93493004D01*
X100175333Y-93482665D01*
X100073958Y-93265266D01*
X100068457Y-93255738D01*
X99930871Y-93059245D01*
X99923798Y-93050817D01*
X99754183Y-92881202D01*
X99745755Y-92874129D01*
X99724887Y-92859517D01*
X99928859Y-92804863D01*
X99953339Y-92792120D01*
X100109590Y-92661010D01*
X100123761Y-92644121D01*
X100224359Y-92469880D01*
X100231900Y-92449163D01*
X100265878Y-92256462D01*
X100266837Y-92245501D01*
X100266837Y-90631742D01*
X100264681Y-90615366D01*
X100189863Y-90336142D01*
X100177120Y-90311662D01*
X100046010Y-90155410D01*
X100029121Y-90141239D01*
X99854880Y-90040641D01*
X99834163Y-90033100D01*
X99641462Y-89999122D01*
X99630501Y-89998163D01*
X97216742Y-89998163D01*
X97200366Y-90000319D01*
X96921142Y-90075137D01*
X96896662Y-90087880D01*
X96740410Y-90218990D01*
X96726239Y-90235879D01*
X96625641Y-90410120D01*
X96618100Y-90430837D01*
X96584122Y-90623538D01*
X96583163Y-90634499D01*
X96583163Y-90748250D01*
X96482708Y-90613969D01*
X96476014Y-90606377D01*
X96294174Y-90430776D01*
X96286353Y-90424351D01*
X96078775Y-90280081D01*
X96070028Y-90274990D01*
X95860064Y-90174392D01*
X96078128Y-90088933D01*
X96087415Y-90084384D01*
X96304382Y-89955046D01*
X96312801Y-89949041D01*
X96505730Y-89786003D01*
X96513055Y-89778703D01*
X96676766Y-89586344D01*
X96682801Y-89577946D01*
X96812895Y-89361431D01*
X96817477Y-89352161D01*
X96910463Y-89117306D01*
X96913470Y-89107411D01*
X96967011Y-88859769D01*
X96968418Y-88847969D01*
X96976385Y-88522013D01*
X96975556Y-88510158D01*
X96934175Y-88260197D01*
X96931655Y-88250167D01*
X96850253Y-88011050D01*
X96846130Y-88001566D01*
X96726767Y-87778955D01*
X96721149Y-87770271D01*
X96567031Y-87570146D01*
X96560072Y-87562497D01*
X96375337Y-87390229D01*
X96367221Y-87383819D01*
X96156832Y-87244036D01*
X96147778Y-87239038D01*
X95917383Y-87135495D01*
X95907634Y-87132043D01*
X95663423Y-87067519D01*
X95653242Y-87065706D01*
X95401770Y-87041935D01*
X95391429Y-87041808D01*
X95139451Y-87059429D01*
X95129229Y-87060993D01*
X94883513Y-87119531D01*
X94873683Y-87122743D01*
X94640827Y-87220627D01*
X94631654Y-87225402D01*
X94417912Y-87360003D01*
X94409642Y-87366212D01*
X94220754Y-87533914D01*
X94213609Y-87541391D01*
X94054647Y-87737693D01*
X94048820Y-87746236D01*
X93924054Y-87965864D01*
X93919699Y-87975244D01*
X93832479Y-88212300D01*
X93829716Y-88222266D01*
X93782385Y-88470384D01*
X93781286Y-88480667D01*
X93775114Y-88733185D01*
X93775710Y-88743509D01*
X93810864Y-88993643D01*
X93813137Y-89003732D01*
X93888673Y-89244766D01*
X93892564Y-89254348D01*
X94006452Y-89479808D01*
X94011855Y-89488626D01*
X94161038Y-89692458D01*
X94167809Y-89700275D01*
X94348280Y-89877004D01*
X94356237Y-89883610D01*
X94563148Y-90028492D01*
X94572077Y-90033710D01*
X94770704Y-90128876D01*
X94561956Y-90206508D01*
X94552783Y-90210786D01*
X94332984Y-90335649D01*
X94324613Y-90341338D01*
X94127606Y-90499737D01*
X94120252Y-90506691D01*
X93951104Y-90694548D01*
X93944956Y-90702589D01*
X93808019Y-90915075D01*
X93803236Y-90923994D01*
X93702032Y-91155639D01*
X93698737Y-91165209D01*
X93635871Y-91410056D01*
X93634148Y-91420030D01*
X93611238Y-91671777D01*
X93611132Y-91681898D01*
X93628766Y-91934071D01*
X93630279Y-91944078D01*
X93688004Y-92190187D01*
X93691098Y-92199824D01*
X93787428Y-92433538D01*
X93792023Y-92442556D01*
X93924480Y-92657862D01*
X93930458Y-92666030D01*
X94095634Y-92857390D01*
X94102841Y-92864497D01*
X94144318Y-92899300D01*
X94127606Y-92912737D01*
X94120252Y-92919691D01*
X93951104Y-93107548D01*
X93944956Y-93115589D01*
X93808019Y-93328075D01*
X93803236Y-93336994D01*
X93702032Y-93568639D01*
X93698737Y-93578209D01*
X93635871Y-93823056D01*
X93634148Y-93833030D01*
X93611238Y-94084777D01*
X93611132Y-94094898D01*
X93628766Y-94347071D01*
X93630279Y-94357078D01*
X93688004Y-94603187D01*
X93691098Y-94612824D01*
X93787428Y-94846538D01*
X93792023Y-94855556D01*
X93924480Y-95070862D01*
X93930458Y-95079030D01*
X94095634Y-95270390D01*
X94102841Y-95277497D01*
X94144318Y-95312300D01*
X94127606Y-95325737D01*
X94120252Y-95332691D01*
X93951104Y-95520548D01*
X93944956Y-95528589D01*
X93808019Y-95741075D01*
X93803236Y-95749994D01*
X93702032Y-95981639D01*
X93698737Y-95991209D01*
X93635871Y-96236056D01*
X93634148Y-96246030D01*
X93611238Y-96497777D01*
X93611132Y-96507898D01*
X93628766Y-96760071D01*
X93630279Y-96770078D01*
X93688004Y-97016187D01*
X93691098Y-97025824D01*
X93787428Y-97259538D01*
X93792023Y-97268556D01*
X93924480Y-97483862D01*
X93930458Y-97492030D01*
X94095634Y-97683390D01*
X94102841Y-97690497D01*
X94144318Y-97725300D01*
X94127606Y-97738737D01*
X94120252Y-97745691D01*
X93951104Y-97933548D01*
X93944956Y-97941589D01*
X93808019Y-98154075D01*
X93803236Y-98162994D01*
X93702032Y-98394639D01*
X93698737Y-98404209D01*
X93635871Y-98649056D01*
X93634148Y-98659030D01*
X93611238Y-98910777D01*
X93611132Y-98920898D01*
X93628766Y-99173071D01*
X93630279Y-99183078D01*
X93688004Y-99429187D01*
X93691098Y-99438824D01*
X93787428Y-99672538D01*
X93792023Y-99681556D01*
X93924480Y-99896862D01*
X93930458Y-99905030D01*
X94095634Y-100096390D01*
X94102841Y-100103497D01*
X94296489Y-100265986D01*
X94304739Y-100271849D01*
X94427449Y-100344999D01*
X91461830Y-100344999D01*
X91402708Y-100265969D01*
X91396014Y-100258376D01*
X91272497Y-100139098D01*
X91372968Y-100046061D01*
X91379819Y-100038610D01*
X91535451Y-99839411D01*
X91541023Y-99830961D01*
X91662804Y-99609441D01*
X91666953Y-99600209D01*
X91751751Y-99362068D01*
X91754370Y-99352292D01*
X91800063Y-99103332D01*
X91801097Y-99092599D01*
X91804082Y-98807596D01*
X91803273Y-98796844D01*
X91762804Y-98546981D01*
X91760390Y-98537152D01*
X91680597Y-98297287D01*
X91676642Y-98287971D01*
X91559527Y-98063949D01*
X91554134Y-98055384D01*
X91402708Y-97852969D01*
X91396014Y-97845377D01*
X91272497Y-97726098D01*
X91372968Y-97633061D01*
X91379819Y-97625610D01*
X91535451Y-97426411D01*
X91541023Y-97417961D01*
X91662804Y-97196441D01*
X91666953Y-97187209D01*
X91751751Y-96949068D01*
X91754370Y-96939292D01*
X91800063Y-96690332D01*
X91801097Y-96679599D01*
X91804082Y-96394596D01*
X91803273Y-96383844D01*
X91762804Y-96133981D01*
X91760390Y-96124152D01*
X91680597Y-95884287D01*
X91676642Y-95874971D01*
X91559527Y-95650949D01*
X91554134Y-95642384D01*
X91402708Y-95439969D01*
X91396014Y-95432377D01*
X91272497Y-95313098D01*
X91372968Y-95220061D01*
X91379819Y-95212610D01*
X91535451Y-95013411D01*
X91541023Y-95004961D01*
X91662804Y-94783441D01*
X91666953Y-94774209D01*
X91751751Y-94536068D01*
X91754370Y-94526292D01*
X91800063Y-94277332D01*
X91801097Y-94266599D01*
X91804082Y-93981596D01*
X91803273Y-93970844D01*
X91762804Y-93720981D01*
X91760390Y-93711152D01*
X91680597Y-93471287D01*
X91676642Y-93461971D01*
X91559527Y-93237949D01*
X91554134Y-93229384D01*
X91402708Y-93026969D01*
X91396014Y-93019377D01*
X91272497Y-92900098D01*
X91372968Y-92807061D01*
X91379819Y-92799610D01*
X91535451Y-92600411D01*
X91541023Y-92591961D01*
X91662804Y-92370441D01*
X91666953Y-92361209D01*
X91751751Y-92123068D01*
X91754370Y-92113292D01*
X91800063Y-91864332D01*
X91801097Y-91853599D01*
X91804082Y-91568596D01*
X91803273Y-91557844D01*
X91762804Y-91307981D01*
X91760390Y-91298152D01*
X91680597Y-91058287D01*
X91676642Y-91048971D01*
X91559527Y-90824949D01*
X91554134Y-90816384D01*
X91402708Y-90613969D01*
X91396014Y-90606377D01*
X91214174Y-90430776D01*
X91206353Y-90424351D01*
X91009934Y-90287837D01*
X91305258Y-90287837D01*
X91321634Y-90285681D01*
X91600859Y-90210863D01*
X91625339Y-90198120D01*
X91781590Y-90067010D01*
X91795761Y-90050121D01*
X91896359Y-89875880D01*
X91903900Y-89855163D01*
X91937878Y-89662462D01*
X91938837Y-89651501D01*
X91938837Y-87637742D01*
X91936681Y-87621366D01*
X91861863Y-87342142D01*
X91849120Y-87317662D01*
X91718010Y-87161410D01*
X91701121Y-87147239D01*
X91526880Y-87046641D01*
X91506163Y-87039100D01*
X91313462Y-87005122D01*
X91302501Y-87004163D01*
X89288742Y-87004163D01*
X89272366Y-87006319D01*
X88993142Y-87081137D01*
X88968662Y-87093880D01*
X88812410Y-87224990D01*
X88798239Y-87241879D01*
X88697641Y-87416120D01*
X88690100Y-87436837D01*
X88656122Y-87629538D01*
X88655163Y-87640499D01*
X88655163Y-89654258D01*
X88657319Y-89670634D01*
X88732137Y-89949859D01*
X88744880Y-89974339D01*
X88875990Y-90130590D01*
X88892879Y-90144761D01*
X89067120Y-90245359D01*
X89087837Y-90252900D01*
X89280538Y-90286878D01*
X89291499Y-90287837D01*
X89337148Y-90287837D01*
X89252984Y-90335649D01*
X89244613Y-90341338D01*
X89047606Y-90499737D01*
X89040252Y-90506691D01*
X88871104Y-90694548D01*
X88864956Y-90702589D01*
X88728019Y-90915075D01*
X88723236Y-90923994D01*
X88645000Y-91103068D01*
X88645000Y-86193185D01*
X96315114Y-86193185D01*
X96315710Y-86203509D01*
X96350864Y-86453643D01*
X96353137Y-86463732D01*
X96428673Y-86704766D01*
X96432564Y-86714348D01*
X96546452Y-86939808D01*
X96551855Y-86948626D01*
X96701038Y-87152458D01*
X96707809Y-87160275D01*
X96888280Y-87337004D01*
X96896237Y-87343610D01*
X97103148Y-87488492D01*
X97112077Y-87493710D01*
X97339873Y-87602851D01*
X97349535Y-87606540D01*
X97592098Y-87677012D01*
X97602232Y-87679073D01*
X97853048Y-87708981D01*
X97863382Y-87709360D01*
X98115714Y-87697902D01*
X98125972Y-87696588D01*
X98373045Y-87644070D01*
X98382950Y-87641099D01*
X98618128Y-87548933D01*
X98627415Y-87544384D01*
X98844382Y-87415046D01*
X98852801Y-87409041D01*
X99045730Y-87246003D01*
X99053055Y-87238703D01*
X99216766Y-87046344D01*
X99222801Y-87037946D01*
X99352895Y-86821431D01*
X99357477Y-86812161D01*
X99396318Y-86714060D01*
X99503489Y-86803986D01*
X99511739Y-86809849D01*
X99728873Y-86939287D01*
X99737955Y-86943756D01*
X99896048Y-87006349D01*
X99763132Y-87083088D01*
X99754119Y-87089399D01*
X99570366Y-87243587D01*
X99562587Y-87251366D01*
X99408399Y-87435119D01*
X99402088Y-87444132D01*
X99282152Y-87651868D01*
X99277502Y-87661840D01*
X99195460Y-87887247D01*
X99192613Y-87897874D01*
X99150959Y-88134103D01*
X99150000Y-88145064D01*
X99150000Y-88384936D01*
X99150959Y-88395897D01*
X99192613Y-88632126D01*
X99195460Y-88642753D01*
X99277502Y-88868160D01*
X99282152Y-88878132D01*
X99402088Y-89085868D01*
X99408399Y-89094881D01*
X99562587Y-89278634D01*
X99570366Y-89286413D01*
X99754119Y-89440601D01*
X99763132Y-89446912D01*
X99970868Y-89566848D01*
X99980840Y-89571498D01*
X100206247Y-89653540D01*
X100216874Y-89656387D01*
X100453103Y-89698041D01*
X100464064Y-89699000D01*
X100703936Y-89699000D01*
X100714897Y-89698041D01*
X100951126Y-89656387D01*
X100961753Y-89653540D01*
X101187160Y-89571498D01*
X101197132Y-89566848D01*
X101404868Y-89446912D01*
X101413881Y-89440601D01*
X101597634Y-89286413D01*
X101605413Y-89278634D01*
X101759601Y-89094881D01*
X101765912Y-89085868D01*
X101885848Y-88878132D01*
X101890498Y-88868160D01*
X101972540Y-88642753D01*
X101975387Y-88632126D01*
X102017041Y-88395897D01*
X102018000Y-88384936D01*
X102018000Y-88145064D01*
X102017041Y-88134103D01*
X101975387Y-87897874D01*
X101972540Y-87887247D01*
X101890498Y-87661840D01*
X101885848Y-87651868D01*
X101765912Y-87444132D01*
X101759601Y-87435119D01*
X101605413Y-87251366D01*
X101597634Y-87243587D01*
X101413881Y-87089399D01*
X101404868Y-87083088D01*
X101197132Y-86963152D01*
X101187160Y-86958502D01*
X101157285Y-86947628D01*
X101247131Y-86906873D01*
X101255983Y-86901966D01*
X101466536Y-86762074D01*
X101474489Y-86755815D01*
X101659968Y-86584061D01*
X101666819Y-86576610D01*
X101822451Y-86377411D01*
X101828023Y-86368961D01*
X101949804Y-86147441D01*
X101953953Y-86138209D01*
X102038751Y-85900068D01*
X102041370Y-85890292D01*
X102087063Y-85641332D01*
X102088097Y-85630599D01*
X102091082Y-85345596D01*
X102090273Y-85334844D01*
X102049804Y-85084981D01*
X102047390Y-85075152D01*
X101967597Y-84835287D01*
X101963642Y-84825971D01*
X101846527Y-84601949D01*
X101841134Y-84593384D01*
X101689708Y-84390969D01*
X101683014Y-84383377D01*
X101501174Y-84207776D01*
X101493353Y-84201351D01*
X101285775Y-84057081D01*
X101277028Y-84051990D01*
X101049056Y-83942764D01*
X101039607Y-83939137D01*
X100797103Y-83867765D01*
X100787196Y-83865695D01*
X100536402Y-83834011D01*
X100526290Y-83833552D01*
X100273656Y-83842374D01*
X100263601Y-83843538D01*
X100015628Y-83892639D01*
X100005889Y-83895394D01*
X99768956Y-83983508D01*
X99759783Y-83987786D01*
X99539984Y-84112649D01*
X99531613Y-84118338D01*
X99334606Y-84276737D01*
X99327252Y-84283691D01*
X99158104Y-84471548D01*
X99151956Y-84479589D01*
X99015019Y-84692075D01*
X99010236Y-84700994D01*
X98936439Y-84869907D01*
X98915337Y-84850229D01*
X98907221Y-84843820D01*
X98696832Y-84704036D01*
X98687778Y-84699038D01*
X98457383Y-84595495D01*
X98447634Y-84592043D01*
X98203423Y-84527519D01*
X98193242Y-84525706D01*
X97941770Y-84501935D01*
X97931429Y-84501808D01*
X97679451Y-84519429D01*
X97669229Y-84520993D01*
X97423513Y-84579531D01*
X97413683Y-84582743D01*
X97180827Y-84680627D01*
X97171654Y-84685402D01*
X96957912Y-84820003D01*
X96949642Y-84826212D01*
X96760754Y-84993914D01*
X96753609Y-85001391D01*
X96594647Y-85197693D01*
X96588820Y-85206236D01*
X96464054Y-85425864D01*
X96459699Y-85435244D01*
X96372479Y-85672300D01*
X96369716Y-85682266D01*
X96322385Y-85930384D01*
X96321286Y-85940667D01*
X96315114Y-86193185D01*
X88645000Y-86193185D01*
X88645000Y-83780672D01*
X93792176Y-83780672D01*
X93810864Y-83913644D01*
X93813137Y-83923732D01*
X93888673Y-84164766D01*
X93892564Y-84174348D01*
X94006452Y-84399808D01*
X94011855Y-84408626D01*
X94161038Y-84612458D01*
X94167809Y-84620275D01*
X94348280Y-84797004D01*
X94356237Y-84803610D01*
X94563148Y-84948492D01*
X94572077Y-84953710D01*
X94799873Y-85062851D01*
X94809535Y-85066540D01*
X95052098Y-85137012D01*
X95062232Y-85139073D01*
X95164309Y-85151246D01*
X95246469Y-85078301D01*
X95504999Y-85078301D01*
X95598410Y-85153944D01*
X95833045Y-85104070D01*
X95842950Y-85101099D01*
X96078128Y-85008933D01*
X96087415Y-85004384D01*
X96304382Y-84875046D01*
X96312801Y-84869041D01*
X96505730Y-84706003D01*
X96513055Y-84698703D01*
X96676766Y-84506344D01*
X96682801Y-84497946D01*
X96812895Y-84281431D01*
X96817477Y-84272161D01*
X96910463Y-84037306D01*
X96913470Y-84027411D01*
X96965285Y-83787753D01*
X96889636Y-83694000D01*
X95578809Y-83693999D01*
X95505000Y-83767808D01*
X95504999Y-85078301D01*
X95246469Y-85078301D01*
X95249000Y-85076054D01*
X95249001Y-83767809D01*
X95175192Y-83694000D01*
X93867519Y-83693999D01*
X93792176Y-83780672D01*
X88645000Y-83780672D01*
X88645000Y-81249470D01*
X88671038Y-81249470D01*
X88735004Y-81522187D01*
X88738098Y-81531824D01*
X88834428Y-81765538D01*
X88839023Y-81774556D01*
X88971480Y-81989862D01*
X88977458Y-81998030D01*
X89142634Y-82189390D01*
X89149841Y-82196497D01*
X89343489Y-82358986D01*
X89351739Y-82364849D01*
X89568873Y-82494287D01*
X89577955Y-82498756D01*
X89812991Y-82591813D01*
X89822670Y-82594772D01*
X90074904Y-82650229D01*
X90169000Y-82574574D01*
X90169000Y-82571740D01*
X90424999Y-82571740D01*
X90508377Y-82646815D01*
X90593504Y-82637869D01*
X90603453Y-82636007D01*
X90847398Y-82569728D01*
X90856920Y-82566300D01*
X91087131Y-82461873D01*
X91095983Y-82456966D01*
X91306536Y-82317074D01*
X91314489Y-82310815D01*
X91499968Y-82139061D01*
X91506819Y-82131610D01*
X91662451Y-81932411D01*
X91668023Y-81923961D01*
X91789804Y-81702441D01*
X91793953Y-81693209D01*
X91878751Y-81455069D01*
X91881370Y-81445292D01*
X91918188Y-81244693D01*
X91842626Y-81154000D01*
X90498809Y-81153999D01*
X90425000Y-81227808D01*
X90424999Y-82571740D01*
X90169000Y-82571740D01*
X90169001Y-81227809D01*
X90095192Y-81154000D01*
X88746707Y-81153999D01*
X88671038Y-81249470D01*
X88645000Y-81249470D01*
X88645000Y-80815912D01*
X88675327Y-80815912D01*
X88750273Y-80898000D01*
X90095191Y-80898001D01*
X90169000Y-80824192D01*
X90169000Y-80824191D01*
X90424999Y-80824191D01*
X90498808Y-80898000D01*
X91841765Y-80898001D01*
X91917233Y-80809327D01*
X91889804Y-80639981D01*
X91887390Y-80630152D01*
X91807597Y-80390287D01*
X91803642Y-80380971D01*
X91686527Y-80156949D01*
X91681134Y-80148384D01*
X91529708Y-79945969D01*
X91523014Y-79938377D01*
X91341174Y-79762776D01*
X91333353Y-79756351D01*
X91125775Y-79612081D01*
X91117028Y-79606990D01*
X90889056Y-79497764D01*
X90879607Y-79494137D01*
X90637104Y-79422765D01*
X90627197Y-79420695D01*
X90510350Y-79405933D01*
X90425000Y-79481178D01*
X90424999Y-80824191D01*
X90169000Y-80824191D01*
X90169001Y-79479423D01*
X90076953Y-79403814D01*
X89855628Y-79447639D01*
X89845889Y-79450394D01*
X89608956Y-79538508D01*
X89599783Y-79542786D01*
X89379984Y-79667649D01*
X89371613Y-79673338D01*
X89174606Y-79831737D01*
X89167252Y-79838691D01*
X88998104Y-80026548D01*
X88991956Y-80034589D01*
X88855019Y-80247075D01*
X88850236Y-80255994D01*
X88749032Y-80487639D01*
X88745737Y-80497209D01*
X88682872Y-80742052D01*
X88681150Y-80752017D01*
X88675327Y-80815912D01*
X88645000Y-80815912D01*
X88645000Y-79374000D01*
X93338163Y-79374000D01*
X93338163Y-81923258D01*
G04 #@! TD*
M02*
