%TF.GenerationSoftware,KiCad,Pcbnew,6.0.0+dfsg1-2*%
%TF.CreationDate,2022-01-11T21:26:01+02:00*%
%TF.ProjectId,agudo,61677564-6f2e-46b6-9963-61645f706362,rev?*%
%TF.SameCoordinates,Original*%
%TF.FileFunction,Copper,L1,Top*%
%TF.FilePolarity,Positive*%
%FSLAX46Y46*%
G04 Gerber Fmt 4.6, Leading zero omitted, Abs format (unit mm)*
G04 Created by KiCad (PCBNEW 6.0.0+dfsg1-2) date 2022-01-11 21:26:01*
%MOMM*%
%LPD*%
G01*
G04 APERTURE LIST*
%TA.AperFunction,ComponentPad*%
%ADD10O,2.000000X2.000000*%
%TD*%
%TA.AperFunction,ComponentPad*%
%ADD11O,2.540000X2.540000*%
%TD*%
%TA.AperFunction,ComponentPad*%
%ADD12R,2.540000X2.540000*%
%TD*%
%TA.AperFunction,ComponentPad*%
%ADD13O,1.930400X1.930400*%
%TD*%
%TA.AperFunction,ComponentPad*%
%ADD14R,1.930400X1.930400*%
%TD*%
%TA.AperFunction,ComponentPad*%
%ADD15O,2.400000X1.600000*%
%TD*%
%TA.AperFunction,ComponentPad*%
%ADD16R,2.400000X1.600000*%
%TD*%
%TA.AperFunction,SMDPad,CuDef*%
%ADD17R,0.800000X0.900000*%
%TD*%
%TA.AperFunction,ComponentPad*%
%ADD18C,1.800000*%
%TD*%
%TA.AperFunction,ComponentPad*%
%ADD19R,1.800000X1.800000*%
%TD*%
%TA.AperFunction,ComponentPad*%
%ADD20R,2.000000X2.000000*%
%TD*%
%TA.AperFunction,ComponentPad*%
%ADD21C,1.600000*%
%TD*%
%TA.AperFunction,ComponentPad*%
%ADD22R,1.600000X1.600000*%
%TD*%
%TA.AperFunction,ViaPad*%
%ADD23C,0.800000*%
%TD*%
%TA.AperFunction,Conductor*%
%ADD24C,0.381000*%
%TD*%
%TA.AperFunction,Conductor*%
%ADD25C,0.609600*%
%TD*%
G04 APERTURE END LIST*
D10*
%TO.P,R27,2*%
%TO.N,Net-(R27-Pad2)*%
X102870000Y-83185000D03*
%TO.P,R27,1*%
%TO.N,Net-(C10-Pad2)*%
X107950000Y-83185000D03*
%TD*%
%TO.P,R26,2*%
%TO.N,GND*%
X114300000Y-123825000D03*
%TO.P,R26,1*%
%TO.N,OUT*%
X109220000Y-123825000D03*
%TD*%
%TO.P,R25,2*%
%TO.N,Net-(C10-Pad2)*%
X114300000Y-103505000D03*
%TO.P,R25,1*%
%TO.N,Net-(R23-Pad2)*%
X109220000Y-103505000D03*
%TD*%
%TO.P,R24,2*%
%TO.N,GND*%
X114300000Y-106045000D03*
%TO.P,R24,1*%
%TO.N,Net-(R23-Pad2)*%
X109220000Y-106045000D03*
%TD*%
%TO.P,R23,2*%
%TO.N,Net-(R23-Pad2)*%
X114300000Y-108585000D03*
%TO.P,R23,1*%
%TO.N,+9V*%
X109220000Y-108585000D03*
%TD*%
%TO.P,R22,2*%
%TO.N,Net-(C10-Pad1)*%
X109220000Y-93980000D03*
%TO.P,R22,1*%
%TO.N,Net-(C8-Pad1)*%
X114300000Y-93980000D03*
%TD*%
%TO.P,R21,2*%
%TO.N,Net-(C9-Pad1)*%
X95885000Y-124714000D03*
%TO.P,R21,1*%
%TO.N,Net-(R20-Pad2)*%
X90805000Y-124714000D03*
%TD*%
%TO.P,R20,2*%
%TO.N,Net-(R20-Pad2)*%
X90170000Y-91694000D03*
%TO.P,R20,1*%
%TO.N,Net-(R16-Pad2)*%
X95250000Y-91694000D03*
%TD*%
%TO.P,R19,2*%
%TO.N,Net-(C8-Pad1)*%
X114300000Y-91440000D03*
%TO.P,R19,1*%
%TO.N,Net-(C5-Pad2)*%
X109220000Y-91440000D03*
%TD*%
%TO.P,R18,2*%
%TO.N,Net-(R18-Pad2)*%
X100457000Y-85471000D03*
%TO.P,R18,1*%
%TO.N,Net-(C5-Pad2)*%
X105537000Y-85471000D03*
%TD*%
%TO.P,R17,2*%
%TO.N,Net-(C5-Pad2)*%
X90170000Y-101346000D03*
%TO.P,R17,1*%
%TO.N,Net-(C7-Pad2)*%
X90170000Y-106426000D03*
%TD*%
%TO.P,R16,2*%
%TO.N,Net-(R16-Pad2)*%
X95250000Y-94107000D03*
%TO.P,R16,1*%
%TO.N,Net-(C6-Pad1)*%
X90170000Y-94107000D03*
%TD*%
%TO.P,R15,2*%
%TO.N,Net-(C6-Pad2)*%
X95250000Y-96520000D03*
%TO.P,R15,1*%
%TO.N,Net-(C7-Pad1)*%
X90170000Y-96520000D03*
%TD*%
%TO.P,R14,2*%
%TO.N,Net-(D3-Pad1)*%
X95885000Y-127127000D03*
%TO.P,R14,1*%
%TO.N,LED-*%
X90805000Y-127127000D03*
%TD*%
%TO.P,R13,2*%
%TO.N,Net-(C5-Pad1)*%
X95250000Y-98933000D03*
%TO.P,R13,1*%
%TO.N,Net-(C7-Pad1)*%
X90170000Y-98933000D03*
%TD*%
%TO.P,R12,2*%
%TO.N,Net-(C6-Pad1)*%
X109220000Y-111125000D03*
%TO.P,R12,1*%
%TO.N,Net-(R10-Pad2)*%
X114300000Y-111125000D03*
%TD*%
%TO.P,R11,2*%
%TO.N,Net-(C4-Pad2)*%
X114300000Y-88900000D03*
%TO.P,R11,1*%
%TO.N,Net-(C5-Pad2)*%
X109220000Y-88900000D03*
%TD*%
%TO.P,R10,2*%
%TO.N,Net-(R10-Pad2)*%
X109220000Y-113665000D03*
%TO.P,R10,1*%
%TO.N,Net-(C3-Pad1)*%
X114300000Y-113665000D03*
%TD*%
%TO.P,R9,2*%
%TO.N,Net-(C9-Pad1)*%
X109220000Y-116205000D03*
%TO.P,R9,1*%
%TO.N,Net-(C3-Pad1)*%
X114300000Y-116205000D03*
%TD*%
%TO.P,R8,2*%
%TO.N,Net-(C3-Pad2)*%
X109220000Y-118745000D03*
%TO.P,R8,1*%
%TO.N,Net-(C4-Pad1)*%
X114300000Y-118745000D03*
%TD*%
%TO.P,R7,2*%
%TO.N,Net-(C5-Pad1)*%
X109220000Y-121285000D03*
%TO.P,R7,1*%
%TO.N,Net-(C4-Pad1)*%
X114300000Y-121285000D03*
%TD*%
%TO.P,R6,2*%
%TO.N,Net-(C3-Pad1)*%
X95250000Y-109220000D03*
%TO.P,R6,1*%
%TO.N,Net-(R5-Pad1)*%
X90170000Y-109220000D03*
%TD*%
%TO.P,R5,2*%
%TO.N,Net-(C5-Pad1)*%
X90170000Y-111760000D03*
%TO.P,R5,1*%
%TO.N,Net-(R5-Pad1)*%
X95250000Y-111760000D03*
%TD*%
%TO.P,R4,2*%
%TO.N,Net-(C5-Pad1)*%
X90170000Y-114300000D03*
%TO.P,R4,1*%
%TO.N,Net-(R3-Pad2)*%
X95250000Y-114300000D03*
%TD*%
%TO.P,R3,2*%
%TO.N,Net-(R3-Pad2)*%
X95250000Y-116840000D03*
%TO.P,R3,1*%
%TO.N,Net-(C1-Pad2)*%
X90170000Y-116840000D03*
%TD*%
%TO.P,R2,2*%
%TO.N,Net-(C5-Pad1)*%
X101727000Y-106299000D03*
%TO.P,R2,1*%
%TO.N,+9V*%
X106807000Y-106299000D03*
%TD*%
%TO.P,R1,2*%
%TO.N,GND*%
X95250000Y-119380000D03*
%TO.P,R1,1*%
%TO.N,IN*%
X90170000Y-119380000D03*
%TD*%
D11*
%TO.P,RV2,3,3*%
%TO.N,Net-(C8-Pad1)*%
X105410000Y-80645000D03*
%TO.P,RV2,2,2*%
%TO.N,Net-(R27-Pad2)*%
X100330000Y-80645000D03*
D12*
%TO.P,RV2,1,1*%
X95250000Y-80645000D03*
%TD*%
D13*
%TO.P,J3,2,GND*%
%TO.N,GND*%
X115189000Y-80264000D03*
D14*
%TO.P,J3,1,PWR*%
%TO.N,VIN*%
X112649000Y-80264000D03*
%TD*%
D15*
%TO.P,U2,8,V+*%
%TO.N,+9V*%
X106045000Y-91440000D03*
%TO.P,U2,4,V-*%
%TO.N,GND*%
X98425000Y-99060000D03*
%TO.P,U2,7*%
%TO.N,Net-(C10-Pad2)*%
X106045000Y-93980000D03*
%TO.P,U2,3,+*%
%TO.N,Net-(C6-Pad2)*%
X98425000Y-96520000D03*
%TO.P,U2,6,-*%
%TO.N,Net-(C10-Pad1)*%
X106045000Y-96520000D03*
%TO.P,U2,2,-*%
%TO.N,Net-(R16-Pad2)*%
X98425000Y-93980000D03*
%TO.P,U2,5,+*%
%TO.N,Net-(R23-Pad2)*%
X106045000Y-99060000D03*
D16*
%TO.P,U2,1*%
%TO.N,Net-(R20-Pad2)*%
X98425000Y-91440000D03*
%TD*%
D15*
%TO.P,U1,8,V+*%
%TO.N,+9V*%
X106045000Y-109220000D03*
%TO.P,U1,4,V-*%
%TO.N,GND*%
X98425000Y-116840000D03*
%TO.P,U1,7*%
%TO.N,Net-(C6-Pad1)*%
X106045000Y-111760000D03*
%TO.P,U1,3,+*%
%TO.N,Net-(R3-Pad2)*%
X98425000Y-114300000D03*
%TO.P,U1,6,-*%
%TO.N,Net-(R10-Pad2)*%
X106045000Y-114300000D03*
%TO.P,U1,2,-*%
%TO.N,Net-(R5-Pad1)*%
X98425000Y-111760000D03*
%TO.P,U1,5,+*%
%TO.N,Net-(C3-Pad2)*%
X106045000Y-116840000D03*
D16*
%TO.P,U1,1*%
%TO.N,Net-(C3-Pad1)*%
X98425000Y-109220000D03*
%TD*%
D13*
%TO.P,RV1,3,3*%
%TO.N,Net-(C5-Pad1)*%
X95377000Y-88646000D03*
%TO.P,RV1,2,2*%
%TO.N,Net-(R18-Pad2)*%
X97917000Y-86106000D03*
%TO.P,RV1,1,1*%
%TO.N,GND*%
X95377000Y-83566000D03*
%TD*%
D17*
%TO.P,Q2,G,G*%
%TO.N,Net-(C7-Pad2)*%
X100965000Y-103870000D03*
%TO.P,Q2,S,S*%
%TO.N,Net-(C6-Pad2)*%
X100015000Y-101870000D03*
%TO.P,Q2,D,D*%
%TO.N,Net-(C5-Pad1)*%
X101915000Y-101870000D03*
%TD*%
%TO.P,Q1,G,G*%
%TO.N,Net-(C4-Pad2)*%
X105410000Y-103870000D03*
%TO.P,Q1,S,S*%
%TO.N,Net-(C5-Pad1)*%
X104460000Y-101870000D03*
%TO.P,Q1,D,D*%
%TO.N,Net-(C3-Pad2)*%
X106360000Y-101870000D03*
%TD*%
D13*
%TO.P,J2,2,GND*%
%TO.N,GND*%
X109664500Y-130556000D03*
D14*
%TO.P,J2,1,PWR*%
%TO.N,VIN*%
X107124500Y-130556000D03*
%TD*%
D13*
%TO.P,J1,4,OUT*%
%TO.N,OUT*%
X104127300Y-130784600D03*
%TO.P,J1,3,SW*%
%TO.N,LED-*%
X101587300Y-130784600D03*
%TO.P,J1,2,GND*%
%TO.N,GND*%
X99047300Y-130784600D03*
D14*
%TO.P,J1,1,IN*%
%TO.N,IN*%
X96507300Y-130784600D03*
%TD*%
D18*
%TO.P,D3,2,A*%
%TO.N,VIN*%
X101587300Y-126301500D03*
D19*
%TO.P,D3,1,K*%
%TO.N,Net-(D3-Pad1)*%
X99047300Y-126301500D03*
%TD*%
D20*
%TO.P,D2,1,K*%
%TO.N,Net-(C5-Pad1)*%
X90297000Y-88646000D03*
D10*
%TO.P,D2,2,A*%
%TO.N,GND*%
X90297000Y-81026000D03*
%TD*%
D20*
%TO.P,D1,1,K*%
%TO.N,+9V*%
X111760000Y-126238000D03*
D10*
%TO.P,D1,2,A*%
%TO.N,VIN*%
X104140000Y-126238000D03*
%TD*%
D21*
%TO.P,C10,2*%
%TO.N,Net-(C10-Pad2)*%
X109300000Y-96901000D03*
%TO.P,C10,1*%
%TO.N,Net-(C10-Pad1)*%
X114300000Y-96901000D03*
%TD*%
%TO.P,C9,2*%
%TO.N,OUT*%
X105393500Y-123253500D03*
%TO.P,C9,1*%
%TO.N,Net-(C9-Pad1)*%
X100393500Y-123253500D03*
%TD*%
%TO.P,C8,2*%
%TO.N,GND*%
X112990000Y-85090000D03*
D22*
%TO.P,C8,1*%
%TO.N,Net-(C8-Pad1)*%
X110490000Y-85090000D03*
%TD*%
D21*
%TO.P,C7,2*%
%TO.N,Net-(C7-Pad2)*%
X97710000Y-106045000D03*
%TO.P,C7,1*%
%TO.N,Net-(C7-Pad1)*%
X92710000Y-106045000D03*
%TD*%
%TO.P,C6,2*%
%TO.N,Net-(C6-Pad2)*%
X97710000Y-102362000D03*
%TO.P,C6,1*%
%TO.N,Net-(C6-Pad1)*%
X92710000Y-102362000D03*
%TD*%
%TO.P,C5,2*%
%TO.N,Net-(C5-Pad2)*%
X105584000Y-88265000D03*
%TO.P,C5,1*%
%TO.N,Net-(C5-Pad1)*%
X100584000Y-88265000D03*
%TD*%
%TO.P,C4,2*%
%TO.N,Net-(C4-Pad2)*%
X109300000Y-100330000D03*
%TO.P,C4,1*%
%TO.N,Net-(C4-Pad1)*%
X114300000Y-100330000D03*
%TD*%
%TO.P,C3,2*%
%TO.N,Net-(C3-Pad2)*%
X105330000Y-120015000D03*
%TO.P,C3,1*%
%TO.N,Net-(C3-Pad1)*%
X100330000Y-120015000D03*
%TD*%
%TO.P,C2,2*%
%TO.N,GND*%
X114641000Y-129794000D03*
D22*
%TO.P,C2,1*%
%TO.N,+9V*%
X112141000Y-129794000D03*
%TD*%
D21*
%TO.P,C1,2*%
%TO.N,Net-(C1-Pad2)*%
X96440000Y-122047000D03*
%TO.P,C1,1*%
%TO.N,IN*%
X91440000Y-122047000D03*
%TD*%
D23*
%TO.N,GND*%
X108839000Y-86741000D03*
X90043000Y-130429000D03*
X93345000Y-113030000D03*
X92837000Y-92837000D03*
X101600000Y-116840000D03*
X94234000Y-123063000D03*
X93472000Y-129413000D03*
X111887000Y-104775000D03*
X112522000Y-109855000D03*
X111379000Y-90170000D03*
%TD*%
D24*
%TO.N,Net-(C10-Pad2)*%
X106045000Y-93980000D02*
X107635510Y-92389490D01*
X107635510Y-92389490D02*
X107635510Y-83499490D01*
X107635510Y-83499490D02*
X107950000Y-83185000D01*
%TO.N,Net-(C8-Pad1)*%
X110490000Y-85090000D02*
X110490000Y-83667058D01*
X110490000Y-83667058D02*
X107467942Y-80645000D01*
X107467942Y-80645000D02*
X105410000Y-80645000D01*
%TO.N,Net-(R27-Pad2)*%
X102870000Y-83185000D02*
X100330000Y-80645000D01*
%TO.N,Net-(C5-Pad2)*%
X105537000Y-85471000D02*
X105537000Y-88218000D01*
X105537000Y-88218000D02*
X105584000Y-88265000D01*
%TO.N,Net-(R18-Pad2)*%
X97917000Y-86106000D02*
X99822000Y-86106000D01*
X99822000Y-86106000D02*
X100457000Y-85471000D01*
%TO.N,Net-(C5-Pad1)*%
X95377000Y-88646000D02*
X100203000Y-88646000D01*
X100203000Y-88646000D02*
X100584000Y-88265000D01*
X90297000Y-88646000D02*
X95377000Y-88646000D01*
%TO.N,Net-(R20-Pad2)*%
X90805000Y-124714000D02*
X88779499Y-122688499D01*
X88779499Y-122688499D02*
X88779499Y-93084501D01*
X88779499Y-93084501D02*
X90170000Y-91694000D01*
%TO.N,Net-(C5-Pad1)*%
X94862501Y-107816501D02*
X100209499Y-107816501D01*
X90170000Y-111760000D02*
X94113499Y-107816501D01*
X94113499Y-107816501D02*
X94862501Y-107816501D01*
X100209499Y-107816501D02*
X101727000Y-106299000D01*
%TO.N,Net-(C7-Pad1)*%
X90170000Y-98933000D02*
X91821000Y-100584000D01*
X91821000Y-100584000D02*
X91821000Y-101489058D01*
X91821000Y-101489058D02*
X91519499Y-101790559D01*
X91519499Y-101790559D02*
X91519499Y-104854499D01*
X91519499Y-104854499D02*
X92710000Y-106045000D01*
%TO.N,Net-(C6-Pad1)*%
X91948000Y-98679000D02*
X91948000Y-95885000D01*
X92710000Y-102362000D02*
X92710000Y-99441000D01*
X92710000Y-99441000D02*
X91948000Y-98679000D01*
%TO.N,Net-(C8-Pad1)*%
X110490000Y-85090000D02*
X111506000Y-86106000D01*
X114300000Y-91440000D02*
X111506000Y-88646000D01*
X111506000Y-88646000D02*
X111506000Y-86106000D01*
%TO.N,Net-(R20-Pad2)*%
X90170000Y-91694000D02*
X91560501Y-90303499D01*
X91560501Y-90303499D02*
X97288499Y-90303499D01*
X97288499Y-90303499D02*
X98425000Y-91440000D01*
%TO.N,Net-(C5-Pad1)*%
X102012750Y-111474250D02*
X102012750Y-106584750D01*
X102012750Y-106584750D02*
X101727000Y-106299000D01*
%TO.N,Net-(C7-Pad2)*%
X97710000Y-106045000D02*
X99885000Y-103870000D01*
X99885000Y-103870000D02*
X100965000Y-103870000D01*
D25*
%TO.N,+9V*%
X106045000Y-109220000D02*
X106045000Y-107061000D01*
X106045000Y-107061000D02*
X106807000Y-106299000D01*
D24*
%TO.N,Net-(C3-Pad2)*%
X104454490Y-108726875D02*
X104454490Y-106378412D01*
X104454490Y-106378412D02*
X106360000Y-104472902D01*
X106360000Y-104472902D02*
X106360000Y-101870000D01*
%TO.N,LED-*%
X100231599Y-132140301D02*
X101587300Y-130784600D01*
%TO.N,Net-(C8-Pad1)*%
X114300000Y-93980000D02*
X114300000Y-91440000D01*
%TO.N,Net-(C3-Pad1)*%
X114300000Y-116205000D02*
X114300000Y-113665000D01*
%TO.N,Net-(C4-Pad1)*%
X114300000Y-121285000D02*
X114300000Y-118745000D01*
%TO.N,Net-(R3-Pad2)*%
X95250000Y-116840000D02*
X95250000Y-114300000D01*
X95250000Y-114300000D02*
X98425000Y-114300000D01*
%TO.N,Net-(R5-Pad1)*%
X98425000Y-111760000D02*
X95250000Y-111760000D01*
%TO.N,Net-(C3-Pad1)*%
X95250000Y-109220000D02*
X98425000Y-109220000D01*
%TO.N,Net-(C5-Pad1)*%
X90170000Y-114300000D02*
X90170000Y-111760000D01*
%TO.N,Net-(C6-Pad1)*%
X91948000Y-95885000D02*
X90170000Y-94107000D01*
%TO.N,Net-(C7-Pad1)*%
X90170000Y-96520000D02*
X90170000Y-98933000D01*
%TO.N,Net-(R16-Pad2)*%
X95250000Y-91821000D02*
X95504000Y-91567000D01*
X95250000Y-94107000D02*
X95250000Y-91821000D01*
X98298000Y-94107000D02*
X98425000Y-93980000D01*
X95250000Y-94107000D02*
X98298000Y-94107000D01*
%TO.N,Net-(C5-Pad2)*%
X109220000Y-91440000D02*
X109220000Y-88900000D01*
%TO.N,Net-(C10-Pad1)*%
X112141000Y-96901000D02*
X109220000Y-93980000D01*
X114300000Y-96901000D02*
X112141000Y-96901000D01*
%TO.N,Net-(R23-Pad2)*%
X109220000Y-106045000D02*
X109220000Y-103505000D01*
X111760000Y-106045000D02*
X114300000Y-108585000D01*
X109220000Y-106045000D02*
X111760000Y-106045000D01*
%TO.N,Net-(R10-Pad2)*%
X111760000Y-111125000D02*
X109220000Y-113665000D01*
X114300000Y-111125000D02*
X111760000Y-111125000D01*
%TO.N,Net-(C9-Pad1)*%
X109220000Y-116383635D02*
X109220000Y-116205000D01*
%TO.N,Net-(C3-Pad2)*%
X105330000Y-117555000D02*
X106045000Y-116840000D01*
X105330000Y-120015000D02*
X105330000Y-117555000D01*
%TO.N,Net-(C5-Pad1)*%
X100748999Y-89064999D02*
X99949000Y-88265000D01*
%TO.N,Net-(C6-Pad2)*%
X93859499Y-97910501D02*
X95250000Y-96520000D01*
X93859499Y-100277869D02*
X93859499Y-97910501D01*
X95816630Y-102235000D02*
X93859499Y-100277869D01*
X96948000Y-102235000D02*
X95816630Y-102235000D01*
%TO.N,Net-(C5-Pad1)*%
X100748999Y-96279636D02*
X100748999Y-93128999D01*
X96472490Y-97710510D02*
X99318125Y-97710510D01*
X95250000Y-98933000D02*
X96472490Y-97710510D01*
X100748999Y-93128999D02*
X100748999Y-89064999D01*
%TO.N,Net-(C6-Pad2)*%
X95250000Y-96520000D02*
X98425000Y-96520000D01*
%TO.N,Net-(C5-Pad1)*%
X99784317Y-97244317D02*
X100748999Y-96279636D01*
X99318125Y-97710510D02*
X99784317Y-97244317D01*
%TO.N,Net-(C10-Pad2)*%
X108490490Y-97710510D02*
X109300000Y-96901000D01*
X105151875Y-97710510D02*
X108490490Y-97710510D01*
X104454490Y-97013125D02*
X105151875Y-97710510D01*
X104454490Y-95570510D02*
X104454490Y-97013125D01*
X106045000Y-93980000D02*
X104454490Y-95570510D01*
%TO.N,Net-(C10-Pad1)*%
X106680000Y-96520000D02*
X109220000Y-93980000D01*
X106045000Y-96520000D02*
X106680000Y-96520000D01*
%TO.N,Net-(C1-Pad2)*%
X95250000Y-121920000D02*
X96440000Y-121920000D01*
X90170000Y-116840000D02*
X95250000Y-121920000D01*
%TO.N,IN*%
X90170000Y-120650000D02*
X91440000Y-121920000D01*
X90170000Y-119380000D02*
X90170000Y-120650000D01*
X93071801Y-127349101D02*
X96507300Y-130784600D01*
X93071801Y-123551801D02*
X93071801Y-127349101D01*
X91440000Y-121920000D02*
X93071801Y-123551801D01*
%TO.N,Net-(R23-Pad2)*%
X109791942Y-99060000D02*
X106045000Y-99060000D01*
X110490501Y-99758559D02*
X109791942Y-99060000D01*
X110490501Y-102234499D02*
X110490501Y-99758559D01*
X109220000Y-103505000D02*
X110490501Y-102234499D01*
%TO.N,Net-(C4-Pad1)*%
X115690501Y-101720501D02*
X114300000Y-100330000D01*
X115690501Y-117354499D02*
X115690501Y-101720501D01*
X114300000Y-118745000D02*
X115690501Y-117354499D01*
%TO.N,Net-(C10-Pad2)*%
X109300000Y-97090787D02*
X109300000Y-96901000D01*
X114300000Y-102090787D02*
X109300000Y-97090787D01*
X114300000Y-103505000D02*
X114300000Y-102090787D01*
%TO.N,Net-(C3-Pad2)*%
X107315000Y-116840000D02*
X106045000Y-116840000D01*
X109220000Y-118745000D02*
X107315000Y-116840000D01*
%TO.N,Net-(R10-Pad2)*%
X108585000Y-114300000D02*
X109220000Y-113665000D01*
X106045000Y-114300000D02*
X108585000Y-114300000D01*
%TO.N,Net-(C6-Pad1)*%
X108585000Y-111760000D02*
X109220000Y-111125000D01*
X106045000Y-111760000D02*
X108585000Y-111760000D01*
%TO.N,Net-(C3-Pad2)*%
X104454490Y-115249490D02*
X104454490Y-108726875D01*
X106045000Y-116840000D02*
X104454490Y-115249490D01*
%TO.N,Net-(C5-Pad1)*%
X109220000Y-121285000D02*
X104838058Y-121285000D01*
X104838058Y-121285000D02*
X102870000Y-119316942D01*
%TO.N,Net-(R27-Pad2)*%
X100330000Y-80645000D02*
X95250000Y-80645000D01*
%TO.N,Net-(D3-Pad1)*%
X98120200Y-127228600D02*
X99047300Y-126301500D01*
X96761300Y-127228600D02*
X98120200Y-127228600D01*
D25*
%TO.N,+9V*%
X111760000Y-129540000D02*
X112395000Y-130175000D01*
X111760000Y-126619000D02*
X111760000Y-129540000D01*
%TO.N,VIN*%
X103822500Y-126301500D02*
X104140000Y-126619000D01*
X101587300Y-126301500D02*
X103822500Y-126301500D01*
X104140000Y-127571500D02*
X104140000Y-126619000D01*
X105092500Y-128524000D02*
X104140000Y-127571500D01*
X107124500Y-130556000D02*
X105092500Y-128524000D01*
D24*
%TO.N,Net-(C4-Pad2)*%
X105410000Y-101267098D02*
X105410000Y-103870000D01*
X106347098Y-100330000D02*
X105410000Y-101267098D01*
X109300000Y-100330000D02*
X106347098Y-100330000D01*
%TO.N,Net-(C5-Pad1)*%
X101915000Y-101870000D02*
X104460000Y-101870000D01*
%TO.N,Net-(C6-Pad2)*%
X99650000Y-102235000D02*
X100015000Y-101870000D01*
X96948000Y-102235000D02*
X99650000Y-102235000D01*
%TO.N,Net-(C5-Pad1)*%
X100982213Y-106299000D02*
X101915000Y-105366213D01*
X101915000Y-105366213D02*
X101915000Y-101870000D01*
X100438500Y-100393500D02*
X101915000Y-101870000D01*
X96710500Y-100393500D02*
X100438500Y-100393500D01*
X95250000Y-98933000D02*
X96710500Y-100393500D01*
X102870000Y-113792000D02*
X102870000Y-112331500D01*
X102870000Y-119316942D02*
X102870000Y-113792000D01*
D25*
%TO.N,+9V*%
X108585000Y-109220000D02*
X109220000Y-108585000D01*
X106045000Y-109220000D02*
X108585000Y-109220000D01*
D24*
%TO.N,Net-(C9-Pad1)*%
X98933000Y-124714000D02*
X100393500Y-123253500D01*
X95885000Y-124714000D02*
X98933000Y-124714000D01*
%TO.N,LED-*%
X94404088Y-132140301D02*
X95437301Y-132140301D01*
X90805000Y-128541213D02*
X94404088Y-132140301D01*
X90805000Y-127127000D02*
X90805000Y-128541213D01*
X95437301Y-132140301D02*
X100231599Y-132140301D01*
%TO.N,Net-(C3-Pad1)*%
X111379000Y-116205000D02*
X114300000Y-116205000D01*
X110617000Y-116967000D02*
X111379000Y-116205000D01*
X109887441Y-125215501D02*
X110617000Y-124485942D01*
X105156000Y-124841000D02*
X105530501Y-125215501D01*
X105530501Y-125215501D02*
X109887441Y-125215501D01*
X100330000Y-120015000D02*
X105156000Y-124841000D01*
X110617000Y-124485942D02*
X110617000Y-116967000D01*
%TO.N,OUT*%
X105965000Y-123825000D02*
X105393500Y-123253500D01*
X109220000Y-123825000D02*
X105965000Y-123825000D01*
%TO.N,Net-(C3-Pad1)*%
X100330000Y-111887000D02*
X100330000Y-111125000D01*
X98425000Y-109220000D02*
X99568000Y-110363000D01*
X100330000Y-111125000D02*
X99568000Y-110363000D01*
X100330000Y-112014000D02*
X100330000Y-120015000D01*
X100330000Y-112014000D02*
X100330000Y-111887000D01*
%TO.N,Net-(C5-Pad1)*%
X102870000Y-112331500D02*
X102012750Y-111474250D01*
%TD*%
%TA.AperFunction,Conductor*%
%TO.N,GND*%
G36*
X112956694Y-116924002D02*
G01*
X112996005Y-116964165D01*
X113075824Y-117094416D01*
X113230031Y-117274969D01*
X113233787Y-117278177D01*
X113233792Y-117278182D01*
X113352056Y-117379189D01*
X113390866Y-117438639D01*
X113391372Y-117509634D01*
X113352056Y-117570811D01*
X113233792Y-117671818D01*
X113233787Y-117671823D01*
X113230031Y-117675031D01*
X113075824Y-117855584D01*
X113073245Y-117859792D01*
X113073241Y-117859798D01*
X112954346Y-118053817D01*
X112951760Y-118058037D01*
X112949867Y-118062607D01*
X112949865Y-118062611D01*
X112890414Y-118206140D01*
X112860895Y-118277406D01*
X112847180Y-118334535D01*
X112810548Y-118487117D01*
X112805465Y-118508289D01*
X112786835Y-118745000D01*
X112805465Y-118981711D01*
X112806619Y-118986518D01*
X112806620Y-118986524D01*
X112836881Y-119112569D01*
X112860895Y-119212594D01*
X112862788Y-119217165D01*
X112862789Y-119217167D01*
X112921228Y-119358251D01*
X112951760Y-119431963D01*
X112954346Y-119436183D01*
X113073241Y-119630202D01*
X113073245Y-119630208D01*
X113075824Y-119634416D01*
X113230031Y-119814969D01*
X113233787Y-119818177D01*
X113233792Y-119818182D01*
X113352056Y-119919189D01*
X113390866Y-119978639D01*
X113391372Y-120049634D01*
X113352056Y-120110811D01*
X113233792Y-120211818D01*
X113233787Y-120211823D01*
X113230031Y-120215031D01*
X113075824Y-120395584D01*
X113073245Y-120399792D01*
X113073241Y-120399798D01*
X112963042Y-120579626D01*
X112951760Y-120598037D01*
X112949867Y-120602607D01*
X112949865Y-120602611D01*
X112862789Y-120812833D01*
X112860895Y-120817406D01*
X112859740Y-120822218D01*
X112808021Y-121037643D01*
X112805465Y-121048289D01*
X112786835Y-121285000D01*
X112805465Y-121521711D01*
X112860895Y-121752594D01*
X112862788Y-121757165D01*
X112862789Y-121757167D01*
X112947377Y-121961381D01*
X112951760Y-121971963D01*
X112954346Y-121976183D01*
X113073241Y-122170202D01*
X113073245Y-122170208D01*
X113075824Y-122174416D01*
X113230031Y-122354969D01*
X113233787Y-122358177D01*
X113352442Y-122459518D01*
X113391251Y-122518968D01*
X113391757Y-122589963D01*
X113352442Y-122651140D01*
X113234142Y-122752178D01*
X113227178Y-122759142D01*
X113079443Y-122932117D01*
X113073643Y-122940101D01*
X112954795Y-123134042D01*
X112950313Y-123142837D01*
X112863264Y-123352992D01*
X112860218Y-123362366D01*
X112814358Y-123553385D01*
X112815063Y-123567469D01*
X112823944Y-123571000D01*
X115771756Y-123571000D01*
X115785287Y-123567027D01*
X115786647Y-123557569D01*
X115739782Y-123362366D01*
X115736736Y-123352992D01*
X115649687Y-123142837D01*
X115645205Y-123134042D01*
X115526357Y-122940101D01*
X115520557Y-122932117D01*
X115372822Y-122759142D01*
X115365858Y-122752178D01*
X115247558Y-122651140D01*
X115208749Y-122591689D01*
X115208243Y-122520695D01*
X115247558Y-122459518D01*
X115366213Y-122358177D01*
X115369969Y-122354969D01*
X115524176Y-122174416D01*
X115526755Y-122170208D01*
X115526759Y-122170202D01*
X115645654Y-121976183D01*
X115648240Y-121971963D01*
X115652624Y-121961381D01*
X115737211Y-121757167D01*
X115737212Y-121757165D01*
X115739105Y-121752594D01*
X115794535Y-121521711D01*
X115813165Y-121285000D01*
X115794535Y-121048289D01*
X115791980Y-121037643D01*
X115740260Y-120822218D01*
X115739105Y-120817406D01*
X115737211Y-120812833D01*
X115650135Y-120602611D01*
X115650133Y-120602607D01*
X115648240Y-120598037D01*
X115636958Y-120579626D01*
X115526759Y-120399798D01*
X115526755Y-120399792D01*
X115524176Y-120395584D01*
X115369969Y-120215031D01*
X115366213Y-120211823D01*
X115366208Y-120211818D01*
X115247944Y-120110811D01*
X115209134Y-120051361D01*
X115208628Y-119980366D01*
X115247944Y-119919189D01*
X115366208Y-119818182D01*
X115366213Y-119818177D01*
X115369969Y-119814969D01*
X115524176Y-119634416D01*
X115526755Y-119630208D01*
X115526759Y-119630202D01*
X115645654Y-119436183D01*
X115648240Y-119431963D01*
X115678773Y-119358251D01*
X115737211Y-119217167D01*
X115737212Y-119217165D01*
X115739105Y-119212594D01*
X115763119Y-119112569D01*
X115793380Y-118986524D01*
X115793381Y-118986518D01*
X115794535Y-118981711D01*
X115813165Y-118745000D01*
X115794535Y-118508289D01*
X115758873Y-118359746D01*
X115762420Y-118288839D01*
X115792297Y-118241238D01*
X116116905Y-117916630D01*
X116179217Y-117882604D01*
X116250032Y-117887669D01*
X116306868Y-117930216D01*
X116331679Y-117996736D01*
X116332000Y-118005725D01*
X116332000Y-132081000D01*
X116311998Y-132149121D01*
X116258342Y-132195614D01*
X116206000Y-132207000D01*
X110146819Y-132207000D01*
X110078698Y-132186998D01*
X110032205Y-132133342D01*
X110022101Y-132063068D01*
X110051595Y-131998488D01*
X110110611Y-131960314D01*
X110198926Y-131933818D01*
X110208524Y-131930056D01*
X110416789Y-131828029D01*
X110425634Y-131822756D01*
X110614435Y-131688086D01*
X110622310Y-131681430D01*
X110786583Y-131517730D01*
X110793261Y-131509883D01*
X110928589Y-131321556D01*
X110933898Y-131312719D01*
X111020275Y-131137948D01*
X111068388Y-131085741D01*
X111137090Y-131067834D01*
X111177461Y-131075793D01*
X111223282Y-131092971D01*
X111223288Y-131092973D01*
X111230684Y-131095745D01*
X111292866Y-131102500D01*
X112989134Y-131102500D01*
X113051316Y-131095745D01*
X113187705Y-131044615D01*
X113304261Y-130957261D01*
X113362119Y-130880062D01*
X113919493Y-130880062D01*
X113928789Y-130892077D01*
X113979994Y-130927931D01*
X113989489Y-130933414D01*
X114186947Y-131025490D01*
X114197239Y-131029236D01*
X114407688Y-131085625D01*
X114418481Y-131087528D01*
X114635525Y-131106517D01*
X114646475Y-131106517D01*
X114863519Y-131087528D01*
X114874312Y-131085625D01*
X115084761Y-131029236D01*
X115095053Y-131025490D01*
X115292511Y-130933414D01*
X115302006Y-130927931D01*
X115354048Y-130891491D01*
X115362424Y-130881012D01*
X115355356Y-130867566D01*
X114653812Y-130166022D01*
X114639868Y-130158408D01*
X114638035Y-130158539D01*
X114631420Y-130162790D01*
X113925923Y-130868287D01*
X113919493Y-130880062D01*
X113362119Y-130880062D01*
X113391615Y-130840705D01*
X113442745Y-130704316D01*
X113449500Y-130642134D01*
X113449500Y-130638815D01*
X113473153Y-130571890D01*
X113519156Y-130536196D01*
X113518141Y-130534266D01*
X113529000Y-130528558D01*
X113529245Y-130528368D01*
X113529403Y-130528347D01*
X113567434Y-130508356D01*
X114268978Y-129806812D01*
X114275356Y-129795132D01*
X115005408Y-129795132D01*
X115005539Y-129796965D01*
X115009790Y-129803580D01*
X115715287Y-130509077D01*
X115727062Y-130515507D01*
X115739077Y-130506211D01*
X115774931Y-130455006D01*
X115780414Y-130445511D01*
X115872490Y-130248053D01*
X115876236Y-130237761D01*
X115932625Y-130027312D01*
X115934528Y-130016519D01*
X115953517Y-129799475D01*
X115953517Y-129788525D01*
X115934528Y-129571481D01*
X115932625Y-129560688D01*
X115876236Y-129350239D01*
X115872490Y-129339947D01*
X115780414Y-129142489D01*
X115774931Y-129132994D01*
X115738491Y-129080952D01*
X115728012Y-129072576D01*
X115714566Y-129079644D01*
X115013022Y-129781188D01*
X115005408Y-129795132D01*
X114275356Y-129795132D01*
X114276592Y-129792868D01*
X114276461Y-129791035D01*
X114272210Y-129784420D01*
X113566713Y-129078923D01*
X113524971Y-129056129D01*
X113514971Y-129053953D01*
X113464773Y-129003747D01*
X113449549Y-128950186D01*
X113449500Y-128949281D01*
X113449500Y-128945866D01*
X113442745Y-128883684D01*
X113391615Y-128747295D01*
X113361407Y-128706988D01*
X113919576Y-128706988D01*
X113926644Y-128720434D01*
X114628188Y-129421978D01*
X114642132Y-129429592D01*
X114643965Y-129429461D01*
X114650580Y-129425210D01*
X115356077Y-128719713D01*
X115362507Y-128707938D01*
X115353211Y-128695923D01*
X115302006Y-128660069D01*
X115292511Y-128654586D01*
X115095053Y-128562510D01*
X115084761Y-128558764D01*
X114874312Y-128502375D01*
X114863519Y-128500472D01*
X114646475Y-128481483D01*
X114635525Y-128481483D01*
X114418481Y-128500472D01*
X114407688Y-128502375D01*
X114197239Y-128558764D01*
X114186947Y-128562510D01*
X113989489Y-128654586D01*
X113979994Y-128660069D01*
X113927952Y-128696509D01*
X113919576Y-128706988D01*
X113361407Y-128706988D01*
X113304261Y-128630739D01*
X113187705Y-128543385D01*
X113051316Y-128492255D01*
X112989134Y-128485500D01*
X112699300Y-128485500D01*
X112631179Y-128465498D01*
X112584686Y-128411842D01*
X112573300Y-128359500D01*
X112573300Y-127872500D01*
X112593302Y-127804379D01*
X112646958Y-127757886D01*
X112699300Y-127746500D01*
X112808134Y-127746500D01*
X112811964Y-127746084D01*
X112814440Y-127745815D01*
X112870316Y-127739745D01*
X113006705Y-127688615D01*
X113123261Y-127601261D01*
X113210615Y-127484705D01*
X113261745Y-127348316D01*
X113268500Y-127286134D01*
X113268500Y-125189866D01*
X113269284Y-125189866D01*
X113284786Y-125124104D01*
X113335849Y-125074778D01*
X113405474Y-125060889D01*
X113460147Y-125078961D01*
X113609052Y-125170210D01*
X113617837Y-125174687D01*
X113827992Y-125261736D01*
X113837366Y-125264782D01*
X114028385Y-125310642D01*
X114042469Y-125309937D01*
X114046000Y-125301056D01*
X114046000Y-125296756D01*
X114554000Y-125296756D01*
X114557973Y-125310287D01*
X114567431Y-125311647D01*
X114762634Y-125264782D01*
X114772008Y-125261736D01*
X114982163Y-125174687D01*
X114990958Y-125170205D01*
X115184899Y-125051357D01*
X115192883Y-125045557D01*
X115365858Y-124897822D01*
X115372822Y-124890858D01*
X115520557Y-124717883D01*
X115526357Y-124709899D01*
X115645205Y-124515958D01*
X115649687Y-124507163D01*
X115736736Y-124297008D01*
X115739782Y-124287634D01*
X115785642Y-124096615D01*
X115784937Y-124082531D01*
X115776056Y-124079000D01*
X114572115Y-124079000D01*
X114556876Y-124083475D01*
X114555671Y-124084865D01*
X114554000Y-124092548D01*
X114554000Y-125296756D01*
X114046000Y-125296756D01*
X114046000Y-124097115D01*
X114041525Y-124081876D01*
X114040135Y-124080671D01*
X114032452Y-124079000D01*
X112828244Y-124079000D01*
X112814713Y-124082973D01*
X112813353Y-124092431D01*
X112860218Y-124287634D01*
X112863264Y-124297008D01*
X112950313Y-124507163D01*
X112954791Y-124515951D01*
X112971357Y-124542983D01*
X112989896Y-124611516D01*
X112968441Y-124679193D01*
X112913802Y-124724527D01*
X112850319Y-124734082D01*
X112811536Y-124729869D01*
X112811526Y-124729868D01*
X112808134Y-124729500D01*
X111434296Y-124729500D01*
X111366175Y-124709498D01*
X111319682Y-124655842D01*
X111310406Y-124580538D01*
X111318360Y-124537622D01*
X111319744Y-124530155D01*
X111318926Y-124515958D01*
X111316209Y-124468848D01*
X111316000Y-124461595D01*
X111316000Y-117308726D01*
X111336002Y-117240605D01*
X111352905Y-117219630D01*
X111631632Y-116940904D01*
X111693944Y-116906879D01*
X111720727Y-116904000D01*
X112888573Y-116904000D01*
X112956694Y-116924002D01*
G37*
%TD.AperFunction*%
%TA.AperFunction,Conductor*%
G36*
X88727512Y-123625501D02*
G01*
X88734095Y-123631630D01*
X89312703Y-124210238D01*
X89346729Y-124272550D01*
X89346127Y-124328747D01*
X89313362Y-124465223D01*
X89310465Y-124477289D01*
X89291835Y-124714000D01*
X89310465Y-124950711D01*
X89311619Y-124955518D01*
X89311620Y-124955524D01*
X89333202Y-125045419D01*
X89365895Y-125181594D01*
X89367788Y-125186165D01*
X89367789Y-125186167D01*
X89437045Y-125353366D01*
X89456760Y-125400963D01*
X89459346Y-125405183D01*
X89578241Y-125599202D01*
X89578245Y-125599208D01*
X89580824Y-125603416D01*
X89735031Y-125783969D01*
X89738787Y-125787177D01*
X89738792Y-125787182D01*
X89782707Y-125824689D01*
X89821517Y-125884139D01*
X89822023Y-125955134D01*
X89782707Y-126016311D01*
X89738792Y-126053818D01*
X89738787Y-126053823D01*
X89735031Y-126057031D01*
X89580824Y-126237584D01*
X89578245Y-126241792D01*
X89578241Y-126241798D01*
X89510976Y-126351565D01*
X89456760Y-126440037D01*
X89454867Y-126444607D01*
X89454865Y-126444611D01*
X89440404Y-126479524D01*
X89365895Y-126659406D01*
X89310465Y-126890289D01*
X89291835Y-127127000D01*
X89310465Y-127363711D01*
X89311619Y-127368518D01*
X89311620Y-127368524D01*
X89336425Y-127471843D01*
X89365895Y-127594594D01*
X89367788Y-127599165D01*
X89367789Y-127599167D01*
X89454496Y-127808496D01*
X89456760Y-127813963D01*
X89459346Y-127818183D01*
X89578241Y-128012202D01*
X89578245Y-128012208D01*
X89580824Y-128016416D01*
X89735031Y-128196969D01*
X89915584Y-128351176D01*
X90044149Y-128429961D01*
X90091777Y-128482606D01*
X90104019Y-128545961D01*
X90101830Y-128578065D01*
X90103135Y-128585541D01*
X90103135Y-128585545D01*
X90112663Y-128640137D01*
X90113626Y-128646662D01*
X90119588Y-128695923D01*
X90121191Y-128709173D01*
X90123875Y-128716275D01*
X90124719Y-128719713D01*
X90128583Y-128733836D01*
X90129613Y-128737247D01*
X90130919Y-128744730D01*
X90133972Y-128751685D01*
X90156239Y-128802411D01*
X90158730Y-128808517D01*
X90180994Y-128867435D01*
X90185293Y-128873690D01*
X90186935Y-128876831D01*
X90194033Y-128889585D01*
X90195870Y-128892691D01*
X90198923Y-128899646D01*
X90203548Y-128905673D01*
X90203550Y-128905677D01*
X90237265Y-128949615D01*
X90241129Y-128954933D01*
X90276821Y-129006865D01*
X90282491Y-129011917D01*
X90282492Y-129011918D01*
X90322688Y-129047731D01*
X90327964Y-129052712D01*
X93267157Y-131991905D01*
X93301183Y-132054217D01*
X93296118Y-132125032D01*
X93253571Y-132181868D01*
X93187051Y-132206679D01*
X93178062Y-132207000D01*
X88645000Y-132207000D01*
X88576879Y-132186998D01*
X88530386Y-132133342D01*
X88519000Y-132081000D01*
X88519000Y-123720725D01*
X88539002Y-123652604D01*
X88592658Y-123606111D01*
X88662932Y-123596007D01*
X88727512Y-123625501D01*
G37*
%TD.AperFunction*%
%TA.AperFunction,Conductor*%
G36*
X92393589Y-127609820D02*
G01*
X92441967Y-127661782D01*
X92443110Y-127664392D01*
X92445110Y-127668219D01*
X92447795Y-127675323D01*
X92452094Y-127681578D01*
X92453736Y-127684719D01*
X92460834Y-127697473D01*
X92462671Y-127700579D01*
X92465724Y-127707534D01*
X92470349Y-127713561D01*
X92470351Y-127713565D01*
X92504066Y-127757503D01*
X92507930Y-127762821D01*
X92543622Y-127814753D01*
X92549292Y-127819805D01*
X92549293Y-127819806D01*
X92589489Y-127855619D01*
X92594765Y-127860600D01*
X94996695Y-130262530D01*
X95030721Y-130324842D01*
X95033600Y-130351625D01*
X95033600Y-131315301D01*
X95013598Y-131383422D01*
X94959942Y-131429915D01*
X94907600Y-131441301D01*
X94745813Y-131441301D01*
X94677692Y-131421299D01*
X94656718Y-131404396D01*
X91741762Y-128489440D01*
X91707736Y-128427128D01*
X91712801Y-128356313D01*
X91749027Y-128304534D01*
X91871208Y-128200182D01*
X91871213Y-128200177D01*
X91874969Y-128196969D01*
X92029176Y-128016416D01*
X92031755Y-128012208D01*
X92031759Y-128012202D01*
X92150654Y-127818183D01*
X92153240Y-127813963D01*
X92155505Y-127808496D01*
X92212886Y-127669964D01*
X92257434Y-127614683D01*
X92324798Y-127592262D01*
X92393589Y-127609820D01*
G37*
%TD.AperFunction*%
%TA.AperFunction,Conductor*%
G36*
X102915083Y-127134802D02*
G01*
X102942773Y-127158970D01*
X103066818Y-127304208D01*
X103066823Y-127304213D01*
X103070031Y-127307969D01*
X103250584Y-127462176D01*
X103254800Y-127464760D01*
X103254802Y-127464761D01*
X103266358Y-127471843D01*
X103313989Y-127524491D01*
X103326515Y-127580595D01*
X103325744Y-127654209D01*
X103332019Y-127683229D01*
X103334967Y-127696865D01*
X103337028Y-127709449D01*
X103340522Y-127740598D01*
X103341893Y-127752825D01*
X103345381Y-127762841D01*
X103353002Y-127784726D01*
X103357164Y-127799536D01*
X103364302Y-127832551D01*
X103367280Y-127838938D01*
X103367281Y-127838940D01*
X103382752Y-127872119D01*
X103387547Y-127883927D01*
X103401899Y-127925139D01*
X103406043Y-127931770D01*
X103419797Y-127953782D01*
X103427133Y-127967292D01*
X103441415Y-127997919D01*
X103452496Y-128012204D01*
X103468169Y-128032410D01*
X103475462Y-128042864D01*
X103498589Y-128079876D01*
X103503554Y-128084875D01*
X103503555Y-128084877D01*
X103527356Y-128108844D01*
X103527953Y-128109482D01*
X103528473Y-128110153D01*
X103554731Y-128136411D01*
X103618059Y-128200182D01*
X103627159Y-128209346D01*
X103628200Y-128210006D01*
X103629435Y-128211115D01*
X104547919Y-129129599D01*
X104581945Y-129191911D01*
X104576880Y-129262726D01*
X104534333Y-129319562D01*
X104467813Y-129344373D01*
X104436731Y-129342741D01*
X104266463Y-129312412D01*
X104172925Y-129311269D01*
X104029318Y-129309514D01*
X104029316Y-129309514D01*
X104024148Y-129309451D01*
X103784603Y-129346107D01*
X103554261Y-129421394D01*
X103339309Y-129533291D01*
X103335176Y-129536394D01*
X103335173Y-129536396D01*
X103185052Y-129649110D01*
X103145518Y-129678793D01*
X102978095Y-129853992D01*
X102962534Y-129876804D01*
X102907624Y-129921805D01*
X102837099Y-129929976D01*
X102773352Y-129898722D01*
X102760287Y-129884493D01*
X102758899Y-129882347D01*
X102753855Y-129876803D01*
X102599281Y-129706929D01*
X102595806Y-129703110D01*
X102405628Y-129552917D01*
X102247748Y-129465762D01*
X102198005Y-129438302D01*
X102198002Y-129438301D01*
X102193474Y-129435801D01*
X102057962Y-129387814D01*
X101969913Y-129356634D01*
X101969910Y-129356633D01*
X101965041Y-129354909D01*
X101959952Y-129354002D01*
X101959950Y-129354002D01*
X101857898Y-129335824D01*
X101726463Y-129312412D01*
X101632925Y-129311269D01*
X101489318Y-129309514D01*
X101489316Y-129309514D01*
X101484148Y-129309451D01*
X101244603Y-129346107D01*
X101014261Y-129421394D01*
X100799309Y-129533291D01*
X100795176Y-129536394D01*
X100795173Y-129536396D01*
X100645052Y-129649110D01*
X100605518Y-129678793D01*
X100601946Y-129682531D01*
X100486270Y-129803580D01*
X100438095Y-129853992D01*
X100435184Y-129858260D01*
X100435178Y-129858267D01*
X100422235Y-129877240D01*
X100367323Y-129922242D01*
X100296798Y-129930412D01*
X100233051Y-129899156D01*
X100218321Y-129883115D01*
X100215018Y-129878827D01*
X100058941Y-129707300D01*
X100051408Y-129700274D01*
X99869404Y-129556536D01*
X99860832Y-129550840D01*
X99657792Y-129438756D01*
X99648395Y-129434533D01*
X99429780Y-129357118D01*
X99419830Y-129354489D01*
X99319136Y-129336553D01*
X99305840Y-129338012D01*
X99301300Y-129352568D01*
X99301300Y-130912600D01*
X99281298Y-130980721D01*
X99227642Y-131027214D01*
X99175300Y-131038600D01*
X98919300Y-131038600D01*
X98851179Y-131018598D01*
X98804686Y-130964942D01*
X98793300Y-130912600D01*
X98793300Y-129351155D01*
X98789382Y-129337811D01*
X98775106Y-129335824D01*
X98709832Y-129345813D01*
X98699804Y-129348202D01*
X98479373Y-129420250D01*
X98469864Y-129424247D01*
X98264165Y-129531327D01*
X98255440Y-129536821D01*
X98120181Y-129638377D01*
X98053696Y-129663283D01*
X97984301Y-129648291D01*
X97934027Y-129598160D01*
X97926546Y-129581847D01*
X97926267Y-129581103D01*
X97923115Y-129572695D01*
X97835761Y-129456139D01*
X97719205Y-129368785D01*
X97582816Y-129317655D01*
X97520634Y-129310900D01*
X96074327Y-129310900D01*
X96006206Y-129290898D01*
X95985232Y-129273996D01*
X95767365Y-129056129D01*
X95547133Y-128835898D01*
X95513109Y-128773586D01*
X95518173Y-128702771D01*
X95560720Y-128645935D01*
X95627240Y-128621124D01*
X95648251Y-128622023D01*
X95648289Y-128621535D01*
X95856463Y-128637919D01*
X95885000Y-128640165D01*
X96121711Y-128621535D01*
X96126518Y-128620381D01*
X96126524Y-128620380D01*
X96272391Y-128585360D01*
X96352594Y-128566105D01*
X96357167Y-128564211D01*
X96567389Y-128477135D01*
X96567393Y-128477133D01*
X96571963Y-128475240D01*
X96576183Y-128472654D01*
X96770202Y-128353759D01*
X96770208Y-128353755D01*
X96774416Y-128351176D01*
X96954969Y-128196969D01*
X97006691Y-128136411D01*
X97105963Y-128020178D01*
X97109176Y-128016416D01*
X97126736Y-127987762D01*
X97179383Y-127940133D01*
X97234166Y-127927600D01*
X98091601Y-127927600D01*
X98100171Y-127927892D01*
X98149477Y-127931254D01*
X98149481Y-127931254D01*
X98157052Y-127931770D01*
X98164528Y-127930465D01*
X98164532Y-127930465D01*
X98219124Y-127920937D01*
X98225649Y-127919974D01*
X98280618Y-127913322D01*
X98280620Y-127913321D01*
X98288160Y-127912409D01*
X98295262Y-127909725D01*
X98298700Y-127908881D01*
X98312823Y-127905017D01*
X98316234Y-127903987D01*
X98323717Y-127902681D01*
X98381397Y-127877361D01*
X98387504Y-127874870D01*
X98439317Y-127855291D01*
X98439318Y-127855290D01*
X98446422Y-127852606D01*
X98452677Y-127848307D01*
X98455818Y-127846665D01*
X98468572Y-127839567D01*
X98471678Y-127837730D01*
X98478633Y-127834677D01*
X98484660Y-127830052D01*
X98484664Y-127830050D01*
X98528602Y-127796335D01*
X98533920Y-127792471D01*
X98585852Y-127756779D01*
X98590903Y-127751110D01*
X98596604Y-127746084D01*
X98597712Y-127747341D01*
X98650206Y-127714624D01*
X98684026Y-127710000D01*
X99995434Y-127710000D01*
X100057616Y-127703245D01*
X100194005Y-127652115D01*
X100310561Y-127564761D01*
X100397915Y-127448205D01*
X100422480Y-127382678D01*
X100465122Y-127325914D01*
X100531683Y-127301214D01*
X100601032Y-127316421D01*
X100620947Y-127329964D01*
X100686024Y-127383992D01*
X100776649Y-127459230D01*
X100976622Y-127576084D01*
X100981447Y-127577926D01*
X100981448Y-127577927D01*
X101037070Y-127599167D01*
X101192994Y-127658709D01*
X101198060Y-127659740D01*
X101198061Y-127659740D01*
X101204726Y-127661096D01*
X101419956Y-127704885D01*
X101549389Y-127709631D01*
X101646249Y-127713183D01*
X101646253Y-127713183D01*
X101651413Y-127713372D01*
X101656533Y-127712716D01*
X101656535Y-127712716D01*
X101731519Y-127703110D01*
X101881147Y-127683942D01*
X101886095Y-127682457D01*
X101886102Y-127682456D01*
X102098047Y-127618869D01*
X102102990Y-127617386D01*
X102108508Y-127614683D01*
X102306349Y-127517762D01*
X102306352Y-127517760D01*
X102310984Y-127515491D01*
X102499543Y-127380994D01*
X102663603Y-127217505D01*
X102666868Y-127212962D01*
X102699699Y-127167273D01*
X102755694Y-127123626D01*
X102802021Y-127114800D01*
X102846962Y-127114800D01*
X102915083Y-127134802D01*
G37*
%TD.AperFunction*%
%TA.AperFunction,Conductor*%
G36*
X110220092Y-125926580D02*
G01*
X110250077Y-125990934D01*
X110251500Y-126009817D01*
X110251500Y-127286134D01*
X110258255Y-127348316D01*
X110309385Y-127484705D01*
X110396739Y-127601261D01*
X110513295Y-127688615D01*
X110649684Y-127739745D01*
X110705560Y-127745815D01*
X110708037Y-127746084D01*
X110711866Y-127746500D01*
X110820700Y-127746500D01*
X110888821Y-127766502D01*
X110935314Y-127820158D01*
X110946700Y-127872500D01*
X110946700Y-128630179D01*
X110926698Y-128698300D01*
X110921530Y-128705739D01*
X110890385Y-128747295D01*
X110839255Y-128883684D01*
X110832500Y-128945866D01*
X110832500Y-129341044D01*
X110812498Y-129409165D01*
X110758842Y-129455658D01*
X110688568Y-129465762D01*
X110628408Y-129439926D01*
X110486605Y-129327936D01*
X110478032Y-129322240D01*
X110274992Y-129210156D01*
X110265595Y-129205933D01*
X110046980Y-129128518D01*
X110037030Y-129125889D01*
X109936336Y-129107953D01*
X109923040Y-129109412D01*
X109918500Y-129123968D01*
X109918500Y-130684000D01*
X109898498Y-130752121D01*
X109844842Y-130798614D01*
X109792500Y-130810000D01*
X109536500Y-130810000D01*
X109468379Y-130789998D01*
X109421886Y-130736342D01*
X109410500Y-130684000D01*
X109410500Y-129122555D01*
X109406582Y-129109211D01*
X109392306Y-129107224D01*
X109327032Y-129117213D01*
X109317004Y-129119602D01*
X109096573Y-129191650D01*
X109087064Y-129195647D01*
X108881365Y-129302727D01*
X108872640Y-129308221D01*
X108737381Y-129409777D01*
X108670896Y-129434683D01*
X108601501Y-129419691D01*
X108551227Y-129369560D01*
X108543746Y-129353247D01*
X108543467Y-129352503D01*
X108540315Y-129344095D01*
X108452961Y-129227539D01*
X108336405Y-129140185D01*
X108200016Y-129089055D01*
X108137834Y-129082300D01*
X106853170Y-129082300D01*
X106785049Y-129062298D01*
X106764075Y-129045395D01*
X105207130Y-127488450D01*
X105173104Y-127426138D01*
X105178169Y-127355323D01*
X105206939Y-127310556D01*
X105209969Y-127307969D01*
X105364176Y-127127416D01*
X105366755Y-127123208D01*
X105366759Y-127123202D01*
X105485654Y-126929183D01*
X105488240Y-126924963D01*
X105502603Y-126890289D01*
X105577211Y-126710167D01*
X105577212Y-126710165D01*
X105579105Y-126705594D01*
X105598360Y-126625391D01*
X105633380Y-126479524D01*
X105633381Y-126479518D01*
X105634535Y-126474711D01*
X105653165Y-126238000D01*
X105638399Y-126050386D01*
X105652995Y-125980907D01*
X105702837Y-125930348D01*
X105764011Y-125914501D01*
X109858842Y-125914501D01*
X109867412Y-125914793D01*
X109916718Y-125918155D01*
X109916722Y-125918155D01*
X109924293Y-125918671D01*
X109931769Y-125917366D01*
X109931773Y-125917366D01*
X109986365Y-125907838D01*
X109992890Y-125906875D01*
X110047859Y-125900223D01*
X110047861Y-125900222D01*
X110055401Y-125899310D01*
X110062503Y-125896626D01*
X110065941Y-125895782D01*
X110080051Y-125891921D01*
X110083468Y-125890889D01*
X110090958Y-125889582D01*
X110091888Y-125889174D01*
X110160075Y-125888654D01*
X110220092Y-125926580D01*
G37*
%TD.AperFunction*%
%TA.AperFunction,Conductor*%
G36*
X91827328Y-119506456D02*
G01*
X91879204Y-119537739D01*
X94735503Y-122394038D01*
X94741356Y-122400303D01*
X94778842Y-122443274D01*
X94785056Y-122447641D01*
X94830378Y-122479494D01*
X94835674Y-122483427D01*
X94879263Y-122517606D01*
X94879266Y-122517608D01*
X94885240Y-122522292D01*
X94892164Y-122525418D01*
X94895199Y-122527256D01*
X94907898Y-122534500D01*
X94911046Y-122536188D01*
X94917261Y-122540556D01*
X94975950Y-122563438D01*
X94981995Y-122565978D01*
X95039435Y-122591913D01*
X95046908Y-122593298D01*
X95050326Y-122594369D01*
X95064315Y-122598354D01*
X95067807Y-122599251D01*
X95074889Y-122602012D01*
X95082422Y-122603004D01*
X95082423Y-122603004D01*
X95137330Y-122610233D01*
X95143843Y-122611265D01*
X95205786Y-122622745D01*
X95205191Y-122625956D01*
X95258039Y-122645111D01*
X95297663Y-122693427D01*
X95300147Y-122698754D01*
X95300151Y-122698761D01*
X95302477Y-122703749D01*
X95433802Y-122891300D01*
X95580868Y-123038366D01*
X95614894Y-123100678D01*
X95609829Y-123171493D01*
X95567282Y-123228329D01*
X95521187Y-123249979D01*
X95417406Y-123274895D01*
X95412835Y-123276788D01*
X95412833Y-123276789D01*
X95202611Y-123363865D01*
X95202607Y-123363867D01*
X95198037Y-123365760D01*
X95193817Y-123368346D01*
X94999798Y-123487241D01*
X94999792Y-123487245D01*
X94995584Y-123489824D01*
X94815031Y-123644031D01*
X94660824Y-123824584D01*
X94658245Y-123828792D01*
X94658241Y-123828798D01*
X94566752Y-123978095D01*
X94536760Y-124027037D01*
X94534867Y-124031607D01*
X94534865Y-124031611D01*
X94507940Y-124096615D01*
X94445895Y-124246406D01*
X94435997Y-124287634D01*
X94392492Y-124468848D01*
X94390465Y-124477289D01*
X94371835Y-124714000D01*
X94390465Y-124950711D01*
X94391619Y-124955518D01*
X94391620Y-124955524D01*
X94413202Y-125045419D01*
X94445895Y-125181594D01*
X94447788Y-125186165D01*
X94447789Y-125186167D01*
X94517045Y-125353366D01*
X94536760Y-125400963D01*
X94539346Y-125405183D01*
X94658241Y-125599202D01*
X94658245Y-125599208D01*
X94660824Y-125603416D01*
X94815031Y-125783969D01*
X94818787Y-125787177D01*
X94818792Y-125787182D01*
X94862707Y-125824689D01*
X94901517Y-125884139D01*
X94902023Y-125955134D01*
X94862707Y-126016311D01*
X94818792Y-126053818D01*
X94818787Y-126053823D01*
X94815031Y-126057031D01*
X94660824Y-126237584D01*
X94658245Y-126241792D01*
X94658241Y-126241798D01*
X94590976Y-126351565D01*
X94536760Y-126440037D01*
X94534867Y-126444607D01*
X94534865Y-126444611D01*
X94520404Y-126479524D01*
X94445895Y-126659406D01*
X94390465Y-126890289D01*
X94371835Y-127127000D01*
X94372223Y-127131930D01*
X94390465Y-127363711D01*
X94388635Y-127363855D01*
X94380555Y-127426455D01*
X94334842Y-127480776D01*
X94267017Y-127501760D01*
X94198615Y-127482743D01*
X94176103Y-127464868D01*
X93807706Y-127096471D01*
X93773680Y-127034159D01*
X93770801Y-127007376D01*
X93770801Y-123580400D01*
X93771093Y-123571830D01*
X93774455Y-123522524D01*
X93774455Y-123522520D01*
X93774971Y-123514949D01*
X93773666Y-123507473D01*
X93773666Y-123507469D01*
X93764138Y-123452877D01*
X93763175Y-123446352D01*
X93756523Y-123391383D01*
X93756522Y-123391381D01*
X93755610Y-123383841D01*
X93752926Y-123376739D01*
X93752082Y-123373301D01*
X93748218Y-123359178D01*
X93747188Y-123355767D01*
X93745882Y-123348284D01*
X93742484Y-123340543D01*
X93720562Y-123290603D01*
X93718071Y-123284497D01*
X93698492Y-123232684D01*
X93698491Y-123232683D01*
X93695807Y-123225579D01*
X93691508Y-123219324D01*
X93689866Y-123216183D01*
X93682768Y-123203429D01*
X93680931Y-123200323D01*
X93677878Y-123193368D01*
X93673253Y-123187341D01*
X93673251Y-123187337D01*
X93639536Y-123143399D01*
X93635672Y-123138081D01*
X93599980Y-123086149D01*
X93554112Y-123045282D01*
X93548837Y-123040302D01*
X92779119Y-122270584D01*
X92745093Y-122208272D01*
X92742693Y-122170508D01*
X92753019Y-122052476D01*
X92753019Y-122052475D01*
X92753498Y-122047000D01*
X92733543Y-121818913D01*
X92732117Y-121813591D01*
X92675707Y-121603067D01*
X92675706Y-121603065D01*
X92674284Y-121597757D01*
X92641068Y-121526524D01*
X92579849Y-121395238D01*
X92579846Y-121395233D01*
X92577523Y-121390251D01*
X92446198Y-121202700D01*
X92284300Y-121040802D01*
X92279792Y-121037645D01*
X92279789Y-121037643D01*
X92103501Y-120914205D01*
X92096749Y-120909477D01*
X92091767Y-120907154D01*
X92091762Y-120907151D01*
X91894225Y-120815039D01*
X91894224Y-120815039D01*
X91889243Y-120812716D01*
X91883935Y-120811294D01*
X91883933Y-120811293D01*
X91673402Y-120754881D01*
X91673400Y-120754881D01*
X91668087Y-120753457D01*
X91440000Y-120733502D01*
X91434525Y-120733981D01*
X91434524Y-120733981D01*
X91316494Y-120744307D01*
X91246890Y-120730318D01*
X91216418Y-120707881D01*
X91184545Y-120676008D01*
X91150519Y-120613696D01*
X91155584Y-120542881D01*
X91191809Y-120491102D01*
X91236213Y-120453177D01*
X91239969Y-120449969D01*
X91394176Y-120269416D01*
X91396755Y-120265208D01*
X91396759Y-120265202D01*
X91515654Y-120071183D01*
X91518240Y-120066963D01*
X91520229Y-120062163D01*
X91607211Y-119852167D01*
X91607212Y-119852165D01*
X91609105Y-119847594D01*
X91650451Y-119675375D01*
X91663381Y-119621519D01*
X91663382Y-119621515D01*
X91664535Y-119616711D01*
X91664923Y-119611780D01*
X91665660Y-119607126D01*
X91696071Y-119542972D01*
X91756338Y-119505444D01*
X91827328Y-119506456D01*
G37*
%TD.AperFunction*%
%TA.AperFunction,Conductor*%
G36*
X98621121Y-116606002D02*
G01*
X98667614Y-116659658D01*
X98679000Y-116712000D01*
X98679000Y-118129885D01*
X98683475Y-118145124D01*
X98684865Y-118146329D01*
X98692548Y-118148000D01*
X98879365Y-118148000D01*
X98884830Y-118147762D01*
X99047519Y-118133528D01*
X99058312Y-118131625D01*
X99268761Y-118075236D01*
X99279053Y-118071490D01*
X99451750Y-117990960D01*
X99521942Y-117980299D01*
X99586754Y-118009279D01*
X99625611Y-118068699D01*
X99631000Y-118105155D01*
X99631000Y-118841470D01*
X99610998Y-118909591D01*
X99577271Y-118944683D01*
X99490211Y-119005643D01*
X99490208Y-119005645D01*
X99485700Y-119008802D01*
X99323802Y-119170700D01*
X99320645Y-119175208D01*
X99320643Y-119175211D01*
X99266978Y-119251853D01*
X99192477Y-119358251D01*
X99190154Y-119363232D01*
X99190151Y-119363238D01*
X99108781Y-119537739D01*
X99095716Y-119565757D01*
X99094294Y-119571065D01*
X99094293Y-119571067D01*
X99066344Y-119675375D01*
X99036457Y-119786913D01*
X99016502Y-120015000D01*
X99036457Y-120243087D01*
X99037881Y-120248400D01*
X99037881Y-120248402D01*
X99076312Y-120391825D01*
X99095716Y-120464243D01*
X99098039Y-120469224D01*
X99098039Y-120469225D01*
X99190151Y-120666762D01*
X99190154Y-120666767D01*
X99192477Y-120671749D01*
X99242598Y-120743329D01*
X99319753Y-120853517D01*
X99323802Y-120859300D01*
X99485700Y-121021198D01*
X99490208Y-121024355D01*
X99490211Y-121024357D01*
X99568389Y-121079098D01*
X99673251Y-121152523D01*
X99678233Y-121154846D01*
X99678238Y-121154849D01*
X99875775Y-121246961D01*
X99880757Y-121249284D01*
X99886065Y-121250706D01*
X99886067Y-121250707D01*
X100096598Y-121307119D01*
X100096600Y-121307119D01*
X100101913Y-121308543D01*
X100330000Y-121328498D01*
X100558087Y-121308543D01*
X100559659Y-121308122D01*
X100629028Y-121315858D01*
X100669444Y-121342980D01*
X101340098Y-122013634D01*
X101374124Y-122075946D01*
X101369059Y-122146761D01*
X101326512Y-122203597D01*
X101259992Y-122228408D01*
X101190618Y-122213317D01*
X101178732Y-122205942D01*
X101127690Y-122170202D01*
X101050249Y-122115977D01*
X101045267Y-122113654D01*
X101045262Y-122113651D01*
X100847725Y-122021539D01*
X100847724Y-122021539D01*
X100842743Y-122019216D01*
X100837435Y-122017794D01*
X100837433Y-122017793D01*
X100626902Y-121961381D01*
X100626900Y-121961381D01*
X100621587Y-121959957D01*
X100393500Y-121940002D01*
X100165413Y-121959957D01*
X100160100Y-121961381D01*
X100160098Y-121961381D01*
X99949567Y-122017793D01*
X99949565Y-122017794D01*
X99944257Y-122019216D01*
X99939276Y-122021539D01*
X99939275Y-122021539D01*
X99741738Y-122113651D01*
X99741733Y-122113654D01*
X99736751Y-122115977D01*
X99692787Y-122146761D01*
X99553711Y-122244143D01*
X99553708Y-122244145D01*
X99549200Y-122247302D01*
X99387302Y-122409200D01*
X99255977Y-122596751D01*
X99253654Y-122601733D01*
X99253651Y-122601738D01*
X99182170Y-122755031D01*
X99159216Y-122804257D01*
X99157794Y-122809565D01*
X99157793Y-122809567D01*
X99125035Y-122931822D01*
X99099957Y-123025413D01*
X99080002Y-123253500D01*
X99080481Y-123258975D01*
X99099478Y-123476107D01*
X99099957Y-123481587D01*
X99100378Y-123483160D01*
X99092641Y-123552531D01*
X99065520Y-123592945D01*
X98680370Y-123978095D01*
X98618058Y-124012121D01*
X98591275Y-124015000D01*
X97296427Y-124015000D01*
X97228306Y-123994998D01*
X97188995Y-123954835D01*
X97111763Y-123828806D01*
X97109176Y-123824584D01*
X97091964Y-123804431D01*
X96958177Y-123647787D01*
X96954969Y-123644031D01*
X96933273Y-123625501D01*
X96798085Y-123510039D01*
X96759276Y-123450588D01*
X96758770Y-123379594D01*
X96796726Y-123319595D01*
X96847304Y-123292522D01*
X96877252Y-123284497D01*
X96883933Y-123282707D01*
X96883935Y-123282706D01*
X96889243Y-123281284D01*
X96898883Y-123276789D01*
X97091762Y-123186849D01*
X97091767Y-123186846D01*
X97096749Y-123184523D01*
X97216492Y-123100678D01*
X97279789Y-123056357D01*
X97279792Y-123056355D01*
X97284300Y-123053198D01*
X97446198Y-122891300D01*
X97577523Y-122703749D01*
X97579846Y-122698767D01*
X97579849Y-122698762D01*
X97671961Y-122501225D01*
X97671961Y-122501224D01*
X97674284Y-122496243D01*
X97698652Y-122405303D01*
X97732119Y-122280402D01*
X97732119Y-122280400D01*
X97733543Y-122275087D01*
X97753498Y-122047000D01*
X97733543Y-121818913D01*
X97732117Y-121813591D01*
X97675707Y-121603067D01*
X97675706Y-121603065D01*
X97674284Y-121597757D01*
X97641068Y-121526524D01*
X97579849Y-121395238D01*
X97579846Y-121395233D01*
X97577523Y-121390251D01*
X97446198Y-121202700D01*
X97284300Y-121040802D01*
X97279792Y-121037645D01*
X97279789Y-121037643D01*
X97103501Y-120914205D01*
X97096749Y-120909477D01*
X97091767Y-120907154D01*
X97091762Y-120907151D01*
X96894225Y-120815039D01*
X96894224Y-120815039D01*
X96889243Y-120812716D01*
X96883935Y-120811294D01*
X96883933Y-120811293D01*
X96673402Y-120754881D01*
X96673400Y-120754881D01*
X96668087Y-120753457D01*
X96440000Y-120733502D01*
X96327678Y-120743329D01*
X96258073Y-120729340D01*
X96207080Y-120679940D01*
X96190890Y-120610815D01*
X96214642Y-120543909D01*
X96234865Y-120521997D01*
X96315858Y-120452822D01*
X96322822Y-120445858D01*
X96470557Y-120272883D01*
X96476357Y-120264899D01*
X96595205Y-120070958D01*
X96599687Y-120062163D01*
X96686736Y-119852008D01*
X96689782Y-119842634D01*
X96735642Y-119651615D01*
X96734937Y-119637531D01*
X96726056Y-119634000D01*
X95122000Y-119634000D01*
X95053879Y-119613998D01*
X95007386Y-119560342D01*
X94996000Y-119508000D01*
X94996000Y-119252000D01*
X95016002Y-119183879D01*
X95069658Y-119137386D01*
X95122000Y-119126000D01*
X96721756Y-119126000D01*
X96735287Y-119122027D01*
X96736647Y-119112569D01*
X96689782Y-118917366D01*
X96686736Y-118907992D01*
X96599687Y-118697837D01*
X96595205Y-118689042D01*
X96476357Y-118495101D01*
X96470557Y-118487117D01*
X96322822Y-118314142D01*
X96315858Y-118307178D01*
X96197558Y-118206140D01*
X96158749Y-118146689D01*
X96158243Y-118075695D01*
X96197558Y-118014518D01*
X96316213Y-117913177D01*
X96319969Y-117909969D01*
X96474176Y-117729416D01*
X96476755Y-117725208D01*
X96476759Y-117725202D01*
X96595654Y-117531183D01*
X96598240Y-117526963D01*
X96631606Y-117446411D01*
X96676155Y-117391130D01*
X96743518Y-117368709D01*
X96812309Y-117386267D01*
X96862210Y-117441380D01*
X96885584Y-117491507D01*
X96891069Y-117501007D01*
X97016028Y-117679467D01*
X97023084Y-117687875D01*
X97177125Y-117841916D01*
X97185533Y-117848972D01*
X97363993Y-117973931D01*
X97373489Y-117979414D01*
X97570947Y-118071490D01*
X97581239Y-118075236D01*
X97791688Y-118131625D01*
X97802481Y-118133528D01*
X97965170Y-118147762D01*
X97970635Y-118148000D01*
X98152885Y-118148000D01*
X98168124Y-118143525D01*
X98169329Y-118142135D01*
X98171000Y-118134452D01*
X98171000Y-116712000D01*
X98191002Y-116643879D01*
X98244658Y-116597386D01*
X98297000Y-116586000D01*
X98553000Y-116586000D01*
X98621121Y-116606002D01*
G37*
%TD.AperFunction*%
%TA.AperFunction,Conductor*%
G36*
X101231782Y-107886919D02*
G01*
X101288618Y-107929466D01*
X101313429Y-107995986D01*
X101313750Y-108004975D01*
X101313750Y-111445651D01*
X101313458Y-111454221D01*
X101309580Y-111511102D01*
X101310885Y-111518578D01*
X101310885Y-111518582D01*
X101320413Y-111573174D01*
X101321376Y-111579699D01*
X101328941Y-111642210D01*
X101331625Y-111649312D01*
X101332469Y-111652750D01*
X101336333Y-111666873D01*
X101337363Y-111670284D01*
X101338669Y-111677767D01*
X101341722Y-111684722D01*
X101363989Y-111735448D01*
X101366480Y-111741554D01*
X101388744Y-111800472D01*
X101393043Y-111806727D01*
X101394685Y-111809868D01*
X101401783Y-111822622D01*
X101403620Y-111825728D01*
X101406673Y-111832683D01*
X101411298Y-111838710D01*
X101411300Y-111838714D01*
X101445015Y-111882652D01*
X101448879Y-111887970D01*
X101484571Y-111939902D01*
X101530447Y-111980776D01*
X101535705Y-111985740D01*
X102134096Y-112584132D01*
X102168121Y-112646444D01*
X102171000Y-112673227D01*
X102171000Y-119288343D01*
X102170708Y-119296913D01*
X102167878Y-119338428D01*
X102166830Y-119353794D01*
X102168135Y-119361270D01*
X102168135Y-119361274D01*
X102177663Y-119415866D01*
X102178626Y-119422391D01*
X102179785Y-119431963D01*
X102186191Y-119484902D01*
X102188875Y-119492004D01*
X102189719Y-119495442D01*
X102193583Y-119509565D01*
X102194613Y-119512976D01*
X102195919Y-119520459D01*
X102198972Y-119527414D01*
X102221239Y-119578140D01*
X102223730Y-119584246D01*
X102245994Y-119643164D01*
X102250293Y-119649419D01*
X102251935Y-119652560D01*
X102259033Y-119665314D01*
X102260870Y-119668420D01*
X102263923Y-119675375D01*
X102268548Y-119681402D01*
X102268550Y-119681406D01*
X102302265Y-119725344D01*
X102306129Y-119730662D01*
X102341821Y-119782594D01*
X102347491Y-119787646D01*
X102347492Y-119787647D01*
X102387688Y-119823460D01*
X102392964Y-119828441D01*
X104323561Y-121759038D01*
X104329414Y-121765303D01*
X104366900Y-121808274D01*
X104382038Y-121818913D01*
X104418447Y-121844502D01*
X104423742Y-121848435D01*
X104473297Y-121887291D01*
X104480221Y-121890417D01*
X104483270Y-121892264D01*
X104495936Y-121899489D01*
X104499101Y-121901186D01*
X104505319Y-121905556D01*
X104564054Y-121928456D01*
X104570067Y-121930983D01*
X104627493Y-121956912D01*
X104627494Y-121956912D01*
X104626471Y-121959179D01*
X104675513Y-121991959D01*
X104703839Y-122057060D01*
X104692472Y-122127141D01*
X104651090Y-122175957D01*
X104553711Y-122244143D01*
X104553708Y-122244145D01*
X104549200Y-122247302D01*
X104387302Y-122409200D01*
X104255977Y-122596751D01*
X104253653Y-122601736D01*
X104253649Y-122601742D01*
X104218911Y-122676240D01*
X104171995Y-122729525D01*
X104103717Y-122748987D01*
X104035757Y-122728446D01*
X104015621Y-122712086D01*
X101657980Y-120354445D01*
X101623954Y-120292133D01*
X101623020Y-120245039D01*
X101623543Y-120243087D01*
X101624023Y-120237607D01*
X101643019Y-120020475D01*
X101643498Y-120015000D01*
X101623543Y-119786913D01*
X101593656Y-119675375D01*
X101565707Y-119571067D01*
X101565706Y-119571065D01*
X101564284Y-119565757D01*
X101551219Y-119537739D01*
X101469849Y-119363238D01*
X101469846Y-119363232D01*
X101467523Y-119358251D01*
X101393022Y-119251853D01*
X101339357Y-119175211D01*
X101339355Y-119175208D01*
X101336198Y-119170700D01*
X101174300Y-119008802D01*
X101169792Y-119005645D01*
X101169789Y-119005643D01*
X101082729Y-118944683D01*
X101038401Y-118889226D01*
X101029000Y-118841470D01*
X101029000Y-111153600D01*
X101029292Y-111145029D01*
X101033170Y-111088149D01*
X101022334Y-111026065D01*
X101021378Y-111019586D01*
X101013809Y-110957040D01*
X101011125Y-110949938D01*
X101010270Y-110946456D01*
X101006430Y-110932421D01*
X101005389Y-110928973D01*
X101004082Y-110921483D01*
X100983592Y-110874806D01*
X100978763Y-110863805D01*
X100976270Y-110857697D01*
X100956692Y-110805886D01*
X100956692Y-110805885D01*
X100954006Y-110798778D01*
X100949700Y-110792512D01*
X100948050Y-110789357D01*
X100940931Y-110776565D01*
X100939131Y-110773521D01*
X100936078Y-110766567D01*
X100931452Y-110760538D01*
X100897740Y-110716604D01*
X100893862Y-110711267D01*
X100862481Y-110665607D01*
X100862479Y-110665605D01*
X100858179Y-110659348D01*
X100842508Y-110645385D01*
X100812312Y-110618482D01*
X100807036Y-110613501D01*
X100170405Y-109976870D01*
X100136379Y-109914558D01*
X100133500Y-109887775D01*
X100133500Y-108644241D01*
X100153502Y-108576120D01*
X100207158Y-108529627D01*
X100246410Y-108520006D01*
X100246352Y-108519671D01*
X100251299Y-108518808D01*
X100251307Y-108518806D01*
X100262273Y-108516892D01*
X100308423Y-108508838D01*
X100314948Y-108507875D01*
X100369917Y-108501223D01*
X100369919Y-108501222D01*
X100377459Y-108500310D01*
X100384561Y-108497626D01*
X100387999Y-108496782D01*
X100402122Y-108492918D01*
X100405533Y-108491888D01*
X100413016Y-108490582D01*
X100470696Y-108465262D01*
X100476803Y-108462771D01*
X100528616Y-108443192D01*
X100528617Y-108443191D01*
X100535721Y-108440507D01*
X100541976Y-108436208D01*
X100545117Y-108434566D01*
X100557871Y-108427468D01*
X100560977Y-108425631D01*
X100567932Y-108422578D01*
X100573959Y-108417953D01*
X100573963Y-108417951D01*
X100617901Y-108384236D01*
X100623219Y-108380372D01*
X100675151Y-108344680D01*
X100716018Y-108298812D01*
X100720998Y-108293537D01*
X101098655Y-107915880D01*
X101160967Y-107881854D01*
X101231782Y-107886919D01*
G37*
%TD.AperFunction*%
%TA.AperFunction,Conductor*%
G36*
X93673924Y-109348779D02*
G01*
X93730759Y-109391326D01*
X93754340Y-109447126D01*
X93755077Y-109451777D01*
X93755465Y-109456711D01*
X93810895Y-109687594D01*
X93812788Y-109692165D01*
X93812789Y-109692167D01*
X93865891Y-109820366D01*
X93901760Y-109906963D01*
X93904346Y-109911183D01*
X94023241Y-110105202D01*
X94023242Y-110105203D01*
X94025824Y-110109416D01*
X94180031Y-110289969D01*
X94183787Y-110293177D01*
X94183792Y-110293182D01*
X94302056Y-110394189D01*
X94340866Y-110453639D01*
X94341372Y-110524634D01*
X94302056Y-110585811D01*
X94183792Y-110686818D01*
X94183787Y-110686823D01*
X94180031Y-110690031D01*
X94025824Y-110870584D01*
X94023245Y-110874792D01*
X94023241Y-110874798D01*
X93921394Y-111040998D01*
X93901760Y-111073037D01*
X93899867Y-111077607D01*
X93899865Y-111077611D01*
X93840215Y-111221620D01*
X93810895Y-111292406D01*
X93809740Y-111297218D01*
X93758391Y-111511102D01*
X93755465Y-111523289D01*
X93736835Y-111760000D01*
X93755465Y-111996711D01*
X93756619Y-112001518D01*
X93756620Y-112001524D01*
X93787965Y-112132082D01*
X93810895Y-112227594D01*
X93812788Y-112232165D01*
X93812789Y-112232167D01*
X93861256Y-112349176D01*
X93901760Y-112446963D01*
X93904346Y-112451183D01*
X94023241Y-112645202D01*
X94023245Y-112645208D01*
X94025824Y-112649416D01*
X94180031Y-112829969D01*
X94183787Y-112833177D01*
X94183792Y-112833182D01*
X94302056Y-112934189D01*
X94340866Y-112993639D01*
X94341372Y-113064634D01*
X94302056Y-113125811D01*
X94183792Y-113226818D01*
X94183787Y-113226823D01*
X94180031Y-113230031D01*
X94025824Y-113410584D01*
X94023245Y-113414792D01*
X94023241Y-113414798D01*
X93921394Y-113580998D01*
X93901760Y-113613037D01*
X93810895Y-113832406D01*
X93755465Y-114063289D01*
X93736835Y-114300000D01*
X93755465Y-114536711D01*
X93756619Y-114541518D01*
X93756620Y-114541524D01*
X93760618Y-114558175D01*
X93810895Y-114767594D01*
X93812788Y-114772165D01*
X93812789Y-114772167D01*
X93865891Y-114900366D01*
X93901760Y-114986963D01*
X93904346Y-114991183D01*
X94023241Y-115185202D01*
X94023245Y-115185208D01*
X94025824Y-115189416D01*
X94180031Y-115369969D01*
X94183787Y-115373177D01*
X94183792Y-115373182D01*
X94302056Y-115474189D01*
X94340866Y-115533639D01*
X94341372Y-115604634D01*
X94302056Y-115665811D01*
X94183792Y-115766818D01*
X94183787Y-115766823D01*
X94180031Y-115770031D01*
X94025824Y-115950584D01*
X94023245Y-115954792D01*
X94023241Y-115954798D01*
X93904346Y-116148817D01*
X93901760Y-116153037D01*
X93899867Y-116157607D01*
X93899865Y-116157611D01*
X93858804Y-116256743D01*
X93810895Y-116372406D01*
X93805215Y-116396067D01*
X93759616Y-116586000D01*
X93755465Y-116603289D01*
X93736835Y-116840000D01*
X93755465Y-117076711D01*
X93756619Y-117081518D01*
X93756620Y-117081524D01*
X93789777Y-117219630D01*
X93810895Y-117307594D01*
X93812788Y-117312165D01*
X93812789Y-117312167D01*
X93891113Y-117501258D01*
X93901760Y-117526963D01*
X93904346Y-117531183D01*
X94023241Y-117725202D01*
X94023245Y-117725208D01*
X94025824Y-117729416D01*
X94180031Y-117909969D01*
X94183787Y-117913177D01*
X94302442Y-118014518D01*
X94341251Y-118073968D01*
X94341757Y-118144963D01*
X94302442Y-118206140D01*
X94184142Y-118307178D01*
X94177178Y-118314142D01*
X94029443Y-118487117D01*
X94023643Y-118495101D01*
X93904795Y-118689042D01*
X93900313Y-118697837D01*
X93813266Y-118907988D01*
X93810217Y-118917373D01*
X93757115Y-119138554D01*
X93754797Y-119153192D01*
X93752325Y-119152800D01*
X93730887Y-119209546D01*
X93673873Y-119251853D01*
X93603036Y-119256620D01*
X93541243Y-119222708D01*
X91662297Y-117343762D01*
X91628271Y-117281450D01*
X91628873Y-117225253D01*
X91663380Y-117081524D01*
X91663381Y-117081518D01*
X91664535Y-117076711D01*
X91683165Y-116840000D01*
X91664535Y-116603289D01*
X91660385Y-116586000D01*
X91614785Y-116396067D01*
X91609105Y-116372406D01*
X91561196Y-116256743D01*
X91520135Y-116157611D01*
X91520133Y-116157607D01*
X91518240Y-116153037D01*
X91515654Y-116148817D01*
X91396759Y-115954798D01*
X91396755Y-115954792D01*
X91394176Y-115950584D01*
X91239969Y-115770031D01*
X91236213Y-115766823D01*
X91236208Y-115766818D01*
X91117944Y-115665811D01*
X91079134Y-115606361D01*
X91078628Y-115535366D01*
X91117944Y-115474189D01*
X91236208Y-115373182D01*
X91236213Y-115373177D01*
X91239969Y-115369969D01*
X91394176Y-115189416D01*
X91396755Y-115185208D01*
X91396759Y-115185202D01*
X91515654Y-114991183D01*
X91518240Y-114986963D01*
X91554110Y-114900366D01*
X91607211Y-114772167D01*
X91607212Y-114772165D01*
X91609105Y-114767594D01*
X91659382Y-114558175D01*
X91663380Y-114541524D01*
X91663381Y-114541518D01*
X91664535Y-114536711D01*
X91683165Y-114300000D01*
X91664535Y-114063289D01*
X91609105Y-113832406D01*
X91518240Y-113613037D01*
X91498606Y-113580998D01*
X91396759Y-113414798D01*
X91396755Y-113414792D01*
X91394176Y-113410584D01*
X91239969Y-113230031D01*
X91236213Y-113226823D01*
X91236208Y-113226818D01*
X91117944Y-113125811D01*
X91079134Y-113066361D01*
X91078628Y-112995366D01*
X91117944Y-112934189D01*
X91236208Y-112833182D01*
X91236213Y-112833177D01*
X91239969Y-112829969D01*
X91394176Y-112649416D01*
X91396755Y-112645208D01*
X91396759Y-112645202D01*
X91515654Y-112451183D01*
X91518240Y-112446963D01*
X91558745Y-112349176D01*
X91607211Y-112232167D01*
X91607212Y-112232165D01*
X91609105Y-112227594D01*
X91632035Y-112132082D01*
X91663380Y-112001524D01*
X91663381Y-112001518D01*
X91664535Y-111996711D01*
X91683165Y-111760000D01*
X91664535Y-111523289D01*
X91661610Y-111511102D01*
X91628873Y-111374747D01*
X91632420Y-111303839D01*
X91662297Y-111256238D01*
X93540796Y-109377740D01*
X93603108Y-109343714D01*
X93673924Y-109348779D01*
G37*
%TD.AperFunction*%
%TA.AperFunction,Conductor*%
G36*
X111486396Y-106764002D02*
G01*
X111507370Y-106780905D01*
X112807703Y-108081238D01*
X112841729Y-108143550D01*
X112841127Y-108199745D01*
X112836817Y-108217699D01*
X112807693Y-108339009D01*
X112805465Y-108348289D01*
X112786835Y-108585000D01*
X112805465Y-108821711D01*
X112860895Y-109052594D01*
X112951760Y-109271963D01*
X112954346Y-109276183D01*
X113073241Y-109470202D01*
X113073245Y-109470208D01*
X113075824Y-109474416D01*
X113230031Y-109654969D01*
X113233787Y-109658177D01*
X113233792Y-109658182D01*
X113352056Y-109759189D01*
X113390866Y-109818639D01*
X113391372Y-109889634D01*
X113352056Y-109950811D01*
X113233792Y-110051818D01*
X113233787Y-110051823D01*
X113230031Y-110055031D01*
X113226823Y-110058787D01*
X113218840Y-110068134D01*
X113075824Y-110235584D01*
X113056753Y-110266705D01*
X112996005Y-110365835D01*
X112943357Y-110413467D01*
X112888573Y-110426000D01*
X111788589Y-110426000D01*
X111780019Y-110425708D01*
X111730724Y-110422347D01*
X111730720Y-110422347D01*
X111723148Y-110421831D01*
X111715671Y-110423136D01*
X111715670Y-110423136D01*
X111688380Y-110427899D01*
X111661085Y-110432663D01*
X111654568Y-110433624D01*
X111646713Y-110434575D01*
X111599582Y-110440278D01*
X111599579Y-110440279D01*
X111592040Y-110441191D01*
X111584931Y-110443877D01*
X111581488Y-110444723D01*
X111567363Y-110448586D01*
X111563958Y-110449614D01*
X111556482Y-110450919D01*
X111498810Y-110476235D01*
X111492715Y-110478723D01*
X111440880Y-110498310D01*
X111440878Y-110498311D01*
X111433778Y-110500994D01*
X111427526Y-110505291D01*
X111424383Y-110506934D01*
X111411635Y-110514029D01*
X111408523Y-110515870D01*
X111401567Y-110518923D01*
X111395539Y-110523549D01*
X111395538Y-110523549D01*
X111351602Y-110557262D01*
X111346266Y-110561139D01*
X111310368Y-110585811D01*
X111294348Y-110596821D01*
X111289296Y-110602491D01*
X111289295Y-110602492D01*
X111253490Y-110642679D01*
X111248509Y-110647955D01*
X110929204Y-110967260D01*
X110866892Y-111001286D01*
X110796077Y-110996221D01*
X110739241Y-110953674D01*
X110715660Y-110897874D01*
X110714923Y-110893223D01*
X110714535Y-110888289D01*
X110659105Y-110657406D01*
X110638855Y-110608517D01*
X110570135Y-110442611D01*
X110570133Y-110442607D01*
X110568240Y-110438037D01*
X110557825Y-110421041D01*
X110446759Y-110239798D01*
X110446755Y-110239792D01*
X110444176Y-110235584D01*
X110301160Y-110068134D01*
X110293177Y-110058787D01*
X110289969Y-110055031D01*
X110286213Y-110051823D01*
X110286208Y-110051818D01*
X110167944Y-109950811D01*
X110129134Y-109891361D01*
X110128628Y-109820366D01*
X110167944Y-109759189D01*
X110286208Y-109658182D01*
X110286213Y-109658177D01*
X110289969Y-109654969D01*
X110444176Y-109474416D01*
X110446755Y-109470208D01*
X110446759Y-109470202D01*
X110565654Y-109276183D01*
X110568240Y-109271963D01*
X110659105Y-109052594D01*
X110714535Y-108821711D01*
X110733165Y-108585000D01*
X110714535Y-108348289D01*
X110712308Y-108339009D01*
X110667839Y-108153787D01*
X110659105Y-108117406D01*
X110643674Y-108080151D01*
X110570135Y-107902611D01*
X110570133Y-107902607D01*
X110568240Y-107898037D01*
X110558323Y-107881854D01*
X110446759Y-107699798D01*
X110446755Y-107699792D01*
X110444176Y-107695584D01*
X110299132Y-107525759D01*
X110293177Y-107518787D01*
X110289969Y-107515031D01*
X110286213Y-107511823D01*
X110286208Y-107511818D01*
X110167944Y-107410811D01*
X110129134Y-107351361D01*
X110128628Y-107280366D01*
X110167944Y-107219189D01*
X110286208Y-107118182D01*
X110286213Y-107118177D01*
X110289969Y-107114969D01*
X110444176Y-106934416D01*
X110523995Y-106804165D01*
X110576643Y-106756533D01*
X110631427Y-106744000D01*
X111418275Y-106744000D01*
X111486396Y-106764002D01*
G37*
%TD.AperFunction*%
%TA.AperFunction,Conductor*%
G36*
X111398013Y-100177789D02*
G01*
X111404596Y-100183918D01*
X113363238Y-102142560D01*
X113397264Y-102204872D01*
X113392199Y-102275687D01*
X113355973Y-102327466D01*
X113233792Y-102431818D01*
X113233787Y-102431823D01*
X113230031Y-102435031D01*
X113075824Y-102615584D01*
X113073245Y-102619792D01*
X113073241Y-102619798D01*
X112954346Y-102813817D01*
X112951760Y-102818037D01*
X112949867Y-102822607D01*
X112949865Y-102822611D01*
X112862789Y-103032833D01*
X112860895Y-103037406D01*
X112859740Y-103042218D01*
X112808300Y-103256482D01*
X112805465Y-103268289D01*
X112786835Y-103505000D01*
X112805465Y-103741711D01*
X112860895Y-103972594D01*
X112951760Y-104191963D01*
X112954346Y-104196183D01*
X113073241Y-104390202D01*
X113073245Y-104390208D01*
X113075824Y-104394416D01*
X113230031Y-104574969D01*
X113233787Y-104578177D01*
X113352442Y-104679518D01*
X113391251Y-104738968D01*
X113391757Y-104809963D01*
X113352442Y-104871140D01*
X113234142Y-104972178D01*
X113227178Y-104979142D01*
X113079443Y-105152117D01*
X113073643Y-105160101D01*
X112954795Y-105354042D01*
X112950313Y-105362837D01*
X112863266Y-105572988D01*
X112860217Y-105582373D01*
X112807115Y-105803554D01*
X112804797Y-105818192D01*
X112802339Y-105817803D01*
X112780843Y-105874603D01*
X112723805Y-105916877D01*
X112652966Y-105921603D01*
X112591243Y-105887707D01*
X112274496Y-105570960D01*
X112268643Y-105564695D01*
X112236153Y-105527451D01*
X112236150Y-105527448D01*
X112231158Y-105521726D01*
X112179622Y-105485506D01*
X112174326Y-105481573D01*
X112130737Y-105447394D01*
X112130734Y-105447392D01*
X112124760Y-105442708D01*
X112117836Y-105439582D01*
X112114801Y-105437744D01*
X112102102Y-105430500D01*
X112098954Y-105428812D01*
X112092739Y-105424444D01*
X112034050Y-105401562D01*
X112028005Y-105399022D01*
X111970565Y-105373087D01*
X111963092Y-105371702D01*
X111959674Y-105370631D01*
X111945685Y-105366646D01*
X111942193Y-105365749D01*
X111935111Y-105362988D01*
X111927578Y-105361996D01*
X111927577Y-105361996D01*
X111872670Y-105354767D01*
X111866157Y-105353735D01*
X111811682Y-105343639D01*
X111811680Y-105343639D01*
X111804213Y-105342255D01*
X111796633Y-105342692D01*
X111796632Y-105342692D01*
X111742888Y-105345791D01*
X111735635Y-105346000D01*
X110631427Y-105346000D01*
X110563306Y-105325998D01*
X110523995Y-105285835D01*
X110446763Y-105159806D01*
X110444176Y-105155584D01*
X110375200Y-105074824D01*
X110293177Y-104978787D01*
X110289969Y-104975031D01*
X110286213Y-104971823D01*
X110286208Y-104971818D01*
X110167944Y-104870811D01*
X110129134Y-104811361D01*
X110128628Y-104740366D01*
X110167944Y-104679189D01*
X110286208Y-104578182D01*
X110286213Y-104578177D01*
X110289969Y-104574969D01*
X110444176Y-104394416D01*
X110446755Y-104390208D01*
X110446759Y-104390202D01*
X110565654Y-104196183D01*
X110568240Y-104191963D01*
X110659105Y-103972594D01*
X110714535Y-103741711D01*
X110733165Y-103505000D01*
X110714535Y-103268289D01*
X110711701Y-103256482D01*
X110693802Y-103181930D01*
X110678873Y-103119746D01*
X110682420Y-103048841D01*
X110712297Y-103001239D01*
X110964547Y-102748989D01*
X110970813Y-102743135D01*
X111008048Y-102710653D01*
X111013775Y-102705657D01*
X111049999Y-102654116D01*
X111053924Y-102648831D01*
X111088108Y-102605234D01*
X111092793Y-102599259D01*
X111095917Y-102592341D01*
X111097746Y-102589320D01*
X111105001Y-102576601D01*
X111106689Y-102573453D01*
X111111057Y-102567238D01*
X111133939Y-102508549D01*
X111136479Y-102502504D01*
X111162414Y-102445064D01*
X111163799Y-102437591D01*
X111164870Y-102434173D01*
X111168855Y-102420184D01*
X111169752Y-102416692D01*
X111172513Y-102409610D01*
X111173505Y-102402076D01*
X111180734Y-102347169D01*
X111181766Y-102340656D01*
X111191862Y-102286181D01*
X111191862Y-102286179D01*
X111193246Y-102278712D01*
X111189710Y-102217386D01*
X111189501Y-102210134D01*
X111189501Y-100273013D01*
X111209503Y-100204892D01*
X111263159Y-100158399D01*
X111333433Y-100148295D01*
X111398013Y-100177789D01*
G37*
%TD.AperFunction*%
%TA.AperFunction,Conductor*%
G36*
X111117421Y-79268002D02*
G01*
X111163914Y-79321658D01*
X111175300Y-79374000D01*
X111175300Y-81277334D01*
X111182055Y-81339516D01*
X111233185Y-81475905D01*
X111320539Y-81592461D01*
X111437095Y-81679815D01*
X111573484Y-81730945D01*
X111635666Y-81737700D01*
X113662334Y-81737700D01*
X113724516Y-81730945D01*
X113860905Y-81679815D01*
X113977461Y-81592461D01*
X114064815Y-81475905D01*
X114067967Y-81467497D01*
X114067970Y-81467492D01*
X114068504Y-81466067D01*
X114069411Y-81464860D01*
X114072277Y-81459625D01*
X114073033Y-81460039D01*
X114111147Y-81409304D01*
X114177710Y-81384607D01*
X114247058Y-81399817D01*
X114266969Y-81413357D01*
X114337131Y-81471606D01*
X114345578Y-81477521D01*
X114545809Y-81594526D01*
X114555096Y-81598976D01*
X114771751Y-81681708D01*
X114781653Y-81684585D01*
X114917248Y-81712172D01*
X114931300Y-81710977D01*
X114935000Y-81700632D01*
X114935000Y-80136000D01*
X114955002Y-80067879D01*
X115008658Y-80021386D01*
X115061000Y-80010000D01*
X115317000Y-80010000D01*
X115385121Y-80030002D01*
X115431614Y-80083658D01*
X115443000Y-80136000D01*
X115443000Y-81698665D01*
X115447064Y-81712507D01*
X115460478Y-81714541D01*
X115491216Y-81710603D01*
X115501297Y-81708460D01*
X115723426Y-81641818D01*
X115733024Y-81638056D01*
X115941289Y-81536029D01*
X115950134Y-81530756D01*
X116132831Y-81400439D01*
X116199905Y-81377165D01*
X116268913Y-81393848D01*
X116317947Y-81445191D01*
X116332000Y-81503017D01*
X116332000Y-101069274D01*
X116311998Y-101137395D01*
X116258342Y-101183888D01*
X116188068Y-101193992D01*
X116123488Y-101164498D01*
X116116905Y-101158369D01*
X115627980Y-100669444D01*
X115593954Y-100607132D01*
X115593020Y-100560038D01*
X115593543Y-100558087D01*
X115613498Y-100330000D01*
X115593543Y-100101913D01*
X115582929Y-100062301D01*
X115535707Y-99886067D01*
X115535706Y-99886065D01*
X115534284Y-99880757D01*
X115512484Y-99834006D01*
X115439849Y-99678238D01*
X115439846Y-99678233D01*
X115437523Y-99673251D01*
X115351619Y-99550568D01*
X115309357Y-99490211D01*
X115309355Y-99490208D01*
X115306198Y-99485700D01*
X115144300Y-99323802D01*
X115139792Y-99320645D01*
X115139789Y-99320643D01*
X115025107Y-99240342D01*
X114956749Y-99192477D01*
X114951767Y-99190154D01*
X114951762Y-99190151D01*
X114754225Y-99098039D01*
X114754224Y-99098039D01*
X114749243Y-99095716D01*
X114743935Y-99094294D01*
X114743933Y-99094293D01*
X114533402Y-99037881D01*
X114533400Y-99037881D01*
X114528087Y-99036457D01*
X114300000Y-99016502D01*
X114071913Y-99036457D01*
X114066600Y-99037881D01*
X114066598Y-99037881D01*
X113856067Y-99094293D01*
X113856065Y-99094294D01*
X113850757Y-99095716D01*
X113845776Y-99098039D01*
X113845775Y-99098039D01*
X113648238Y-99190151D01*
X113648233Y-99190154D01*
X113643251Y-99192477D01*
X113574893Y-99240342D01*
X113460211Y-99320643D01*
X113460208Y-99320645D01*
X113455700Y-99323802D01*
X113293802Y-99485700D01*
X113290645Y-99490208D01*
X113290643Y-99490211D01*
X113248381Y-99550568D01*
X113162477Y-99673251D01*
X113160151Y-99678238D01*
X113160151Y-99678239D01*
X113145831Y-99708948D01*
X113098913Y-99762233D01*
X113030636Y-99781694D01*
X112962676Y-99761152D01*
X112942541Y-99744793D01*
X110588621Y-97390873D01*
X110554595Y-97328561D01*
X110556009Y-97269167D01*
X110592119Y-97134402D01*
X110592119Y-97134400D01*
X110593543Y-97129087D01*
X110613498Y-96901000D01*
X110603636Y-96788273D01*
X110594022Y-96678384D01*
X110594021Y-96678380D01*
X110593543Y-96672913D01*
X110592121Y-96667607D01*
X110591523Y-96664215D01*
X110599391Y-96593655D01*
X110644157Y-96538551D01*
X110711608Y-96516397D01*
X110780330Y-96534226D01*
X110804703Y-96553238D01*
X111626503Y-97375038D01*
X111632356Y-97381303D01*
X111669842Y-97424274D01*
X111691283Y-97439343D01*
X111721378Y-97460494D01*
X111726674Y-97464427D01*
X111770263Y-97498606D01*
X111770266Y-97498608D01*
X111776240Y-97503292D01*
X111783164Y-97506418D01*
X111786199Y-97508256D01*
X111798898Y-97515500D01*
X111802046Y-97517188D01*
X111808261Y-97521556D01*
X111866950Y-97544438D01*
X111872995Y-97546978D01*
X111930435Y-97572913D01*
X111937908Y-97574298D01*
X111941326Y-97575369D01*
X111955315Y-97579354D01*
X111958807Y-97580251D01*
X111965889Y-97583012D01*
X111973422Y-97584004D01*
X111973423Y-97584004D01*
X112028330Y-97591233D01*
X112034843Y-97592265D01*
X112089318Y-97602361D01*
X112089320Y-97602361D01*
X112096787Y-97603745D01*
X112104367Y-97603308D01*
X112104368Y-97603308D01*
X112158112Y-97600209D01*
X112165365Y-97600000D01*
X113126470Y-97600000D01*
X113194591Y-97620002D01*
X113229683Y-97653729D01*
X113279459Y-97724816D01*
X113293802Y-97745300D01*
X113455700Y-97907198D01*
X113460208Y-97910355D01*
X113460211Y-97910357D01*
X113495214Y-97934866D01*
X113643251Y-98038523D01*
X113648233Y-98040846D01*
X113648238Y-98040849D01*
X113825389Y-98123455D01*
X113850757Y-98135284D01*
X113856065Y-98136706D01*
X113856067Y-98136707D01*
X114066598Y-98193119D01*
X114066600Y-98193119D01*
X114071913Y-98194543D01*
X114300000Y-98214498D01*
X114528087Y-98194543D01*
X114533400Y-98193119D01*
X114533402Y-98193119D01*
X114743933Y-98136707D01*
X114743935Y-98136706D01*
X114749243Y-98135284D01*
X114774611Y-98123455D01*
X114951762Y-98040849D01*
X114951767Y-98040846D01*
X114956749Y-98038523D01*
X115104786Y-97934866D01*
X115139789Y-97910357D01*
X115139792Y-97910355D01*
X115144300Y-97907198D01*
X115306198Y-97745300D01*
X115325215Y-97718142D01*
X115407938Y-97600000D01*
X115437523Y-97557749D01*
X115439846Y-97552767D01*
X115439849Y-97552762D01*
X115531961Y-97355225D01*
X115531961Y-97355224D01*
X115534284Y-97350243D01*
X115539108Y-97332242D01*
X115592119Y-97134402D01*
X115592119Y-97134400D01*
X115593543Y-97129087D01*
X115613498Y-96901000D01*
X115593543Y-96672913D01*
X115592119Y-96667598D01*
X115535707Y-96457067D01*
X115535706Y-96457065D01*
X115534284Y-96451757D01*
X115503525Y-96385793D01*
X115439849Y-96249238D01*
X115439846Y-96249233D01*
X115437523Y-96244251D01*
X115306198Y-96056700D01*
X115144300Y-95894802D01*
X115139792Y-95891645D01*
X115139789Y-95891643D01*
X115010334Y-95800998D01*
X114956749Y-95763477D01*
X114951767Y-95761154D01*
X114951762Y-95761151D01*
X114768509Y-95675700D01*
X114749243Y-95666716D01*
X114743929Y-95665292D01*
X114739181Y-95663564D01*
X114682009Y-95621471D01*
X114656670Y-95555150D01*
X114671209Y-95485658D01*
X114721010Y-95435058D01*
X114752855Y-95422644D01*
X114762780Y-95420261D01*
X114762783Y-95420260D01*
X114767594Y-95419105D01*
X114772167Y-95417211D01*
X114982389Y-95330135D01*
X114982393Y-95330133D01*
X114986963Y-95328240D01*
X115004851Y-95317278D01*
X115185202Y-95206759D01*
X115185208Y-95206755D01*
X115189416Y-95204176D01*
X115369969Y-95049969D01*
X115524176Y-94869416D01*
X115526755Y-94865208D01*
X115526759Y-94865202D01*
X115645654Y-94671183D01*
X115648240Y-94666963D01*
X115665356Y-94625643D01*
X115737211Y-94452167D01*
X115737212Y-94452165D01*
X115739105Y-94447594D01*
X115794535Y-94216711D01*
X115813165Y-93980000D01*
X115794535Y-93743289D01*
X115739105Y-93512406D01*
X115737211Y-93507833D01*
X115650135Y-93297611D01*
X115650133Y-93297607D01*
X115648240Y-93293037D01*
X115645654Y-93288817D01*
X115526759Y-93094798D01*
X115526755Y-93094792D01*
X115524176Y-93090584D01*
X115369969Y-92910031D01*
X115366213Y-92906823D01*
X115366208Y-92906818D01*
X115247944Y-92805811D01*
X115209134Y-92746361D01*
X115208628Y-92675366D01*
X115247944Y-92614189D01*
X115366208Y-92513182D01*
X115366213Y-92513177D01*
X115369969Y-92509969D01*
X115524176Y-92329416D01*
X115526755Y-92325208D01*
X115526759Y-92325202D01*
X115645654Y-92131183D01*
X115648240Y-92126963D01*
X115731574Y-91925777D01*
X115737211Y-91912167D01*
X115737212Y-91912165D01*
X115739105Y-91907594D01*
X115789201Y-91698930D01*
X115793380Y-91681524D01*
X115793381Y-91681518D01*
X115794535Y-91676711D01*
X115813165Y-91440000D01*
X115794535Y-91203289D01*
X115739105Y-90972406D01*
X115671337Y-90808798D01*
X115650135Y-90757611D01*
X115650133Y-90757607D01*
X115648240Y-90753037D01*
X115645654Y-90748817D01*
X115526759Y-90554798D01*
X115526755Y-90554792D01*
X115524176Y-90550584D01*
X115369969Y-90370031D01*
X115366213Y-90366823D01*
X115366208Y-90366818D01*
X115247944Y-90265811D01*
X115209134Y-90206361D01*
X115208628Y-90135366D01*
X115247944Y-90074189D01*
X115366208Y-89973182D01*
X115366213Y-89973177D01*
X115369969Y-89969969D01*
X115524176Y-89789416D01*
X115526755Y-89785208D01*
X115526759Y-89785202D01*
X115645654Y-89591183D01*
X115648240Y-89586963D01*
X115651747Y-89578498D01*
X115737211Y-89372167D01*
X115737212Y-89372165D01*
X115739105Y-89367594D01*
X115775837Y-89214594D01*
X115793380Y-89141524D01*
X115793381Y-89141518D01*
X115794535Y-89136711D01*
X115813165Y-88900000D01*
X115794535Y-88663289D01*
X115739105Y-88432406D01*
X115722936Y-88393370D01*
X115650135Y-88217611D01*
X115650133Y-88217607D01*
X115648240Y-88213037D01*
X115540311Y-88036913D01*
X115526759Y-88014798D01*
X115526755Y-88014792D01*
X115524176Y-88010584D01*
X115369969Y-87830031D01*
X115189416Y-87675824D01*
X115185208Y-87673245D01*
X115185202Y-87673241D01*
X114991183Y-87554346D01*
X114986963Y-87551760D01*
X114982393Y-87549867D01*
X114982389Y-87549865D01*
X114772167Y-87462789D01*
X114772165Y-87462788D01*
X114767594Y-87460895D01*
X114686512Y-87441429D01*
X114541524Y-87406620D01*
X114541518Y-87406619D01*
X114536711Y-87405465D01*
X114300000Y-87386835D01*
X114063289Y-87405465D01*
X114058482Y-87406619D01*
X114058476Y-87406620D01*
X113913488Y-87441429D01*
X113832406Y-87460895D01*
X113827835Y-87462788D01*
X113827833Y-87462789D01*
X113617611Y-87549865D01*
X113617607Y-87549867D01*
X113613037Y-87551760D01*
X113608817Y-87554346D01*
X113414798Y-87673241D01*
X113414792Y-87673245D01*
X113410584Y-87675824D01*
X113230031Y-87830031D01*
X113075824Y-88010584D01*
X113073245Y-88014792D01*
X113073241Y-88014798D01*
X113059689Y-88036913D01*
X112951760Y-88213037D01*
X112949867Y-88217607D01*
X112949865Y-88217611D01*
X112877064Y-88393370D01*
X112860895Y-88432406D01*
X112805465Y-88663289D01*
X112805077Y-88668220D01*
X112804340Y-88672874D01*
X112773929Y-88737028D01*
X112713662Y-88774556D01*
X112642672Y-88773544D01*
X112590796Y-88742261D01*
X112241905Y-88393370D01*
X112207879Y-88331058D01*
X112205000Y-88304275D01*
X112205000Y-86364947D01*
X112225002Y-86296826D01*
X112278658Y-86250333D01*
X112348932Y-86240229D01*
X112384250Y-86250752D01*
X112535947Y-86321490D01*
X112546239Y-86325236D01*
X112756688Y-86381625D01*
X112767481Y-86383528D01*
X112984525Y-86402517D01*
X112995475Y-86402517D01*
X113212519Y-86383528D01*
X113223312Y-86381625D01*
X113433761Y-86325236D01*
X113444053Y-86321490D01*
X113641511Y-86229414D01*
X113651006Y-86223931D01*
X113703048Y-86187491D01*
X113711424Y-86177012D01*
X113704356Y-86163566D01*
X112631922Y-85091132D01*
X113354408Y-85091132D01*
X113354539Y-85092965D01*
X113358790Y-85099580D01*
X114064287Y-85805077D01*
X114076062Y-85811507D01*
X114088077Y-85802211D01*
X114123931Y-85751006D01*
X114129414Y-85741511D01*
X114221490Y-85544053D01*
X114225236Y-85533761D01*
X114281625Y-85323312D01*
X114283528Y-85312519D01*
X114302517Y-85095475D01*
X114302517Y-85084525D01*
X114283528Y-84867481D01*
X114281625Y-84856688D01*
X114225236Y-84646239D01*
X114221490Y-84635947D01*
X114129414Y-84438489D01*
X114123931Y-84428994D01*
X114087491Y-84376952D01*
X114077012Y-84368576D01*
X114063566Y-84375644D01*
X113362022Y-85077188D01*
X113354408Y-85091132D01*
X112631922Y-85091132D01*
X111915713Y-84374923D01*
X111873971Y-84352129D01*
X111863971Y-84349953D01*
X111813773Y-84299747D01*
X111798549Y-84246186D01*
X111798500Y-84245281D01*
X111798500Y-84241866D01*
X111796964Y-84227722D01*
X111792598Y-84187540D01*
X111791745Y-84179684D01*
X111740615Y-84043295D01*
X111710407Y-84002988D01*
X112268576Y-84002988D01*
X112275644Y-84016434D01*
X112977188Y-84717978D01*
X112991132Y-84725592D01*
X112992965Y-84725461D01*
X112999580Y-84721210D01*
X113705077Y-84015713D01*
X113711507Y-84003938D01*
X113702211Y-83991923D01*
X113651006Y-83956069D01*
X113641511Y-83950586D01*
X113444053Y-83858510D01*
X113433761Y-83854764D01*
X113223312Y-83798375D01*
X113212519Y-83796472D01*
X112995475Y-83777483D01*
X112984525Y-83777483D01*
X112767481Y-83796472D01*
X112756688Y-83798375D01*
X112546239Y-83854764D01*
X112535947Y-83858510D01*
X112338489Y-83950586D01*
X112328994Y-83956069D01*
X112276952Y-83992509D01*
X112268576Y-84002988D01*
X111710407Y-84002988D01*
X111653261Y-83926739D01*
X111536705Y-83839385D01*
X111400316Y-83788255D01*
X111338134Y-83781500D01*
X111317737Y-83781500D01*
X111249616Y-83761498D01*
X111203123Y-83707842D01*
X111192029Y-83646931D01*
X111192653Y-83637783D01*
X111192653Y-83637779D01*
X111193169Y-83630206D01*
X111182337Y-83568143D01*
X111181375Y-83561622D01*
X111174722Y-83506640D01*
X111174721Y-83506637D01*
X111173809Y-83499098D01*
X111171123Y-83491989D01*
X111170277Y-83488546D01*
X111166414Y-83474421D01*
X111165386Y-83471016D01*
X111164081Y-83463540D01*
X111138765Y-83405868D01*
X111136277Y-83399773D01*
X111116690Y-83347938D01*
X111116689Y-83347936D01*
X111114006Y-83340836D01*
X111109709Y-83334584D01*
X111108066Y-83331441D01*
X111100971Y-83318693D01*
X111099130Y-83315581D01*
X111096077Y-83308625D01*
X111057732Y-83258651D01*
X111053861Y-83253324D01*
X111022481Y-83207665D01*
X111022480Y-83207663D01*
X111018179Y-83201406D01*
X110999766Y-83185000D01*
X110972321Y-83160548D01*
X110967045Y-83155567D01*
X107982439Y-80170962D01*
X107976585Y-80164696D01*
X107944094Y-80127451D01*
X107939100Y-80121726D01*
X107887564Y-80085506D01*
X107882268Y-80081573D01*
X107838679Y-80047394D01*
X107838676Y-80047392D01*
X107832702Y-80042708D01*
X107825778Y-80039582D01*
X107822743Y-80037744D01*
X107810044Y-80030500D01*
X107806896Y-80028812D01*
X107800681Y-80024444D01*
X107741992Y-80001562D01*
X107735947Y-79999022D01*
X107678507Y-79973087D01*
X107671034Y-79971702D01*
X107667616Y-79970631D01*
X107653627Y-79966646D01*
X107650135Y-79965749D01*
X107643053Y-79962988D01*
X107635520Y-79961996D01*
X107635519Y-79961996D01*
X107580612Y-79954767D01*
X107574099Y-79953735D01*
X107519624Y-79943639D01*
X107519622Y-79943639D01*
X107512155Y-79942255D01*
X107504575Y-79942692D01*
X107504574Y-79942692D01*
X107450830Y-79945791D01*
X107443577Y-79946000D01*
X107131686Y-79946000D01*
X107063565Y-79925998D01*
X107020286Y-79876882D01*
X107019749Y-79877189D01*
X107018258Y-79874580D01*
X107018258Y-79874579D01*
X106888578Y-79647687D01*
X106734316Y-79452006D01*
X106707851Y-79386126D01*
X106721204Y-79316397D01*
X106770136Y-79264956D01*
X106833266Y-79248000D01*
X111049300Y-79248000D01*
X111117421Y-79268002D01*
G37*
%TD.AperFunction*%
%TA.AperFunction,Conductor*%
G36*
X93413621Y-79268002D02*
G01*
X93460114Y-79321658D01*
X93471500Y-79374000D01*
X93471500Y-81963134D01*
X93478255Y-82025316D01*
X93529385Y-82161705D01*
X93616739Y-82278261D01*
X93733295Y-82365615D01*
X93869684Y-82416745D01*
X93931866Y-82423500D01*
X94136408Y-82423500D01*
X94204529Y-82443502D01*
X94251022Y-82497158D01*
X94261126Y-82567432D01*
X94234331Y-82628791D01*
X94225270Y-82639982D01*
X94094589Y-82831552D01*
X94089491Y-82840526D01*
X93991853Y-83050868D01*
X93988290Y-83060555D01*
X93926319Y-83284015D01*
X93924409Y-83294024D01*
X93927049Y-83308608D01*
X93939429Y-83312000D01*
X96814128Y-83312000D01*
X96827659Y-83308027D01*
X96828964Y-83298947D01*
X96777642Y-83094622D01*
X96774324Y-83084874D01*
X96681846Y-82872189D01*
X96676980Y-82863114D01*
X96551012Y-82668398D01*
X96544719Y-82660227D01*
X96517586Y-82630409D01*
X96486534Y-82566564D01*
X96494928Y-82496065D01*
X96540105Y-82441296D01*
X96597170Y-82420346D01*
X96606853Y-82419294D01*
X96630316Y-82416745D01*
X96766705Y-82365615D01*
X96883261Y-82278261D01*
X96970615Y-82161705D01*
X97021745Y-82025316D01*
X97028500Y-81963134D01*
X97028500Y-81470000D01*
X97048502Y-81401879D01*
X97102158Y-81355386D01*
X97154500Y-81344000D01*
X98611179Y-81344000D01*
X98679300Y-81364002D01*
X98722171Y-81410362D01*
X98815406Y-81583881D01*
X98825822Y-81603267D01*
X98828617Y-81607011D01*
X98828619Y-81607013D01*
X98953198Y-81773844D01*
X98983985Y-81815073D01*
X98987292Y-81818351D01*
X98987297Y-81818357D01*
X99129897Y-81959717D01*
X99171718Y-82001174D01*
X99384896Y-82157483D01*
X99389031Y-82159659D01*
X99389035Y-82159661D01*
X99512293Y-82224510D01*
X99618836Y-82280565D01*
X99735524Y-82321314D01*
X99862384Y-82365615D01*
X99868400Y-82367716D01*
X99872993Y-82368588D01*
X100123515Y-82416151D01*
X100123518Y-82416151D01*
X100128104Y-82417022D01*
X100260174Y-82422212D01*
X100387575Y-82427218D01*
X100387581Y-82427218D01*
X100392243Y-82427401D01*
X100655015Y-82398622D01*
X100659526Y-82397434D01*
X100659528Y-82397434D01*
X100906127Y-82332510D01*
X100910647Y-82331320D01*
X100914943Y-82329474D01*
X100919361Y-82327953D01*
X100919770Y-82329140D01*
X100984626Y-82321314D01*
X101052962Y-82356497D01*
X101377703Y-82681238D01*
X101411729Y-82743550D01*
X101411127Y-82799745D01*
X101375465Y-82948289D01*
X101356835Y-83185000D01*
X101375465Y-83421711D01*
X101376619Y-83426518D01*
X101376620Y-83426524D01*
X101409055Y-83561622D01*
X101430895Y-83652594D01*
X101432788Y-83657165D01*
X101432789Y-83657167D01*
X101516188Y-83858510D01*
X101521760Y-83871963D01*
X101524346Y-83876183D01*
X101643241Y-84070202D01*
X101643245Y-84070208D01*
X101645824Y-84074416D01*
X101742441Y-84187540D01*
X101793075Y-84246824D01*
X101800031Y-84254969D01*
X101980584Y-84409176D01*
X101984792Y-84411755D01*
X101984798Y-84411759D01*
X102178817Y-84530654D01*
X102183037Y-84533240D01*
X102187607Y-84535133D01*
X102187611Y-84535135D01*
X102397833Y-84622211D01*
X102402406Y-84624105D01*
X102442839Y-84633812D01*
X102628476Y-84678380D01*
X102628482Y-84678381D01*
X102633289Y-84679535D01*
X102870000Y-84698165D01*
X103106711Y-84679535D01*
X103111518Y-84678381D01*
X103111524Y-84678380D01*
X103297161Y-84633812D01*
X103337594Y-84624105D01*
X103342167Y-84622211D01*
X103552389Y-84535135D01*
X103552393Y-84535133D01*
X103556963Y-84533240D01*
X103561183Y-84530654D01*
X103755202Y-84411759D01*
X103755208Y-84411755D01*
X103759416Y-84409176D01*
X103939969Y-84254969D01*
X103946926Y-84246824D01*
X103997559Y-84187540D01*
X104094176Y-84074416D01*
X104096755Y-84070208D01*
X104096759Y-84070202D01*
X104215654Y-83876183D01*
X104218240Y-83871963D01*
X104223813Y-83858510D01*
X104307211Y-83657167D01*
X104307212Y-83657165D01*
X104309105Y-83652594D01*
X104330945Y-83561622D01*
X104363380Y-83426524D01*
X104363381Y-83426518D01*
X104364535Y-83421711D01*
X104383165Y-83185000D01*
X104364535Y-82948289D01*
X104344087Y-82863114D01*
X104328360Y-82797609D01*
X104309105Y-82717406D01*
X104294124Y-82681238D01*
X104220135Y-82502611D01*
X104220133Y-82502607D01*
X104218240Y-82498037D01*
X104198474Y-82465782D01*
X104096759Y-82299798D01*
X104096755Y-82299792D01*
X104094176Y-82295584D01*
X103939969Y-82115031D01*
X103759416Y-81960824D01*
X103755208Y-81958245D01*
X103755202Y-81958241D01*
X103561183Y-81839346D01*
X103556963Y-81836760D01*
X103552393Y-81834867D01*
X103552389Y-81834865D01*
X103342167Y-81747789D01*
X103342165Y-81747788D01*
X103337594Y-81745895D01*
X103237406Y-81721842D01*
X103111524Y-81691620D01*
X103111518Y-81691619D01*
X103106711Y-81690465D01*
X102870000Y-81671835D01*
X102633289Y-81690465D01*
X102628482Y-81691619D01*
X102628476Y-81691620D01*
X102484748Y-81726126D01*
X102413840Y-81722579D01*
X102366239Y-81692703D01*
X102041121Y-81367586D01*
X102007096Y-81305273D01*
X102008947Y-81244291D01*
X102077683Y-81000570D01*
X102106761Y-80772000D01*
X102110645Y-80741471D01*
X102110645Y-80741465D01*
X102111043Y-80738340D01*
X102113487Y-80645000D01*
X102093897Y-80381384D01*
X102035557Y-80123559D01*
X102020759Y-80085506D01*
X101941442Y-79881542D01*
X101941441Y-79881540D01*
X101939749Y-79877189D01*
X101913535Y-79831323D01*
X101891375Y-79792552D01*
X101808578Y-79647687D01*
X101654316Y-79452006D01*
X101627851Y-79386126D01*
X101641204Y-79316397D01*
X101690136Y-79264956D01*
X101753266Y-79248000D01*
X103989870Y-79248000D01*
X104057991Y-79268002D01*
X104104484Y-79321658D01*
X104114588Y-79391932D01*
X104086744Y-79454569D01*
X103958036Y-79609324D01*
X103820901Y-79835314D01*
X103819095Y-79839622D01*
X103819094Y-79839623D01*
X103723379Y-80067879D01*
X103718677Y-80079091D01*
X103717526Y-80083623D01*
X103717525Y-80083626D01*
X103706395Y-80127451D01*
X103653608Y-80335301D01*
X103627124Y-80598314D01*
X103627348Y-80602980D01*
X103627348Y-80602985D01*
X103629518Y-80648160D01*
X103639807Y-80862352D01*
X103691378Y-81121616D01*
X103692957Y-81126014D01*
X103692959Y-81126021D01*
X103749276Y-81282876D01*
X103780704Y-81370410D01*
X103782921Y-81374536D01*
X103895406Y-81583881D01*
X103905822Y-81603267D01*
X103908617Y-81607011D01*
X103908619Y-81607013D01*
X104033198Y-81773844D01*
X104063985Y-81815073D01*
X104067292Y-81818351D01*
X104067297Y-81818357D01*
X104209897Y-81959717D01*
X104251718Y-82001174D01*
X104464896Y-82157483D01*
X104469031Y-82159659D01*
X104469035Y-82159661D01*
X104592293Y-82224510D01*
X104698836Y-82280565D01*
X104815524Y-82321314D01*
X104942384Y-82365615D01*
X104948400Y-82367716D01*
X104952993Y-82368588D01*
X105203515Y-82416151D01*
X105203518Y-82416151D01*
X105208104Y-82417022D01*
X105340174Y-82422212D01*
X105467575Y-82427218D01*
X105467581Y-82427218D01*
X105472243Y-82427401D01*
X105735015Y-82398622D01*
X105739526Y-82397434D01*
X105739528Y-82397434D01*
X105986124Y-82332511D01*
X105986126Y-82332510D01*
X105990647Y-82331320D01*
X106013937Y-82321314D01*
X106229229Y-82228817D01*
X106229231Y-82228816D01*
X106233523Y-82226972D01*
X106375918Y-82138855D01*
X106454332Y-82090331D01*
X106454334Y-82090330D01*
X106458307Y-82087871D01*
X106523460Y-82032715D01*
X106656496Y-81920093D01*
X106656498Y-81920091D01*
X106660063Y-81917073D01*
X106834356Y-81718329D01*
X106838317Y-81712172D01*
X106974831Y-81499936D01*
X106977359Y-81496006D01*
X106979276Y-81491751D01*
X106979279Y-81491745D01*
X107012060Y-81418974D01*
X107058276Y-81365079D01*
X107126293Y-81344727D01*
X107194516Y-81364378D01*
X107216037Y-81381630D01*
X107418288Y-81583881D01*
X107452314Y-81646193D01*
X107447249Y-81717008D01*
X107404702Y-81773844D01*
X107377411Y-81789385D01*
X107267611Y-81834865D01*
X107267607Y-81834867D01*
X107263037Y-81836760D01*
X107258817Y-81839346D01*
X107064798Y-81958241D01*
X107064792Y-81958245D01*
X107060584Y-81960824D01*
X106880031Y-82115031D01*
X106725824Y-82295584D01*
X106723245Y-82299792D01*
X106723241Y-82299798D01*
X106621526Y-82465782D01*
X106601760Y-82498037D01*
X106599867Y-82502607D01*
X106599865Y-82502611D01*
X106525876Y-82681238D01*
X106510895Y-82717406D01*
X106491640Y-82797609D01*
X106475914Y-82863114D01*
X106455465Y-82948289D01*
X106436835Y-83185000D01*
X106455465Y-83421711D01*
X106456619Y-83426518D01*
X106456620Y-83426524D01*
X106489055Y-83561622D01*
X106510895Y-83652594D01*
X106512788Y-83657165D01*
X106512789Y-83657167D01*
X106596188Y-83858510D01*
X106601760Y-83871963D01*
X106604346Y-83876183D01*
X106723241Y-84070202D01*
X106723245Y-84070208D01*
X106725824Y-84074416D01*
X106822441Y-84187540D01*
X106873075Y-84246824D01*
X106880031Y-84254969D01*
X106883787Y-84258177D01*
X106883788Y-84258178D01*
X106892342Y-84265484D01*
X106931150Y-84324935D01*
X106936510Y-84361294D01*
X106936510Y-84445335D01*
X106916508Y-84513456D01*
X106862852Y-84559949D01*
X106792578Y-84570053D01*
X106727998Y-84540559D01*
X106714699Y-84527166D01*
X106610177Y-84404787D01*
X106606969Y-84401031D01*
X106426416Y-84246824D01*
X106422208Y-84244245D01*
X106422202Y-84244241D01*
X106228183Y-84125346D01*
X106223963Y-84122760D01*
X106219393Y-84120867D01*
X106219389Y-84120865D01*
X106009167Y-84033789D01*
X106009165Y-84033788D01*
X106004594Y-84031895D01*
X105924391Y-84012640D01*
X105778524Y-83977620D01*
X105778518Y-83977619D01*
X105773711Y-83976465D01*
X105537000Y-83957835D01*
X105300289Y-83976465D01*
X105295482Y-83977619D01*
X105295476Y-83977620D01*
X105149609Y-84012640D01*
X105069406Y-84031895D01*
X105064835Y-84033788D01*
X105064833Y-84033789D01*
X104854611Y-84120865D01*
X104854607Y-84120867D01*
X104850037Y-84122760D01*
X104845817Y-84125346D01*
X104651798Y-84244241D01*
X104651792Y-84244245D01*
X104647584Y-84246824D01*
X104467031Y-84401031D01*
X104463823Y-84404787D01*
X104457868Y-84411759D01*
X104312824Y-84581584D01*
X104310245Y-84585792D01*
X104310241Y-84585798D01*
X104195152Y-84773606D01*
X104188760Y-84784037D01*
X104186867Y-84788607D01*
X104186865Y-84788611D01*
X104099789Y-84998833D01*
X104097895Y-85003406D01*
X104042465Y-85234289D01*
X104023835Y-85471000D01*
X104042465Y-85707711D01*
X104043619Y-85712518D01*
X104043620Y-85712524D01*
X104074654Y-85841788D01*
X104097895Y-85938594D01*
X104099788Y-85943165D01*
X104099789Y-85943167D01*
X104179955Y-86136705D01*
X104188760Y-86157963D01*
X104191346Y-86162183D01*
X104310241Y-86356202D01*
X104310245Y-86356208D01*
X104312824Y-86360416D01*
X104467031Y-86540969D01*
X104647584Y-86695176D01*
X104651806Y-86697763D01*
X104777835Y-86774995D01*
X104825467Y-86827643D01*
X104838000Y-86882427D01*
X104838000Y-87124380D01*
X104817998Y-87192501D01*
X104784272Y-87227592D01*
X104739700Y-87258802D01*
X104577802Y-87420700D01*
X104574645Y-87425208D01*
X104574643Y-87425211D01*
X104550466Y-87459740D01*
X104446477Y-87608251D01*
X104444154Y-87613233D01*
X104444151Y-87613238D01*
X104352039Y-87810775D01*
X104349716Y-87815757D01*
X104348294Y-87821065D01*
X104348293Y-87821067D01*
X104319909Y-87926998D01*
X104290457Y-88036913D01*
X104270502Y-88265000D01*
X104290457Y-88493087D01*
X104291881Y-88498400D01*
X104291881Y-88498402D01*
X104334775Y-88658481D01*
X104349716Y-88714243D01*
X104352039Y-88719224D01*
X104352039Y-88719225D01*
X104444151Y-88916762D01*
X104444154Y-88916767D01*
X104446477Y-88921749D01*
X104577802Y-89109300D01*
X104739700Y-89271198D01*
X104744208Y-89274355D01*
X104744211Y-89274357D01*
X104786102Y-89303689D01*
X104927251Y-89402523D01*
X104932233Y-89404846D01*
X104932238Y-89404849D01*
X105090183Y-89478499D01*
X105134757Y-89499284D01*
X105140065Y-89500706D01*
X105140067Y-89500707D01*
X105350598Y-89557119D01*
X105350600Y-89557119D01*
X105355913Y-89558543D01*
X105584000Y-89578498D01*
X105812087Y-89558543D01*
X105817400Y-89557119D01*
X105817402Y-89557119D01*
X106027933Y-89500707D01*
X106027935Y-89500706D01*
X106033243Y-89499284D01*
X106077817Y-89478499D01*
X106235762Y-89404849D01*
X106235767Y-89404846D01*
X106240749Y-89402523D01*
X106381898Y-89303689D01*
X106423789Y-89274357D01*
X106423792Y-89274355D01*
X106428300Y-89271198D01*
X106590198Y-89109300D01*
X106655010Y-89016740D01*
X106707297Y-88942066D01*
X106762754Y-88897738D01*
X106833374Y-88890429D01*
X106896734Y-88922460D01*
X106932719Y-88983661D01*
X106936510Y-89014337D01*
X106936510Y-90052834D01*
X106916508Y-90120955D01*
X106862852Y-90167448D01*
X106792578Y-90177552D01*
X106777899Y-90174541D01*
X106678402Y-90147881D01*
X106678400Y-90147881D01*
X106673087Y-90146457D01*
X106573520Y-90137746D01*
X106504851Y-90131738D01*
X106504844Y-90131738D01*
X106502127Y-90131500D01*
X105587873Y-90131500D01*
X105585156Y-90131738D01*
X105585149Y-90131738D01*
X105516480Y-90137746D01*
X105416913Y-90146457D01*
X105411600Y-90147881D01*
X105411598Y-90147881D01*
X105201067Y-90204293D01*
X105201065Y-90204294D01*
X105195757Y-90205716D01*
X105190776Y-90208039D01*
X105190775Y-90208039D01*
X104993238Y-90300151D01*
X104993233Y-90300154D01*
X104988251Y-90302477D01*
X104901798Y-90363012D01*
X104805211Y-90430643D01*
X104805208Y-90430645D01*
X104800700Y-90433802D01*
X104638802Y-90595700D01*
X104635645Y-90600208D01*
X104635643Y-90600211D01*
X104618964Y-90624031D01*
X104507477Y-90783251D01*
X104505154Y-90788233D01*
X104505151Y-90788238D01*
X104419273Y-90972406D01*
X104410716Y-90990757D01*
X104409294Y-90996065D01*
X104409293Y-90996067D01*
X104360888Y-91176717D01*
X104351457Y-91211913D01*
X104331502Y-91440000D01*
X104351457Y-91668087D01*
X104410716Y-91889243D01*
X104413039Y-91894224D01*
X104413039Y-91894225D01*
X104505151Y-92091762D01*
X104505154Y-92091767D01*
X104507477Y-92096749D01*
X104638802Y-92284300D01*
X104800700Y-92446198D01*
X104805208Y-92449355D01*
X104805211Y-92449357D01*
X104858550Y-92486705D01*
X104988251Y-92577523D01*
X104993233Y-92579846D01*
X104993238Y-92579849D01*
X105027457Y-92595805D01*
X105080742Y-92642722D01*
X105100203Y-92710999D01*
X105079661Y-92778959D01*
X105027457Y-92824195D01*
X104993238Y-92840151D01*
X104993233Y-92840154D01*
X104988251Y-92842477D01*
X104905386Y-92900500D01*
X104805211Y-92970643D01*
X104805208Y-92970645D01*
X104800700Y-92973802D01*
X104638802Y-93135700D01*
X104507477Y-93323251D01*
X104505154Y-93328233D01*
X104505151Y-93328238D01*
X104420001Y-93510845D01*
X104410716Y-93530757D01*
X104351457Y-93751913D01*
X104331502Y-93980000D01*
X104351457Y-94208087D01*
X104352881Y-94213400D01*
X104352881Y-94213402D01*
X104387798Y-94343711D01*
X104410716Y-94429243D01*
X104413039Y-94434225D01*
X104413041Y-94434230D01*
X104435922Y-94483299D01*
X104446583Y-94553490D01*
X104417603Y-94618303D01*
X104410822Y-94625643D01*
X103980452Y-95056013D01*
X103974187Y-95061866D01*
X103931216Y-95099352D01*
X103894996Y-95150888D01*
X103891063Y-95156184D01*
X103856884Y-95199773D01*
X103856882Y-95199776D01*
X103852198Y-95205750D01*
X103849072Y-95212674D01*
X103847234Y-95215709D01*
X103839990Y-95228408D01*
X103838302Y-95231556D01*
X103833934Y-95237771D01*
X103831174Y-95244850D01*
X103811057Y-95296449D01*
X103808512Y-95302505D01*
X103782577Y-95359945D01*
X103781192Y-95367418D01*
X103780121Y-95370836D01*
X103776136Y-95384825D01*
X103775239Y-95388317D01*
X103772478Y-95395399D01*
X103771486Y-95402932D01*
X103771486Y-95402933D01*
X103764257Y-95457840D01*
X103763225Y-95464353D01*
X103753129Y-95518828D01*
X103751745Y-95526297D01*
X103752182Y-95533877D01*
X103752182Y-95533878D01*
X103755281Y-95587622D01*
X103755490Y-95594875D01*
X103755490Y-96984526D01*
X103755198Y-96993096D01*
X103753943Y-97011510D01*
X103751320Y-97049977D01*
X103752625Y-97057453D01*
X103752625Y-97057457D01*
X103762153Y-97112049D01*
X103763116Y-97118574D01*
X103765032Y-97134402D01*
X103770681Y-97181085D01*
X103773365Y-97188187D01*
X103774209Y-97191625D01*
X103778073Y-97205748D01*
X103779103Y-97209159D01*
X103780409Y-97216642D01*
X103783462Y-97223597D01*
X103805729Y-97274323D01*
X103808220Y-97280429D01*
X103830484Y-97339347D01*
X103834783Y-97345602D01*
X103836425Y-97348743D01*
X103843523Y-97361497D01*
X103845360Y-97364603D01*
X103848413Y-97371558D01*
X103853038Y-97377585D01*
X103853040Y-97377589D01*
X103886755Y-97421527D01*
X103890619Y-97426845D01*
X103926311Y-97478777D01*
X103931981Y-97483829D01*
X103931982Y-97483830D01*
X103972178Y-97519643D01*
X103977454Y-97524624D01*
X104576285Y-98123455D01*
X104610311Y-98185767D01*
X104605246Y-98256582D01*
X104590404Y-98284820D01*
X104507477Y-98403251D01*
X104505154Y-98408233D01*
X104505151Y-98408238D01*
X104472092Y-98479134D01*
X104410716Y-98610757D01*
X104409294Y-98616065D01*
X104409293Y-98616067D01*
X104352881Y-98826598D01*
X104351457Y-98831913D01*
X104331502Y-99060000D01*
X104351457Y-99288087D01*
X104352881Y-99293400D01*
X104352881Y-99293402D01*
X104404408Y-99485700D01*
X104410716Y-99509243D01*
X104413039Y-99514224D01*
X104413039Y-99514225D01*
X104505151Y-99711762D01*
X104505154Y-99711767D01*
X104507477Y-99716749D01*
X104544893Y-99770184D01*
X104618829Y-99875775D01*
X104638802Y-99904300D01*
X104800700Y-100066198D01*
X104805208Y-100069355D01*
X104805211Y-100069357D01*
X104851706Y-100101913D01*
X104988251Y-100197523D01*
X104993233Y-100199846D01*
X104993238Y-100199849D01*
X105168059Y-100281369D01*
X105221344Y-100328286D01*
X105240805Y-100396564D01*
X105220263Y-100464524D01*
X105203904Y-100484659D01*
X104935962Y-100752601D01*
X104929697Y-100758454D01*
X104886726Y-100795940D01*
X104850506Y-100847476D01*
X104846575Y-100852769D01*
X104838362Y-100863244D01*
X104780590Y-100904510D01*
X104739206Y-100911500D01*
X104011866Y-100911500D01*
X103949684Y-100918255D01*
X103813295Y-100969385D01*
X103696739Y-101056739D01*
X103691358Y-101063919D01*
X103648904Y-101120565D01*
X103592045Y-101163080D01*
X103548078Y-101171000D01*
X102826922Y-101171000D01*
X102758801Y-101150998D01*
X102726096Y-101120565D01*
X102683642Y-101063919D01*
X102678261Y-101056739D01*
X102561705Y-100969385D01*
X102425316Y-100918255D01*
X102363134Y-100911500D01*
X101997226Y-100911500D01*
X101929105Y-100891498D01*
X101908136Y-100874600D01*
X100952982Y-99919447D01*
X100947142Y-99913195D01*
X100914652Y-99875951D01*
X100909658Y-99870226D01*
X100858122Y-99834006D01*
X100852826Y-99830073D01*
X100809237Y-99795894D01*
X100809234Y-99795892D01*
X100803260Y-99791208D01*
X100796336Y-99788082D01*
X100793301Y-99786244D01*
X100780602Y-99779000D01*
X100777454Y-99777312D01*
X100771239Y-99772944D01*
X100712550Y-99750062D01*
X100706505Y-99747522D01*
X100649065Y-99721587D01*
X100641592Y-99720202D01*
X100638174Y-99719131D01*
X100624185Y-99715146D01*
X100620693Y-99714249D01*
X100613611Y-99711488D01*
X100606078Y-99710496D01*
X100606077Y-99710496D01*
X100551170Y-99703267D01*
X100544657Y-99702235D01*
X100490182Y-99692139D01*
X100490180Y-99692139D01*
X100482713Y-99690755D01*
X100475133Y-99691192D01*
X100475132Y-99691192D01*
X100421388Y-99694291D01*
X100414135Y-99694500D01*
X100170127Y-99694500D01*
X100102006Y-99674498D01*
X100055513Y-99620842D01*
X100045409Y-99550568D01*
X100054733Y-99519272D01*
X100054607Y-99519226D01*
X100055378Y-99517107D01*
X100055930Y-99515255D01*
X100056488Y-99514059D01*
X100060236Y-99503761D01*
X100106394Y-99331497D01*
X100106058Y-99317401D01*
X100098116Y-99314000D01*
X98297000Y-99314000D01*
X98228879Y-99293998D01*
X98182386Y-99240342D01*
X98171000Y-99188000D01*
X98171000Y-98932000D01*
X98191002Y-98863879D01*
X98244658Y-98817386D01*
X98297000Y-98806000D01*
X100092967Y-98806000D01*
X100106498Y-98802027D01*
X100107727Y-98793478D01*
X100060236Y-98616239D01*
X100056490Y-98605947D01*
X99964414Y-98408489D01*
X99958931Y-98398994D01*
X99879238Y-98285181D01*
X99856550Y-98217907D01*
X99873835Y-98149047D01*
X99893355Y-98123815D01*
X100308585Y-97708584D01*
X101223043Y-96794127D01*
X101229310Y-96788273D01*
X101266548Y-96755788D01*
X101272273Y-96750794D01*
X101308493Y-96699258D01*
X101312426Y-96693962D01*
X101346605Y-96650373D01*
X101346607Y-96650370D01*
X101351291Y-96644396D01*
X101354417Y-96637472D01*
X101356255Y-96634437D01*
X101363499Y-96621738D01*
X101365187Y-96618590D01*
X101369555Y-96612375D01*
X101392437Y-96553686D01*
X101394977Y-96547641D01*
X101420912Y-96490201D01*
X101422297Y-96482728D01*
X101423368Y-96479310D01*
X101427353Y-96465321D01*
X101428250Y-96461829D01*
X101431011Y-96454747D01*
X101434769Y-96426202D01*
X101439232Y-96392306D01*
X101440264Y-96385793D01*
X101450360Y-96331318D01*
X101450360Y-96331316D01*
X101451744Y-96323849D01*
X101448208Y-96262523D01*
X101447999Y-96255271D01*
X101447999Y-89303689D01*
X101468001Y-89235568D01*
X101484904Y-89214594D01*
X101590198Y-89109300D01*
X101721523Y-88921749D01*
X101723846Y-88916767D01*
X101723849Y-88916762D01*
X101815961Y-88719225D01*
X101815961Y-88719224D01*
X101818284Y-88714243D01*
X101833226Y-88658481D01*
X101876119Y-88498402D01*
X101876119Y-88498400D01*
X101877543Y-88493087D01*
X101897498Y-88265000D01*
X101877543Y-88036913D01*
X101848091Y-87926998D01*
X101819707Y-87821067D01*
X101819706Y-87821065D01*
X101818284Y-87815757D01*
X101815961Y-87810775D01*
X101723849Y-87613238D01*
X101723846Y-87613233D01*
X101721523Y-87608251D01*
X101617534Y-87459740D01*
X101593357Y-87425211D01*
X101593355Y-87425208D01*
X101590198Y-87420700D01*
X101428300Y-87258802D01*
X101423792Y-87255645D01*
X101423789Y-87255643D01*
X101306832Y-87173749D01*
X101240749Y-87127477D01*
X101235767Y-87125154D01*
X101235762Y-87125151D01*
X101104684Y-87064029D01*
X101051399Y-87017112D01*
X101031938Y-86948835D01*
X101052480Y-86880875D01*
X101109716Y-86833425D01*
X101143963Y-86819240D01*
X101152015Y-86814306D01*
X101342202Y-86697759D01*
X101342208Y-86697755D01*
X101346416Y-86695176D01*
X101526969Y-86540969D01*
X101681176Y-86360416D01*
X101683755Y-86356208D01*
X101683759Y-86356202D01*
X101802654Y-86162183D01*
X101805240Y-86157963D01*
X101814046Y-86136705D01*
X101894211Y-85943167D01*
X101894212Y-85943165D01*
X101896105Y-85938594D01*
X101919346Y-85841788D01*
X101950380Y-85712524D01*
X101950381Y-85712518D01*
X101951535Y-85707711D01*
X101970165Y-85471000D01*
X101951535Y-85234289D01*
X101896105Y-85003406D01*
X101894211Y-84998833D01*
X101807135Y-84788611D01*
X101807133Y-84788607D01*
X101805240Y-84784037D01*
X101798848Y-84773606D01*
X101683759Y-84585798D01*
X101683755Y-84585792D01*
X101681176Y-84581584D01*
X101536132Y-84411759D01*
X101530177Y-84404787D01*
X101526969Y-84401031D01*
X101346416Y-84246824D01*
X101342208Y-84244245D01*
X101342202Y-84244241D01*
X101148183Y-84125346D01*
X101143963Y-84122760D01*
X101139393Y-84120867D01*
X101139389Y-84120865D01*
X100929167Y-84033789D01*
X100929165Y-84033788D01*
X100924594Y-84031895D01*
X100844391Y-84012640D01*
X100698524Y-83977620D01*
X100698518Y-83977619D01*
X100693711Y-83976465D01*
X100457000Y-83957835D01*
X100220289Y-83976465D01*
X100215482Y-83977619D01*
X100215476Y-83977620D01*
X100069609Y-84012640D01*
X99989406Y-84031895D01*
X99984835Y-84033788D01*
X99984833Y-84033789D01*
X99774611Y-84120865D01*
X99774607Y-84120867D01*
X99770037Y-84122760D01*
X99765817Y-84125346D01*
X99571798Y-84244241D01*
X99571792Y-84244245D01*
X99567584Y-84246824D01*
X99387031Y-84401031D01*
X99383823Y-84404787D01*
X99377868Y-84411759D01*
X99232824Y-84581584D01*
X99230245Y-84585792D01*
X99230241Y-84585798D01*
X99115152Y-84773606D01*
X99108760Y-84784037D01*
X99106867Y-84788607D01*
X99106865Y-84788611D01*
X99052291Y-84920367D01*
X99007743Y-84975648D01*
X98940380Y-84998069D01*
X98871588Y-84980511D01*
X98857790Y-84971031D01*
X98769084Y-84900976D01*
X98735328Y-84874317D01*
X98564143Y-84779817D01*
X98527705Y-84759702D01*
X98527702Y-84759701D01*
X98523174Y-84757201D01*
X98304947Y-84679923D01*
X98299613Y-84678034D01*
X98299610Y-84678033D01*
X98294741Y-84676309D01*
X98289652Y-84675402D01*
X98289650Y-84675402D01*
X98216394Y-84662353D01*
X98056163Y-84633812D01*
X97965635Y-84632706D01*
X97819018Y-84630914D01*
X97819016Y-84630914D01*
X97813848Y-84630851D01*
X97574303Y-84667507D01*
X97343961Y-84742794D01*
X97129009Y-84854691D01*
X97124876Y-84857794D01*
X97124873Y-84857796D01*
X96961432Y-84980511D01*
X96935218Y-85000193D01*
X96767795Y-85175392D01*
X96631234Y-85375583D01*
X96529203Y-85595390D01*
X96527821Y-85600372D01*
X96527821Y-85600373D01*
X96478068Y-85779778D01*
X96464442Y-85828910D01*
X96463893Y-85834047D01*
X96442504Y-86034185D01*
X96438690Y-86069871D01*
X96438987Y-86075023D01*
X96438987Y-86075027D01*
X96444868Y-86177012D01*
X96452640Y-86311802D01*
X96453777Y-86316848D01*
X96453778Y-86316854D01*
X96470656Y-86391745D01*
X96505916Y-86548207D01*
X96507858Y-86552989D01*
X96507859Y-86552993D01*
X96595144Y-86767949D01*
X96597088Y-86772736D01*
X96723707Y-86979359D01*
X96882372Y-87162527D01*
X96886347Y-87165827D01*
X96886350Y-87165830D01*
X96938486Y-87209114D01*
X97068823Y-87317322D01*
X97278053Y-87439586D01*
X97282873Y-87441426D01*
X97282878Y-87441429D01*
X97391220Y-87482800D01*
X97504442Y-87526035D01*
X97509510Y-87527066D01*
X97509513Y-87527067D01*
X97621569Y-87549865D01*
X97741910Y-87574349D01*
X97747085Y-87574539D01*
X97747087Y-87574539D01*
X97978917Y-87583040D01*
X97978921Y-87583040D01*
X97984081Y-87583229D01*
X97989201Y-87582573D01*
X97989203Y-87582573D01*
X98064315Y-87572951D01*
X98224450Y-87552437D01*
X98229401Y-87550952D01*
X98229404Y-87550951D01*
X98451612Y-87484285D01*
X98451611Y-87484285D01*
X98456562Y-87482800D01*
X98596353Y-87414317D01*
X98669533Y-87378467D01*
X98669538Y-87378464D01*
X98674184Y-87376188D01*
X98678394Y-87373185D01*
X98678399Y-87373182D01*
X98867259Y-87238469D01*
X98867264Y-87238465D01*
X98871471Y-87235464D01*
X99043126Y-87064408D01*
X99077112Y-87017112D01*
X99181519Y-86871813D01*
X99184537Y-86867613D01*
X99185561Y-86865542D01*
X99237178Y-86818017D01*
X99292952Y-86805000D01*
X99712695Y-86805000D01*
X99768768Y-86818463D01*
X99770037Y-86819240D01*
X99938798Y-86889142D01*
X99994078Y-86933690D01*
X100016499Y-87001053D01*
X99998941Y-87069845D01*
X99943832Y-87119744D01*
X99932245Y-87125147D01*
X99932234Y-87125154D01*
X99927251Y-87127477D01*
X99861168Y-87173749D01*
X99744211Y-87255643D01*
X99744208Y-87255645D01*
X99739700Y-87258802D01*
X99577802Y-87420700D01*
X99574645Y-87425208D01*
X99574643Y-87425211D01*
X99550466Y-87459740D01*
X99446477Y-87608251D01*
X99444154Y-87613233D01*
X99444151Y-87613238D01*
X99416172Y-87673241D01*
X99349716Y-87815757D01*
X99348293Y-87821066D01*
X99348292Y-87821070D01*
X99339573Y-87853611D01*
X99302622Y-87914233D01*
X99238761Y-87945255D01*
X99217866Y-87947000D01*
X96748644Y-87947000D01*
X96680523Y-87926998D01*
X96642852Y-87889440D01*
X96551407Y-87748087D01*
X96551405Y-87748084D01*
X96548599Y-87743747D01*
X96385506Y-87564510D01*
X96195328Y-87414317D01*
X95983174Y-87297201D01*
X95817319Y-87238469D01*
X95759613Y-87218034D01*
X95759610Y-87218033D01*
X95754741Y-87216309D01*
X95749652Y-87215402D01*
X95749650Y-87215402D01*
X95667511Y-87200771D01*
X95516163Y-87173812D01*
X95425635Y-87172706D01*
X95279018Y-87170914D01*
X95279016Y-87170914D01*
X95273848Y-87170851D01*
X95034303Y-87207507D01*
X94803961Y-87282794D01*
X94589009Y-87394691D01*
X94584876Y-87397794D01*
X94584873Y-87397796D01*
X94412700Y-87527067D01*
X94395218Y-87540193D01*
X94227795Y-87715392D01*
X94224881Y-87719664D01*
X94224880Y-87719665D01*
X94107318Y-87892004D01*
X94052407Y-87937007D01*
X94003230Y-87947000D01*
X91931500Y-87947000D01*
X91863379Y-87926998D01*
X91816886Y-87873342D01*
X91805500Y-87821000D01*
X91805500Y-87597866D01*
X91798745Y-87535684D01*
X91747615Y-87399295D01*
X91660261Y-87282739D01*
X91543705Y-87195385D01*
X91407316Y-87144255D01*
X91345134Y-87137500D01*
X89248866Y-87137500D01*
X89186684Y-87144255D01*
X89050295Y-87195385D01*
X88933739Y-87282739D01*
X88846385Y-87399295D01*
X88795255Y-87535684D01*
X88788500Y-87597866D01*
X88788500Y-89694134D01*
X88795255Y-89756316D01*
X88846385Y-89892705D01*
X88933739Y-90009261D01*
X89050295Y-90096615D01*
X89186684Y-90147745D01*
X89248866Y-90154500D01*
X89348382Y-90154500D01*
X89416503Y-90174502D01*
X89462996Y-90228158D01*
X89473100Y-90298432D01*
X89443606Y-90363012D01*
X89414217Y-90387932D01*
X89284807Y-90467235D01*
X89284797Y-90467242D01*
X89280584Y-90469824D01*
X89100031Y-90624031D01*
X88945824Y-90804584D01*
X88943245Y-90808792D01*
X88943241Y-90808798D01*
X88865145Y-90936239D01*
X88821760Y-91007037D01*
X88819867Y-91011607D01*
X88819865Y-91011611D01*
X88761409Y-91152738D01*
X88716861Y-91208019D01*
X88649497Y-91230440D01*
X88580706Y-91212882D01*
X88532328Y-91160920D01*
X88519000Y-91104520D01*
X88519000Y-83833966D01*
X93927162Y-83833966D01*
X93965257Y-84003008D01*
X93968340Y-84012848D01*
X94055592Y-84227722D01*
X94060235Y-84236913D01*
X94181415Y-84434661D01*
X94187493Y-84442965D01*
X94339339Y-84618262D01*
X94346701Y-84625471D01*
X94525130Y-84773606D01*
X94533578Y-84779521D01*
X94733809Y-84896526D01*
X94743096Y-84900976D01*
X94959751Y-84983708D01*
X94969653Y-84986585D01*
X95105248Y-85014172D01*
X95119300Y-85012977D01*
X95123000Y-85002632D01*
X95123000Y-85000665D01*
X95631000Y-85000665D01*
X95635064Y-85014507D01*
X95648478Y-85016541D01*
X95679216Y-85012603D01*
X95689297Y-85010460D01*
X95911426Y-84943818D01*
X95921024Y-84940056D01*
X96129289Y-84838029D01*
X96138134Y-84832756D01*
X96326935Y-84698086D01*
X96334810Y-84691430D01*
X96499083Y-84527730D01*
X96505761Y-84519883D01*
X96641089Y-84331556D01*
X96646398Y-84322719D01*
X96749147Y-84114821D01*
X96752946Y-84105226D01*
X96820360Y-83883343D01*
X96822539Y-83873262D01*
X96827186Y-83837961D01*
X96824975Y-83823779D01*
X96811817Y-83820000D01*
X95649115Y-83820000D01*
X95633876Y-83824475D01*
X95632671Y-83825865D01*
X95631000Y-83833548D01*
X95631000Y-85000665D01*
X95123000Y-85000665D01*
X95123000Y-83838115D01*
X95118525Y-83822876D01*
X95117135Y-83821671D01*
X95109452Y-83820000D01*
X93942130Y-83820000D01*
X93928599Y-83823973D01*
X93927162Y-83833966D01*
X88519000Y-83833966D01*
X88519000Y-81293431D01*
X88810353Y-81293431D01*
X88857218Y-81488634D01*
X88860264Y-81498008D01*
X88947313Y-81708163D01*
X88951795Y-81716958D01*
X89070643Y-81910899D01*
X89076443Y-81918883D01*
X89224178Y-82091858D01*
X89231142Y-82098822D01*
X89404117Y-82246557D01*
X89412101Y-82252357D01*
X89606042Y-82371205D01*
X89614837Y-82375687D01*
X89824992Y-82462736D01*
X89834366Y-82465782D01*
X90025385Y-82511642D01*
X90039469Y-82510937D01*
X90043000Y-82502056D01*
X90043000Y-82497756D01*
X90551000Y-82497756D01*
X90554973Y-82511287D01*
X90564431Y-82512647D01*
X90759634Y-82465782D01*
X90769008Y-82462736D01*
X90979163Y-82375687D01*
X90987958Y-82371205D01*
X91181899Y-82252357D01*
X91189883Y-82246557D01*
X91362858Y-82098822D01*
X91369822Y-82091858D01*
X91517557Y-81918883D01*
X91523357Y-81910899D01*
X91642205Y-81716958D01*
X91646687Y-81708163D01*
X91733736Y-81498008D01*
X91736782Y-81488634D01*
X91782642Y-81297615D01*
X91781937Y-81283531D01*
X91773056Y-81280000D01*
X90569115Y-81280000D01*
X90553876Y-81284475D01*
X90552671Y-81285865D01*
X90551000Y-81293548D01*
X90551000Y-82497756D01*
X90043000Y-82497756D01*
X90043000Y-81298115D01*
X90038525Y-81282876D01*
X90037135Y-81281671D01*
X90029452Y-81280000D01*
X88825244Y-81280000D01*
X88811713Y-81283973D01*
X88810353Y-81293431D01*
X88519000Y-81293431D01*
X88519000Y-80754385D01*
X88811358Y-80754385D01*
X88812063Y-80768469D01*
X88820944Y-80772000D01*
X90024885Y-80772000D01*
X90040124Y-80767525D01*
X90041329Y-80766135D01*
X90043000Y-80758452D01*
X90043000Y-80753885D01*
X90551000Y-80753885D01*
X90555475Y-80769124D01*
X90556865Y-80770329D01*
X90564548Y-80772000D01*
X91768756Y-80772000D01*
X91782287Y-80768027D01*
X91783647Y-80758569D01*
X91736782Y-80563366D01*
X91733736Y-80553992D01*
X91646687Y-80343837D01*
X91642205Y-80335042D01*
X91523357Y-80141101D01*
X91517557Y-80133117D01*
X91369822Y-79960142D01*
X91362858Y-79953178D01*
X91189883Y-79805443D01*
X91181899Y-79799643D01*
X90987958Y-79680795D01*
X90979163Y-79676313D01*
X90769008Y-79589264D01*
X90759634Y-79586218D01*
X90568615Y-79540358D01*
X90554531Y-79541063D01*
X90551000Y-79549944D01*
X90551000Y-80753885D01*
X90043000Y-80753885D01*
X90043000Y-79554244D01*
X90039027Y-79540713D01*
X90029569Y-79539353D01*
X89834366Y-79586218D01*
X89824992Y-79589264D01*
X89614837Y-79676313D01*
X89606042Y-79680795D01*
X89412101Y-79799643D01*
X89404117Y-79805443D01*
X89231142Y-79953178D01*
X89224178Y-79960142D01*
X89076443Y-80133117D01*
X89070643Y-80141101D01*
X88951795Y-80335042D01*
X88947313Y-80343837D01*
X88860264Y-80553992D01*
X88857218Y-80563366D01*
X88811358Y-80754385D01*
X88519000Y-80754385D01*
X88519000Y-79374000D01*
X88539002Y-79305879D01*
X88592658Y-79259386D01*
X88645000Y-79248000D01*
X93345500Y-79248000D01*
X93413621Y-79268002D01*
G37*
%TD.AperFunction*%
%TA.AperFunction,Conductor*%
G36*
X93783189Y-91022501D02*
G01*
X93829682Y-91076157D01*
X93839786Y-91146431D01*
X93831478Y-91176715D01*
X93810895Y-91226406D01*
X93809740Y-91231218D01*
X93759616Y-91440000D01*
X93755465Y-91457289D01*
X93736835Y-91694000D01*
X93755465Y-91930711D01*
X93810895Y-92161594D01*
X93812788Y-92166165D01*
X93812789Y-92166167D01*
X93891613Y-92356465D01*
X93901760Y-92380963D01*
X93904346Y-92385183D01*
X94023241Y-92579202D01*
X94023245Y-92579208D01*
X94025824Y-92583416D01*
X94047369Y-92608642D01*
X94173075Y-92755824D01*
X94180031Y-92763969D01*
X94183787Y-92767177D01*
X94183792Y-92767182D01*
X94227707Y-92804689D01*
X94266517Y-92864139D01*
X94267023Y-92935134D01*
X94227707Y-92996311D01*
X94183792Y-93033818D01*
X94183787Y-93033823D01*
X94180031Y-93037031D01*
X94025824Y-93217584D01*
X94023245Y-93221792D01*
X94023241Y-93221798D01*
X93921394Y-93387998D01*
X93901760Y-93420037D01*
X93899867Y-93424607D01*
X93899865Y-93424611D01*
X93853699Y-93536067D01*
X93810895Y-93639406D01*
X93809740Y-93644218D01*
X93783885Y-93751913D01*
X93755465Y-93870289D01*
X93736835Y-94107000D01*
X93755465Y-94343711D01*
X93756619Y-94348518D01*
X93756620Y-94348524D01*
X93779250Y-94442782D01*
X93810895Y-94574594D01*
X93812788Y-94579165D01*
X93812789Y-94579167D01*
X93847261Y-94662389D01*
X93901760Y-94793963D01*
X93904346Y-94798183D01*
X94023241Y-94992202D01*
X94023245Y-94992208D01*
X94025824Y-94996416D01*
X94180031Y-95176969D01*
X94183787Y-95180177D01*
X94183792Y-95180182D01*
X94227707Y-95217689D01*
X94266517Y-95277139D01*
X94267023Y-95348134D01*
X94227707Y-95409311D01*
X94183792Y-95446818D01*
X94183787Y-95446823D01*
X94180031Y-95450031D01*
X94176823Y-95453787D01*
X94170570Y-95461108D01*
X94025824Y-95630584D01*
X94023245Y-95634792D01*
X94023241Y-95634798D01*
X93934538Y-95779548D01*
X93901760Y-95833037D01*
X93899867Y-95837607D01*
X93899865Y-95837611D01*
X93876176Y-95894802D01*
X93810895Y-96052406D01*
X93809740Y-96057218D01*
X93761321Y-96258899D01*
X93755465Y-96283289D01*
X93736835Y-96520000D01*
X93755465Y-96756711D01*
X93756619Y-96761518D01*
X93756620Y-96761524D01*
X93775076Y-96838398D01*
X93789024Y-96896492D01*
X93791127Y-96905253D01*
X93787580Y-96976161D01*
X93757703Y-97023762D01*
X93385460Y-97396005D01*
X93379195Y-97401858D01*
X93336225Y-97439343D01*
X93331858Y-97445557D01*
X93300005Y-97490879D01*
X93296072Y-97496175D01*
X93261893Y-97539764D01*
X93261891Y-97539767D01*
X93257207Y-97545741D01*
X93254081Y-97552665D01*
X93252243Y-97555700D01*
X93244999Y-97568399D01*
X93243311Y-97571547D01*
X93238943Y-97577762D01*
X93222475Y-97620002D01*
X93216066Y-97636440D01*
X93213521Y-97642496D01*
X93187586Y-97699936D01*
X93186201Y-97707409D01*
X93185130Y-97710827D01*
X93181145Y-97724816D01*
X93180248Y-97728308D01*
X93177487Y-97735390D01*
X93176495Y-97742923D01*
X93176495Y-97742924D01*
X93169266Y-97797831D01*
X93168234Y-97804344D01*
X93158138Y-97858819D01*
X93156754Y-97866288D01*
X93157191Y-97873868D01*
X93157191Y-97873869D01*
X93160290Y-97927613D01*
X93160499Y-97934866D01*
X93160499Y-98598774D01*
X93140497Y-98666895D01*
X93086841Y-98713388D01*
X93016567Y-98723492D01*
X92951987Y-98693998D01*
X92945404Y-98687869D01*
X92683905Y-98426370D01*
X92649879Y-98364058D01*
X92647000Y-98337275D01*
X92647000Y-95913600D01*
X92647292Y-95905029D01*
X92650653Y-95855725D01*
X92651170Y-95848149D01*
X92640334Y-95786065D01*
X92639378Y-95779586D01*
X92631809Y-95717040D01*
X92629125Y-95709938D01*
X92628270Y-95706456D01*
X92624430Y-95692421D01*
X92623389Y-95688973D01*
X92622082Y-95681483D01*
X92601592Y-95634806D01*
X92596763Y-95623805D01*
X92594270Y-95617697D01*
X92574692Y-95565886D01*
X92574692Y-95565885D01*
X92572006Y-95558778D01*
X92567700Y-95552512D01*
X92566050Y-95549357D01*
X92558931Y-95536565D01*
X92557131Y-95533521D01*
X92554078Y-95526567D01*
X92548140Y-95518828D01*
X92515740Y-95476604D01*
X92511862Y-95471267D01*
X92480481Y-95425607D01*
X92480479Y-95425605D01*
X92476179Y-95419348D01*
X92430311Y-95378481D01*
X92425036Y-95373501D01*
X91662297Y-94610762D01*
X91628271Y-94548450D01*
X91628873Y-94492253D01*
X91663380Y-94348524D01*
X91663381Y-94348518D01*
X91664535Y-94343711D01*
X91683165Y-94107000D01*
X91664535Y-93870289D01*
X91636116Y-93751913D01*
X91610260Y-93644218D01*
X91609105Y-93639406D01*
X91566301Y-93536067D01*
X91520135Y-93424611D01*
X91520133Y-93424607D01*
X91518240Y-93420037D01*
X91498606Y-93387998D01*
X91396759Y-93221798D01*
X91396755Y-93221792D01*
X91394176Y-93217584D01*
X91239969Y-93037031D01*
X91236213Y-93033823D01*
X91236208Y-93033818D01*
X91192293Y-92996311D01*
X91153483Y-92936861D01*
X91152977Y-92865866D01*
X91192293Y-92804689D01*
X91236208Y-92767182D01*
X91236213Y-92767177D01*
X91239969Y-92763969D01*
X91246926Y-92755824D01*
X91372631Y-92608642D01*
X91394176Y-92583416D01*
X91396755Y-92579208D01*
X91396759Y-92579202D01*
X91515654Y-92385183D01*
X91518240Y-92380963D01*
X91528388Y-92356465D01*
X91607211Y-92166167D01*
X91607212Y-92166165D01*
X91609105Y-92161594D01*
X91664535Y-91930711D01*
X91683165Y-91694000D01*
X91664535Y-91457289D01*
X91660385Y-91440000D01*
X91628873Y-91308747D01*
X91632420Y-91237839D01*
X91662297Y-91190238D01*
X91813131Y-91039404D01*
X91875443Y-91005378D01*
X91902226Y-91002499D01*
X93715068Y-91002499D01*
X93783189Y-91022501D01*
G37*
%TD.AperFunction*%
%TA.AperFunction,Conductor*%
G36*
X110930778Y-89046646D02*
G01*
X110944891Y-89063737D01*
X110977821Y-89111652D01*
X111023707Y-89152535D01*
X111028963Y-89157498D01*
X112807703Y-90936239D01*
X112841729Y-90998551D01*
X112841127Y-91054746D01*
X112805465Y-91203289D01*
X112786835Y-91440000D01*
X112805465Y-91676711D01*
X112806619Y-91681518D01*
X112806620Y-91681524D01*
X112810799Y-91698930D01*
X112860895Y-91907594D01*
X112862788Y-91912165D01*
X112862789Y-91912167D01*
X112868427Y-91925777D01*
X112951760Y-92126963D01*
X112954346Y-92131183D01*
X113073241Y-92325202D01*
X113073245Y-92325208D01*
X113075824Y-92329416D01*
X113230031Y-92509969D01*
X113233787Y-92513177D01*
X113233792Y-92513182D01*
X113352056Y-92614189D01*
X113390866Y-92673639D01*
X113391372Y-92744634D01*
X113352056Y-92805811D01*
X113233792Y-92906818D01*
X113233787Y-92906823D01*
X113230031Y-92910031D01*
X113075824Y-93090584D01*
X113073245Y-93094792D01*
X113073241Y-93094798D01*
X112954346Y-93288817D01*
X112951760Y-93293037D01*
X112949867Y-93297607D01*
X112949865Y-93297611D01*
X112862789Y-93507833D01*
X112860895Y-93512406D01*
X112805465Y-93743289D01*
X112786835Y-93980000D01*
X112805465Y-94216711D01*
X112860895Y-94447594D01*
X112862788Y-94452165D01*
X112862789Y-94452167D01*
X112934645Y-94625643D01*
X112951760Y-94666963D01*
X112954346Y-94671183D01*
X113073241Y-94865202D01*
X113073245Y-94865208D01*
X113075824Y-94869416D01*
X113230031Y-95049969D01*
X113410584Y-95204176D01*
X113414792Y-95206755D01*
X113414798Y-95206759D01*
X113595149Y-95317278D01*
X113613037Y-95328240D01*
X113617607Y-95330133D01*
X113617611Y-95330135D01*
X113827833Y-95417211D01*
X113832406Y-95419105D01*
X113837217Y-95420260D01*
X113837220Y-95420261D01*
X113847145Y-95422644D01*
X113908713Y-95457998D01*
X113941394Y-95521025D01*
X113934811Y-95591716D01*
X113891055Y-95647626D01*
X113860819Y-95663564D01*
X113856071Y-95665292D01*
X113850757Y-95666716D01*
X113831491Y-95675700D01*
X113648238Y-95761151D01*
X113648233Y-95761154D01*
X113643251Y-95763477D01*
X113589666Y-95800998D01*
X113460211Y-95891643D01*
X113460208Y-95891645D01*
X113455700Y-95894802D01*
X113293802Y-96056700D01*
X113290645Y-96061208D01*
X113290643Y-96061211D01*
X113229683Y-96148271D01*
X113174226Y-96192599D01*
X113126470Y-96202000D01*
X112482725Y-96202000D01*
X112414604Y-96181998D01*
X112393630Y-96165095D01*
X110712297Y-94483762D01*
X110678271Y-94421450D01*
X110678873Y-94365253D01*
X110682890Y-94348524D01*
X110714535Y-94216711D01*
X110733165Y-93980000D01*
X110714535Y-93743289D01*
X110659105Y-93512406D01*
X110657211Y-93507833D01*
X110570135Y-93297611D01*
X110570133Y-93297607D01*
X110568240Y-93293037D01*
X110565654Y-93288817D01*
X110446759Y-93094798D01*
X110446755Y-93094792D01*
X110444176Y-93090584D01*
X110289969Y-92910031D01*
X110286213Y-92906823D01*
X110286208Y-92906818D01*
X110167944Y-92805811D01*
X110129134Y-92746361D01*
X110128628Y-92675366D01*
X110167944Y-92614189D01*
X110286208Y-92513182D01*
X110286213Y-92513177D01*
X110289969Y-92509969D01*
X110444176Y-92329416D01*
X110446755Y-92325208D01*
X110446759Y-92325202D01*
X110565654Y-92131183D01*
X110568240Y-92126963D01*
X110651574Y-91925777D01*
X110657211Y-91912167D01*
X110657212Y-91912165D01*
X110659105Y-91907594D01*
X110709201Y-91698930D01*
X110713380Y-91681524D01*
X110713381Y-91681518D01*
X110714535Y-91676711D01*
X110733165Y-91440000D01*
X110714535Y-91203289D01*
X110659105Y-90972406D01*
X110591337Y-90808798D01*
X110570135Y-90757611D01*
X110570133Y-90757607D01*
X110568240Y-90753037D01*
X110565654Y-90748817D01*
X110446759Y-90554798D01*
X110446755Y-90554792D01*
X110444176Y-90550584D01*
X110289969Y-90370031D01*
X110286213Y-90366823D01*
X110286208Y-90366818D01*
X110167944Y-90265811D01*
X110129134Y-90206361D01*
X110128628Y-90135366D01*
X110167944Y-90074189D01*
X110286208Y-89973182D01*
X110286213Y-89973177D01*
X110289969Y-89969969D01*
X110444176Y-89789416D01*
X110446755Y-89785208D01*
X110446759Y-89785202D01*
X110565654Y-89591183D01*
X110568240Y-89586963D01*
X110571747Y-89578498D01*
X110657211Y-89372167D01*
X110657212Y-89372165D01*
X110659105Y-89367594D01*
X110695837Y-89214594D01*
X110713380Y-89141524D01*
X110713381Y-89141518D01*
X110714535Y-89136711D01*
X110714923Y-89131782D01*
X110714924Y-89131775D01*
X110715439Y-89125224D01*
X110740722Y-89058882D01*
X110797859Y-89016740D01*
X110868709Y-89012179D01*
X110930778Y-89046646D01*
G37*
%TD.AperFunction*%
%TA.AperFunction,Conductor*%
G36*
X109108659Y-84276087D02*
G01*
X109161982Y-84322962D01*
X109181500Y-84390324D01*
X109181500Y-85938134D01*
X109188255Y-86000316D01*
X109239385Y-86136705D01*
X109326739Y-86253261D01*
X109443295Y-86340615D01*
X109579684Y-86391745D01*
X109641866Y-86398500D01*
X110681000Y-86398500D01*
X110749121Y-86418502D01*
X110795614Y-86472158D01*
X110807000Y-86524500D01*
X110807000Y-88157657D01*
X110786998Y-88225778D01*
X110733342Y-88272271D01*
X110663068Y-88282375D01*
X110598488Y-88252881D01*
X110569289Y-88215569D01*
X110568240Y-88213037D01*
X110460311Y-88036913D01*
X110446759Y-88014798D01*
X110446755Y-88014792D01*
X110444176Y-88010584D01*
X110289969Y-87830031D01*
X110109416Y-87675824D01*
X110105208Y-87673245D01*
X110105202Y-87673241D01*
X109911183Y-87554346D01*
X109906963Y-87551760D01*
X109902393Y-87549867D01*
X109902389Y-87549865D01*
X109692167Y-87462789D01*
X109692165Y-87462788D01*
X109687594Y-87460895D01*
X109606512Y-87441429D01*
X109461524Y-87406620D01*
X109461518Y-87406619D01*
X109456711Y-87405465D01*
X109220000Y-87386835D01*
X108983289Y-87405465D01*
X108978482Y-87406619D01*
X108978476Y-87406620D01*
X108833488Y-87441429D01*
X108752406Y-87460895D01*
X108747835Y-87462788D01*
X108747833Y-87462789D01*
X108537611Y-87549865D01*
X108537607Y-87549867D01*
X108533037Y-87551760D01*
X108528814Y-87554348D01*
X108526346Y-87555860D01*
X108525279Y-87556149D01*
X108524403Y-87556595D01*
X108524309Y-87556411D01*
X108457813Y-87574399D01*
X108390136Y-87552944D01*
X108344802Y-87498305D01*
X108334510Y-87448428D01*
X108334510Y-84742237D01*
X108354512Y-84674116D01*
X108408168Y-84627623D01*
X108416577Y-84624349D01*
X108417594Y-84624105D01*
X108512168Y-84584931D01*
X108632389Y-84535135D01*
X108632393Y-84535133D01*
X108636963Y-84533240D01*
X108641183Y-84530654D01*
X108835202Y-84411759D01*
X108835208Y-84411755D01*
X108839416Y-84409176D01*
X108843176Y-84405965D01*
X108843182Y-84405961D01*
X108973670Y-84294513D01*
X109038459Y-84265482D01*
X109108659Y-84276087D01*
G37*
%TD.AperFunction*%
%TD*%
M02*
