M48
; DRILL file {KiCad (5.99.0-1452-gb67f18b39)} date Tue Apr 28 12:03:25 2020
; FORMAT={-:-/ absolute / inch / decimal}
; #@! TF.CreationDate,2020-04-28T12:03:25+03:00
; #@! TF.GenerationSoftware,Kicad,Pcbnew,(5.99.0-1452-gb67f18b39)
; #@! TF.FileFunction,Plated,1,2,PTH
FMAT,2
INCH
T1C0.0157
T2C0.0315
T3C0.0354
T4C0.0394
T5C0.0433
T6C0.0551
%
G90
G05
T1
X3.545Y-5.135
X3.655Y-3.655
X3.675Y-4.45
X3.68Y-5.095
X3.71Y-4.845
X4.0Y-4.6
X4.285Y-3.415
X4.385Y-3.55
X4.405Y-4.125
X4.43Y-4.325
T2
X4.3031Y-3.95
X4.5Y-3.95
X3.96Y-3.475
X4.1569Y-3.475
X4.35Y-3.35
X4.4484Y-3.35
X3.875Y-3.6
X3.875Y-3.7
X3.875Y-3.8
X3.875Y-3.9
X4.175Y-3.6
X4.175Y-3.7
X4.175Y-3.8
X4.175Y-3.9
X3.65Y-4.175
X3.8469Y-4.175
X3.6Y-4.805
X3.7969Y-4.805
X4.415Y-5.11
X4.5134Y-5.11
X3.9525Y-4.8525
X4.1494Y-4.8525
X4.3031Y-3.815
X4.5Y-3.815
X3.65Y-4.03
X3.8469Y-4.03
X3.95Y-4.725
X4.1469Y-4.725
X3.875Y-4.3
X3.875Y-4.4
X3.875Y-4.5
X3.875Y-4.6
X4.175Y-4.3
X4.175Y-4.4
X4.175Y-4.5
X4.175Y-4.6
T3
X3.8995Y-4.9725
X3.9995Y-4.9725
T4
X4.3Y-4.675
X4.5Y-4.675
X3.55Y-3.8
X3.75Y-3.8
X3.955Y-3.365
X4.155Y-3.365
X4.3Y-4.275
X4.5Y-4.275
X4.005Y-4.185
X4.205Y-4.185
X4.3Y-4.875
X4.5Y-4.875
X3.55Y-3.705
X3.75Y-3.705
X4.3Y-4.575
X4.5Y-4.575
X3.55Y-4.4
X3.75Y-4.4
X3.555Y-3.19
X3.555Y-3.49
X3.575Y-5.005
X3.775Y-5.005
X4.3Y-3.6
X4.5Y-3.6
X4.3Y-3.5
X4.5Y-3.5
X3.575Y-4.91
X3.775Y-4.91
X3.55Y-4.6
X3.75Y-4.6
X4.05Y-3.275
X4.25Y-3.275
X4.1Y-4.97
X4.4Y-4.97
X3.55Y-4.3
X3.75Y-4.3
X4.3Y-4.175
X4.5Y-4.175
X4.3Y-4.775
X4.5Y-4.775
X3.755Y-3.29
X3.755Y-3.49
X3.855Y-3.39
X3.55Y-4.5
X3.75Y-4.5
X4.3Y-4.375
X4.5Y-4.375
X3.55Y-3.99
X3.55Y-4.19
X4.3Y-4.075
X4.5Y-4.075
X4.3Y-4.475
X4.5Y-4.475
X3.55Y-3.895
X3.75Y-3.895
X4.3Y-3.7
X4.5Y-3.7
X3.55Y-4.7
X3.75Y-4.7
X3.55Y-3.61
X3.75Y-3.61
T5
X4.435Y-3.16
X4.535Y-3.16
X3.7995Y-5.149
X3.8995Y-5.149
X3.9995Y-5.149
X4.0995Y-5.149
X4.2175Y-5.14
X4.3175Y-5.14
T6
X3.75Y-3.175
X3.95Y-3.175
X4.15Y-3.175
T0
M30
