G04 #@! TF.GenerationSoftware,KiCad,Pcbnew,(5.99.0-7307-g71ab42e60a)*
G04 #@! TF.CreationDate,2020-12-03T10:19:34+02:00*
G04 #@! TF.ProjectId,agudo,61677564-6f2e-46b6-9963-61645f706362,rev?*
G04 #@! TF.SameCoordinates,Original*
G04 #@! TF.FileFunction,Paste,Top*
G04 #@! TF.FilePolarity,Positive*
%FSLAX46Y46*%
G04 Gerber Fmt 4.6, Leading zero omitted, Abs format (unit mm)*
G04 Created by KiCad (PCBNEW (5.99.0-7307-g71ab42e60a)) date 2020-12-03 10:19:34*
%MOMM*%
%LPD*%
G01*
G04 APERTURE LIST*
G04 Aperture macros list*
%AMRoundRect*
0 Rectangle with rounded corners*
0 $1 Rounding radius*
0 $2 $3 $4 $5 $6 $7 $8 $9 X,Y pos of 4 corners*
0 Add a 4 corners polygon primitive as box body*
4,1,4,$2,$3,$4,$5,$6,$7,$8,$9,$2,$3,0*
0 Add four circle primitives for the rounded corners*
1,1,$1+$1,$2,$3,0*
1,1,$1+$1,$4,$5,0*
1,1,$1+$1,$6,$7,0*
1,1,$1+$1,$8,$9,0*
0 Add four rect primitives between the rounded corners*
20,1,$1+$1,$2,$3,$4,$5,0*
20,1,$1+$1,$4,$5,$6,$7,0*
20,1,$1+$1,$6,$7,$8,$9,0*
20,1,$1+$1,$8,$9,$2,$3,0*%
G04 Aperture macros list end*
%ADD10RoundRect,0.218750X0.218750X0.256250X-0.218750X0.256250X-0.218750X-0.256250X0.218750X-0.256250X0*%
%ADD11RoundRect,0.218750X-0.218750X-0.256250X0.218750X-0.256250X0.218750X0.256250X-0.218750X0.256250X0*%
%ADD12RoundRect,0.150000X-0.825000X-0.150000X0.825000X-0.150000X0.825000X0.150000X-0.825000X0.150000X0*%
%ADD13R,0.800000X0.900000*%
%ADD14R,0.900000X0.800000*%
G04 APERTURE END LIST*
D10*
G04 #@! TO.C,R13*
X80787500Y-117750000D03*
X79212500Y-117750000D03*
G04 #@! TD*
D11*
G04 #@! TO.C,R18*
X82212500Y-112750000D03*
X83787500Y-112750000D03*
G04 #@! TD*
D10*
G04 #@! TO.C,R5*
X69787500Y-120500000D03*
X68212500Y-120500000D03*
G04 #@! TD*
D11*
G04 #@! TO.C,R22*
X68212500Y-106000000D03*
X69787500Y-106000000D03*
G04 #@! TD*
G04 #@! TO.C,R21*
X71962500Y-126500000D03*
X73537500Y-126500000D03*
G04 #@! TD*
G04 #@! TO.C,C5*
X66962500Y-117500000D03*
X68537500Y-117500000D03*
G04 #@! TD*
G04 #@! TO.C,C3*
X81962500Y-131500000D03*
X83537500Y-131500000D03*
G04 #@! TD*
G04 #@! TO.C,C12*
X82212500Y-117750000D03*
X83787500Y-117750000D03*
G04 #@! TD*
G04 #@! TO.C,R15*
X79212500Y-116250000D03*
X80787500Y-116250000D03*
G04 #@! TD*
G04 #@! TO.C,C10*
X74231250Y-107500000D03*
X75806250Y-107500000D03*
G04 #@! TD*
D10*
G04 #@! TO.C,R19*
X68537500Y-109500000D03*
X66962500Y-109500000D03*
G04 #@! TD*
G04 #@! TO.C,R27*
X75806250Y-106000000D03*
X74231250Y-106000000D03*
G04 #@! TD*
D11*
G04 #@! TO.C,C6*
X82212500Y-120750000D03*
X83787500Y-120750000D03*
G04 #@! TD*
G04 #@! TO.C,R20*
X68231250Y-107500000D03*
X69806250Y-107500000D03*
G04 #@! TD*
D12*
G04 #@! TO.C,U2*
X72025000Y-109345000D03*
X72025000Y-110615000D03*
X72025000Y-111885000D03*
X72025000Y-113155000D03*
X76975000Y-113155000D03*
X76975000Y-111885000D03*
X76975000Y-110615000D03*
X76975000Y-109345000D03*
G04 #@! TD*
G04 #@! TO.C,U1*
X72025000Y-119845000D03*
X72025000Y-121115000D03*
X72025000Y-122385000D03*
X72025000Y-123655000D03*
X76975000Y-123655000D03*
X76975000Y-122385000D03*
X76975000Y-121115000D03*
X76975000Y-119845000D03*
G04 #@! TD*
D11*
G04 #@! TO.C,R26*
X74962500Y-128000000D03*
X76537500Y-128000000D03*
G04 #@! TD*
G04 #@! TO.C,R6*
X68212500Y-119000000D03*
X69787500Y-119000000D03*
G04 #@! TD*
G04 #@! TO.C,C7*
X66462500Y-111000000D03*
X68037500Y-111000000D03*
G04 #@! TD*
G04 #@! TO.C,C11*
X81962500Y-130000000D03*
X83537500Y-130000000D03*
G04 #@! TD*
G04 #@! TO.C,R10*
X71212500Y-118000000D03*
X72787500Y-118000000D03*
G04 #@! TD*
G04 #@! TO.C,R12*
X70962500Y-116500000D03*
X72537500Y-116500000D03*
G04 #@! TD*
G04 #@! TO.C,R9*
X74962500Y-126500000D03*
X76537500Y-126500000D03*
G04 #@! TD*
G04 #@! TO.C,R3*
X68212500Y-123500000D03*
X69787500Y-123500000D03*
G04 #@! TD*
D10*
G04 #@! TO.C,R1*
X67037500Y-129750000D03*
X65462500Y-129750000D03*
G04 #@! TD*
D11*
G04 #@! TO.C,R24*
X80712500Y-103250000D03*
X82287500Y-103250000D03*
G04 #@! TD*
G04 #@! TO.C,R17*
X66962500Y-112500000D03*
X68537500Y-112500000D03*
G04 #@! TD*
D10*
G04 #@! TO.C,R4*
X69787500Y-122000000D03*
X68212500Y-122000000D03*
G04 #@! TD*
D13*
G04 #@! TO.C,Q2*
X67050000Y-116000000D03*
X68000000Y-114000000D03*
X68950000Y-116000000D03*
G04 #@! TD*
D11*
G04 #@! TO.C,C1*
X68212500Y-125000000D03*
X69787500Y-125000000D03*
G04 #@! TD*
D10*
G04 #@! TO.C,R23*
X80537500Y-112750000D03*
X78962500Y-112750000D03*
G04 #@! TD*
G04 #@! TO.C,R8*
X80787500Y-120750000D03*
X79212500Y-120750000D03*
G04 #@! TD*
D11*
G04 #@! TO.C,R11*
X82212500Y-114250000D03*
X83787500Y-114250000D03*
G04 #@! TD*
D10*
G04 #@! TO.C,R14*
X77537500Y-100750000D03*
X75962500Y-100750000D03*
G04 #@! TD*
G04 #@! TO.C,R25*
X78806250Y-107500000D03*
X77231250Y-107500000D03*
G04 #@! TD*
D11*
G04 #@! TO.C,R2*
X79212500Y-114250000D03*
X80787500Y-114250000D03*
G04 #@! TD*
G04 #@! TO.C,R16*
X70962500Y-115000000D03*
X72537500Y-115000000D03*
G04 #@! TD*
D10*
G04 #@! TO.C,R7*
X80787500Y-119250000D03*
X79212500Y-119250000D03*
G04 #@! TD*
D14*
G04 #@! TO.C,Q1*
X80250000Y-125550000D03*
X82250000Y-126500000D03*
X80250000Y-127450000D03*
G04 #@! TD*
D11*
G04 #@! TO.C,C4*
X80712500Y-122250000D03*
X82287500Y-122250000D03*
G04 #@! TD*
G04 #@! TO.C,C9*
X71962500Y-128000000D03*
X73537500Y-128000000D03*
G04 #@! TD*
M02*
