G04 #@! TF.GenerationSoftware,KiCad,Pcbnew,(5.99.0-7307-g71ab42e60a)*
G04 #@! TF.CreationDate,2020-12-03T10:10:09+02:00*
G04 #@! TF.ProjectId,agudo,61677564-6f2e-46b6-9963-61645f706362,rev?*
G04 #@! TF.SameCoordinates,Original*
G04 #@! TF.FileFunction,Legend,Top*
G04 #@! TF.FilePolarity,Positive*
%FSLAX46Y46*%
G04 Gerber Fmt 4.6, Leading zero omitted, Abs format (unit mm)*
G04 Created by KiCad (PCBNEW (5.99.0-7307-g71ab42e60a)) date 2020-12-03 10:10:09*
%MOMM*%
%LPD*%
G01*
G04 APERTURE LIST*
G04 Aperture macros list*
%AMRoundRect*
0 Rectangle with rounded corners*
0 $1 Rounding radius*
0 $2 $3 $4 $5 $6 $7 $8 $9 X,Y pos of 4 corners*
0 Add a 4 corners polygon primitive as box body*
4,1,4,$2,$3,$4,$5,$6,$7,$8,$9,$2,$3,0*
0 Add four circle primitives for the rounded corners*
1,1,$1+$1,$2,$3,0*
1,1,$1+$1,$4,$5,0*
1,1,$1+$1,$6,$7,0*
1,1,$1+$1,$8,$9,0*
0 Add four rect primitives between the rounded corners*
20,1,$1+$1,$2,$3,$4,$5,0*
20,1,$1+$1,$4,$5,$6,$7,0*
20,1,$1+$1,$6,$7,$8,$9,0*
20,1,$1+$1,$8,$9,$2,$3,0*%
G04 Aperture macros list end*
%ADD10C,0.127000*%
%ADD11C,0.105833*%
%ADD12C,0.079374*%
%ADD13C,0.150000*%
%ADD14C,0.065024*%
%ADD15C,0.032512*%
%ADD16C,0.081280*%
%ADD17C,0.120000*%
%ADD18C,0.152400*%
%ADD19C,0.304800*%
%ADD20RoundRect,0.218750X0.218750X0.256250X-0.218750X0.256250X-0.218750X-0.256250X0.218750X-0.256250X0*%
%ADD21RoundRect,0.218750X-0.218750X-0.256250X0.218750X-0.256250X0.218750X0.256250X-0.218750X0.256250X0*%
%ADD22R,1.600000X1.600000*%
%ADD23C,1.600000*%
%ADD24RoundRect,0.150000X-0.825000X-0.150000X0.825000X-0.150000X0.825000X0.150000X-0.825000X0.150000X0*%
%ADD25R,2.540000X2.540000*%
%ADD26O,2.540000X2.540000*%
%ADD27R,0.800000X0.900000*%
%ADD28R,2.000000X2.000000*%
%ADD29O,2.000000X2.000000*%
%ADD30R,2.032000X2.032000*%
%ADD31O,2.032000X2.032000*%
%ADD32R,0.900000X0.800000*%
%ADD33R,1.930400X1.930400*%
%ADD34O,1.930400X1.930400*%
%ADD35R,1.800000X1.800000*%
%ADD36C,1.800000*%
G04 APERTURE END LIST*
D10*
X64058729Y-132100000D02*
X64000395Y-132566666D01*
X63925395Y-131833333D02*
X63696229Y-132333333D01*
X64129562Y-132333333D01*
X64787895Y-131866666D02*
X64454562Y-131866666D01*
X64379562Y-132200000D01*
X64417062Y-132166666D01*
X64487895Y-132133333D01*
X64654562Y-132133333D01*
X64717062Y-132166666D01*
X64746229Y-132200000D01*
X64771229Y-132266666D01*
X64750395Y-132433333D01*
X64708729Y-132500000D01*
X64671229Y-132533333D01*
X64600395Y-132566666D01*
X64433729Y-132566666D01*
X64371229Y-132533333D01*
X64342062Y-132500000D01*
X65121229Y-132133333D02*
X65058729Y-132100000D01*
X65033729Y-132033333D01*
X65050395Y-131900000D01*
X65092062Y-131833333D01*
X65162895Y-131800000D01*
X65229562Y-131800000D01*
X65292062Y-131833333D01*
X65317062Y-131900000D01*
X65300395Y-132033333D01*
X65258729Y-132100000D01*
X65187895Y-132133333D01*
X65121229Y-132133333D01*
D11*
X67041666Y-133041666D02*
X61750000Y-127750000D01*
D12*
X66008138Y-132153828D02*
X66068082Y-132205504D01*
X66068082Y-132205504D02*
X66030820Y-132250616D01*
X66030820Y-132250616D02*
X65996016Y-132296344D01*
X65996016Y-132296344D02*
X65963653Y-132342728D01*
X65963653Y-132342728D02*
X65933718Y-132389806D01*
X65933718Y-132389806D02*
X65906196Y-132437619D01*
X65906196Y-132437619D02*
X65881071Y-132486205D01*
X65881071Y-132486205D02*
X65858330Y-132535604D01*
X65858330Y-132535604D02*
X65837956Y-132585854D01*
X65837956Y-132585854D02*
X65819936Y-132636996D01*
X65819936Y-132636996D02*
X65804254Y-132689067D01*
X65804254Y-132689067D02*
X65790895Y-132742109D01*
X65790895Y-132742109D02*
X65779845Y-132796159D01*
X65779845Y-132796159D02*
X65771090Y-132851257D01*
X65771090Y-132851257D02*
X65764613Y-132907443D01*
X65764613Y-132907443D02*
X65760400Y-132964755D01*
X65760400Y-132964755D02*
X65758437Y-133023232D01*
X65758437Y-133023232D02*
X65679062Y-133022405D01*
X65679062Y-133022405D02*
X65681165Y-132960794D01*
X65681165Y-132960794D02*
X65685702Y-132900238D01*
X65685702Y-132900238D02*
X65692680Y-132840721D01*
X65692680Y-132840721D02*
X65702104Y-132782225D01*
X65702104Y-132782225D02*
X65713981Y-132724734D01*
X65713981Y-132724734D02*
X65728316Y-132668231D01*
X65728316Y-132668231D02*
X65745114Y-132612698D01*
X65745114Y-132612698D02*
X65764382Y-132558120D01*
X65764382Y-132558120D02*
X65786126Y-132504480D01*
X65786126Y-132504480D02*
X65810351Y-132451760D01*
X65810351Y-132451760D02*
X65837063Y-132399943D01*
X65837063Y-132399943D02*
X65866269Y-132349014D01*
X65866269Y-132349014D02*
X65897973Y-132298954D01*
X65897973Y-132298954D02*
X65932182Y-132249748D01*
X65932182Y-132249748D02*
X65968902Y-132201378D01*
X65968902Y-132201378D02*
X66008138Y-132153828D01*
X66008138Y-132153828D02*
X66008138Y-132153828D01*
G36*
X66068082Y-132205504D02*
G01*
X66030820Y-132250616D01*
X65996016Y-132296344D01*
X65963653Y-132342728D01*
X65933718Y-132389806D01*
X65906196Y-132437619D01*
X65881071Y-132486205D01*
X65858330Y-132535604D01*
X65837956Y-132585854D01*
X65819936Y-132636996D01*
X65804254Y-132689067D01*
X65790895Y-132742109D01*
X65779845Y-132796159D01*
X65771090Y-132851257D01*
X65764613Y-132907443D01*
X65760400Y-132964755D01*
X65758437Y-133023232D01*
X65679062Y-133022405D01*
X65681165Y-132960794D01*
X65685702Y-132900238D01*
X65692680Y-132840721D01*
X65702104Y-132782225D01*
X65713981Y-132724734D01*
X65728316Y-132668231D01*
X65745114Y-132612698D01*
X65764382Y-132558120D01*
X65786126Y-132504480D01*
X65810351Y-132451760D01*
X65837063Y-132399943D01*
X65866269Y-132349014D01*
X65897973Y-132298954D01*
X65932182Y-132249748D01*
X65968902Y-132201378D01*
X66008138Y-132153828D01*
X66068082Y-132205504D01*
G37*
X66068082Y-132205504D02*
X66030820Y-132250616D01*
X65996016Y-132296344D01*
X65963653Y-132342728D01*
X65933718Y-132389806D01*
X65906196Y-132437619D01*
X65881071Y-132486205D01*
X65858330Y-132535604D01*
X65837956Y-132585854D01*
X65819936Y-132636996D01*
X65804254Y-132689067D01*
X65790895Y-132742109D01*
X65779845Y-132796159D01*
X65771090Y-132851257D01*
X65764613Y-132907443D01*
X65760400Y-132964755D01*
X65758437Y-133023232D01*
X65679062Y-133022405D01*
X65681165Y-132960794D01*
X65685702Y-132900238D01*
X65692680Y-132840721D01*
X65702104Y-132782225D01*
X65713981Y-132724734D01*
X65728316Y-132668231D01*
X65745114Y-132612698D01*
X65764382Y-132558120D01*
X65786126Y-132504480D01*
X65810351Y-132451760D01*
X65837063Y-132399943D01*
X65866269Y-132349014D01*
X65897973Y-132298954D01*
X65932182Y-132249748D01*
X65968902Y-132201378D01*
X66008138Y-132153828D01*
X66068082Y-132205504D01*
D11*
X60427083Y-133041666D02*
X67041666Y-133041666D01*
D13*
G04 #@! TO.C,R13*
X76607142Y-118202380D02*
X76273809Y-117726190D01*
X76035714Y-118202380D02*
X76035714Y-117202380D01*
X76416666Y-117202380D01*
X76511904Y-117250000D01*
X76559523Y-117297619D01*
X76607142Y-117392857D01*
X76607142Y-117535714D01*
X76559523Y-117630952D01*
X76511904Y-117678571D01*
X76416666Y-117726190D01*
X76035714Y-117726190D01*
X77559523Y-118202380D02*
X76988095Y-118202380D01*
X77273809Y-118202380D02*
X77273809Y-117202380D01*
X77178571Y-117345238D01*
X77083333Y-117440476D01*
X76988095Y-117488095D01*
X77892857Y-117202380D02*
X78511904Y-117202380D01*
X78178571Y-117583333D01*
X78321428Y-117583333D01*
X78416666Y-117630952D01*
X78464285Y-117678571D01*
X78511904Y-117773809D01*
X78511904Y-118011904D01*
X78464285Y-118107142D01*
X78416666Y-118154761D01*
X78321428Y-118202380D01*
X78035714Y-118202380D01*
X77940476Y-118154761D01*
X77892857Y-118107142D01*
G04 #@! TO.C,R18*
X85107142Y-113202380D02*
X84773809Y-112726190D01*
X84535714Y-113202380D02*
X84535714Y-112202380D01*
X84916666Y-112202380D01*
X85011904Y-112250000D01*
X85059523Y-112297619D01*
X85107142Y-112392857D01*
X85107142Y-112535714D01*
X85059523Y-112630952D01*
X85011904Y-112678571D01*
X84916666Y-112726190D01*
X84535714Y-112726190D01*
X86059523Y-113202380D02*
X85488095Y-113202380D01*
X85773809Y-113202380D02*
X85773809Y-112202380D01*
X85678571Y-112345238D01*
X85583333Y-112440476D01*
X85488095Y-112488095D01*
X86630952Y-112630952D02*
X86535714Y-112583333D01*
X86488095Y-112535714D01*
X86440476Y-112440476D01*
X86440476Y-112392857D01*
X86488095Y-112297619D01*
X86535714Y-112250000D01*
X86630952Y-112202380D01*
X86821428Y-112202380D01*
X86916666Y-112250000D01*
X86964285Y-112297619D01*
X87011904Y-112392857D01*
X87011904Y-112440476D01*
X86964285Y-112535714D01*
X86916666Y-112583333D01*
X86821428Y-112630952D01*
X86630952Y-112630952D01*
X86535714Y-112678571D01*
X86488095Y-112726190D01*
X86440476Y-112821428D01*
X86440476Y-113011904D01*
X86488095Y-113107142D01*
X86535714Y-113154761D01*
X86630952Y-113202380D01*
X86821428Y-113202380D01*
X86916666Y-113154761D01*
X86964285Y-113107142D01*
X87011904Y-113011904D01*
X87011904Y-112821428D01*
X86964285Y-112726190D01*
X86916666Y-112678571D01*
X86821428Y-112630952D01*
G04 #@! TO.C,R5*
X66333333Y-120952380D02*
X66000000Y-120476190D01*
X65761904Y-120952380D02*
X65761904Y-119952380D01*
X66142857Y-119952380D01*
X66238095Y-120000000D01*
X66285714Y-120047619D01*
X66333333Y-120142857D01*
X66333333Y-120285714D01*
X66285714Y-120380952D01*
X66238095Y-120428571D01*
X66142857Y-120476190D01*
X65761904Y-120476190D01*
X67238095Y-119952380D02*
X66761904Y-119952380D01*
X66714285Y-120428571D01*
X66761904Y-120380952D01*
X66857142Y-120333333D01*
X67095238Y-120333333D01*
X67190476Y-120380952D01*
X67238095Y-120428571D01*
X67285714Y-120523809D01*
X67285714Y-120761904D01*
X67238095Y-120857142D01*
X67190476Y-120904761D01*
X67095238Y-120952380D01*
X66857142Y-120952380D01*
X66761904Y-120904761D01*
X66714285Y-120857142D01*
G04 #@! TO.C,R22*
X65607142Y-106702380D02*
X65273809Y-106226190D01*
X65035714Y-106702380D02*
X65035714Y-105702380D01*
X65416666Y-105702380D01*
X65511904Y-105750000D01*
X65559523Y-105797619D01*
X65607142Y-105892857D01*
X65607142Y-106035714D01*
X65559523Y-106130952D01*
X65511904Y-106178571D01*
X65416666Y-106226190D01*
X65035714Y-106226190D01*
X65988095Y-105797619D02*
X66035714Y-105750000D01*
X66130952Y-105702380D01*
X66369047Y-105702380D01*
X66464285Y-105750000D01*
X66511904Y-105797619D01*
X66559523Y-105892857D01*
X66559523Y-105988095D01*
X66511904Y-106130952D01*
X65940476Y-106702380D01*
X66559523Y-106702380D01*
X66940476Y-105797619D02*
X66988095Y-105750000D01*
X67083333Y-105702380D01*
X67321428Y-105702380D01*
X67416666Y-105750000D01*
X67464285Y-105797619D01*
X67511904Y-105892857D01*
X67511904Y-105988095D01*
X67464285Y-106130952D01*
X66892857Y-106702380D01*
X67511904Y-106702380D01*
G04 #@! TO.C,C2*
X60333333Y-112678142D02*
X60285714Y-112725761D01*
X60142857Y-112773380D01*
X60047619Y-112773380D01*
X59904761Y-112725761D01*
X59809523Y-112630523D01*
X59761904Y-112535285D01*
X59714285Y-112344809D01*
X59714285Y-112201952D01*
X59761904Y-112011476D01*
X59809523Y-111916238D01*
X59904761Y-111821000D01*
X60047619Y-111773380D01*
X60142857Y-111773380D01*
X60285714Y-111821000D01*
X60333333Y-111868619D01*
X60714285Y-111868619D02*
X60761904Y-111821000D01*
X60857142Y-111773380D01*
X61095238Y-111773380D01*
X61190476Y-111821000D01*
X61238095Y-111868619D01*
X61285714Y-111963857D01*
X61285714Y-112059095D01*
X61238095Y-112201952D01*
X60666666Y-112773380D01*
X61285714Y-112773380D01*
G04 #@! TO.C,R21*
X69107142Y-126952380D02*
X68773809Y-126476190D01*
X68535714Y-126952380D02*
X68535714Y-125952380D01*
X68916666Y-125952380D01*
X69011904Y-126000000D01*
X69059523Y-126047619D01*
X69107142Y-126142857D01*
X69107142Y-126285714D01*
X69059523Y-126380952D01*
X69011904Y-126428571D01*
X68916666Y-126476190D01*
X68535714Y-126476190D01*
X69488095Y-126047619D02*
X69535714Y-126000000D01*
X69630952Y-125952380D01*
X69869047Y-125952380D01*
X69964285Y-126000000D01*
X70011904Y-126047619D01*
X70059523Y-126142857D01*
X70059523Y-126238095D01*
X70011904Y-126380952D01*
X69440476Y-126952380D01*
X70059523Y-126952380D01*
X71011904Y-126952380D02*
X70440476Y-126952380D01*
X70726190Y-126952380D02*
X70726190Y-125952380D01*
X70630952Y-126095238D01*
X70535714Y-126190476D01*
X70440476Y-126238095D01*
G04 #@! TO.C,C5*
X65083333Y-117857142D02*
X65035714Y-117904761D01*
X64892857Y-117952380D01*
X64797619Y-117952380D01*
X64654761Y-117904761D01*
X64559523Y-117809523D01*
X64511904Y-117714285D01*
X64464285Y-117523809D01*
X64464285Y-117380952D01*
X64511904Y-117190476D01*
X64559523Y-117095238D01*
X64654761Y-117000000D01*
X64797619Y-116952380D01*
X64892857Y-116952380D01*
X65035714Y-117000000D01*
X65083333Y-117047619D01*
X65988095Y-116952380D02*
X65511904Y-116952380D01*
X65464285Y-117428571D01*
X65511904Y-117380952D01*
X65607142Y-117333333D01*
X65845238Y-117333333D01*
X65940476Y-117380952D01*
X65988095Y-117428571D01*
X66035714Y-117523809D01*
X66035714Y-117761904D01*
X65988095Y-117857142D01*
X65940476Y-117904761D01*
X65845238Y-117952380D01*
X65607142Y-117952380D01*
X65511904Y-117904761D01*
X65464285Y-117857142D01*
G04 #@! TO.C,C3*
X80083333Y-131857142D02*
X80035714Y-131904761D01*
X79892857Y-131952380D01*
X79797619Y-131952380D01*
X79654761Y-131904761D01*
X79559523Y-131809523D01*
X79511904Y-131714285D01*
X79464285Y-131523809D01*
X79464285Y-131380952D01*
X79511904Y-131190476D01*
X79559523Y-131095238D01*
X79654761Y-131000000D01*
X79797619Y-130952380D01*
X79892857Y-130952380D01*
X80035714Y-131000000D01*
X80083333Y-131047619D01*
X80416666Y-130952380D02*
X81035714Y-130952380D01*
X80702380Y-131333333D01*
X80845238Y-131333333D01*
X80940476Y-131380952D01*
X80988095Y-131428571D01*
X81035714Y-131523809D01*
X81035714Y-131761904D01*
X80988095Y-131857142D01*
X80940476Y-131904761D01*
X80845238Y-131952380D01*
X80559523Y-131952380D01*
X80464285Y-131904761D01*
X80416666Y-131857142D01*
G04 #@! TO.C,C12*
X82857142Y-116857142D02*
X82809523Y-116904761D01*
X82666666Y-116952380D01*
X82571428Y-116952380D01*
X82428571Y-116904761D01*
X82333333Y-116809523D01*
X82285714Y-116714285D01*
X82238095Y-116523809D01*
X82238095Y-116380952D01*
X82285714Y-116190476D01*
X82333333Y-116095238D01*
X82428571Y-116000000D01*
X82571428Y-115952380D01*
X82666666Y-115952380D01*
X82809523Y-116000000D01*
X82857142Y-116047619D01*
X83809523Y-116952380D02*
X83238095Y-116952380D01*
X83523809Y-116952380D02*
X83523809Y-115952380D01*
X83428571Y-116095238D01*
X83333333Y-116190476D01*
X83238095Y-116238095D01*
X84190476Y-116047619D02*
X84238095Y-116000000D01*
X84333333Y-115952380D01*
X84571428Y-115952380D01*
X84666666Y-116000000D01*
X84714285Y-116047619D01*
X84761904Y-116142857D01*
X84761904Y-116238095D01*
X84714285Y-116380952D01*
X84142857Y-116952380D01*
X84761904Y-116952380D01*
G04 #@! TO.C,R15*
X76607142Y-116952380D02*
X76273809Y-116476190D01*
X76035714Y-116952380D02*
X76035714Y-115952380D01*
X76416666Y-115952380D01*
X76511904Y-116000000D01*
X76559523Y-116047619D01*
X76607142Y-116142857D01*
X76607142Y-116285714D01*
X76559523Y-116380952D01*
X76511904Y-116428571D01*
X76416666Y-116476190D01*
X76035714Y-116476190D01*
X77559523Y-116952380D02*
X76988095Y-116952380D01*
X77273809Y-116952380D02*
X77273809Y-115952380D01*
X77178571Y-116095238D01*
X77083333Y-116190476D01*
X76988095Y-116238095D01*
X78464285Y-115952380D02*
X77988095Y-115952380D01*
X77940476Y-116428571D01*
X77988095Y-116380952D01*
X78083333Y-116333333D01*
X78321428Y-116333333D01*
X78416666Y-116380952D01*
X78464285Y-116428571D01*
X78511904Y-116523809D01*
X78511904Y-116761904D01*
X78464285Y-116857142D01*
X78416666Y-116904761D01*
X78321428Y-116952380D01*
X78083333Y-116952380D01*
X77988095Y-116904761D01*
X77940476Y-116857142D01*
G04 #@! TO.C,C10*
X71607142Y-107857142D02*
X71559523Y-107904761D01*
X71416666Y-107952380D01*
X71321428Y-107952380D01*
X71178571Y-107904761D01*
X71083333Y-107809523D01*
X71035714Y-107714285D01*
X70988095Y-107523809D01*
X70988095Y-107380952D01*
X71035714Y-107190476D01*
X71083333Y-107095238D01*
X71178571Y-107000000D01*
X71321428Y-106952380D01*
X71416666Y-106952380D01*
X71559523Y-107000000D01*
X71607142Y-107047619D01*
X72559523Y-107952380D02*
X71988095Y-107952380D01*
X72273809Y-107952380D02*
X72273809Y-106952380D01*
X72178571Y-107095238D01*
X72083333Y-107190476D01*
X71988095Y-107238095D01*
X73178571Y-106952380D02*
X73273809Y-106952380D01*
X73369047Y-107000000D01*
X73416666Y-107047619D01*
X73464285Y-107142857D01*
X73511904Y-107333333D01*
X73511904Y-107571428D01*
X73464285Y-107761904D01*
X73416666Y-107857142D01*
X73369047Y-107904761D01*
X73273809Y-107952380D01*
X73178571Y-107952380D01*
X73083333Y-107904761D01*
X73035714Y-107857142D01*
X72988095Y-107761904D01*
X72940476Y-107571428D01*
X72940476Y-107333333D01*
X72988095Y-107142857D01*
X73035714Y-107047619D01*
X73083333Y-107000000D01*
X73178571Y-106952380D01*
G04 #@! TO.C,R19*
X64107142Y-110202380D02*
X63773809Y-109726190D01*
X63535714Y-110202380D02*
X63535714Y-109202380D01*
X63916666Y-109202380D01*
X64011904Y-109250000D01*
X64059523Y-109297619D01*
X64107142Y-109392857D01*
X64107142Y-109535714D01*
X64059523Y-109630952D01*
X64011904Y-109678571D01*
X63916666Y-109726190D01*
X63535714Y-109726190D01*
X65059523Y-110202380D02*
X64488095Y-110202380D01*
X64773809Y-110202380D02*
X64773809Y-109202380D01*
X64678571Y-109345238D01*
X64583333Y-109440476D01*
X64488095Y-109488095D01*
X65535714Y-110202380D02*
X65726190Y-110202380D01*
X65821428Y-110154761D01*
X65869047Y-110107142D01*
X65964285Y-109964285D01*
X66011904Y-109773809D01*
X66011904Y-109392857D01*
X65964285Y-109297619D01*
X65916666Y-109250000D01*
X65821428Y-109202380D01*
X65630952Y-109202380D01*
X65535714Y-109250000D01*
X65488095Y-109297619D01*
X65440476Y-109392857D01*
X65440476Y-109630952D01*
X65488095Y-109726190D01*
X65535714Y-109773809D01*
X65630952Y-109821428D01*
X65821428Y-109821428D01*
X65916666Y-109773809D01*
X65964285Y-109726190D01*
X66011904Y-109630952D01*
G04 #@! TO.C,R27*
X71607142Y-106452380D02*
X71273809Y-105976190D01*
X71035714Y-106452380D02*
X71035714Y-105452380D01*
X71416666Y-105452380D01*
X71511904Y-105500000D01*
X71559523Y-105547619D01*
X71607142Y-105642857D01*
X71607142Y-105785714D01*
X71559523Y-105880952D01*
X71511904Y-105928571D01*
X71416666Y-105976190D01*
X71035714Y-105976190D01*
X71988095Y-105547619D02*
X72035714Y-105500000D01*
X72130952Y-105452380D01*
X72369047Y-105452380D01*
X72464285Y-105500000D01*
X72511904Y-105547619D01*
X72559523Y-105642857D01*
X72559523Y-105738095D01*
X72511904Y-105880952D01*
X71940476Y-106452380D01*
X72559523Y-106452380D01*
X72892857Y-105452380D02*
X73559523Y-105452380D01*
X73130952Y-106452380D01*
G04 #@! TO.C,C6*
X83083333Y-119677142D02*
X83035714Y-119724761D01*
X82892857Y-119772380D01*
X82797619Y-119772380D01*
X82654761Y-119724761D01*
X82559523Y-119629523D01*
X82511904Y-119534285D01*
X82464285Y-119343809D01*
X82464285Y-119200952D01*
X82511904Y-119010476D01*
X82559523Y-118915238D01*
X82654761Y-118820000D01*
X82797619Y-118772380D01*
X82892857Y-118772380D01*
X83035714Y-118820000D01*
X83083333Y-118867619D01*
X83940476Y-118772380D02*
X83750000Y-118772380D01*
X83654761Y-118820000D01*
X83607142Y-118867619D01*
X83511904Y-119010476D01*
X83464285Y-119200952D01*
X83464285Y-119581904D01*
X83511904Y-119677142D01*
X83559523Y-119724761D01*
X83654761Y-119772380D01*
X83845238Y-119772380D01*
X83940476Y-119724761D01*
X83988095Y-119677142D01*
X84035714Y-119581904D01*
X84035714Y-119343809D01*
X83988095Y-119248571D01*
X83940476Y-119200952D01*
X83845238Y-119153333D01*
X83654761Y-119153333D01*
X83559523Y-119200952D01*
X83511904Y-119248571D01*
X83464285Y-119343809D01*
G04 #@! TO.C,R20*
X65607142Y-108202380D02*
X65273809Y-107726190D01*
X65035714Y-108202380D02*
X65035714Y-107202380D01*
X65416666Y-107202380D01*
X65511904Y-107250000D01*
X65559523Y-107297619D01*
X65607142Y-107392857D01*
X65607142Y-107535714D01*
X65559523Y-107630952D01*
X65511904Y-107678571D01*
X65416666Y-107726190D01*
X65035714Y-107726190D01*
X65988095Y-107297619D02*
X66035714Y-107250000D01*
X66130952Y-107202380D01*
X66369047Y-107202380D01*
X66464285Y-107250000D01*
X66511904Y-107297619D01*
X66559523Y-107392857D01*
X66559523Y-107488095D01*
X66511904Y-107630952D01*
X65940476Y-108202380D01*
X66559523Y-108202380D01*
X67178571Y-107202380D02*
X67273809Y-107202380D01*
X67369047Y-107250000D01*
X67416666Y-107297619D01*
X67464285Y-107392857D01*
X67511904Y-107583333D01*
X67511904Y-107821428D01*
X67464285Y-108011904D01*
X67416666Y-108107142D01*
X67369047Y-108154761D01*
X67273809Y-108202380D01*
X67178571Y-108202380D01*
X67083333Y-108154761D01*
X67035714Y-108107142D01*
X66988095Y-108011904D01*
X66940476Y-107821428D01*
X66940476Y-107583333D01*
X66988095Y-107392857D01*
X67035714Y-107297619D01*
X67083333Y-107250000D01*
X67178571Y-107202380D01*
G04 #@! TO.C,U2*
X73738095Y-109452380D02*
X73738095Y-110261904D01*
X73785714Y-110357142D01*
X73833333Y-110404761D01*
X73928571Y-110452380D01*
X74119047Y-110452380D01*
X74214285Y-110404761D01*
X74261904Y-110357142D01*
X74309523Y-110261904D01*
X74309523Y-109452380D01*
X74738095Y-109547619D02*
X74785714Y-109500000D01*
X74880952Y-109452380D01*
X75119047Y-109452380D01*
X75214285Y-109500000D01*
X75261904Y-109547619D01*
X75309523Y-109642857D01*
X75309523Y-109738095D01*
X75261904Y-109880952D01*
X74690476Y-110452380D01*
X75309523Y-110452380D01*
G04 #@! TO.C,U1*
X73738095Y-119702380D02*
X73738095Y-120511904D01*
X73785714Y-120607142D01*
X73833333Y-120654761D01*
X73928571Y-120702380D01*
X74119047Y-120702380D01*
X74214285Y-120654761D01*
X74261904Y-120607142D01*
X74309523Y-120511904D01*
X74309523Y-119702380D01*
X75309523Y-120702380D02*
X74738095Y-120702380D01*
X75023809Y-120702380D02*
X75023809Y-119702380D01*
X74928571Y-119845238D01*
X74833333Y-119940476D01*
X74738095Y-119988095D01*
G04 #@! TO.C,R26*
X77857142Y-128452380D02*
X77523809Y-127976190D01*
X77285714Y-128452380D02*
X77285714Y-127452380D01*
X77666666Y-127452380D01*
X77761904Y-127500000D01*
X77809523Y-127547619D01*
X77857142Y-127642857D01*
X77857142Y-127785714D01*
X77809523Y-127880952D01*
X77761904Y-127928571D01*
X77666666Y-127976190D01*
X77285714Y-127976190D01*
X78238095Y-127547619D02*
X78285714Y-127500000D01*
X78380952Y-127452380D01*
X78619047Y-127452380D01*
X78714285Y-127500000D01*
X78761904Y-127547619D01*
X78809523Y-127642857D01*
X78809523Y-127738095D01*
X78761904Y-127880952D01*
X78190476Y-128452380D01*
X78809523Y-128452380D01*
X79666666Y-127452380D02*
X79476190Y-127452380D01*
X79380952Y-127500000D01*
X79333333Y-127547619D01*
X79238095Y-127690476D01*
X79190476Y-127880952D01*
X79190476Y-128261904D01*
X79238095Y-128357142D01*
X79285714Y-128404761D01*
X79380952Y-128452380D01*
X79571428Y-128452380D01*
X79666666Y-128404761D01*
X79714285Y-128357142D01*
X79761904Y-128261904D01*
X79761904Y-128023809D01*
X79714285Y-127928571D01*
X79666666Y-127880952D01*
X79571428Y-127833333D01*
X79380952Y-127833333D01*
X79285714Y-127880952D01*
X79238095Y-127928571D01*
X79190476Y-128023809D01*
G04 #@! TO.C,R6*
X66333333Y-119452380D02*
X66000000Y-118976190D01*
X65761904Y-119452380D02*
X65761904Y-118452380D01*
X66142857Y-118452380D01*
X66238095Y-118500000D01*
X66285714Y-118547619D01*
X66333333Y-118642857D01*
X66333333Y-118785714D01*
X66285714Y-118880952D01*
X66238095Y-118928571D01*
X66142857Y-118976190D01*
X65761904Y-118976190D01*
X67190476Y-118452380D02*
X67000000Y-118452380D01*
X66904761Y-118500000D01*
X66857142Y-118547619D01*
X66761904Y-118690476D01*
X66714285Y-118880952D01*
X66714285Y-119261904D01*
X66761904Y-119357142D01*
X66809523Y-119404761D01*
X66904761Y-119452380D01*
X67095238Y-119452380D01*
X67190476Y-119404761D01*
X67238095Y-119357142D01*
X67285714Y-119261904D01*
X67285714Y-119023809D01*
X67238095Y-118928571D01*
X67190476Y-118880952D01*
X67095238Y-118833333D01*
X66904761Y-118833333D01*
X66809523Y-118880952D01*
X66761904Y-118928571D01*
X66714285Y-119023809D01*
G04 #@! TO.C,C7*
X64583333Y-111607142D02*
X64535714Y-111654761D01*
X64392857Y-111702380D01*
X64297619Y-111702380D01*
X64154761Y-111654761D01*
X64059523Y-111559523D01*
X64011904Y-111464285D01*
X63964285Y-111273809D01*
X63964285Y-111130952D01*
X64011904Y-110940476D01*
X64059523Y-110845238D01*
X64154761Y-110750000D01*
X64297619Y-110702380D01*
X64392857Y-110702380D01*
X64535714Y-110750000D01*
X64583333Y-110797619D01*
X64916666Y-110702380D02*
X65583333Y-110702380D01*
X65154761Y-111702380D01*
G04 #@! TO.C,C11*
X79107142Y-130357142D02*
X79059523Y-130404761D01*
X78916666Y-130452380D01*
X78821428Y-130452380D01*
X78678571Y-130404761D01*
X78583333Y-130309523D01*
X78535714Y-130214285D01*
X78488095Y-130023809D01*
X78488095Y-129880952D01*
X78535714Y-129690476D01*
X78583333Y-129595238D01*
X78678571Y-129500000D01*
X78821428Y-129452380D01*
X78916666Y-129452380D01*
X79059523Y-129500000D01*
X79107142Y-129547619D01*
X80059523Y-130452380D02*
X79488095Y-130452380D01*
X79773809Y-130452380D02*
X79773809Y-129452380D01*
X79678571Y-129595238D01*
X79583333Y-129690476D01*
X79488095Y-129738095D01*
X81011904Y-130452380D02*
X80440476Y-130452380D01*
X80726190Y-130452380D02*
X80726190Y-129452380D01*
X80630952Y-129595238D01*
X80535714Y-129690476D01*
X80440476Y-129738095D01*
G04 #@! TO.C,R10*
X73857142Y-118702380D02*
X73523809Y-118226190D01*
X73285714Y-118702380D02*
X73285714Y-117702380D01*
X73666666Y-117702380D01*
X73761904Y-117750000D01*
X73809523Y-117797619D01*
X73857142Y-117892857D01*
X73857142Y-118035714D01*
X73809523Y-118130952D01*
X73761904Y-118178571D01*
X73666666Y-118226190D01*
X73285714Y-118226190D01*
X74809523Y-118702380D02*
X74238095Y-118702380D01*
X74523809Y-118702380D02*
X74523809Y-117702380D01*
X74428571Y-117845238D01*
X74333333Y-117940476D01*
X74238095Y-117988095D01*
X75428571Y-117702380D02*
X75523809Y-117702380D01*
X75619047Y-117750000D01*
X75666666Y-117797619D01*
X75714285Y-117892857D01*
X75761904Y-118083333D01*
X75761904Y-118321428D01*
X75714285Y-118511904D01*
X75666666Y-118607142D01*
X75619047Y-118654761D01*
X75523809Y-118702380D01*
X75428571Y-118702380D01*
X75333333Y-118654761D01*
X75285714Y-118607142D01*
X75238095Y-118511904D01*
X75190476Y-118321428D01*
X75190476Y-118083333D01*
X75238095Y-117892857D01*
X75285714Y-117797619D01*
X75333333Y-117750000D01*
X75428571Y-117702380D01*
G04 #@! TO.C,R12*
X73857142Y-117202380D02*
X73523809Y-116726190D01*
X73285714Y-117202380D02*
X73285714Y-116202380D01*
X73666666Y-116202380D01*
X73761904Y-116250000D01*
X73809523Y-116297619D01*
X73857142Y-116392857D01*
X73857142Y-116535714D01*
X73809523Y-116630952D01*
X73761904Y-116678571D01*
X73666666Y-116726190D01*
X73285714Y-116726190D01*
X74809523Y-117202380D02*
X74238095Y-117202380D01*
X74523809Y-117202380D02*
X74523809Y-116202380D01*
X74428571Y-116345238D01*
X74333333Y-116440476D01*
X74238095Y-116488095D01*
X75190476Y-116297619D02*
X75238095Y-116250000D01*
X75333333Y-116202380D01*
X75571428Y-116202380D01*
X75666666Y-116250000D01*
X75714285Y-116297619D01*
X75761904Y-116392857D01*
X75761904Y-116488095D01*
X75714285Y-116630952D01*
X75142857Y-117202380D01*
X75761904Y-117202380D01*
G04 #@! TO.C,R9*
X77833333Y-126952380D02*
X77500000Y-126476190D01*
X77261904Y-126952380D02*
X77261904Y-125952380D01*
X77642857Y-125952380D01*
X77738095Y-126000000D01*
X77785714Y-126047619D01*
X77833333Y-126142857D01*
X77833333Y-126285714D01*
X77785714Y-126380952D01*
X77738095Y-126428571D01*
X77642857Y-126476190D01*
X77261904Y-126476190D01*
X78309523Y-126952380D02*
X78500000Y-126952380D01*
X78595238Y-126904761D01*
X78642857Y-126857142D01*
X78738095Y-126714285D01*
X78785714Y-126523809D01*
X78785714Y-126142857D01*
X78738095Y-126047619D01*
X78690476Y-126000000D01*
X78595238Y-125952380D01*
X78404761Y-125952380D01*
X78309523Y-126000000D01*
X78261904Y-126047619D01*
X78214285Y-126142857D01*
X78214285Y-126380952D01*
X78261904Y-126476190D01*
X78309523Y-126523809D01*
X78404761Y-126571428D01*
X78595238Y-126571428D01*
X78690476Y-126523809D01*
X78738095Y-126476190D01*
X78785714Y-126380952D01*
G04 #@! TO.C,R3*
X66333333Y-123952380D02*
X66000000Y-123476190D01*
X65761904Y-123952380D02*
X65761904Y-122952380D01*
X66142857Y-122952380D01*
X66238095Y-123000000D01*
X66285714Y-123047619D01*
X66333333Y-123142857D01*
X66333333Y-123285714D01*
X66285714Y-123380952D01*
X66238095Y-123428571D01*
X66142857Y-123476190D01*
X65761904Y-123476190D01*
X66666666Y-122952380D02*
X67285714Y-122952380D01*
X66952380Y-123333333D01*
X67095238Y-123333333D01*
X67190476Y-123380952D01*
X67238095Y-123428571D01*
X67285714Y-123523809D01*
X67285714Y-123761904D01*
X67238095Y-123857142D01*
X67190476Y-123904761D01*
X67095238Y-123952380D01*
X66809523Y-123952380D01*
X66714285Y-123904761D01*
X66666666Y-123857142D01*
G04 #@! TO.C,R1*
X65833333Y-128702380D02*
X65500000Y-128226190D01*
X65261904Y-128702380D02*
X65261904Y-127702380D01*
X65642857Y-127702380D01*
X65738095Y-127750000D01*
X65785714Y-127797619D01*
X65833333Y-127892857D01*
X65833333Y-128035714D01*
X65785714Y-128130952D01*
X65738095Y-128178571D01*
X65642857Y-128226190D01*
X65261904Y-128226190D01*
X66785714Y-128702380D02*
X66214285Y-128702380D01*
X66500000Y-128702380D02*
X66500000Y-127702380D01*
X66404761Y-127845238D01*
X66309523Y-127940476D01*
X66214285Y-127988095D01*
G04 #@! TO.C,R24*
X83838392Y-103702380D02*
X83505059Y-103226190D01*
X83266964Y-103702380D02*
X83266964Y-102702380D01*
X83647916Y-102702380D01*
X83743154Y-102750000D01*
X83790773Y-102797619D01*
X83838392Y-102892857D01*
X83838392Y-103035714D01*
X83790773Y-103130952D01*
X83743154Y-103178571D01*
X83647916Y-103226190D01*
X83266964Y-103226190D01*
X84219345Y-102797619D02*
X84266964Y-102750000D01*
X84362202Y-102702380D01*
X84600297Y-102702380D01*
X84695535Y-102750000D01*
X84743154Y-102797619D01*
X84790773Y-102892857D01*
X84790773Y-102988095D01*
X84743154Y-103130952D01*
X84171726Y-103702380D01*
X84790773Y-103702380D01*
X85647916Y-103035714D02*
X85647916Y-103702380D01*
X85409821Y-102654761D02*
X85171726Y-103369047D01*
X85790773Y-103369047D01*
G04 #@! TO.C,R17*
X64107142Y-113202380D02*
X63773809Y-112726190D01*
X63535714Y-113202380D02*
X63535714Y-112202380D01*
X63916666Y-112202380D01*
X64011904Y-112250000D01*
X64059523Y-112297619D01*
X64107142Y-112392857D01*
X64107142Y-112535714D01*
X64059523Y-112630952D01*
X64011904Y-112678571D01*
X63916666Y-112726190D01*
X63535714Y-112726190D01*
X65059523Y-113202380D02*
X64488095Y-113202380D01*
X64773809Y-113202380D02*
X64773809Y-112202380D01*
X64678571Y-112345238D01*
X64583333Y-112440476D01*
X64488095Y-112488095D01*
X65392857Y-112202380D02*
X66059523Y-112202380D01*
X65630952Y-113202380D01*
G04 #@! TO.C,R4*
X66333333Y-122452380D02*
X66000000Y-121976190D01*
X65761904Y-122452380D02*
X65761904Y-121452380D01*
X66142857Y-121452380D01*
X66238095Y-121500000D01*
X66285714Y-121547619D01*
X66333333Y-121642857D01*
X66333333Y-121785714D01*
X66285714Y-121880952D01*
X66238095Y-121928571D01*
X66142857Y-121976190D01*
X65761904Y-121976190D01*
X67190476Y-121785714D02*
X67190476Y-122452380D01*
X66952380Y-121404761D02*
X66714285Y-122119047D01*
X67333333Y-122119047D01*
G04 #@! TO.C,Q2*
X65154761Y-114797619D02*
X65059523Y-114750000D01*
X64964285Y-114654761D01*
X64821428Y-114511904D01*
X64726190Y-114464285D01*
X64630952Y-114464285D01*
X64678571Y-114702380D02*
X64583333Y-114654761D01*
X64488095Y-114559523D01*
X64440476Y-114369047D01*
X64440476Y-114035714D01*
X64488095Y-113845238D01*
X64583333Y-113750000D01*
X64678571Y-113702380D01*
X64869047Y-113702380D01*
X64964285Y-113750000D01*
X65059523Y-113845238D01*
X65107142Y-114035714D01*
X65107142Y-114369047D01*
X65059523Y-114559523D01*
X64964285Y-114654761D01*
X64869047Y-114702380D01*
X64678571Y-114702380D01*
X65488095Y-113797619D02*
X65535714Y-113750000D01*
X65630952Y-113702380D01*
X65869047Y-113702380D01*
X65964285Y-113750000D01*
X66011904Y-113797619D01*
X66059523Y-113892857D01*
X66059523Y-113988095D01*
X66011904Y-114130952D01*
X65440476Y-114702380D01*
X66059523Y-114702380D01*
G04 #@! TO.C,D2*
X63952380Y-124805595D02*
X62952380Y-124805595D01*
X62952380Y-124567500D01*
X63000000Y-124424642D01*
X63095238Y-124329404D01*
X63190476Y-124281785D01*
X63380952Y-124234166D01*
X63523809Y-124234166D01*
X63714285Y-124281785D01*
X63809523Y-124329404D01*
X63904761Y-124424642D01*
X63952380Y-124567500D01*
X63952380Y-124805595D01*
X63047619Y-123853214D02*
X63000000Y-123805595D01*
X62952380Y-123710357D01*
X62952380Y-123472261D01*
X63000000Y-123377023D01*
X63047619Y-123329404D01*
X63142857Y-123281785D01*
X63238095Y-123281785D01*
X63380952Y-123329404D01*
X63952380Y-123900833D01*
X63952380Y-123281785D01*
G04 #@! TO.C,C1*
X66333333Y-125357142D02*
X66285714Y-125404761D01*
X66142857Y-125452380D01*
X66047619Y-125452380D01*
X65904761Y-125404761D01*
X65809523Y-125309523D01*
X65761904Y-125214285D01*
X65714285Y-125023809D01*
X65714285Y-124880952D01*
X65761904Y-124690476D01*
X65809523Y-124595238D01*
X65904761Y-124500000D01*
X66047619Y-124452380D01*
X66142857Y-124452380D01*
X66285714Y-124500000D01*
X66333333Y-124547619D01*
X67285714Y-125452380D02*
X66714285Y-125452380D01*
X67000000Y-125452380D02*
X67000000Y-124452380D01*
X66904761Y-124595238D01*
X66809523Y-124690476D01*
X66714285Y-124738095D01*
G04 #@! TO.C,R23*
X78857142Y-111952380D02*
X78523809Y-111476190D01*
X78285714Y-111952380D02*
X78285714Y-110952380D01*
X78666666Y-110952380D01*
X78761904Y-111000000D01*
X78809523Y-111047619D01*
X78857142Y-111142857D01*
X78857142Y-111285714D01*
X78809523Y-111380952D01*
X78761904Y-111428571D01*
X78666666Y-111476190D01*
X78285714Y-111476190D01*
X79238095Y-111047619D02*
X79285714Y-111000000D01*
X79380952Y-110952380D01*
X79619047Y-110952380D01*
X79714285Y-111000000D01*
X79761904Y-111047619D01*
X79809523Y-111142857D01*
X79809523Y-111238095D01*
X79761904Y-111380952D01*
X79190476Y-111952380D01*
X79809523Y-111952380D01*
X80142857Y-110952380D02*
X80761904Y-110952380D01*
X80428571Y-111333333D01*
X80571428Y-111333333D01*
X80666666Y-111380952D01*
X80714285Y-111428571D01*
X80761904Y-111523809D01*
X80761904Y-111761904D01*
X80714285Y-111857142D01*
X80666666Y-111904761D01*
X80571428Y-111952380D01*
X80285714Y-111952380D01*
X80190476Y-111904761D01*
X80142857Y-111857142D01*
G04 #@! TO.C,R8*
X77333333Y-121202380D02*
X77000000Y-120726190D01*
X76761904Y-121202380D02*
X76761904Y-120202380D01*
X77142857Y-120202380D01*
X77238095Y-120250000D01*
X77285714Y-120297619D01*
X77333333Y-120392857D01*
X77333333Y-120535714D01*
X77285714Y-120630952D01*
X77238095Y-120678571D01*
X77142857Y-120726190D01*
X76761904Y-120726190D01*
X77904761Y-120630952D02*
X77809523Y-120583333D01*
X77761904Y-120535714D01*
X77714285Y-120440476D01*
X77714285Y-120392857D01*
X77761904Y-120297619D01*
X77809523Y-120250000D01*
X77904761Y-120202380D01*
X78095238Y-120202380D01*
X78190476Y-120250000D01*
X78238095Y-120297619D01*
X78285714Y-120392857D01*
X78285714Y-120440476D01*
X78238095Y-120535714D01*
X78190476Y-120583333D01*
X78095238Y-120630952D01*
X77904761Y-120630952D01*
X77809523Y-120678571D01*
X77761904Y-120726190D01*
X77714285Y-120821428D01*
X77714285Y-121011904D01*
X77761904Y-121107142D01*
X77809523Y-121154761D01*
X77904761Y-121202380D01*
X78095238Y-121202380D01*
X78190476Y-121154761D01*
X78238095Y-121107142D01*
X78285714Y-121011904D01*
X78285714Y-120821428D01*
X78238095Y-120726190D01*
X78190476Y-120678571D01*
X78095238Y-120630952D01*
G04 #@! TO.C,R11*
X85107142Y-114702380D02*
X84773809Y-114226190D01*
X84535714Y-114702380D02*
X84535714Y-113702380D01*
X84916666Y-113702380D01*
X85011904Y-113750000D01*
X85059523Y-113797619D01*
X85107142Y-113892857D01*
X85107142Y-114035714D01*
X85059523Y-114130952D01*
X85011904Y-114178571D01*
X84916666Y-114226190D01*
X84535714Y-114226190D01*
X86059523Y-114702380D02*
X85488095Y-114702380D01*
X85773809Y-114702380D02*
X85773809Y-113702380D01*
X85678571Y-113845238D01*
X85583333Y-113940476D01*
X85488095Y-113988095D01*
X87011904Y-114702380D02*
X86440476Y-114702380D01*
X86726190Y-114702380D02*
X86726190Y-113702380D01*
X86630952Y-113845238D01*
X86535714Y-113940476D01*
X86440476Y-113988095D01*
G04 #@! TO.C,R14*
X79107142Y-101202380D02*
X78773809Y-100726190D01*
X78535714Y-101202380D02*
X78535714Y-100202380D01*
X78916666Y-100202380D01*
X79011904Y-100250000D01*
X79059523Y-100297619D01*
X79107142Y-100392857D01*
X79107142Y-100535714D01*
X79059523Y-100630952D01*
X79011904Y-100678571D01*
X78916666Y-100726190D01*
X78535714Y-100726190D01*
X80059523Y-101202380D02*
X79488095Y-101202380D01*
X79773809Y-101202380D02*
X79773809Y-100202380D01*
X79678571Y-100345238D01*
X79583333Y-100440476D01*
X79488095Y-100488095D01*
X80916666Y-100535714D02*
X80916666Y-101202380D01*
X80678571Y-100154761D02*
X80440476Y-100869047D01*
X81059523Y-100869047D01*
G04 #@! TO.C,R25*
X77607142Y-106452380D02*
X77273809Y-105976190D01*
X77035714Y-106452380D02*
X77035714Y-105452380D01*
X77416666Y-105452380D01*
X77511904Y-105500000D01*
X77559523Y-105547619D01*
X77607142Y-105642857D01*
X77607142Y-105785714D01*
X77559523Y-105880952D01*
X77511904Y-105928571D01*
X77416666Y-105976190D01*
X77035714Y-105976190D01*
X77988095Y-105547619D02*
X78035714Y-105500000D01*
X78130952Y-105452380D01*
X78369047Y-105452380D01*
X78464285Y-105500000D01*
X78511904Y-105547619D01*
X78559523Y-105642857D01*
X78559523Y-105738095D01*
X78511904Y-105880952D01*
X77940476Y-106452380D01*
X78559523Y-106452380D01*
X79464285Y-105452380D02*
X78988095Y-105452380D01*
X78940476Y-105928571D01*
X78988095Y-105880952D01*
X79083333Y-105833333D01*
X79321428Y-105833333D01*
X79416666Y-105880952D01*
X79464285Y-105928571D01*
X79511904Y-106023809D01*
X79511904Y-106261904D01*
X79464285Y-106357142D01*
X79416666Y-106404761D01*
X79321428Y-106452380D01*
X79083333Y-106452380D01*
X78988095Y-106404761D01*
X78940476Y-106357142D01*
G04 #@! TO.C,R2*
X77583333Y-114702380D02*
X77250000Y-114226190D01*
X77011904Y-114702380D02*
X77011904Y-113702380D01*
X77392857Y-113702380D01*
X77488095Y-113750000D01*
X77535714Y-113797619D01*
X77583333Y-113892857D01*
X77583333Y-114035714D01*
X77535714Y-114130952D01*
X77488095Y-114178571D01*
X77392857Y-114226190D01*
X77011904Y-114226190D01*
X77964285Y-113797619D02*
X78011904Y-113750000D01*
X78107142Y-113702380D01*
X78345238Y-113702380D01*
X78440476Y-113750000D01*
X78488095Y-113797619D01*
X78535714Y-113892857D01*
X78535714Y-113988095D01*
X78488095Y-114130952D01*
X77916666Y-114702380D01*
X78535714Y-114702380D01*
G04 #@! TO.C,D1*
X61202380Y-124805595D02*
X60202380Y-124805595D01*
X60202380Y-124567500D01*
X60250000Y-124424642D01*
X60345238Y-124329404D01*
X60440476Y-124281785D01*
X60630952Y-124234166D01*
X60773809Y-124234166D01*
X60964285Y-124281785D01*
X61059523Y-124329404D01*
X61154761Y-124424642D01*
X61202380Y-124567500D01*
X61202380Y-124805595D01*
X61202380Y-123281785D02*
X61202380Y-123853214D01*
X61202380Y-123567500D02*
X60202380Y-123567500D01*
X60345238Y-123662738D01*
X60440476Y-123757976D01*
X60488095Y-123853214D01*
G04 #@! TO.C,R16*
X73857142Y-115702380D02*
X73523809Y-115226190D01*
X73285714Y-115702380D02*
X73285714Y-114702380D01*
X73666666Y-114702380D01*
X73761904Y-114750000D01*
X73809523Y-114797619D01*
X73857142Y-114892857D01*
X73857142Y-115035714D01*
X73809523Y-115130952D01*
X73761904Y-115178571D01*
X73666666Y-115226190D01*
X73285714Y-115226190D01*
X74809523Y-115702380D02*
X74238095Y-115702380D01*
X74523809Y-115702380D02*
X74523809Y-114702380D01*
X74428571Y-114845238D01*
X74333333Y-114940476D01*
X74238095Y-114988095D01*
X75666666Y-114702380D02*
X75476190Y-114702380D01*
X75380952Y-114750000D01*
X75333333Y-114797619D01*
X75238095Y-114940476D01*
X75190476Y-115130952D01*
X75190476Y-115511904D01*
X75238095Y-115607142D01*
X75285714Y-115654761D01*
X75380952Y-115702380D01*
X75571428Y-115702380D01*
X75666666Y-115654761D01*
X75714285Y-115607142D01*
X75761904Y-115511904D01*
X75761904Y-115273809D01*
X75714285Y-115178571D01*
X75666666Y-115130952D01*
X75571428Y-115083333D01*
X75380952Y-115083333D01*
X75285714Y-115130952D01*
X75238095Y-115178571D01*
X75190476Y-115273809D01*
G04 #@! TO.C,R7*
X77333333Y-119702380D02*
X77000000Y-119226190D01*
X76761904Y-119702380D02*
X76761904Y-118702380D01*
X77142857Y-118702380D01*
X77238095Y-118750000D01*
X77285714Y-118797619D01*
X77333333Y-118892857D01*
X77333333Y-119035714D01*
X77285714Y-119130952D01*
X77238095Y-119178571D01*
X77142857Y-119226190D01*
X76761904Y-119226190D01*
X77666666Y-118702380D02*
X78333333Y-118702380D01*
X77904761Y-119702380D01*
D14*
G04 #@! TO.C,SW1*
X84157540Y-126009546D02*
X84194310Y-125899238D01*
X84194310Y-125715390D01*
X84157540Y-125641851D01*
X84120771Y-125605081D01*
X84047232Y-125568312D01*
X83973693Y-125568312D01*
X83900154Y-125605081D01*
X83863384Y-125641851D01*
X83826615Y-125715390D01*
X83789845Y-125862468D01*
X83753076Y-125936007D01*
X83716306Y-125972777D01*
X83642767Y-126009546D01*
X83569228Y-126009546D01*
X83495689Y-125972777D01*
X83458920Y-125936007D01*
X83422150Y-125862468D01*
X83422150Y-125678620D01*
X83458920Y-125568312D01*
X83422150Y-125310925D02*
X84194310Y-125127078D01*
X83642767Y-124980000D01*
X84194310Y-124832921D01*
X83422150Y-124649074D01*
X84194310Y-123950453D02*
X84194310Y-124391687D01*
X84194310Y-124171070D02*
X83422150Y-124171070D01*
X83532459Y-124244609D01*
X83605998Y-124318148D01*
X83642767Y-124391687D01*
D15*
X84273655Y-132108691D02*
X84273655Y-132329308D01*
X84273655Y-132219000D02*
X83887575Y-132219000D01*
X83942729Y-132255769D01*
X83979499Y-132292539D01*
X83997883Y-132329308D01*
X83887575Y-117667460D02*
X83887575Y-117741000D01*
X83905960Y-117777769D01*
X83924344Y-117796154D01*
X83979499Y-117832923D01*
X84053038Y-117851308D01*
X84200116Y-117851308D01*
X84236885Y-117832923D01*
X84255270Y-117814539D01*
X84273655Y-117777769D01*
X84273655Y-117704230D01*
X84255270Y-117667460D01*
X84236885Y-117649076D01*
X84200116Y-117630691D01*
X84108192Y-117630691D01*
X84071422Y-117649076D01*
X84053038Y-117667460D01*
X84034653Y-117704230D01*
X84034653Y-117777769D01*
X84053038Y-117814539D01*
X84071422Y-117832923D01*
X84108192Y-117851308D01*
D13*
G04 #@! TO.C,Q1*
X81154761Y-124547619D02*
X81059523Y-124500000D01*
X80964285Y-124404761D01*
X80821428Y-124261904D01*
X80726190Y-124214285D01*
X80630952Y-124214285D01*
X80678571Y-124452380D02*
X80583333Y-124404761D01*
X80488095Y-124309523D01*
X80440476Y-124119047D01*
X80440476Y-123785714D01*
X80488095Y-123595238D01*
X80583333Y-123500000D01*
X80678571Y-123452380D01*
X80869047Y-123452380D01*
X80964285Y-123500000D01*
X81059523Y-123595238D01*
X81107142Y-123785714D01*
X81107142Y-124119047D01*
X81059523Y-124309523D01*
X80964285Y-124404761D01*
X80869047Y-124452380D01*
X80678571Y-124452380D01*
X82059523Y-124452380D02*
X81488095Y-124452380D01*
X81773809Y-124452380D02*
X81773809Y-123452380D01*
X81678571Y-123595238D01*
X81583333Y-123690476D01*
X81488095Y-123738095D01*
G04 #@! TO.C,J1*
X71120476Y-129195000D02*
X71044285Y-129156904D01*
X70930000Y-129156904D01*
X70815714Y-129195000D01*
X70739523Y-129271190D01*
X70701428Y-129347380D01*
X70663333Y-129499761D01*
X70663333Y-129614047D01*
X70701428Y-129766428D01*
X70739523Y-129842619D01*
X70815714Y-129918809D01*
X70930000Y-129956904D01*
X71006190Y-129956904D01*
X71120476Y-129918809D01*
X71158571Y-129880714D01*
X71158571Y-129614047D01*
X71006190Y-129614047D01*
X71501428Y-129956904D02*
X71501428Y-129156904D01*
X71958571Y-129956904D01*
X71958571Y-129156904D01*
X72339523Y-129956904D02*
X72339523Y-129156904D01*
X72530000Y-129156904D01*
X72644285Y-129195000D01*
X72720476Y-129271190D01*
X72758571Y-129347380D01*
X72796666Y-129499761D01*
X72796666Y-129614047D01*
X72758571Y-129766428D01*
X72720476Y-129842619D01*
X72644285Y-129918809D01*
X72530000Y-129956904D01*
X72339523Y-129956904D01*
X76010000Y-129156904D02*
X76162380Y-129156904D01*
X76238571Y-129195000D01*
X76314761Y-129271190D01*
X76352857Y-129423571D01*
X76352857Y-129690238D01*
X76314761Y-129842619D01*
X76238571Y-129918809D01*
X76162380Y-129956904D01*
X76010000Y-129956904D01*
X75933809Y-129918809D01*
X75857619Y-129842619D01*
X75819523Y-129690238D01*
X75819523Y-129423571D01*
X75857619Y-129271190D01*
X75933809Y-129195000D01*
X76010000Y-129156904D01*
X76695714Y-129156904D02*
X76695714Y-129804523D01*
X76733809Y-129880714D01*
X76771904Y-129918809D01*
X76848095Y-129956904D01*
X77000476Y-129956904D01*
X77076666Y-129918809D01*
X77114761Y-129880714D01*
X77152857Y-129804523D01*
X77152857Y-129156904D01*
X77419523Y-129156904D02*
X77876666Y-129156904D01*
X77648095Y-129956904D02*
X77648095Y-129156904D01*
X68770952Y-129956904D02*
X68770952Y-129156904D01*
X69151904Y-129956904D02*
X69151904Y-129156904D01*
X69609047Y-129956904D01*
X69609047Y-129156904D01*
X73622380Y-129652142D02*
X74231904Y-129652142D01*
X73927142Y-129956904D02*
X73927142Y-129347380D01*
X74498571Y-129156904D02*
X74765238Y-129956904D01*
X75031904Y-129156904D01*
G04 #@! TO.C,C4*
X78833333Y-122857142D02*
X78785714Y-122904761D01*
X78642857Y-122952380D01*
X78547619Y-122952380D01*
X78404761Y-122904761D01*
X78309523Y-122809523D01*
X78261904Y-122714285D01*
X78214285Y-122523809D01*
X78214285Y-122380952D01*
X78261904Y-122190476D01*
X78309523Y-122095238D01*
X78404761Y-122000000D01*
X78547619Y-121952380D01*
X78642857Y-121952380D01*
X78785714Y-122000000D01*
X78833333Y-122047619D01*
X79690476Y-122285714D02*
X79690476Y-122952380D01*
X79452380Y-121904761D02*
X79214285Y-122619047D01*
X79833333Y-122619047D01*
G04 #@! TO.C,C9*
X70083333Y-128357142D02*
X70035714Y-128404761D01*
X69892857Y-128452380D01*
X69797619Y-128452380D01*
X69654761Y-128404761D01*
X69559523Y-128309523D01*
X69511904Y-128214285D01*
X69464285Y-128023809D01*
X69464285Y-127880952D01*
X69511904Y-127690476D01*
X69559523Y-127595238D01*
X69654761Y-127500000D01*
X69797619Y-127452380D01*
X69892857Y-127452380D01*
X70035714Y-127500000D01*
X70083333Y-127547619D01*
X70559523Y-128452380D02*
X70750000Y-128452380D01*
X70845238Y-128404761D01*
X70892857Y-128357142D01*
X70988095Y-128214285D01*
X71035714Y-128023809D01*
X71035714Y-127642857D01*
X70988095Y-127547619D01*
X70940476Y-127500000D01*
X70845238Y-127452380D01*
X70654761Y-127452380D01*
X70559523Y-127500000D01*
X70511904Y-127547619D01*
X70464285Y-127642857D01*
X70464285Y-127880952D01*
X70511904Y-127976190D01*
X70559523Y-128023809D01*
X70654761Y-128071428D01*
X70845238Y-128071428D01*
X70940476Y-128023809D01*
X70988095Y-127976190D01*
X71035714Y-127880952D01*
G04 #@! TO.C,C8*
X60333333Y-103857142D02*
X60285714Y-103904761D01*
X60142857Y-103952380D01*
X60047619Y-103952380D01*
X59904761Y-103904761D01*
X59809523Y-103809523D01*
X59761904Y-103714285D01*
X59714285Y-103523809D01*
X59714285Y-103380952D01*
X59761904Y-103190476D01*
X59809523Y-103095238D01*
X59904761Y-103000000D01*
X60047619Y-102952380D01*
X60142857Y-102952380D01*
X60285714Y-103000000D01*
X60333333Y-103047619D01*
X60904761Y-103380952D02*
X60809523Y-103333333D01*
X60761904Y-103285714D01*
X60714285Y-103190476D01*
X60714285Y-103142857D01*
X60761904Y-103047619D01*
X60809523Y-103000000D01*
X60904761Y-102952380D01*
X61095238Y-102952380D01*
X61190476Y-103000000D01*
X61238095Y-103047619D01*
X61285714Y-103142857D01*
X61285714Y-103190476D01*
X61238095Y-103285714D01*
X61190476Y-103333333D01*
X61095238Y-103380952D01*
X60904761Y-103380952D01*
X60809523Y-103428571D01*
X60761904Y-103476190D01*
X60714285Y-103571428D01*
X60714285Y-103761904D01*
X60761904Y-103857142D01*
X60809523Y-103904761D01*
X60904761Y-103952380D01*
X61095238Y-103952380D01*
X61190476Y-103904761D01*
X61238095Y-103857142D01*
X61285714Y-103761904D01*
X61285714Y-103571428D01*
X61238095Y-103476190D01*
X61190476Y-103428571D01*
X61095238Y-103380952D01*
G04 #@! TO.C,RV1*
X83904761Y-105785380D02*
X83571428Y-105309190D01*
X83333333Y-105785380D02*
X83333333Y-104785380D01*
X83714285Y-104785380D01*
X83809523Y-104833000D01*
X83857142Y-104880619D01*
X83904761Y-104975857D01*
X83904761Y-105118714D01*
X83857142Y-105213952D01*
X83809523Y-105261571D01*
X83714285Y-105309190D01*
X83333333Y-105309190D01*
X84190476Y-104785380D02*
X84523809Y-105785380D01*
X84857142Y-104785380D01*
X85714285Y-105785380D02*
X85142857Y-105785380D01*
X85428571Y-105785380D02*
X85428571Y-104785380D01*
X85333333Y-104928238D01*
X85238095Y-105023476D01*
X85142857Y-105071095D01*
D16*
X86565320Y-110113038D02*
X86013777Y-110113038D01*
X86289548Y-110113038D02*
X86289548Y-109147838D01*
X86197625Y-109285723D01*
X86105701Y-109377647D01*
X86013777Y-109423609D01*
D17*
G04 #@! TO.C,R13*
X80162779Y-118260000D02*
X79837221Y-118260000D01*
X80162779Y-117240000D02*
X79837221Y-117240000D01*
G04 #@! TO.C,R18*
X82837221Y-112240000D02*
X83162779Y-112240000D01*
X82837221Y-113260000D02*
X83162779Y-113260000D01*
G04 #@! TO.C,R5*
X69162779Y-119990000D02*
X68837221Y-119990000D01*
X69162779Y-121010000D02*
X68837221Y-121010000D01*
G04 #@! TO.C,R22*
X68837221Y-105490000D02*
X69162779Y-105490000D01*
X68837221Y-106510000D02*
X69162779Y-106510000D01*
G04 #@! TO.C,C2*
X63161000Y-116790000D02*
X63161000Y-118060000D01*
X63801000Y-113886000D02*
X63801000Y-114710000D01*
X64201000Y-116790000D02*
X64201000Y-117133000D01*
X62721000Y-113270000D02*
X62721000Y-114710000D01*
X62560000Y-116790000D02*
X62560000Y-118270000D01*
X62320000Y-116790000D02*
X62320000Y-118311000D01*
X64361000Y-114652000D02*
X64361000Y-116848000D01*
X64521000Y-115073000D02*
X64521000Y-116427000D01*
X63361000Y-113550000D02*
X63361000Y-114710000D01*
X63241000Y-116790000D02*
X63241000Y-118018000D01*
X63841000Y-116790000D02*
X63841000Y-117576000D01*
X62440000Y-116790000D02*
X62440000Y-118293000D01*
X62280000Y-116790000D02*
X62280000Y-118315000D01*
X62761000Y-113282000D02*
X62761000Y-114710000D01*
X63001000Y-113368000D02*
X63001000Y-114710000D01*
X64001000Y-116790000D02*
X64001000Y-117403000D01*
X64041000Y-114145000D02*
X64041000Y-114710000D01*
X63201000Y-116790000D02*
X63201000Y-118040000D01*
X62280000Y-113185000D02*
X62280000Y-114710000D01*
X62480000Y-113214000D02*
X62480000Y-114710000D01*
X63681000Y-116790000D02*
X63681000Y-117721000D01*
X63121000Y-113421000D02*
X63121000Y-114710000D01*
X62761000Y-116790000D02*
X62761000Y-118218000D01*
X62040000Y-113170000D02*
X62040000Y-118330000D01*
X64401000Y-114739000D02*
X64401000Y-116761000D01*
X62320000Y-113189000D02*
X62320000Y-114710000D01*
X62400000Y-116790000D02*
X62400000Y-118300000D01*
X62480000Y-116790000D02*
X62480000Y-118286000D01*
X63321000Y-113526000D02*
X63321000Y-114710000D01*
X62961000Y-116790000D02*
X62961000Y-118148000D01*
X63281000Y-113503000D02*
X63281000Y-114710000D01*
X63081000Y-116790000D02*
X63081000Y-118098000D01*
X62961000Y-113352000D02*
X62961000Y-114710000D01*
X63681000Y-113779000D02*
X63681000Y-114710000D01*
X63761000Y-113849000D02*
X63761000Y-114710000D01*
X62921000Y-116790000D02*
X62921000Y-118164000D01*
X63721000Y-113813000D02*
X63721000Y-114710000D01*
X64281000Y-114499000D02*
X64281000Y-114710000D01*
X64321000Y-114572000D02*
X64321000Y-116928000D01*
X62600000Y-116790000D02*
X62600000Y-118261000D01*
X63921000Y-114007000D02*
X63921000Y-114710000D01*
X63561000Y-116790000D02*
X63561000Y-117815000D01*
X63121000Y-116790000D02*
X63121000Y-118079000D01*
X64441000Y-114835000D02*
X64441000Y-116665000D01*
X64081000Y-114196000D02*
X64081000Y-114710000D01*
X62600000Y-113239000D02*
X62600000Y-114710000D01*
X63481000Y-116790000D02*
X63481000Y-117872000D01*
X64481000Y-114945000D02*
X64481000Y-116555000D01*
X63041000Y-116790000D02*
X63041000Y-118115000D01*
X64081000Y-116790000D02*
X64081000Y-117304000D01*
X64041000Y-116790000D02*
X64041000Y-117355000D01*
X63241000Y-113482000D02*
X63241000Y-114710000D01*
X62841000Y-113308000D02*
X62841000Y-114710000D01*
X62360000Y-113194000D02*
X62360000Y-114710000D01*
X62560000Y-113230000D02*
X62560000Y-114710000D01*
X64161000Y-114307000D02*
X64161000Y-114710000D01*
X62640000Y-113249000D02*
X62640000Y-114710000D01*
X63441000Y-113601000D02*
X63441000Y-114710000D01*
X64121000Y-116790000D02*
X64121000Y-117250000D01*
X64561000Y-115232000D02*
X64561000Y-116268000D01*
X63321000Y-116790000D02*
X63321000Y-117974000D01*
X63281000Y-116790000D02*
X63281000Y-117997000D01*
X63641000Y-113746000D02*
X63641000Y-114710000D01*
X63161000Y-113440000D02*
X63161000Y-114710000D01*
X63961000Y-116790000D02*
X63961000Y-117449000D01*
X62160000Y-113174000D02*
X62160000Y-118326000D01*
X64601000Y-115466000D02*
X64601000Y-116034000D01*
X63401000Y-113575000D02*
X63401000Y-114710000D01*
X63441000Y-116790000D02*
X63441000Y-117899000D01*
X63921000Y-116790000D02*
X63921000Y-117493000D01*
X62841000Y-116790000D02*
X62841000Y-118192000D01*
X62240000Y-113181000D02*
X62240000Y-114710000D01*
X63881000Y-116790000D02*
X63881000Y-117535000D01*
X63201000Y-113460000D02*
X63201000Y-114710000D01*
X64281000Y-116790000D02*
X64281000Y-117001000D01*
X62881000Y-113322000D02*
X62881000Y-114710000D01*
X63601000Y-116790000D02*
X63601000Y-117785000D01*
X63561000Y-113685000D02*
X63561000Y-114710000D01*
X62640000Y-116790000D02*
X62640000Y-118251000D01*
X62680000Y-116790000D02*
X62680000Y-118241000D01*
X63841000Y-113924000D02*
X63841000Y-114710000D01*
X62200000Y-113177000D02*
X62200000Y-118323000D01*
X63481000Y-113628000D02*
X63481000Y-114710000D01*
X64161000Y-116790000D02*
X64161000Y-117193000D01*
X63081000Y-113402000D02*
X63081000Y-114710000D01*
X63601000Y-113715000D02*
X63601000Y-114710000D01*
X62921000Y-113336000D02*
X62921000Y-114710000D01*
X63961000Y-114051000D02*
X63961000Y-114710000D01*
X63521000Y-116790000D02*
X63521000Y-117845000D01*
X62080000Y-113171000D02*
X62080000Y-118329000D01*
X62520000Y-113222000D02*
X62520000Y-114710000D01*
X60750000Y-114103000D02*
X60750000Y-114603000D01*
X64001000Y-114097000D02*
X64001000Y-114710000D01*
X62520000Y-116790000D02*
X62520000Y-118278000D01*
X63801000Y-116790000D02*
X63801000Y-117614000D01*
X60500000Y-114353000D02*
X61000000Y-114353000D01*
X64241000Y-116790000D02*
X64241000Y-117069000D01*
X62801000Y-113295000D02*
X62801000Y-114710000D01*
X63041000Y-113385000D02*
X63041000Y-114710000D01*
X63001000Y-116790000D02*
X63001000Y-118132000D01*
X63521000Y-113655000D02*
X63521000Y-114710000D01*
X62680000Y-113259000D02*
X62680000Y-114710000D01*
X62240000Y-116790000D02*
X62240000Y-118319000D01*
X63721000Y-116790000D02*
X63721000Y-117687000D01*
X62881000Y-116790000D02*
X62881000Y-118178000D01*
X64201000Y-114367000D02*
X64201000Y-114710000D01*
X63361000Y-116790000D02*
X63361000Y-117950000D01*
X64121000Y-114250000D02*
X64121000Y-114710000D01*
X64241000Y-114431000D02*
X64241000Y-114710000D01*
X63401000Y-116790000D02*
X63401000Y-117925000D01*
X62000000Y-113170000D02*
X62000000Y-118330000D01*
X63641000Y-116790000D02*
X63641000Y-117754000D01*
X62400000Y-113200000D02*
X62400000Y-114710000D01*
X62360000Y-116790000D02*
X62360000Y-118306000D01*
X62721000Y-116790000D02*
X62721000Y-118230000D01*
X63761000Y-116790000D02*
X63761000Y-117651000D01*
X62440000Y-113207000D02*
X62440000Y-114710000D01*
X62801000Y-116790000D02*
X62801000Y-118205000D01*
X62120000Y-113172000D02*
X62120000Y-118328000D01*
X63881000Y-113965000D02*
X63881000Y-114710000D01*
X64620000Y-115750000D02*
G75*
G03*
X64620000Y-115750000I-2620000J0D01*
G01*
G04 #@! TO.C,R21*
X72587221Y-127010000D02*
X72912779Y-127010000D01*
X72587221Y-125990000D02*
X72912779Y-125990000D01*
G04 #@! TO.C,C5*
X67587221Y-118010000D02*
X67912779Y-118010000D01*
X67587221Y-116990000D02*
X67912779Y-116990000D01*
G04 #@! TO.C,C3*
X82587221Y-132010000D02*
X82912779Y-132010000D01*
X82587221Y-130990000D02*
X82912779Y-130990000D01*
G04 #@! TO.C,C12*
X82837221Y-118260000D02*
X83162779Y-118260000D01*
X82837221Y-117240000D02*
X83162779Y-117240000D01*
G04 #@! TO.C,R15*
X79837221Y-115740000D02*
X80162779Y-115740000D01*
X79837221Y-116760000D02*
X80162779Y-116760000D01*
G04 #@! TO.C,C10*
X74855971Y-106990000D02*
X75181529Y-106990000D01*
X74855971Y-108010000D02*
X75181529Y-108010000D01*
G04 #@! TO.C,R19*
X67912779Y-110010000D02*
X67587221Y-110010000D01*
X67912779Y-108990000D02*
X67587221Y-108990000D01*
G04 #@! TO.C,R27*
X75181529Y-105490000D02*
X74855971Y-105490000D01*
X75181529Y-106510000D02*
X74855971Y-106510000D01*
G04 #@! TO.C,C6*
X82837221Y-121260000D02*
X83162779Y-121260000D01*
X82837221Y-120240000D02*
X83162779Y-120240000D01*
G04 #@! TO.C,R20*
X68855971Y-108010000D02*
X69181529Y-108010000D01*
X68855971Y-106990000D02*
X69181529Y-106990000D01*
G04 #@! TO.C,U2*
X74500000Y-108690000D02*
X76450000Y-108690000D01*
X74500000Y-108690000D02*
X71050000Y-108690000D01*
X74500000Y-113810000D02*
X72550000Y-113810000D01*
X74500000Y-113810000D02*
X76450000Y-113810000D01*
G04 #@! TO.C,U1*
X74500000Y-119190000D02*
X76450000Y-119190000D01*
X74500000Y-124310000D02*
X72550000Y-124310000D01*
X74500000Y-124310000D02*
X76450000Y-124310000D01*
X74500000Y-119190000D02*
X71050000Y-119190000D01*
G04 #@! TO.C,R26*
X75587221Y-127490000D02*
X75912779Y-127490000D01*
X75587221Y-128510000D02*
X75912779Y-128510000D01*
G04 #@! TO.C,R6*
X68837221Y-119510000D02*
X69162779Y-119510000D01*
X68837221Y-118490000D02*
X69162779Y-118490000D01*
G04 #@! TO.C,C7*
X67087221Y-110490000D02*
X67412779Y-110490000D01*
X67087221Y-111510000D02*
X67412779Y-111510000D01*
D10*
G04 #@! TO.C,RV2*
X74274000Y-101726000D02*
X71226000Y-101726000D01*
X66146000Y-101726000D02*
X66146000Y-104774000D01*
X69194000Y-101726000D02*
X66146000Y-101726000D01*
X79354000Y-104774000D02*
X79354000Y-101726000D01*
X69194000Y-104774000D02*
X69194000Y-101726000D01*
X74274000Y-104774000D02*
X74274000Y-101726000D01*
X79354000Y-101726000D02*
X76306000Y-101726000D01*
X71226000Y-101726000D02*
X71226000Y-104774000D01*
X74274000Y-104774000D02*
X71226000Y-104774000D01*
X79354000Y-104774000D02*
X76306000Y-104774000D01*
X76306000Y-101726000D02*
X76306000Y-104774000D01*
X69194000Y-104774000D02*
X66146000Y-104774000D01*
D17*
G04 #@! TO.C,C11*
X82587221Y-130510000D02*
X82912779Y-130510000D01*
X82587221Y-129490000D02*
X82912779Y-129490000D01*
G04 #@! TO.C,R10*
X71837221Y-117490000D02*
X72162779Y-117490000D01*
X71837221Y-118510000D02*
X72162779Y-118510000D01*
G04 #@! TO.C,R12*
X71587221Y-115990000D02*
X71912779Y-115990000D01*
X71587221Y-117010000D02*
X71912779Y-117010000D01*
G04 #@! TO.C,R9*
X75587221Y-125990000D02*
X75912779Y-125990000D01*
X75587221Y-127010000D02*
X75912779Y-127010000D01*
G04 #@! TO.C,R3*
X68837221Y-124010000D02*
X69162779Y-124010000D01*
X68837221Y-122990000D02*
X69162779Y-122990000D01*
G04 #@! TO.C,R1*
X66412779Y-129240000D02*
X66087221Y-129240000D01*
X66412779Y-130260000D02*
X66087221Y-130260000D01*
G04 #@! TO.C,R24*
X81337221Y-103760000D02*
X81662779Y-103760000D01*
X81337221Y-102740000D02*
X81662779Y-102740000D01*
G04 #@! TO.C,R17*
X67587221Y-111990000D02*
X67912779Y-111990000D01*
X67587221Y-113010000D02*
X67912779Y-113010000D01*
G04 #@! TO.C,R4*
X69162779Y-122510000D02*
X68837221Y-122510000D01*
X69162779Y-121490000D02*
X68837221Y-121490000D01*
G04 #@! TO.C,Q2*
X69580000Y-114240000D02*
X68650000Y-114240000D01*
X66420000Y-114240000D02*
X67350000Y-114240000D01*
X69580000Y-114240000D02*
X69580000Y-115700000D01*
X66420000Y-114240000D02*
X66420000Y-116400000D01*
D18*
G04 #@! TO.C,D2*
X64770000Y-121718000D02*
X62230000Y-121718000D01*
X62230000Y-125782000D02*
X62230000Y-121718000D01*
X64770000Y-121718000D02*
X64770000Y-125782000D01*
X62230000Y-125782000D02*
X64770000Y-125782000D01*
G36*
X64770000Y-122607000D02*
G01*
X62230000Y-122607000D01*
X62230000Y-122099000D01*
X64770000Y-122099000D01*
X64770000Y-122607000D01*
G37*
G36*
X63881000Y-121718000D02*
G01*
X63119000Y-121718000D01*
X63119000Y-121337000D01*
X63881000Y-121337000D01*
X63881000Y-121718000D01*
G37*
G36*
X63881000Y-126163000D02*
G01*
X63119000Y-126163000D01*
X63119000Y-125782000D01*
X63881000Y-125782000D01*
X63881000Y-126163000D01*
G37*
D17*
G04 #@! TO.C,C1*
X68837221Y-124490000D02*
X69162779Y-124490000D01*
X68837221Y-125510000D02*
X69162779Y-125510000D01*
G04 #@! TO.C,R23*
X79912779Y-113260000D02*
X79587221Y-113260000D01*
X79912779Y-112240000D02*
X79587221Y-112240000D01*
G04 #@! TO.C,R8*
X80162779Y-120240000D02*
X79837221Y-120240000D01*
X80162779Y-121260000D02*
X79837221Y-121260000D01*
G04 #@! TO.C,R11*
X82837221Y-113740000D02*
X83162779Y-113740000D01*
X82837221Y-114760000D02*
X83162779Y-114760000D01*
G04 #@! TO.C,R14*
X76912779Y-101260000D02*
X76587221Y-101260000D01*
X76912779Y-100240000D02*
X76587221Y-100240000D01*
G04 #@! TO.C,R25*
X78181529Y-106990000D02*
X77855971Y-106990000D01*
X78181529Y-108010000D02*
X77855971Y-108010000D01*
G04 #@! TO.C,R2*
X79837221Y-113740000D02*
X80162779Y-113740000D01*
X79837221Y-114760000D02*
X80162779Y-114760000D01*
D18*
G04 #@! TO.C,D1*
X62020000Y-121718000D02*
X59480000Y-121718000D01*
X59480000Y-125782000D02*
X62020000Y-125782000D01*
X59480000Y-125782000D02*
X59480000Y-121718000D01*
X62020000Y-121718000D02*
X62020000Y-125782000D01*
G36*
X61131000Y-121718000D02*
G01*
X60369000Y-121718000D01*
X60369000Y-121337000D01*
X61131000Y-121337000D01*
X61131000Y-121718000D01*
G37*
G36*
X61131000Y-126163000D02*
G01*
X60369000Y-126163000D01*
X60369000Y-125782000D01*
X61131000Y-125782000D01*
X61131000Y-126163000D01*
G37*
G36*
X62020000Y-122607000D02*
G01*
X59480000Y-122607000D01*
X59480000Y-122099000D01*
X62020000Y-122099000D01*
X62020000Y-122607000D01*
G37*
D17*
G04 #@! TO.C,R16*
X71587221Y-114490000D02*
X71912779Y-114490000D01*
X71587221Y-115510000D02*
X71912779Y-115510000D01*
G04 #@! TO.C,R7*
X80162779Y-119760000D02*
X79837221Y-119760000D01*
X80162779Y-118740000D02*
X79837221Y-118740000D01*
D10*
G04 #@! TO.C,SW1*
X87020000Y-117360000D02*
X87020000Y-132600000D01*
X84480000Y-117360000D02*
X87020000Y-117360000D01*
X84480000Y-132600000D02*
X84480000Y-117360000D01*
X83210000Y-117360000D02*
X84480000Y-117360000D01*
X83210000Y-132600000D02*
X83210000Y-117360000D01*
X84480000Y-132600000D02*
X83210000Y-132600000D01*
X87020000Y-132600000D02*
X84480000Y-132600000D01*
D17*
G04 #@! TO.C,Q1*
X82010000Y-124920000D02*
X82010000Y-125850000D01*
X82010000Y-124920000D02*
X79850000Y-124920000D01*
X82010000Y-128080000D02*
X82010000Y-127150000D01*
X82010000Y-128080000D02*
X80550000Y-128080000D01*
D10*
G04 #@! TO.C,J1*
X78080000Y-132770000D02*
X67920000Y-132770000D01*
X67920000Y-130230000D02*
X78080000Y-130230000D01*
X67920000Y-130230000D02*
X67920000Y-128960000D01*
X78080000Y-128960000D02*
X67920000Y-128960000D01*
X78080000Y-130230000D02*
X78080000Y-128960000D01*
X67920000Y-132770000D02*
X67920000Y-130230000D01*
X78080000Y-132770000D02*
X78080000Y-130230000D01*
D17*
G04 #@! TO.C,C4*
X81337221Y-121740000D02*
X81662779Y-121740000D01*
X81337221Y-122760000D02*
X81662779Y-122760000D01*
G04 #@! TO.C,C9*
X72587221Y-127490000D02*
X72912779Y-127490000D01*
X72587221Y-128510000D02*
X72912779Y-128510000D01*
G04 #@! TO.C,C8*
X59799000Y-108133000D02*
X59799000Y-107790000D01*
X60759000Y-109018000D02*
X60759000Y-107790000D01*
X60279000Y-105710000D02*
X60279000Y-104813000D01*
X61360000Y-105710000D02*
X61360000Y-104249000D01*
X60799000Y-109040000D02*
X60799000Y-107790000D01*
X60039000Y-108449000D02*
X60039000Y-107790000D01*
X60479000Y-108845000D02*
X60479000Y-107790000D01*
X60639000Y-108950000D02*
X60639000Y-107790000D01*
X61279000Y-109230000D02*
X61279000Y-107790000D01*
X61760000Y-109319000D02*
X61760000Y-107790000D01*
X59919000Y-108304000D02*
X59919000Y-107790000D01*
X59839000Y-105710000D02*
X59839000Y-105307000D01*
X60559000Y-105710000D02*
X60559000Y-104601000D01*
X59759000Y-105710000D02*
X59759000Y-105431000D01*
X61159000Y-105710000D02*
X61159000Y-104308000D01*
X61960000Y-109330000D02*
X61960000Y-104170000D01*
X61239000Y-105710000D02*
X61239000Y-104282000D01*
X62000000Y-109330000D02*
X62000000Y-104170000D01*
X63250000Y-108397000D02*
X63250000Y-107897000D01*
X59959000Y-105710000D02*
X59959000Y-105145000D01*
X61640000Y-109306000D02*
X61640000Y-107790000D01*
X60679000Y-108974000D02*
X60679000Y-107790000D01*
X59999000Y-108403000D02*
X59999000Y-107790000D01*
X60599000Y-108925000D02*
X60599000Y-107790000D01*
X61360000Y-109251000D02*
X61360000Y-107790000D01*
X61039000Y-105710000D02*
X61039000Y-104352000D01*
X61199000Y-109205000D02*
X61199000Y-107790000D01*
X60639000Y-105710000D02*
X60639000Y-104550000D01*
X61560000Y-109293000D02*
X61560000Y-107790000D01*
X61600000Y-105710000D02*
X61600000Y-104200000D01*
X60959000Y-105710000D02*
X60959000Y-104385000D01*
X61039000Y-109148000D02*
X61039000Y-107790000D01*
X61079000Y-109164000D02*
X61079000Y-107790000D01*
X61440000Y-109270000D02*
X61440000Y-107790000D01*
X59559000Y-107665000D02*
X59559000Y-105835000D01*
X60399000Y-108785000D02*
X60399000Y-107790000D01*
X61440000Y-105710000D02*
X61440000Y-104230000D01*
X61560000Y-105710000D02*
X61560000Y-104207000D01*
X60439000Y-105710000D02*
X60439000Y-104685000D01*
X60039000Y-105710000D02*
X60039000Y-105051000D01*
X60359000Y-108754000D02*
X60359000Y-107790000D01*
X61680000Y-105710000D02*
X61680000Y-104189000D01*
X60359000Y-105710000D02*
X60359000Y-104746000D01*
X60679000Y-105710000D02*
X60679000Y-104526000D01*
X59959000Y-108355000D02*
X59959000Y-107790000D01*
X60079000Y-105710000D02*
X60079000Y-105007000D01*
X60199000Y-108614000D02*
X60199000Y-107790000D01*
X61520000Y-105710000D02*
X61520000Y-104214000D01*
X61800000Y-109323000D02*
X61800000Y-104177000D01*
X60159000Y-108576000D02*
X60159000Y-107790000D01*
X61880000Y-109328000D02*
X61880000Y-104172000D01*
X60519000Y-108872000D02*
X60519000Y-107790000D01*
X61320000Y-105710000D02*
X61320000Y-104259000D01*
X61199000Y-105710000D02*
X61199000Y-104295000D01*
X60879000Y-109079000D02*
X60879000Y-107790000D01*
X59839000Y-108193000D02*
X59839000Y-107790000D01*
X59719000Y-108001000D02*
X59719000Y-107790000D01*
X60239000Y-105710000D02*
X60239000Y-104849000D01*
X61320000Y-109241000D02*
X61320000Y-107790000D01*
X59719000Y-105710000D02*
X59719000Y-105499000D01*
X59879000Y-108250000D02*
X59879000Y-107790000D01*
X60319000Y-108721000D02*
X60319000Y-107790000D01*
X61480000Y-105710000D02*
X61480000Y-104222000D01*
X60239000Y-108651000D02*
X60239000Y-107790000D01*
X61239000Y-109218000D02*
X61239000Y-107790000D01*
X59399000Y-107034000D02*
X59399000Y-106466000D01*
X61159000Y-109192000D02*
X61159000Y-107790000D01*
X60919000Y-105710000D02*
X60919000Y-104402000D01*
X61119000Y-105710000D02*
X61119000Y-104322000D01*
X61760000Y-105710000D02*
X61760000Y-104181000D01*
X61640000Y-105710000D02*
X61640000Y-104194000D01*
X61720000Y-109315000D02*
X61720000Y-107790000D01*
X61119000Y-109178000D02*
X61119000Y-107790000D01*
X60839000Y-109060000D02*
X60839000Y-107790000D01*
X60399000Y-105710000D02*
X60399000Y-104715000D01*
X59919000Y-105710000D02*
X59919000Y-105196000D01*
X59759000Y-108069000D02*
X59759000Y-107790000D01*
X60119000Y-105710000D02*
X60119000Y-104965000D01*
X59879000Y-105710000D02*
X59879000Y-105250000D01*
X60719000Y-108997000D02*
X60719000Y-107790000D01*
X61720000Y-105710000D02*
X61720000Y-104185000D01*
X61920000Y-109329000D02*
X61920000Y-104171000D01*
X60279000Y-108687000D02*
X60279000Y-107790000D01*
X59799000Y-105710000D02*
X59799000Y-105367000D01*
X60839000Y-105710000D02*
X60839000Y-104440000D01*
X60719000Y-105710000D02*
X60719000Y-104503000D01*
X60079000Y-108493000D02*
X60079000Y-107790000D01*
X60559000Y-108899000D02*
X60559000Y-107790000D01*
X60799000Y-105710000D02*
X60799000Y-104460000D01*
X61600000Y-109300000D02*
X61600000Y-107790000D01*
X60879000Y-105710000D02*
X60879000Y-104421000D01*
X59599000Y-107761000D02*
X59599000Y-105739000D01*
X59519000Y-107555000D02*
X59519000Y-105945000D01*
X61480000Y-109278000D02*
X61480000Y-107790000D01*
X63500000Y-108147000D02*
X63000000Y-108147000D01*
X59479000Y-107427000D02*
X59479000Y-106073000D01*
X61079000Y-105710000D02*
X61079000Y-104336000D01*
X60999000Y-109132000D02*
X60999000Y-107790000D01*
X60119000Y-108535000D02*
X60119000Y-107790000D01*
X60959000Y-109115000D02*
X60959000Y-107790000D01*
X61680000Y-109311000D02*
X61680000Y-107790000D01*
X61400000Y-105710000D02*
X61400000Y-104239000D01*
X59679000Y-107928000D02*
X59679000Y-105572000D01*
X60439000Y-108815000D02*
X60439000Y-107790000D01*
X60599000Y-105710000D02*
X60599000Y-104575000D01*
X60199000Y-105710000D02*
X60199000Y-104886000D01*
X60759000Y-105710000D02*
X60759000Y-104482000D01*
X61400000Y-109261000D02*
X61400000Y-107790000D01*
X60999000Y-105710000D02*
X60999000Y-104368000D01*
X59999000Y-105710000D02*
X59999000Y-105097000D01*
X60159000Y-105710000D02*
X60159000Y-104924000D01*
X61840000Y-109326000D02*
X61840000Y-104174000D01*
X61279000Y-105710000D02*
X61279000Y-104270000D01*
X59439000Y-107268000D02*
X59439000Y-106232000D01*
X60919000Y-109098000D02*
X60919000Y-107790000D01*
X59639000Y-107848000D02*
X59639000Y-105652000D01*
X60319000Y-105710000D02*
X60319000Y-104779000D01*
X61520000Y-109286000D02*
X61520000Y-107790000D01*
X60519000Y-105710000D02*
X60519000Y-104628000D01*
X60479000Y-105710000D02*
X60479000Y-104655000D01*
X64620000Y-106750000D02*
G75*
G03*
X64620000Y-106750000I-2620000J0D01*
G01*
D18*
G04 #@! TO.C,RV1*
X83881000Y-107238000D02*
X83881000Y-106095000D01*
X80325000Y-111429000D02*
X80071000Y-111175000D01*
X86675000Y-104571000D02*
X80325000Y-104571000D01*
X84262000Y-108381000D02*
X85405000Y-108381000D01*
X85405000Y-107619000D02*
X84262000Y-107619000D01*
X83119000Y-106095000D02*
X83119000Y-107238000D01*
X80325000Y-104571000D02*
X80071000Y-104825000D01*
X81595000Y-107619000D02*
X81595000Y-108381000D01*
X82738000Y-107619000D02*
X81595000Y-107619000D01*
X86675000Y-111429000D02*
X86929000Y-111175000D01*
X83119000Y-107238000D02*
X82738000Y-107619000D01*
X83881000Y-108762000D02*
X84262000Y-108381000D01*
D19*
X81722000Y-109651000D02*
X81468000Y-109905000D01*
D18*
X83119000Y-109905000D02*
X83881000Y-109905000D01*
X80325000Y-111429000D02*
X86675000Y-111429000D01*
X83119000Y-108762000D02*
X83119000Y-109905000D01*
X86929000Y-111175000D02*
X86929000Y-104825000D01*
X80071000Y-104825000D02*
X80071000Y-111175000D01*
D19*
X85405000Y-109651000D02*
X85659000Y-109905000D01*
D18*
X83881000Y-107238000D02*
X84262000Y-107619000D01*
X83881000Y-106095000D02*
X83119000Y-106095000D01*
X81595000Y-108381000D02*
X82738000Y-108381000D01*
X83881000Y-109905000D02*
X83881000Y-108762000D01*
X82738000Y-108381000D02*
X83119000Y-108762000D01*
X86675000Y-104571000D02*
X86929000Y-104825000D01*
X85405000Y-108381000D02*
X85405000Y-107619000D01*
D10*
X85471500Y-108000000D02*
G75*
G03*
X85471500Y-108000000I-1971500J0D01*
G01*
G04 #@! TD*
%LPC*%
D20*
G04 #@! TO.C,R13*
X80787500Y-117750000D03*
X79212500Y-117750000D03*
G04 #@! TD*
D21*
G04 #@! TO.C,R18*
X82212500Y-112750000D03*
X83787500Y-112750000D03*
G04 #@! TD*
D20*
G04 #@! TO.C,R5*
X69787500Y-120500000D03*
X68212500Y-120500000D03*
G04 #@! TD*
D21*
G04 #@! TO.C,R22*
X68212500Y-106000000D03*
X69787500Y-106000000D03*
G04 #@! TD*
D22*
G04 #@! TO.C,C2*
X60750000Y-115750000D03*
D23*
X63250000Y-115750000D03*
G04 #@! TD*
D21*
G04 #@! TO.C,R21*
X71962500Y-126500000D03*
X73537500Y-126500000D03*
G04 #@! TD*
G04 #@! TO.C,C5*
X66962500Y-117500000D03*
X68537500Y-117500000D03*
G04 #@! TD*
G04 #@! TO.C,C3*
X81962500Y-131500000D03*
X83537500Y-131500000D03*
G04 #@! TD*
G04 #@! TO.C,C12*
X82212500Y-117750000D03*
X83787500Y-117750000D03*
G04 #@! TD*
G04 #@! TO.C,R15*
X79212500Y-116250000D03*
X80787500Y-116250000D03*
G04 #@! TD*
G04 #@! TO.C,C10*
X74231250Y-107500000D03*
X75806250Y-107500000D03*
G04 #@! TD*
D20*
G04 #@! TO.C,R19*
X68537500Y-109500000D03*
X66962500Y-109500000D03*
G04 #@! TD*
G04 #@! TO.C,R27*
X75806250Y-106000000D03*
X74231250Y-106000000D03*
G04 #@! TD*
D21*
G04 #@! TO.C,C6*
X82212500Y-120750000D03*
X83787500Y-120750000D03*
G04 #@! TD*
G04 #@! TO.C,R20*
X68231250Y-107500000D03*
X69806250Y-107500000D03*
G04 #@! TD*
D24*
G04 #@! TO.C,U2*
X72025000Y-109345000D03*
X72025000Y-110615000D03*
X72025000Y-111885000D03*
X72025000Y-113155000D03*
X76975000Y-113155000D03*
X76975000Y-111885000D03*
X76975000Y-110615000D03*
X76975000Y-109345000D03*
G04 #@! TD*
G04 #@! TO.C,U1*
X72025000Y-119845000D03*
X72025000Y-121115000D03*
X72025000Y-122385000D03*
X72025000Y-123655000D03*
X76975000Y-123655000D03*
X76975000Y-122385000D03*
X76975000Y-121115000D03*
X76975000Y-119845000D03*
G04 #@! TD*
D21*
G04 #@! TO.C,R26*
X74962500Y-128000000D03*
X76537500Y-128000000D03*
G04 #@! TD*
G04 #@! TO.C,R6*
X68212500Y-119000000D03*
X69787500Y-119000000D03*
G04 #@! TD*
G04 #@! TO.C,C7*
X66462500Y-111000000D03*
X68037500Y-111000000D03*
G04 #@! TD*
D25*
G04 #@! TO.C,RV2*
X67670000Y-103250000D03*
D26*
X72750000Y-103250000D03*
X77830000Y-103250000D03*
G04 #@! TD*
D21*
G04 #@! TO.C,C11*
X81962500Y-130000000D03*
X83537500Y-130000000D03*
G04 #@! TD*
G04 #@! TO.C,R10*
X71212500Y-118000000D03*
X72787500Y-118000000D03*
G04 #@! TD*
G04 #@! TO.C,R12*
X70962500Y-116500000D03*
X72537500Y-116500000D03*
G04 #@! TD*
G04 #@! TO.C,R9*
X74962500Y-126500000D03*
X76537500Y-126500000D03*
G04 #@! TD*
G04 #@! TO.C,R3*
X68212500Y-123500000D03*
X69787500Y-123500000D03*
G04 #@! TD*
D20*
G04 #@! TO.C,R1*
X67037500Y-129750000D03*
X65462500Y-129750000D03*
G04 #@! TD*
D21*
G04 #@! TO.C,R24*
X80712500Y-103250000D03*
X82287500Y-103250000D03*
G04 #@! TD*
G04 #@! TO.C,R17*
X66962500Y-112500000D03*
X68537500Y-112500000D03*
G04 #@! TD*
D20*
G04 #@! TO.C,R4*
X69787500Y-122000000D03*
X68212500Y-122000000D03*
G04 #@! TD*
D27*
G04 #@! TO.C,Q2*
X67050000Y-116000000D03*
X68000000Y-114000000D03*
X68950000Y-116000000D03*
G04 #@! TD*
D28*
G04 #@! TO.C,D2*
X63500000Y-119940000D03*
D29*
X63500000Y-127560000D03*
G04 #@! TD*
D21*
G04 #@! TO.C,C1*
X68212500Y-125000000D03*
X69787500Y-125000000D03*
G04 #@! TD*
D20*
G04 #@! TO.C,R23*
X80537500Y-112750000D03*
X78962500Y-112750000D03*
G04 #@! TD*
G04 #@! TO.C,R8*
X80787500Y-120750000D03*
X79212500Y-120750000D03*
G04 #@! TD*
D21*
G04 #@! TO.C,R11*
X82212500Y-114250000D03*
X83787500Y-114250000D03*
G04 #@! TD*
D20*
G04 #@! TO.C,R14*
X77537500Y-100750000D03*
X75962500Y-100750000D03*
G04 #@! TD*
G04 #@! TO.C,R25*
X78806250Y-107500000D03*
X77231250Y-107500000D03*
G04 #@! TD*
D21*
G04 #@! TO.C,R2*
X79212500Y-114250000D03*
X80787500Y-114250000D03*
G04 #@! TD*
D28*
G04 #@! TO.C,D1*
X60750000Y-119940000D03*
D29*
X60750000Y-127560000D03*
G04 #@! TD*
D21*
G04 #@! TO.C,R16*
X70962500Y-115000000D03*
X72537500Y-115000000D03*
G04 #@! TD*
D20*
G04 #@! TO.C,R7*
X80787500Y-119250000D03*
X79212500Y-119250000D03*
G04 #@! TD*
D30*
G04 #@! TO.C,SW1*
X85750000Y-131330000D03*
D31*
X85750000Y-128790000D03*
X85750000Y-126250000D03*
X85750000Y-123710000D03*
X85750000Y-121170000D03*
X85750000Y-118630000D03*
G04 #@! TD*
D32*
G04 #@! TO.C,Q1*
X80250000Y-125550000D03*
X82250000Y-126500000D03*
X80250000Y-127450000D03*
G04 #@! TD*
D33*
G04 #@! TO.C,J1*
X69190000Y-131500000D03*
D34*
X71730000Y-131500000D03*
X74270000Y-131500000D03*
X76810000Y-131500000D03*
G04 #@! TD*
D21*
G04 #@! TO.C,C4*
X80712500Y-122250000D03*
X82287500Y-122250000D03*
G04 #@! TD*
G04 #@! TO.C,C9*
X71962500Y-128000000D03*
X73537500Y-128000000D03*
G04 #@! TD*
D22*
G04 #@! TO.C,C8*
X63250000Y-106750000D03*
D23*
X60750000Y-106750000D03*
G04 #@! TD*
D34*
G04 #@! TO.C,RV1*
X86040000Y-108000000D03*
X83500000Y-110540000D03*
X80960000Y-108000000D03*
G04 #@! TD*
D35*
G04 #@! TO.C,D3*
X71500000Y-99250000D03*
D36*
X74040000Y-99250000D03*
G04 #@! TD*
M02*
