G04 #@! TF.GenerationSoftware,KiCad,Pcbnew,(5.99.0-1452-gb67f18b39)*
G04 #@! TF.CreationDate,2020-04-28T12:12:09+03:00*
G04 #@! TF.ProjectId,agudo,61677564-6f2e-46b6-9963-61645f706362,rev?*
G04 #@! TF.SameCoordinates,Original*
G04 #@! TF.FileFunction,Copper,L1,Top*
G04 #@! TF.FilePolarity,Positive*
%FSLAX46Y46*%
G04 Gerber Fmt 4.6, Leading zero omitted, Abs format (unit mm)*
G04 Created by KiCad (PCBNEW (5.99.0-1452-gb67f18b39)) date 2020-04-28 12:12:09*
%MOMM*%
%LPD*%
G01*
G04 APERTURE LIST*
G04 #@! TA.AperFunction,ComponentPad*
%ADD10O,2.000000X2.000000*%
G04 #@! TD*
G04 #@! TA.AperFunction,ComponentPad*
%ADD11O,2.540000X2.540000*%
G04 #@! TD*
G04 #@! TA.AperFunction,ComponentPad*
%ADD12R,2.540000X2.540000*%
G04 #@! TD*
G04 #@! TA.AperFunction,ComponentPad*
%ADD13O,1.930400X1.930400*%
G04 #@! TD*
G04 #@! TA.AperFunction,ComponentPad*
%ADD14R,1.930400X1.930400*%
G04 #@! TD*
G04 #@! TA.AperFunction,ComponentPad*
%ADD15O,2.400000X1.600000*%
G04 #@! TD*
G04 #@! TA.AperFunction,ComponentPad*
%ADD16R,2.400000X1.600000*%
G04 #@! TD*
G04 #@! TA.AperFunction,SMDPad,CuDef*
%ADD17R,0.800000X0.900000*%
G04 #@! TD*
G04 #@! TA.AperFunction,ComponentPad*
%ADD18C,1.800000*%
G04 #@! TD*
G04 #@! TA.AperFunction,ComponentPad*
%ADD19R,1.800000X1.800000*%
G04 #@! TD*
G04 #@! TA.AperFunction,ComponentPad*
%ADD20R,2.000000X2.000000*%
G04 #@! TD*
G04 #@! TA.AperFunction,ComponentPad*
%ADD21C,1.600000*%
G04 #@! TD*
G04 #@! TA.AperFunction,ComponentPad*
%ADD22R,1.600000X1.600000*%
G04 #@! TD*
G04 #@! TA.AperFunction,ViaPad*
%ADD23C,0.800000*%
G04 #@! TD*
G04 #@! TA.AperFunction,Conductor*
%ADD24C,0.381000*%
G04 #@! TD*
G04 #@! TA.AperFunction,Conductor*
%ADD25C,0.609600*%
G04 #@! TD*
G04 #@! TA.AperFunction,Conductor*
%ADD26C,0.254000*%
G04 #@! TD*
G04 APERTURE END LIST*
D10*
G04 #@! TO.P,R27,2*
G04 #@! TO.N,Net-(R27-Pad2)*
X102870000Y-83185000D03*
G04 #@! TO.P,R27,1*
G04 #@! TO.N,Net-(C10-Pad2)*
X107950000Y-83185000D03*
G04 #@! TD*
G04 #@! TO.P,R26,2*
G04 #@! TO.N,GND*
X114300000Y-123825000D03*
G04 #@! TO.P,R26,1*
G04 #@! TO.N,OUT*
X109220000Y-123825000D03*
G04 #@! TD*
G04 #@! TO.P,R25,2*
G04 #@! TO.N,Net-(C10-Pad2)*
X114300000Y-103505000D03*
G04 #@! TO.P,R25,1*
G04 #@! TO.N,Net-(R23-Pad2)*
X109220000Y-103505000D03*
G04 #@! TD*
G04 #@! TO.P,R24,2*
G04 #@! TO.N,GND*
X114300000Y-106045000D03*
G04 #@! TO.P,R24,1*
G04 #@! TO.N,Net-(R23-Pad2)*
X109220000Y-106045000D03*
G04 #@! TD*
G04 #@! TO.P,R23,2*
G04 #@! TO.N,Net-(R23-Pad2)*
X114300000Y-108585000D03*
G04 #@! TO.P,R23,1*
G04 #@! TO.N,+9V*
X109220000Y-108585000D03*
G04 #@! TD*
G04 #@! TO.P,R22,2*
G04 #@! TO.N,Net-(C10-Pad1)*
X109220000Y-93980000D03*
G04 #@! TO.P,R22,1*
G04 #@! TO.N,Net-(C8-Pad1)*
X114300000Y-93980000D03*
G04 #@! TD*
G04 #@! TO.P,R21,2*
G04 #@! TO.N,Net-(C9-Pad1)*
X95885000Y-124714000D03*
G04 #@! TO.P,R21,1*
G04 #@! TO.N,Net-(R20-Pad2)*
X90805000Y-124714000D03*
G04 #@! TD*
G04 #@! TO.P,R20,2*
G04 #@! TO.N,Net-(R20-Pad2)*
X90170000Y-91694000D03*
G04 #@! TO.P,R20,1*
G04 #@! TO.N,Net-(R16-Pad2)*
X95250000Y-91694000D03*
G04 #@! TD*
G04 #@! TO.P,R19,2*
G04 #@! TO.N,Net-(C8-Pad1)*
X114300000Y-91440000D03*
G04 #@! TO.P,R19,1*
G04 #@! TO.N,Net-(C5-Pad2)*
X109220000Y-91440000D03*
G04 #@! TD*
G04 #@! TO.P,R18,2*
G04 #@! TO.N,Net-(R18-Pad2)*
X100457000Y-85471000D03*
G04 #@! TO.P,R18,1*
G04 #@! TO.N,Net-(C5-Pad2)*
X105537000Y-85471000D03*
G04 #@! TD*
G04 #@! TO.P,R17,2*
G04 #@! TO.N,Net-(C5-Pad2)*
X90170000Y-101346000D03*
G04 #@! TO.P,R17,1*
G04 #@! TO.N,Net-(C7-Pad2)*
X90170000Y-106426000D03*
G04 #@! TD*
G04 #@! TO.P,R16,2*
G04 #@! TO.N,Net-(R16-Pad2)*
X95250000Y-94107000D03*
G04 #@! TO.P,R16,1*
G04 #@! TO.N,Net-(C6-Pad1)*
X90170000Y-94107000D03*
G04 #@! TD*
G04 #@! TO.P,R15,2*
G04 #@! TO.N,Net-(C6-Pad2)*
X95250000Y-96520000D03*
G04 #@! TO.P,R15,1*
G04 #@! TO.N,Net-(C7-Pad1)*
X90170000Y-96520000D03*
G04 #@! TD*
G04 #@! TO.P,R14,2*
G04 #@! TO.N,Net-(D3-Pad1)*
X95885000Y-127127000D03*
G04 #@! TO.P,R14,1*
G04 #@! TO.N,LED-*
X90805000Y-127127000D03*
G04 #@! TD*
G04 #@! TO.P,R13,2*
G04 #@! TO.N,Net-(C5-Pad1)*
X95250000Y-98933000D03*
G04 #@! TO.P,R13,1*
G04 #@! TO.N,Net-(C7-Pad1)*
X90170000Y-98933000D03*
G04 #@! TD*
G04 #@! TO.P,R12,2*
G04 #@! TO.N,Net-(C6-Pad1)*
X109220000Y-111125000D03*
G04 #@! TO.P,R12,1*
G04 #@! TO.N,Net-(R10-Pad2)*
X114300000Y-111125000D03*
G04 #@! TD*
G04 #@! TO.P,R11,2*
G04 #@! TO.N,Net-(C4-Pad2)*
X114300000Y-88900000D03*
G04 #@! TO.P,R11,1*
G04 #@! TO.N,Net-(C5-Pad2)*
X109220000Y-88900000D03*
G04 #@! TD*
G04 #@! TO.P,R10,2*
G04 #@! TO.N,Net-(R10-Pad2)*
X109220000Y-113665000D03*
G04 #@! TO.P,R10,1*
G04 #@! TO.N,Net-(C3-Pad1)*
X114300000Y-113665000D03*
G04 #@! TD*
G04 #@! TO.P,R9,2*
G04 #@! TO.N,Net-(C9-Pad1)*
X109220000Y-116205000D03*
G04 #@! TO.P,R9,1*
G04 #@! TO.N,Net-(C3-Pad1)*
X114300000Y-116205000D03*
G04 #@! TD*
G04 #@! TO.P,R8,2*
G04 #@! TO.N,Net-(C3-Pad2)*
X109220000Y-118745000D03*
G04 #@! TO.P,R8,1*
G04 #@! TO.N,Net-(C4-Pad1)*
X114300000Y-118745000D03*
G04 #@! TD*
G04 #@! TO.P,R7,2*
G04 #@! TO.N,Net-(C5-Pad1)*
X109220000Y-121285000D03*
G04 #@! TO.P,R7,1*
G04 #@! TO.N,Net-(C4-Pad1)*
X114300000Y-121285000D03*
G04 #@! TD*
G04 #@! TO.P,R6,2*
G04 #@! TO.N,Net-(C3-Pad1)*
X95250000Y-109220000D03*
G04 #@! TO.P,R6,1*
G04 #@! TO.N,Net-(R5-Pad1)*
X90170000Y-109220000D03*
G04 #@! TD*
G04 #@! TO.P,R5,2*
G04 #@! TO.N,Net-(C5-Pad1)*
X90170000Y-111760000D03*
G04 #@! TO.P,R5,1*
G04 #@! TO.N,Net-(R5-Pad1)*
X95250000Y-111760000D03*
G04 #@! TD*
G04 #@! TO.P,R4,2*
G04 #@! TO.N,Net-(C5-Pad1)*
X90170000Y-114300000D03*
G04 #@! TO.P,R4,1*
G04 #@! TO.N,Net-(R3-Pad2)*
X95250000Y-114300000D03*
G04 #@! TD*
G04 #@! TO.P,R3,2*
G04 #@! TO.N,Net-(R3-Pad2)*
X95250000Y-116840000D03*
G04 #@! TO.P,R3,1*
G04 #@! TO.N,Net-(C1-Pad2)*
X90170000Y-116840000D03*
G04 #@! TD*
G04 #@! TO.P,R2,2*
G04 #@! TO.N,Net-(C5-Pad1)*
X101727000Y-106299000D03*
G04 #@! TO.P,R2,1*
G04 #@! TO.N,+9V*
X106807000Y-106299000D03*
G04 #@! TD*
G04 #@! TO.P,R1,2*
G04 #@! TO.N,GND*
X95250000Y-119380000D03*
G04 #@! TO.P,R1,1*
G04 #@! TO.N,IN*
X90170000Y-119380000D03*
G04 #@! TD*
D11*
G04 #@! TO.P,RV2,3,3*
G04 #@! TO.N,Net-(C8-Pad1)*
X105410000Y-80645000D03*
G04 #@! TO.P,RV2,2,2*
G04 #@! TO.N,Net-(R27-Pad2)*
X100330000Y-80645000D03*
D12*
G04 #@! TO.P,RV2,1,1*
X95250000Y-80645000D03*
G04 #@! TD*
D13*
G04 #@! TO.P,J3,2,GND*
G04 #@! TO.N,GND*
X115189000Y-80264000D03*
D14*
G04 #@! TO.P,J3,1,PWR*
G04 #@! TO.N,VIN*
X112649000Y-80264000D03*
G04 #@! TD*
D15*
G04 #@! TO.P,U2,8,V+*
G04 #@! TO.N,+9V*
X106045000Y-91440000D03*
G04 #@! TO.P,U2,4,V-*
G04 #@! TO.N,GND*
X98425000Y-99060000D03*
G04 #@! TO.P,U2,7*
G04 #@! TO.N,Net-(C10-Pad2)*
X106045000Y-93980000D03*
G04 #@! TO.P,U2,3,+*
G04 #@! TO.N,Net-(C6-Pad2)*
X98425000Y-96520000D03*
G04 #@! TO.P,U2,6,-*
G04 #@! TO.N,Net-(C10-Pad1)*
X106045000Y-96520000D03*
G04 #@! TO.P,U2,2,-*
G04 #@! TO.N,Net-(R16-Pad2)*
X98425000Y-93980000D03*
G04 #@! TO.P,U2,5,+*
G04 #@! TO.N,Net-(R23-Pad2)*
X106045000Y-99060000D03*
D16*
G04 #@! TO.P,U2,1*
G04 #@! TO.N,Net-(R20-Pad2)*
X98425000Y-91440000D03*
G04 #@! TD*
D15*
G04 #@! TO.P,U1,8,V+*
G04 #@! TO.N,+9V*
X106045000Y-109220000D03*
G04 #@! TO.P,U1,4,V-*
G04 #@! TO.N,GND*
X98425000Y-116840000D03*
G04 #@! TO.P,U1,7*
G04 #@! TO.N,Net-(C6-Pad1)*
X106045000Y-111760000D03*
G04 #@! TO.P,U1,3,+*
G04 #@! TO.N,Net-(R3-Pad2)*
X98425000Y-114300000D03*
G04 #@! TO.P,U1,6,-*
G04 #@! TO.N,Net-(R10-Pad2)*
X106045000Y-114300000D03*
G04 #@! TO.P,U1,2,-*
G04 #@! TO.N,Net-(R5-Pad1)*
X98425000Y-111760000D03*
G04 #@! TO.P,U1,5,+*
G04 #@! TO.N,Net-(C3-Pad2)*
X106045000Y-116840000D03*
D16*
G04 #@! TO.P,U1,1*
G04 #@! TO.N,Net-(C3-Pad1)*
X98425000Y-109220000D03*
G04 #@! TD*
D13*
G04 #@! TO.P,RV1,3,3*
G04 #@! TO.N,Net-(C5-Pad1)*
X95377000Y-88646000D03*
G04 #@! TO.P,RV1,2,2*
G04 #@! TO.N,Net-(R18-Pad2)*
X97917000Y-86106000D03*
G04 #@! TO.P,RV1,1,1*
G04 #@! TO.N,GND*
X95377000Y-83566000D03*
G04 #@! TD*
D17*
G04 #@! TO.P,Q2,G,G*
G04 #@! TO.N,Net-(C7-Pad2)*
X100965000Y-103870000D03*
G04 #@! TO.P,Q2,S,S*
G04 #@! TO.N,Net-(C6-Pad2)*
X100015000Y-101870000D03*
G04 #@! TO.P,Q2,D,D*
G04 #@! TO.N,Net-(C5-Pad1)*
X101915000Y-101870000D03*
G04 #@! TD*
G04 #@! TO.P,Q1,G,G*
G04 #@! TO.N,Net-(C4-Pad2)*
X105410000Y-103870000D03*
G04 #@! TO.P,Q1,S,S*
G04 #@! TO.N,Net-(C5-Pad1)*
X104460000Y-101870000D03*
G04 #@! TO.P,Q1,D,D*
G04 #@! TO.N,Net-(C3-Pad2)*
X106360000Y-101870000D03*
G04 #@! TD*
D13*
G04 #@! TO.P,J2,2,GND*
G04 #@! TO.N,GND*
X109664500Y-130556000D03*
D14*
G04 #@! TO.P,J2,1,PWR*
G04 #@! TO.N,VIN*
X107124500Y-130556000D03*
G04 #@! TD*
D13*
G04 #@! TO.P,J1,4,OUT*
G04 #@! TO.N,OUT*
X104127300Y-130784600D03*
G04 #@! TO.P,J1,3,SW*
G04 #@! TO.N,LED-*
X101587300Y-130784600D03*
G04 #@! TO.P,J1,2,GND*
G04 #@! TO.N,GND*
X99047300Y-130784600D03*
D14*
G04 #@! TO.P,J1,1,IN*
G04 #@! TO.N,IN*
X96507300Y-130784600D03*
G04 #@! TD*
D18*
G04 #@! TO.P,D3,2,A*
G04 #@! TO.N,VIN*
X101587300Y-126301500D03*
D19*
G04 #@! TO.P,D3,1,K*
G04 #@! TO.N,Net-(D3-Pad1)*
X99047300Y-126301500D03*
G04 #@! TD*
D20*
G04 #@! TO.P,D2,1,K*
G04 #@! TO.N,Net-(C5-Pad1)*
X90297000Y-88646000D03*
D10*
G04 #@! TO.P,D2,2,A*
G04 #@! TO.N,GND*
X90297000Y-81026000D03*
G04 #@! TD*
D20*
G04 #@! TO.P,D1,1,K*
G04 #@! TO.N,+9V*
X111760000Y-126238000D03*
D10*
G04 #@! TO.P,D1,2,A*
G04 #@! TO.N,VIN*
X104140000Y-126238000D03*
G04 #@! TD*
D21*
G04 #@! TO.P,C10,2*
G04 #@! TO.N,Net-(C10-Pad2)*
X109300000Y-96901000D03*
G04 #@! TO.P,C10,1*
G04 #@! TO.N,Net-(C10-Pad1)*
X114300000Y-96901000D03*
G04 #@! TD*
G04 #@! TO.P,C9,2*
G04 #@! TO.N,OUT*
X105393500Y-123253500D03*
G04 #@! TO.P,C9,1*
G04 #@! TO.N,Net-(C9-Pad1)*
X100393500Y-123253500D03*
G04 #@! TD*
G04 #@! TO.P,C8,2*
G04 #@! TO.N,GND*
X112990000Y-85090000D03*
D22*
G04 #@! TO.P,C8,1*
G04 #@! TO.N,Net-(C8-Pad1)*
X110490000Y-85090000D03*
G04 #@! TD*
D21*
G04 #@! TO.P,C7,2*
G04 #@! TO.N,Net-(C7-Pad2)*
X97710000Y-106045000D03*
G04 #@! TO.P,C7,1*
G04 #@! TO.N,Net-(C7-Pad1)*
X92710000Y-106045000D03*
G04 #@! TD*
G04 #@! TO.P,C6,2*
G04 #@! TO.N,Net-(C6-Pad2)*
X97710000Y-102362000D03*
G04 #@! TO.P,C6,1*
G04 #@! TO.N,Net-(C6-Pad1)*
X92710000Y-102362000D03*
G04 #@! TD*
G04 #@! TO.P,C5,2*
G04 #@! TO.N,Net-(C5-Pad2)*
X105584000Y-88265000D03*
G04 #@! TO.P,C5,1*
G04 #@! TO.N,Net-(C5-Pad1)*
X100584000Y-88265000D03*
G04 #@! TD*
G04 #@! TO.P,C4,2*
G04 #@! TO.N,Net-(C4-Pad2)*
X109300000Y-100330000D03*
G04 #@! TO.P,C4,1*
G04 #@! TO.N,Net-(C4-Pad1)*
X114300000Y-100330000D03*
G04 #@! TD*
G04 #@! TO.P,C3,2*
G04 #@! TO.N,Net-(C3-Pad2)*
X105330000Y-120015000D03*
G04 #@! TO.P,C3,1*
G04 #@! TO.N,Net-(C3-Pad1)*
X100330000Y-120015000D03*
G04 #@! TD*
G04 #@! TO.P,C2,2*
G04 #@! TO.N,GND*
X114641000Y-129794000D03*
D22*
G04 #@! TO.P,C2,1*
G04 #@! TO.N,+9V*
X112141000Y-129794000D03*
G04 #@! TD*
D21*
G04 #@! TO.P,C1,2*
G04 #@! TO.N,Net-(C1-Pad2)*
X96440000Y-122047000D03*
G04 #@! TO.P,C1,1*
G04 #@! TO.N,IN*
X91440000Y-122047000D03*
G04 #@! TD*
D23*
G04 #@! TO.N,GND*
X108839000Y-86741000D03*
X90043000Y-130429000D03*
X93345000Y-113030000D03*
X92837000Y-92837000D03*
X101600000Y-116840000D03*
X94234000Y-123063000D03*
X93472000Y-129413000D03*
X111887000Y-104775000D03*
X112522000Y-109855000D03*
X111379000Y-90170000D03*
G04 #@! TD*
D24*
G04 #@! TO.N,Net-(C10-Pad2)*
X106045000Y-93980000D02*
X107635510Y-92389490D01*
X107635510Y-92389490D02*
X107635510Y-83499490D01*
X107635510Y-83499490D02*
X107950000Y-83185000D01*
G04 #@! TO.N,Net-(C8-Pad1)*
X110490000Y-85090000D02*
X110490000Y-83667058D01*
X110490000Y-83667058D02*
X107467942Y-80645000D01*
X107467942Y-80645000D02*
X105410000Y-80645000D01*
G04 #@! TO.N,Net-(R27-Pad2)*
X102870000Y-83185000D02*
X100330000Y-80645000D01*
G04 #@! TO.N,Net-(C5-Pad2)*
X105537000Y-85471000D02*
X105537000Y-88218000D01*
X105537000Y-88218000D02*
X105584000Y-88265000D01*
G04 #@! TO.N,Net-(R18-Pad2)*
X97917000Y-86106000D02*
X99822000Y-86106000D01*
X99822000Y-86106000D02*
X100457000Y-85471000D01*
G04 #@! TO.N,Net-(C5-Pad1)*
X95377000Y-88646000D02*
X100203000Y-88646000D01*
X100203000Y-88646000D02*
X100584000Y-88265000D01*
X90297000Y-88646000D02*
X95377000Y-88646000D01*
G04 #@! TO.N,Net-(R20-Pad2)*
X90805000Y-124714000D02*
X88779499Y-122688499D01*
X88779499Y-122688499D02*
X88779499Y-93084501D01*
X88779499Y-93084501D02*
X90170000Y-91694000D01*
G04 #@! TO.N,Net-(C5-Pad1)*
X94862501Y-107816501D02*
X100209499Y-107816501D01*
X90170000Y-111760000D02*
X94113499Y-107816501D01*
X94113499Y-107816501D02*
X94862501Y-107816501D01*
X100209499Y-107816501D02*
X101727000Y-106299000D01*
G04 #@! TO.N,Net-(C7-Pad1)*
X90170000Y-98933000D02*
X91821000Y-100584000D01*
X91821000Y-100584000D02*
X91821000Y-101489058D01*
X91821000Y-101489058D02*
X91519499Y-101790559D01*
X91519499Y-101790559D02*
X91519499Y-104854499D01*
X91519499Y-104854499D02*
X92710000Y-106045000D01*
G04 #@! TO.N,Net-(C6-Pad1)*
X91948000Y-98679000D02*
X91948000Y-95885000D01*
X92710000Y-102362000D02*
X92710000Y-99441000D01*
X92710000Y-99441000D02*
X91948000Y-98679000D01*
G04 #@! TO.N,Net-(C8-Pad1)*
X110490000Y-85090000D02*
X111506000Y-86106000D01*
X114300000Y-91440000D02*
X111506000Y-88646000D01*
X111506000Y-88646000D02*
X111506000Y-86106000D01*
G04 #@! TO.N,Net-(R20-Pad2)*
X90170000Y-91694000D02*
X91560501Y-90303499D01*
X91560501Y-90303499D02*
X97288499Y-90303499D01*
X97288499Y-90303499D02*
X98425000Y-91440000D01*
G04 #@! TO.N,Net-(C5-Pad1)*
X102012750Y-111474250D02*
X102012750Y-106584750D01*
X102012750Y-106584750D02*
X101727000Y-106299000D01*
G04 #@! TO.N,Net-(C7-Pad2)*
X97710000Y-106045000D02*
X99885000Y-103870000D01*
X99885000Y-103870000D02*
X100965000Y-103870000D01*
D25*
G04 #@! TO.N,+9V*
X106045000Y-109220000D02*
X106045000Y-107061000D01*
X106045000Y-107061000D02*
X106807000Y-106299000D01*
D24*
G04 #@! TO.N,Net-(C3-Pad2)*
X104454490Y-108726875D02*
X104454490Y-106378412D01*
X104454490Y-106378412D02*
X106360000Y-104472902D01*
X106360000Y-104472902D02*
X106360000Y-101870000D01*
G04 #@! TO.N,LED-*
X100231599Y-132140301D02*
X101587300Y-130784600D01*
G04 #@! TO.N,Net-(C8-Pad1)*
X114300000Y-93980000D02*
X114300000Y-91440000D01*
G04 #@! TO.N,Net-(C3-Pad1)*
X114300000Y-116205000D02*
X114300000Y-113665000D01*
G04 #@! TO.N,Net-(C4-Pad1)*
X114300000Y-121285000D02*
X114300000Y-118745000D01*
G04 #@! TO.N,Net-(R3-Pad2)*
X95250000Y-116840000D02*
X95250000Y-114300000D01*
X95250000Y-114300000D02*
X98425000Y-114300000D01*
G04 #@! TO.N,Net-(R5-Pad1)*
X98425000Y-111760000D02*
X95250000Y-111760000D01*
G04 #@! TO.N,Net-(C3-Pad1)*
X95250000Y-109220000D02*
X98425000Y-109220000D01*
G04 #@! TO.N,Net-(C5-Pad1)*
X90170000Y-114300000D02*
X90170000Y-111760000D01*
G04 #@! TO.N,Net-(C6-Pad1)*
X91948000Y-95885000D02*
X90170000Y-94107000D01*
G04 #@! TO.N,Net-(C7-Pad1)*
X90170000Y-96520000D02*
X90170000Y-98933000D01*
G04 #@! TO.N,Net-(R16-Pad2)*
X95250000Y-91821000D02*
X95504000Y-91567000D01*
X95250000Y-94107000D02*
X95250000Y-91821000D01*
X98298000Y-94107000D02*
X98425000Y-93980000D01*
X95250000Y-94107000D02*
X98298000Y-94107000D01*
G04 #@! TO.N,Net-(C5-Pad2)*
X109220000Y-91440000D02*
X109220000Y-88900000D01*
G04 #@! TO.N,Net-(C10-Pad1)*
X112141000Y-96901000D02*
X109220000Y-93980000D01*
X114300000Y-96901000D02*
X112141000Y-96901000D01*
G04 #@! TO.N,Net-(R23-Pad2)*
X109220000Y-106045000D02*
X109220000Y-103505000D01*
X111760000Y-106045000D02*
X114300000Y-108585000D01*
X109220000Y-106045000D02*
X111760000Y-106045000D01*
G04 #@! TO.N,Net-(R10-Pad2)*
X111760000Y-111125000D02*
X109220000Y-113665000D01*
X114300000Y-111125000D02*
X111760000Y-111125000D01*
G04 #@! TO.N,Net-(C9-Pad1)*
X109220000Y-116383635D02*
X109220000Y-116205000D01*
G04 #@! TO.N,Net-(C3-Pad2)*
X105330000Y-117555000D02*
X106045000Y-116840000D01*
X105330000Y-120015000D02*
X105330000Y-117555000D01*
G04 #@! TO.N,Net-(C5-Pad1)*
X100748999Y-89064999D02*
X99949000Y-88265000D01*
G04 #@! TO.N,Net-(C6-Pad2)*
X93859499Y-97910501D02*
X95250000Y-96520000D01*
X93859499Y-100277869D02*
X93859499Y-97910501D01*
X95816630Y-102235000D02*
X93859499Y-100277869D01*
X96948000Y-102235000D02*
X95816630Y-102235000D01*
G04 #@! TO.N,Net-(C5-Pad1)*
X100748999Y-96279636D02*
X100748999Y-93128999D01*
X96472490Y-97710510D02*
X99318125Y-97710510D01*
X95250000Y-98933000D02*
X96472490Y-97710510D01*
X100748999Y-93128999D02*
X100748999Y-89064999D01*
G04 #@! TO.N,Net-(C6-Pad2)*
X95250000Y-96520000D02*
X98425000Y-96520000D01*
G04 #@! TO.N,Net-(C5-Pad1)*
X99784317Y-97244317D02*
X100748999Y-96279636D01*
X99318125Y-97710510D02*
X99784317Y-97244317D01*
G04 #@! TO.N,Net-(C10-Pad2)*
X108490490Y-97710510D02*
X109300000Y-96901000D01*
X105151875Y-97710510D02*
X108490490Y-97710510D01*
X104454490Y-97013125D02*
X105151875Y-97710510D01*
X104454490Y-95570510D02*
X104454490Y-97013125D01*
X106045000Y-93980000D02*
X104454490Y-95570510D01*
G04 #@! TO.N,Net-(C10-Pad1)*
X106680000Y-96520000D02*
X109220000Y-93980000D01*
X106045000Y-96520000D02*
X106680000Y-96520000D01*
G04 #@! TO.N,Net-(C1-Pad2)*
X95250000Y-121920000D02*
X96440000Y-121920000D01*
X90170000Y-116840000D02*
X95250000Y-121920000D01*
G04 #@! TO.N,IN*
X90170000Y-120650000D02*
X91440000Y-121920000D01*
X90170000Y-119380000D02*
X90170000Y-120650000D01*
X93071801Y-127349101D02*
X96507300Y-130784600D01*
X93071801Y-123551801D02*
X93071801Y-127349101D01*
X91440000Y-121920000D02*
X93071801Y-123551801D01*
G04 #@! TO.N,Net-(R23-Pad2)*
X109791942Y-99060000D02*
X106045000Y-99060000D01*
X110490501Y-99758559D02*
X109791942Y-99060000D01*
X110490501Y-102234499D02*
X110490501Y-99758559D01*
X109220000Y-103505000D02*
X110490501Y-102234499D01*
G04 #@! TO.N,Net-(C4-Pad1)*
X115690501Y-101720501D02*
X114300000Y-100330000D01*
X115690501Y-117354499D02*
X115690501Y-101720501D01*
X114300000Y-118745000D02*
X115690501Y-117354499D01*
G04 #@! TO.N,Net-(C10-Pad2)*
X109300000Y-97090787D02*
X109300000Y-96901000D01*
X114300000Y-102090787D02*
X109300000Y-97090787D01*
X114300000Y-103505000D02*
X114300000Y-102090787D01*
G04 #@! TO.N,Net-(C3-Pad2)*
X107315000Y-116840000D02*
X106045000Y-116840000D01*
X109220000Y-118745000D02*
X107315000Y-116840000D01*
G04 #@! TO.N,Net-(R10-Pad2)*
X108585000Y-114300000D02*
X109220000Y-113665000D01*
X106045000Y-114300000D02*
X108585000Y-114300000D01*
G04 #@! TO.N,Net-(C6-Pad1)*
X108585000Y-111760000D02*
X109220000Y-111125000D01*
X106045000Y-111760000D02*
X108585000Y-111760000D01*
G04 #@! TO.N,Net-(C3-Pad2)*
X104454490Y-115249490D02*
X104454490Y-108726875D01*
X106045000Y-116840000D02*
X104454490Y-115249490D01*
G04 #@! TO.N,Net-(C5-Pad1)*
X109220000Y-121285000D02*
X104838058Y-121285000D01*
X104838058Y-121285000D02*
X102870000Y-119316942D01*
G04 #@! TO.N,Net-(R27-Pad2)*
X100330000Y-80645000D02*
X95250000Y-80645000D01*
G04 #@! TO.N,Net-(D3-Pad1)*
X98120200Y-127228600D02*
X99047300Y-126301500D01*
X96761300Y-127228600D02*
X98120200Y-127228600D01*
D25*
G04 #@! TO.N,+9V*
X111760000Y-129540000D02*
X112395000Y-130175000D01*
X111760000Y-126619000D02*
X111760000Y-129540000D01*
G04 #@! TO.N,VIN*
X103822500Y-126301500D02*
X104140000Y-126619000D01*
X101587300Y-126301500D02*
X103822500Y-126301500D01*
X104140000Y-127571500D02*
X104140000Y-126619000D01*
X105092500Y-128524000D02*
X104140000Y-127571500D01*
X107124500Y-130556000D02*
X105092500Y-128524000D01*
D24*
G04 #@! TO.N,Net-(C4-Pad2)*
X105410000Y-101267098D02*
X105410000Y-103870000D01*
X106347098Y-100330000D02*
X105410000Y-101267098D01*
X109300000Y-100330000D02*
X106347098Y-100330000D01*
G04 #@! TO.N,Net-(C5-Pad1)*
X101915000Y-101870000D02*
X104460000Y-101870000D01*
G04 #@! TO.N,Net-(C6-Pad2)*
X99650000Y-102235000D02*
X100015000Y-101870000D01*
X96948000Y-102235000D02*
X99650000Y-102235000D01*
G04 #@! TO.N,Net-(C5-Pad1)*
X100982213Y-106299000D02*
X101915000Y-105366213D01*
X101915000Y-105366213D02*
X101915000Y-101870000D01*
X100438500Y-100393500D02*
X101915000Y-101870000D01*
X96710500Y-100393500D02*
X100438500Y-100393500D01*
X95250000Y-98933000D02*
X96710500Y-100393500D01*
X102870000Y-113792000D02*
X102870000Y-112331500D01*
X102870000Y-119316942D02*
X102870000Y-113792000D01*
D25*
G04 #@! TO.N,+9V*
X108585000Y-109220000D02*
X109220000Y-108585000D01*
X106045000Y-109220000D02*
X108585000Y-109220000D01*
D24*
G04 #@! TO.N,Net-(C9-Pad1)*
X98933000Y-124714000D02*
X100393500Y-123253500D01*
X95885000Y-124714000D02*
X98933000Y-124714000D01*
G04 #@! TO.N,LED-*
X94404088Y-132140301D02*
X95437301Y-132140301D01*
X90805000Y-128541213D02*
X94404088Y-132140301D01*
X90805000Y-127127000D02*
X90805000Y-128541213D01*
X95437301Y-132140301D02*
X100231599Y-132140301D01*
G04 #@! TO.N,Net-(C3-Pad1)*
X111379000Y-116205000D02*
X114300000Y-116205000D01*
X110617000Y-116967000D02*
X111379000Y-116205000D01*
X109887441Y-125215501D02*
X110617000Y-124485942D01*
X105156000Y-124841000D02*
X105530501Y-125215501D01*
X105530501Y-125215501D02*
X109887441Y-125215501D01*
X100330000Y-120015000D02*
X105156000Y-124841000D01*
X110617000Y-124485942D02*
X110617000Y-116967000D01*
G04 #@! TO.N,OUT*
X105965000Y-123825000D02*
X105393500Y-123253500D01*
X109220000Y-123825000D02*
X105965000Y-123825000D01*
G04 #@! TO.N,Net-(C3-Pad1)*
X100330000Y-111887000D02*
X100330000Y-111125000D01*
X98425000Y-109220000D02*
X99568000Y-110363000D01*
X100330000Y-111125000D02*
X99568000Y-110363000D01*
X100330000Y-112014000D02*
X100330000Y-120015000D01*
X100330000Y-112014000D02*
X100330000Y-111887000D01*
G04 #@! TO.N,Net-(C5-Pad1)*
X102870000Y-112331500D02*
X102012750Y-111474250D01*
G04 #@! TD*
G04 #@! TO.N,GND*
G36*
X89223833Y-124301680D02*
G01*
X89190871Y-124430056D01*
X89189148Y-124440030D01*
X89166238Y-124691777D01*
X89166132Y-124701898D01*
X89183766Y-124954071D01*
X89185279Y-124964078D01*
X89243004Y-125210187D01*
X89246098Y-125219824D01*
X89342428Y-125453538D01*
X89347023Y-125462556D01*
X89479480Y-125677862D01*
X89485458Y-125686030D01*
X89650634Y-125877390D01*
X89657841Y-125884497D01*
X89699318Y-125919300D01*
X89682606Y-125932737D01*
X89675252Y-125939691D01*
X89506104Y-126127548D01*
X89499956Y-126135589D01*
X89363019Y-126348075D01*
X89358236Y-126356994D01*
X89257032Y-126588639D01*
X89253737Y-126598209D01*
X89190871Y-126843056D01*
X89189148Y-126853030D01*
X89166238Y-127104777D01*
X89166132Y-127114898D01*
X89183766Y-127367071D01*
X89185279Y-127377078D01*
X89243004Y-127623187D01*
X89246098Y-127632824D01*
X89342428Y-127866538D01*
X89347023Y-127875556D01*
X89479480Y-128090862D01*
X89485458Y-128099030D01*
X89650634Y-128290390D01*
X89657841Y-128297497D01*
X89851489Y-128459986D01*
X89859739Y-128465849D01*
X89976499Y-128535451D01*
X89978501Y-128567724D01*
X89978501Y-128595992D01*
X89979138Y-128604936D01*
X89982088Y-128625526D01*
X89986800Y-128701485D01*
X89990440Y-128719065D01*
X89998799Y-128742219D01*
X90002289Y-128766592D01*
X90007328Y-128783822D01*
X90038827Y-128853098D01*
X90064736Y-128924868D01*
X90073395Y-128941035D01*
X90087436Y-128960010D01*
X90097810Y-128982826D01*
X90107482Y-128997950D01*
X90164327Y-129063922D01*
X90177088Y-129081167D01*
X90183191Y-129088250D01*
X90198357Y-129103415D01*
X90250181Y-129163560D01*
X90263710Y-129175362D01*
X90282452Y-129187510D01*
X93175941Y-132081000D01*
X88645000Y-132081000D01*
X88645000Y-123722846D01*
X89223833Y-124301680D01*
G37*
D26*
X89223833Y-124301680D02*
X89190871Y-124430056D01*
X89189148Y-124440030D01*
X89166238Y-124691777D01*
X89166132Y-124701898D01*
X89183766Y-124954071D01*
X89185279Y-124964078D01*
X89243004Y-125210187D01*
X89246098Y-125219824D01*
X89342428Y-125453538D01*
X89347023Y-125462556D01*
X89479480Y-125677862D01*
X89485458Y-125686030D01*
X89650634Y-125877390D01*
X89657841Y-125884497D01*
X89699318Y-125919300D01*
X89682606Y-125932737D01*
X89675252Y-125939691D01*
X89506104Y-126127548D01*
X89499956Y-126135589D01*
X89363019Y-126348075D01*
X89358236Y-126356994D01*
X89257032Y-126588639D01*
X89253737Y-126598209D01*
X89190871Y-126843056D01*
X89189148Y-126853030D01*
X89166238Y-127104777D01*
X89166132Y-127114898D01*
X89183766Y-127367071D01*
X89185279Y-127377078D01*
X89243004Y-127623187D01*
X89246098Y-127632824D01*
X89342428Y-127866538D01*
X89347023Y-127875556D01*
X89479480Y-128090862D01*
X89485458Y-128099030D01*
X89650634Y-128290390D01*
X89657841Y-128297497D01*
X89851489Y-128459986D01*
X89859739Y-128465849D01*
X89976499Y-128535451D01*
X89978501Y-128567724D01*
X89978501Y-128595992D01*
X89979138Y-128604936D01*
X89982088Y-128625526D01*
X89986800Y-128701485D01*
X89990440Y-128719065D01*
X89998799Y-128742219D01*
X90002289Y-128766592D01*
X90007328Y-128783822D01*
X90038827Y-128853098D01*
X90064736Y-128924868D01*
X90073395Y-128941035D01*
X90087436Y-128960010D01*
X90097810Y-128982826D01*
X90107482Y-128997950D01*
X90164327Y-129063922D01*
X90177088Y-129081167D01*
X90183191Y-129088250D01*
X90198357Y-129103415D01*
X90250181Y-129163560D01*
X90263710Y-129175362D01*
X90282452Y-129187510D01*
X93175941Y-132081000D01*
X88645000Y-132081000D01*
X88645000Y-123722846D01*
X89223833Y-124301680D01*
G36*
X112974480Y-117168863D02*
G01*
X112980458Y-117177030D01*
X113145634Y-117368390D01*
X113152841Y-117375497D01*
X113271610Y-117475155D01*
X113177606Y-117550737D01*
X113170252Y-117557691D01*
X113001104Y-117745548D01*
X112994956Y-117753589D01*
X112858019Y-117966075D01*
X112853236Y-117974994D01*
X112752032Y-118206639D01*
X112748737Y-118216209D01*
X112685871Y-118461056D01*
X112684148Y-118471030D01*
X112661238Y-118722777D01*
X112661132Y-118732898D01*
X112678766Y-118985071D01*
X112680279Y-118995078D01*
X112738004Y-119241187D01*
X112741098Y-119250824D01*
X112837428Y-119484538D01*
X112842023Y-119493556D01*
X112974480Y-119708862D01*
X112980458Y-119717030D01*
X113145634Y-119908390D01*
X113152841Y-119915497D01*
X113271610Y-120015155D01*
X113177606Y-120090737D01*
X113170252Y-120097691D01*
X113001104Y-120285548D01*
X112994956Y-120293589D01*
X112858019Y-120506075D01*
X112853236Y-120514994D01*
X112752032Y-120746639D01*
X112748737Y-120756209D01*
X112685871Y-121001056D01*
X112684148Y-121011030D01*
X112661238Y-121262777D01*
X112661132Y-121272898D01*
X112678766Y-121525071D01*
X112680279Y-121535078D01*
X112738004Y-121781187D01*
X112741098Y-121790824D01*
X112837428Y-122024538D01*
X112842023Y-122033556D01*
X112974480Y-122248862D01*
X112980458Y-122257030D01*
X113145634Y-122448390D01*
X113152841Y-122455497D01*
X113271610Y-122555155D01*
X113177606Y-122630737D01*
X113170252Y-122637691D01*
X113001104Y-122825548D01*
X112994956Y-122833589D01*
X112858019Y-123046075D01*
X112853236Y-123054994D01*
X112752032Y-123286639D01*
X112748737Y-123296209D01*
X112685872Y-123541052D01*
X112684150Y-123551017D01*
X112678327Y-123614912D01*
X112753273Y-123697000D01*
X115844765Y-123697000D01*
X115920233Y-123608326D01*
X115892804Y-123438981D01*
X115890390Y-123429152D01*
X115810597Y-123189287D01*
X115806642Y-123179971D01*
X115689527Y-122955949D01*
X115684134Y-122947384D01*
X115532708Y-122744969D01*
X115526014Y-122737377D01*
X115344173Y-122561776D01*
X115336352Y-122555351D01*
X115334500Y-122554064D01*
X115502968Y-122398061D01*
X115509819Y-122390610D01*
X115665451Y-122191411D01*
X115671023Y-122182961D01*
X115792804Y-121961441D01*
X115796953Y-121952209D01*
X115881751Y-121714068D01*
X115884370Y-121704292D01*
X115930063Y-121455332D01*
X115931097Y-121444599D01*
X115934082Y-121159596D01*
X115933273Y-121148844D01*
X115892804Y-120898981D01*
X115890390Y-120889152D01*
X115810597Y-120649287D01*
X115806642Y-120639971D01*
X115689527Y-120415949D01*
X115684134Y-120407384D01*
X115532708Y-120204969D01*
X115526014Y-120197377D01*
X115344173Y-120021776D01*
X115336352Y-120015351D01*
X115334500Y-120014064D01*
X115502968Y-119858061D01*
X115509819Y-119850610D01*
X115665451Y-119651411D01*
X115671023Y-119642961D01*
X115792804Y-119421441D01*
X115796953Y-119412209D01*
X115881751Y-119174068D01*
X115884370Y-119164292D01*
X115930063Y-118915332D01*
X115931097Y-118904599D01*
X115934082Y-118619596D01*
X115933273Y-118608844D01*
X115892804Y-118358981D01*
X115890390Y-118349152D01*
X115883976Y-118329870D01*
X116206001Y-118007845D01*
X116206001Y-132081000D01*
X110156219Y-132081000D01*
X110365628Y-131998933D01*
X110374915Y-131994384D01*
X110591882Y-131865046D01*
X110600301Y-131859041D01*
X110793230Y-131696003D01*
X110800555Y-131688703D01*
X110964266Y-131496344D01*
X110970301Y-131487946D01*
X111100395Y-131271431D01*
X111104977Y-131262161D01*
X111129560Y-131200071D01*
X111131837Y-131200900D01*
X111324538Y-131234878D01*
X111335499Y-131235837D01*
X112949258Y-131235837D01*
X112965634Y-131233681D01*
X113244859Y-131158863D01*
X113269339Y-131146120D01*
X113425590Y-131015010D01*
X113439761Y-130998121D01*
X113532296Y-130837844D01*
X113778177Y-130837844D01*
X113794397Y-130961053D01*
X114027868Y-131095848D01*
X114037840Y-131100498D01*
X114263247Y-131182540D01*
X114273874Y-131185387D01*
X114510103Y-131227041D01*
X114521064Y-131228000D01*
X114760936Y-131228000D01*
X114771897Y-131227041D01*
X115008126Y-131185387D01*
X115018753Y-131182540D01*
X115244160Y-131100498D01*
X115254132Y-131095848D01*
X115487603Y-130961053D01*
X115503823Y-130837844D01*
X114693191Y-130027210D01*
X114588809Y-130027210D01*
X113778177Y-130837844D01*
X113532296Y-130837844D01*
X113540359Y-130823880D01*
X113547900Y-130803163D01*
X113574235Y-130653806D01*
X113597156Y-130656823D01*
X114407790Y-129846191D01*
X114407790Y-129741809D01*
X114874210Y-129741809D01*
X114874210Y-129846191D01*
X115684844Y-130656823D01*
X115808053Y-130640603D01*
X115942848Y-130407132D01*
X115947498Y-130397160D01*
X116029540Y-130171753D01*
X116032387Y-130161126D01*
X116074041Y-129924897D01*
X116075000Y-129913936D01*
X116075000Y-129674064D01*
X116074041Y-129663103D01*
X116032387Y-129426874D01*
X116029540Y-129416247D01*
X115947498Y-129190840D01*
X115942848Y-129180868D01*
X115808053Y-128947397D01*
X115684844Y-128931177D01*
X114874210Y-129741809D01*
X114407790Y-129741809D01*
X113597156Y-128931177D01*
X113571358Y-128934573D01*
X113521944Y-128750156D01*
X113778177Y-128750156D01*
X114588809Y-129560790D01*
X114693191Y-129560790D01*
X115503823Y-128750156D01*
X115487603Y-128626947D01*
X115254132Y-128492152D01*
X115244160Y-128487502D01*
X115018753Y-128405460D01*
X115008126Y-128402613D01*
X114771897Y-128360959D01*
X114760936Y-128360000D01*
X114521064Y-128360000D01*
X114510103Y-128360959D01*
X114273874Y-128402613D01*
X114263247Y-128405460D01*
X114037840Y-128487502D01*
X114027868Y-128492152D01*
X113794397Y-128626947D01*
X113778177Y-128750156D01*
X113521944Y-128750156D01*
X113505863Y-128690142D01*
X113493120Y-128665662D01*
X113362010Y-128509410D01*
X113345121Y-128495239D01*
X113170880Y-128394641D01*
X113150163Y-128387100D01*
X112957462Y-128353122D01*
X112946501Y-128352163D01*
X112700800Y-128352163D01*
X112700800Y-127879837D01*
X112768258Y-127879837D01*
X112784634Y-127877681D01*
X113063859Y-127802863D01*
X113088339Y-127790120D01*
X113244590Y-127659010D01*
X113258761Y-127642121D01*
X113359359Y-127467880D01*
X113366900Y-127447163D01*
X113400878Y-127254462D01*
X113401837Y-127243501D01*
X113401837Y-125229742D01*
X113399681Y-125213366D01*
X113392434Y-125186320D01*
X113571873Y-125293287D01*
X113580955Y-125297756D01*
X113815991Y-125390813D01*
X113825670Y-125393772D01*
X114077904Y-125449229D01*
X114172000Y-125373574D01*
X114172000Y-124026809D01*
X114428000Y-124026809D01*
X114428000Y-125370741D01*
X114511379Y-125445815D01*
X114596504Y-125436869D01*
X114606453Y-125435007D01*
X114850398Y-125368728D01*
X114859920Y-125365300D01*
X115090131Y-125260873D01*
X115098983Y-125255966D01*
X115309536Y-125116074D01*
X115317489Y-125109815D01*
X115502968Y-124938061D01*
X115509819Y-124930610D01*
X115665451Y-124731411D01*
X115671023Y-124722961D01*
X115792804Y-124501441D01*
X115796953Y-124492209D01*
X115881751Y-124254069D01*
X115884370Y-124244292D01*
X115921188Y-124043693D01*
X115845626Y-123953000D01*
X114501809Y-123953000D01*
X114428000Y-124026809D01*
X114172000Y-124026809D01*
X114098191Y-123953000D01*
X112749708Y-123953000D01*
X112674039Y-124048471D01*
X112738004Y-124321187D01*
X112741098Y-124330824D01*
X112837428Y-124564538D01*
X112842023Y-124573556D01*
X112866262Y-124612956D01*
X112776462Y-124597122D01*
X112765501Y-124596163D01*
X111437643Y-124596163D01*
X111439634Y-124569373D01*
X111442807Y-124548137D01*
X111443500Y-124538814D01*
X111443500Y-124517350D01*
X111449382Y-124438194D01*
X111448161Y-124420282D01*
X111443500Y-124398448D01*
X111443500Y-117309346D01*
X111721346Y-117031500D01*
X112889974Y-117031500D01*
X112974480Y-117168863D01*
G37*
X112974480Y-117168863D02*
X112980458Y-117177030D01*
X113145634Y-117368390D01*
X113152841Y-117375497D01*
X113271610Y-117475155D01*
X113177606Y-117550737D01*
X113170252Y-117557691D01*
X113001104Y-117745548D01*
X112994956Y-117753589D01*
X112858019Y-117966075D01*
X112853236Y-117974994D01*
X112752032Y-118206639D01*
X112748737Y-118216209D01*
X112685871Y-118461056D01*
X112684148Y-118471030D01*
X112661238Y-118722777D01*
X112661132Y-118732898D01*
X112678766Y-118985071D01*
X112680279Y-118995078D01*
X112738004Y-119241187D01*
X112741098Y-119250824D01*
X112837428Y-119484538D01*
X112842023Y-119493556D01*
X112974480Y-119708862D01*
X112980458Y-119717030D01*
X113145634Y-119908390D01*
X113152841Y-119915497D01*
X113271610Y-120015155D01*
X113177606Y-120090737D01*
X113170252Y-120097691D01*
X113001104Y-120285548D01*
X112994956Y-120293589D01*
X112858019Y-120506075D01*
X112853236Y-120514994D01*
X112752032Y-120746639D01*
X112748737Y-120756209D01*
X112685871Y-121001056D01*
X112684148Y-121011030D01*
X112661238Y-121262777D01*
X112661132Y-121272898D01*
X112678766Y-121525071D01*
X112680279Y-121535078D01*
X112738004Y-121781187D01*
X112741098Y-121790824D01*
X112837428Y-122024538D01*
X112842023Y-122033556D01*
X112974480Y-122248862D01*
X112980458Y-122257030D01*
X113145634Y-122448390D01*
X113152841Y-122455497D01*
X113271610Y-122555155D01*
X113177606Y-122630737D01*
X113170252Y-122637691D01*
X113001104Y-122825548D01*
X112994956Y-122833589D01*
X112858019Y-123046075D01*
X112853236Y-123054994D01*
X112752032Y-123286639D01*
X112748737Y-123296209D01*
X112685872Y-123541052D01*
X112684150Y-123551017D01*
X112678327Y-123614912D01*
X112753273Y-123697000D01*
X115844765Y-123697000D01*
X115920233Y-123608326D01*
X115892804Y-123438981D01*
X115890390Y-123429152D01*
X115810597Y-123189287D01*
X115806642Y-123179971D01*
X115689527Y-122955949D01*
X115684134Y-122947384D01*
X115532708Y-122744969D01*
X115526014Y-122737377D01*
X115344173Y-122561776D01*
X115336352Y-122555351D01*
X115334500Y-122554064D01*
X115502968Y-122398061D01*
X115509819Y-122390610D01*
X115665451Y-122191411D01*
X115671023Y-122182961D01*
X115792804Y-121961441D01*
X115796953Y-121952209D01*
X115881751Y-121714068D01*
X115884370Y-121704292D01*
X115930063Y-121455332D01*
X115931097Y-121444599D01*
X115934082Y-121159596D01*
X115933273Y-121148844D01*
X115892804Y-120898981D01*
X115890390Y-120889152D01*
X115810597Y-120649287D01*
X115806642Y-120639971D01*
X115689527Y-120415949D01*
X115684134Y-120407384D01*
X115532708Y-120204969D01*
X115526014Y-120197377D01*
X115344173Y-120021776D01*
X115336352Y-120015351D01*
X115334500Y-120014064D01*
X115502968Y-119858061D01*
X115509819Y-119850610D01*
X115665451Y-119651411D01*
X115671023Y-119642961D01*
X115792804Y-119421441D01*
X115796953Y-119412209D01*
X115881751Y-119174068D01*
X115884370Y-119164292D01*
X115930063Y-118915332D01*
X115931097Y-118904599D01*
X115934082Y-118619596D01*
X115933273Y-118608844D01*
X115892804Y-118358981D01*
X115890390Y-118349152D01*
X115883976Y-118329870D01*
X116206001Y-118007845D01*
X116206001Y-132081000D01*
X110156219Y-132081000D01*
X110365628Y-131998933D01*
X110374915Y-131994384D01*
X110591882Y-131865046D01*
X110600301Y-131859041D01*
X110793230Y-131696003D01*
X110800555Y-131688703D01*
X110964266Y-131496344D01*
X110970301Y-131487946D01*
X111100395Y-131271431D01*
X111104977Y-131262161D01*
X111129560Y-131200071D01*
X111131837Y-131200900D01*
X111324538Y-131234878D01*
X111335499Y-131235837D01*
X112949258Y-131235837D01*
X112965634Y-131233681D01*
X113244859Y-131158863D01*
X113269339Y-131146120D01*
X113425590Y-131015010D01*
X113439761Y-130998121D01*
X113532296Y-130837844D01*
X113778177Y-130837844D01*
X113794397Y-130961053D01*
X114027868Y-131095848D01*
X114037840Y-131100498D01*
X114263247Y-131182540D01*
X114273874Y-131185387D01*
X114510103Y-131227041D01*
X114521064Y-131228000D01*
X114760936Y-131228000D01*
X114771897Y-131227041D01*
X115008126Y-131185387D01*
X115018753Y-131182540D01*
X115244160Y-131100498D01*
X115254132Y-131095848D01*
X115487603Y-130961053D01*
X115503823Y-130837844D01*
X114693191Y-130027210D01*
X114588809Y-130027210D01*
X113778177Y-130837844D01*
X113532296Y-130837844D01*
X113540359Y-130823880D01*
X113547900Y-130803163D01*
X113574235Y-130653806D01*
X113597156Y-130656823D01*
X114407790Y-129846191D01*
X114407790Y-129741809D01*
X114874210Y-129741809D01*
X114874210Y-129846191D01*
X115684844Y-130656823D01*
X115808053Y-130640603D01*
X115942848Y-130407132D01*
X115947498Y-130397160D01*
X116029540Y-130171753D01*
X116032387Y-130161126D01*
X116074041Y-129924897D01*
X116075000Y-129913936D01*
X116075000Y-129674064D01*
X116074041Y-129663103D01*
X116032387Y-129426874D01*
X116029540Y-129416247D01*
X115947498Y-129190840D01*
X115942848Y-129180868D01*
X115808053Y-128947397D01*
X115684844Y-128931177D01*
X114874210Y-129741809D01*
X114407790Y-129741809D01*
X113597156Y-128931177D01*
X113571358Y-128934573D01*
X113521944Y-128750156D01*
X113778177Y-128750156D01*
X114588809Y-129560790D01*
X114693191Y-129560790D01*
X115503823Y-128750156D01*
X115487603Y-128626947D01*
X115254132Y-128492152D01*
X115244160Y-128487502D01*
X115018753Y-128405460D01*
X115008126Y-128402613D01*
X114771897Y-128360959D01*
X114760936Y-128360000D01*
X114521064Y-128360000D01*
X114510103Y-128360959D01*
X114273874Y-128402613D01*
X114263247Y-128405460D01*
X114037840Y-128487502D01*
X114027868Y-128492152D01*
X113794397Y-128626947D01*
X113778177Y-128750156D01*
X113521944Y-128750156D01*
X113505863Y-128690142D01*
X113493120Y-128665662D01*
X113362010Y-128509410D01*
X113345121Y-128495239D01*
X113170880Y-128394641D01*
X113150163Y-128387100D01*
X112957462Y-128353122D01*
X112946501Y-128352163D01*
X112700800Y-128352163D01*
X112700800Y-127879837D01*
X112768258Y-127879837D01*
X112784634Y-127877681D01*
X113063859Y-127802863D01*
X113088339Y-127790120D01*
X113244590Y-127659010D01*
X113258761Y-127642121D01*
X113359359Y-127467880D01*
X113366900Y-127447163D01*
X113400878Y-127254462D01*
X113401837Y-127243501D01*
X113401837Y-125229742D01*
X113399681Y-125213366D01*
X113392434Y-125186320D01*
X113571873Y-125293287D01*
X113580955Y-125297756D01*
X113815991Y-125390813D01*
X113825670Y-125393772D01*
X114077904Y-125449229D01*
X114172000Y-125373574D01*
X114172000Y-124026809D01*
X114428000Y-124026809D01*
X114428000Y-125370741D01*
X114511379Y-125445815D01*
X114596504Y-125436869D01*
X114606453Y-125435007D01*
X114850398Y-125368728D01*
X114859920Y-125365300D01*
X115090131Y-125260873D01*
X115098983Y-125255966D01*
X115309536Y-125116074D01*
X115317489Y-125109815D01*
X115502968Y-124938061D01*
X115509819Y-124930610D01*
X115665451Y-124731411D01*
X115671023Y-124722961D01*
X115792804Y-124501441D01*
X115796953Y-124492209D01*
X115881751Y-124254069D01*
X115884370Y-124244292D01*
X115921188Y-124043693D01*
X115845626Y-123953000D01*
X114501809Y-123953000D01*
X114428000Y-124026809D01*
X114172000Y-124026809D01*
X114098191Y-123953000D01*
X112749708Y-123953000D01*
X112674039Y-124048471D01*
X112738004Y-124321187D01*
X112741098Y-124330824D01*
X112837428Y-124564538D01*
X112842023Y-124573556D01*
X112866262Y-124612956D01*
X112776462Y-124597122D01*
X112765501Y-124596163D01*
X111437643Y-124596163D01*
X111439634Y-124569373D01*
X111442807Y-124548137D01*
X111443500Y-124538814D01*
X111443500Y-124517350D01*
X111449382Y-124438194D01*
X111448161Y-124420282D01*
X111443500Y-124398448D01*
X111443500Y-117309346D01*
X111721346Y-117031500D01*
X112889974Y-117031500D01*
X112974480Y-117168863D01*
G36*
X92331537Y-127732756D02*
G01*
X92340196Y-127748923D01*
X92354237Y-127767898D01*
X92364611Y-127790714D01*
X92374283Y-127805838D01*
X92431128Y-127871810D01*
X92443889Y-127889055D01*
X92449992Y-127896138D01*
X92465158Y-127911303D01*
X92516982Y-127971448D01*
X92530511Y-127983250D01*
X92549253Y-127995398D01*
X94900263Y-130346409D01*
X94900263Y-131313801D01*
X94746434Y-131313801D01*
X91833890Y-128401258D01*
X92007968Y-128240061D01*
X92014819Y-128232610D01*
X92170451Y-128033411D01*
X92176023Y-128024961D01*
X92297804Y-127803441D01*
X92301953Y-127794209D01*
X92327660Y-127722016D01*
X92331537Y-127732756D01*
G37*
X92331537Y-127732756D02*
X92340196Y-127748923D01*
X92354237Y-127767898D01*
X92364611Y-127790714D01*
X92374283Y-127805838D01*
X92431128Y-127871810D01*
X92443889Y-127889055D01*
X92449992Y-127896138D01*
X92465158Y-127911303D01*
X92516982Y-127971448D01*
X92530511Y-127983250D01*
X92549253Y-127995398D01*
X94900263Y-130346409D01*
X94900263Y-131313801D01*
X94746434Y-131313801D01*
X91833890Y-128401258D01*
X92007968Y-128240061D01*
X92014819Y-128232610D01*
X92170451Y-128033411D01*
X92176023Y-128024961D01*
X92297804Y-127803441D01*
X92301953Y-127794209D01*
X92327660Y-127722016D01*
X92331537Y-127732756D01*
G36*
X102985634Y-127401390D02*
G01*
X102992841Y-127408497D01*
X103186489Y-127570986D01*
X103192170Y-127575023D01*
X103192170Y-127579758D01*
X103217253Y-127770283D01*
X103222329Y-127808838D01*
X103226604Y-127824792D01*
X103315025Y-128038262D01*
X103323284Y-128052566D01*
X103463943Y-128235878D01*
X103475622Y-128247557D01*
X103518361Y-128280352D01*
X104455045Y-129217037D01*
X104413723Y-129206119D01*
X104403542Y-129204306D01*
X104152070Y-129180535D01*
X104141729Y-129180408D01*
X103889751Y-129198029D01*
X103879529Y-129199593D01*
X103633813Y-129258131D01*
X103623983Y-129261343D01*
X103391127Y-129359227D01*
X103381954Y-129364002D01*
X103168212Y-129498603D01*
X103159942Y-129504812D01*
X102971054Y-129672514D01*
X102963909Y-129679991D01*
X102856927Y-129812103D01*
X102777331Y-129708746D01*
X102770372Y-129701097D01*
X102585637Y-129528829D01*
X102577521Y-129522419D01*
X102367132Y-129382636D01*
X102358078Y-129377638D01*
X102127683Y-129274095D01*
X102117934Y-129270643D01*
X101873723Y-129206119D01*
X101863542Y-129204306D01*
X101612070Y-129180535D01*
X101601729Y-129180408D01*
X101349751Y-129198029D01*
X101339529Y-129199593D01*
X101093813Y-129258131D01*
X101083983Y-129261343D01*
X100851127Y-129359227D01*
X100841954Y-129364002D01*
X100628212Y-129498603D01*
X100619942Y-129504812D01*
X100431054Y-129672514D01*
X100423909Y-129679991D01*
X100316927Y-129812103D01*
X100237331Y-129708746D01*
X100230372Y-129701097D01*
X100045637Y-129528829D01*
X100037521Y-129522419D01*
X99827132Y-129382636D01*
X99818078Y-129377638D01*
X99587683Y-129274095D01*
X99577934Y-129270643D01*
X99333723Y-129206119D01*
X99323542Y-129204306D01*
X99257702Y-129198082D01*
X99175300Y-129273061D01*
X99175300Y-130912600D01*
X98919300Y-130912600D01*
X98919300Y-129269557D01*
X98823484Y-129193886D01*
X98553813Y-129258131D01*
X98543983Y-129261343D01*
X98311127Y-129359227D01*
X98301954Y-129364002D01*
X98088212Y-129498603D01*
X98079942Y-129504812D01*
X98043223Y-129537412D01*
X98037363Y-129515542D01*
X98024620Y-129491062D01*
X97893510Y-129334810D01*
X97876621Y-129320639D01*
X97702380Y-129220041D01*
X97681663Y-129212500D01*
X97488962Y-129178522D01*
X97478001Y-129177563D01*
X96069109Y-129177563D01*
X95637102Y-128745556D01*
X95657561Y-128750054D01*
X95667589Y-128751428D01*
X95919983Y-128765539D01*
X95930101Y-128765292D01*
X96181504Y-128738869D01*
X96191453Y-128737007D01*
X96435398Y-128670728D01*
X96444920Y-128667300D01*
X96675131Y-128562873D01*
X96683983Y-128557966D01*
X96894536Y-128418074D01*
X96902489Y-128411815D01*
X97087968Y-128240061D01*
X97094819Y-128232610D01*
X97233505Y-128055100D01*
X98027609Y-128055100D01*
X98044390Y-128058897D01*
X98062286Y-128060337D01*
X98146695Y-128055100D01*
X98174978Y-128055100D01*
X98183919Y-128054463D01*
X98204525Y-128051513D01*
X98280474Y-128046800D01*
X98298054Y-128043159D01*
X98321201Y-128034803D01*
X98345576Y-128031312D01*
X98362809Y-128026273D01*
X98432096Y-127994769D01*
X98503855Y-127968864D01*
X98520023Y-127960204D01*
X98538992Y-127946167D01*
X98561812Y-127935792D01*
X98576937Y-127926119D01*
X98642917Y-127869267D01*
X98660154Y-127856512D01*
X98667237Y-127850409D01*
X98674309Y-127843337D01*
X99955558Y-127843337D01*
X99971934Y-127841181D01*
X100251159Y-127766363D01*
X100275639Y-127753620D01*
X100431890Y-127622510D01*
X100446061Y-127605621D01*
X100545521Y-127433350D01*
X100552487Y-127440794D01*
X100560412Y-127447942D01*
X100759241Y-127598861D01*
X100768257Y-127604571D01*
X100989671Y-127719832D01*
X100999520Y-127723942D01*
X101237189Y-127800249D01*
X101247590Y-127802640D01*
X101494717Y-127837812D01*
X101505372Y-127838417D01*
X101754893Y-127831448D01*
X101765498Y-127830249D01*
X102010277Y-127781337D01*
X102020528Y-127778368D01*
X102253567Y-127688913D01*
X102263171Y-127684260D01*
X102477806Y-127556819D01*
X102486488Y-127550614D01*
X102676583Y-127388831D01*
X102684096Y-127381252D01*
X102800279Y-127242300D01*
X102848312Y-127242300D01*
X102985634Y-127401390D01*
G37*
X102985634Y-127401390D02*
X102992841Y-127408497D01*
X103186489Y-127570986D01*
X103192170Y-127575023D01*
X103192170Y-127579758D01*
X103217253Y-127770283D01*
X103222329Y-127808838D01*
X103226604Y-127824792D01*
X103315025Y-128038262D01*
X103323284Y-128052566D01*
X103463943Y-128235878D01*
X103475622Y-128247557D01*
X103518361Y-128280352D01*
X104455045Y-129217037D01*
X104413723Y-129206119D01*
X104403542Y-129204306D01*
X104152070Y-129180535D01*
X104141729Y-129180408D01*
X103889751Y-129198029D01*
X103879529Y-129199593D01*
X103633813Y-129258131D01*
X103623983Y-129261343D01*
X103391127Y-129359227D01*
X103381954Y-129364002D01*
X103168212Y-129498603D01*
X103159942Y-129504812D01*
X102971054Y-129672514D01*
X102963909Y-129679991D01*
X102856927Y-129812103D01*
X102777331Y-129708746D01*
X102770372Y-129701097D01*
X102585637Y-129528829D01*
X102577521Y-129522419D01*
X102367132Y-129382636D01*
X102358078Y-129377638D01*
X102127683Y-129274095D01*
X102117934Y-129270643D01*
X101873723Y-129206119D01*
X101863542Y-129204306D01*
X101612070Y-129180535D01*
X101601729Y-129180408D01*
X101349751Y-129198029D01*
X101339529Y-129199593D01*
X101093813Y-129258131D01*
X101083983Y-129261343D01*
X100851127Y-129359227D01*
X100841954Y-129364002D01*
X100628212Y-129498603D01*
X100619942Y-129504812D01*
X100431054Y-129672514D01*
X100423909Y-129679991D01*
X100316927Y-129812103D01*
X100237331Y-129708746D01*
X100230372Y-129701097D01*
X100045637Y-129528829D01*
X100037521Y-129522419D01*
X99827132Y-129382636D01*
X99818078Y-129377638D01*
X99587683Y-129274095D01*
X99577934Y-129270643D01*
X99333723Y-129206119D01*
X99323542Y-129204306D01*
X99257702Y-129198082D01*
X99175300Y-129273061D01*
X99175300Y-130912600D01*
X98919300Y-130912600D01*
X98919300Y-129269557D01*
X98823484Y-129193886D01*
X98553813Y-129258131D01*
X98543983Y-129261343D01*
X98311127Y-129359227D01*
X98301954Y-129364002D01*
X98088212Y-129498603D01*
X98079942Y-129504812D01*
X98043223Y-129537412D01*
X98037363Y-129515542D01*
X98024620Y-129491062D01*
X97893510Y-129334810D01*
X97876621Y-129320639D01*
X97702380Y-129220041D01*
X97681663Y-129212500D01*
X97488962Y-129178522D01*
X97478001Y-129177563D01*
X96069109Y-129177563D01*
X95637102Y-128745556D01*
X95657561Y-128750054D01*
X95667589Y-128751428D01*
X95919983Y-128765539D01*
X95930101Y-128765292D01*
X96181504Y-128738869D01*
X96191453Y-128737007D01*
X96435398Y-128670728D01*
X96444920Y-128667300D01*
X96675131Y-128562873D01*
X96683983Y-128557966D01*
X96894536Y-128418074D01*
X96902489Y-128411815D01*
X97087968Y-128240061D01*
X97094819Y-128232610D01*
X97233505Y-128055100D01*
X98027609Y-128055100D01*
X98044390Y-128058897D01*
X98062286Y-128060337D01*
X98146695Y-128055100D01*
X98174978Y-128055100D01*
X98183919Y-128054463D01*
X98204525Y-128051513D01*
X98280474Y-128046800D01*
X98298054Y-128043159D01*
X98321201Y-128034803D01*
X98345576Y-128031312D01*
X98362809Y-128026273D01*
X98432096Y-127994769D01*
X98503855Y-127968864D01*
X98520023Y-127960204D01*
X98538992Y-127946167D01*
X98561812Y-127935792D01*
X98576937Y-127926119D01*
X98642917Y-127869267D01*
X98660154Y-127856512D01*
X98667237Y-127850409D01*
X98674309Y-127843337D01*
X99955558Y-127843337D01*
X99971934Y-127841181D01*
X100251159Y-127766363D01*
X100275639Y-127753620D01*
X100431890Y-127622510D01*
X100446061Y-127605621D01*
X100545521Y-127433350D01*
X100552487Y-127440794D01*
X100560412Y-127447942D01*
X100759241Y-127598861D01*
X100768257Y-127604571D01*
X100989671Y-127719832D01*
X100999520Y-127723942D01*
X101237189Y-127800249D01*
X101247590Y-127802640D01*
X101494717Y-127837812D01*
X101505372Y-127838417D01*
X101754893Y-127831448D01*
X101765498Y-127830249D01*
X102010277Y-127781337D01*
X102020528Y-127778368D01*
X102253567Y-127688913D01*
X102263171Y-127684260D01*
X102477806Y-127556819D01*
X102486488Y-127550614D01*
X102676583Y-127388831D01*
X102684096Y-127381252D01*
X102800279Y-127242300D01*
X102848312Y-127242300D01*
X102985634Y-127401390D01*
G36*
X110118163Y-127246258D02*
G01*
X110120319Y-127262634D01*
X110195137Y-127541859D01*
X110207880Y-127566339D01*
X110338990Y-127722590D01*
X110355879Y-127736761D01*
X110530120Y-127837359D01*
X110550837Y-127844900D01*
X110743538Y-127878878D01*
X110754499Y-127879837D01*
X110819200Y-127879837D01*
X110819201Y-128629783D01*
X110741641Y-128764120D01*
X110734100Y-128784837D01*
X110700122Y-128977538D01*
X110699163Y-128988499D01*
X110699163Y-129334104D01*
X110662837Y-129300229D01*
X110654721Y-129293819D01*
X110444332Y-129154036D01*
X110435278Y-129149038D01*
X110204883Y-129045495D01*
X110195134Y-129042043D01*
X109950923Y-128977519D01*
X109940742Y-128975706D01*
X109874902Y-128969482D01*
X109792500Y-129044461D01*
X109792500Y-130684000D01*
X109536500Y-130684000D01*
X109536500Y-129040957D01*
X109440684Y-128965286D01*
X109171013Y-129029531D01*
X109161183Y-129032743D01*
X108928327Y-129130627D01*
X108919154Y-129135402D01*
X108705412Y-129270003D01*
X108697142Y-129276212D01*
X108660423Y-129308812D01*
X108654563Y-129286942D01*
X108641820Y-129262462D01*
X108510710Y-129106210D01*
X108493821Y-129092039D01*
X108319580Y-128991441D01*
X108298863Y-128983900D01*
X108106162Y-128949922D01*
X108095201Y-128948963D01*
X106847954Y-128948963D01*
X105798678Y-127899688D01*
X105798665Y-127899673D01*
X105294725Y-127395734D01*
X105342968Y-127351061D01*
X105349819Y-127343610D01*
X105505451Y-127144411D01*
X105511023Y-127135961D01*
X105632804Y-126914441D01*
X105636953Y-126905209D01*
X105721751Y-126667068D01*
X105724370Y-126657292D01*
X105770063Y-126408332D01*
X105771097Y-126397599D01*
X105774082Y-126112596D01*
X105773273Y-126101844D01*
X105763580Y-126042001D01*
X109794850Y-126042001D01*
X109811631Y-126045798D01*
X109829527Y-126047238D01*
X109913936Y-126042001D01*
X109942219Y-126042001D01*
X109951160Y-126041364D01*
X109971766Y-126038414D01*
X110047715Y-126033701D01*
X110065295Y-126030060D01*
X110088442Y-126021704D01*
X110112817Y-126018213D01*
X110118163Y-126016650D01*
X110118163Y-127246258D01*
G37*
X110118163Y-127246258D02*
X110120319Y-127262634D01*
X110195137Y-127541859D01*
X110207880Y-127566339D01*
X110338990Y-127722590D01*
X110355879Y-127736761D01*
X110530120Y-127837359D01*
X110550837Y-127844900D01*
X110743538Y-127878878D01*
X110754499Y-127879837D01*
X110819200Y-127879837D01*
X110819201Y-128629783D01*
X110741641Y-128764120D01*
X110734100Y-128784837D01*
X110700122Y-128977538D01*
X110699163Y-128988499D01*
X110699163Y-129334104D01*
X110662837Y-129300229D01*
X110654721Y-129293819D01*
X110444332Y-129154036D01*
X110435278Y-129149038D01*
X110204883Y-129045495D01*
X110195134Y-129042043D01*
X109950923Y-128977519D01*
X109940742Y-128975706D01*
X109874902Y-128969482D01*
X109792500Y-129044461D01*
X109792500Y-130684000D01*
X109536500Y-130684000D01*
X109536500Y-129040957D01*
X109440684Y-128965286D01*
X109171013Y-129029531D01*
X109161183Y-129032743D01*
X108928327Y-129130627D01*
X108919154Y-129135402D01*
X108705412Y-129270003D01*
X108697142Y-129276212D01*
X108660423Y-129308812D01*
X108654563Y-129286942D01*
X108641820Y-129262462D01*
X108510710Y-129106210D01*
X108493821Y-129092039D01*
X108319580Y-128991441D01*
X108298863Y-128983900D01*
X108106162Y-128949922D01*
X108095201Y-128948963D01*
X106847954Y-128948963D01*
X105798678Y-127899688D01*
X105798665Y-127899673D01*
X105294725Y-127395734D01*
X105342968Y-127351061D01*
X105349819Y-127343610D01*
X105505451Y-127144411D01*
X105511023Y-127135961D01*
X105632804Y-126914441D01*
X105636953Y-126905209D01*
X105721751Y-126667068D01*
X105724370Y-126657292D01*
X105770063Y-126408332D01*
X105771097Y-126397599D01*
X105774082Y-126112596D01*
X105773273Y-126101844D01*
X105763580Y-126042001D01*
X109794850Y-126042001D01*
X109811631Y-126045798D01*
X109829527Y-126047238D01*
X109913936Y-126042001D01*
X109942219Y-126042001D01*
X109951160Y-126041364D01*
X109971766Y-126038414D01*
X110047715Y-126033701D01*
X110065295Y-126030060D01*
X110088442Y-126021704D01*
X110112817Y-126018213D01*
X110118163Y-126016650D01*
X110118163Y-127246258D01*
G36*
X94600102Y-122438949D02*
G01*
X94609285Y-122453503D01*
X94620921Y-122467175D01*
X94684320Y-122523167D01*
X94704310Y-122543158D01*
X94711084Y-122549031D01*
X94727735Y-122561510D01*
X94784776Y-122611887D01*
X94799782Y-122621744D01*
X94822064Y-122632206D01*
X94841761Y-122646968D01*
X94857509Y-122655590D01*
X94928773Y-122682305D01*
X94997840Y-122714732D01*
X95015395Y-122720041D01*
X95038739Y-122723529D01*
X95062207Y-122732327D01*
X95079741Y-122736182D01*
X95166586Y-122742636D01*
X95187599Y-122745776D01*
X95258088Y-122867868D01*
X95264399Y-122876881D01*
X95418587Y-123060634D01*
X95426366Y-123068413D01*
X95494482Y-123125569D01*
X95443628Y-123135639D01*
X95433889Y-123138394D01*
X95196956Y-123226508D01*
X95187783Y-123230786D01*
X94967984Y-123355649D01*
X94959613Y-123361338D01*
X94762606Y-123519737D01*
X94755252Y-123526691D01*
X94586104Y-123714548D01*
X94579956Y-123722589D01*
X94443019Y-123935075D01*
X94438236Y-123943994D01*
X94337032Y-124175639D01*
X94333737Y-124185209D01*
X94270871Y-124430056D01*
X94269148Y-124440030D01*
X94246238Y-124691777D01*
X94246132Y-124701898D01*
X94263766Y-124954071D01*
X94265279Y-124964078D01*
X94323004Y-125210187D01*
X94326098Y-125219824D01*
X94422428Y-125453538D01*
X94427023Y-125462556D01*
X94559480Y-125677862D01*
X94565458Y-125686030D01*
X94730634Y-125877390D01*
X94737841Y-125884497D01*
X94779318Y-125919300D01*
X94762606Y-125932737D01*
X94755252Y-125939691D01*
X94586104Y-126127548D01*
X94579956Y-126135589D01*
X94443019Y-126348075D01*
X94438236Y-126356994D01*
X94337032Y-126588639D01*
X94333737Y-126598209D01*
X94270871Y-126843056D01*
X94269148Y-126853030D01*
X94246238Y-127104777D01*
X94246132Y-127114898D01*
X94263766Y-127367071D01*
X94264683Y-127373137D01*
X93898301Y-127006755D01*
X93898301Y-123644392D01*
X93902098Y-123627611D01*
X93903538Y-123609715D01*
X93898301Y-123525306D01*
X93898301Y-123497023D01*
X93897664Y-123488081D01*
X93894713Y-123467475D01*
X93890001Y-123391525D01*
X93886361Y-123373946D01*
X93878003Y-123350794D01*
X93874513Y-123326423D01*
X93869474Y-123309192D01*
X93837971Y-123239905D01*
X93812065Y-123168144D01*
X93803405Y-123151976D01*
X93789366Y-123133004D01*
X93778993Y-123110189D01*
X93769320Y-123095063D01*
X93712478Y-123029096D01*
X93699714Y-123011847D01*
X93693610Y-123004763D01*
X93678441Y-122989595D01*
X93626619Y-122929454D01*
X93613091Y-122917652D01*
X93594356Y-122905509D01*
X92872097Y-122183251D01*
X92873041Y-122177898D01*
X92874000Y-122166936D01*
X92874000Y-121927064D01*
X92873041Y-121916103D01*
X92831387Y-121679874D01*
X92828540Y-121669247D01*
X92746498Y-121443840D01*
X92741848Y-121433868D01*
X92621912Y-121226132D01*
X92615601Y-121217119D01*
X92461413Y-121033366D01*
X92453634Y-121025587D01*
X92269881Y-120871399D01*
X92260868Y-120865088D01*
X92053132Y-120745152D01*
X92043160Y-120740502D01*
X91817753Y-120658460D01*
X91807126Y-120655613D01*
X91570897Y-120613959D01*
X91559936Y-120613000D01*
X91320064Y-120613000D01*
X91309102Y-120613959D01*
X91303749Y-120614903D01*
X91273768Y-120584921D01*
X91372968Y-120493061D01*
X91379819Y-120485610D01*
X91535451Y-120286411D01*
X91541023Y-120277961D01*
X91662804Y-120056441D01*
X91666953Y-120047209D01*
X91751751Y-119809068D01*
X91754370Y-119799292D01*
X91786327Y-119625172D01*
X94600102Y-122438949D01*
G37*
X94600102Y-122438949D02*
X94609285Y-122453503D01*
X94620921Y-122467175D01*
X94684320Y-122523167D01*
X94704310Y-122543158D01*
X94711084Y-122549031D01*
X94727735Y-122561510D01*
X94784776Y-122611887D01*
X94799782Y-122621744D01*
X94822064Y-122632206D01*
X94841761Y-122646968D01*
X94857509Y-122655590D01*
X94928773Y-122682305D01*
X94997840Y-122714732D01*
X95015395Y-122720041D01*
X95038739Y-122723529D01*
X95062207Y-122732327D01*
X95079741Y-122736182D01*
X95166586Y-122742636D01*
X95187599Y-122745776D01*
X95258088Y-122867868D01*
X95264399Y-122876881D01*
X95418587Y-123060634D01*
X95426366Y-123068413D01*
X95494482Y-123125569D01*
X95443628Y-123135639D01*
X95433889Y-123138394D01*
X95196956Y-123226508D01*
X95187783Y-123230786D01*
X94967984Y-123355649D01*
X94959613Y-123361338D01*
X94762606Y-123519737D01*
X94755252Y-123526691D01*
X94586104Y-123714548D01*
X94579956Y-123722589D01*
X94443019Y-123935075D01*
X94438236Y-123943994D01*
X94337032Y-124175639D01*
X94333737Y-124185209D01*
X94270871Y-124430056D01*
X94269148Y-124440030D01*
X94246238Y-124691777D01*
X94246132Y-124701898D01*
X94263766Y-124954071D01*
X94265279Y-124964078D01*
X94323004Y-125210187D01*
X94326098Y-125219824D01*
X94422428Y-125453538D01*
X94427023Y-125462556D01*
X94559480Y-125677862D01*
X94565458Y-125686030D01*
X94730634Y-125877390D01*
X94737841Y-125884497D01*
X94779318Y-125919300D01*
X94762606Y-125932737D01*
X94755252Y-125939691D01*
X94586104Y-126127548D01*
X94579956Y-126135589D01*
X94443019Y-126348075D01*
X94438236Y-126356994D01*
X94337032Y-126588639D01*
X94333737Y-126598209D01*
X94270871Y-126843056D01*
X94269148Y-126853030D01*
X94246238Y-127104777D01*
X94246132Y-127114898D01*
X94263766Y-127367071D01*
X94264683Y-127373137D01*
X93898301Y-127006755D01*
X93898301Y-123644392D01*
X93902098Y-123627611D01*
X93903538Y-123609715D01*
X93898301Y-123525306D01*
X93898301Y-123497023D01*
X93897664Y-123488081D01*
X93894713Y-123467475D01*
X93890001Y-123391525D01*
X93886361Y-123373946D01*
X93878003Y-123350794D01*
X93874513Y-123326423D01*
X93869474Y-123309192D01*
X93837971Y-123239905D01*
X93812065Y-123168144D01*
X93803405Y-123151976D01*
X93789366Y-123133004D01*
X93778993Y-123110189D01*
X93769320Y-123095063D01*
X93712478Y-123029096D01*
X93699714Y-123011847D01*
X93693610Y-123004763D01*
X93678441Y-122989595D01*
X93626619Y-122929454D01*
X93613091Y-122917652D01*
X93594356Y-122905509D01*
X92872097Y-122183251D01*
X92873041Y-122177898D01*
X92874000Y-122166936D01*
X92874000Y-121927064D01*
X92873041Y-121916103D01*
X92831387Y-121679874D01*
X92828540Y-121669247D01*
X92746498Y-121443840D01*
X92741848Y-121433868D01*
X92621912Y-121226132D01*
X92615601Y-121217119D01*
X92461413Y-121033366D01*
X92453634Y-121025587D01*
X92269881Y-120871399D01*
X92260868Y-120865088D01*
X92053132Y-120745152D01*
X92043160Y-120740502D01*
X91817753Y-120658460D01*
X91807126Y-120655613D01*
X91570897Y-120613959D01*
X91559936Y-120613000D01*
X91320064Y-120613000D01*
X91309102Y-120613959D01*
X91303749Y-120614903D01*
X91273768Y-120584921D01*
X91372968Y-120493061D01*
X91379819Y-120485610D01*
X91535451Y-120286411D01*
X91541023Y-120277961D01*
X91662804Y-120056441D01*
X91666953Y-120047209D01*
X91751751Y-119809068D01*
X91754370Y-119799292D01*
X91786327Y-119625172D01*
X94600102Y-122438949D01*
G36*
X98553000Y-118200191D02*
G01*
X98626809Y-118274000D01*
X98884854Y-118274000D01*
X98890348Y-118273760D01*
X99069461Y-118258090D01*
X99080296Y-118256180D01*
X99311996Y-118194096D01*
X99322335Y-118190333D01*
X99503501Y-118105854D01*
X99503501Y-118837031D01*
X99500119Y-118839399D01*
X99316366Y-118993587D01*
X99308587Y-119001366D01*
X99154399Y-119185119D01*
X99148088Y-119194132D01*
X99028152Y-119401868D01*
X99023502Y-119411840D01*
X98941460Y-119637247D01*
X98938613Y-119647874D01*
X98896959Y-119884103D01*
X98896000Y-119895064D01*
X98896000Y-120134936D01*
X98896959Y-120145897D01*
X98938613Y-120382126D01*
X98941460Y-120392753D01*
X99023502Y-120618160D01*
X99028152Y-120628132D01*
X99148088Y-120835868D01*
X99154399Y-120844881D01*
X99308587Y-121028634D01*
X99316366Y-121036413D01*
X99500119Y-121190601D01*
X99509132Y-121196912D01*
X99716868Y-121316848D01*
X99726840Y-121321498D01*
X99952247Y-121403540D01*
X99962874Y-121406387D01*
X100199103Y-121448041D01*
X100210064Y-121449000D01*
X100449936Y-121449000D01*
X100460897Y-121448041D01*
X100574214Y-121428060D01*
X101227556Y-122081403D01*
X101223381Y-122077899D01*
X101214368Y-122071588D01*
X101006632Y-121951652D01*
X100996660Y-121947002D01*
X100771253Y-121864960D01*
X100760626Y-121862113D01*
X100524397Y-121820459D01*
X100513436Y-121819500D01*
X100273564Y-121819500D01*
X100262603Y-121820459D01*
X100026374Y-121862113D01*
X100015747Y-121864960D01*
X99790340Y-121947002D01*
X99780368Y-121951652D01*
X99572632Y-122071588D01*
X99563619Y-122077899D01*
X99379866Y-122232087D01*
X99372087Y-122239866D01*
X99217899Y-122423619D01*
X99211588Y-122432632D01*
X99091652Y-122640368D01*
X99087002Y-122650340D01*
X99004960Y-122875747D01*
X99002113Y-122886374D01*
X98960459Y-123122603D01*
X98959500Y-123133564D01*
X98959500Y-123373436D01*
X98960459Y-123384397D01*
X98980439Y-123497714D01*
X98590654Y-123887500D01*
X97296772Y-123887500D01*
X97274527Y-123844949D01*
X97269134Y-123836384D01*
X97117708Y-123633969D01*
X97111014Y-123626377D01*
X96929174Y-123450776D01*
X96921353Y-123444351D01*
X96877426Y-123413821D01*
X97043160Y-123353498D01*
X97053132Y-123348848D01*
X97260868Y-123228912D01*
X97269881Y-123222601D01*
X97453634Y-123068413D01*
X97461413Y-123060634D01*
X97615601Y-122876881D01*
X97621912Y-122867868D01*
X97741848Y-122660132D01*
X97746498Y-122650160D01*
X97828540Y-122424753D01*
X97831387Y-122414126D01*
X97873041Y-122177897D01*
X97874000Y-122166936D01*
X97874000Y-121927064D01*
X97873041Y-121916103D01*
X97831387Y-121679874D01*
X97828540Y-121669247D01*
X97746498Y-121443840D01*
X97741848Y-121433868D01*
X97621912Y-121226132D01*
X97615601Y-121217119D01*
X97461413Y-121033366D01*
X97453634Y-121025587D01*
X97269881Y-120871399D01*
X97260868Y-120865088D01*
X97053132Y-120745152D01*
X97043160Y-120740502D01*
X96817753Y-120658460D01*
X96807126Y-120655613D01*
X96570897Y-120613959D01*
X96559936Y-120613000D01*
X96323445Y-120613000D01*
X96452968Y-120493061D01*
X96459819Y-120485610D01*
X96615451Y-120286411D01*
X96621023Y-120277961D01*
X96742804Y-120056441D01*
X96746953Y-120047209D01*
X96831751Y-119809069D01*
X96834370Y-119799292D01*
X96871188Y-119598693D01*
X96795626Y-119508000D01*
X95122000Y-119508000D01*
X95122000Y-119252000D01*
X96794765Y-119252000D01*
X96870233Y-119163326D01*
X96842804Y-118993981D01*
X96840390Y-118984152D01*
X96760597Y-118744287D01*
X96756642Y-118734971D01*
X96639527Y-118510949D01*
X96634134Y-118502384D01*
X96482708Y-118299969D01*
X96476014Y-118292377D01*
X96294173Y-118116776D01*
X96286352Y-118110351D01*
X96284500Y-118109064D01*
X96452968Y-117953061D01*
X96459819Y-117945610D01*
X96615451Y-117746411D01*
X96621023Y-117737961D01*
X96742804Y-117516441D01*
X96746953Y-117507209D01*
X96749953Y-117498785D01*
X96776042Y-117554734D01*
X96781543Y-117564262D01*
X96919129Y-117760755D01*
X96926202Y-117769183D01*
X97095817Y-117938798D01*
X97104245Y-117945871D01*
X97300738Y-118083457D01*
X97310266Y-118088958D01*
X97527665Y-118190333D01*
X97538004Y-118194096D01*
X97769704Y-118256180D01*
X97780539Y-118258090D01*
X97959652Y-118273760D01*
X97965146Y-118274000D01*
X98223191Y-118274000D01*
X98297000Y-118200191D01*
X98297000Y-116712000D01*
X98553000Y-116712000D01*
X98553000Y-118200191D01*
G37*
X98553000Y-118200191D02*
X98626809Y-118274000D01*
X98884854Y-118274000D01*
X98890348Y-118273760D01*
X99069461Y-118258090D01*
X99080296Y-118256180D01*
X99311996Y-118194096D01*
X99322335Y-118190333D01*
X99503501Y-118105854D01*
X99503501Y-118837031D01*
X99500119Y-118839399D01*
X99316366Y-118993587D01*
X99308587Y-119001366D01*
X99154399Y-119185119D01*
X99148088Y-119194132D01*
X99028152Y-119401868D01*
X99023502Y-119411840D01*
X98941460Y-119637247D01*
X98938613Y-119647874D01*
X98896959Y-119884103D01*
X98896000Y-119895064D01*
X98896000Y-120134936D01*
X98896959Y-120145897D01*
X98938613Y-120382126D01*
X98941460Y-120392753D01*
X99023502Y-120618160D01*
X99028152Y-120628132D01*
X99148088Y-120835868D01*
X99154399Y-120844881D01*
X99308587Y-121028634D01*
X99316366Y-121036413D01*
X99500119Y-121190601D01*
X99509132Y-121196912D01*
X99716868Y-121316848D01*
X99726840Y-121321498D01*
X99952247Y-121403540D01*
X99962874Y-121406387D01*
X100199103Y-121448041D01*
X100210064Y-121449000D01*
X100449936Y-121449000D01*
X100460897Y-121448041D01*
X100574214Y-121428060D01*
X101227556Y-122081403D01*
X101223381Y-122077899D01*
X101214368Y-122071588D01*
X101006632Y-121951652D01*
X100996660Y-121947002D01*
X100771253Y-121864960D01*
X100760626Y-121862113D01*
X100524397Y-121820459D01*
X100513436Y-121819500D01*
X100273564Y-121819500D01*
X100262603Y-121820459D01*
X100026374Y-121862113D01*
X100015747Y-121864960D01*
X99790340Y-121947002D01*
X99780368Y-121951652D01*
X99572632Y-122071588D01*
X99563619Y-122077899D01*
X99379866Y-122232087D01*
X99372087Y-122239866D01*
X99217899Y-122423619D01*
X99211588Y-122432632D01*
X99091652Y-122640368D01*
X99087002Y-122650340D01*
X99004960Y-122875747D01*
X99002113Y-122886374D01*
X98960459Y-123122603D01*
X98959500Y-123133564D01*
X98959500Y-123373436D01*
X98960459Y-123384397D01*
X98980439Y-123497714D01*
X98590654Y-123887500D01*
X97296772Y-123887500D01*
X97274527Y-123844949D01*
X97269134Y-123836384D01*
X97117708Y-123633969D01*
X97111014Y-123626377D01*
X96929174Y-123450776D01*
X96921353Y-123444351D01*
X96877426Y-123413821D01*
X97043160Y-123353498D01*
X97053132Y-123348848D01*
X97260868Y-123228912D01*
X97269881Y-123222601D01*
X97453634Y-123068413D01*
X97461413Y-123060634D01*
X97615601Y-122876881D01*
X97621912Y-122867868D01*
X97741848Y-122660132D01*
X97746498Y-122650160D01*
X97828540Y-122424753D01*
X97831387Y-122414126D01*
X97873041Y-122177897D01*
X97874000Y-122166936D01*
X97874000Y-121927064D01*
X97873041Y-121916103D01*
X97831387Y-121679874D01*
X97828540Y-121669247D01*
X97746498Y-121443840D01*
X97741848Y-121433868D01*
X97621912Y-121226132D01*
X97615601Y-121217119D01*
X97461413Y-121033366D01*
X97453634Y-121025587D01*
X97269881Y-120871399D01*
X97260868Y-120865088D01*
X97053132Y-120745152D01*
X97043160Y-120740502D01*
X96817753Y-120658460D01*
X96807126Y-120655613D01*
X96570897Y-120613959D01*
X96559936Y-120613000D01*
X96323445Y-120613000D01*
X96452968Y-120493061D01*
X96459819Y-120485610D01*
X96615451Y-120286411D01*
X96621023Y-120277961D01*
X96742804Y-120056441D01*
X96746953Y-120047209D01*
X96831751Y-119809069D01*
X96834370Y-119799292D01*
X96871188Y-119598693D01*
X96795626Y-119508000D01*
X95122000Y-119508000D01*
X95122000Y-119252000D01*
X96794765Y-119252000D01*
X96870233Y-119163326D01*
X96842804Y-118993981D01*
X96840390Y-118984152D01*
X96760597Y-118744287D01*
X96756642Y-118734971D01*
X96639527Y-118510949D01*
X96634134Y-118502384D01*
X96482708Y-118299969D01*
X96476014Y-118292377D01*
X96294173Y-118116776D01*
X96286352Y-118110351D01*
X96284500Y-118109064D01*
X96452968Y-117953061D01*
X96459819Y-117945610D01*
X96615451Y-117746411D01*
X96621023Y-117737961D01*
X96742804Y-117516441D01*
X96746953Y-117507209D01*
X96749953Y-117498785D01*
X96776042Y-117554734D01*
X96781543Y-117564262D01*
X96919129Y-117760755D01*
X96926202Y-117769183D01*
X97095817Y-117938798D01*
X97104245Y-117945871D01*
X97300738Y-118083457D01*
X97310266Y-118088958D01*
X97527665Y-118190333D01*
X97538004Y-118194096D01*
X97769704Y-118256180D01*
X97780539Y-118258090D01*
X97959652Y-118273760D01*
X97965146Y-118274000D01*
X98223191Y-118274000D01*
X98297000Y-118200191D01*
X98297000Y-116712000D01*
X98553000Y-116712000D01*
X98553000Y-118200191D01*
G36*
X101186250Y-111381660D02*
G01*
X101182453Y-111398441D01*
X101181013Y-111416336D01*
X101186250Y-111500745D01*
X101186250Y-111529027D01*
X101186887Y-111537969D01*
X101189838Y-111558575D01*
X101194550Y-111634524D01*
X101198190Y-111652103D01*
X101206548Y-111675256D01*
X101210038Y-111699626D01*
X101215077Y-111716858D01*
X101246581Y-111786147D01*
X101272486Y-111857906D01*
X101281146Y-111874073D01*
X101295185Y-111893045D01*
X101305558Y-111915861D01*
X101315231Y-111930986D01*
X101372080Y-111996964D01*
X101384838Y-112014204D01*
X101390941Y-112021287D01*
X101406102Y-112036447D01*
X101457930Y-112096597D01*
X101471460Y-112108399D01*
X101490200Y-112120546D01*
X102043501Y-112673848D01*
X102043500Y-113846767D01*
X102043501Y-113846781D01*
X102043500Y-119224352D01*
X102039703Y-119241133D01*
X102038263Y-119259028D01*
X102043500Y-119343437D01*
X102043500Y-119371719D01*
X102044137Y-119380661D01*
X102047088Y-119401267D01*
X102051800Y-119477216D01*
X102055440Y-119494795D01*
X102063798Y-119517948D01*
X102067288Y-119542318D01*
X102072327Y-119559550D01*
X102103831Y-119628839D01*
X102129736Y-119700598D01*
X102138396Y-119716765D01*
X102152435Y-119735737D01*
X102162808Y-119758553D01*
X102172481Y-119773678D01*
X102229330Y-119839656D01*
X102242088Y-119856896D01*
X102248191Y-119863979D01*
X102263352Y-119879139D01*
X102315180Y-119939289D01*
X102328709Y-119951091D01*
X102347454Y-119963241D01*
X104188160Y-121803948D01*
X104197344Y-121818504D01*
X104208979Y-121832175D01*
X104272386Y-121888174D01*
X104292369Y-121908158D01*
X104299144Y-121914032D01*
X104315786Y-121926503D01*
X104372833Y-121976886D01*
X104387839Y-121986743D01*
X104410123Y-121997205D01*
X104429819Y-122011967D01*
X104445567Y-122020589D01*
X104516823Y-122047302D01*
X104570994Y-122072735D01*
X104563619Y-122077899D01*
X104379866Y-122232087D01*
X104372087Y-122239866D01*
X104217899Y-122423619D01*
X104211588Y-122432632D01*
X104103570Y-122619725D01*
X101743060Y-120259215D01*
X101763041Y-120145897D01*
X101764000Y-120134936D01*
X101764000Y-119895064D01*
X101763041Y-119884103D01*
X101721387Y-119647874D01*
X101718540Y-119637247D01*
X101636498Y-119411840D01*
X101631848Y-119401868D01*
X101511912Y-119194132D01*
X101505601Y-119185119D01*
X101351413Y-119001366D01*
X101343634Y-118993587D01*
X101159881Y-118839399D01*
X101156500Y-118837032D01*
X101156500Y-111217590D01*
X101160297Y-111200809D01*
X101161737Y-111182914D01*
X101156500Y-111098505D01*
X101156500Y-111070222D01*
X101155863Y-111061280D01*
X101152912Y-111040674D01*
X101148200Y-110964725D01*
X101144560Y-110947146D01*
X101136202Y-110923993D01*
X101132712Y-110899623D01*
X101127673Y-110882391D01*
X101096169Y-110813102D01*
X101070264Y-110741343D01*
X101061604Y-110725176D01*
X101047565Y-110706204D01*
X101037192Y-110683388D01*
X101027519Y-110668263D01*
X100970674Y-110602291D01*
X100957913Y-110585046D01*
X100951809Y-110577962D01*
X100936645Y-110562799D01*
X100884819Y-110502653D01*
X100871291Y-110490851D01*
X100852552Y-110478705D01*
X100266837Y-109892991D01*
X100266837Y-108642819D01*
X100273218Y-108642364D01*
X100293824Y-108639414D01*
X100369773Y-108634701D01*
X100387353Y-108631060D01*
X100410500Y-108622704D01*
X100434875Y-108619213D01*
X100452108Y-108614174D01*
X100521395Y-108582670D01*
X100593154Y-108556765D01*
X100609322Y-108548105D01*
X100628291Y-108534068D01*
X100651111Y-108523693D01*
X100666236Y-108514020D01*
X100732215Y-108457169D01*
X100749452Y-108444414D01*
X100756533Y-108438312D01*
X100771699Y-108423148D01*
X100831847Y-108371320D01*
X100843649Y-108357791D01*
X100855796Y-108339050D01*
X101186251Y-108008596D01*
X101186250Y-111381660D01*
G37*
X101186250Y-111381660D02*
X101182453Y-111398441D01*
X101181013Y-111416336D01*
X101186250Y-111500745D01*
X101186250Y-111529027D01*
X101186887Y-111537969D01*
X101189838Y-111558575D01*
X101194550Y-111634524D01*
X101198190Y-111652103D01*
X101206548Y-111675256D01*
X101210038Y-111699626D01*
X101215077Y-111716858D01*
X101246581Y-111786147D01*
X101272486Y-111857906D01*
X101281146Y-111874073D01*
X101295185Y-111893045D01*
X101305558Y-111915861D01*
X101315231Y-111930986D01*
X101372080Y-111996964D01*
X101384838Y-112014204D01*
X101390941Y-112021287D01*
X101406102Y-112036447D01*
X101457930Y-112096597D01*
X101471460Y-112108399D01*
X101490200Y-112120546D01*
X102043501Y-112673848D01*
X102043500Y-113846767D01*
X102043501Y-113846781D01*
X102043500Y-119224352D01*
X102039703Y-119241133D01*
X102038263Y-119259028D01*
X102043500Y-119343437D01*
X102043500Y-119371719D01*
X102044137Y-119380661D01*
X102047088Y-119401267D01*
X102051800Y-119477216D01*
X102055440Y-119494795D01*
X102063798Y-119517948D01*
X102067288Y-119542318D01*
X102072327Y-119559550D01*
X102103831Y-119628839D01*
X102129736Y-119700598D01*
X102138396Y-119716765D01*
X102152435Y-119735737D01*
X102162808Y-119758553D01*
X102172481Y-119773678D01*
X102229330Y-119839656D01*
X102242088Y-119856896D01*
X102248191Y-119863979D01*
X102263352Y-119879139D01*
X102315180Y-119939289D01*
X102328709Y-119951091D01*
X102347454Y-119963241D01*
X104188160Y-121803948D01*
X104197344Y-121818504D01*
X104208979Y-121832175D01*
X104272386Y-121888174D01*
X104292369Y-121908158D01*
X104299144Y-121914032D01*
X104315786Y-121926503D01*
X104372833Y-121976886D01*
X104387839Y-121986743D01*
X104410123Y-121997205D01*
X104429819Y-122011967D01*
X104445567Y-122020589D01*
X104516823Y-122047302D01*
X104570994Y-122072735D01*
X104563619Y-122077899D01*
X104379866Y-122232087D01*
X104372087Y-122239866D01*
X104217899Y-122423619D01*
X104211588Y-122432632D01*
X104103570Y-122619725D01*
X101743060Y-120259215D01*
X101763041Y-120145897D01*
X101764000Y-120134936D01*
X101764000Y-119895064D01*
X101763041Y-119884103D01*
X101721387Y-119647874D01*
X101718540Y-119637247D01*
X101636498Y-119411840D01*
X101631848Y-119401868D01*
X101511912Y-119194132D01*
X101505601Y-119185119D01*
X101351413Y-119001366D01*
X101343634Y-118993587D01*
X101159881Y-118839399D01*
X101156500Y-118837032D01*
X101156500Y-111217590D01*
X101160297Y-111200809D01*
X101161737Y-111182914D01*
X101156500Y-111098505D01*
X101156500Y-111070222D01*
X101155863Y-111061280D01*
X101152912Y-111040674D01*
X101148200Y-110964725D01*
X101144560Y-110947146D01*
X101136202Y-110923993D01*
X101132712Y-110899623D01*
X101127673Y-110882391D01*
X101096169Y-110813102D01*
X101070264Y-110741343D01*
X101061604Y-110725176D01*
X101047565Y-110706204D01*
X101037192Y-110683388D01*
X101027519Y-110668263D01*
X100970674Y-110602291D01*
X100957913Y-110585046D01*
X100951809Y-110577962D01*
X100936645Y-110562799D01*
X100884819Y-110502653D01*
X100871291Y-110490851D01*
X100852552Y-110478705D01*
X100266837Y-109892991D01*
X100266837Y-108642819D01*
X100273218Y-108642364D01*
X100293824Y-108639414D01*
X100369773Y-108634701D01*
X100387353Y-108631060D01*
X100410500Y-108622704D01*
X100434875Y-108619213D01*
X100452108Y-108614174D01*
X100521395Y-108582670D01*
X100593154Y-108556765D01*
X100609322Y-108548105D01*
X100628291Y-108534068D01*
X100651111Y-108523693D01*
X100666236Y-108514020D01*
X100732215Y-108457169D01*
X100749452Y-108444414D01*
X100756533Y-108438312D01*
X100771699Y-108423148D01*
X100831847Y-108371320D01*
X100843649Y-108357791D01*
X100855796Y-108339050D01*
X101186251Y-108008596D01*
X101186250Y-111381660D01*
G36*
X93630279Y-109470078D02*
G01*
X93688004Y-109716187D01*
X93691098Y-109725824D01*
X93787428Y-109959538D01*
X93792023Y-109968556D01*
X93924480Y-110183862D01*
X93930458Y-110192030D01*
X94095634Y-110383390D01*
X94102841Y-110390497D01*
X94221610Y-110490155D01*
X94127606Y-110565737D01*
X94120252Y-110572691D01*
X93951104Y-110760548D01*
X93944956Y-110768589D01*
X93808019Y-110981075D01*
X93803236Y-110989994D01*
X93702032Y-111221639D01*
X93698737Y-111231209D01*
X93635871Y-111476056D01*
X93634148Y-111486030D01*
X93611238Y-111737777D01*
X93611132Y-111747898D01*
X93628766Y-112000071D01*
X93630279Y-112010078D01*
X93688004Y-112256187D01*
X93691098Y-112265824D01*
X93787428Y-112499538D01*
X93792023Y-112508556D01*
X93924480Y-112723862D01*
X93930458Y-112732030D01*
X94095634Y-112923390D01*
X94102841Y-112930497D01*
X94221610Y-113030155D01*
X94127606Y-113105737D01*
X94120252Y-113112691D01*
X93951104Y-113300548D01*
X93944956Y-113308589D01*
X93808019Y-113521075D01*
X93803236Y-113529994D01*
X93702032Y-113761639D01*
X93698737Y-113771209D01*
X93635871Y-114016056D01*
X93634148Y-114026030D01*
X93611238Y-114277777D01*
X93611132Y-114287898D01*
X93628766Y-114540071D01*
X93630279Y-114550078D01*
X93688004Y-114796187D01*
X93691098Y-114805824D01*
X93787428Y-115039538D01*
X93792023Y-115048556D01*
X93924480Y-115263862D01*
X93930458Y-115272030D01*
X94095634Y-115463390D01*
X94102841Y-115470497D01*
X94221610Y-115570155D01*
X94127606Y-115645737D01*
X94120252Y-115652691D01*
X93951104Y-115840548D01*
X93944956Y-115848589D01*
X93808019Y-116061075D01*
X93803236Y-116069994D01*
X93702032Y-116301639D01*
X93698737Y-116311209D01*
X93635871Y-116556056D01*
X93634148Y-116566030D01*
X93611238Y-116817777D01*
X93611132Y-116827898D01*
X93628766Y-117080071D01*
X93630279Y-117090078D01*
X93688004Y-117336187D01*
X93691098Y-117345824D01*
X93787428Y-117579538D01*
X93792023Y-117588556D01*
X93924480Y-117803862D01*
X93930458Y-117812030D01*
X94095634Y-118003390D01*
X94102841Y-118010497D01*
X94221610Y-118110155D01*
X94127606Y-118185737D01*
X94120252Y-118192691D01*
X93951104Y-118380548D01*
X93944956Y-118388589D01*
X93808019Y-118601075D01*
X93803236Y-118609994D01*
X93702032Y-118841639D01*
X93698737Y-118851209D01*
X93635871Y-119096056D01*
X93634148Y-119106030D01*
X93631706Y-119132861D01*
X91754954Y-117256109D01*
X91800063Y-117010332D01*
X91801097Y-116999599D01*
X91804082Y-116714596D01*
X91803273Y-116703844D01*
X91762804Y-116453981D01*
X91760390Y-116444152D01*
X91680597Y-116204287D01*
X91676642Y-116194971D01*
X91559527Y-115970949D01*
X91554134Y-115962384D01*
X91402708Y-115759969D01*
X91396014Y-115752377D01*
X91214173Y-115576776D01*
X91206352Y-115570351D01*
X91204500Y-115569064D01*
X91372968Y-115413061D01*
X91379819Y-115405610D01*
X91535451Y-115206411D01*
X91541023Y-115197961D01*
X91662804Y-114976441D01*
X91666953Y-114967209D01*
X91751751Y-114729068D01*
X91754370Y-114719292D01*
X91800063Y-114470332D01*
X91801097Y-114459599D01*
X91804082Y-114174596D01*
X91803273Y-114163844D01*
X91762804Y-113913981D01*
X91760390Y-113904152D01*
X91680597Y-113664287D01*
X91676642Y-113654971D01*
X91559527Y-113430949D01*
X91554134Y-113422384D01*
X91402708Y-113219969D01*
X91396014Y-113212377D01*
X91214173Y-113036776D01*
X91206352Y-113030351D01*
X91204500Y-113029064D01*
X91372968Y-112873061D01*
X91379819Y-112865610D01*
X91535451Y-112666411D01*
X91541023Y-112657961D01*
X91662804Y-112436441D01*
X91666953Y-112427209D01*
X91751751Y-112189068D01*
X91754370Y-112179292D01*
X91800063Y-111930332D01*
X91801097Y-111919599D01*
X91804082Y-111634596D01*
X91803273Y-111623844D01*
X91762804Y-111373981D01*
X91760390Y-111364152D01*
X91753976Y-111344870D01*
X93630081Y-109468765D01*
X93630279Y-109470078D01*
G37*
X93630279Y-109470078D02*
X93688004Y-109716187D01*
X93691098Y-109725824D01*
X93787428Y-109959538D01*
X93792023Y-109968556D01*
X93924480Y-110183862D01*
X93930458Y-110192030D01*
X94095634Y-110383390D01*
X94102841Y-110390497D01*
X94221610Y-110490155D01*
X94127606Y-110565737D01*
X94120252Y-110572691D01*
X93951104Y-110760548D01*
X93944956Y-110768589D01*
X93808019Y-110981075D01*
X93803236Y-110989994D01*
X93702032Y-111221639D01*
X93698737Y-111231209D01*
X93635871Y-111476056D01*
X93634148Y-111486030D01*
X93611238Y-111737777D01*
X93611132Y-111747898D01*
X93628766Y-112000071D01*
X93630279Y-112010078D01*
X93688004Y-112256187D01*
X93691098Y-112265824D01*
X93787428Y-112499538D01*
X93792023Y-112508556D01*
X93924480Y-112723862D01*
X93930458Y-112732030D01*
X94095634Y-112923390D01*
X94102841Y-112930497D01*
X94221610Y-113030155D01*
X94127606Y-113105737D01*
X94120252Y-113112691D01*
X93951104Y-113300548D01*
X93944956Y-113308589D01*
X93808019Y-113521075D01*
X93803236Y-113529994D01*
X93702032Y-113761639D01*
X93698737Y-113771209D01*
X93635871Y-114016056D01*
X93634148Y-114026030D01*
X93611238Y-114277777D01*
X93611132Y-114287898D01*
X93628766Y-114540071D01*
X93630279Y-114550078D01*
X93688004Y-114796187D01*
X93691098Y-114805824D01*
X93787428Y-115039538D01*
X93792023Y-115048556D01*
X93924480Y-115263862D01*
X93930458Y-115272030D01*
X94095634Y-115463390D01*
X94102841Y-115470497D01*
X94221610Y-115570155D01*
X94127606Y-115645737D01*
X94120252Y-115652691D01*
X93951104Y-115840548D01*
X93944956Y-115848589D01*
X93808019Y-116061075D01*
X93803236Y-116069994D01*
X93702032Y-116301639D01*
X93698737Y-116311209D01*
X93635871Y-116556056D01*
X93634148Y-116566030D01*
X93611238Y-116817777D01*
X93611132Y-116827898D01*
X93628766Y-117080071D01*
X93630279Y-117090078D01*
X93688004Y-117336187D01*
X93691098Y-117345824D01*
X93787428Y-117579538D01*
X93792023Y-117588556D01*
X93924480Y-117803862D01*
X93930458Y-117812030D01*
X94095634Y-118003390D01*
X94102841Y-118010497D01*
X94221610Y-118110155D01*
X94127606Y-118185737D01*
X94120252Y-118192691D01*
X93951104Y-118380548D01*
X93944956Y-118388589D01*
X93808019Y-118601075D01*
X93803236Y-118609994D01*
X93702032Y-118841639D01*
X93698737Y-118851209D01*
X93635871Y-119096056D01*
X93634148Y-119106030D01*
X93631706Y-119132861D01*
X91754954Y-117256109D01*
X91800063Y-117010332D01*
X91801097Y-116999599D01*
X91804082Y-116714596D01*
X91803273Y-116703844D01*
X91762804Y-116453981D01*
X91760390Y-116444152D01*
X91680597Y-116204287D01*
X91676642Y-116194971D01*
X91559527Y-115970949D01*
X91554134Y-115962384D01*
X91402708Y-115759969D01*
X91396014Y-115752377D01*
X91214173Y-115576776D01*
X91206352Y-115570351D01*
X91204500Y-115569064D01*
X91372968Y-115413061D01*
X91379819Y-115405610D01*
X91535451Y-115206411D01*
X91541023Y-115197961D01*
X91662804Y-114976441D01*
X91666953Y-114967209D01*
X91751751Y-114729068D01*
X91754370Y-114719292D01*
X91800063Y-114470332D01*
X91801097Y-114459599D01*
X91804082Y-114174596D01*
X91803273Y-114163844D01*
X91762804Y-113913981D01*
X91760390Y-113904152D01*
X91680597Y-113664287D01*
X91676642Y-113654971D01*
X91559527Y-113430949D01*
X91554134Y-113422384D01*
X91402708Y-113219969D01*
X91396014Y-113212377D01*
X91214173Y-113036776D01*
X91206352Y-113030351D01*
X91204500Y-113029064D01*
X91372968Y-112873061D01*
X91379819Y-112865610D01*
X91535451Y-112666411D01*
X91541023Y-112657961D01*
X91662804Y-112436441D01*
X91666953Y-112427209D01*
X91751751Y-112189068D01*
X91754370Y-112179292D01*
X91800063Y-111930332D01*
X91801097Y-111919599D01*
X91804082Y-111634596D01*
X91803273Y-111623844D01*
X91762804Y-111373981D01*
X91760390Y-111364152D01*
X91753976Y-111344870D01*
X93630081Y-109468765D01*
X93630279Y-109470078D01*
G36*
X112718833Y-108172679D02*
G01*
X112685871Y-108301056D01*
X112684148Y-108311030D01*
X112661238Y-108562777D01*
X112661132Y-108572898D01*
X112678766Y-108825071D01*
X112680279Y-108835078D01*
X112738004Y-109081187D01*
X112741098Y-109090824D01*
X112837428Y-109324538D01*
X112842023Y-109333556D01*
X112974480Y-109548862D01*
X112980458Y-109557030D01*
X113145634Y-109748390D01*
X113152841Y-109755497D01*
X113271610Y-109855155D01*
X113177606Y-109930737D01*
X113170252Y-109937691D01*
X113001104Y-110125548D01*
X112994956Y-110133589D01*
X112888678Y-110298500D01*
X111852586Y-110298500D01*
X111835810Y-110294704D01*
X111817915Y-110293264D01*
X111733515Y-110298500D01*
X111705221Y-110298500D01*
X111696279Y-110299137D01*
X111675673Y-110302088D01*
X111599726Y-110306800D01*
X111582146Y-110310440D01*
X111558994Y-110318798D01*
X111534622Y-110322288D01*
X111517391Y-110327327D01*
X111448106Y-110358829D01*
X111376343Y-110384736D01*
X111360176Y-110393396D01*
X111341202Y-110407435D01*
X111318387Y-110417809D01*
X111303262Y-110427481D01*
X111237292Y-110484325D01*
X111220045Y-110497087D01*
X111212962Y-110503191D01*
X111197792Y-110518361D01*
X111137653Y-110570180D01*
X111125851Y-110583709D01*
X111113708Y-110602444D01*
X110835715Y-110880438D01*
X110812804Y-110738981D01*
X110810390Y-110729152D01*
X110730597Y-110489287D01*
X110726642Y-110479971D01*
X110609527Y-110255949D01*
X110604134Y-110247384D01*
X110452708Y-110044969D01*
X110446014Y-110037377D01*
X110264173Y-109861776D01*
X110256352Y-109855351D01*
X110254500Y-109854064D01*
X110422968Y-109698061D01*
X110429819Y-109690610D01*
X110585451Y-109491411D01*
X110591023Y-109482961D01*
X110712804Y-109261441D01*
X110716953Y-109252209D01*
X110801751Y-109014068D01*
X110804370Y-109004292D01*
X110850063Y-108755332D01*
X110851097Y-108744599D01*
X110854082Y-108459596D01*
X110853273Y-108448844D01*
X110812804Y-108198981D01*
X110810390Y-108189152D01*
X110730597Y-107949287D01*
X110726642Y-107939971D01*
X110609527Y-107715949D01*
X110604134Y-107707384D01*
X110452708Y-107504969D01*
X110446014Y-107497377D01*
X110264173Y-107321776D01*
X110256352Y-107315351D01*
X110254500Y-107314064D01*
X110422968Y-107158061D01*
X110429819Y-107150610D01*
X110585451Y-106951411D01*
X110591023Y-106942961D01*
X110630309Y-106871500D01*
X111417655Y-106871500D01*
X112718833Y-108172679D01*
G37*
X112718833Y-108172679D02*
X112685871Y-108301056D01*
X112684148Y-108311030D01*
X112661238Y-108562777D01*
X112661132Y-108572898D01*
X112678766Y-108825071D01*
X112680279Y-108835078D01*
X112738004Y-109081187D01*
X112741098Y-109090824D01*
X112837428Y-109324538D01*
X112842023Y-109333556D01*
X112974480Y-109548862D01*
X112980458Y-109557030D01*
X113145634Y-109748390D01*
X113152841Y-109755497D01*
X113271610Y-109855155D01*
X113177606Y-109930737D01*
X113170252Y-109937691D01*
X113001104Y-110125548D01*
X112994956Y-110133589D01*
X112888678Y-110298500D01*
X111852586Y-110298500D01*
X111835810Y-110294704D01*
X111817915Y-110293264D01*
X111733515Y-110298500D01*
X111705221Y-110298500D01*
X111696279Y-110299137D01*
X111675673Y-110302088D01*
X111599726Y-110306800D01*
X111582146Y-110310440D01*
X111558994Y-110318798D01*
X111534622Y-110322288D01*
X111517391Y-110327327D01*
X111448106Y-110358829D01*
X111376343Y-110384736D01*
X111360176Y-110393396D01*
X111341202Y-110407435D01*
X111318387Y-110417809D01*
X111303262Y-110427481D01*
X111237292Y-110484325D01*
X111220045Y-110497087D01*
X111212962Y-110503191D01*
X111197792Y-110518361D01*
X111137653Y-110570180D01*
X111125851Y-110583709D01*
X111113708Y-110602444D01*
X110835715Y-110880438D01*
X110812804Y-110738981D01*
X110810390Y-110729152D01*
X110730597Y-110489287D01*
X110726642Y-110479971D01*
X110609527Y-110255949D01*
X110604134Y-110247384D01*
X110452708Y-110044969D01*
X110446014Y-110037377D01*
X110264173Y-109861776D01*
X110256352Y-109855351D01*
X110254500Y-109854064D01*
X110422968Y-109698061D01*
X110429819Y-109690610D01*
X110585451Y-109491411D01*
X110591023Y-109482961D01*
X110712804Y-109261441D01*
X110716953Y-109252209D01*
X110801751Y-109014068D01*
X110804370Y-109004292D01*
X110850063Y-108755332D01*
X110851097Y-108744599D01*
X110854082Y-108459596D01*
X110853273Y-108448844D01*
X110812804Y-108198981D01*
X110810390Y-108189152D01*
X110730597Y-107949287D01*
X110726642Y-107939971D01*
X110609527Y-107715949D01*
X110604134Y-107707384D01*
X110452708Y-107504969D01*
X110446014Y-107497377D01*
X110264173Y-107321776D01*
X110256352Y-107315351D01*
X110254500Y-107314064D01*
X110422968Y-107158061D01*
X110429819Y-107150610D01*
X110585451Y-106951411D01*
X110591023Y-106942961D01*
X110630309Y-106871500D01*
X111417655Y-106871500D01*
X112718833Y-108172679D01*
G36*
X113273778Y-102233412D02*
G01*
X113177606Y-102310737D01*
X113170252Y-102317691D01*
X113001104Y-102505548D01*
X112994956Y-102513589D01*
X112858019Y-102726075D01*
X112853236Y-102734994D01*
X112752032Y-102966639D01*
X112748737Y-102976209D01*
X112685871Y-103221056D01*
X112684148Y-103231030D01*
X112661238Y-103482777D01*
X112661132Y-103492898D01*
X112678766Y-103745071D01*
X112680279Y-103755078D01*
X112738004Y-104001187D01*
X112741098Y-104010824D01*
X112837428Y-104244538D01*
X112842023Y-104253556D01*
X112974480Y-104468862D01*
X112980458Y-104477030D01*
X113145634Y-104668390D01*
X113152841Y-104675497D01*
X113271610Y-104775155D01*
X113177606Y-104850737D01*
X113170252Y-104857691D01*
X113001104Y-105045548D01*
X112994956Y-105053589D01*
X112858019Y-105266075D01*
X112853236Y-105274994D01*
X112752032Y-105506639D01*
X112748737Y-105516209D01*
X112685871Y-105761056D01*
X112684148Y-105771030D01*
X112681706Y-105797861D01*
X112409901Y-105526056D01*
X112400715Y-105511497D01*
X112389079Y-105497825D01*
X112325663Y-105441818D01*
X112305689Y-105421843D01*
X112298914Y-105415970D01*
X112282276Y-105403500D01*
X112225225Y-105353114D01*
X112210220Y-105343257D01*
X112187934Y-105332793D01*
X112168237Y-105318031D01*
X112152489Y-105309410D01*
X112081231Y-105282697D01*
X112012160Y-105250268D01*
X111994604Y-105244959D01*
X111971260Y-105241471D01*
X111947792Y-105232673D01*
X111930258Y-105228818D01*
X111843413Y-105222364D01*
X111822195Y-105219193D01*
X111812872Y-105218500D01*
X111791412Y-105218500D01*
X111712252Y-105212618D01*
X111694341Y-105213839D01*
X111672506Y-105218500D01*
X110631772Y-105218500D01*
X110609527Y-105175949D01*
X110604134Y-105167384D01*
X110452708Y-104964969D01*
X110446014Y-104957377D01*
X110264173Y-104781776D01*
X110256352Y-104775351D01*
X110254500Y-104774064D01*
X110422968Y-104618061D01*
X110429819Y-104610610D01*
X110585451Y-104411411D01*
X110591023Y-104402961D01*
X110712804Y-104181441D01*
X110716953Y-104172209D01*
X110801751Y-103934068D01*
X110804370Y-103924292D01*
X110850063Y-103675332D01*
X110851097Y-103664599D01*
X110854082Y-103379596D01*
X110853273Y-103368844D01*
X110812804Y-103118981D01*
X110810390Y-103109152D01*
X110803976Y-103089871D01*
X111009452Y-102884395D01*
X111024003Y-102875214D01*
X111037675Y-102863578D01*
X111093663Y-102800184D01*
X111113659Y-102780189D01*
X111119532Y-102773414D01*
X111132014Y-102756760D01*
X111182387Y-102699724D01*
X111192244Y-102684718D01*
X111202706Y-102662435D01*
X111217469Y-102642738D01*
X111226091Y-102626990D01*
X111252806Y-102555726D01*
X111285233Y-102486659D01*
X111290542Y-102469104D01*
X111294030Y-102445760D01*
X111302828Y-102422292D01*
X111306683Y-102404758D01*
X111313137Y-102317913D01*
X111316308Y-102296694D01*
X111317001Y-102287371D01*
X111317001Y-102265910D01*
X111322883Y-102186749D01*
X111321662Y-102168839D01*
X111317001Y-102147004D01*
X111317001Y-100276634D01*
X113273778Y-102233412D01*
G37*
X113273778Y-102233412D02*
X113177606Y-102310737D01*
X113170252Y-102317691D01*
X113001104Y-102505548D01*
X112994956Y-102513589D01*
X112858019Y-102726075D01*
X112853236Y-102734994D01*
X112752032Y-102966639D01*
X112748737Y-102976209D01*
X112685871Y-103221056D01*
X112684148Y-103231030D01*
X112661238Y-103482777D01*
X112661132Y-103492898D01*
X112678766Y-103745071D01*
X112680279Y-103755078D01*
X112738004Y-104001187D01*
X112741098Y-104010824D01*
X112837428Y-104244538D01*
X112842023Y-104253556D01*
X112974480Y-104468862D01*
X112980458Y-104477030D01*
X113145634Y-104668390D01*
X113152841Y-104675497D01*
X113271610Y-104775155D01*
X113177606Y-104850737D01*
X113170252Y-104857691D01*
X113001104Y-105045548D01*
X112994956Y-105053589D01*
X112858019Y-105266075D01*
X112853236Y-105274994D01*
X112752032Y-105506639D01*
X112748737Y-105516209D01*
X112685871Y-105761056D01*
X112684148Y-105771030D01*
X112681706Y-105797861D01*
X112409901Y-105526056D01*
X112400715Y-105511497D01*
X112389079Y-105497825D01*
X112325663Y-105441818D01*
X112305689Y-105421843D01*
X112298914Y-105415970D01*
X112282276Y-105403500D01*
X112225225Y-105353114D01*
X112210220Y-105343257D01*
X112187934Y-105332793D01*
X112168237Y-105318031D01*
X112152489Y-105309410D01*
X112081231Y-105282697D01*
X112012160Y-105250268D01*
X111994604Y-105244959D01*
X111971260Y-105241471D01*
X111947792Y-105232673D01*
X111930258Y-105228818D01*
X111843413Y-105222364D01*
X111822195Y-105219193D01*
X111812872Y-105218500D01*
X111791412Y-105218500D01*
X111712252Y-105212618D01*
X111694341Y-105213839D01*
X111672506Y-105218500D01*
X110631772Y-105218500D01*
X110609527Y-105175949D01*
X110604134Y-105167384D01*
X110452708Y-104964969D01*
X110446014Y-104957377D01*
X110264173Y-104781776D01*
X110256352Y-104775351D01*
X110254500Y-104774064D01*
X110422968Y-104618061D01*
X110429819Y-104610610D01*
X110585451Y-104411411D01*
X110591023Y-104402961D01*
X110712804Y-104181441D01*
X110716953Y-104172209D01*
X110801751Y-103934068D01*
X110804370Y-103924292D01*
X110850063Y-103675332D01*
X110851097Y-103664599D01*
X110854082Y-103379596D01*
X110853273Y-103368844D01*
X110812804Y-103118981D01*
X110810390Y-103109152D01*
X110803976Y-103089871D01*
X111009452Y-102884395D01*
X111024003Y-102875214D01*
X111037675Y-102863578D01*
X111093663Y-102800184D01*
X111113659Y-102780189D01*
X111119532Y-102773414D01*
X111132014Y-102756760D01*
X111182387Y-102699724D01*
X111192244Y-102684718D01*
X111202706Y-102662435D01*
X111217469Y-102642738D01*
X111226091Y-102626990D01*
X111252806Y-102555726D01*
X111285233Y-102486659D01*
X111290542Y-102469104D01*
X111294030Y-102445760D01*
X111302828Y-102422292D01*
X111306683Y-102404758D01*
X111313137Y-102317913D01*
X111316308Y-102296694D01*
X111317001Y-102287371D01*
X111317001Y-102265910D01*
X111322883Y-102186749D01*
X111321662Y-102168839D01*
X111317001Y-102147004D01*
X111317001Y-100276634D01*
X113273778Y-102233412D01*
G36*
X111041963Y-81237458D02*
G01*
X111044119Y-81253834D01*
X111118937Y-81533059D01*
X111131680Y-81557539D01*
X111262790Y-81713790D01*
X111279679Y-81727961D01*
X111453920Y-81828559D01*
X111474637Y-81836100D01*
X111667338Y-81870078D01*
X111678299Y-81871037D01*
X113622458Y-81871037D01*
X113638834Y-81868881D01*
X113918059Y-81794063D01*
X113942539Y-81781320D01*
X114098790Y-81650210D01*
X114112961Y-81633321D01*
X114183025Y-81511966D01*
X114375148Y-81646492D01*
X114384077Y-81651710D01*
X114611873Y-81760851D01*
X114621535Y-81764540D01*
X114864098Y-81835012D01*
X114874232Y-81837073D01*
X114976309Y-81849246D01*
X115061000Y-81774054D01*
X115061000Y-80136000D01*
X115317000Y-80136000D01*
X115317000Y-81776301D01*
X115410412Y-81851944D01*
X115645045Y-81802070D01*
X115654950Y-81799099D01*
X115890128Y-81706933D01*
X115899415Y-81702384D01*
X116116382Y-81573046D01*
X116124801Y-81567041D01*
X116206000Y-81498422D01*
X116206000Y-101067152D01*
X115713061Y-100574213D01*
X115733041Y-100460897D01*
X115734000Y-100449936D01*
X115734000Y-100210064D01*
X115733041Y-100199103D01*
X115691387Y-99962874D01*
X115688540Y-99952247D01*
X115606498Y-99726840D01*
X115601848Y-99716868D01*
X115481912Y-99509132D01*
X115475601Y-99500119D01*
X115321413Y-99316366D01*
X115313634Y-99308587D01*
X115129881Y-99154399D01*
X115120868Y-99148088D01*
X114913132Y-99028152D01*
X114903160Y-99023502D01*
X114677753Y-98941460D01*
X114667126Y-98938613D01*
X114430897Y-98896959D01*
X114419936Y-98896000D01*
X114180064Y-98896000D01*
X114169103Y-98896959D01*
X113932874Y-98938613D01*
X113922247Y-98941460D01*
X113696840Y-99023502D01*
X113686868Y-99028152D01*
X113479132Y-99148088D01*
X113470119Y-99154399D01*
X113286366Y-99308587D01*
X113278587Y-99316366D01*
X113124399Y-99500119D01*
X113118088Y-99509132D01*
X113033574Y-99655516D01*
X110680073Y-97302015D01*
X110688540Y-97278753D01*
X110691387Y-97268125D01*
X110733041Y-97031897D01*
X110734000Y-97020936D01*
X110734000Y-96781064D01*
X110733041Y-96770103D01*
X110709875Y-96638721D01*
X111491102Y-97419949D01*
X111500285Y-97434503D01*
X111511921Y-97448175D01*
X111575320Y-97504167D01*
X111595310Y-97524158D01*
X111602084Y-97530031D01*
X111618735Y-97542510D01*
X111675776Y-97592887D01*
X111690782Y-97602744D01*
X111713064Y-97613206D01*
X111732761Y-97627968D01*
X111748509Y-97636590D01*
X111819773Y-97663305D01*
X111888840Y-97695732D01*
X111906395Y-97701041D01*
X111929739Y-97704529D01*
X111953207Y-97713327D01*
X111970741Y-97717182D01*
X112057586Y-97723636D01*
X112078805Y-97726807D01*
X112088128Y-97727500D01*
X112109589Y-97727500D01*
X112188750Y-97733382D01*
X112206660Y-97732161D01*
X112228495Y-97727500D01*
X113122032Y-97727500D01*
X113124399Y-97730881D01*
X113278587Y-97914634D01*
X113286366Y-97922413D01*
X113470119Y-98076601D01*
X113479132Y-98082912D01*
X113686868Y-98202848D01*
X113696840Y-98207498D01*
X113922247Y-98289540D01*
X113932874Y-98292387D01*
X114169103Y-98334041D01*
X114180064Y-98335000D01*
X114419936Y-98335000D01*
X114430897Y-98334041D01*
X114667126Y-98292387D01*
X114677753Y-98289540D01*
X114903160Y-98207498D01*
X114913132Y-98202848D01*
X115120868Y-98082912D01*
X115129881Y-98076601D01*
X115313634Y-97922413D01*
X115321413Y-97914634D01*
X115475601Y-97730881D01*
X115481912Y-97721868D01*
X115601848Y-97514132D01*
X115606498Y-97504160D01*
X115688540Y-97278753D01*
X115691387Y-97268126D01*
X115733041Y-97031897D01*
X115734000Y-97020936D01*
X115734000Y-96781064D01*
X115733041Y-96770103D01*
X115691387Y-96533874D01*
X115688540Y-96523247D01*
X115606498Y-96297840D01*
X115601848Y-96287868D01*
X115481912Y-96080132D01*
X115475601Y-96071119D01*
X115321413Y-95887366D01*
X115313634Y-95879587D01*
X115129881Y-95725399D01*
X115120868Y-95719088D01*
X114913132Y-95599152D01*
X114903160Y-95594502D01*
X114769271Y-95545770D01*
X114850398Y-95523728D01*
X114859920Y-95520300D01*
X115090131Y-95415873D01*
X115098983Y-95410966D01*
X115309536Y-95271074D01*
X115317489Y-95264815D01*
X115502968Y-95093061D01*
X115509819Y-95085610D01*
X115665451Y-94886411D01*
X115671023Y-94877961D01*
X115792804Y-94656441D01*
X115796953Y-94647209D01*
X115881751Y-94409068D01*
X115884370Y-94399292D01*
X115930063Y-94150332D01*
X115931097Y-94139599D01*
X115934082Y-93854596D01*
X115933273Y-93843844D01*
X115892804Y-93593981D01*
X115890390Y-93584152D01*
X115810597Y-93344287D01*
X115806642Y-93334971D01*
X115689527Y-93110949D01*
X115684134Y-93102384D01*
X115532708Y-92899969D01*
X115526014Y-92892377D01*
X115344173Y-92716776D01*
X115336352Y-92710351D01*
X115334500Y-92709064D01*
X115502968Y-92553061D01*
X115509819Y-92545610D01*
X115665451Y-92346411D01*
X115671023Y-92337961D01*
X115792804Y-92116441D01*
X115796953Y-92107209D01*
X115881751Y-91869068D01*
X115884370Y-91859292D01*
X115930063Y-91610332D01*
X115931097Y-91599599D01*
X115934082Y-91314596D01*
X115933273Y-91303844D01*
X115892804Y-91053981D01*
X115890390Y-91044152D01*
X115810597Y-90804287D01*
X115806642Y-90794971D01*
X115689527Y-90570949D01*
X115684134Y-90562384D01*
X115532708Y-90359969D01*
X115526014Y-90352377D01*
X115344173Y-90176776D01*
X115336352Y-90170351D01*
X115334500Y-90169064D01*
X115502968Y-90013061D01*
X115509819Y-90005610D01*
X115665451Y-89806411D01*
X115671023Y-89797961D01*
X115792804Y-89576441D01*
X115796953Y-89567209D01*
X115881751Y-89329068D01*
X115884370Y-89319292D01*
X115930063Y-89070332D01*
X115931097Y-89059599D01*
X115934082Y-88774596D01*
X115933273Y-88763844D01*
X115892804Y-88513981D01*
X115890390Y-88504152D01*
X115810597Y-88264287D01*
X115806642Y-88254971D01*
X115689527Y-88030949D01*
X115684134Y-88022384D01*
X115532708Y-87819969D01*
X115526014Y-87812377D01*
X115344174Y-87636776D01*
X115336353Y-87630351D01*
X115128775Y-87486081D01*
X115120028Y-87480990D01*
X114892056Y-87371764D01*
X114882607Y-87368137D01*
X114640103Y-87296765D01*
X114630196Y-87294695D01*
X114379402Y-87263011D01*
X114369290Y-87262552D01*
X114116656Y-87271374D01*
X114106601Y-87272538D01*
X113858628Y-87321639D01*
X113848889Y-87324394D01*
X113611956Y-87412508D01*
X113602783Y-87416786D01*
X113382984Y-87541649D01*
X113374613Y-87547338D01*
X113177606Y-87705737D01*
X113170252Y-87712691D01*
X113001104Y-87900548D01*
X112994956Y-87908589D01*
X112858019Y-88121075D01*
X112853236Y-88129994D01*
X112752032Y-88361639D01*
X112748737Y-88371209D01*
X112685871Y-88616056D01*
X112684148Y-88626030D01*
X112681706Y-88652861D01*
X112332500Y-88303655D01*
X112332500Y-86366232D01*
X112376868Y-86391848D01*
X112386840Y-86396498D01*
X112612247Y-86478540D01*
X112622874Y-86481387D01*
X112859103Y-86523041D01*
X112870064Y-86524000D01*
X113109936Y-86524000D01*
X113120897Y-86523041D01*
X113357126Y-86481387D01*
X113367753Y-86478540D01*
X113593160Y-86396498D01*
X113603132Y-86391848D01*
X113836603Y-86257053D01*
X113852823Y-86133844D01*
X112756789Y-85037809D01*
X113223210Y-85037809D01*
X113223210Y-85142191D01*
X114033844Y-85952823D01*
X114157053Y-85936603D01*
X114291848Y-85703132D01*
X114296498Y-85693160D01*
X114378540Y-85467753D01*
X114381387Y-85457126D01*
X114423041Y-85220897D01*
X114424000Y-85209936D01*
X114424000Y-84970064D01*
X114423041Y-84959103D01*
X114381387Y-84722874D01*
X114378540Y-84712247D01*
X114296498Y-84486840D01*
X114291848Y-84476868D01*
X114157053Y-84243397D01*
X114033844Y-84227177D01*
X113223210Y-85037809D01*
X112756789Y-85037809D01*
X112719885Y-85000905D01*
X111946157Y-84227177D01*
X111920358Y-84230573D01*
X111870944Y-84046156D01*
X112127177Y-84046156D01*
X112937809Y-84856790D01*
X113042191Y-84856790D01*
X113852823Y-84046156D01*
X113836603Y-83922947D01*
X113603132Y-83788152D01*
X113593160Y-83783502D01*
X113367753Y-83701460D01*
X113357126Y-83698613D01*
X113120897Y-83656959D01*
X113109936Y-83656000D01*
X112870064Y-83656000D01*
X112859103Y-83656959D01*
X112622874Y-83698613D01*
X112612247Y-83701460D01*
X112386840Y-83783502D01*
X112376868Y-83788152D01*
X112143397Y-83922947D01*
X112127177Y-84046156D01*
X111870944Y-84046156D01*
X111854863Y-83986142D01*
X111842120Y-83961662D01*
X111711010Y-83805410D01*
X111694121Y-83791239D01*
X111519880Y-83690641D01*
X111499163Y-83683100D01*
X111317147Y-83651006D01*
X111316500Y-83640573D01*
X111316500Y-83612279D01*
X111315863Y-83603337D01*
X111312912Y-83582731D01*
X111308200Y-83506784D01*
X111304560Y-83489204D01*
X111296202Y-83466052D01*
X111292712Y-83441680D01*
X111287673Y-83424449D01*
X111256171Y-83355164D01*
X111230264Y-83283401D01*
X111221604Y-83267234D01*
X111207565Y-83248260D01*
X111197191Y-83225445D01*
X111187519Y-83210320D01*
X111130675Y-83144350D01*
X111117913Y-83127103D01*
X111111809Y-83120020D01*
X111096639Y-83104850D01*
X111044820Y-83044711D01*
X111031291Y-83032909D01*
X111012553Y-83020764D01*
X108117843Y-80126056D01*
X108108657Y-80111497D01*
X108097021Y-80097825D01*
X108033605Y-80041818D01*
X108013631Y-80021843D01*
X108006856Y-80015970D01*
X107990218Y-80003500D01*
X107933167Y-79953114D01*
X107918162Y-79943257D01*
X107895876Y-79932793D01*
X107876179Y-79918031D01*
X107860431Y-79909410D01*
X107789173Y-79882697D01*
X107720102Y-79850268D01*
X107702546Y-79844959D01*
X107679202Y-79841471D01*
X107655734Y-79832673D01*
X107638200Y-79828818D01*
X107551355Y-79822364D01*
X107530137Y-79819193D01*
X107520814Y-79818500D01*
X107499354Y-79818500D01*
X107420194Y-79812618D01*
X107402283Y-79813839D01*
X107380448Y-79818500D01*
X107125367Y-79818500D01*
X107069698Y-79701788D01*
X107065058Y-79693671D01*
X106912052Y-79466831D01*
X106906264Y-79459488D01*
X106827929Y-79374000D01*
X111041963Y-79374000D01*
X111041963Y-81237458D01*
G37*
X111041963Y-81237458D02*
X111044119Y-81253834D01*
X111118937Y-81533059D01*
X111131680Y-81557539D01*
X111262790Y-81713790D01*
X111279679Y-81727961D01*
X111453920Y-81828559D01*
X111474637Y-81836100D01*
X111667338Y-81870078D01*
X111678299Y-81871037D01*
X113622458Y-81871037D01*
X113638834Y-81868881D01*
X113918059Y-81794063D01*
X113942539Y-81781320D01*
X114098790Y-81650210D01*
X114112961Y-81633321D01*
X114183025Y-81511966D01*
X114375148Y-81646492D01*
X114384077Y-81651710D01*
X114611873Y-81760851D01*
X114621535Y-81764540D01*
X114864098Y-81835012D01*
X114874232Y-81837073D01*
X114976309Y-81849246D01*
X115061000Y-81774054D01*
X115061000Y-80136000D01*
X115317000Y-80136000D01*
X115317000Y-81776301D01*
X115410412Y-81851944D01*
X115645045Y-81802070D01*
X115654950Y-81799099D01*
X115890128Y-81706933D01*
X115899415Y-81702384D01*
X116116382Y-81573046D01*
X116124801Y-81567041D01*
X116206000Y-81498422D01*
X116206000Y-101067152D01*
X115713061Y-100574213D01*
X115733041Y-100460897D01*
X115734000Y-100449936D01*
X115734000Y-100210064D01*
X115733041Y-100199103D01*
X115691387Y-99962874D01*
X115688540Y-99952247D01*
X115606498Y-99726840D01*
X115601848Y-99716868D01*
X115481912Y-99509132D01*
X115475601Y-99500119D01*
X115321413Y-99316366D01*
X115313634Y-99308587D01*
X115129881Y-99154399D01*
X115120868Y-99148088D01*
X114913132Y-99028152D01*
X114903160Y-99023502D01*
X114677753Y-98941460D01*
X114667126Y-98938613D01*
X114430897Y-98896959D01*
X114419936Y-98896000D01*
X114180064Y-98896000D01*
X114169103Y-98896959D01*
X113932874Y-98938613D01*
X113922247Y-98941460D01*
X113696840Y-99023502D01*
X113686868Y-99028152D01*
X113479132Y-99148088D01*
X113470119Y-99154399D01*
X113286366Y-99308587D01*
X113278587Y-99316366D01*
X113124399Y-99500119D01*
X113118088Y-99509132D01*
X113033574Y-99655516D01*
X110680073Y-97302015D01*
X110688540Y-97278753D01*
X110691387Y-97268125D01*
X110733041Y-97031897D01*
X110734000Y-97020936D01*
X110734000Y-96781064D01*
X110733041Y-96770103D01*
X110709875Y-96638721D01*
X111491102Y-97419949D01*
X111500285Y-97434503D01*
X111511921Y-97448175D01*
X111575320Y-97504167D01*
X111595310Y-97524158D01*
X111602084Y-97530031D01*
X111618735Y-97542510D01*
X111675776Y-97592887D01*
X111690782Y-97602744D01*
X111713064Y-97613206D01*
X111732761Y-97627968D01*
X111748509Y-97636590D01*
X111819773Y-97663305D01*
X111888840Y-97695732D01*
X111906395Y-97701041D01*
X111929739Y-97704529D01*
X111953207Y-97713327D01*
X111970741Y-97717182D01*
X112057586Y-97723636D01*
X112078805Y-97726807D01*
X112088128Y-97727500D01*
X112109589Y-97727500D01*
X112188750Y-97733382D01*
X112206660Y-97732161D01*
X112228495Y-97727500D01*
X113122032Y-97727500D01*
X113124399Y-97730881D01*
X113278587Y-97914634D01*
X113286366Y-97922413D01*
X113470119Y-98076601D01*
X113479132Y-98082912D01*
X113686868Y-98202848D01*
X113696840Y-98207498D01*
X113922247Y-98289540D01*
X113932874Y-98292387D01*
X114169103Y-98334041D01*
X114180064Y-98335000D01*
X114419936Y-98335000D01*
X114430897Y-98334041D01*
X114667126Y-98292387D01*
X114677753Y-98289540D01*
X114903160Y-98207498D01*
X114913132Y-98202848D01*
X115120868Y-98082912D01*
X115129881Y-98076601D01*
X115313634Y-97922413D01*
X115321413Y-97914634D01*
X115475601Y-97730881D01*
X115481912Y-97721868D01*
X115601848Y-97514132D01*
X115606498Y-97504160D01*
X115688540Y-97278753D01*
X115691387Y-97268126D01*
X115733041Y-97031897D01*
X115734000Y-97020936D01*
X115734000Y-96781064D01*
X115733041Y-96770103D01*
X115691387Y-96533874D01*
X115688540Y-96523247D01*
X115606498Y-96297840D01*
X115601848Y-96287868D01*
X115481912Y-96080132D01*
X115475601Y-96071119D01*
X115321413Y-95887366D01*
X115313634Y-95879587D01*
X115129881Y-95725399D01*
X115120868Y-95719088D01*
X114913132Y-95599152D01*
X114903160Y-95594502D01*
X114769271Y-95545770D01*
X114850398Y-95523728D01*
X114859920Y-95520300D01*
X115090131Y-95415873D01*
X115098983Y-95410966D01*
X115309536Y-95271074D01*
X115317489Y-95264815D01*
X115502968Y-95093061D01*
X115509819Y-95085610D01*
X115665451Y-94886411D01*
X115671023Y-94877961D01*
X115792804Y-94656441D01*
X115796953Y-94647209D01*
X115881751Y-94409068D01*
X115884370Y-94399292D01*
X115930063Y-94150332D01*
X115931097Y-94139599D01*
X115934082Y-93854596D01*
X115933273Y-93843844D01*
X115892804Y-93593981D01*
X115890390Y-93584152D01*
X115810597Y-93344287D01*
X115806642Y-93334971D01*
X115689527Y-93110949D01*
X115684134Y-93102384D01*
X115532708Y-92899969D01*
X115526014Y-92892377D01*
X115344173Y-92716776D01*
X115336352Y-92710351D01*
X115334500Y-92709064D01*
X115502968Y-92553061D01*
X115509819Y-92545610D01*
X115665451Y-92346411D01*
X115671023Y-92337961D01*
X115792804Y-92116441D01*
X115796953Y-92107209D01*
X115881751Y-91869068D01*
X115884370Y-91859292D01*
X115930063Y-91610332D01*
X115931097Y-91599599D01*
X115934082Y-91314596D01*
X115933273Y-91303844D01*
X115892804Y-91053981D01*
X115890390Y-91044152D01*
X115810597Y-90804287D01*
X115806642Y-90794971D01*
X115689527Y-90570949D01*
X115684134Y-90562384D01*
X115532708Y-90359969D01*
X115526014Y-90352377D01*
X115344173Y-90176776D01*
X115336352Y-90170351D01*
X115334500Y-90169064D01*
X115502968Y-90013061D01*
X115509819Y-90005610D01*
X115665451Y-89806411D01*
X115671023Y-89797961D01*
X115792804Y-89576441D01*
X115796953Y-89567209D01*
X115881751Y-89329068D01*
X115884370Y-89319292D01*
X115930063Y-89070332D01*
X115931097Y-89059599D01*
X115934082Y-88774596D01*
X115933273Y-88763844D01*
X115892804Y-88513981D01*
X115890390Y-88504152D01*
X115810597Y-88264287D01*
X115806642Y-88254971D01*
X115689527Y-88030949D01*
X115684134Y-88022384D01*
X115532708Y-87819969D01*
X115526014Y-87812377D01*
X115344174Y-87636776D01*
X115336353Y-87630351D01*
X115128775Y-87486081D01*
X115120028Y-87480990D01*
X114892056Y-87371764D01*
X114882607Y-87368137D01*
X114640103Y-87296765D01*
X114630196Y-87294695D01*
X114379402Y-87263011D01*
X114369290Y-87262552D01*
X114116656Y-87271374D01*
X114106601Y-87272538D01*
X113858628Y-87321639D01*
X113848889Y-87324394D01*
X113611956Y-87412508D01*
X113602783Y-87416786D01*
X113382984Y-87541649D01*
X113374613Y-87547338D01*
X113177606Y-87705737D01*
X113170252Y-87712691D01*
X113001104Y-87900548D01*
X112994956Y-87908589D01*
X112858019Y-88121075D01*
X112853236Y-88129994D01*
X112752032Y-88361639D01*
X112748737Y-88371209D01*
X112685871Y-88616056D01*
X112684148Y-88626030D01*
X112681706Y-88652861D01*
X112332500Y-88303655D01*
X112332500Y-86366232D01*
X112376868Y-86391848D01*
X112386840Y-86396498D01*
X112612247Y-86478540D01*
X112622874Y-86481387D01*
X112859103Y-86523041D01*
X112870064Y-86524000D01*
X113109936Y-86524000D01*
X113120897Y-86523041D01*
X113357126Y-86481387D01*
X113367753Y-86478540D01*
X113593160Y-86396498D01*
X113603132Y-86391848D01*
X113836603Y-86257053D01*
X113852823Y-86133844D01*
X112756789Y-85037809D01*
X113223210Y-85037809D01*
X113223210Y-85142191D01*
X114033844Y-85952823D01*
X114157053Y-85936603D01*
X114291848Y-85703132D01*
X114296498Y-85693160D01*
X114378540Y-85467753D01*
X114381387Y-85457126D01*
X114423041Y-85220897D01*
X114424000Y-85209936D01*
X114424000Y-84970064D01*
X114423041Y-84959103D01*
X114381387Y-84722874D01*
X114378540Y-84712247D01*
X114296498Y-84486840D01*
X114291848Y-84476868D01*
X114157053Y-84243397D01*
X114033844Y-84227177D01*
X113223210Y-85037809D01*
X112756789Y-85037809D01*
X112719885Y-85000905D01*
X111946157Y-84227177D01*
X111920358Y-84230573D01*
X111870944Y-84046156D01*
X112127177Y-84046156D01*
X112937809Y-84856790D01*
X113042191Y-84856790D01*
X113852823Y-84046156D01*
X113836603Y-83922947D01*
X113603132Y-83788152D01*
X113593160Y-83783502D01*
X113367753Y-83701460D01*
X113357126Y-83698613D01*
X113120897Y-83656959D01*
X113109936Y-83656000D01*
X112870064Y-83656000D01*
X112859103Y-83656959D01*
X112622874Y-83698613D01*
X112612247Y-83701460D01*
X112386840Y-83783502D01*
X112376868Y-83788152D01*
X112143397Y-83922947D01*
X112127177Y-84046156D01*
X111870944Y-84046156D01*
X111854863Y-83986142D01*
X111842120Y-83961662D01*
X111711010Y-83805410D01*
X111694121Y-83791239D01*
X111519880Y-83690641D01*
X111499163Y-83683100D01*
X111317147Y-83651006D01*
X111316500Y-83640573D01*
X111316500Y-83612279D01*
X111315863Y-83603337D01*
X111312912Y-83582731D01*
X111308200Y-83506784D01*
X111304560Y-83489204D01*
X111296202Y-83466052D01*
X111292712Y-83441680D01*
X111287673Y-83424449D01*
X111256171Y-83355164D01*
X111230264Y-83283401D01*
X111221604Y-83267234D01*
X111207565Y-83248260D01*
X111197191Y-83225445D01*
X111187519Y-83210320D01*
X111130675Y-83144350D01*
X111117913Y-83127103D01*
X111111809Y-83120020D01*
X111096639Y-83104850D01*
X111044820Y-83044711D01*
X111031291Y-83032909D01*
X111012553Y-83020764D01*
X108117843Y-80126056D01*
X108108657Y-80111497D01*
X108097021Y-80097825D01*
X108033605Y-80041818D01*
X108013631Y-80021843D01*
X108006856Y-80015970D01*
X107990218Y-80003500D01*
X107933167Y-79953114D01*
X107918162Y-79943257D01*
X107895876Y-79932793D01*
X107876179Y-79918031D01*
X107860431Y-79909410D01*
X107789173Y-79882697D01*
X107720102Y-79850268D01*
X107702546Y-79844959D01*
X107679202Y-79841471D01*
X107655734Y-79832673D01*
X107638200Y-79828818D01*
X107551355Y-79822364D01*
X107530137Y-79819193D01*
X107520814Y-79818500D01*
X107499354Y-79818500D01*
X107420194Y-79812618D01*
X107402283Y-79813839D01*
X107380448Y-79818500D01*
X107125367Y-79818500D01*
X107069698Y-79701788D01*
X107065058Y-79693671D01*
X106912052Y-79466831D01*
X106906264Y-79459488D01*
X106827929Y-79374000D01*
X111041963Y-79374000D01*
X111041963Y-81237458D01*
G36*
X93338163Y-81923258D02*
G01*
X93340319Y-81939634D01*
X93415137Y-82218859D01*
X93427880Y-82243339D01*
X93558990Y-82399590D01*
X93575879Y-82413761D01*
X93750120Y-82514359D01*
X93770837Y-82521900D01*
X93963538Y-82555878D01*
X93974499Y-82556837D01*
X94136318Y-82556837D01*
X94054647Y-82657693D01*
X94048820Y-82666236D01*
X93924054Y-82885864D01*
X93919699Y-82895244D01*
X93832479Y-83132300D01*
X93829716Y-83142266D01*
X93790731Y-83346631D01*
X93866318Y-83438000D01*
X95175192Y-83438001D01*
X95175193Y-83438000D01*
X96886634Y-83438001D01*
X96962119Y-83348992D01*
X96934175Y-83180196D01*
X96931655Y-83170166D01*
X96850253Y-82931050D01*
X96846130Y-82921566D01*
X96726767Y-82698955D01*
X96721149Y-82690271D01*
X96604398Y-82538667D01*
X96823859Y-82479863D01*
X96848339Y-82467120D01*
X97004590Y-82336010D01*
X97018761Y-82319121D01*
X97119359Y-82144880D01*
X97126900Y-82124163D01*
X97160878Y-81931462D01*
X97161837Y-81920501D01*
X97161837Y-81471500D01*
X98613704Y-81471500D01*
X98646180Y-81544442D01*
X98650606Y-81552679D01*
X98797621Y-81783447D01*
X98803215Y-81790939D01*
X98982726Y-81997442D01*
X98989367Y-82004025D01*
X99197429Y-82181727D01*
X99204969Y-82187256D01*
X99437011Y-82332252D01*
X99445286Y-82336605D01*
X99696212Y-82445711D01*
X99705040Y-82448794D01*
X99969335Y-82519611D01*
X99978521Y-82521355D01*
X100250382Y-82552329D01*
X100259725Y-82552696D01*
X100533178Y-82543148D01*
X100542473Y-82542130D01*
X100811510Y-82492266D01*
X100820552Y-82489885D01*
X100958530Y-82442376D01*
X101288833Y-82772679D01*
X101255871Y-82901056D01*
X101254148Y-82911030D01*
X101231238Y-83162777D01*
X101231132Y-83172898D01*
X101248766Y-83425071D01*
X101250279Y-83435078D01*
X101308004Y-83681187D01*
X101311098Y-83690824D01*
X101407428Y-83924538D01*
X101412023Y-83933556D01*
X101544480Y-84148862D01*
X101550458Y-84157030D01*
X101715634Y-84348390D01*
X101722841Y-84355497D01*
X101916489Y-84517986D01*
X101924739Y-84523849D01*
X102141873Y-84653287D01*
X102150955Y-84657756D01*
X102385991Y-84750813D01*
X102395670Y-84753772D01*
X102642561Y-84808054D01*
X102652589Y-84809428D01*
X102904983Y-84823539D01*
X102915101Y-84823292D01*
X103166504Y-84796869D01*
X103176453Y-84795007D01*
X103420398Y-84728728D01*
X103429920Y-84725300D01*
X103660131Y-84620873D01*
X103668983Y-84615966D01*
X103879536Y-84476074D01*
X103887489Y-84469815D01*
X104072968Y-84298061D01*
X104079819Y-84290610D01*
X104235451Y-84091411D01*
X104241023Y-84082961D01*
X104362804Y-83861441D01*
X104366953Y-83852209D01*
X104451751Y-83614068D01*
X104454370Y-83604292D01*
X104500063Y-83355332D01*
X104501097Y-83344599D01*
X104504082Y-83059596D01*
X104503273Y-83048844D01*
X104462804Y-82798981D01*
X104460390Y-82789152D01*
X104380597Y-82549287D01*
X104376642Y-82539971D01*
X104259527Y-82315949D01*
X104254134Y-82307384D01*
X104102708Y-82104969D01*
X104096014Y-82097377D01*
X103914174Y-81921776D01*
X103906353Y-81915351D01*
X103698775Y-81771081D01*
X103690028Y-81765990D01*
X103462056Y-81656764D01*
X103452607Y-81653137D01*
X103210103Y-81581765D01*
X103200196Y-81579695D01*
X102949402Y-81548011D01*
X102939290Y-81547552D01*
X102686656Y-81556374D01*
X102676601Y-81557538D01*
X102455220Y-81601374D01*
X102127478Y-81273632D01*
X102166043Y-81167675D01*
X102168581Y-81158676D01*
X102223297Y-80889741D01*
X102224543Y-80878809D01*
X102234183Y-80510665D01*
X102233511Y-80499683D01*
X102192946Y-80228252D01*
X102190882Y-80219132D01*
X102110883Y-79957468D01*
X102107494Y-79948753D01*
X101989698Y-79701789D01*
X101985058Y-79693671D01*
X101832052Y-79466831D01*
X101826264Y-79459488D01*
X101747929Y-79374000D01*
X103990405Y-79374000D01*
X103945282Y-79420726D01*
X103939303Y-79427915D01*
X103780412Y-79650673D01*
X103775561Y-79658667D01*
X103651341Y-79902463D01*
X103647725Y-79911086D01*
X103560904Y-80170565D01*
X103558602Y-80179628D01*
X103511088Y-80449090D01*
X103510152Y-80458394D01*
X103502989Y-80731919D01*
X103503437Y-80741259D01*
X103536784Y-81012839D01*
X103538608Y-81022010D01*
X103611729Y-81285677D01*
X103614889Y-81294478D01*
X103726180Y-81544442D01*
X103730606Y-81552679D01*
X103877621Y-81783447D01*
X103883215Y-81790939D01*
X104062726Y-81997442D01*
X104069367Y-82004025D01*
X104277429Y-82181727D01*
X104284969Y-82187256D01*
X104517011Y-82332252D01*
X104525286Y-82336605D01*
X104776212Y-82445711D01*
X104785040Y-82448794D01*
X105049335Y-82519611D01*
X105058521Y-82521355D01*
X105330382Y-82552329D01*
X105339725Y-82552696D01*
X105613178Y-82543148D01*
X105622473Y-82542130D01*
X105891510Y-82492266D01*
X105900552Y-82489885D01*
X106159264Y-82400804D01*
X106167855Y-82397113D01*
X106410559Y-82270770D01*
X106418511Y-82265849D01*
X106639872Y-82105020D01*
X106647009Y-82098979D01*
X106842168Y-81907197D01*
X106848333Y-81900166D01*
X107013002Y-81681644D01*
X107018060Y-81673780D01*
X107127083Y-81472986D01*
X107327303Y-81673206D01*
X107261956Y-81697508D01*
X107252783Y-81701786D01*
X107032984Y-81826649D01*
X107024613Y-81832338D01*
X106827606Y-81990737D01*
X106820252Y-81997691D01*
X106651104Y-82185548D01*
X106644956Y-82193589D01*
X106508019Y-82406075D01*
X106503236Y-82414994D01*
X106402032Y-82646639D01*
X106398737Y-82656209D01*
X106335871Y-82901056D01*
X106334148Y-82911030D01*
X106311238Y-83162777D01*
X106311132Y-83172898D01*
X106328766Y-83425071D01*
X106330279Y-83435078D01*
X106388004Y-83681187D01*
X106391098Y-83690824D01*
X106487428Y-83924538D01*
X106492023Y-83933556D01*
X106624480Y-84148862D01*
X106630458Y-84157030D01*
X106795634Y-84348390D01*
X106802841Y-84355497D01*
X106809011Y-84360674D01*
X106809011Y-84443506D01*
X106769708Y-84390969D01*
X106763014Y-84383377D01*
X106581174Y-84207776D01*
X106573353Y-84201351D01*
X106365775Y-84057081D01*
X106357028Y-84051990D01*
X106129056Y-83942764D01*
X106119607Y-83939137D01*
X105877103Y-83867765D01*
X105867196Y-83865695D01*
X105616402Y-83834011D01*
X105606290Y-83833552D01*
X105353656Y-83842374D01*
X105343601Y-83843538D01*
X105095628Y-83892639D01*
X105085889Y-83895394D01*
X104848956Y-83983508D01*
X104839783Y-83987786D01*
X104619984Y-84112649D01*
X104611613Y-84118338D01*
X104414606Y-84276737D01*
X104407252Y-84283691D01*
X104238104Y-84471548D01*
X104231956Y-84479589D01*
X104095019Y-84692075D01*
X104090236Y-84700994D01*
X103989032Y-84932639D01*
X103985737Y-84942209D01*
X103922871Y-85187056D01*
X103921148Y-85197030D01*
X103898238Y-85448777D01*
X103898132Y-85458898D01*
X103915766Y-85711071D01*
X103917279Y-85721078D01*
X103975004Y-85967187D01*
X103978098Y-85976824D01*
X104074428Y-86210538D01*
X104079023Y-86219556D01*
X104211480Y-86434862D01*
X104217458Y-86443030D01*
X104382634Y-86634390D01*
X104389841Y-86641497D01*
X104583489Y-86803986D01*
X104591739Y-86809849D01*
X104710500Y-86880645D01*
X104710501Y-87125999D01*
X104570366Y-87243587D01*
X104562587Y-87251366D01*
X104408399Y-87435119D01*
X104402088Y-87444132D01*
X104282152Y-87651868D01*
X104277502Y-87661840D01*
X104195460Y-87887247D01*
X104192613Y-87897874D01*
X104150959Y-88134103D01*
X104150000Y-88145064D01*
X104150000Y-88384936D01*
X104150959Y-88395897D01*
X104192613Y-88632126D01*
X104195460Y-88642753D01*
X104277502Y-88868160D01*
X104282152Y-88878132D01*
X104402088Y-89085868D01*
X104408399Y-89094881D01*
X104562587Y-89278634D01*
X104570366Y-89286413D01*
X104754119Y-89440601D01*
X104763132Y-89446912D01*
X104970868Y-89566848D01*
X104980840Y-89571498D01*
X105206247Y-89653540D01*
X105216874Y-89656387D01*
X105453103Y-89698041D01*
X105464064Y-89699000D01*
X105703936Y-89699000D01*
X105714897Y-89698041D01*
X105951126Y-89656387D01*
X105961753Y-89653540D01*
X106187160Y-89571498D01*
X106197132Y-89566848D01*
X106404868Y-89446912D01*
X106413881Y-89440601D01*
X106597634Y-89286413D01*
X106605413Y-89278634D01*
X106759601Y-89094881D01*
X106765912Y-89085868D01*
X106809010Y-89011219D01*
X106809010Y-90052950D01*
X106700296Y-90023820D01*
X106689461Y-90021910D01*
X106510348Y-90006240D01*
X106504854Y-90006000D01*
X105585146Y-90006000D01*
X105579652Y-90006240D01*
X105400539Y-90021910D01*
X105389704Y-90023820D01*
X105158004Y-90085904D01*
X105147665Y-90089667D01*
X104930266Y-90191042D01*
X104920738Y-90196543D01*
X104724245Y-90334129D01*
X104715817Y-90341202D01*
X104546202Y-90510817D01*
X104539129Y-90519245D01*
X104401543Y-90715738D01*
X104396042Y-90725266D01*
X104294667Y-90942665D01*
X104290904Y-90953004D01*
X104228820Y-91184704D01*
X104226910Y-91195539D01*
X104206004Y-91434499D01*
X104206004Y-91445501D01*
X104226910Y-91684461D01*
X104228820Y-91695296D01*
X104290904Y-91926996D01*
X104294667Y-91937335D01*
X104396042Y-92154734D01*
X104401543Y-92164262D01*
X104539129Y-92360755D01*
X104546202Y-92369183D01*
X104715817Y-92538798D01*
X104724245Y-92545871D01*
X104920738Y-92683457D01*
X104930266Y-92688958D01*
X104975391Y-92710000D01*
X104930266Y-92731042D01*
X104920738Y-92736543D01*
X104724245Y-92874129D01*
X104715817Y-92881202D01*
X104546202Y-93050817D01*
X104539129Y-93059245D01*
X104401543Y-93255738D01*
X104396042Y-93265266D01*
X104294667Y-93482665D01*
X104290904Y-93493004D01*
X104228820Y-93724704D01*
X104226910Y-93735539D01*
X104206004Y-93974499D01*
X104206004Y-93985501D01*
X104226910Y-94224461D01*
X104228820Y-94235296D01*
X104290904Y-94466996D01*
X104294667Y-94477335D01*
X104321429Y-94534726D01*
X103935546Y-94920609D01*
X103920987Y-94929795D01*
X103907315Y-94941431D01*
X103851309Y-95004846D01*
X103831334Y-95024821D01*
X103825462Y-95031593D01*
X103812988Y-95048236D01*
X103762603Y-95105287D01*
X103752747Y-95120292D01*
X103742285Y-95142575D01*
X103727522Y-95162273D01*
X103718900Y-95178020D01*
X103692185Y-95249284D01*
X103659758Y-95318351D01*
X103654449Y-95335906D01*
X103650961Y-95359250D01*
X103642163Y-95382718D01*
X103638308Y-95400253D01*
X103631854Y-95487096D01*
X103628683Y-95508315D01*
X103627990Y-95517639D01*
X103627990Y-95539098D01*
X103622108Y-95618258D01*
X103623329Y-95636169D01*
X103627990Y-95658004D01*
X103627991Y-96920530D01*
X103624193Y-96937315D01*
X103622753Y-96955211D01*
X103627991Y-97039636D01*
X103627991Y-97067904D01*
X103628628Y-97076848D01*
X103631578Y-97097438D01*
X103636290Y-97173397D01*
X103639930Y-97190977D01*
X103648289Y-97214131D01*
X103651779Y-97238504D01*
X103656818Y-97255734D01*
X103688317Y-97325010D01*
X103714226Y-97396780D01*
X103722885Y-97412947D01*
X103736926Y-97431922D01*
X103747300Y-97454738D01*
X103756972Y-97469862D01*
X103813817Y-97535834D01*
X103826578Y-97553079D01*
X103832681Y-97560162D01*
X103847847Y-97575327D01*
X103899671Y-97635472D01*
X103913200Y-97647274D01*
X103931939Y-97659420D01*
X104486675Y-98214157D01*
X104401543Y-98335738D01*
X104396042Y-98345266D01*
X104294667Y-98562665D01*
X104290904Y-98573004D01*
X104228820Y-98804704D01*
X104226910Y-98815539D01*
X104206004Y-99054499D01*
X104206004Y-99065501D01*
X104226910Y-99304461D01*
X104228820Y-99315296D01*
X104290904Y-99546996D01*
X104294667Y-99557335D01*
X104396042Y-99774734D01*
X104401543Y-99784262D01*
X104539129Y-99980755D01*
X104546202Y-99989183D01*
X104715817Y-100158798D01*
X104724245Y-100165871D01*
X104920738Y-100303457D01*
X104930266Y-100308958D01*
X105113740Y-100394513D01*
X104891056Y-100617197D01*
X104876497Y-100626383D01*
X104862825Y-100638019D01*
X104806819Y-100701434D01*
X104786844Y-100721409D01*
X104780972Y-100728181D01*
X104768497Y-100744825D01*
X104739055Y-100778163D01*
X104051742Y-100778163D01*
X104035366Y-100780319D01*
X103756142Y-100855137D01*
X103731662Y-100867880D01*
X103575410Y-100998990D01*
X103561239Y-101015879D01*
X103545292Y-101043500D01*
X102826707Y-101043500D01*
X102736010Y-100935410D01*
X102719121Y-100921239D01*
X102544880Y-100820641D01*
X102524163Y-100813100D01*
X102331462Y-100779122D01*
X102320501Y-100778163D01*
X101992010Y-100778163D01*
X101088399Y-99874553D01*
X101079215Y-99859997D01*
X101067579Y-99846325D01*
X101004163Y-99790318D01*
X100984189Y-99770343D01*
X100977414Y-99764470D01*
X100960776Y-99752000D01*
X100903725Y-99701614D01*
X100888720Y-99691757D01*
X100866434Y-99681293D01*
X100846737Y-99666531D01*
X100830989Y-99657910D01*
X100759731Y-99631197D01*
X100690660Y-99598768D01*
X100673104Y-99593459D01*
X100649760Y-99589971D01*
X100626292Y-99581173D01*
X100608758Y-99577318D01*
X100521913Y-99570864D01*
X100500695Y-99567693D01*
X100491372Y-99567000D01*
X100469912Y-99567000D01*
X100390752Y-99561118D01*
X100372841Y-99562339D01*
X100351006Y-99567000D01*
X100170826Y-99567000D01*
X100175333Y-99557335D01*
X100179096Y-99546996D01*
X100248871Y-99286592D01*
X100173218Y-99188000D01*
X98297000Y-99188000D01*
X98297000Y-98932000D01*
X100173218Y-98932000D01*
X100248871Y-98833408D01*
X100179096Y-98573004D01*
X100175333Y-98562665D01*
X100073958Y-98345266D01*
X100068457Y-98335738D01*
X99983325Y-98214157D01*
X100404306Y-97793175D01*
X100404309Y-97793172D01*
X101267949Y-96929533D01*
X101282501Y-96920351D01*
X101296173Y-96908715D01*
X101352169Y-96845312D01*
X101372156Y-96825326D01*
X101378029Y-96818552D01*
X101390505Y-96801905D01*
X101440885Y-96744861D01*
X101450742Y-96729856D01*
X101461204Y-96707572D01*
X101475967Y-96687874D01*
X101484589Y-96672127D01*
X101511304Y-96600863D01*
X101543731Y-96531796D01*
X101549040Y-96514241D01*
X101552528Y-96490897D01*
X101561326Y-96467429D01*
X101565181Y-96449894D01*
X101571634Y-96363055D01*
X101574806Y-96341835D01*
X101575499Y-96332509D01*
X101575499Y-96311058D01*
X101581382Y-96231888D01*
X101580161Y-96213977D01*
X101575499Y-96192137D01*
X101575499Y-89304987D01*
X101597634Y-89286413D01*
X101605413Y-89278634D01*
X101759601Y-89094881D01*
X101765912Y-89085868D01*
X101885848Y-88878132D01*
X101890498Y-88868160D01*
X101972540Y-88642753D01*
X101975387Y-88632126D01*
X102017041Y-88395897D01*
X102018000Y-88384936D01*
X102018000Y-88145064D01*
X102017041Y-88134103D01*
X101975387Y-87897874D01*
X101972540Y-87887247D01*
X101890498Y-87661840D01*
X101885848Y-87651868D01*
X101765912Y-87444132D01*
X101759601Y-87435119D01*
X101605413Y-87251366D01*
X101597634Y-87243587D01*
X101413881Y-87089399D01*
X101404868Y-87083088D01*
X101197132Y-86963152D01*
X101187160Y-86958502D01*
X101157285Y-86947628D01*
X101247131Y-86906873D01*
X101255983Y-86901966D01*
X101466536Y-86762074D01*
X101474489Y-86755815D01*
X101659968Y-86584061D01*
X101666819Y-86576610D01*
X101822451Y-86377411D01*
X101828023Y-86368961D01*
X101949804Y-86147441D01*
X101953953Y-86138209D01*
X102038751Y-85900068D01*
X102041370Y-85890292D01*
X102087063Y-85641332D01*
X102088097Y-85630599D01*
X102091082Y-85345596D01*
X102090273Y-85334844D01*
X102049804Y-85084981D01*
X102047390Y-85075152D01*
X101967597Y-84835287D01*
X101963642Y-84825971D01*
X101846527Y-84601949D01*
X101841134Y-84593384D01*
X101689708Y-84390969D01*
X101683014Y-84383377D01*
X101501174Y-84207776D01*
X101493353Y-84201351D01*
X101285775Y-84057081D01*
X101277028Y-84051990D01*
X101049056Y-83942764D01*
X101039607Y-83939137D01*
X100797103Y-83867765D01*
X100787196Y-83865695D01*
X100536402Y-83834011D01*
X100526290Y-83833552D01*
X100273656Y-83842374D01*
X100263601Y-83843538D01*
X100015628Y-83892639D01*
X100005889Y-83895394D01*
X99768956Y-83983508D01*
X99759783Y-83987786D01*
X99539984Y-84112649D01*
X99531613Y-84118338D01*
X99334606Y-84276737D01*
X99327252Y-84283691D01*
X99158104Y-84471548D01*
X99151956Y-84479589D01*
X99015019Y-84692075D01*
X99010236Y-84700994D01*
X98936439Y-84869907D01*
X98915337Y-84850229D01*
X98907221Y-84843820D01*
X98696832Y-84704036D01*
X98687778Y-84699038D01*
X98457383Y-84595495D01*
X98447634Y-84592043D01*
X98203423Y-84527519D01*
X98193242Y-84525706D01*
X97941770Y-84501935D01*
X97931429Y-84501808D01*
X97679451Y-84519429D01*
X97669229Y-84520993D01*
X97423513Y-84579531D01*
X97413683Y-84582743D01*
X97180827Y-84680627D01*
X97171654Y-84685402D01*
X96957912Y-84820003D01*
X96949642Y-84826212D01*
X96760754Y-84993914D01*
X96753609Y-85001391D01*
X96594647Y-85197693D01*
X96588820Y-85206236D01*
X96464054Y-85425864D01*
X96459699Y-85435244D01*
X96372479Y-85672300D01*
X96369716Y-85682266D01*
X96322385Y-85930384D01*
X96321286Y-85940667D01*
X96315114Y-86193185D01*
X96315710Y-86203509D01*
X96350864Y-86453643D01*
X96353137Y-86463732D01*
X96428673Y-86704766D01*
X96432564Y-86714348D01*
X96546452Y-86939808D01*
X96551855Y-86948626D01*
X96701038Y-87152458D01*
X96707809Y-87160275D01*
X96888280Y-87337004D01*
X96896237Y-87343610D01*
X97103148Y-87488492D01*
X97112077Y-87493710D01*
X97339873Y-87602851D01*
X97349535Y-87606540D01*
X97592098Y-87677012D01*
X97602232Y-87679073D01*
X97853048Y-87708981D01*
X97863382Y-87709360D01*
X98115714Y-87697902D01*
X98125972Y-87696588D01*
X98373045Y-87644070D01*
X98382950Y-87641099D01*
X98618128Y-87548933D01*
X98627415Y-87544384D01*
X98844382Y-87415046D01*
X98852801Y-87409041D01*
X99045730Y-87246003D01*
X99053055Y-87238703D01*
X99216766Y-87046344D01*
X99222801Y-87037946D01*
X99286158Y-86932500D01*
X99717488Y-86932500D01*
X99728873Y-86939287D01*
X99737955Y-86943756D01*
X99896048Y-87006349D01*
X99763132Y-87083088D01*
X99754119Y-87089399D01*
X99570366Y-87243587D01*
X99562587Y-87251366D01*
X99408399Y-87435119D01*
X99402088Y-87444132D01*
X99282152Y-87651868D01*
X99277502Y-87661840D01*
X99220118Y-87819500D01*
X96748508Y-87819500D01*
X96726767Y-87778954D01*
X96721149Y-87770271D01*
X96567031Y-87570146D01*
X96560072Y-87562497D01*
X96375337Y-87390229D01*
X96367221Y-87383819D01*
X96156832Y-87244036D01*
X96147778Y-87239038D01*
X95917383Y-87135495D01*
X95907634Y-87132043D01*
X95663423Y-87067519D01*
X95653242Y-87065706D01*
X95401770Y-87041935D01*
X95391429Y-87041808D01*
X95139451Y-87059429D01*
X95129229Y-87060993D01*
X94883513Y-87119531D01*
X94873683Y-87122743D01*
X94640827Y-87220627D01*
X94631654Y-87225402D01*
X94417912Y-87360003D01*
X94409642Y-87366212D01*
X94220754Y-87533914D01*
X94213609Y-87541391D01*
X94054647Y-87737693D01*
X94048820Y-87746236D01*
X94007200Y-87819500D01*
X91938837Y-87819500D01*
X91938837Y-87637742D01*
X91936681Y-87621366D01*
X91861863Y-87342142D01*
X91849120Y-87317662D01*
X91718010Y-87161410D01*
X91701121Y-87147239D01*
X91526880Y-87046641D01*
X91506163Y-87039100D01*
X91313462Y-87005122D01*
X91302501Y-87004163D01*
X89288742Y-87004163D01*
X89272366Y-87006319D01*
X88993142Y-87081137D01*
X88968662Y-87093880D01*
X88812410Y-87224990D01*
X88798239Y-87241879D01*
X88697641Y-87416120D01*
X88690100Y-87436837D01*
X88656122Y-87629538D01*
X88655163Y-87640499D01*
X88655163Y-89654258D01*
X88657319Y-89670634D01*
X88732137Y-89949859D01*
X88744880Y-89974339D01*
X88875990Y-90130590D01*
X88892879Y-90144761D01*
X89067120Y-90245359D01*
X89087837Y-90252900D01*
X89280538Y-90286878D01*
X89291499Y-90287837D01*
X89337148Y-90287837D01*
X89252984Y-90335649D01*
X89244613Y-90341338D01*
X89047606Y-90499737D01*
X89040252Y-90506691D01*
X88871104Y-90694548D01*
X88864956Y-90702589D01*
X88728019Y-90915075D01*
X88723236Y-90923994D01*
X88645000Y-91103068D01*
X88645000Y-83780672D01*
X93792176Y-83780672D01*
X93810864Y-83913644D01*
X93813137Y-83923732D01*
X93888673Y-84164766D01*
X93892564Y-84174348D01*
X94006452Y-84399808D01*
X94011855Y-84408626D01*
X94161038Y-84612458D01*
X94167809Y-84620275D01*
X94348280Y-84797004D01*
X94356237Y-84803610D01*
X94563148Y-84948492D01*
X94572077Y-84953710D01*
X94799873Y-85062851D01*
X94809535Y-85066540D01*
X95052098Y-85137012D01*
X95062232Y-85139073D01*
X95164309Y-85151246D01*
X95246469Y-85078301D01*
X95504999Y-85078301D01*
X95598410Y-85153944D01*
X95833045Y-85104070D01*
X95842950Y-85101099D01*
X96078128Y-85008933D01*
X96087415Y-85004384D01*
X96304382Y-84875046D01*
X96312801Y-84869041D01*
X96505730Y-84706003D01*
X96513055Y-84698703D01*
X96676766Y-84506344D01*
X96682801Y-84497946D01*
X96812895Y-84281431D01*
X96817477Y-84272161D01*
X96910463Y-84037306D01*
X96913470Y-84027411D01*
X96965285Y-83787753D01*
X96889636Y-83694000D01*
X95578809Y-83693999D01*
X95505000Y-83767808D01*
X95504999Y-85078301D01*
X95246469Y-85078301D01*
X95249000Y-85076054D01*
X95249001Y-83767809D01*
X95175192Y-83694000D01*
X93867519Y-83693999D01*
X93792176Y-83780672D01*
X88645000Y-83780672D01*
X88645000Y-81249470D01*
X88671038Y-81249470D01*
X88735004Y-81522187D01*
X88738098Y-81531824D01*
X88834428Y-81765538D01*
X88839023Y-81774556D01*
X88971480Y-81989862D01*
X88977458Y-81998030D01*
X89142634Y-82189390D01*
X89149841Y-82196497D01*
X89343489Y-82358986D01*
X89351739Y-82364849D01*
X89568873Y-82494287D01*
X89577955Y-82498756D01*
X89812991Y-82591813D01*
X89822670Y-82594772D01*
X90074904Y-82650229D01*
X90169000Y-82574574D01*
X90169000Y-82571740D01*
X90424999Y-82571740D01*
X90508377Y-82646815D01*
X90593504Y-82637869D01*
X90603453Y-82636007D01*
X90847398Y-82569728D01*
X90856920Y-82566300D01*
X91087131Y-82461873D01*
X91095983Y-82456966D01*
X91306536Y-82317074D01*
X91314489Y-82310815D01*
X91499968Y-82139061D01*
X91506819Y-82131610D01*
X91662451Y-81932411D01*
X91668023Y-81923961D01*
X91789804Y-81702441D01*
X91793953Y-81693209D01*
X91878751Y-81455069D01*
X91881370Y-81445292D01*
X91918188Y-81244693D01*
X91842626Y-81154000D01*
X90498809Y-81153999D01*
X90425000Y-81227808D01*
X90424999Y-82571740D01*
X90169000Y-82571740D01*
X90169001Y-81227809D01*
X90095192Y-81154000D01*
X88746707Y-81153999D01*
X88671038Y-81249470D01*
X88645000Y-81249470D01*
X88645000Y-80815912D01*
X88675327Y-80815912D01*
X88750273Y-80898000D01*
X90095191Y-80898001D01*
X90169000Y-80824192D01*
X90169000Y-80824191D01*
X90424999Y-80824191D01*
X90498808Y-80898000D01*
X91841765Y-80898001D01*
X91917233Y-80809327D01*
X91889804Y-80639981D01*
X91887390Y-80630152D01*
X91807597Y-80390287D01*
X91803642Y-80380971D01*
X91686527Y-80156949D01*
X91681134Y-80148384D01*
X91529708Y-79945969D01*
X91523014Y-79938377D01*
X91341174Y-79762776D01*
X91333353Y-79756351D01*
X91125775Y-79612081D01*
X91117028Y-79606990D01*
X90889056Y-79497764D01*
X90879607Y-79494137D01*
X90637104Y-79422765D01*
X90627197Y-79420695D01*
X90510350Y-79405933D01*
X90425000Y-79481178D01*
X90424999Y-80824191D01*
X90169000Y-80824191D01*
X90169001Y-79479423D01*
X90076953Y-79403814D01*
X89855628Y-79447639D01*
X89845889Y-79450394D01*
X89608956Y-79538508D01*
X89599783Y-79542786D01*
X89379984Y-79667649D01*
X89371613Y-79673338D01*
X89174606Y-79831737D01*
X89167252Y-79838691D01*
X88998104Y-80026548D01*
X88991956Y-80034589D01*
X88855019Y-80247075D01*
X88850236Y-80255994D01*
X88749032Y-80487639D01*
X88745737Y-80497209D01*
X88682872Y-80742052D01*
X88681150Y-80752017D01*
X88675327Y-80815912D01*
X88645000Y-80815912D01*
X88645000Y-79374000D01*
X93338163Y-79374000D01*
X93338163Y-81923258D01*
G37*
X93338163Y-81923258D02*
X93340319Y-81939634D01*
X93415137Y-82218859D01*
X93427880Y-82243339D01*
X93558990Y-82399590D01*
X93575879Y-82413761D01*
X93750120Y-82514359D01*
X93770837Y-82521900D01*
X93963538Y-82555878D01*
X93974499Y-82556837D01*
X94136318Y-82556837D01*
X94054647Y-82657693D01*
X94048820Y-82666236D01*
X93924054Y-82885864D01*
X93919699Y-82895244D01*
X93832479Y-83132300D01*
X93829716Y-83142266D01*
X93790731Y-83346631D01*
X93866318Y-83438000D01*
X95175192Y-83438001D01*
X95175193Y-83438000D01*
X96886634Y-83438001D01*
X96962119Y-83348992D01*
X96934175Y-83180196D01*
X96931655Y-83170166D01*
X96850253Y-82931050D01*
X96846130Y-82921566D01*
X96726767Y-82698955D01*
X96721149Y-82690271D01*
X96604398Y-82538667D01*
X96823859Y-82479863D01*
X96848339Y-82467120D01*
X97004590Y-82336010D01*
X97018761Y-82319121D01*
X97119359Y-82144880D01*
X97126900Y-82124163D01*
X97160878Y-81931462D01*
X97161837Y-81920501D01*
X97161837Y-81471500D01*
X98613704Y-81471500D01*
X98646180Y-81544442D01*
X98650606Y-81552679D01*
X98797621Y-81783447D01*
X98803215Y-81790939D01*
X98982726Y-81997442D01*
X98989367Y-82004025D01*
X99197429Y-82181727D01*
X99204969Y-82187256D01*
X99437011Y-82332252D01*
X99445286Y-82336605D01*
X99696212Y-82445711D01*
X99705040Y-82448794D01*
X99969335Y-82519611D01*
X99978521Y-82521355D01*
X100250382Y-82552329D01*
X100259725Y-82552696D01*
X100533178Y-82543148D01*
X100542473Y-82542130D01*
X100811510Y-82492266D01*
X100820552Y-82489885D01*
X100958530Y-82442376D01*
X101288833Y-82772679D01*
X101255871Y-82901056D01*
X101254148Y-82911030D01*
X101231238Y-83162777D01*
X101231132Y-83172898D01*
X101248766Y-83425071D01*
X101250279Y-83435078D01*
X101308004Y-83681187D01*
X101311098Y-83690824D01*
X101407428Y-83924538D01*
X101412023Y-83933556D01*
X101544480Y-84148862D01*
X101550458Y-84157030D01*
X101715634Y-84348390D01*
X101722841Y-84355497D01*
X101916489Y-84517986D01*
X101924739Y-84523849D01*
X102141873Y-84653287D01*
X102150955Y-84657756D01*
X102385991Y-84750813D01*
X102395670Y-84753772D01*
X102642561Y-84808054D01*
X102652589Y-84809428D01*
X102904983Y-84823539D01*
X102915101Y-84823292D01*
X103166504Y-84796869D01*
X103176453Y-84795007D01*
X103420398Y-84728728D01*
X103429920Y-84725300D01*
X103660131Y-84620873D01*
X103668983Y-84615966D01*
X103879536Y-84476074D01*
X103887489Y-84469815D01*
X104072968Y-84298061D01*
X104079819Y-84290610D01*
X104235451Y-84091411D01*
X104241023Y-84082961D01*
X104362804Y-83861441D01*
X104366953Y-83852209D01*
X104451751Y-83614068D01*
X104454370Y-83604292D01*
X104500063Y-83355332D01*
X104501097Y-83344599D01*
X104504082Y-83059596D01*
X104503273Y-83048844D01*
X104462804Y-82798981D01*
X104460390Y-82789152D01*
X104380597Y-82549287D01*
X104376642Y-82539971D01*
X104259527Y-82315949D01*
X104254134Y-82307384D01*
X104102708Y-82104969D01*
X104096014Y-82097377D01*
X103914174Y-81921776D01*
X103906353Y-81915351D01*
X103698775Y-81771081D01*
X103690028Y-81765990D01*
X103462056Y-81656764D01*
X103452607Y-81653137D01*
X103210103Y-81581765D01*
X103200196Y-81579695D01*
X102949402Y-81548011D01*
X102939290Y-81547552D01*
X102686656Y-81556374D01*
X102676601Y-81557538D01*
X102455220Y-81601374D01*
X102127478Y-81273632D01*
X102166043Y-81167675D01*
X102168581Y-81158676D01*
X102223297Y-80889741D01*
X102224543Y-80878809D01*
X102234183Y-80510665D01*
X102233511Y-80499683D01*
X102192946Y-80228252D01*
X102190882Y-80219132D01*
X102110883Y-79957468D01*
X102107494Y-79948753D01*
X101989698Y-79701789D01*
X101985058Y-79693671D01*
X101832052Y-79466831D01*
X101826264Y-79459488D01*
X101747929Y-79374000D01*
X103990405Y-79374000D01*
X103945282Y-79420726D01*
X103939303Y-79427915D01*
X103780412Y-79650673D01*
X103775561Y-79658667D01*
X103651341Y-79902463D01*
X103647725Y-79911086D01*
X103560904Y-80170565D01*
X103558602Y-80179628D01*
X103511088Y-80449090D01*
X103510152Y-80458394D01*
X103502989Y-80731919D01*
X103503437Y-80741259D01*
X103536784Y-81012839D01*
X103538608Y-81022010D01*
X103611729Y-81285677D01*
X103614889Y-81294478D01*
X103726180Y-81544442D01*
X103730606Y-81552679D01*
X103877621Y-81783447D01*
X103883215Y-81790939D01*
X104062726Y-81997442D01*
X104069367Y-82004025D01*
X104277429Y-82181727D01*
X104284969Y-82187256D01*
X104517011Y-82332252D01*
X104525286Y-82336605D01*
X104776212Y-82445711D01*
X104785040Y-82448794D01*
X105049335Y-82519611D01*
X105058521Y-82521355D01*
X105330382Y-82552329D01*
X105339725Y-82552696D01*
X105613178Y-82543148D01*
X105622473Y-82542130D01*
X105891510Y-82492266D01*
X105900552Y-82489885D01*
X106159264Y-82400804D01*
X106167855Y-82397113D01*
X106410559Y-82270770D01*
X106418511Y-82265849D01*
X106639872Y-82105020D01*
X106647009Y-82098979D01*
X106842168Y-81907197D01*
X106848333Y-81900166D01*
X107013002Y-81681644D01*
X107018060Y-81673780D01*
X107127083Y-81472986D01*
X107327303Y-81673206D01*
X107261956Y-81697508D01*
X107252783Y-81701786D01*
X107032984Y-81826649D01*
X107024613Y-81832338D01*
X106827606Y-81990737D01*
X106820252Y-81997691D01*
X106651104Y-82185548D01*
X106644956Y-82193589D01*
X106508019Y-82406075D01*
X106503236Y-82414994D01*
X106402032Y-82646639D01*
X106398737Y-82656209D01*
X106335871Y-82901056D01*
X106334148Y-82911030D01*
X106311238Y-83162777D01*
X106311132Y-83172898D01*
X106328766Y-83425071D01*
X106330279Y-83435078D01*
X106388004Y-83681187D01*
X106391098Y-83690824D01*
X106487428Y-83924538D01*
X106492023Y-83933556D01*
X106624480Y-84148862D01*
X106630458Y-84157030D01*
X106795634Y-84348390D01*
X106802841Y-84355497D01*
X106809011Y-84360674D01*
X106809011Y-84443506D01*
X106769708Y-84390969D01*
X106763014Y-84383377D01*
X106581174Y-84207776D01*
X106573353Y-84201351D01*
X106365775Y-84057081D01*
X106357028Y-84051990D01*
X106129056Y-83942764D01*
X106119607Y-83939137D01*
X105877103Y-83867765D01*
X105867196Y-83865695D01*
X105616402Y-83834011D01*
X105606290Y-83833552D01*
X105353656Y-83842374D01*
X105343601Y-83843538D01*
X105095628Y-83892639D01*
X105085889Y-83895394D01*
X104848956Y-83983508D01*
X104839783Y-83987786D01*
X104619984Y-84112649D01*
X104611613Y-84118338D01*
X104414606Y-84276737D01*
X104407252Y-84283691D01*
X104238104Y-84471548D01*
X104231956Y-84479589D01*
X104095019Y-84692075D01*
X104090236Y-84700994D01*
X103989032Y-84932639D01*
X103985737Y-84942209D01*
X103922871Y-85187056D01*
X103921148Y-85197030D01*
X103898238Y-85448777D01*
X103898132Y-85458898D01*
X103915766Y-85711071D01*
X103917279Y-85721078D01*
X103975004Y-85967187D01*
X103978098Y-85976824D01*
X104074428Y-86210538D01*
X104079023Y-86219556D01*
X104211480Y-86434862D01*
X104217458Y-86443030D01*
X104382634Y-86634390D01*
X104389841Y-86641497D01*
X104583489Y-86803986D01*
X104591739Y-86809849D01*
X104710500Y-86880645D01*
X104710501Y-87125999D01*
X104570366Y-87243587D01*
X104562587Y-87251366D01*
X104408399Y-87435119D01*
X104402088Y-87444132D01*
X104282152Y-87651868D01*
X104277502Y-87661840D01*
X104195460Y-87887247D01*
X104192613Y-87897874D01*
X104150959Y-88134103D01*
X104150000Y-88145064D01*
X104150000Y-88384936D01*
X104150959Y-88395897D01*
X104192613Y-88632126D01*
X104195460Y-88642753D01*
X104277502Y-88868160D01*
X104282152Y-88878132D01*
X104402088Y-89085868D01*
X104408399Y-89094881D01*
X104562587Y-89278634D01*
X104570366Y-89286413D01*
X104754119Y-89440601D01*
X104763132Y-89446912D01*
X104970868Y-89566848D01*
X104980840Y-89571498D01*
X105206247Y-89653540D01*
X105216874Y-89656387D01*
X105453103Y-89698041D01*
X105464064Y-89699000D01*
X105703936Y-89699000D01*
X105714897Y-89698041D01*
X105951126Y-89656387D01*
X105961753Y-89653540D01*
X106187160Y-89571498D01*
X106197132Y-89566848D01*
X106404868Y-89446912D01*
X106413881Y-89440601D01*
X106597634Y-89286413D01*
X106605413Y-89278634D01*
X106759601Y-89094881D01*
X106765912Y-89085868D01*
X106809010Y-89011219D01*
X106809010Y-90052950D01*
X106700296Y-90023820D01*
X106689461Y-90021910D01*
X106510348Y-90006240D01*
X106504854Y-90006000D01*
X105585146Y-90006000D01*
X105579652Y-90006240D01*
X105400539Y-90021910D01*
X105389704Y-90023820D01*
X105158004Y-90085904D01*
X105147665Y-90089667D01*
X104930266Y-90191042D01*
X104920738Y-90196543D01*
X104724245Y-90334129D01*
X104715817Y-90341202D01*
X104546202Y-90510817D01*
X104539129Y-90519245D01*
X104401543Y-90715738D01*
X104396042Y-90725266D01*
X104294667Y-90942665D01*
X104290904Y-90953004D01*
X104228820Y-91184704D01*
X104226910Y-91195539D01*
X104206004Y-91434499D01*
X104206004Y-91445501D01*
X104226910Y-91684461D01*
X104228820Y-91695296D01*
X104290904Y-91926996D01*
X104294667Y-91937335D01*
X104396042Y-92154734D01*
X104401543Y-92164262D01*
X104539129Y-92360755D01*
X104546202Y-92369183D01*
X104715817Y-92538798D01*
X104724245Y-92545871D01*
X104920738Y-92683457D01*
X104930266Y-92688958D01*
X104975391Y-92710000D01*
X104930266Y-92731042D01*
X104920738Y-92736543D01*
X104724245Y-92874129D01*
X104715817Y-92881202D01*
X104546202Y-93050817D01*
X104539129Y-93059245D01*
X104401543Y-93255738D01*
X104396042Y-93265266D01*
X104294667Y-93482665D01*
X104290904Y-93493004D01*
X104228820Y-93724704D01*
X104226910Y-93735539D01*
X104206004Y-93974499D01*
X104206004Y-93985501D01*
X104226910Y-94224461D01*
X104228820Y-94235296D01*
X104290904Y-94466996D01*
X104294667Y-94477335D01*
X104321429Y-94534726D01*
X103935546Y-94920609D01*
X103920987Y-94929795D01*
X103907315Y-94941431D01*
X103851309Y-95004846D01*
X103831334Y-95024821D01*
X103825462Y-95031593D01*
X103812988Y-95048236D01*
X103762603Y-95105287D01*
X103752747Y-95120292D01*
X103742285Y-95142575D01*
X103727522Y-95162273D01*
X103718900Y-95178020D01*
X103692185Y-95249284D01*
X103659758Y-95318351D01*
X103654449Y-95335906D01*
X103650961Y-95359250D01*
X103642163Y-95382718D01*
X103638308Y-95400253D01*
X103631854Y-95487096D01*
X103628683Y-95508315D01*
X103627990Y-95517639D01*
X103627990Y-95539098D01*
X103622108Y-95618258D01*
X103623329Y-95636169D01*
X103627990Y-95658004D01*
X103627991Y-96920530D01*
X103624193Y-96937315D01*
X103622753Y-96955211D01*
X103627991Y-97039636D01*
X103627991Y-97067904D01*
X103628628Y-97076848D01*
X103631578Y-97097438D01*
X103636290Y-97173397D01*
X103639930Y-97190977D01*
X103648289Y-97214131D01*
X103651779Y-97238504D01*
X103656818Y-97255734D01*
X103688317Y-97325010D01*
X103714226Y-97396780D01*
X103722885Y-97412947D01*
X103736926Y-97431922D01*
X103747300Y-97454738D01*
X103756972Y-97469862D01*
X103813817Y-97535834D01*
X103826578Y-97553079D01*
X103832681Y-97560162D01*
X103847847Y-97575327D01*
X103899671Y-97635472D01*
X103913200Y-97647274D01*
X103931939Y-97659420D01*
X104486675Y-98214157D01*
X104401543Y-98335738D01*
X104396042Y-98345266D01*
X104294667Y-98562665D01*
X104290904Y-98573004D01*
X104228820Y-98804704D01*
X104226910Y-98815539D01*
X104206004Y-99054499D01*
X104206004Y-99065501D01*
X104226910Y-99304461D01*
X104228820Y-99315296D01*
X104290904Y-99546996D01*
X104294667Y-99557335D01*
X104396042Y-99774734D01*
X104401543Y-99784262D01*
X104539129Y-99980755D01*
X104546202Y-99989183D01*
X104715817Y-100158798D01*
X104724245Y-100165871D01*
X104920738Y-100303457D01*
X104930266Y-100308958D01*
X105113740Y-100394513D01*
X104891056Y-100617197D01*
X104876497Y-100626383D01*
X104862825Y-100638019D01*
X104806819Y-100701434D01*
X104786844Y-100721409D01*
X104780972Y-100728181D01*
X104768497Y-100744825D01*
X104739055Y-100778163D01*
X104051742Y-100778163D01*
X104035366Y-100780319D01*
X103756142Y-100855137D01*
X103731662Y-100867880D01*
X103575410Y-100998990D01*
X103561239Y-101015879D01*
X103545292Y-101043500D01*
X102826707Y-101043500D01*
X102736010Y-100935410D01*
X102719121Y-100921239D01*
X102544880Y-100820641D01*
X102524163Y-100813100D01*
X102331462Y-100779122D01*
X102320501Y-100778163D01*
X101992010Y-100778163D01*
X101088399Y-99874553D01*
X101079215Y-99859997D01*
X101067579Y-99846325D01*
X101004163Y-99790318D01*
X100984189Y-99770343D01*
X100977414Y-99764470D01*
X100960776Y-99752000D01*
X100903725Y-99701614D01*
X100888720Y-99691757D01*
X100866434Y-99681293D01*
X100846737Y-99666531D01*
X100830989Y-99657910D01*
X100759731Y-99631197D01*
X100690660Y-99598768D01*
X100673104Y-99593459D01*
X100649760Y-99589971D01*
X100626292Y-99581173D01*
X100608758Y-99577318D01*
X100521913Y-99570864D01*
X100500695Y-99567693D01*
X100491372Y-99567000D01*
X100469912Y-99567000D01*
X100390752Y-99561118D01*
X100372841Y-99562339D01*
X100351006Y-99567000D01*
X100170826Y-99567000D01*
X100175333Y-99557335D01*
X100179096Y-99546996D01*
X100248871Y-99286592D01*
X100173218Y-99188000D01*
X98297000Y-99188000D01*
X98297000Y-98932000D01*
X100173218Y-98932000D01*
X100248871Y-98833408D01*
X100179096Y-98573004D01*
X100175333Y-98562665D01*
X100073958Y-98345266D01*
X100068457Y-98335738D01*
X99983325Y-98214157D01*
X100404306Y-97793175D01*
X100404309Y-97793172D01*
X101267949Y-96929533D01*
X101282501Y-96920351D01*
X101296173Y-96908715D01*
X101352169Y-96845312D01*
X101372156Y-96825326D01*
X101378029Y-96818552D01*
X101390505Y-96801905D01*
X101440885Y-96744861D01*
X101450742Y-96729856D01*
X101461204Y-96707572D01*
X101475967Y-96687874D01*
X101484589Y-96672127D01*
X101511304Y-96600863D01*
X101543731Y-96531796D01*
X101549040Y-96514241D01*
X101552528Y-96490897D01*
X101561326Y-96467429D01*
X101565181Y-96449894D01*
X101571634Y-96363055D01*
X101574806Y-96341835D01*
X101575499Y-96332509D01*
X101575499Y-96311058D01*
X101581382Y-96231888D01*
X101580161Y-96213977D01*
X101575499Y-96192137D01*
X101575499Y-89304987D01*
X101597634Y-89286413D01*
X101605413Y-89278634D01*
X101759601Y-89094881D01*
X101765912Y-89085868D01*
X101885848Y-88878132D01*
X101890498Y-88868160D01*
X101972540Y-88642753D01*
X101975387Y-88632126D01*
X102017041Y-88395897D01*
X102018000Y-88384936D01*
X102018000Y-88145064D01*
X102017041Y-88134103D01*
X101975387Y-87897874D01*
X101972540Y-87887247D01*
X101890498Y-87661840D01*
X101885848Y-87651868D01*
X101765912Y-87444132D01*
X101759601Y-87435119D01*
X101605413Y-87251366D01*
X101597634Y-87243587D01*
X101413881Y-87089399D01*
X101404868Y-87083088D01*
X101197132Y-86963152D01*
X101187160Y-86958502D01*
X101157285Y-86947628D01*
X101247131Y-86906873D01*
X101255983Y-86901966D01*
X101466536Y-86762074D01*
X101474489Y-86755815D01*
X101659968Y-86584061D01*
X101666819Y-86576610D01*
X101822451Y-86377411D01*
X101828023Y-86368961D01*
X101949804Y-86147441D01*
X101953953Y-86138209D01*
X102038751Y-85900068D01*
X102041370Y-85890292D01*
X102087063Y-85641332D01*
X102088097Y-85630599D01*
X102091082Y-85345596D01*
X102090273Y-85334844D01*
X102049804Y-85084981D01*
X102047390Y-85075152D01*
X101967597Y-84835287D01*
X101963642Y-84825971D01*
X101846527Y-84601949D01*
X101841134Y-84593384D01*
X101689708Y-84390969D01*
X101683014Y-84383377D01*
X101501174Y-84207776D01*
X101493353Y-84201351D01*
X101285775Y-84057081D01*
X101277028Y-84051990D01*
X101049056Y-83942764D01*
X101039607Y-83939137D01*
X100797103Y-83867765D01*
X100787196Y-83865695D01*
X100536402Y-83834011D01*
X100526290Y-83833552D01*
X100273656Y-83842374D01*
X100263601Y-83843538D01*
X100015628Y-83892639D01*
X100005889Y-83895394D01*
X99768956Y-83983508D01*
X99759783Y-83987786D01*
X99539984Y-84112649D01*
X99531613Y-84118338D01*
X99334606Y-84276737D01*
X99327252Y-84283691D01*
X99158104Y-84471548D01*
X99151956Y-84479589D01*
X99015019Y-84692075D01*
X99010236Y-84700994D01*
X98936439Y-84869907D01*
X98915337Y-84850229D01*
X98907221Y-84843820D01*
X98696832Y-84704036D01*
X98687778Y-84699038D01*
X98457383Y-84595495D01*
X98447634Y-84592043D01*
X98203423Y-84527519D01*
X98193242Y-84525706D01*
X97941770Y-84501935D01*
X97931429Y-84501808D01*
X97679451Y-84519429D01*
X97669229Y-84520993D01*
X97423513Y-84579531D01*
X97413683Y-84582743D01*
X97180827Y-84680627D01*
X97171654Y-84685402D01*
X96957912Y-84820003D01*
X96949642Y-84826212D01*
X96760754Y-84993914D01*
X96753609Y-85001391D01*
X96594647Y-85197693D01*
X96588820Y-85206236D01*
X96464054Y-85425864D01*
X96459699Y-85435244D01*
X96372479Y-85672300D01*
X96369716Y-85682266D01*
X96322385Y-85930384D01*
X96321286Y-85940667D01*
X96315114Y-86193185D01*
X96315710Y-86203509D01*
X96350864Y-86453643D01*
X96353137Y-86463732D01*
X96428673Y-86704766D01*
X96432564Y-86714348D01*
X96546452Y-86939808D01*
X96551855Y-86948626D01*
X96701038Y-87152458D01*
X96707809Y-87160275D01*
X96888280Y-87337004D01*
X96896237Y-87343610D01*
X97103148Y-87488492D01*
X97112077Y-87493710D01*
X97339873Y-87602851D01*
X97349535Y-87606540D01*
X97592098Y-87677012D01*
X97602232Y-87679073D01*
X97853048Y-87708981D01*
X97863382Y-87709360D01*
X98115714Y-87697902D01*
X98125972Y-87696588D01*
X98373045Y-87644070D01*
X98382950Y-87641099D01*
X98618128Y-87548933D01*
X98627415Y-87544384D01*
X98844382Y-87415046D01*
X98852801Y-87409041D01*
X99045730Y-87246003D01*
X99053055Y-87238703D01*
X99216766Y-87046344D01*
X99222801Y-87037946D01*
X99286158Y-86932500D01*
X99717488Y-86932500D01*
X99728873Y-86939287D01*
X99737955Y-86943756D01*
X99896048Y-87006349D01*
X99763132Y-87083088D01*
X99754119Y-87089399D01*
X99570366Y-87243587D01*
X99562587Y-87251366D01*
X99408399Y-87435119D01*
X99402088Y-87444132D01*
X99282152Y-87651868D01*
X99277502Y-87661840D01*
X99220118Y-87819500D01*
X96748508Y-87819500D01*
X96726767Y-87778954D01*
X96721149Y-87770271D01*
X96567031Y-87570146D01*
X96560072Y-87562497D01*
X96375337Y-87390229D01*
X96367221Y-87383819D01*
X96156832Y-87244036D01*
X96147778Y-87239038D01*
X95917383Y-87135495D01*
X95907634Y-87132043D01*
X95663423Y-87067519D01*
X95653242Y-87065706D01*
X95401770Y-87041935D01*
X95391429Y-87041808D01*
X95139451Y-87059429D01*
X95129229Y-87060993D01*
X94883513Y-87119531D01*
X94873683Y-87122743D01*
X94640827Y-87220627D01*
X94631654Y-87225402D01*
X94417912Y-87360003D01*
X94409642Y-87366212D01*
X94220754Y-87533914D01*
X94213609Y-87541391D01*
X94054647Y-87737693D01*
X94048820Y-87746236D01*
X94007200Y-87819500D01*
X91938837Y-87819500D01*
X91938837Y-87637742D01*
X91936681Y-87621366D01*
X91861863Y-87342142D01*
X91849120Y-87317662D01*
X91718010Y-87161410D01*
X91701121Y-87147239D01*
X91526880Y-87046641D01*
X91506163Y-87039100D01*
X91313462Y-87005122D01*
X91302501Y-87004163D01*
X89288742Y-87004163D01*
X89272366Y-87006319D01*
X88993142Y-87081137D01*
X88968662Y-87093880D01*
X88812410Y-87224990D01*
X88798239Y-87241879D01*
X88697641Y-87416120D01*
X88690100Y-87436837D01*
X88656122Y-87629538D01*
X88655163Y-87640499D01*
X88655163Y-89654258D01*
X88657319Y-89670634D01*
X88732137Y-89949859D01*
X88744880Y-89974339D01*
X88875990Y-90130590D01*
X88892879Y-90144761D01*
X89067120Y-90245359D01*
X89087837Y-90252900D01*
X89280538Y-90286878D01*
X89291499Y-90287837D01*
X89337148Y-90287837D01*
X89252984Y-90335649D01*
X89244613Y-90341338D01*
X89047606Y-90499737D01*
X89040252Y-90506691D01*
X88871104Y-90694548D01*
X88864956Y-90702589D01*
X88728019Y-90915075D01*
X88723236Y-90923994D01*
X88645000Y-91103068D01*
X88645000Y-83780672D01*
X93792176Y-83780672D01*
X93810864Y-83913644D01*
X93813137Y-83923732D01*
X93888673Y-84164766D01*
X93892564Y-84174348D01*
X94006452Y-84399808D01*
X94011855Y-84408626D01*
X94161038Y-84612458D01*
X94167809Y-84620275D01*
X94348280Y-84797004D01*
X94356237Y-84803610D01*
X94563148Y-84948492D01*
X94572077Y-84953710D01*
X94799873Y-85062851D01*
X94809535Y-85066540D01*
X95052098Y-85137012D01*
X95062232Y-85139073D01*
X95164309Y-85151246D01*
X95246469Y-85078301D01*
X95504999Y-85078301D01*
X95598410Y-85153944D01*
X95833045Y-85104070D01*
X95842950Y-85101099D01*
X96078128Y-85008933D01*
X96087415Y-85004384D01*
X96304382Y-84875046D01*
X96312801Y-84869041D01*
X96505730Y-84706003D01*
X96513055Y-84698703D01*
X96676766Y-84506344D01*
X96682801Y-84497946D01*
X96812895Y-84281431D01*
X96817477Y-84272161D01*
X96910463Y-84037306D01*
X96913470Y-84027411D01*
X96965285Y-83787753D01*
X96889636Y-83694000D01*
X95578809Y-83693999D01*
X95505000Y-83767808D01*
X95504999Y-85078301D01*
X95246469Y-85078301D01*
X95249000Y-85076054D01*
X95249001Y-83767809D01*
X95175192Y-83694000D01*
X93867519Y-83693999D01*
X93792176Y-83780672D01*
X88645000Y-83780672D01*
X88645000Y-81249470D01*
X88671038Y-81249470D01*
X88735004Y-81522187D01*
X88738098Y-81531824D01*
X88834428Y-81765538D01*
X88839023Y-81774556D01*
X88971480Y-81989862D01*
X88977458Y-81998030D01*
X89142634Y-82189390D01*
X89149841Y-82196497D01*
X89343489Y-82358986D01*
X89351739Y-82364849D01*
X89568873Y-82494287D01*
X89577955Y-82498756D01*
X89812991Y-82591813D01*
X89822670Y-82594772D01*
X90074904Y-82650229D01*
X90169000Y-82574574D01*
X90169000Y-82571740D01*
X90424999Y-82571740D01*
X90508377Y-82646815D01*
X90593504Y-82637869D01*
X90603453Y-82636007D01*
X90847398Y-82569728D01*
X90856920Y-82566300D01*
X91087131Y-82461873D01*
X91095983Y-82456966D01*
X91306536Y-82317074D01*
X91314489Y-82310815D01*
X91499968Y-82139061D01*
X91506819Y-82131610D01*
X91662451Y-81932411D01*
X91668023Y-81923961D01*
X91789804Y-81702441D01*
X91793953Y-81693209D01*
X91878751Y-81455069D01*
X91881370Y-81445292D01*
X91918188Y-81244693D01*
X91842626Y-81154000D01*
X90498809Y-81153999D01*
X90425000Y-81227808D01*
X90424999Y-82571740D01*
X90169000Y-82571740D01*
X90169001Y-81227809D01*
X90095192Y-81154000D01*
X88746707Y-81153999D01*
X88671038Y-81249470D01*
X88645000Y-81249470D01*
X88645000Y-80815912D01*
X88675327Y-80815912D01*
X88750273Y-80898000D01*
X90095191Y-80898001D01*
X90169000Y-80824192D01*
X90169000Y-80824191D01*
X90424999Y-80824191D01*
X90498808Y-80898000D01*
X91841765Y-80898001D01*
X91917233Y-80809327D01*
X91889804Y-80639981D01*
X91887390Y-80630152D01*
X91807597Y-80390287D01*
X91803642Y-80380971D01*
X91686527Y-80156949D01*
X91681134Y-80148384D01*
X91529708Y-79945969D01*
X91523014Y-79938377D01*
X91341174Y-79762776D01*
X91333353Y-79756351D01*
X91125775Y-79612081D01*
X91117028Y-79606990D01*
X90889056Y-79497764D01*
X90879607Y-79494137D01*
X90637104Y-79422765D01*
X90627197Y-79420695D01*
X90510350Y-79405933D01*
X90425000Y-79481178D01*
X90424999Y-80824191D01*
X90169000Y-80824191D01*
X90169001Y-79479423D01*
X90076953Y-79403814D01*
X89855628Y-79447639D01*
X89845889Y-79450394D01*
X89608956Y-79538508D01*
X89599783Y-79542786D01*
X89379984Y-79667649D01*
X89371613Y-79673338D01*
X89174606Y-79831737D01*
X89167252Y-79838691D01*
X88998104Y-80026548D01*
X88991956Y-80034589D01*
X88855019Y-80247075D01*
X88850236Y-80255994D01*
X88749032Y-80487639D01*
X88745737Y-80497209D01*
X88682872Y-80742052D01*
X88681150Y-80752017D01*
X88675327Y-80815912D01*
X88645000Y-80815912D01*
X88645000Y-79374000D01*
X93338163Y-79374000D01*
X93338163Y-81923258D01*
G36*
X93702032Y-91155639D02*
G01*
X93698737Y-91165209D01*
X93635871Y-91410056D01*
X93634148Y-91420030D01*
X93611238Y-91671777D01*
X93611132Y-91681898D01*
X93628766Y-91934071D01*
X93630279Y-91944078D01*
X93688004Y-92190187D01*
X93691098Y-92199824D01*
X93787428Y-92433538D01*
X93792023Y-92442556D01*
X93924480Y-92657862D01*
X93930458Y-92666030D01*
X94095634Y-92857390D01*
X94102841Y-92864497D01*
X94144318Y-92899300D01*
X94127606Y-92912737D01*
X94120252Y-92919691D01*
X93951104Y-93107548D01*
X93944956Y-93115589D01*
X93808019Y-93328075D01*
X93803236Y-93336994D01*
X93702032Y-93568639D01*
X93698737Y-93578209D01*
X93635871Y-93823056D01*
X93634148Y-93833030D01*
X93611238Y-94084777D01*
X93611132Y-94094898D01*
X93628766Y-94347071D01*
X93630279Y-94357078D01*
X93688004Y-94603187D01*
X93691098Y-94612824D01*
X93787428Y-94846538D01*
X93792023Y-94855556D01*
X93924480Y-95070862D01*
X93930458Y-95079030D01*
X94095634Y-95270390D01*
X94102841Y-95277497D01*
X94144318Y-95312300D01*
X94127606Y-95325737D01*
X94120252Y-95332691D01*
X93951104Y-95520548D01*
X93944956Y-95528589D01*
X93808019Y-95741075D01*
X93803236Y-95749994D01*
X93702032Y-95981639D01*
X93698737Y-95991209D01*
X93635871Y-96236056D01*
X93634148Y-96246030D01*
X93611238Y-96497777D01*
X93611132Y-96507898D01*
X93628766Y-96760071D01*
X93630279Y-96770078D01*
X93668428Y-96932725D01*
X93340550Y-97260604D01*
X93325997Y-97269786D01*
X93312325Y-97281422D01*
X93256326Y-97344829D01*
X93236342Y-97364812D01*
X93230470Y-97371585D01*
X93217993Y-97388232D01*
X93167613Y-97445277D01*
X93157756Y-97460283D01*
X93147295Y-97482563D01*
X93132531Y-97502263D01*
X93123909Y-97518011D01*
X93097190Y-97589284D01*
X93064768Y-97658341D01*
X93059460Y-97675895D01*
X93055971Y-97699236D01*
X93047172Y-97722710D01*
X93043317Y-97740244D01*
X93036862Y-97827103D01*
X93033693Y-97848306D01*
X93033000Y-97857629D01*
X93033000Y-97879076D01*
X93027117Y-97958250D01*
X93028338Y-97976161D01*
X93033000Y-97998000D01*
X93033000Y-98595153D01*
X92774500Y-98336654D01*
X92774500Y-95977590D01*
X92778297Y-95960809D01*
X92779737Y-95942914D01*
X92774500Y-95858505D01*
X92774500Y-95830222D01*
X92773863Y-95821280D01*
X92770912Y-95800674D01*
X92766200Y-95724725D01*
X92762560Y-95707146D01*
X92754202Y-95683993D01*
X92750712Y-95659623D01*
X92745673Y-95642391D01*
X92714169Y-95573102D01*
X92688264Y-95501343D01*
X92679604Y-95485176D01*
X92665565Y-95466204D01*
X92655192Y-95443388D01*
X92645519Y-95428263D01*
X92588674Y-95362291D01*
X92575913Y-95345046D01*
X92569809Y-95337962D01*
X92554644Y-95322798D01*
X92502820Y-95262653D01*
X92489291Y-95250851D01*
X92470549Y-95238703D01*
X91754954Y-94523108D01*
X91800063Y-94277332D01*
X91801097Y-94266599D01*
X91804082Y-93981596D01*
X91803273Y-93970844D01*
X91762804Y-93720981D01*
X91760390Y-93711152D01*
X91680597Y-93471287D01*
X91676642Y-93461971D01*
X91559527Y-93237949D01*
X91554134Y-93229384D01*
X91402708Y-93026969D01*
X91396014Y-93019377D01*
X91272497Y-92900098D01*
X91372968Y-92807061D01*
X91379819Y-92799610D01*
X91535451Y-92600411D01*
X91541023Y-92591961D01*
X91662804Y-92370441D01*
X91666953Y-92361209D01*
X91751751Y-92123068D01*
X91754370Y-92113292D01*
X91800063Y-91864332D01*
X91801097Y-91853599D01*
X91804082Y-91568596D01*
X91803273Y-91557844D01*
X91762804Y-91307981D01*
X91760390Y-91298152D01*
X91753976Y-91278870D01*
X91902847Y-91129999D01*
X93713234Y-91129999D01*
X93702032Y-91155639D01*
G37*
X93702032Y-91155639D02*
X93698737Y-91165209D01*
X93635871Y-91410056D01*
X93634148Y-91420030D01*
X93611238Y-91671777D01*
X93611132Y-91681898D01*
X93628766Y-91934071D01*
X93630279Y-91944078D01*
X93688004Y-92190187D01*
X93691098Y-92199824D01*
X93787428Y-92433538D01*
X93792023Y-92442556D01*
X93924480Y-92657862D01*
X93930458Y-92666030D01*
X94095634Y-92857390D01*
X94102841Y-92864497D01*
X94144318Y-92899300D01*
X94127606Y-92912737D01*
X94120252Y-92919691D01*
X93951104Y-93107548D01*
X93944956Y-93115589D01*
X93808019Y-93328075D01*
X93803236Y-93336994D01*
X93702032Y-93568639D01*
X93698737Y-93578209D01*
X93635871Y-93823056D01*
X93634148Y-93833030D01*
X93611238Y-94084777D01*
X93611132Y-94094898D01*
X93628766Y-94347071D01*
X93630279Y-94357078D01*
X93688004Y-94603187D01*
X93691098Y-94612824D01*
X93787428Y-94846538D01*
X93792023Y-94855556D01*
X93924480Y-95070862D01*
X93930458Y-95079030D01*
X94095634Y-95270390D01*
X94102841Y-95277497D01*
X94144318Y-95312300D01*
X94127606Y-95325737D01*
X94120252Y-95332691D01*
X93951104Y-95520548D01*
X93944956Y-95528589D01*
X93808019Y-95741075D01*
X93803236Y-95749994D01*
X93702032Y-95981639D01*
X93698737Y-95991209D01*
X93635871Y-96236056D01*
X93634148Y-96246030D01*
X93611238Y-96497777D01*
X93611132Y-96507898D01*
X93628766Y-96760071D01*
X93630279Y-96770078D01*
X93668428Y-96932725D01*
X93340550Y-97260604D01*
X93325997Y-97269786D01*
X93312325Y-97281422D01*
X93256326Y-97344829D01*
X93236342Y-97364812D01*
X93230470Y-97371585D01*
X93217993Y-97388232D01*
X93167613Y-97445277D01*
X93157756Y-97460283D01*
X93147295Y-97482563D01*
X93132531Y-97502263D01*
X93123909Y-97518011D01*
X93097190Y-97589284D01*
X93064768Y-97658341D01*
X93059460Y-97675895D01*
X93055971Y-97699236D01*
X93047172Y-97722710D01*
X93043317Y-97740244D01*
X93036862Y-97827103D01*
X93033693Y-97848306D01*
X93033000Y-97857629D01*
X93033000Y-97879076D01*
X93027117Y-97958250D01*
X93028338Y-97976161D01*
X93033000Y-97998000D01*
X93033000Y-98595153D01*
X92774500Y-98336654D01*
X92774500Y-95977590D01*
X92778297Y-95960809D01*
X92779737Y-95942914D01*
X92774500Y-95858505D01*
X92774500Y-95830222D01*
X92773863Y-95821280D01*
X92770912Y-95800674D01*
X92766200Y-95724725D01*
X92762560Y-95707146D01*
X92754202Y-95683993D01*
X92750712Y-95659623D01*
X92745673Y-95642391D01*
X92714169Y-95573102D01*
X92688264Y-95501343D01*
X92679604Y-95485176D01*
X92665565Y-95466204D01*
X92655192Y-95443388D01*
X92645519Y-95428263D01*
X92588674Y-95362291D01*
X92575913Y-95345046D01*
X92569809Y-95337962D01*
X92554644Y-95322798D01*
X92502820Y-95262653D01*
X92489291Y-95250851D01*
X92470549Y-95238703D01*
X91754954Y-94523108D01*
X91800063Y-94277332D01*
X91801097Y-94266599D01*
X91804082Y-93981596D01*
X91803273Y-93970844D01*
X91762804Y-93720981D01*
X91760390Y-93711152D01*
X91680597Y-93471287D01*
X91676642Y-93461971D01*
X91559527Y-93237949D01*
X91554134Y-93229384D01*
X91402708Y-93026969D01*
X91396014Y-93019377D01*
X91272497Y-92900098D01*
X91372968Y-92807061D01*
X91379819Y-92799610D01*
X91535451Y-92600411D01*
X91541023Y-92591961D01*
X91662804Y-92370441D01*
X91666953Y-92361209D01*
X91751751Y-92123068D01*
X91754370Y-92113292D01*
X91800063Y-91864332D01*
X91801097Y-91853599D01*
X91804082Y-91568596D01*
X91803273Y-91557844D01*
X91762804Y-91307981D01*
X91760390Y-91298152D01*
X91753976Y-91278870D01*
X91902847Y-91129999D01*
X93713234Y-91129999D01*
X93702032Y-91155639D01*
G36*
X110865330Y-89168714D02*
G01*
X110878088Y-89185954D01*
X110884191Y-89193037D01*
X110899352Y-89208197D01*
X110951180Y-89268347D01*
X110964709Y-89280149D01*
X110983454Y-89292299D01*
X112718833Y-91027679D01*
X112685871Y-91156056D01*
X112684148Y-91166030D01*
X112661238Y-91417777D01*
X112661132Y-91427898D01*
X112678766Y-91680071D01*
X112680279Y-91690078D01*
X112738004Y-91936187D01*
X112741098Y-91945824D01*
X112837428Y-92179538D01*
X112842023Y-92188556D01*
X112974480Y-92403862D01*
X112980458Y-92412030D01*
X113145634Y-92603390D01*
X113152841Y-92610497D01*
X113271610Y-92710155D01*
X113177606Y-92785737D01*
X113170252Y-92792691D01*
X113001104Y-92980548D01*
X112994956Y-92988589D01*
X112858019Y-93201075D01*
X112853236Y-93209994D01*
X112752032Y-93441639D01*
X112748737Y-93451209D01*
X112685871Y-93696056D01*
X112684148Y-93706030D01*
X112661238Y-93957777D01*
X112661132Y-93967898D01*
X112678766Y-94220071D01*
X112680279Y-94230078D01*
X112738004Y-94476187D01*
X112741098Y-94485824D01*
X112837428Y-94719538D01*
X112842023Y-94728556D01*
X112974480Y-94943862D01*
X112980458Y-94952030D01*
X113145634Y-95143390D01*
X113152841Y-95150497D01*
X113346489Y-95312986D01*
X113354739Y-95318849D01*
X113571873Y-95448287D01*
X113580955Y-95452756D01*
X113815991Y-95545813D01*
X113823937Y-95548242D01*
X113696840Y-95594502D01*
X113686868Y-95599152D01*
X113479132Y-95719088D01*
X113470119Y-95725399D01*
X113286366Y-95879587D01*
X113278587Y-95887366D01*
X113124399Y-96071119D01*
X113122032Y-96074500D01*
X112483346Y-96074500D01*
X110804954Y-94396109D01*
X110850063Y-94150332D01*
X110851097Y-94139599D01*
X110854082Y-93854596D01*
X110853273Y-93843844D01*
X110812804Y-93593981D01*
X110810390Y-93584152D01*
X110730597Y-93344287D01*
X110726642Y-93334971D01*
X110609527Y-93110949D01*
X110604134Y-93102384D01*
X110452708Y-92899969D01*
X110446014Y-92892377D01*
X110264173Y-92716776D01*
X110256352Y-92710351D01*
X110254500Y-92709064D01*
X110422968Y-92553061D01*
X110429819Y-92545610D01*
X110585451Y-92346411D01*
X110591023Y-92337961D01*
X110712804Y-92116441D01*
X110716953Y-92107209D01*
X110801751Y-91869068D01*
X110804370Y-91859292D01*
X110850063Y-91610332D01*
X110851097Y-91599599D01*
X110854082Y-91314596D01*
X110853273Y-91303844D01*
X110812804Y-91053981D01*
X110810390Y-91044152D01*
X110730597Y-90804287D01*
X110726642Y-90794971D01*
X110609527Y-90570949D01*
X110604134Y-90562384D01*
X110452708Y-90359969D01*
X110446014Y-90352377D01*
X110264173Y-90176776D01*
X110256352Y-90170351D01*
X110254500Y-90169064D01*
X110422968Y-90013061D01*
X110429819Y-90005610D01*
X110585451Y-89806411D01*
X110591023Y-89797961D01*
X110712804Y-89576441D01*
X110716953Y-89567209D01*
X110801751Y-89329068D01*
X110804370Y-89319292D01*
X110837858Y-89136830D01*
X110865330Y-89168714D01*
G37*
X110865330Y-89168714D02*
X110878088Y-89185954D01*
X110884191Y-89193037D01*
X110899352Y-89208197D01*
X110951180Y-89268347D01*
X110964709Y-89280149D01*
X110983454Y-89292299D01*
X112718833Y-91027679D01*
X112685871Y-91156056D01*
X112684148Y-91166030D01*
X112661238Y-91417777D01*
X112661132Y-91427898D01*
X112678766Y-91680071D01*
X112680279Y-91690078D01*
X112738004Y-91936187D01*
X112741098Y-91945824D01*
X112837428Y-92179538D01*
X112842023Y-92188556D01*
X112974480Y-92403862D01*
X112980458Y-92412030D01*
X113145634Y-92603390D01*
X113152841Y-92610497D01*
X113271610Y-92710155D01*
X113177606Y-92785737D01*
X113170252Y-92792691D01*
X113001104Y-92980548D01*
X112994956Y-92988589D01*
X112858019Y-93201075D01*
X112853236Y-93209994D01*
X112752032Y-93441639D01*
X112748737Y-93451209D01*
X112685871Y-93696056D01*
X112684148Y-93706030D01*
X112661238Y-93957777D01*
X112661132Y-93967898D01*
X112678766Y-94220071D01*
X112680279Y-94230078D01*
X112738004Y-94476187D01*
X112741098Y-94485824D01*
X112837428Y-94719538D01*
X112842023Y-94728556D01*
X112974480Y-94943862D01*
X112980458Y-94952030D01*
X113145634Y-95143390D01*
X113152841Y-95150497D01*
X113346489Y-95312986D01*
X113354739Y-95318849D01*
X113571873Y-95448287D01*
X113580955Y-95452756D01*
X113815991Y-95545813D01*
X113823937Y-95548242D01*
X113696840Y-95594502D01*
X113686868Y-95599152D01*
X113479132Y-95719088D01*
X113470119Y-95725399D01*
X113286366Y-95879587D01*
X113278587Y-95887366D01*
X113124399Y-96071119D01*
X113122032Y-96074500D01*
X112483346Y-96074500D01*
X110804954Y-94396109D01*
X110850063Y-94150332D01*
X110851097Y-94139599D01*
X110854082Y-93854596D01*
X110853273Y-93843844D01*
X110812804Y-93593981D01*
X110810390Y-93584152D01*
X110730597Y-93344287D01*
X110726642Y-93334971D01*
X110609527Y-93110949D01*
X110604134Y-93102384D01*
X110452708Y-92899969D01*
X110446014Y-92892377D01*
X110264173Y-92716776D01*
X110256352Y-92710351D01*
X110254500Y-92709064D01*
X110422968Y-92553061D01*
X110429819Y-92545610D01*
X110585451Y-92346411D01*
X110591023Y-92337961D01*
X110712804Y-92116441D01*
X110716953Y-92107209D01*
X110801751Y-91869068D01*
X110804370Y-91859292D01*
X110850063Y-91610332D01*
X110851097Y-91599599D01*
X110854082Y-91314596D01*
X110853273Y-91303844D01*
X110812804Y-91053981D01*
X110810390Y-91044152D01*
X110730597Y-90804287D01*
X110726642Y-90794971D01*
X110609527Y-90570949D01*
X110604134Y-90562384D01*
X110452708Y-90359969D01*
X110446014Y-90352377D01*
X110264173Y-90176776D01*
X110256352Y-90170351D01*
X110254500Y-90169064D01*
X110422968Y-90013061D01*
X110429819Y-90005610D01*
X110585451Y-89806411D01*
X110591023Y-89797961D01*
X110712804Y-89576441D01*
X110716953Y-89567209D01*
X110801751Y-89329068D01*
X110804370Y-89319292D01*
X110837858Y-89136830D01*
X110865330Y-89168714D01*
G36*
X109048163Y-85898258D02*
G01*
X109050319Y-85914634D01*
X109125137Y-86193859D01*
X109137880Y-86218339D01*
X109268990Y-86374590D01*
X109285879Y-86388761D01*
X109460120Y-86489359D01*
X109480837Y-86496900D01*
X109673538Y-86530878D01*
X109684499Y-86531837D01*
X110679501Y-86531837D01*
X110679500Y-88164796D01*
X110609527Y-88030949D01*
X110604134Y-88022384D01*
X110452708Y-87819969D01*
X110446014Y-87812377D01*
X110264174Y-87636776D01*
X110256353Y-87630351D01*
X110048775Y-87486081D01*
X110040028Y-87480990D01*
X109812056Y-87371764D01*
X109802607Y-87368137D01*
X109560103Y-87296765D01*
X109550196Y-87294695D01*
X109299402Y-87263011D01*
X109289290Y-87262552D01*
X109036656Y-87271374D01*
X109026601Y-87272538D01*
X108778628Y-87321639D01*
X108768889Y-87324394D01*
X108531956Y-87412508D01*
X108522783Y-87416786D01*
X108462010Y-87451310D01*
X108462010Y-84739158D01*
X108500398Y-84728728D01*
X108509920Y-84725300D01*
X108740131Y-84620873D01*
X108748983Y-84615966D01*
X108959536Y-84476074D01*
X108967489Y-84469815D01*
X109048163Y-84395111D01*
X109048163Y-85898258D01*
G37*
X109048163Y-85898258D02*
X109050319Y-85914634D01*
X109125137Y-86193859D01*
X109137880Y-86218339D01*
X109268990Y-86374590D01*
X109285879Y-86388761D01*
X109460120Y-86489359D01*
X109480837Y-86496900D01*
X109673538Y-86530878D01*
X109684499Y-86531837D01*
X110679501Y-86531837D01*
X110679500Y-88164796D01*
X110609527Y-88030949D01*
X110604134Y-88022384D01*
X110452708Y-87819969D01*
X110446014Y-87812377D01*
X110264174Y-87636776D01*
X110256353Y-87630351D01*
X110048775Y-87486081D01*
X110040028Y-87480990D01*
X109812056Y-87371764D01*
X109802607Y-87368137D01*
X109560103Y-87296765D01*
X109550196Y-87294695D01*
X109299402Y-87263011D01*
X109289290Y-87262552D01*
X109036656Y-87271374D01*
X109026601Y-87272538D01*
X108778628Y-87321639D01*
X108768889Y-87324394D01*
X108531956Y-87412508D01*
X108522783Y-87416786D01*
X108462010Y-87451310D01*
X108462010Y-84739158D01*
X108500398Y-84728728D01*
X108509920Y-84725300D01*
X108740131Y-84620873D01*
X108748983Y-84615966D01*
X108959536Y-84476074D01*
X108967489Y-84469815D01*
X109048163Y-84395111D01*
X109048163Y-85898258D01*
G04 #@! TD*
M02*
