G04 #@! TF.GenerationSoftware,KiCad,Pcbnew,(5.99.0-7307-g71ab42e60a)*
G04 #@! TF.CreationDate,2020-12-03T10:10:09+02:00*
G04 #@! TF.ProjectId,agudo,61677564-6f2e-46b6-9963-61645f706362,rev?*
G04 #@! TF.SameCoordinates,Original*
G04 #@! TF.FileFunction,Legend,Bot*
G04 #@! TF.FilePolarity,Positive*
%FSLAX46Y46*%
G04 Gerber Fmt 4.6, Leading zero omitted, Abs format (unit mm)*
G04 Created by KiCad (PCBNEW (5.99.0-7307-g71ab42e60a)) date 2020-12-03 10:10:09*
%MOMM*%
%LPD*%
G01*
G04 APERTURE LIST*
%ADD10C,0.100000*%
%ADD11C,0.300000*%
%ADD12C,0.150000*%
%ADD13C,0.127000*%
%ADD14C,0.120000*%
%ADD15R,1.600000X1.600000*%
%ADD16C,1.600000*%
%ADD17R,2.540000X2.540000*%
%ADD18O,2.540000X2.540000*%
%ADD19R,2.000000X2.000000*%
%ADD20O,2.000000X2.000000*%
%ADD21R,2.032000X2.032000*%
%ADD22O,2.032000X2.032000*%
%ADD23R,1.930400X1.930400*%
%ADD24O,1.930400X1.930400*%
%ADD25R,1.800000X1.800000*%
%ADD26C,1.800000*%
G04 APERTURE END LIST*
D10*
X82571428Y-127307142D02*
X82571428Y-128035714D01*
X82614285Y-128121428D01*
X82657142Y-128164285D01*
X82742857Y-128207142D01*
X82871428Y-128207142D01*
X82957142Y-128164285D01*
X82571428Y-127864285D02*
X82657142Y-127907142D01*
X82828571Y-127907142D01*
X82914285Y-127864285D01*
X82957142Y-127821428D01*
X83000000Y-127735714D01*
X83000000Y-127478571D01*
X82957142Y-127392857D01*
X82914285Y-127350000D01*
X82828571Y-127307142D01*
X82657142Y-127307142D01*
X82571428Y-127350000D01*
X82142857Y-127907142D02*
X82142857Y-127307142D01*
X82142857Y-127007142D02*
X82185714Y-127050000D01*
X82142857Y-127092857D01*
X82100000Y-127050000D01*
X82142857Y-127007142D01*
X82142857Y-127092857D01*
X81842857Y-127307142D02*
X81500000Y-127307142D01*
X81714285Y-127007142D02*
X81714285Y-127778571D01*
X81671428Y-127864285D01*
X81585714Y-127907142D01*
X81500000Y-127907142D01*
X81200000Y-127907142D02*
X81200000Y-127007142D01*
X80814285Y-127907142D02*
X80814285Y-127435714D01*
X80857142Y-127350000D01*
X80942857Y-127307142D01*
X81071428Y-127307142D01*
X81157142Y-127350000D01*
X81200000Y-127392857D01*
X80000000Y-127307142D02*
X80000000Y-127907142D01*
X80385714Y-127307142D02*
X80385714Y-127778571D01*
X80342857Y-127864285D01*
X80257142Y-127907142D01*
X80128571Y-127907142D01*
X80042857Y-127864285D01*
X80000000Y-127821428D01*
X79571428Y-127907142D02*
X79571428Y-127007142D01*
X79571428Y-127350000D02*
X79485714Y-127307142D01*
X79314285Y-127307142D01*
X79228571Y-127350000D01*
X79185714Y-127392857D01*
X79142857Y-127478571D01*
X79142857Y-127735714D01*
X79185714Y-127821428D01*
X79228571Y-127864285D01*
X79314285Y-127907142D01*
X79485714Y-127907142D01*
X79571428Y-127864285D01*
X78757142Y-127821428D02*
X78714285Y-127864285D01*
X78757142Y-127907142D01*
X78800000Y-127864285D01*
X78757142Y-127821428D01*
X78757142Y-127907142D01*
X77942857Y-127864285D02*
X78028571Y-127907142D01*
X78200000Y-127907142D01*
X78285714Y-127864285D01*
X78328571Y-127821428D01*
X78371428Y-127735714D01*
X78371428Y-127478571D01*
X78328571Y-127392857D01*
X78285714Y-127350000D01*
X78200000Y-127307142D01*
X78028571Y-127307142D01*
X77942857Y-127350000D01*
X77428571Y-127907142D02*
X77514285Y-127864285D01*
X77557142Y-127821428D01*
X77600000Y-127735714D01*
X77600000Y-127478571D01*
X77557142Y-127392857D01*
X77514285Y-127350000D01*
X77428571Y-127307142D01*
X77300000Y-127307142D01*
X77214285Y-127350000D01*
X77171428Y-127392857D01*
X77128571Y-127478571D01*
X77128571Y-127735714D01*
X77171428Y-127821428D01*
X77214285Y-127864285D01*
X77300000Y-127907142D01*
X77428571Y-127907142D01*
X76742857Y-127907142D02*
X76742857Y-127307142D01*
X76742857Y-127392857D02*
X76700000Y-127350000D01*
X76614285Y-127307142D01*
X76485714Y-127307142D01*
X76400000Y-127350000D01*
X76357142Y-127435714D01*
X76357142Y-127907142D01*
X76357142Y-127435714D02*
X76314285Y-127350000D01*
X76228571Y-127307142D01*
X76100000Y-127307142D01*
X76014285Y-127350000D01*
X75971428Y-127435714D01*
X75971428Y-127907142D01*
X74900000Y-126964285D02*
X75671428Y-128121428D01*
X74600000Y-127907142D02*
X74600000Y-127307142D01*
X74600000Y-127478571D02*
X74557142Y-127392857D01*
X74514285Y-127350000D01*
X74428571Y-127307142D01*
X74342857Y-127307142D01*
X73914285Y-127907142D02*
X74000000Y-127864285D01*
X74042857Y-127821428D01*
X74085714Y-127735714D01*
X74085714Y-127478571D01*
X74042857Y-127392857D01*
X74000000Y-127350000D01*
X73914285Y-127307142D01*
X73785714Y-127307142D01*
X73700000Y-127350000D01*
X73657142Y-127392857D01*
X73614285Y-127478571D01*
X73614285Y-127735714D01*
X73657142Y-127821428D01*
X73700000Y-127864285D01*
X73785714Y-127907142D01*
X73914285Y-127907142D01*
X72842857Y-127864285D02*
X72928571Y-127907142D01*
X73100000Y-127907142D01*
X73185714Y-127864285D01*
X73228571Y-127821428D01*
X73271428Y-127735714D01*
X73271428Y-127478571D01*
X73228571Y-127392857D01*
X73185714Y-127350000D01*
X73100000Y-127307142D01*
X72928571Y-127307142D01*
X72842857Y-127350000D01*
X72457142Y-127907142D02*
X72457142Y-127007142D01*
X72371428Y-127564285D02*
X72114285Y-127907142D01*
X72114285Y-127307142D02*
X72457142Y-127650000D01*
X71600000Y-127907142D02*
X71685714Y-127864285D01*
X71728571Y-127821428D01*
X71771428Y-127735714D01*
X71771428Y-127478571D01*
X71728571Y-127392857D01*
X71685714Y-127350000D01*
X71600000Y-127307142D01*
X71471428Y-127307142D01*
X71385714Y-127350000D01*
X71342857Y-127392857D01*
X71300000Y-127478571D01*
X71300000Y-127735714D01*
X71342857Y-127821428D01*
X71385714Y-127864285D01*
X71471428Y-127907142D01*
X71600000Y-127907142D01*
X70785714Y-127907142D02*
X70871428Y-127864285D01*
X70914285Y-127778571D01*
X70914285Y-127007142D01*
X70057142Y-127907142D02*
X70057142Y-127435714D01*
X70100000Y-127350000D01*
X70185714Y-127307142D01*
X70357142Y-127307142D01*
X70442857Y-127350000D01*
X70057142Y-127864285D02*
X70142857Y-127907142D01*
X70357142Y-127907142D01*
X70442857Y-127864285D01*
X70485714Y-127778571D01*
X70485714Y-127692857D01*
X70442857Y-127607142D01*
X70357142Y-127564285D01*
X70142857Y-127564285D01*
X70057142Y-127521428D01*
X68985714Y-126964285D02*
X69757142Y-128121428D01*
X68300000Y-127907142D02*
X68300000Y-127435714D01*
X68342857Y-127350000D01*
X68428571Y-127307142D01*
X68600000Y-127307142D01*
X68685714Y-127350000D01*
X68300000Y-127864285D02*
X68385714Y-127907142D01*
X68600000Y-127907142D01*
X68685714Y-127864285D01*
X68728571Y-127778571D01*
X68728571Y-127692857D01*
X68685714Y-127607142D01*
X68600000Y-127564285D01*
X68385714Y-127564285D01*
X68300000Y-127521428D01*
X67485714Y-127307142D02*
X67485714Y-128035714D01*
X67528571Y-128121428D01*
X67571428Y-128164285D01*
X67657142Y-128207142D01*
X67785714Y-128207142D01*
X67871428Y-128164285D01*
X67485714Y-127864285D02*
X67571428Y-127907142D01*
X67742857Y-127907142D01*
X67828571Y-127864285D01*
X67871428Y-127821428D01*
X67914285Y-127735714D01*
X67914285Y-127478571D01*
X67871428Y-127392857D01*
X67828571Y-127350000D01*
X67742857Y-127307142D01*
X67571428Y-127307142D01*
X67485714Y-127350000D01*
X66671428Y-127307142D02*
X66671428Y-127907142D01*
X67057142Y-127307142D02*
X67057142Y-127778571D01*
X67014285Y-127864285D01*
X66928571Y-127907142D01*
X66800000Y-127907142D01*
X66714285Y-127864285D01*
X66671428Y-127821428D01*
X65857142Y-127907142D02*
X65857142Y-127007142D01*
X65857142Y-127864285D02*
X65942857Y-127907142D01*
X66114285Y-127907142D01*
X66200000Y-127864285D01*
X66242857Y-127821428D01*
X66285714Y-127735714D01*
X66285714Y-127478571D01*
X66242857Y-127392857D01*
X66200000Y-127350000D01*
X66114285Y-127307142D01*
X65942857Y-127307142D01*
X65857142Y-127350000D01*
X65300000Y-127907142D02*
X65385714Y-127864285D01*
X65428571Y-127821428D01*
X65471428Y-127735714D01*
X65471428Y-127478571D01*
X65428571Y-127392857D01*
X65385714Y-127350000D01*
X65300000Y-127307142D01*
X65171428Y-127307142D01*
X65085714Y-127350000D01*
X65042857Y-127392857D01*
X65000000Y-127478571D01*
X65000000Y-127735714D01*
X65042857Y-127821428D01*
X65085714Y-127864285D01*
X65171428Y-127907142D01*
X65300000Y-127907142D01*
D11*
X66321428Y-99250000D02*
X65607142Y-99250000D01*
X66464285Y-99678571D02*
X65964285Y-98178571D01*
X65464285Y-99678571D01*
X64321428Y-98678571D02*
X64321428Y-99892857D01*
X64392857Y-100035714D01*
X64464285Y-100107142D01*
X64607142Y-100178571D01*
X64821428Y-100178571D01*
X64964285Y-100107142D01*
X64321428Y-99607142D02*
X64464285Y-99678571D01*
X64750000Y-99678571D01*
X64892857Y-99607142D01*
X64964285Y-99535714D01*
X65035714Y-99392857D01*
X65035714Y-98964285D01*
X64964285Y-98821428D01*
X64892857Y-98750000D01*
X64750000Y-98678571D01*
X64464285Y-98678571D01*
X64321428Y-98750000D01*
X62964285Y-98678571D02*
X62964285Y-99678571D01*
X63607142Y-98678571D02*
X63607142Y-99464285D01*
X63535714Y-99607142D01*
X63392857Y-99678571D01*
X63178571Y-99678571D01*
X63035714Y-99607142D01*
X62964285Y-99535714D01*
X61607142Y-99678571D02*
X61607142Y-98178571D01*
X61607142Y-99607142D02*
X61750000Y-99678571D01*
X62035714Y-99678571D01*
X62178571Y-99607142D01*
X62250000Y-99535714D01*
X62321428Y-99392857D01*
X62321428Y-98964285D01*
X62250000Y-98821428D01*
X62178571Y-98750000D01*
X62035714Y-98678571D01*
X61750000Y-98678571D01*
X61607142Y-98750000D01*
X60678571Y-99678571D02*
X60821428Y-99607142D01*
X60892857Y-99535714D01*
X60964285Y-99392857D01*
X60964285Y-98964285D01*
X60892857Y-98821428D01*
X60821428Y-98750000D01*
X60678571Y-98678571D01*
X60464285Y-98678571D01*
X60321428Y-98750000D01*
X60250000Y-98821428D01*
X60178571Y-98964285D01*
X60178571Y-99392857D01*
X60250000Y-99535714D01*
X60321428Y-99607142D01*
X60464285Y-99678571D01*
X60678571Y-99678571D01*
D10*
X82678571Y-98582642D02*
X82440476Y-99182642D01*
X82202380Y-98582642D01*
X81630952Y-98282642D02*
X81535714Y-98282642D01*
X81440476Y-98325500D01*
X81392857Y-98368357D01*
X81345238Y-98454071D01*
X81297619Y-98625500D01*
X81297619Y-98839785D01*
X81345238Y-99011214D01*
X81392857Y-99096928D01*
X81440476Y-99139785D01*
X81535714Y-99182642D01*
X81630952Y-99182642D01*
X81726190Y-99139785D01*
X81773809Y-99096928D01*
X81821428Y-99011214D01*
X81869047Y-98839785D01*
X81869047Y-98625500D01*
X81821428Y-98454071D01*
X81773809Y-98368357D01*
X81726190Y-98325500D01*
X81630952Y-98282642D01*
X80869047Y-99096928D02*
X80821428Y-99139785D01*
X80869047Y-99182642D01*
X80916666Y-99139785D01*
X80869047Y-99096928D01*
X80869047Y-99182642D01*
X80440476Y-98368357D02*
X80392857Y-98325500D01*
X80297619Y-98282642D01*
X80059523Y-98282642D01*
X79964285Y-98325500D01*
X79916666Y-98368357D01*
X79869047Y-98454071D01*
X79869047Y-98539785D01*
X79916666Y-98668357D01*
X80488095Y-99182642D01*
X79869047Y-99182642D01*
X86107142Y-99817357D02*
X86059523Y-99774500D01*
X85964285Y-99731642D01*
X85726190Y-99731642D01*
X85630952Y-99774500D01*
X85583333Y-99817357D01*
X85535714Y-99903071D01*
X85535714Y-99988785D01*
X85583333Y-100117357D01*
X86154761Y-100631642D01*
X85535714Y-100631642D01*
X84916666Y-99731642D02*
X84821428Y-99731642D01*
X84726190Y-99774500D01*
X84678571Y-99817357D01*
X84630952Y-99903071D01*
X84583333Y-100074500D01*
X84583333Y-100288785D01*
X84630952Y-100460214D01*
X84678571Y-100545928D01*
X84726190Y-100588785D01*
X84821428Y-100631642D01*
X84916666Y-100631642D01*
X85011904Y-100588785D01*
X85059523Y-100545928D01*
X85107142Y-100460214D01*
X85154761Y-100288785D01*
X85154761Y-100074500D01*
X85107142Y-99903071D01*
X85059523Y-99817357D01*
X85011904Y-99774500D01*
X84916666Y-99731642D01*
X84202380Y-99817357D02*
X84154761Y-99774500D01*
X84059523Y-99731642D01*
X83821428Y-99731642D01*
X83726190Y-99774500D01*
X83678571Y-99817357D01*
X83630952Y-99903071D01*
X83630952Y-99988785D01*
X83678571Y-100117357D01*
X84250000Y-100631642D01*
X83630952Y-100631642D01*
X83011904Y-99731642D02*
X82916666Y-99731642D01*
X82821428Y-99774500D01*
X82773809Y-99817357D01*
X82726190Y-99903071D01*
X82678571Y-100074500D01*
X82678571Y-100288785D01*
X82726190Y-100460214D01*
X82773809Y-100545928D01*
X82821428Y-100588785D01*
X82916666Y-100631642D01*
X83011904Y-100631642D01*
X83107142Y-100588785D01*
X83154761Y-100545928D01*
X83202380Y-100460214D01*
X83250000Y-100288785D01*
X83250000Y-100074500D01*
X83202380Y-99903071D01*
X83154761Y-99817357D01*
X83107142Y-99774500D01*
X83011904Y-99731642D01*
X82250000Y-100288785D02*
X81488095Y-100288785D01*
X80488095Y-100631642D02*
X81059523Y-100631642D01*
X80773809Y-100631642D02*
X80773809Y-99731642D01*
X80869047Y-99860214D01*
X80964285Y-99945928D01*
X81059523Y-99988785D01*
X80107142Y-99817357D02*
X80059523Y-99774500D01*
X79964285Y-99731642D01*
X79726190Y-99731642D01*
X79630952Y-99774500D01*
X79583333Y-99817357D01*
X79535714Y-99903071D01*
X79535714Y-99988785D01*
X79583333Y-100117357D01*
X80154761Y-100631642D01*
X79535714Y-100631642D01*
X79107142Y-100288785D02*
X78345238Y-100288785D01*
X77678571Y-99731642D02*
X77583333Y-99731642D01*
X77488095Y-99774500D01*
X77440476Y-99817357D01*
X77392857Y-99903071D01*
X77345238Y-100074500D01*
X77345238Y-100288785D01*
X77392857Y-100460214D01*
X77440476Y-100545928D01*
X77488095Y-100588785D01*
X77583333Y-100631642D01*
X77678571Y-100631642D01*
X77773809Y-100588785D01*
X77821428Y-100545928D01*
X77869047Y-100460214D01*
X77916666Y-100288785D01*
X77916666Y-100074500D01*
X77869047Y-99903071D01*
X77821428Y-99817357D01*
X77773809Y-99774500D01*
X77678571Y-99731642D01*
X76964285Y-99817357D02*
X76916666Y-99774500D01*
X76821428Y-99731642D01*
X76583333Y-99731642D01*
X76488095Y-99774500D01*
X76440476Y-99817357D01*
X76392857Y-99903071D01*
X76392857Y-99988785D01*
X76440476Y-100117357D01*
X77011904Y-100631642D01*
X76392857Y-100631642D01*
D12*
G04 #@! TO.C,RV2*
X77321404Y-112798761D02*
X77178547Y-112846380D01*
X76940452Y-112846380D01*
X76845214Y-112798761D01*
X76797595Y-112751142D01*
X76749976Y-112655904D01*
X76749976Y-112560666D01*
X76797595Y-112465428D01*
X76845214Y-112417809D01*
X76940452Y-112370190D01*
X77130928Y-112322571D01*
X77226166Y-112274952D01*
X77273785Y-112227333D01*
X77321404Y-112132095D01*
X77321404Y-112036857D01*
X77273785Y-111941619D01*
X77226166Y-111894000D01*
X77130928Y-111846380D01*
X76892833Y-111846380D01*
X76749976Y-111894000D01*
X76321404Y-112179714D02*
X76321404Y-113179714D01*
X76321404Y-112227333D02*
X76226166Y-112179714D01*
X76035690Y-112179714D01*
X75940452Y-112227333D01*
X75892833Y-112274952D01*
X75845214Y-112370190D01*
X75845214Y-112655904D01*
X75892833Y-112751142D01*
X75940452Y-112798761D01*
X76035690Y-112846380D01*
X76226166Y-112846380D01*
X76321404Y-112798761D01*
X75035690Y-112798761D02*
X75130928Y-112846380D01*
X75321404Y-112846380D01*
X75416642Y-112798761D01*
X75464261Y-112703523D01*
X75464261Y-112322571D01*
X75416642Y-112227333D01*
X75321404Y-112179714D01*
X75130928Y-112179714D01*
X75035690Y-112227333D01*
X74988071Y-112322571D01*
X74988071Y-112417809D01*
X75464261Y-112513047D01*
X74178547Y-112798761D02*
X74273785Y-112846380D01*
X74464261Y-112846380D01*
X74559500Y-112798761D01*
X74607119Y-112703523D01*
X74607119Y-112322571D01*
X74559500Y-112227333D01*
X74464261Y-112179714D01*
X74273785Y-112179714D01*
X74178547Y-112227333D01*
X74130928Y-112322571D01*
X74130928Y-112417809D01*
X74607119Y-112513047D01*
X73273785Y-112846380D02*
X73273785Y-111846380D01*
X73273785Y-112798761D02*
X73369023Y-112846380D01*
X73559500Y-112846380D01*
X73654738Y-112798761D01*
X73702357Y-112751142D01*
X73749976Y-112655904D01*
X73749976Y-112370190D01*
X73702357Y-112274952D01*
X73654738Y-112227333D01*
X73559500Y-112179714D01*
X73369023Y-112179714D01*
X73273785Y-112227333D01*
X71464261Y-112751142D02*
X71511880Y-112798761D01*
X71654738Y-112846380D01*
X71749976Y-112846380D01*
X71892833Y-112798761D01*
X71988071Y-112703523D01*
X72035690Y-112608285D01*
X72083309Y-112417809D01*
X72083309Y-112274952D01*
X72035690Y-112084476D01*
X71988071Y-111989238D01*
X71892833Y-111894000D01*
X71749976Y-111846380D01*
X71654738Y-111846380D01*
X71511880Y-111894000D01*
X71464261Y-111941619D01*
X70559500Y-111846380D02*
X71035690Y-111846380D01*
X71083309Y-112322571D01*
X71035690Y-112274952D01*
X70940452Y-112227333D01*
X70702357Y-112227333D01*
X70607119Y-112274952D01*
X70559500Y-112322571D01*
X70511880Y-112417809D01*
X70511880Y-112655904D01*
X70559500Y-112751142D01*
X70607119Y-112798761D01*
X70702357Y-112846380D01*
X70940452Y-112846380D01*
X71035690Y-112798761D01*
X71083309Y-112751142D01*
X69892833Y-111846380D02*
X69797595Y-111846380D01*
X69702357Y-111894000D01*
X69654738Y-111941619D01*
X69607119Y-112036857D01*
X69559500Y-112227333D01*
X69559500Y-112465428D01*
X69607119Y-112655904D01*
X69654738Y-112751142D01*
X69702357Y-112798761D01*
X69797595Y-112846380D01*
X69892833Y-112846380D01*
X69988071Y-112798761D01*
X70035690Y-112751142D01*
X70083309Y-112655904D01*
X70130928Y-112465428D01*
X70130928Y-112227333D01*
X70083309Y-112036857D01*
X70035690Y-111941619D01*
X69988071Y-111894000D01*
X69892833Y-111846380D01*
X68940452Y-111846380D02*
X68845214Y-111846380D01*
X68749976Y-111894000D01*
X68702357Y-111941619D01*
X68654738Y-112036857D01*
X68607119Y-112227333D01*
X68607119Y-112465428D01*
X68654738Y-112655904D01*
X68702357Y-112751142D01*
X68749976Y-112798761D01*
X68845214Y-112846380D01*
X68940452Y-112846380D01*
X69035690Y-112798761D01*
X69083309Y-112751142D01*
X69130928Y-112655904D01*
X69178547Y-112465428D01*
X69178547Y-112227333D01*
X69130928Y-112036857D01*
X69083309Y-111941619D01*
X69035690Y-111894000D01*
X68940452Y-111846380D01*
X68178547Y-112846380D02*
X68178547Y-111846380D01*
X68083309Y-112465428D02*
X67797595Y-112846380D01*
X67797595Y-112179714D02*
X68178547Y-112560666D01*
D10*
X72464285Y-103702380D02*
X73035714Y-103702380D01*
X72750000Y-103702380D02*
X72750000Y-102702380D01*
X72845238Y-102845238D01*
X72940476Y-102940476D01*
X73035714Y-102988095D01*
X69529382Y-102599310D02*
X69970617Y-102599310D01*
X69750000Y-102599310D02*
X69750000Y-101827150D01*
X69823539Y-101937459D01*
X69897078Y-102010998D01*
X69970617Y-102047767D01*
D12*
G04 #@! TO.C,J1*
X77610000Y-129156904D02*
X77457619Y-129156904D01*
X77381428Y-129195000D01*
X77305238Y-129271190D01*
X77267142Y-129423571D01*
X77267142Y-129690238D01*
X77305238Y-129842619D01*
X77381428Y-129918809D01*
X77457619Y-129956904D01*
X77610000Y-129956904D01*
X77686190Y-129918809D01*
X77762380Y-129842619D01*
X77800476Y-129690238D01*
X77800476Y-129423571D01*
X77762380Y-129271190D01*
X77686190Y-129195000D01*
X77610000Y-129156904D01*
X76924285Y-129156904D02*
X76924285Y-129804523D01*
X76886190Y-129880714D01*
X76848095Y-129918809D01*
X76771904Y-129956904D01*
X76619523Y-129956904D01*
X76543333Y-129918809D01*
X76505238Y-129880714D01*
X76467142Y-129804523D01*
X76467142Y-129156904D01*
X76200476Y-129156904D02*
X75743333Y-129156904D01*
X75971904Y-129956904D02*
X75971904Y-129156904D01*
X74917619Y-129652142D02*
X74308095Y-129652142D01*
X74612857Y-129956904D02*
X74612857Y-129347380D01*
X74041428Y-129156904D02*
X73774761Y-129956904D01*
X73508095Y-129156904D01*
X72339523Y-129195000D02*
X72415714Y-129156904D01*
X72530000Y-129156904D01*
X72644285Y-129195000D01*
X72720476Y-129271190D01*
X72758571Y-129347380D01*
X72796666Y-129499761D01*
X72796666Y-129614047D01*
X72758571Y-129766428D01*
X72720476Y-129842619D01*
X72644285Y-129918809D01*
X72530000Y-129956904D01*
X72453809Y-129956904D01*
X72339523Y-129918809D01*
X72301428Y-129880714D01*
X72301428Y-129614047D01*
X72453809Y-129614047D01*
X71958571Y-129956904D02*
X71958571Y-129156904D01*
X71501428Y-129956904D01*
X71501428Y-129156904D01*
X71120476Y-129956904D02*
X71120476Y-129156904D01*
X70930000Y-129156904D01*
X70815714Y-129195000D01*
X70739523Y-129271190D01*
X70701428Y-129347380D01*
X70663333Y-129499761D01*
X70663333Y-129614047D01*
X70701428Y-129766428D01*
X70739523Y-129842619D01*
X70815714Y-129918809D01*
X70930000Y-129956904D01*
X71120476Y-129956904D01*
X69609047Y-129956904D02*
X69609047Y-129156904D01*
X69228095Y-129956904D02*
X69228095Y-129156904D01*
X68770952Y-129956904D01*
X68770952Y-129156904D01*
G04 #@! TO.C,D3*
X70238095Y-99452380D02*
X70238095Y-98452380D01*
X70000000Y-98452380D01*
X69857142Y-98500000D01*
X69761904Y-98595238D01*
X69714285Y-98690476D01*
X69666666Y-98880952D01*
X69666666Y-99023809D01*
X69714285Y-99214285D01*
X69761904Y-99309523D01*
X69857142Y-99404761D01*
X70000000Y-99452380D01*
X70238095Y-99452380D01*
X69333333Y-98452380D02*
X68714285Y-98452380D01*
X69047619Y-98833333D01*
X68904761Y-98833333D01*
X68809523Y-98880952D01*
X68761904Y-98928571D01*
X68714285Y-99023809D01*
X68714285Y-99261904D01*
X68761904Y-99357142D01*
X68809523Y-99404761D01*
X68904761Y-99452380D01*
X69190476Y-99452380D01*
X69285714Y-99404761D01*
X69333333Y-99357142D01*
D13*
G04 #@! TO.C,RV2*
X69194000Y-104774000D02*
X69194000Y-101726000D01*
X65130000Y-104901000D02*
X65130000Y-113410000D01*
X74274000Y-104774000D02*
X74274000Y-101726000D01*
X80370000Y-113410000D02*
X80370000Y-104901000D01*
X79354000Y-101726000D02*
X76306000Y-101726000D01*
X74274000Y-101726000D02*
X71226000Y-101726000D01*
X66146000Y-101726000D02*
X66146000Y-104774000D01*
X72750000Y-108965000D02*
X72750000Y-126745000D01*
X79354000Y-104774000D02*
X76306000Y-104774000D01*
X69194000Y-104774000D02*
X66146000Y-104774000D01*
X80370000Y-104901000D02*
X65130000Y-104901000D01*
X74274000Y-104774000D02*
X71226000Y-104774000D01*
X69194000Y-101726000D02*
X66146000Y-101726000D01*
X71226000Y-101726000D02*
X71226000Y-104774000D01*
X79354000Y-104774000D02*
X79354000Y-101726000D01*
X76306000Y-101726000D02*
X76306000Y-104774000D01*
X81640000Y-117855000D02*
X63860000Y-117855000D01*
X72749998Y-126745000D02*
G75*
G03*
X81640000Y-117855000I101J8889901D01*
G01*
X81640000Y-117855000D02*
G75*
G03*
X72750000Y-108965000I-8890000J0D01*
G01*
X72750000Y-108965000D02*
G75*
G03*
X63860000Y-117855000I0J-8890000D01*
G01*
X63860000Y-117854998D02*
G75*
G03*
X72750000Y-126745000I8889901J-101D01*
G01*
X73648000Y-117855000D02*
G75*
G03*
X73648000Y-117855000I-898000J0D01*
G01*
G04 #@! TO.C,SW1*
X84480000Y-117360000D02*
X83210000Y-117360000D01*
X87020000Y-132600000D02*
X87020000Y-117360000D01*
X87020000Y-132600000D02*
X84480000Y-132600000D01*
X84480000Y-117360000D02*
X87020000Y-117360000D01*
X83210000Y-132600000D02*
X84480000Y-132600000D01*
X83210000Y-117360000D02*
X83210000Y-132600000D01*
X84480000Y-117360000D02*
X84480000Y-132600000D01*
G04 #@! TO.C,J1*
X67920000Y-132770000D02*
X78080000Y-132770000D01*
X67920000Y-132770000D02*
X67920000Y-130230000D01*
X78080000Y-130230000D02*
X78080000Y-128960000D01*
X78080000Y-130230000D02*
X67920000Y-130230000D01*
X67920000Y-130230000D02*
X67920000Y-128960000D01*
X78080000Y-132770000D02*
X78080000Y-130230000D01*
X67920000Y-128960000D02*
X78080000Y-128960000D01*
D14*
G04 #@! TO.C,D3*
X71210000Y-100486000D02*
X71210000Y-100330000D01*
X71210000Y-98170000D02*
X71210000Y-98014000D01*
X73811130Y-100329837D02*
G75*
G02*
X71729039Y-100330000I-1041130J1079837D01*
G01*
X74442335Y-98171392D02*
G75*
G03*
X71210000Y-98014484I-1672335J-1078608D01*
G01*
X74442335Y-100328608D02*
G75*
G02*
X71210000Y-100485516I-1672335J1078608D01*
G01*
X73811130Y-98170163D02*
G75*
G03*
X71729039Y-98170000I-1041130J-1079837D01*
G01*
G04 #@! TD*
%LPC*%
D15*
G04 #@! TO.C,C2*
X60750000Y-115750000D03*
D16*
X63250000Y-115750000D03*
G04 #@! TD*
D17*
G04 #@! TO.C,RV2*
X67670000Y-103250000D03*
D18*
X72750000Y-103250000D03*
X77830000Y-103250000D03*
G04 #@! TD*
D19*
G04 #@! TO.C,D2*
X63500000Y-119940000D03*
D20*
X63500000Y-127560000D03*
G04 #@! TD*
D19*
G04 #@! TO.C,D1*
X60750000Y-119940000D03*
D20*
X60750000Y-127560000D03*
G04 #@! TD*
D21*
G04 #@! TO.C,SW1*
X85750000Y-131330000D03*
D22*
X85750000Y-128790000D03*
X85750000Y-126250000D03*
X85750000Y-123710000D03*
X85750000Y-121170000D03*
X85750000Y-118630000D03*
G04 #@! TD*
D23*
G04 #@! TO.C,J1*
X69190000Y-131500000D03*
D24*
X71730000Y-131500000D03*
X74270000Y-131500000D03*
X76810000Y-131500000D03*
G04 #@! TD*
D15*
G04 #@! TO.C,C8*
X63250000Y-106750000D03*
D16*
X60750000Y-106750000D03*
G04 #@! TD*
D24*
G04 #@! TO.C,RV1*
X86040000Y-108000000D03*
X83500000Y-110540000D03*
X80960000Y-108000000D03*
G04 #@! TD*
D25*
G04 #@! TO.C,D3*
X71500000Y-99250000D03*
D26*
X74040000Y-99250000D03*
G04 #@! TD*
M02*
